<svg width="233" height="487" viewBox="0 0 233 487" fill="none" xmlns="http://www.w3.org/2000/svg">
<g clip-path="url(#clip0_624_20902)">
<rect x="8" y="8" width="217" height="471.035" rx="22.8421" fill="#F0F1F2"/>
<rect width="217" height="25.4613" transform="translate(8 8)" fill="#F0F1F2"/>
<path opacity="0.4" d="M204.744 18.4163H212.846C213.256 18.4163 213.546 18.4165 213.772 18.435C213.996 18.4533 214.132 18.4878 214.239 18.5424C214.457 18.6534 214.634 18.8304 214.745 19.0482C214.799 19.1553 214.834 19.2917 214.852 19.515C214.871 19.7417 214.871 20.0317 214.871 20.4416V21.8883C214.871 22.2982 214.871 22.5882 214.852 22.8149C214.834 23.0382 214.799 23.1746 214.745 23.2817C214.634 23.4995 214.457 23.6765 214.239 23.7875C214.132 23.8421 213.996 23.8766 213.772 23.8949C213.546 23.9134 213.256 23.9136 212.846 23.9136H204.744C204.334 23.9136 204.044 23.9134 203.818 23.8949C203.594 23.8766 203.458 23.8421 203.351 23.7875C203.133 23.6765 202.956 23.4995 202.845 23.2817C202.791 23.1746 202.756 23.0382 202.738 22.8149C202.719 22.5882 202.719 22.2982 202.719 21.8883V20.4416C202.719 20.0317 202.719 19.7417 202.738 19.515C202.756 19.2917 202.791 19.1553 202.845 19.0482C202.956 18.8304 203.133 18.6534 203.351 18.5424C203.458 18.4878 203.594 18.4533 203.818 18.435C204.044 18.4165 204.334 18.4163 204.744 18.4163Z" stroke="black" stroke-width="0.578667"/>
<path opacity="0.4" fill-rule="evenodd" clip-rule="evenodd" d="M215.738 22.3941C216.237 22.2656 216.606 21.8125 216.606 21.2732C216.606 20.7339 216.237 20.2808 215.738 20.1523V22.3941Z" fill="black"/>
<rect x="203.586" y="19.2842" width="10.416" height="3.76133" rx="0.578667" fill="black"/>
<path fill-rule="evenodd" clip-rule="evenodd" d="M195.099 19.3461C196.381 19.3462 197.614 19.8389 198.544 20.7224C198.614 20.7906 198.725 20.7897 198.794 20.7205L199.463 20.0454C199.498 20.0102 199.518 19.9626 199.517 19.9131C199.517 19.8636 199.497 19.8162 199.462 19.7815C197.023 17.4439 193.175 17.4439 190.735 19.7815C190.7 19.8162 190.68 19.8635 190.68 19.9131C190.679 19.9626 190.699 20.0102 190.734 20.0454L191.403 20.7205C191.472 20.7899 191.584 20.7907 191.654 20.7224C192.583 19.8388 193.816 19.3461 195.099 19.3461ZM195.099 21.5425C195.804 21.5425 196.483 21.8043 197.005 22.2772C197.076 22.3443 197.187 22.3429 197.256 22.2739L197.924 21.5988C197.959 21.5634 197.979 21.5154 197.978 21.4655C197.978 21.4155 197.957 21.3679 197.922 21.3332C196.331 19.8539 193.868 19.8539 192.278 21.3332C192.242 21.3679 192.222 21.4156 192.221 21.4655C192.221 21.5154 192.24 21.5635 192.276 21.5988L192.944 22.2739C193.013 22.3429 193.124 22.3443 193.194 22.2772C193.716 21.8046 194.395 21.5428 195.099 21.5425ZM196.438 23.0205C196.439 23.0705 196.419 23.1188 196.383 23.1538L195.227 24.3202C195.194 24.3545 195.147 24.3738 195.099 24.3738C195.051 24.3738 195.005 24.3545 194.971 24.3202L193.815 23.1538C193.779 23.1187 193.76 23.0705 193.761 23.0204C193.762 22.9704 193.783 22.9229 193.821 22.8894C194.559 22.2651 195.64 22.2651 196.378 22.8894C196.415 22.923 196.437 22.9704 196.438 23.0205Z" fill="black"/>
<path fill-rule="evenodd" clip-rule="evenodd" d="M187.771 18.8013C187.771 18.4817 187.512 18.2227 187.192 18.2227H186.614C186.294 18.2227 186.035 18.4817 186.035 18.8013V23.8164C186.035 24.136 186.294 24.3951 186.614 24.3951H187.192C187.512 24.3951 187.771 24.136 187.771 23.8164V18.8013ZM183.912 19.573H184.491C184.811 19.573 185.07 19.8321 185.07 20.1516V23.8165C185.07 24.1361 184.811 24.3952 184.491 24.3952H183.912C183.593 24.3952 183.334 24.1361 183.334 23.8165V20.1516C183.334 19.8321 183.593 19.573 183.912 19.573ZM181.792 20.923H181.213C180.894 20.923 180.635 21.1821 180.635 21.5017V23.8163C180.635 24.1359 180.894 24.395 181.213 24.395H181.792C182.112 24.395 182.371 24.1359 182.371 23.8163V21.5017C182.371 21.1821 182.112 20.923 181.792 20.923ZM179.67 22.659C179.67 22.3394 179.411 22.0803 179.091 22.0803H178.512C178.193 22.0803 177.934 22.3394 177.934 22.659V23.8163C177.934 24.1359 178.193 24.395 178.512 24.395H179.091C179.411 24.395 179.67 24.1359 179.67 23.8163V22.659Z" fill="black"/>
<path d="M26.117 24.2925H27.2104V18.1766H26.1212L24.5234 19.2998V20.3297L26.0449 19.2532H26.117V24.2925ZM28.7364 24.2925H32.9831V23.3855H30.2155V23.2965L31.4404 22.1098C32.5551 21.0375 32.8899 20.4865 32.8899 19.7914V19.7787C32.8899 18.7488 32.0338 18.0241 30.8428 18.0241C29.5671 18.0241 28.6771 18.8209 28.6771 19.961L28.6813 19.9737L29.6985 19.9779L29.7027 19.961C29.7027 19.3295 30.1393 18.9014 30.7877 18.9014C31.4235 18.9014 31.8091 19.3083 31.8091 19.872V19.8847C31.8091 20.3551 31.576 20.6645 30.7453 21.5037L28.7364 23.555V24.2925ZM34.81 20.3297C35.1999 20.3297 35.4839 20.033 35.4839 19.66C35.4839 19.2828 35.1999 18.9904 34.81 18.9904C34.4243 18.9904 34.1361 19.2828 34.1361 19.66C34.1361 20.033 34.4243 20.3297 34.81 20.3297ZM34.81 23.4745C35.1999 23.4745 35.4839 23.1821 35.4839 22.8048C35.4839 22.4276 35.1999 22.1352 34.81 22.1352C34.4243 22.1352 34.1361 22.4276 34.1361 22.8048C34.1361 23.1821 34.4243 23.4745 34.81 23.4745ZM39.5274 24.2925H40.5742V23.1185H41.3965V22.2157H40.5742V18.1766H39.0273C38.1966 19.4396 37.3277 20.8468 36.5352 22.2242V23.1185H39.5274V24.2925ZM37.5524 22.2412V22.1776C38.1457 21.1392 38.8535 20.0076 39.4808 19.0497H39.5443V22.2412H37.5524ZM44.6474 24.4154C46.0545 24.4154 47.0336 23.6864 47.0336 22.6396V22.6311C47.0336 21.847 46.4656 21.2409 45.6476 21.0756V21.0502C46.347 20.8637 46.8132 20.3509 46.8132 19.6939V19.6855C46.8132 18.7446 45.9147 18.0537 44.6474 18.0537C43.3802 18.0537 42.4816 18.7446 42.4816 19.6855V19.6939C42.4816 20.3509 42.9479 20.8637 43.6472 21.0502V21.0756C42.8334 21.2409 42.2613 21.847 42.2613 22.6311V22.6396C42.2613 23.6864 43.2403 24.4154 44.6474 24.4154ZM44.6474 20.7027C44.0074 20.7027 43.5624 20.3297 43.5624 19.7957V19.7872C43.5624 19.2532 44.0074 18.8802 44.6474 18.8802C45.2874 18.8802 45.7324 19.2532 45.7324 19.7872V19.7957C45.7324 20.3297 45.2874 20.7027 44.6474 20.7027ZM44.6474 23.5804C43.9142 23.5804 43.3929 23.1566 43.3929 22.5675V22.559C43.3929 21.9657 43.9057 21.5376 44.6474 21.5376C45.3849 21.5376 45.9019 21.9657 45.9019 22.559V22.5675C45.9019 23.1566 45.3806 23.5804 44.6474 23.5804Z" fill="black"/>
<path fill-rule="evenodd" clip-rule="evenodd" d="M220.294 43.876H225V33.46H8V43.876H12.7062C13.2724 39.6297 16.9084 36.3541 21.3096 36.3541H211.691C216.092 36.3541 219.728 39.6297 220.294 43.876Z" fill="#F0F1F2"/>
<path d="M68.957 7.60222H166.206L164.443 7.71691C161.987 7.87673 160.08 9.92325 160.095 12.385V12.385V14.7363C160.095 21.2152 154.843 26.4675 148.364 26.4675H85.2876C78.8167 26.4675 73.5678 21.2278 73.5564 14.7569L73.5513 11.8535V11.8535C73.5043 9.42208 71.4696 7.50335 69.0395 7.59898L68.957 7.60222Z" fill="#1C63EC"/>
<path opacity="0.07" fill-rule="evenodd" clip-rule="evenodd" d="M83.7271 21.8395C86.4285 21.8395 88.6183 19.6497 88.6183 16.9483C88.6183 14.247 86.4285 12.0571 83.7271 12.0571C81.0258 12.0571 78.8359 14.247 78.8359 16.9483C78.8359 19.6497 81.0258 21.8395 83.7271 21.8395Z" fill="white"/>
<path fill-rule="evenodd" clip-rule="evenodd" d="M12.6412 420.759C12.6333 420.951 12.6293 421.144 12.6293 421.338C12.6293 429.008 18.8472 435.226 26.5173 435.226H206.483C214.153 435.226 220.371 429.008 220.371 421.338C220.371 421.144 220.367 420.951 220.359 420.759H225V481.519H8V420.759H12.6412Z" fill="#F0F1F2"/>
<rect x="17.2578" y="437.394" width="198.483" height="25.4613" rx="12.7307" fill="#F0F1F2"/>
<path fill-rule="evenodd" clip-rule="evenodd" d="M23.3364 455.909C23.3365 456.389 23.7261 456.779 24.2067 456.779H35.7756C36.2562 456.779 36.6458 456.389 36.6458 455.909V444.34C36.6458 443.859 36.2562 443.47 35.7756 443.47L24.2062 443.47C23.7256 443.47 23.336 443.859 23.336 444.34L23.3364 455.909ZM26.3886 453.727H33.5994V453.168V452.609H26.3886V453.168V453.727ZM26.3886 450.68H33.5994V450.121V449.562H26.3886V450.121V450.68ZM26.3886 447.634H33.5994V447.075V446.516H26.3886V447.075V447.634Z" fill="#C9CACB"/>
<path d="M77.5775 443.759H68.9005C68.5801 443.759 68.3203 444.019 68.3203 444.339V456.478C68.3203 456.483 68.3258 456.485 68.3296 456.482L73.2355 452.731C73.2375 452.729 73.2404 452.729 73.2425 452.731L78.1483 456.482C78.1521 456.485 78.1576 456.483 78.1576 456.478V444.339C78.1576 444.019 77.8979 443.759 77.5775 443.759Z" fill="#C9CACB" stroke="#C9CACB" stroke-width="1.16034"/>
<rect width="14.5042" height="14.5042" rx="7.25212" transform="matrix(-1 0 0 1 123.77 442.89)" fill="#C9CACB"/>
<path d="M116.006 454.463V450.532H112.075V449.574H116.006V445.821H117.03V449.574H120.961V450.532H117.03V454.463H116.006Z" fill="#F0F1F2"/>
<path fill-rule="evenodd" clip-rule="evenodd" d="M159.776 442.891C161.686 442.891 163.484 443.63 164.846 444.977C166.229 446.347 166.99 448.175 166.99 450.124C166.99 452.061 166.235 453.881 164.862 455.249C163.499 456.609 161.693 457.358 159.774 457.358H159.739C158.644 457.353 157.593 457.108 156.616 456.63C156.37 456.511 156.087 456.506 155.837 456.62C154.966 457.019 153.981 457.266 152.911 457.356C152.782 457.367 152.657 457.308 152.584 457.2C152.512 457.091 152.504 456.953 152.562 456.836L153.624 454.723C153.762 454.445 153.751 454.121 153.59 453.853C152.919 452.738 152.562 451.455 152.559 450.147C152.552 448.224 153.288 446.412 154.63 445.045C155.971 443.678 157.767 442.914 159.686 442.891H159.776ZM158.531 453.411L157.952 453.96L155.015 451.169L157.952 448.377L158.531 448.927L156.589 450.77H161.523C162.26 450.77 162.858 450.201 162.858 449.498C162.858 448.801 162.257 448.23 161.523 448.23H161.161V447.434H161.523C162.722 447.434 163.695 448.359 163.695 449.498C163.695 450.637 162.722 451.568 161.523 451.568H156.589L158.531 453.411Z" fill="#1C63EC"/>
<path d="M203.007 442.891C199.017 442.891 195.773 446.135 195.773 450.124C195.773 454.114 199.017 457.358 203.007 457.358C206.997 457.358 210.24 454.114 210.24 450.124C210.24 446.135 206.997 442.891 203.007 442.891ZM203.007 447.033C204.256 447.033 205.276 448.053 205.276 449.302C205.276 450.551 204.256 451.571 203.007 451.571C201.758 451.571 200.738 450.551 200.738 449.302C200.738 448.053 201.758 447.033 203.007 447.033ZM199.047 454.51V454.175C199.047 453.216 199.824 452.424 200.799 452.424H205.215C206.174 452.424 206.966 453.201 206.966 454.175V454.51C205.915 455.454 204.529 456.033 203.007 456.033C201.484 456.033 200.098 455.454 199.048 454.51H199.047Z" fill="#C9CACB"/>
<rect x="78.0195" y="474.864" width="77.5413" height="2.89333" rx="1.44667" fill="black"/>
<rect x="12.6289" y="76.8604" width="207.741" height="71.9787" rx="11.5733" fill="white"/>
<circle cx="29.9891" cy="94.2206" r="9.25867" fill="#00C46C"/>
<path d="M28.8783 95.0778H30.215C32.5574 95.0778 34.1997 94.3776 34.1997 92.1879C34.1997 89.8964 32.5574 89.3108 30.215 89.3108H27.2615V93.7411H26.1921V95.0778H27.2615V96.0199H26.1921V97.0383H27.2615V98.5405H28.8783V97.0383H31.7045V96.0199H28.8783V95.0778ZM28.8783 93.7411V90.6602H30.2787C31.5263 90.6602 32.532 90.9021 32.532 92.1879C32.532 93.4865 31.5263 93.7411 30.2787 93.7411H28.8783Z" fill="white"/>
<circle cx="50.8212" cy="94.2206" r="9.25867" fill="#18B2FB"/>
<path d="M50.8047 94.5768L57.1838 92.1676L50.722 90.1694L44.4531 92.1959L50.8047 94.5768Z" fill="white"/>
<path d="M47.0273 96.8368V93.65L50.8117 94.9905L54.5897 93.6436V96.8368H47.0273Z" fill="white"/>
<path d="M54.5897 96.8368C54.5897 96.9492 54.4919 97.0604 54.3018 97.1642C54.1118 97.2679 53.8333 97.3622 53.4822 97.4417C53.1311 97.5211 52.7142 97.5841 52.2555 97.6271C51.7967 97.6701 51.3051 97.6922 50.8085 97.6922C50.312 97.6922 49.8203 97.6701 49.3615 97.6271C48.9028 97.5841 48.4859 97.5211 48.1348 97.4417C47.7837 97.3622 47.5052 97.2679 47.3152 97.1642C47.1251 97.0604 47.0273 96.9492 47.0273 96.8368L50.8085 96.8368H54.5897Z" fill="white"/>
<path d="M65.8567 93.7C65.8567 92.4362 66.5442 91.7557 67.426 91.7557C68.294 91.7557 68.9884 92.4362 68.9884 93.7C68.9884 94.9569 68.294 95.6513 67.426 95.6513C66.5442 95.6513 65.8567 94.9569 65.8567 93.7ZM69.8009 93.7C69.8009 92.1654 68.8843 91.096 67.426 91.096C65.9609 91.096 65.0442 92.1654 65.0442 93.7C65.0442 95.2347 65.9609 96.311 67.426 96.311C68.8843 96.311 69.8009 95.2347 69.8009 93.7ZM73.9204 96.2207V92.4848H73.1982V94.0195H71.3789V92.4848H70.6567V96.2207H71.3789V94.5958H73.1982V96.2207H73.9204ZM78.0043 92.4848H75.4489L75.3934 93.6514C75.317 95.0749 75.1017 95.6444 74.6573 95.6444H74.5809V96.2207H74.7128C75.6781 96.2207 76.0114 95.3388 76.0878 93.7625L76.1225 93.0612H77.2821V96.2207H78.0043V92.4848ZM81.3436 94.7139C81.3436 95.4569 80.8714 95.7555 80.2812 95.7555C79.8368 95.7555 79.5729 95.5402 79.5729 95.1999C79.5729 94.7208 80.184 94.5541 81.3436 94.443V94.7139ZM80.1215 96.311C80.7325 96.311 81.1492 96.1096 81.3714 95.7277C81.3922 95.9707 81.4061 96.0749 81.4339 96.2207H82.1283C82.0588 95.8874 82.0241 95.436 82.0241 94.8736C82.0241 94.7139 82.038 94.0681 82.038 93.9778C82.045 92.8598 81.4964 92.3946 80.5312 92.3946C79.677 92.3946 79.0174 92.8668 78.9618 93.6653H79.6909C79.7187 93.2001 80.0034 92.9501 80.5034 92.9501C80.9617 92.9501 81.3089 93.1723 81.3089 93.832V93.9084C79.8645 94.0542 78.7882 94.3042 78.7882 95.2138C78.7882 95.8943 79.3646 96.311 80.1215 96.311ZM84.6313 92.0265C85.4229 92.0265 85.7076 91.6307 85.7631 91.1863H85.2215C85.1937 91.4293 85.0271 91.5891 84.6382 91.5891C84.2493 91.5891 84.0966 91.4293 84.0688 91.1863H83.5202C83.5549 91.6307 83.8674 92.0265 84.6313 92.0265ZM83.673 96.2207L85.4993 93.5264V96.2207H86.2076V92.4848H85.4993L83.673 95.186V92.4848H82.9647V96.2207H83.673ZM90.5141 96.2207V92.4848H89.792V94.0195H87.9726V92.4848H87.2505V96.2207H87.9726V94.5958H89.792V96.2207H90.5141Z" fill="#C9CACB"/>
<rect x="144.133" y="84.9619" width="26.888" height="18.5173" rx="9.25867" fill="#FCB22B"/>
<path d="M155.165 98.2207V95.9292H157.487V94.9292H155.165V92.6586H154.123V94.9292H151.79V95.9292H154.123V98.2207H155.165ZM161.13 90.5337C159.516 90.5337 158.443 91.544 158.474 93.0544H159.578C159.578 91.8357 160.328 91.3982 161.099 91.3982C161.922 91.3982 162.422 91.8774 162.422 92.6377C162.422 93.9501 160.88 95.3042 158.287 97.2833V98.2207H163.755V97.2416H159.693C161.891 95.6896 163.557 94.1793 163.557 92.5232C163.557 91.242 162.526 90.5337 161.13 90.5337Z" fill="#2F2F2F"/>
<rect x="173.336" y="84.9619" width="38.9333" height="18.5173" rx="9.25867" fill="#F0F1F2"/>
<path fill-rule="evenodd" clip-rule="evenodd" d="M187.243 88.4336C188.772 88.4336 190.21 89.0248 191.299 90.1025C192.406 91.1983 193.015 92.661 193.015 94.2202C193.015 95.7692 192.411 97.2251 191.312 98.3199C190.222 99.408 188.777 100.007 187.242 100.007H187.214C186.338 100.003 185.497 99.8068 184.716 99.4247C184.519 99.3292 184.292 99.3253 184.092 99.417C183.396 99.7358 182.608 99.9333 181.751 100.006C181.648 100.015 181.548 99.9669 181.49 99.8803C181.432 99.7938 181.426 99.6828 181.472 99.5899L182.322 97.8989C182.433 97.6769 182.424 97.4175 182.295 97.2032C181.758 96.3114 181.472 95.2851 181.47 94.2383C181.464 92.6997 182.053 91.2501 183.127 90.1568C184.199 89.0635 185.636 88.4517 187.171 88.4336H187.243ZM186.248 96.849L185.785 97.2888L183.435 95.0555L185.785 92.8223L186.248 93.2621L184.694 94.7361H188.642C189.231 94.7361 189.71 94.2816 189.71 93.719C189.71 93.1613 189.229 92.7044 188.642 92.7044H188.352V92.0681H188.642C189.601 92.0681 190.379 92.8076 190.379 93.719C190.379 94.6305 189.601 95.3749 188.642 95.3749H184.694L186.248 96.849Z" fill="#2F2F2F"/>
<path d="M198.397 98.2207V90.6691H197.616C197.241 91.4816 196.658 91.617 195.585 91.6482V92.3877H197.303V98.2207H198.397ZM202.129 97.4812C201.098 97.4812 200.577 96.8145 200.463 95.9396H199.379C199.463 97.2312 200.358 98.3561 202.108 98.3561C203.577 98.3561 204.889 97.6166 204.889 96.0854C204.889 95.3146 204.535 94.5439 203.514 94.2105C204.264 93.8876 204.691 93.2419 204.691 92.4815C204.691 91.0649 203.494 90.5337 202.212 90.5337C200.588 90.5337 199.598 91.4711 199.483 92.8565H200.567C200.681 91.9815 201.202 91.3982 202.16 91.3982C202.921 91.3982 203.556 91.7836 203.556 92.5752C203.556 93.4085 202.931 93.7835 201.671 93.7835H201.452V94.7313H201.712C202.879 94.7313 203.754 95.0647 203.754 96.1063C203.754 96.9812 203.077 97.4812 202.129 97.4812Z" fill="#2F2F2F"/>
<path d="M21.8415 114.669V124.738H23.4247V120.835H25.0774C27.5078 120.835 29.2994 120.28 29.2994 117.766C29.2994 115.127 27.4106 114.669 25.0774 114.669H21.8415ZM25.133 115.974C26.5079 115.974 27.6606 116.141 27.6606 117.78C27.6606 119.335 26.5634 119.502 25.1746 119.502H23.4247V115.974H25.133ZM34.4067 121.724C34.4067 123.21 33.4623 123.807 32.2818 123.807C31.393 123.807 30.8652 123.377 30.8652 122.696C30.8652 121.738 32.0874 121.405 34.4067 121.182V121.724ZM31.9624 124.918C33.1845 124.918 34.0178 124.516 34.4622 123.752C34.5039 124.238 34.5317 124.446 34.5872 124.738H35.976C35.8371 124.071 35.7677 123.168 35.7677 122.044C35.7677 121.724 35.7955 120.433 35.7955 120.252C35.8094 118.016 34.7122 117.086 32.7818 117.086C31.0736 117.086 29.7542 118.03 29.6431 119.627H31.1013C31.1569 118.697 31.7263 118.197 32.7262 118.197C33.6428 118.197 34.3372 118.641 34.3372 119.96V120.113C31.4485 120.405 29.2959 120.905 29.2959 122.724C29.2959 124.085 30.4486 124.918 31.9624 124.918ZM41.7319 120.807C42.3986 120.488 42.9124 119.933 42.9124 119.196C42.9124 118.072 41.8292 117.099 40.0376 117.099C38.3711 117.099 37.0239 117.947 36.9128 119.599H38.3572C38.3572 118.655 39.2043 118.266 40.0237 118.266C40.8987 118.266 41.4542 118.572 41.4542 119.28C41.4542 120.002 40.857 120.349 40.0237 120.349H38.8988V121.502H40.1071C41.107 121.502 41.6486 121.821 41.6486 122.655C41.6486 123.363 41.0375 123.752 39.9821 123.752C38.9266 123.752 38.2599 123.307 38.2183 122.418H36.7739C36.885 124.182 38.4405 124.918 40.0515 124.918C41.8153 124.918 43.093 124.085 43.093 122.585C43.093 121.585 42.5236 121.044 41.7319 120.807ZM44.3374 117.266V127.168H45.7817V123.682C46.24 124.46 47.0039 124.918 48.1149 124.918C49.8509 124.918 51.3369 123.46 51.3369 121.016C51.3369 118.572 49.8509 117.127 48.1149 117.127C47.0039 117.127 46.24 117.585 45.7817 118.363V117.266H44.3374ZM45.7262 121.016C45.7262 119.169 46.6705 118.335 47.7816 118.335C48.9898 118.335 49.7953 119.335 49.7953 121.016C49.7953 122.696 48.9898 123.71 47.7816 123.71C46.6705 123.71 45.7262 122.863 45.7262 121.016ZM57.2313 121.724C57.2313 123.21 56.2869 123.807 55.1064 123.807C54.2176 123.807 53.6898 123.377 53.6898 122.696C53.6898 121.738 54.912 121.405 57.2313 121.182V121.724ZM54.787 124.918C56.0091 124.918 56.8424 124.516 57.2868 123.752C57.3285 124.238 57.3563 124.446 57.4118 124.738H58.8006C58.6617 124.071 58.5923 123.168 58.5923 122.044C58.5923 121.724 58.6201 120.433 58.6201 120.252C58.634 118.016 57.5368 117.086 55.6064 117.086C53.8982 117.086 52.5788 118.03 52.4677 119.627H53.9259C53.9815 118.697 54.5509 118.197 55.5508 118.197C56.4674 118.197 57.1618 118.641 57.1618 119.96V120.113C54.2731 120.405 52.1205 120.905 52.1205 122.724C52.1205 124.085 53.2732 124.918 54.787 124.918ZM63.6955 117.697C62.6261 117.697 61.6262 118.169 61.1123 119.155C61.3345 117.308 62.2789 116.613 63.8899 116.322L66.3481 115.849V114.6L63.8205 115.044C60.9734 115.558 59.918 117.28 59.8763 119.988V120.752C59.8763 123.543 61.4873 124.918 63.4316 124.918C65.2926 124.918 66.9036 123.641 66.9036 121.238C66.9036 118.891 65.4176 117.697 63.6955 117.697ZM63.4455 123.71C62.2373 123.71 61.3901 122.793 61.3901 121.252C61.3901 119.641 62.3484 118.905 63.4594 118.905C64.5288 118.905 65.3898 119.696 65.3898 121.266C65.3898 122.835 64.6121 123.71 63.4455 123.71ZM69.3289 121.03C69.3289 119.141 70.3427 118.349 71.426 118.349C72.5371 118.349 73.537 119.183 73.537 121.03C73.537 122.849 72.5371 123.696 71.426 123.696C70.3427 123.696 69.3289 122.863 69.3289 121.03ZM71.426 117.127C69.6622 117.127 67.8012 118.322 67.8012 121.03C67.8012 123.724 69.6622 124.918 71.426 124.918C73.2037 124.918 75.0647 123.724 75.0647 121.03C75.0647 118.322 73.2037 117.127 71.426 117.127ZM81.9303 118.419V117.266H75.2224V118.419H77.8611V124.738H79.3055V118.419H81.9303ZM88.6062 124.738V117.266H87.1619V120.627C86.5091 120.78 86.0369 120.863 85.5509 120.863C84.5093 120.863 84.0232 120.502 84.0232 119.46V117.266H82.5788V119.738C82.5788 121.363 83.426 122.071 84.9953 122.071C85.6759 122.071 86.3286 121.988 87.1619 121.78V124.738H88.6062ZM91.893 124.738L95.5456 119.349V124.738H96.9621V117.266H95.5456L91.893 122.668V117.266H90.4764V124.738H91.893ZM103.686 124.738H105.422L102.353 120.835L105.172 117.266H103.492L101.214 120.294H100.298V117.266H98.8532V124.738H100.298V121.446H101.172L103.686 124.738ZM117.963 117.266H115.81L113.741 122.821L111.588 117.266H109.436V124.738H110.825V118.835L113.158 124.738H114.241L116.574 118.78V124.738H117.963V117.266ZM120.792 121.03C120.792 119.141 121.805 118.349 122.889 118.349C124 118.349 125 119.183 125 121.03C125 122.849 124 123.696 122.889 123.696C121.805 123.696 120.792 122.863 120.792 121.03ZM122.889 117.127C121.125 117.127 119.264 118.322 119.264 121.03C119.264 123.724 121.125 124.918 122.889 124.918C124.666 124.918 126.527 123.724 126.527 121.03C126.527 118.322 124.666 117.127 122.889 117.127ZM131.261 117.697C130.191 117.697 129.191 118.169 128.677 119.155C128.9 117.308 129.844 116.613 131.455 116.322L133.913 115.849V114.6L131.386 115.044C128.539 115.558 127.483 117.28 127.441 119.988V120.752C127.441 123.543 129.052 124.918 130.997 124.918C132.858 124.918 134.469 123.641 134.469 121.238C134.469 118.891 132.983 117.697 131.261 117.697ZM131.011 123.71C129.802 123.71 128.955 122.793 128.955 121.252C128.955 119.641 129.913 118.905 131.025 118.905C132.094 118.905 132.955 119.696 132.955 121.266C132.955 122.835 132.177 123.71 131.011 123.71ZM137.217 124.738L140.869 119.349V124.738H142.286V117.266H140.869L137.217 122.668V117.266H135.8V124.738H137.217ZM150.26 117.266H145.149L145.038 119.599C144.885 122.446 144.455 123.585 143.566 123.585H143.413V124.738H143.677C145.607 124.738 146.274 122.974 146.427 119.821L146.496 118.419H148.815V124.738H150.26V117.266ZM153.578 119.849V117.266H152.133V124.738H155.147C156.925 124.738 158.133 124.127 158.133 122.238C158.133 120.752 157.258 119.849 155.272 119.849H153.578ZM153.578 123.585V121.002H155.091C156.161 121.002 156.688 121.307 156.688 122.238C156.688 123.182 156.161 123.585 155.105 123.585H153.578ZM165.912 124.738V117.266H164.467V120.335H160.829V117.266H159.384V124.738H160.829V121.488H164.467V124.738H165.912ZM176.038 124.738V117.266H174.593V124.738H176.038ZM169.232 119.849V117.266H167.788V124.738H170.441C172.218 124.738 173.427 124.127 173.427 122.238C173.427 120.752 172.552 119.849 170.566 119.849H169.232ZM169.232 123.585V121.002H170.385C171.455 121.002 171.982 121.307 171.982 122.238C171.982 123.182 171.455 123.585 170.399 123.585H169.232ZM183.9 117.266H182.303L180.553 119.71L178.831 117.266H177.123L179.692 120.919L176.956 124.738H178.581L180.484 122.044L182.386 124.738H184.108L181.345 120.835L183.9 117.266ZM28.2161 131.266H21.7721V138.738H23.2164V132.419H26.7717V138.738H28.2161V131.266ZM30.0251 131.266V141.168H31.4695V137.682C31.9278 138.46 32.6916 138.918 33.8027 138.918C35.5387 138.918 37.0247 137.46 37.0247 135.016C37.0247 132.572 35.5387 131.127 33.8027 131.127C32.6916 131.127 31.9278 131.585 31.4695 132.363V131.266H30.0251ZM31.4139 135.016C31.4139 133.169 32.3583 132.335 33.4693 132.335C34.6776 132.335 35.4831 133.335 35.4831 135.016C35.4831 136.696 34.6776 137.71 33.4693 137.71C32.3583 137.71 31.4139 136.863 31.4139 135.016ZM39.7387 138.738L43.3912 133.349V138.738H44.8078V131.266H43.3912L39.7387 136.668V131.266H38.3221V138.738H39.7387ZM52.7818 131.266H47.671L47.5599 133.599C47.4071 136.446 46.9766 137.585 46.0878 137.585H45.935V138.738H46.1989C48.1293 138.738 48.7959 136.974 48.9487 133.821L49.0182 132.419H51.3375V138.738H52.7818V131.266ZM55.6134 135.03C55.6134 133.141 56.6273 132.349 57.7105 132.349C58.8216 132.349 59.8215 133.183 59.8215 135.03C59.8215 136.849 58.8216 137.696 57.7105 137.696C56.6273 137.696 55.6134 136.863 55.6134 135.03ZM57.7105 131.127C55.9467 131.127 54.0858 132.322 54.0858 135.03C54.0858 137.724 55.9467 138.918 57.7105 138.918C59.4882 138.918 61.3492 137.724 61.3492 135.03C61.3492 132.322 59.4882 131.127 57.7105 131.127ZM63.2281 138.738L65.4502 135.446H66.3251V138.738H67.7695V135.446H68.6722L70.8943 138.738H72.6025L69.8665 134.794L72.3803 131.266H70.7137L68.6722 134.294H67.7695V131.266H66.3251V134.294H65.4085L63.3808 131.266H61.7282L64.2419 134.821L61.4921 138.738H63.2281ZM76.4312 137.682C75.2507 137.682 74.4036 136.835 74.2508 135.446H79.9449C80.0977 133.016 78.7505 131.127 76.4451 131.127C74.3202 131.127 72.7648 132.669 72.7648 134.988C72.7648 137.155 74.0842 138.918 76.4868 138.918C78.3755 138.918 79.5144 137.78 79.8477 136.543H78.3894C78.07 137.252 77.4867 137.682 76.4312 137.682ZM76.4312 132.308C77.6117 132.308 78.4033 133.21 78.445 134.308H74.2786C74.4869 132.877 75.3063 132.308 76.4312 132.308ZM87.7639 138.738V131.266H86.3196V134.335H82.6809V131.266H81.2366V138.738H82.6809V135.488H86.3196V138.738H87.7639ZM91.057 138.738L94.7096 133.349V138.738H96.1261V131.266H94.7096L91.057 136.668V131.266H89.6404V138.738H91.057ZM101.35 130.349C102.934 130.349 103.503 129.558 103.614 128.669H102.531C102.475 129.155 102.142 129.474 101.364 129.474C100.586 129.474 100.281 129.155 100.225 128.669H99.1282C99.1977 129.558 99.8226 130.349 101.35 130.349ZM99.4338 138.738L103.086 133.349V138.738H104.503V131.266H103.086L99.4338 136.668V131.266H98.0172V138.738H99.4338ZM109.358 131.266V138.738H110.802V131.266H109.358ZM109.358 128.669V130.266H110.802V128.669H109.358ZM113.568 135.03C113.568 133.141 114.581 132.349 115.665 132.349C116.776 132.349 117.776 133.183 117.776 135.03C117.776 136.849 116.776 137.696 115.665 137.696C114.581 137.696 113.568 136.863 113.568 135.03ZM115.665 131.127C113.901 131.127 112.04 132.322 112.04 135.03C112.04 137.724 113.901 138.918 115.665 138.918C117.442 138.918 119.303 137.724 119.303 135.03C119.303 132.322 117.442 131.127 115.665 131.127ZM126.217 133.349C125.925 131.905 124.745 131.113 123.231 131.113C121.606 131.113 120.204 131.919 120.204 133.238C120.204 134.655 121.259 135.141 122.384 135.363L123.509 135.585C124.287 135.738 124.939 136.03 124.939 136.71C124.939 137.377 124.231 137.766 123.287 137.766C122.231 137.766 121.704 137.266 121.495 136.418H120.023C120.204 137.821 121.342 138.918 123.245 138.918C124.967 138.918 126.384 138.057 126.384 136.543C126.384 135.071 125.134 134.613 123.731 134.321L122.662 134.113C121.981 133.96 121.62 133.738 121.62 133.183C121.62 132.572 122.384 132.28 123.092 132.28C123.939 132.28 124.578 132.572 124.787 133.349H126.217Z" fill="#2F2F2F"/>
<rect x="12.6289" y="153.468" width="207.741" height="71.9787" rx="11.5733" fill="white"/>
<circle cx="29.9891" cy="170.828" r="9.25867" fill="#00C46C"/>
<path d="M28.8783 171.686H30.215C32.5574 171.686 34.1997 170.986 34.1997 168.796C34.1997 166.504 32.5574 165.919 30.215 165.919H27.2615V170.349H26.1921V171.686H27.2615V172.628H26.1921V173.646H27.2615V175.148H28.8783V173.646H31.7045V172.628H28.8783V171.686ZM28.8783 170.349V167.268H30.2787C31.5263 167.268 32.532 167.51 32.532 168.796C32.532 170.094 31.5263 170.349 30.2787 170.349H28.8783Z" fill="white"/>
<path d="M45.0247 170.308C45.0247 169.044 45.7121 168.364 46.594 168.364C47.462 168.364 48.1564 169.044 48.1564 170.308C48.1564 171.565 47.462 172.259 46.594 172.259C45.7121 172.259 45.0247 171.565 45.0247 170.308ZM48.9689 170.308C48.9689 168.773 48.0523 167.704 46.594 167.704C45.1288 167.704 44.2122 168.773 44.2122 170.308C44.2122 171.843 45.1288 172.919 46.594 172.919C48.0523 172.919 48.9689 171.843 48.9689 170.308ZM53.0884 172.829V169.093H52.3662V170.627H50.5469V169.093H49.8247V172.829H50.5469V171.204H52.3662V172.829H53.0884ZM57.1723 169.093H54.6169L54.5613 170.259C54.4849 171.683 54.2697 172.252 53.8253 172.252H53.7489V172.829H53.8808C54.846 172.829 55.1793 171.947 55.2557 170.37L55.2904 169.669H56.4501V172.829H57.1723V169.093ZM60.5116 171.322C60.5116 172.065 60.0394 172.363 59.4491 172.363C59.0047 172.363 58.7409 172.148 58.7409 171.808C58.7409 171.329 59.3519 171.162 60.5116 171.051V171.322ZM59.2894 172.919C59.9005 172.919 60.3171 172.718 60.5394 172.336C60.5602 172.579 60.5741 172.683 60.6018 172.829H61.2962C61.2268 172.495 61.1921 172.044 61.1921 171.481C61.1921 171.322 61.206 170.676 61.206 170.586C61.2129 169.468 60.6643 169.002 59.6991 169.002C58.845 169.002 58.1853 169.475 58.1298 170.273H58.8589C58.8867 169.808 59.1714 169.558 59.6714 169.558C60.1297 169.558 60.4769 169.78 60.4769 170.44V170.516C59.0325 170.662 57.9562 170.912 57.9562 171.822C57.9562 172.502 58.5325 172.919 59.2894 172.919ZM63.7992 168.634C64.5909 168.634 64.8756 168.239 64.9311 167.794H64.3895C64.3617 168.037 64.195 168.197 63.8062 168.197C63.4173 168.197 63.2645 168.037 63.2368 167.794H62.6882C62.7229 168.239 63.0354 168.634 63.7992 168.634ZM62.841 172.829L64.6672 170.134V172.829H65.3755V169.093H64.6672L62.841 171.794V169.093H62.1327V172.829H62.841ZM69.6821 172.829V169.093H68.9599V170.627H67.1406V169.093H66.4184V172.829H67.1406V171.204H68.9599V172.829H69.6821Z" fill="#C9CACB"/>
<rect x="176.336" y="161.57" width="35.9333" height="18.5173" rx="9.25867" fill="#F0F1F2"/>
<path fill-rule="evenodd" clip-rule="evenodd" d="M190.243 165.042C191.772 165.042 193.21 165.633 194.299 166.71C195.406 167.806 196.015 169.269 196.015 170.828C196.015 172.377 195.411 173.833 194.312 174.928C193.222 176.016 191.777 176.615 190.242 176.615H190.214C189.338 176.611 188.497 176.415 187.716 176.033C187.519 175.937 187.292 175.933 187.092 176.025C186.396 176.344 185.608 176.541 184.751 176.613C184.648 176.622 184.548 176.575 184.49 176.488C184.432 176.402 184.426 176.291 184.472 176.198L185.322 174.507C185.433 174.285 185.424 174.025 185.295 173.811C184.758 172.919 184.472 171.893 184.47 170.846C184.464 169.308 185.053 167.858 186.127 166.765C187.199 165.671 188.636 165.06 190.171 165.042H190.243ZM189.248 173.457L188.785 173.897L186.435 171.663L188.785 169.43L189.248 169.87L187.694 171.344H191.642C192.231 171.344 192.71 170.89 192.71 170.327C192.71 169.769 192.229 169.312 191.642 169.312H191.352V168.676H191.642C192.601 168.676 193.379 169.415 193.379 170.327C193.379 171.238 192.601 171.983 191.642 171.983H187.694L189.248 173.457Z" fill="#2F2F2F"/>
<path d="M202.719 168.725V172.027H200.178L202.719 168.725ZM205.167 172.027H203.813V167.277H202.719L198.98 172.048V173.006H202.719V174.829H203.813V173.006H205.167V172.027Z" fill="#2F2F2F"/>
<path d="M28.8272 198.068C28.5077 199.401 27.5495 200.207 26.0496 200.207C24.3136 200.207 23.022 198.776 23.022 196.29C23.022 193.777 24.3275 192.416 26.0357 192.416C27.5217 192.416 28.4661 193.235 28.7855 194.554H30.3132C29.9104 192.346 28.2578 191.096 26.1051 191.096C23.2164 191.096 21.3971 193.138 21.3971 196.29C21.3971 199.387 23.0914 201.526 26.0079 201.526C28.2578 201.526 29.9104 200.29 30.3549 198.068H28.8272ZM31.6407 193.874V201.346H35.2238C36.8626 201.346 38.0847 200.721 38.0847 199.138C38.0847 198.138 37.5292 197.624 36.7654 197.402C37.4181 197.11 37.7792 196.568 37.7792 195.791C37.7792 194.263 36.5432 193.874 35.0155 193.874H31.6407ZM33.085 196.971V195.027H34.8766C35.7515 195.027 36.3071 195.207 36.3071 195.971C36.3071 196.749 35.7793 196.971 34.9044 196.971H33.085ZM33.085 198.068H34.9877C36.0571 198.068 36.5987 198.332 36.5987 199.11C36.5987 199.887 36.071 200.193 35.0155 200.193H33.085V198.068ZM42.4903 200.29C41.3098 200.29 40.4626 199.443 40.3098 198.054H46.0039C46.1567 195.624 44.8095 193.735 42.5041 193.735C40.3793 193.735 38.8238 195.277 38.8238 197.596C38.8238 199.762 40.1432 201.526 42.5458 201.526C44.4346 201.526 45.5734 200.387 45.9067 199.151H44.4485C44.129 199.86 43.5457 200.29 42.4903 200.29ZM42.4903 194.916C43.6707 194.916 44.4623 195.818 44.504 196.915H40.3376C40.5459 195.485 41.3653 194.916 42.4903 194.916ZM47.2262 193.874V203.776H48.6705V200.29C49.1288 201.068 49.8927 201.526 51.0037 201.526C52.7397 201.526 54.2257 200.068 54.2257 197.624C54.2257 195.179 52.7397 193.735 51.0037 193.735C49.8927 193.735 49.1288 194.193 48.6705 194.971V193.874H47.2262ZM48.615 197.624C48.615 195.777 49.5594 194.943 50.6704 194.943C51.8786 194.943 52.6842 195.943 52.6842 197.624C52.6842 199.304 51.8786 200.318 50.6704 200.318C49.5594 200.318 48.615 199.471 48.615 197.624ZM58.7135 193.735C56.5053 193.735 55.1026 195.416 55.1026 197.624C55.1026 199.887 56.4498 201.526 58.6163 201.526C60.269 201.526 61.7133 200.429 62.0188 198.86H60.5606C60.3523 199.749 59.5746 200.29 58.6441 200.29C57.6025 200.29 56.6442 199.457 56.6442 197.61C56.6442 195.791 57.6025 194.971 58.6441 194.971C59.5884 194.971 60.3523 195.554 60.5051 196.402H61.9494C61.7272 194.943 60.4217 193.735 58.7135 193.735ZM68.798 195.027V193.874H62.0901V195.027H64.7288V201.346H66.1732V195.027H68.798ZM74.039 198.332C74.039 199.818 73.0946 200.415 71.9142 200.415C71.0253 200.415 70.4976 199.985 70.4976 199.304C70.4976 198.346 71.7197 198.013 74.039 197.79V198.332ZM71.5947 201.526C72.8169 201.526 73.6502 201.123 74.0946 200.36C74.1362 200.846 74.164 201.054 74.2196 201.346H75.6084C75.4695 200.679 75.4 199.776 75.4 198.651C75.4 198.332 75.4278 197.04 75.4278 196.86C75.4417 194.624 74.3446 193.693 72.4141 193.693C70.7059 193.693 69.3865 194.638 69.2754 196.235H70.7337C70.7892 195.304 71.3586 194.804 72.3586 194.804C73.2752 194.804 73.9696 195.249 73.9696 196.568V196.721C71.0809 197.013 68.9282 197.513 68.9282 199.332C68.9282 200.693 70.0809 201.526 71.5947 201.526ZM82.6763 195.027V193.874H75.9684V195.027H78.6071V201.346H80.0514V195.027H82.6763ZM85.158 196.457V193.874H83.7136V201.346H86.7273C88.505 201.346 89.7133 200.735 89.7133 198.846C89.7133 197.36 88.8383 196.457 86.8523 196.457H85.158ZM85.158 200.193V197.61H86.6718C87.7412 197.61 88.2689 197.915 88.2689 198.846C88.2689 199.79 87.7412 200.193 86.6857 200.193H85.158ZM100.094 193.874H94.9835L94.8724 196.207C94.7197 199.054 94.2891 200.193 93.4003 200.193H93.2475V201.346H93.5114C95.4418 201.346 96.1085 199.582 96.2612 196.429L96.3307 195.027H98.65V201.346H100.094V193.874ZM105.051 200.29C103.87 200.29 103.023 199.443 102.87 198.054H108.564C108.717 195.624 107.37 193.735 105.065 193.735C102.94 193.735 101.384 195.277 101.384 197.596C101.384 199.762 102.704 201.526 105.106 201.526C106.995 201.526 108.134 200.387 108.467 199.151H107.009C106.69 199.86 106.106 200.29 105.051 200.29ZM105.051 194.916C106.231 194.916 107.023 195.818 107.065 196.915H102.898C103.106 195.485 103.926 194.916 105.051 194.916ZM116.384 201.346V193.874H114.939V196.943H111.301V193.874H109.856V201.346H111.301V198.096H114.939V201.346H116.384ZM125.537 200.193H124.468V193.874H119.191L119.093 196.263C118.982 199.096 118.621 200.193 117.857 200.193H117.496V203.123H118.857V201.346H124.176V203.123H125.537V200.193ZM123.024 200.193H119.524C120.121 199.582 120.343 198.429 120.44 196.693L120.538 195.027H123.024V200.193ZM128.203 201.346L131.855 195.957V201.346H133.272V193.874H131.855L128.203 199.276V193.874H126.786V201.346H128.203ZM141.69 201.346V193.874H140.246V196.943H136.607V193.874H135.163V201.346H136.607V198.096H140.246V201.346H141.69ZM148.483 195.027V193.874H143.567V201.346H145.011V195.027H148.483ZM159.799 200.193H158.73V193.874H153.452L153.355 196.263C153.244 199.096 152.883 200.193 152.119 200.193H151.758V203.123H153.119V201.346H158.438V203.123H159.799V200.193ZM157.285 200.193H153.785C154.383 199.582 154.605 198.429 154.702 196.693L154.799 195.027H157.285V200.193ZM167.13 193.874H162.02L161.909 196.207C161.756 199.054 161.325 200.193 160.436 200.193H160.284V201.346H160.548C162.478 201.346 163.145 199.582 163.297 196.429L163.367 195.027H165.686V201.346H167.13V193.874ZM169.893 201.346L171.698 198.763H173.184V201.346H174.629V193.874H171.601C169.809 193.874 168.782 194.693 168.782 196.235C168.782 197.36 169.393 198.054 170.268 198.374L168.171 201.346H169.893ZM171.74 197.61C170.865 197.61 170.226 197.277 170.226 196.332C170.226 195.499 170.823 195.027 171.712 195.027H173.184V197.61H171.74ZM26.6051 215.346H28.3411L25.2718 211.443L28.0911 207.874H26.4107L24.133 210.902H23.2164V207.874H21.7721V215.346H23.2164V212.054H24.0914L26.6051 215.346ZM30.0221 211.638C30.0221 209.749 31.0359 208.957 32.1192 208.957C33.2302 208.957 34.2301 209.791 34.2301 211.638C34.2301 213.457 33.2302 214.304 32.1192 214.304C31.0359 214.304 30.0221 213.471 30.0221 211.638ZM32.1192 207.735C30.3554 207.735 28.4944 208.929 28.4944 211.638C28.4944 214.332 30.3554 215.526 32.1192 215.526C33.8968 215.526 35.7578 214.332 35.7578 211.638C35.7578 208.929 33.8968 207.735 32.1192 207.735ZM45.588 207.874H43.4354L41.3661 213.429L39.2134 207.874H37.0608V215.346H38.4496V209.443L40.7828 215.346H41.8661L44.1992 209.388V215.346H45.588V207.874ZM53.9024 207.874H47.4584V215.346H48.9027V209.027H52.458V215.346H53.9024V207.874ZM60.3778 212.332C60.3778 213.818 59.4334 214.415 58.2529 214.415C57.3641 214.415 56.8363 213.985 56.8363 213.304C56.8363 212.346 58.0585 212.013 60.3778 211.79V212.332ZM57.9335 215.526C59.1556 215.526 59.9889 215.123 60.4333 214.36C60.475 214.846 60.5028 215.054 60.5583 215.346H61.9471C61.8082 214.679 61.7388 213.776 61.7388 212.651C61.7388 212.332 61.7666 211.04 61.7666 210.86C61.7805 208.624 60.6833 207.693 58.7529 207.693C57.0447 207.693 55.7253 208.638 55.6142 210.235H57.0724C57.128 209.304 57.6974 208.804 58.6973 208.804C59.6139 208.804 60.3083 209.249 60.3083 210.568V210.721C57.4196 211.013 55.267 211.513 55.267 213.332C55.267 214.693 56.4197 215.526 57.9335 215.526ZM69.939 215.346V207.874H68.4947V210.943H64.856V207.874H63.4117V215.346H64.856V212.096H68.4947V215.346H69.939ZM73.2321 215.346L76.8846 209.957V215.346H78.3012V207.874H76.8846L73.2321 213.276V207.874H71.8155V215.346H73.2321ZM81.6088 215.346L85.2614 209.957V215.346H86.678V207.874H85.2614L81.6088 213.276V207.874H80.1923V215.346H81.6088ZM98.0597 207.874H91.6157V215.346H93.06V209.027H96.6154V215.346H98.0597V207.874ZM100.896 211.638C100.896 209.749 101.91 208.957 102.994 208.957C104.105 208.957 105.105 209.791 105.105 211.638C105.105 213.457 104.105 214.304 102.994 214.304C101.91 214.304 100.896 213.471 100.896 211.638ZM102.994 207.735C101.23 207.735 99.3688 208.929 99.3688 211.638C99.3688 214.332 101.23 215.526 102.994 215.526C104.771 215.526 106.632 214.332 106.632 211.638C106.632 208.929 104.771 207.735 102.994 207.735ZM114.968 214.193H113.899V207.874H108.622L108.524 210.263C108.413 213.096 108.052 214.193 107.288 214.193H106.927V217.123H108.288V215.346H113.607V217.123H114.968V214.193ZM112.455 214.193H108.955C109.552 213.582 109.774 212.429 109.871 210.693L109.969 209.027H112.455V214.193ZM127.541 215.346V205.277H125.985V213.596L121.541 205.277H119.333V215.346H120.889V207.013L125.333 215.346H127.541ZM136.221 210.304C136.221 213.624 134.248 214.04 132.235 214.04H131.138V206.582H132.235C134.248 206.582 136.221 207.013 136.221 210.304ZM129.554 205.277V215.346H132.304C135.498 215.346 137.859 214.193 137.859 210.304C137.859 206.43 135.498 205.277 132.304 205.277H129.554ZM137.932 215.346H139.543L140.321 213.138H144.696L145.487 215.346H147.209L143.418 205.277H141.668L137.932 215.346ZM142.487 206.999L144.21 211.804H140.793L142.487 206.999Z" fill="#2F2F2F"/>
<rect x="12.6289" y="230.076" width="207.741" height="71.9787" rx="11.5733" fill="white"/>
<circle cx="29.9891" cy="247.436" r="9.25867" fill="#00C46C"/>
<path d="M28.8783 248.294H30.215C32.5574 248.294 34.1997 247.593 34.1997 245.404C34.1997 243.112 32.5574 242.527 30.215 242.527H27.2615V246.957H26.1921V248.294H27.2615V249.236H26.1921V250.254H27.2615V251.756H28.8783V250.254H31.7045V249.236H28.8783V248.294ZM28.8783 246.957V243.876H30.2787C31.5263 243.876 32.532 244.118 32.532 245.404C32.532 246.702 31.5263 246.957 30.2787 246.957H28.8783Z" fill="white"/>
<path d="M45.0247 246.916C45.0247 245.652 45.7121 244.972 46.594 244.972C47.462 244.972 48.1564 245.652 48.1564 246.916C48.1564 248.173 47.462 248.867 46.594 248.867C45.7121 248.867 45.0247 248.173 45.0247 246.916ZM48.9689 246.916C48.9689 245.381 48.0523 244.312 46.594 244.312C45.1288 244.312 44.2122 245.381 44.2122 246.916C44.2122 248.45 45.1288 249.527 46.594 249.527C48.0523 249.527 48.9689 248.45 48.9689 246.916ZM53.0884 249.437V245.701H52.3662V247.235H50.5469V245.701H49.8247V249.437H50.5469V247.812H52.3662V249.437H53.0884ZM57.1723 245.701H54.6169L54.5613 246.867C54.4849 248.291 54.2697 248.86 53.8253 248.86H53.7489V249.437H53.8808C54.846 249.437 55.1793 248.555 55.2557 246.978L55.2904 246.277H56.4501V249.437H57.1723V245.701ZM60.5116 247.93C60.5116 248.673 60.0394 248.971 59.4491 248.971C59.0047 248.971 58.7409 248.756 58.7409 248.416C58.7409 247.937 59.3519 247.77 60.5116 247.659V247.93ZM59.2894 249.527C59.9005 249.527 60.3171 249.325 60.5394 248.943C60.5602 249.187 60.5741 249.291 60.6018 249.437H61.2962C61.2268 249.103 61.1921 248.652 61.1921 248.089C61.1921 247.93 61.206 247.284 61.206 247.194C61.2129 246.076 60.6643 245.61 59.6991 245.61C58.845 245.61 58.1853 246.083 58.1298 246.881H58.8589C58.8867 246.416 59.1714 246.166 59.6714 246.166C60.1297 246.166 60.4769 246.388 60.4769 247.048V247.124C59.0325 247.27 57.9562 247.52 57.9562 248.43C57.9562 249.11 58.5325 249.527 59.2894 249.527ZM63.7992 245.242C64.5909 245.242 64.8756 244.847 64.9311 244.402H64.3895C64.3617 244.645 64.195 244.805 63.8062 244.805C63.4173 244.805 63.2645 244.645 63.2368 244.402H62.6882C62.7229 244.847 63.0354 245.242 63.7992 245.242ZM62.841 249.437L64.6672 246.742V249.437H65.3755V245.701H64.6672L62.841 248.402V245.701H62.1327V249.437H62.841ZM69.6821 249.437V245.701H68.9599V247.235H67.1406V245.701H66.4184V249.437H67.1406V247.812H68.9599V249.437H69.6821Z" fill="#C9CACB"/>
<rect x="173.336" y="238.178" width="38.9333" height="18.5173" rx="9.25867" fill="#F0F1F2"/>
<path fill-rule="evenodd" clip-rule="evenodd" d="M187.243 241.649C188.772 241.649 190.21 242.241 191.299 243.318C192.406 244.414 193.015 245.877 193.015 247.436C193.015 248.985 192.411 250.441 191.312 251.536C190.222 252.624 188.777 253.223 187.242 253.223H187.214C186.338 253.219 185.497 253.023 184.716 252.641C184.519 252.545 184.292 252.541 184.092 252.633C183.396 252.952 182.608 253.149 181.751 253.221C181.648 253.23 181.548 253.183 181.49 253.096C181.432 253.01 181.426 252.899 181.472 252.806L182.322 251.115C182.433 250.893 182.424 250.633 182.295 250.419C181.758 249.527 181.472 248.501 181.47 247.454C181.464 245.916 182.053 244.466 183.127 243.373C184.199 242.279 185.636 241.668 187.171 241.649H187.243ZM186.248 250.065L185.785 250.505L183.435 248.271L185.785 246.038L186.248 246.478L184.694 247.952H188.642C189.231 247.952 189.71 247.497 189.71 246.935C189.71 246.377 189.229 245.92 188.642 245.92H188.352V245.284H188.642C189.601 245.284 190.379 246.023 190.379 246.935C190.379 247.846 189.601 248.591 188.642 248.591H184.694L186.248 250.065Z" fill="#2F2F2F"/>
<path d="M198.509 251.437V243.885H197.728C197.353 244.697 196.769 244.833 195.697 244.864V245.604H197.415V251.437H198.509ZM202.376 243.75C200.762 243.75 199.689 244.76 199.72 246.27H200.824C200.824 245.052 201.574 244.614 202.345 244.614C203.168 244.614 203.668 245.093 203.668 245.854C203.668 247.166 202.126 248.52 199.533 250.499V251.437H205.001V250.457H200.939C203.137 248.905 204.803 247.395 204.803 245.739C204.803 244.458 203.772 243.75 202.376 243.75Z" fill="#2F2F2F"/>
<path d="M29.8827 277.954V267.885H21.9109V277.954H23.4942V269.232H28.2994V277.954H29.8827ZM31.8289 270.482V280.384H33.2733V276.898C33.7316 277.676 34.4954 278.134 35.6065 278.134C37.3425 278.134 38.8285 276.676 38.8285 274.232C38.8285 271.787 37.3425 270.343 35.6065 270.343C34.4954 270.343 33.7316 270.801 33.2733 271.579V270.482H31.8289ZM33.2177 274.232C33.2177 272.385 34.1621 271.551 35.2732 271.551C36.4814 271.551 37.2869 272.551 37.2869 274.232C37.2869 275.912 36.4814 276.926 35.2732 276.926C34.1621 276.926 33.2177 276.079 33.2177 274.232ZM41.5425 277.954L45.1951 272.565V277.954H46.6116V270.482H45.1951L41.5425 275.884V270.482H40.1259V277.954H41.5425ZM55.78 276.801H54.7106V270.482H49.4332L49.336 272.871C49.2248 275.704 48.8638 276.801 48.0999 276.801H47.7388V279.731H49.0999V277.954H54.419V279.731H55.78V276.801ZM53.2663 276.801H49.7665C50.3637 276.19 50.5859 275.037 50.6831 273.301L50.7803 271.635H53.2663V276.801ZM57.2786 280.384C58.9729 280.384 59.3896 279.884 60.0145 278.12L62.6532 270.482H61.1533L59.3896 276.051L57.5841 270.482H55.987L58.6813 277.94L58.6257 278.106C58.2646 279.162 57.9313 279.231 57.1536 279.231H56.5842V280.384H57.2786ZM72.0203 270.482H69.8676L67.7983 276.037L65.6457 270.482H63.493V277.954H64.8818V272.051L67.215 277.954H68.2983L70.6315 271.996V277.954H72.0203V270.482ZM78.4875 274.94C78.4875 276.426 77.5431 277.023 76.3627 277.023C75.4738 277.023 74.9461 276.593 74.9461 275.912C74.9461 274.954 76.1682 274.62 78.4875 274.398V274.94ZM76.0432 278.134C77.2654 278.134 78.0987 277.731 78.5431 276.968C78.5847 277.454 78.6125 277.662 78.6681 277.954H80.0569C79.918 277.287 79.8485 276.384 79.8485 275.259C79.8485 274.94 79.8763 273.648 79.8763 273.468C79.8902 271.232 78.7931 270.301 76.8626 270.301C75.1544 270.301 73.835 271.246 73.7239 272.843H75.1822C75.2377 271.912 75.8071 271.412 76.8071 271.412C77.7237 271.412 78.4181 271.857 78.4181 273.176V273.329C75.5294 273.621 73.3767 274.121 73.3767 275.94C73.3767 277.301 74.5294 278.134 76.0432 278.134ZM87.1248 271.635V270.482H80.4169V271.635H83.0556V277.954H84.4999V271.635H87.1248ZM89.6065 273.065V270.482H88.1621V277.954H91.1758C92.9535 277.954 94.1618 277.343 94.1618 275.454C94.1618 273.968 93.2868 273.065 91.3008 273.065H89.6065ZM89.6065 276.801V274.218H91.1203C92.1897 274.218 92.7174 274.523 92.7174 275.454C92.7174 276.398 92.1897 276.801 91.1342 276.801H89.6065ZM103.057 274.94C103.057 276.426 102.112 277.023 100.932 277.023C100.043 277.023 99.5154 276.593 99.5154 275.912C99.5154 274.954 100.738 274.62 103.057 274.398V274.94ZM100.613 278.134C101.835 278.134 102.668 277.731 103.112 276.968C103.154 277.454 103.182 277.662 103.237 277.954H104.626C104.487 277.287 104.418 276.384 104.418 275.259C104.418 274.94 104.446 273.648 104.446 273.468C104.459 271.232 103.362 270.301 101.432 270.301C99.7237 270.301 98.4043 271.246 98.2932 272.843H99.7515C99.807 271.912 100.376 271.412 101.376 271.412C102.293 271.412 102.987 271.857 102.987 273.176V273.329C100.099 273.621 97.946 274.121 97.946 275.94C97.946 277.301 99.0987 278.134 100.613 278.134ZM109.424 269.565C111.007 269.565 111.576 268.774 111.688 267.885H110.604C110.549 268.371 110.215 268.69 109.438 268.69C108.66 268.69 108.354 268.371 108.299 267.885H107.202C107.271 268.774 107.896 269.565 109.424 269.565ZM107.507 277.954L111.16 272.565V277.954H112.576V270.482H111.16L107.507 275.884V270.482H106.091V277.954H107.507ZM121.731 276.801H120.662V270.482H115.384L115.287 272.871C115.176 275.704 114.815 276.801 114.051 276.801H113.69V279.731H115.051V277.954H120.37V279.731H121.731V276.801ZM119.217 276.801H115.718C116.315 276.19 116.537 275.037 116.634 273.301L116.731 271.635H119.217V276.801ZM125.819 276.898C124.638 276.898 123.791 276.051 123.638 274.662H129.332C129.485 272.232 128.138 270.343 125.833 270.343C123.708 270.343 122.152 271.885 122.152 274.204C122.152 276.37 123.472 278.134 125.874 278.134C127.763 278.134 128.902 276.995 129.235 275.759H127.777C127.458 276.468 126.874 276.898 125.819 276.898ZM125.819 271.523C126.999 271.523 127.791 272.426 127.833 273.523H123.666C123.874 272.093 124.694 271.523 125.819 271.523ZM137.152 277.954V270.482H135.707V273.551H132.069V270.482H130.624V277.954H132.069V274.704H135.707V277.954H137.152ZM144.903 271.635V270.482H138.195V271.635H140.833V277.954H142.278V271.635H144.903ZM147.357 277.954L151.009 272.565V277.954H152.426V270.482H151.009L147.357 275.884V270.482H145.94V277.954H147.357ZM159.15 277.954H160.886L157.817 274.051L160.636 270.482H158.955L156.678 273.509H155.761V270.482H154.317V277.954H155.761V274.662H156.636L159.15 277.954ZM162.103 280.384C163.797 280.384 164.214 279.884 164.839 278.12L167.477 270.482H165.977L164.214 276.051L162.408 270.482H160.811L163.505 277.94L163.45 278.106C163.089 279.162 162.755 279.231 161.978 279.231H161.408V280.384H162.103ZM178.641 276.801H177.572V270.482H172.294L172.197 272.871C172.086 275.704 171.725 276.801 170.961 276.801H170.6V279.731H171.961V277.954H177.28V279.731H178.641V276.801ZM176.127 276.801H172.628C173.225 276.19 173.447 275.037 173.544 273.301L173.641 271.635H176.127V276.801ZM185.973 270.482H180.862L180.751 272.815C180.598 275.662 180.167 276.801 179.279 276.801H179.126V277.954H179.39C181.32 277.954 181.987 276.19 182.14 273.037L182.209 271.635H184.528V277.954H185.973V270.482ZM188.735 277.954L190.54 275.37H192.026V277.954H193.471V270.482H190.443C188.651 270.482 187.624 271.301 187.624 272.843C187.624 273.968 188.235 274.662 189.11 274.982L187.013 277.954H188.735ZM190.582 274.218C189.707 274.218 189.068 273.884 189.068 272.94C189.068 272.107 189.665 271.635 190.554 271.635H192.026V274.218H190.582ZM25.2024 284.912C24.133 284.912 23.1331 285.385 22.6192 286.371C22.8414 284.524 23.7858 283.829 25.3968 283.537L27.855 283.065V281.815L25.3274 282.26C22.4804 282.774 21.4249 284.496 21.3832 287.204V287.968C21.3832 290.759 22.9942 292.134 24.9385 292.134C26.7995 292.134 28.4105 290.856 28.4105 288.454C28.4105 286.107 26.9245 284.912 25.2024 284.912ZM24.9524 290.926C23.7442 290.926 22.897 290.009 22.897 288.468C22.897 286.857 23.8553 286.121 24.9663 286.121C26.0357 286.121 26.8967 286.912 26.8967 288.482C26.8967 290.051 26.119 290.926 24.9524 290.926ZM29.6725 284.482V294.384H31.1168V290.898C31.5752 291.676 32.339 292.134 33.45 292.134C35.186 292.134 36.672 290.676 36.672 288.232C36.672 285.787 35.186 284.343 33.45 284.343C32.339 284.343 31.5752 284.801 31.1168 285.579V284.482H29.6725ZM31.0613 288.232C31.0613 286.385 32.0057 285.551 33.1167 285.551C34.325 285.551 35.1305 286.551 35.1305 288.232C35.1305 289.912 34.325 290.926 33.1167 290.926C32.0057 290.926 31.0613 290.079 31.0613 288.232ZM41.2154 290.898C40.0349 290.898 39.1877 290.051 39.035 288.662H44.729C44.8818 286.232 43.5347 284.343 41.2293 284.343C39.1044 284.343 37.5489 285.885 37.5489 288.204C37.5489 290.37 38.8683 292.134 41.2709 292.134C43.1597 292.134 44.2985 290.995 44.6318 289.759H43.1736C42.8542 290.468 42.2709 290.898 41.2154 290.898ZM41.2154 285.523C42.3959 285.523 43.1875 286.426 43.2291 287.523H39.0627C39.2711 286.093 40.0904 285.523 41.2154 285.523ZM52.5481 291.954V284.482H51.1037V287.551H47.4651V284.482H46.0207V291.954H47.4651V288.704H51.1037V291.954H52.5481ZM61.7019 290.801H60.6325V284.482H55.3551L55.2579 286.871C55.1468 289.704 54.7857 290.801 54.0219 290.801H53.6608V293.731H55.0218V291.954H60.3409V293.731H61.7019V290.801ZM59.1882 290.801H55.6884C56.2856 290.19 56.5078 289.037 56.605 287.301L56.7022 285.635H59.1882V290.801ZM67.5475 288.94C67.5475 290.426 66.6031 291.023 65.4226 291.023C64.5338 291.023 64.006 290.593 64.006 289.912C64.006 288.954 65.2282 288.62 67.5475 288.398V288.94ZM65.1032 292.134C66.3253 292.134 67.1586 291.731 67.603 290.968C67.6447 291.454 67.6725 291.662 67.728 291.954H69.1168C68.9779 291.287 68.9085 290.384 68.9085 289.259C68.9085 288.94 68.9363 287.648 68.9363 287.468C68.9501 285.232 67.853 284.301 65.9226 284.301C64.2143 284.301 62.895 285.246 62.7839 286.843H64.2421C64.2977 285.912 64.8671 285.412 65.867 285.412C66.7836 285.412 67.478 285.857 67.478 287.176V287.329C64.5893 287.621 62.4367 288.121 62.4367 289.94C62.4367 291.301 63.5894 292.134 65.1032 292.134ZM73.628 284.482V291.954H77.2111C78.8499 291.954 80.0721 291.329 80.0721 289.745C80.0721 288.745 79.5165 288.232 78.7527 288.009C79.4054 287.718 79.7665 287.176 79.7665 286.398C79.7665 284.871 78.5305 284.482 77.0028 284.482H73.628ZM75.0724 287.579V285.635H76.8639C77.7389 285.635 78.2944 285.815 78.2944 286.579C78.2944 287.357 77.7666 287.579 76.8917 287.579H75.0724ZM75.0724 288.676H76.975C78.0444 288.676 78.586 288.94 78.586 289.718C78.586 290.495 78.0583 290.801 77.0028 290.801H75.0724V288.676ZM82.811 291.954L86.4636 286.565V291.954H87.8801V284.482H86.4636L82.811 289.884V284.482H81.3944V291.954H82.811ZM97.0485 290.801H95.9791V284.482H90.7017L90.6045 286.871C90.4934 289.704 90.1323 290.801 89.3684 290.801H89.0074V293.731H90.3684V291.954H95.6875V293.731H97.0485V290.801ZM94.5348 290.801H91.035C91.6322 290.19 91.8544 289.037 91.9516 287.301L92.0488 285.635H94.5348V290.801ZM101.136 290.898C99.9557 290.898 99.1085 290.051 98.9557 288.662H104.65C104.803 286.232 103.455 284.343 101.15 284.343C99.0252 284.343 97.4697 285.885 97.4697 288.204C97.4697 290.37 98.7891 292.134 101.192 292.134C103.08 292.134 104.219 290.995 104.553 289.759H103.094C102.775 290.468 102.192 290.898 101.136 290.898ZM101.136 285.523C102.317 285.523 103.108 286.426 103.15 287.523H98.9835C99.1918 286.093 100.011 285.523 101.136 285.523ZM106.968 288.246C106.968 286.357 107.981 285.565 109.065 285.565C110.176 285.565 111.176 286.398 111.176 288.246C111.176 290.065 110.176 290.912 109.065 290.912C107.981 290.912 106.968 290.079 106.968 288.246ZM109.065 284.343C107.301 284.343 105.44 285.537 105.44 288.246C105.44 290.94 107.301 292.134 109.065 292.134C110.842 292.134 112.703 290.94 112.703 288.246C112.703 285.537 110.842 284.343 109.065 284.343ZM118.298 288.023C118.964 287.704 119.478 287.148 119.478 286.412C119.478 285.287 118.395 284.315 116.603 284.315C114.937 284.315 113.59 285.162 113.479 286.815H114.923C114.923 285.871 115.77 285.482 116.589 285.482C117.464 285.482 118.02 285.787 118.02 286.496C118.02 287.218 117.423 287.565 116.589 287.565H115.465V288.718H116.673C117.673 288.718 118.214 289.037 118.214 289.87C118.214 290.579 117.603 290.968 116.548 290.968C115.492 290.968 114.826 290.523 114.784 289.634H113.34C113.451 291.398 115.006 292.134 116.617 292.134C118.381 292.134 119.659 291.301 119.659 289.801C119.659 288.801 119.089 288.259 118.298 288.023ZM120.973 284.482V291.954H124.556C126.194 291.954 127.417 291.329 127.417 289.745C127.417 288.745 126.861 288.232 126.097 288.009C126.75 287.718 127.111 287.176 127.111 286.398C127.111 284.871 125.875 284.482 124.347 284.482H120.973ZM122.417 287.579V285.635H124.208C125.083 285.635 125.639 285.815 125.639 286.579C125.639 287.357 125.111 287.579 124.236 287.579H122.417ZM122.417 288.676H124.32C125.389 288.676 125.931 288.94 125.931 289.718C125.931 290.495 125.403 290.801 124.347 290.801H122.417V288.676ZM129.697 288.246C129.697 286.357 130.711 285.565 131.794 285.565C132.905 285.565 133.905 286.398 133.905 288.246C133.905 290.065 132.905 290.912 131.794 290.912C130.711 290.912 129.697 290.079 129.697 288.246ZM131.794 284.343C130.031 284.343 128.17 285.537 128.17 288.246C128.17 290.94 130.031 292.134 131.794 292.134C133.572 292.134 135.433 290.94 135.433 288.246C135.433 285.537 133.572 284.343 131.794 284.343ZM143.263 291.954V284.482H141.819V287.551H138.18V284.482H136.736V291.954H138.18V288.704H141.819V291.954H143.263ZM149.973 291.954H151.709L148.64 288.051L151.459 284.482H149.778L147.501 287.509H146.584V284.482H145.14V291.954H146.584V288.662H147.459L149.973 291.954ZM153.39 288.246C153.39 286.357 154.404 285.565 155.487 285.565C156.598 285.565 157.598 286.398 157.598 288.246C157.598 290.065 156.598 290.912 155.487 290.912C154.404 290.912 153.39 290.079 153.39 288.246ZM155.487 284.343C153.723 284.343 151.862 285.537 151.862 288.246C151.862 290.94 153.723 292.134 155.487 292.134C157.265 292.134 159.126 290.94 159.126 288.246C159.126 285.537 157.265 284.343 155.487 284.343ZM160.429 284.482V291.954H164.012C165.65 291.954 166.873 291.329 166.873 289.745C166.873 288.745 166.317 288.232 165.553 288.009C166.206 287.718 166.567 287.176 166.567 286.398C166.567 284.871 165.331 284.482 163.803 284.482H160.429ZM161.873 287.579V285.635H163.664C164.539 285.635 165.095 285.815 165.095 286.579C165.095 287.357 164.567 287.579 163.692 287.579H161.873ZM161.873 288.676H163.776C164.845 288.676 165.387 288.94 165.387 289.718C165.387 290.495 164.859 290.801 163.803 290.801H161.873V288.676Z" fill="#2F2F2F"/>
<rect x="12.6289" y="306.685" width="207.741" height="85.9787" rx="11.5733" fill="white"/>
<circle cx="29.9891" cy="324.045" r="9.25867" fill="#FA4D22"/>
<path d="M33.8627 326.824L31.2206 324.182L33.8988 321.504L32.7458 320.351L30.0677 323.029L27.4497 320.411L26.2487 321.612L28.8668 324.23L26.1767 326.92L27.3296 328.073L30.0197 325.383L32.6618 328.025L33.8627 326.824Z" fill="white"/>
<circle cx="50.8212" cy="324.045" r="9.25867" fill="#00C46C"/>
<path d="M49.7103 324.902H51.047C53.3895 324.902 55.0317 324.202 55.0317 322.012C55.0317 319.721 53.3895 319.135 51.047 319.135H48.0935V323.565H47.0241V324.902H48.0935V325.844H47.0241V326.863H48.0935V328.365H49.7103V326.863H52.5365V325.844H49.7103V324.902ZM49.7103 323.565V320.484H51.1107C52.3583 320.484 53.364 320.726 53.364 322.012C53.364 323.311 52.3583 323.565 51.1107 323.565H49.7103Z" fill="white"/>
<path d="M65.8567 323.524C65.8567 322.26 66.5442 321.58 67.426 321.58C68.294 321.58 68.9884 322.26 68.9884 323.524C68.9884 324.781 68.294 325.476 67.426 325.476C66.5442 325.476 65.8567 324.781 65.8567 323.524ZM69.8009 323.524C69.8009 321.99 68.8843 320.92 67.426 320.92C65.9609 320.92 65.0442 321.99 65.0442 323.524C65.0442 325.059 65.9609 326.135 67.426 326.135C68.8843 326.135 69.8009 325.059 69.8009 323.524ZM73.9204 326.045V322.309H73.1982V323.844H71.3789V322.309H70.6567V326.045H71.3789V324.42H73.1982V326.045H73.9204ZM78.0043 322.309H75.4489L75.3934 323.476C75.317 324.899 75.1017 325.469 74.6573 325.469H74.5809V326.045H74.7128C75.6781 326.045 76.0114 325.163 76.0878 323.587L76.1225 322.885H77.2821V326.045H78.0043V322.309ZM81.3436 324.538C81.3436 325.281 80.8714 325.58 80.2812 325.58C79.8368 325.58 79.5729 325.364 79.5729 325.024C79.5729 324.545 80.184 324.378 81.3436 324.267V324.538ZM80.1215 326.135C80.7325 326.135 81.1492 325.934 81.3714 325.552C81.3922 325.795 81.4061 325.899 81.4339 326.045H82.1283C82.0588 325.712 82.0241 325.26 82.0241 324.698C82.0241 324.538 82.038 323.892 82.038 323.802C82.045 322.684 81.4964 322.219 80.5312 322.219C79.677 322.219 79.0174 322.691 78.9618 323.49H79.6909C79.7187 323.024 80.0034 322.774 80.5034 322.774C80.9617 322.774 81.3089 322.997 81.3089 323.656V323.733C79.8645 323.878 78.7882 324.128 78.7882 325.038C78.7882 325.719 79.3646 326.135 80.1215 326.135ZM84.6313 321.851C85.4229 321.851 85.7076 321.455 85.7631 321.011H85.2215C85.1937 321.254 85.0271 321.413 84.6382 321.413C84.2493 321.413 84.0966 321.254 84.0688 321.011H83.5202C83.5549 321.455 83.8674 321.851 84.6313 321.851ZM83.673 326.045L85.4993 323.351V326.045H86.2076V322.309H85.4993L83.673 325.01V322.309H82.9647V326.045H83.673ZM90.5141 326.045V322.309H89.792V323.844H87.9726V322.309H87.2505V326.045H87.9726V324.42H89.792V326.045H90.5141Z" fill="#C9CACB"/>
<rect x="170.336" y="314.786" width="41.9333" height="18.5173" rx="9.25867" fill="#F0F1F2"/>
<path fill-rule="evenodd" clip-rule="evenodd" d="M184.243 318.258C185.772 318.258 187.21 318.849 188.299 319.927C189.406 321.023 190.015 322.485 190.015 324.044C190.015 325.593 189.411 327.049 188.312 328.144C187.222 329.232 185.777 329.831 184.242 329.831H184.214C183.338 329.827 182.497 329.631 181.716 329.249C181.519 329.153 181.292 329.15 181.092 329.241C180.396 329.56 179.608 329.757 178.751 329.83C178.648 329.839 178.548 329.791 178.49 329.705C178.432 329.618 178.426 329.507 178.472 329.414L179.322 327.723C179.433 327.501 179.424 327.242 179.295 327.027C178.758 326.136 178.472 325.109 178.47 324.063C178.464 322.524 179.053 321.074 180.127 319.981C181.199 318.888 182.636 318.276 184.171 318.258H184.243ZM183.248 326.673L182.785 327.113L180.435 324.88L182.785 322.647L183.248 323.086L181.694 324.56H185.642C186.231 324.56 186.71 324.106 186.71 323.543C186.71 322.986 186.229 322.529 185.642 322.529H185.352V321.892H185.642C186.601 321.892 187.379 322.632 187.379 323.543C187.379 324.455 186.601 325.199 185.642 325.199H181.694L183.248 326.673Z" fill="#2F2F2F"/>
<path d="M196.213 327.305C195.182 327.305 194.661 326.639 194.546 325.764H193.463C193.546 327.055 194.442 328.18 196.192 328.18C197.661 328.18 198.973 327.441 198.973 325.91C198.973 325.139 198.619 324.368 197.598 324.035C198.348 323.712 198.775 323.066 198.775 322.306C198.775 320.889 197.577 320.358 196.296 320.358C194.671 320.358 193.682 321.295 193.567 322.681H194.65C194.765 321.806 195.286 321.222 196.244 321.222C197.004 321.222 197.64 321.608 197.64 322.399C197.64 323.233 197.015 323.608 195.754 323.608H195.536V324.556H195.796C196.963 324.556 197.838 324.889 197.838 325.93C197.838 326.805 197.161 327.305 196.213 327.305ZM202.376 320.358C200.762 320.358 199.689 321.368 199.72 322.879H200.824C200.824 321.66 201.574 321.222 202.345 321.222C203.168 321.222 203.668 321.702 203.668 322.462C203.668 323.774 202.126 325.128 199.533 327.107V328.045H205.001V327.066H200.939C203.137 325.514 204.803 324.004 204.803 322.347C204.803 321.066 203.772 320.358 202.376 320.358Z" fill="#2F2F2F"/>
<path d="M28.8272 351.284C28.5077 352.618 27.5495 353.423 26.0496 353.423C24.3136 353.423 23.022 351.993 23.022 349.507C23.022 346.993 24.3275 345.632 26.0357 345.632C27.5217 345.632 28.4661 346.451 28.7855 347.771H30.3132C29.9104 345.563 28.2578 344.313 26.1051 344.313C23.2164 344.313 21.3971 346.354 21.3971 349.507C21.3971 352.604 23.0914 354.743 26.0079 354.743C28.2578 354.743 29.9104 353.507 30.3549 351.284H28.8272ZM31.6407 347.09V354.562H35.2238C36.8626 354.562 38.0847 353.937 38.0847 352.354C38.0847 351.354 37.5292 350.84 36.7654 350.618C37.4181 350.326 37.7792 349.785 37.7792 349.007C37.7792 347.479 36.5432 347.09 35.0155 347.09H31.6407ZM33.085 350.187V348.243H34.8766C35.7515 348.243 36.3071 348.424 36.3071 349.187C36.3071 349.965 35.7793 350.187 34.9044 350.187H33.085ZM33.085 351.284H34.9877C36.0571 351.284 36.5987 351.548 36.5987 352.326C36.5987 353.104 36.071 353.409 35.0155 353.409H33.085V351.284ZM42.4903 353.507C41.3098 353.507 40.4626 352.659 40.3098 351.271H46.0039C46.1567 348.84 44.8095 346.951 42.5041 346.951C40.3793 346.951 38.8238 348.493 38.8238 350.812C38.8238 352.979 40.1432 354.743 42.5458 354.743C44.4346 354.743 45.5734 353.604 45.9067 352.368H44.4485C44.129 353.076 43.5457 353.507 42.4903 353.507ZM42.4903 348.132C43.6707 348.132 44.4623 349.035 44.504 350.132H40.3376C40.5459 348.701 41.3653 348.132 42.4903 348.132ZM47.2262 347.09V356.992H48.6705V353.507C49.1288 354.284 49.8927 354.743 51.0037 354.743C52.7397 354.743 54.2257 353.284 54.2257 350.84C54.2257 348.396 52.7397 346.951 51.0037 346.951C49.8927 346.951 49.1288 347.41 48.6705 348.187V347.09H47.2262ZM48.615 350.84C48.615 348.993 49.5594 348.16 50.6704 348.16C51.8786 348.16 52.6842 349.16 52.6842 350.84C52.6842 352.52 51.8786 353.534 50.6704 353.534C49.5594 353.534 48.615 352.687 48.615 350.84ZM58.7135 346.951C56.5053 346.951 55.1026 348.632 55.1026 350.84C55.1026 353.104 56.4498 354.743 58.6163 354.743C60.269 354.743 61.7133 353.645 62.0188 352.076H60.5606C60.3523 352.965 59.5746 353.507 58.6441 353.507C57.6025 353.507 56.6442 352.673 56.6442 350.826C56.6442 349.007 57.6025 348.187 58.6441 348.187C59.5884 348.187 60.3523 348.771 60.5051 349.618H61.9494C61.7272 348.16 60.4217 346.951 58.7135 346.951ZM68.798 348.243V347.09H62.0901V348.243H64.7288V354.562H66.1732V348.243H68.798ZM74.039 351.548C74.039 353.034 73.0946 353.632 71.9142 353.632C71.0253 353.632 70.4976 353.201 70.4976 352.52C70.4976 351.562 71.7197 351.229 74.039 351.007V351.548ZM71.5947 354.743C72.8169 354.743 73.6502 354.34 74.0946 353.576C74.1362 354.062 74.164 354.27 74.2196 354.562H75.6084C75.4695 353.895 75.4 352.993 75.4 351.868C75.4 351.548 75.4278 350.257 75.4278 350.076C75.4417 347.84 74.3446 346.91 72.4141 346.91C70.7059 346.91 69.3865 347.854 69.2754 349.451H70.7337C70.7892 348.521 71.3586 348.021 72.3586 348.021C73.2752 348.021 73.9696 348.465 73.9696 349.785V349.937C71.0809 350.229 68.9282 350.729 68.9282 352.548C68.9282 353.909 70.0809 354.743 71.5947 354.743ZM82.6763 348.243V347.09H75.9684V348.243H78.6071V354.562H80.0514V348.243H82.6763ZM85.158 349.673V347.09H83.7136V354.562H86.7273C88.505 354.562 89.7133 353.951 89.7133 352.062C89.7133 350.576 88.8383 349.673 86.8523 349.673H85.158ZM85.158 353.409V350.826H86.6718C87.7412 350.826 88.2689 351.132 88.2689 352.062C88.2689 353.007 87.7412 353.409 86.6857 353.409H85.158ZM94.0114 347.09V354.562H97.5945C99.2333 354.562 100.455 353.937 100.455 352.354C100.455 351.354 99.8999 350.84 99.136 350.618C99.7888 350.326 100.15 349.785 100.15 349.007C100.15 347.479 98.9138 347.09 97.3862 347.09H94.0114ZM95.4557 350.187V348.243H97.2473C98.1222 348.243 98.6777 348.424 98.6777 349.187C98.6777 349.965 98.15 350.187 97.2751 350.187H95.4557ZM95.4557 351.284H97.3584C98.4278 351.284 98.9694 351.548 98.9694 352.326C98.9694 353.104 98.4416 353.409 97.3862 353.409H95.4557V351.284ZM103.194 354.562L106.847 349.173V354.562H108.264V347.09H106.847L103.194 352.493V347.09H101.778V354.562H103.194ZM114.446 350.632C115.113 350.312 115.626 349.757 115.626 349.021C115.626 347.896 114.543 346.924 112.752 346.924C111.085 346.924 109.738 347.771 109.627 349.423H111.071C111.071 348.479 111.918 348.09 112.738 348.09C113.613 348.09 114.168 348.396 114.168 349.104C114.168 349.826 113.571 350.173 112.738 350.173H111.613V351.326H112.821C113.821 351.326 114.363 351.646 114.363 352.479C114.363 353.187 113.752 353.576 112.696 353.576C111.641 353.576 110.974 353.132 110.932 352.243H109.488C109.599 354.006 111.154 354.743 112.765 354.743C114.529 354.743 115.807 353.909 115.807 352.409C115.807 351.409 115.238 350.868 114.446 350.632ZM117.371 356.992C119.065 356.992 119.482 356.492 120.107 354.729L122.745 347.09H121.246L119.482 352.659L117.676 347.09H116.079L118.773 354.548L118.718 354.715C118.357 355.77 118.024 355.84 117.246 355.84H116.676V356.992H117.371ZM127.911 351.548C127.911 353.034 126.967 353.632 125.786 353.632C124.897 353.632 124.369 353.201 124.369 352.52C124.369 351.562 125.592 351.229 127.911 351.007V351.548ZM125.467 354.743C126.689 354.743 127.522 354.34 127.966 353.576C128.008 354.062 128.036 354.27 128.091 354.562H129.48C129.341 353.895 129.272 352.993 129.272 351.868C129.272 351.548 129.3 350.257 129.3 350.076C129.314 347.84 128.216 346.91 126.286 346.91C124.578 346.91 123.258 347.854 123.147 349.451H124.606C124.661 348.521 125.231 348.021 126.23 348.021C127.147 348.021 127.841 348.465 127.841 349.785V349.937C124.953 350.229 122.8 350.729 122.8 352.548C122.8 353.909 123.953 354.743 125.467 354.743ZM137.028 347.09H131.917L131.806 349.423C131.653 352.27 131.223 353.409 130.334 353.409H130.181V354.562H130.445C132.375 354.562 133.042 352.798 133.195 349.646L133.264 348.243H135.583V354.562H137.028V347.09ZM140.345 349.673V347.09H138.901V354.562H141.915C143.692 354.562 144.901 353.951 144.901 352.062C144.901 350.576 144.026 349.673 142.04 349.673H140.345ZM140.345 353.409V350.826H141.859C142.929 350.826 143.456 351.132 143.456 352.062C143.456 353.007 142.929 353.409 141.873 353.409H140.345ZM152.679 354.562V347.09H151.235V350.16H147.596V347.09H146.152V354.562H147.596V351.312H151.235V354.562H152.679ZM155.514 350.854C155.514 348.965 156.528 348.174 157.611 348.174C158.722 348.174 159.722 349.007 159.722 350.854C159.722 352.673 158.722 353.52 157.611 353.52C156.528 353.52 155.514 352.687 155.514 350.854ZM157.611 346.951C155.848 346.951 153.987 348.146 153.987 350.854C153.987 353.548 155.848 354.743 157.611 354.743C159.389 354.743 161.25 353.548 161.25 350.854C161.25 348.146 159.389 346.951 157.611 346.951ZM165.799 353.507C164.618 353.507 163.771 352.659 163.618 351.271H169.313C169.465 348.84 168.118 346.951 165.813 346.951C163.688 346.951 162.132 348.493 162.132 350.812C162.132 352.979 163.452 354.743 165.854 354.743C167.743 354.743 168.882 353.604 169.215 352.368H167.757C167.438 353.076 166.854 353.507 165.799 353.507ZM165.799 348.132C166.979 348.132 167.771 349.035 167.813 350.132H163.646C163.855 348.701 164.674 348.132 165.799 348.132ZM23.1886 368.562L26.8412 363.173V368.562H28.2578V361.09H26.8412L23.1886 366.493V361.09H21.7721V368.562H23.1886ZM33.1764 360.951C30.9682 360.951 29.5655 362.632 29.5655 364.84C29.5655 367.104 30.9127 368.743 33.0792 368.743C34.7319 368.743 36.1762 367.645 36.4817 366.076H35.0235C34.8152 366.965 34.0375 367.507 33.107 367.507C32.0654 367.507 31.1071 366.673 31.1071 364.826C31.1071 363.007 32.0654 362.187 33.107 362.187C34.0513 362.187 34.8152 362.771 34.9679 363.618H36.4123C36.1901 362.16 34.8846 360.951 33.1764 360.951ZM40.7936 360.951C38.5854 360.951 37.1828 362.632 37.1828 364.84C37.1828 367.104 38.5299 368.743 40.6964 368.743C42.3491 368.743 43.7934 367.645 44.099 366.076H42.6407C42.4324 366.965 41.6547 367.507 40.7242 367.507C39.6826 367.507 38.7243 366.673 38.7243 364.826C38.7243 363.007 39.6826 362.187 40.7242 362.187C41.6686 362.187 42.4324 362.771 42.5852 363.618H44.0295C43.8073 362.16 42.5019 360.951 40.7936 360.951ZM51.3984 361.09H46.2876L46.1765 363.423C46.0238 366.27 45.5932 367.409 44.7044 367.409H44.5516V368.562H44.8155C46.7459 368.562 47.4126 366.798 47.5653 363.646L47.6348 362.243H49.9541V368.562H51.3984V361.09ZM56.3549 367.507C55.1744 367.507 54.3273 366.659 54.1745 365.271H59.8686C60.0214 362.84 58.6742 360.951 56.3688 360.951C54.244 360.951 52.6885 362.493 52.6885 364.812C52.6885 366.979 54.0079 368.743 56.4105 368.743C58.2992 368.743 59.4381 367.604 59.7714 366.368H58.3131C57.9937 367.076 57.4104 367.507 56.3549 367.507ZM56.3549 362.132C57.5354 362.132 58.327 363.035 58.3687 364.132H54.2023C54.4106 362.701 55.23 362.132 56.3549 362.132ZM68.302 367.409H67.2326V361.09H61.9552L61.8579 363.479C61.7468 366.312 61.3857 367.409 60.6219 367.409H60.2608V370.34H61.6218V368.562H66.9409V370.34H68.302V367.409ZM65.7882 367.409H62.2885C62.8857 366.798 63.1079 365.646 63.2051 363.91L63.3023 362.243H65.7882V367.409ZM70.2647 364.854C70.2647 362.965 71.2786 362.174 72.3618 362.174C73.4729 362.174 74.4728 363.007 74.4728 364.854C74.4728 366.673 73.4729 367.52 72.3618 367.52C71.2786 367.52 70.2647 366.687 70.2647 364.854ZM72.3618 360.951C70.598 360.951 68.7371 362.146 68.7371 364.854C68.7371 367.548 70.598 368.743 72.3618 368.743C74.1395 368.743 76.0005 367.548 76.0005 364.854C76.0005 362.146 74.1395 360.951 72.3618 360.951ZM77.3035 361.09V368.562H80.8866C82.5253 368.562 83.7475 367.937 83.7475 366.354C83.7475 365.354 83.192 364.84 82.4281 364.618C83.0809 364.326 83.442 363.785 83.442 363.007C83.442 361.479 82.2059 361.09 80.6782 361.09H77.3035ZM78.7478 364.187V362.243H80.5394C81.4143 362.243 81.9698 362.424 81.9698 363.187C81.9698 363.965 81.4421 364.187 80.5671 364.187H78.7478ZM78.7478 365.284H80.6505C81.7198 365.284 82.2615 365.548 82.2615 366.326C82.2615 367.104 81.7337 367.409 80.6782 367.409H78.7478V365.284ZM89.6668 365.548C89.6668 367.034 88.7224 367.632 87.542 367.632C86.6531 367.632 86.1254 367.201 86.1254 366.52C86.1254 365.562 87.3475 365.229 89.6668 365.007V365.548ZM87.2225 368.743C88.4447 368.743 89.278 368.34 89.7224 367.576C89.764 368.062 89.7918 368.27 89.8474 368.562H91.2362C91.0973 367.895 91.0278 366.993 91.0278 365.868C91.0278 365.548 91.0556 364.257 91.0556 364.076C91.0695 361.84 89.9724 360.91 88.0419 360.91C86.3337 360.91 85.0143 361.854 84.9032 363.451H86.3615C86.417 362.521 86.9864 362.021 87.9864 362.021C88.903 362.021 89.5974 362.465 89.5974 363.785V363.937C86.7087 364.229 84.556 364.729 84.556 366.548C84.556 367.909 85.7087 368.743 87.2225 368.743ZM99.2281 368.562V361.09H97.7837V364.16H94.145V361.09H92.7007V368.562H94.145V365.312H97.7837V368.562H99.2281ZM102.521 368.562L106.174 363.173V368.562H107.59V361.09H106.174L102.521 366.493V361.09H101.105V368.562H102.521ZM112.564 367.507C111.384 367.507 110.537 366.659 110.384 365.271H116.078C116.231 362.84 114.884 360.951 112.578 360.951C110.453 360.951 108.898 362.493 108.898 364.812C108.898 366.979 110.217 368.743 112.62 368.743C114.509 368.743 115.648 367.604 115.981 366.368H114.523C114.203 367.076 113.62 367.507 112.564 367.507ZM112.564 362.132C113.745 362.132 114.537 363.035 114.578 364.132H110.412C110.62 362.701 111.44 362.132 112.564 362.132ZM126.861 361.09H120.416V368.562H121.861V362.243H125.416V368.562H126.861V361.09ZM129.697 364.854C129.697 362.965 130.711 362.174 131.794 362.174C132.905 362.174 133.905 363.007 133.905 364.854C133.905 366.673 132.905 367.52 131.794 367.52C130.711 367.52 129.697 366.687 129.697 364.854ZM131.794 360.951C130.031 360.951 128.17 362.146 128.17 364.854C128.17 367.548 130.031 368.743 131.794 368.743C133.572 368.743 135.433 367.548 135.433 364.854C135.433 362.146 133.572 360.951 131.794 360.951ZM145.657 362.243V361.09H138.949V362.243H141.588V368.562H143.032V362.243H145.657ZM149.466 367.507C148.285 367.507 147.438 366.659 147.285 365.271H152.979C153.132 362.84 151.785 360.951 149.48 360.951C147.355 360.951 145.799 362.493 145.799 364.812C145.799 366.979 147.119 368.743 149.521 368.743C151.41 368.743 152.549 367.604 152.882 366.368H151.424C151.105 367.076 150.521 367.507 149.466 367.507ZM149.466 362.132C150.646 362.132 151.438 363.035 151.48 364.132H147.313C147.522 362.701 148.341 362.132 149.466 362.132ZM162.798 361.09H160.646L158.576 366.645L156.424 361.09H154.271V368.562H155.66V362.66L157.993 368.562H159.076L161.41 362.604V368.562H162.798V361.09ZM167.752 367.507C166.571 367.507 165.724 366.659 165.571 365.271H171.266C171.418 362.84 170.071 360.951 167.766 360.951C165.641 360.951 164.085 362.493 164.085 364.812C164.085 366.979 165.405 368.743 167.807 368.743C169.696 368.743 170.835 367.604 171.168 366.368H169.71C169.391 367.076 168.807 367.507 167.752 367.507ZM167.752 362.132C168.932 362.132 169.724 363.035 169.766 364.132H165.599C165.808 362.701 166.627 362.132 167.752 362.132ZM26.6884 376.243V375.09H21.7721V382.562H23.2164V376.243H26.6884ZM30.5194 381.507C29.339 381.507 28.4918 380.659 28.339 379.271H34.0331C34.1859 376.84 32.8387 374.951 30.5333 374.951C28.4085 374.951 26.853 376.493 26.853 378.812C26.853 380.979 28.1724 382.743 30.575 382.743C32.4638 382.743 33.6026 381.604 33.9359 380.368H32.4777C32.1582 381.076 31.5749 381.507 30.5194 381.507ZM30.5194 376.132C31.6999 376.132 32.4915 377.035 32.5332 378.132H28.3668C28.5751 376.701 29.3945 376.132 30.5194 376.132ZM41.8522 382.562V375.09H40.4078V378.16H36.7692V375.09H35.3248V382.562H36.7692V379.312H40.4078V382.562H41.8522ZM51.006 381.409H49.9366V375.09H44.6592L44.562 377.479C44.4508 380.312 44.0898 381.409 43.3259 381.409H42.9648V384.34H44.3259V382.562H49.645V384.34H51.006V381.409ZM48.4923 381.409H44.9925C45.5897 380.798 45.8119 379.646 45.9091 377.91L46.0063 376.243H48.4923V381.409ZM55.0936 381.507C53.9131 381.507 53.066 380.659 52.9132 379.271H58.6073C58.76 376.84 57.4129 374.951 55.1075 374.951C52.9826 374.951 51.4272 376.493 51.4272 378.812C51.4272 380.979 52.7465 382.743 55.1492 382.743C57.0379 382.743 58.1768 381.604 58.5101 380.368H57.0518C56.7324 381.076 56.1491 381.507 55.0936 381.507ZM55.0936 376.132C56.2741 376.132 57.0657 377.035 57.1074 378.132H52.941C53.1493 376.701 53.9687 376.132 55.0936 376.132ZM59.8295 375.09V384.992H61.2739V381.507C61.7322 382.284 62.496 382.743 63.6071 382.743C65.3431 382.743 66.8291 381.284 66.8291 378.84C66.8291 376.396 65.3431 374.951 63.6071 374.951C62.496 374.951 61.7322 375.41 61.2739 376.187V375.09H59.8295ZM61.2183 378.84C61.2183 376.993 62.1627 376.16 63.2738 376.16C64.482 376.16 65.2875 377.16 65.2875 378.84C65.2875 380.52 64.482 381.534 63.2738 381.534C62.1627 381.534 61.2183 380.687 61.2183 378.84ZM74.6539 382.562V375.09H73.2095V378.16H69.5709V375.09H68.1265V382.562H69.5709V379.312H73.2095V382.562H74.6539ZM77.4887 378.854C77.4887 376.965 78.5025 376.174 79.5858 376.174C80.6968 376.174 81.6967 377.007 81.6967 378.854C81.6967 380.673 80.6968 381.52 79.5858 381.52C78.5025 381.52 77.4887 380.687 77.4887 378.854ZM79.5858 374.951C77.822 374.951 75.961 376.146 75.961 378.854C75.961 381.548 77.822 382.743 79.5858 382.743C81.3634 382.743 83.2244 381.548 83.2244 378.854C83.2244 376.146 81.3634 374.951 79.5858 374.951ZM87.8605 374.174C89.4437 374.174 90.0131 373.382 90.1243 372.493H89.041C88.9854 372.979 88.6521 373.299 87.8744 373.299C87.0967 373.299 86.7911 372.979 86.7356 372.493H85.6384C85.7079 373.382 86.3328 374.174 87.8605 374.174ZM85.944 382.562L89.5965 377.173V382.562H91.0131V375.09H89.5965L85.944 380.493V375.09H84.5274V382.562H85.944ZM97.3538 382.562L101.006 377.173V382.562H102.423V375.09H101.006L97.3538 380.493V375.09H95.9372V382.562H97.3538ZM107.342 374.951C105.133 374.951 103.731 376.632 103.731 378.84C103.731 381.104 105.078 382.743 107.244 382.743C108.897 382.743 110.341 381.645 110.647 380.076H109.189C108.98 380.965 108.203 381.507 107.272 381.507C106.231 381.507 105.272 380.673 105.272 378.826C105.272 377.007 106.231 376.187 107.272 376.187C108.217 376.187 108.98 376.771 109.133 377.618H110.577C110.355 376.16 109.05 374.951 107.342 374.951ZM117.426 376.243V375.09H110.718V376.243H113.357V382.562H114.801V376.243H117.426ZM119.11 378.854C119.11 376.965 120.124 376.174 121.207 376.174C122.318 376.174 123.318 377.007 123.318 378.854C123.318 380.673 122.318 381.52 121.207 381.52C120.124 381.52 119.11 380.687 119.11 378.854ZM121.207 374.951C119.443 374.951 117.582 376.146 117.582 378.854C117.582 381.548 119.443 382.743 121.207 382.743C122.985 382.743 124.846 381.548 124.846 378.854C124.846 376.146 122.985 374.951 121.207 374.951ZM126.079 375.09V384.992H127.523V381.507C127.982 382.284 128.746 382.743 129.857 382.743C131.593 382.743 133.079 381.284 133.079 378.84C133.079 376.396 131.593 374.951 129.857 374.951C128.746 374.951 127.982 375.41 127.523 376.187V375.09H126.079ZM127.468 378.84C127.468 376.993 128.412 376.16 129.523 376.16C130.732 376.16 131.537 377.16 131.537 378.84C131.537 380.52 130.732 381.534 129.523 381.534C128.412 381.534 127.468 380.687 127.468 378.84ZM135.793 382.562L139.445 377.173V382.562H140.862V375.09H139.445L135.793 380.493V375.09H134.376V382.562H135.793ZM144.169 382.562L147.822 377.173V382.562H149.239V375.09H147.822L144.169 380.493V375.09H142.753V382.562H144.169ZM155.593 382.562L159.245 377.173V382.562H160.662V375.09H159.245L155.593 380.493V375.09H154.176V382.562H155.593ZM165.581 374.951C163.372 374.951 161.97 376.632 161.97 378.84C161.97 381.104 163.317 382.743 165.483 382.743C167.136 382.743 168.58 381.645 168.886 380.076H167.428C167.219 380.965 166.442 381.507 165.511 381.507C164.47 381.507 163.511 380.673 163.511 378.826C163.511 377.007 164.47 376.187 165.511 376.187C166.456 376.187 167.219 376.771 167.372 377.618H168.816C168.594 376.16 167.289 374.951 165.581 374.951ZM174.935 382.562H176.671L173.602 378.659L176.421 375.09H174.741L172.463 378.118H171.547V375.09H170.102V382.562H171.547V379.271H172.422L174.935 382.562ZM177.888 384.992C179.583 384.992 179.999 384.492 180.624 382.729L183.263 375.09H181.763L179.999 380.659L178.194 375.09H176.597L179.291 382.548L179.235 382.715C178.874 383.77 178.541 383.84 177.763 383.84H177.194V384.992H177.888ZM186.995 374.951C184.786 374.951 183.384 376.632 183.384 378.84C183.384 381.104 184.731 382.743 186.897 382.743C188.55 382.743 189.994 381.645 190.3 380.076H188.842C188.633 380.965 187.856 381.507 186.925 381.507C185.884 381.507 184.925 380.673 184.925 378.826C184.925 377.007 185.884 376.187 186.925 376.187C187.87 376.187 188.633 376.771 188.786 377.618H190.231C190.008 376.16 188.703 374.951 186.995 374.951ZM194.612 374.951C192.404 374.951 191.001 376.632 191.001 378.84C191.001 381.104 192.348 382.743 194.515 382.743C196.167 382.743 197.612 381.645 197.917 380.076H196.459C196.251 380.965 195.473 381.507 194.542 381.507C193.501 381.507 192.543 380.673 192.543 378.826C192.543 377.007 193.501 376.187 194.542 376.187C195.487 376.187 196.251 376.771 196.403 377.618H197.848C197.626 376.16 196.32 374.951 194.612 374.951ZM200.648 382.562V380.826H198.912V382.562H200.648ZM203.816 382.562V380.826H202.08V382.562H203.816ZM206.985 382.562V380.826H205.249V382.562H206.985Z" fill="#2F2F2F"/>
<g filter="url(#filter0_b_624_20902)">
<path d="M19.5742 46.1908C19.5742 41.0774 23.7195 36.9321 28.8329 36.9321H204.169C209.282 36.9321 213.428 41.0774 213.428 46.1908V56.0281C213.428 61.1416 209.282 65.2868 204.169 65.2868H28.8329C23.7195 65.2868 19.5742 61.1416 19.5742 56.0281V46.1908Z" fill="#747474" fill-opacity="0.3"/>
<rect x="21.3086" y="38.668" width="95.1907" height="24.8827" rx="8.10133" fill="#2F2F2F"/>
<path d="M30.0481 51.0911C30.0481 49.8273 30.7356 49.1468 31.6174 49.1468C32.4854 49.1468 33.1798 49.8273 33.1798 51.0911C33.1798 52.348 32.4854 53.0424 31.6174 53.0424C30.7356 53.0424 30.0481 52.348 30.0481 51.0911ZM33.9923 51.0911C33.9923 49.5565 33.0757 48.4871 31.6174 48.4871C30.1523 48.4871 29.2357 49.5565 29.2357 51.0911C29.2357 52.6258 30.1523 53.7021 31.6174 53.7021C33.0757 53.7021 33.9923 52.6258 33.9923 51.0911ZM37.7855 50.4523V49.8759H34.4315V50.4523H35.7509V53.6118H36.473V50.4523H37.7855ZM40.8248 53.6118H41.6928L40.1582 51.6606L41.5678 49.8759H40.7276L39.5888 51.3897H39.1305V49.8759H38.4083V53.6118H39.1305V51.9661H39.5679L40.8248 53.6118ZM45.3219 49.8759H42.7665L42.7109 51.0425C42.6345 52.4661 42.4193 53.0355 41.9749 53.0355H41.8985V53.6118H42.0304C42.9956 53.6118 43.3289 52.7299 43.4053 51.1536L43.44 50.4523H44.5997V53.6118H45.3219V49.8759ZM47.071 53.6118L48.8973 50.9175V53.6118H49.6056V49.8759H48.8973L47.071 52.5772V49.8759H46.3627V53.6118H47.071ZM53.0717 53.6118H53.9397L52.4051 51.6606L53.8148 49.8759H52.9745L51.8357 51.3897H51.3774V49.8759H50.6552V53.6118H51.3774V51.9661H51.8149L53.0717 53.6118ZM55.2356 53.6118L57.0619 50.9175V53.6118H57.7702V49.8759H57.0619L55.2356 52.5772V49.8759H54.5273V53.6118H55.2356ZM61.1557 53.6118L62.9819 50.9175V53.6118H63.6902V49.8759H62.9819L61.1557 52.5772V49.8759H60.4474V53.6118H61.1557ZM66.2537 49.8065C65.1496 49.8065 64.4482 50.6467 64.4482 51.7508C64.4482 52.8827 65.1218 53.7021 66.2051 53.7021C67.0314 53.7021 67.7536 53.1535 67.9064 52.3688H67.1772C67.0731 52.8133 66.6842 53.0841 66.219 53.0841C65.6982 53.0841 65.219 52.6674 65.219 51.7439C65.219 50.8342 65.6982 50.4245 66.219 50.4245C66.6912 50.4245 67.0731 50.7162 67.1495 51.1398H67.8716C67.7605 50.4106 67.1078 49.8065 66.2537 49.8065ZM71.8408 49.8759H68.6188V53.6118H69.3409V50.4523H71.1186V53.6118H71.8408V49.8759ZM73.3633 51.7578C73.3633 50.8134 73.8702 50.4176 74.4119 50.4176C74.9674 50.4176 75.4673 50.8342 75.4673 51.7578C75.4673 52.6674 74.9674 53.091 74.4119 53.091C73.8702 53.091 73.3633 52.6744 73.3633 51.7578ZM74.4119 49.8065C73.53 49.8065 72.5995 50.4037 72.5995 51.7578C72.5995 53.1049 73.53 53.7021 74.4119 53.7021C75.3007 53.7021 76.2312 53.1049 76.2312 51.7578C76.2312 50.4037 75.3007 49.8065 74.4119 49.8065ZM79.9062 49.8759H77.3509L77.2953 51.0425C77.2189 52.4661 77.0037 53.0355 76.5592 53.0355H76.4829V53.6118H76.6148C77.58 53.6118 77.9133 52.7299 77.9897 51.1536L78.0244 50.4523H79.1841V53.6118H79.9062V49.8759ZM84.2108 53.6118V49.8759H83.4886V51.4106H81.6693V49.8759H80.9471V53.6118H81.6693V51.9869H83.4886V53.6118H84.2108ZM85.9615 53.6118L87.7877 50.9175V53.6118H88.496V49.8759H87.7877L85.9615 52.5772V49.8759H85.2532V53.6118H85.9615ZM92.483 50.4523V49.8759H89.1291V50.4523H90.4484V53.6118H91.1706V50.4523H92.483ZM94.4915 53.0841C93.9012 53.0841 93.4776 52.6605 93.4013 51.9661H96.2483C96.3247 50.7509 95.6511 49.8065 94.4984 49.8065C93.436 49.8065 92.6582 50.5773 92.6582 51.7369C92.6582 52.8202 93.3179 53.7021 94.5192 53.7021C95.4636 53.7021 96.033 53.1327 96.1997 52.5147H95.4706C95.3109 52.8688 95.0192 53.0841 94.4915 53.0841ZM94.4915 50.3967C95.0817 50.3967 95.4775 50.8481 95.4983 51.3967H93.4151C93.5193 50.6814 93.929 50.3967 94.4915 50.3967ZM100.04 49.8759H97.4844L97.4288 51.0425C97.3524 52.4661 97.1372 53.0355 96.6928 53.0355H96.6164V53.6118H96.7483C97.7135 53.6118 98.0468 52.7299 98.1232 51.1536L98.1579 50.4523H99.3176V53.6118H100.04V49.8759ZM102.622 53.0841C102.032 53.0841 101.608 52.6605 101.532 51.9661H104.379C104.455 50.7509 103.782 49.8065 102.629 49.8065C101.567 49.8065 100.789 50.5773 100.789 51.7369C100.789 52.8202 101.449 53.7021 102.65 53.7021C103.594 53.7021 104.164 53.1327 104.33 52.5147H103.601C103.442 52.8688 103.15 53.0841 102.622 53.0841ZM102.622 50.3967C103.212 50.3967 103.608 50.8481 103.629 51.3967H101.546C101.65 50.6814 102.06 50.3967 102.622 50.3967ZM106.796 49.4176C107.587 49.4176 107.872 49.0218 107.927 48.5774H107.386C107.358 48.8205 107.191 48.9802 106.803 48.9802C106.414 48.9802 106.261 48.8205 106.233 48.5774H105.685C105.719 49.0218 106.032 49.4176 106.796 49.4176ZM105.837 53.6118L107.664 50.9175V53.6118H108.372V49.8759H107.664L105.837 52.5772V49.8759H105.129V53.6118H105.837Z" fill="#F0F1F2"/>
<path d="M145.533 53.1094L146.873 48.8735V53.1094H147.651V48.075H146.38L145.123 52.1858L143.866 48.075H142.595V53.1094H143.373V48.8735L144.713 53.1094H145.533ZM149.244 51.2553C149.244 50.3109 149.751 49.9151 150.292 49.9151C150.848 49.9151 151.348 50.3318 151.348 51.2553C151.348 52.165 150.848 52.5886 150.292 52.5886C149.751 52.5886 149.244 52.1719 149.244 51.2553ZM150.292 49.3041C149.411 49.3041 148.48 49.9012 148.48 51.2553C148.48 52.6025 149.411 53.1996 150.292 53.1996C151.181 53.1996 152.112 52.6025 152.112 51.2553C152.112 49.9012 151.181 49.3041 150.292 49.3041ZM153.576 53.1094L155.402 50.4151V53.1094H156.11V49.3735H155.402L153.576 52.0747V49.3735H152.867V53.1094H153.576ZM159.267 51.2553C159.267 50.3109 159.773 49.9151 160.315 49.9151C160.871 49.9151 161.371 50.3318 161.371 51.2553C161.371 52.165 160.871 52.5886 160.315 52.5886C159.773 52.5886 159.267 52.1719 159.267 51.2553ZM160.315 49.3041C159.433 49.3041 158.503 49.9012 158.503 51.2553C158.503 52.6025 159.433 53.1996 160.315 53.1996C161.204 53.1996 162.134 52.6025 162.134 51.2553C162.134 49.9012 161.204 49.3041 160.315 49.3041ZM165.671 49.9499V49.3735H162.317V49.9499H163.637V53.1094H164.359V49.9499H165.671ZM168.711 53.1094H169.579L168.044 51.1581L169.454 49.3735H168.614L167.475 50.8873H167.016V49.3735H166.294V53.1094H167.016V51.4636H167.454L168.711 53.1094ZM173.208 49.3735H170.652L170.597 50.5401C170.521 51.9636 170.305 52.533 169.861 52.533H169.784V53.1094H169.916C170.882 53.1094 171.215 52.2275 171.291 50.6512L171.326 49.9499H172.486V53.1094H173.208V49.3735ZM174.957 53.1094L176.783 50.4151V53.1094H177.492V49.3735H176.783L174.957 52.0747V49.3735H174.249V53.1094H174.957ZM180.958 53.1094H181.826L180.291 51.1581L181.701 49.3735H180.861L179.722 50.8873H179.263V49.3735H178.541V53.1094H179.263V51.4636H179.701L180.958 53.1094ZM183.122 53.1094L184.948 50.4151V53.1094H185.656V49.3735H184.948L183.122 52.0747V49.3735H182.413V53.1094H183.122Z" fill="#2F2F2F"/>
</g>
</g>
<rect x="4.19298" y="4.19298" width="224.614" height="478.649" rx="26.6491" stroke="#1C63EC" stroke-width="7.61404"/>
<defs>
<filter id="filter0_b_624_20902" x="7.42222" y="24.7801" width="218.156" height="52.6585" filterUnits="userSpaceOnUse" color-interpolation-filters="sRGB">
<feFlood flood-opacity="0" result="BackgroundImageFix"/>
<feGaussianBlur in="BackgroundImage" stdDeviation="6.076"/>
<feComposite in2="SourceAlpha" operator="in" result="effect1_backgroundBlur_624_20902"/>
<feBlend mode="normal" in="SourceGraphic" in2="effect1_backgroundBlur_624_20902" result="shape"/>
</filter>
<clipPath id="clip0_624_20902">
<rect x="8" y="8" width="217" height="471.035" rx="22.8421" fill="white"/>
</clipPath>
</defs>
</svg>
