<svg width="126" height="126" viewBox="0 0 126 126" fill="none" xmlns="http://www.w3.org/2000/svg">
<g clip-path="url(#clip0_624_20221)">
<path d="M60.5985 30.5099C60.5985 30.6754 60.6387 30.8086 60.6644 30.9848C61.0188 32.1068 61.9972 32.8234 63.1746 32.8234C64.354 32.8234 65.3522 32.048 65.6865 30.9795C65.7641 30.7314 65.806 30.4676 65.806 30.1939C65.806 30.1939 65.7621 28.7005 65.806 27.7452C66.1618 20 69.4522 14.4638 74.0323 9.67342C79.5236 3.92985 87.2642 0.352051 95.841 0.352051C112.497 0.352051 125.999 13.845 125.999 30.4894C125.999 39.912 121.672 48.3247 114.895 53.8511C110.216 57.6666 104.441 60.1063 98.0444 60.5526H96.1859C95.9731 60.5526 95.7662 60.5779 95.568 60.6255C94.4883 60.8852 93.6679 61.8101 93.5654 62.9421C93.4821 62.9427 93.3988 62.9431 93.3153 62.9431C93.3987 62.9431 93.482 62.9434 93.5652 62.9441C93.5582 63.0225 93.5546 63.1019 93.5546 63.1821C93.5546 64.4048 94.3896 65.4325 95.5208 65.7269C95.7333 65.7822 95.9561 65.8116 96.1859 65.8116C96.1859 65.8116 97.3783 65.7841 98.1416 65.8116C106.145 66.0999 111.924 69.4653 116.839 74.2306C122.489 79.7078 125.999 87.3755 125.999 95.8626C125.999 112.507 112.497 126 95.841 126C86.2184 126 77.6484 121.496 72.1265 114.484C68.6215 110.032 66.1164 105.272 65.806 98.6068C65.7617 97.6563 65.806 96.1703 65.806 96.1703C65.806 95.8965 65.7641 95.6324 65.6863 95.3842C65.3522 94.3171 64.3559 93.5424 63.1783 93.5408C63.1759 93.3818 63.1746 93.2224 63.1746 93.0627C63.1746 93.2224 63.1734 93.3818 63.1709 93.5408C61.9953 93.5424 61.0003 94.3145 60.6646 95.3789C60.5858 95.6287 60.5433 95.8945 60.5433 96.1703C60.5433 96.1703 60.5883 97.6681 60.5433 98.626C60.2306 105.281 57.7283 110.031 54.2306 114.476C48.7089 121.493 40.1361 126 30.51 126C13.8539 126 0.351562 112.507 0.351562 95.8626C0.351562 87.3794 3.85897 79.7149 9.50371 74.2382C14.4196 69.4686 20.2016 66.0998 28.2094 65.8116C28.972 65.7842 30.1634 65.8116 30.1634 65.8116C30.3931 65.8116 30.616 65.7822 30.8285 65.7269C31.9597 65.4325 32.7947 64.4047 32.7947 63.1821C32.7947 63.1019 32.7911 63.0225 32.7841 62.9441C32.8673 62.9434 32.9505 62.9431 33.0339 62.9431C32.9505 62.9431 32.8671 62.9427 32.7839 62.9421C32.6814 61.8101 31.861 60.8852 30.7813 60.6255C30.5831 60.5779 30.3762 60.5526 30.1634 60.5526C30.1634 60.5526 29.0751 60.5757 28.3784 60.5526C21.2695 60.3174 16.1279 57.6636 11.4474 53.8441C4.67525 48.3176 0.351562 39.9081 0.351562 30.4894C0.351562 13.845 13.8539 0.352051 30.51 0.352051C39.0903 0.352051 46.8338 3.93282 52.3256 9.68056C56.8976 14.4657 59.9089 20.7528 60.5433 27.726C60.6173 28.5397 60.5905 29.6788 60.5985 30.5099Z" fill="#005FF9"/>
</g>
<defs>
<clipPath id="clip0_624_20221">
<rect x="0.351562" y="0.352051" width="125.648" height="125.648" rx="30.8609" fill="white"/>
</clipPath>
</defs>
</svg>
