<svg width="233" height="487" viewBox="0 0 233 487" fill="none" xmlns="http://www.w3.org/2000/svg">
<g clip-path="url(#clip0_1485_28084)">
<mask id="mask0_1485_28084" style="mask-type:luminance" maskUnits="userSpaceOnUse" x="8" y="8" width="217" height="472">
<path d="M202.158 8H30.8421C18.2268 8 8 18.2268 8 30.8421V456.193C8 468.808 18.2268 479.035 30.8421 479.035H202.158C214.773 479.035 225 468.808 225 456.193V30.8421C225 18.2268 214.773 8 202.158 8Z" fill="white"/>
</mask>
<g mask="url(#mask0_1485_28084)">
<path d="M202.158 8H30.8421C18.2268 8 8 18.2268 8 30.8421V456.193C8 468.808 18.2268 479.035 30.8421 479.035H202.158C214.773 479.035 225 468.808 225 456.193V30.8421C225 18.2268 214.773 8 202.158 8Z" fill="#F0F1F2"/>
<path d="M225 8H8V33.4613H225V8Z" fill="#F0F1F2"/>
<path opacity="0.4" d="M204.744 18.416H212.846C213.256 18.416 213.546 18.4162 213.772 18.4347C213.996 18.453 214.132 18.4875 214.239 18.5421C214.457 18.6531 214.634 18.8301 214.745 19.0479C214.799 19.155 214.834 19.2914 214.852 19.5147C214.871 19.7414 214.871 20.0314 214.871 20.4413V21.888C214.871 22.2979 214.871 22.5879 214.852 22.8146C214.834 23.0379 214.799 23.1743 214.745 23.2814C214.634 23.4992 214.457 23.6762 214.239 23.7872C214.132 23.8418 213.996 23.8763 213.772 23.8946C213.546 23.9131 213.256 23.9133 212.846 23.9133H204.744C204.334 23.9133 204.044 23.9131 203.818 23.8946C203.594 23.8763 203.458 23.8418 203.351 23.7872C203.133 23.6762 202.956 23.4992 202.845 23.2814C202.791 23.1743 202.756 23.0379 202.738 22.8146C202.719 22.5879 202.719 22.2979 202.719 21.888V20.4413C202.719 20.0314 202.719 19.7414 202.738 19.5147C202.756 19.2914 202.791 19.155 202.845 19.0479C202.956 18.8301 203.133 18.6531 203.351 18.5421C203.458 18.4875 203.594 18.453 203.818 18.4347C204.044 18.4162 204.334 18.416 204.744 18.416Z" stroke="black" stroke-width="0.578667"/>
<path opacity="0.4" fill-rule="evenodd" clip-rule="evenodd" d="M215.738 22.3941C216.237 22.2656 216.606 21.8125 216.606 21.2732C216.606 20.7339 216.237 20.2808 215.738 20.1523V22.3941Z" fill="black"/>
<path d="M213.423 19.2842H204.165C203.845 19.2842 203.586 19.5433 203.586 19.8628V22.4668C203.586 22.7864 203.845 23.0455 204.165 23.0455H213.423C213.743 23.0455 214.002 22.7864 214.002 22.4668V19.8628C214.002 19.5433 213.743 19.2842 213.423 19.2842Z" fill="black"/>
<path fill-rule="evenodd" clip-rule="evenodd" d="M195.099 19.3461C196.381 19.3462 197.614 19.8389 198.544 20.7224C198.614 20.7906 198.725 20.7897 198.794 20.7205L199.463 20.0454C199.498 20.0102 199.518 19.9626 199.517 19.9131C199.517 19.8636 199.497 19.8162 199.462 19.7815C197.023 17.4439 193.175 17.4439 190.735 19.7815C190.7 19.8162 190.68 19.8635 190.68 19.9131C190.679 19.9626 190.699 20.0102 190.734 20.0454L191.403 20.7205C191.472 20.7899 191.584 20.7907 191.654 20.7224C192.583 19.8388 193.816 19.3461 195.099 19.3461ZM195.099 21.5425C195.804 21.5425 196.483 21.8043 197.005 22.2772C197.076 22.3443 197.187 22.3429 197.256 22.2739L197.924 21.5988C197.959 21.5634 197.979 21.5154 197.978 21.4655C197.978 21.4155 197.957 21.3679 197.922 21.3332C196.331 19.8539 193.868 19.8539 192.278 21.3332C192.242 21.3679 192.222 21.4156 192.221 21.4655C192.221 21.5154 192.24 21.5635 192.276 21.5988L192.944 22.2739C193.013 22.3429 193.124 22.3443 193.194 22.2772C193.716 21.8046 194.395 21.5428 195.099 21.5425ZM196.438 23.0205C196.439 23.0705 196.419 23.1188 196.383 23.1538L195.227 24.3202C195.194 24.3545 195.147 24.3738 195.099 24.3738C195.051 24.3738 195.005 24.3545 194.971 24.3202L193.815 23.1538C193.779 23.1187 193.76 23.0705 193.761 23.0204C193.762 22.9704 193.783 22.9229 193.821 22.8894C194.559 22.2651 195.64 22.2651 196.378 22.8894C196.415 22.923 196.437 22.9704 196.438 23.0205Z" fill="black"/>
<path fill-rule="evenodd" clip-rule="evenodd" d="M187.771 18.8013C187.771 18.4817 187.512 18.2227 187.192 18.2227H186.614C186.294 18.2227 186.035 18.4817 186.035 18.8013V23.8164C186.035 24.136 186.294 24.3951 186.614 24.3951H187.192C187.512 24.3951 187.771 24.136 187.771 23.8164V18.8013ZM183.912 19.573H184.491C184.811 19.573 185.07 19.8321 185.07 20.1516V23.8165C185.07 24.1361 184.811 24.3952 184.491 24.3952H183.912C183.593 24.3952 183.334 24.1361 183.334 23.8165V20.1516C183.334 19.8321 183.593 19.573 183.912 19.573ZM181.792 20.923H181.213C180.894 20.923 180.635 21.1821 180.635 21.5017V23.8163C180.635 24.1359 180.894 24.395 181.213 24.395H181.792C182.112 24.395 182.371 24.1359 182.371 23.8163V21.5017C182.371 21.1821 182.112 20.923 181.792 20.923ZM179.67 22.659C179.67 22.3394 179.411 22.0803 179.091 22.0803H178.512C178.193 22.0803 177.934 22.3394 177.934 22.659V23.8163C177.934 24.1359 178.193 24.395 178.512 24.395H179.091C179.411 24.395 179.67 24.1359 179.67 23.8163V22.659Z" fill="black"/>
<path d="M26.117 24.2928H27.2104V18.1769H26.1212L24.5234 19.3001V20.33L26.0449 19.2535H26.117V24.2928ZM28.7364 24.2928H32.9831V23.3858H30.2155V23.2968L31.4404 22.1101C32.5551 21.0378 32.8899 20.4868 32.8899 19.7917V19.779C32.8899 18.7491 32.0338 18.0244 30.8428 18.0244C29.5671 18.0244 28.6771 18.8212 28.6771 19.9613L28.6813 19.974L29.6985 19.9782L29.7027 19.9613C29.7027 19.3298 30.1393 18.9017 30.7877 18.9017C31.4235 18.9017 31.8091 19.3086 31.8091 19.8723V19.885C31.8091 20.3554 31.576 20.6648 30.7453 21.504L28.7364 23.5553V24.2928ZM34.81 20.33C35.1999 20.33 35.4839 20.0333 35.4839 19.6603C35.4839 19.2831 35.1999 18.9907 34.81 18.9907C34.4243 18.9907 34.1361 19.2831 34.1361 19.6603C34.1361 20.0333 34.4243 20.33 34.81 20.33ZM34.81 23.4748C35.1999 23.4748 35.4839 23.1824 35.4839 22.8051C35.4839 22.4279 35.1999 22.1355 34.81 22.1355C34.4243 22.1355 34.1361 22.4279 34.1361 22.8051C34.1361 23.1824 34.4243 23.4748 34.81 23.4748ZM39.5274 24.2928H40.5742V23.1188H41.3965V22.216H40.5742V18.1769H39.0273C38.1966 19.4399 37.3277 20.8471 36.5352 22.2245V23.1188H39.5274V24.2928ZM37.5524 22.2415V22.1779C38.1457 21.1395 38.8535 20.0079 39.4808 19.05H39.5443V22.2415H37.5524ZM44.6474 24.4157C46.0545 24.4157 47.0336 23.6867 47.0336 22.6399V22.6314C47.0336 21.8473 46.4656 21.2412 45.6476 21.0759V21.0505C46.347 20.864 46.8132 20.3512 46.8132 19.6942V19.6858C46.8132 18.7449 45.9147 18.054 44.6474 18.054C43.3802 18.054 42.4816 18.7449 42.4816 19.6858V19.6942C42.4816 20.3512 42.9479 20.864 43.6472 21.0505V21.0759C42.8334 21.2412 42.2613 21.8473 42.2613 22.6314V22.6399C42.2613 23.6867 43.2403 24.4157 44.6474 24.4157ZM44.6474 20.703C44.0074 20.703 43.5624 20.33 43.5624 19.796V19.7875C43.5624 19.2535 44.0074 18.8805 44.6474 18.8805C45.2874 18.8805 45.7324 19.2535 45.7324 19.7875V19.796C45.7324 20.33 45.2874 20.703 44.6474 20.703ZM44.6474 23.5807C43.9142 23.5807 43.3929 23.1569 43.3929 22.5678V22.5593C43.3929 21.966 43.9057 21.5379 44.6474 21.5379C45.3849 21.5379 45.9019 21.966 45.9019 22.5593V22.5678C45.9019 23.1569 45.3806 23.5807 44.6474 23.5807Z" fill="black"/>
<path fill-rule="evenodd" clip-rule="evenodd" d="M220.294 43.876H225V33.46H8V43.876H12.7062C13.2724 39.6297 16.9084 36.3541 21.3096 36.3541H211.691C216.092 36.3541 219.728 39.6297 220.294 43.876Z" fill="#F0F1F2"/>
<path opacity="0.07" fill-rule="evenodd" clip-rule="evenodd" d="M83.7271 21.839C86.4285 21.839 88.6183 19.6492 88.6183 16.9478C88.6183 14.2465 86.4285 12.0566 83.7271 12.0566C81.0258 12.0566 78.8359 14.2465 78.8359 16.9478C78.8359 19.6492 81.0258 21.839 83.7271 21.839Z" fill="white"/>
<path fill-rule="evenodd" clip-rule="evenodd" d="M12.6412 420.759C12.6333 420.951 12.6293 421.144 12.6293 421.338C12.6293 429.008 18.8472 435.226 26.5173 435.226H206.483C214.153 435.226 220.371 429.008 220.371 421.338C220.371 421.144 220.367 420.951 220.359 420.759H225V481.519H8V420.759H12.6412Z" fill="#F0F1F2"/>
<path d="M203.01 437.394H29.9885C22.9575 437.394 17.2578 443.093 17.2578 450.124C17.2578 457.155 22.9575 462.855 29.9885 462.855H203.01C210.041 462.855 215.741 457.155 215.741 450.124C215.741 443.093 210.041 437.394 203.01 437.394Z" fill="#F0F1F2"/>
<path fill-rule="evenodd" clip-rule="evenodd" d="M23.3363 455.909C23.3364 456.389 23.726 456.779 24.2066 456.779H35.7755C36.2561 456.779 36.6457 456.389 36.6457 455.909V444.34C36.6457 443.859 36.2561 443.47 35.7755 443.47H24.2061C23.7255 443.47 23.3359 443.859 23.3359 444.34L23.3363 455.909ZM26.3885 453.727H33.5993V453.168V452.609H26.3885V453.168V453.727ZM26.3885 450.68H33.5993V450.121V449.562H26.3885V450.121V450.68ZM26.3885 447.634H33.5993V447.075V446.516H26.3885V447.075V447.634Z" fill="#C9CACB"/>
<path d="M77.5775 443.759H68.9005C68.5801 443.759 68.3203 444.019 68.3203 444.339V456.478C68.3203 456.483 68.3258 456.485 68.3296 456.482L73.2355 452.731C73.2375 452.729 73.2404 452.729 73.2425 452.731L78.1483 456.482C78.1521 456.485 78.1576 456.483 78.1576 456.478V444.339C78.1576 444.019 77.8979 443.759 77.5775 443.759Z" fill="#C9CACB" stroke="#C9CACB" stroke-width="1.16034"/>
<path d="M109.265 450.142C109.265 446.137 112.512 442.89 116.517 442.89C120.523 442.89 123.77 446.137 123.77 450.142C123.77 454.147 120.523 457.394 116.517 457.394C112.512 457.394 109.265 454.147 109.265 450.142Z" fill="#C9CACB"/>
<path d="M116.006 454.463V450.532H112.075V449.574H116.006V445.821H117.03V449.574H120.961V450.532H117.03V454.463H116.006Z" fill="#F0F1F2"/>
<path fill-rule="evenodd" clip-rule="evenodd" d="M159.776 442.891C161.686 442.891 163.484 443.63 164.846 444.977C166.229 446.347 166.99 448.175 166.99 450.124C166.99 452.061 166.235 453.881 164.862 455.249C163.499 456.609 161.693 457.358 159.774 457.358H159.739C158.644 457.353 157.593 457.108 156.616 456.63C156.37 456.511 156.087 456.506 155.837 456.62C154.966 457.019 153.981 457.266 152.911 457.356C152.782 457.367 152.657 457.308 152.584 457.2C152.512 457.091 152.504 456.953 152.562 456.836L153.624 454.723C153.762 454.445 153.751 454.121 153.59 453.853C152.919 452.738 152.562 451.455 152.559 450.147C152.552 448.224 153.288 446.412 154.63 445.045C155.971 443.678 157.767 442.914 159.686 442.891H159.776ZM158.531 453.411L157.952 453.96L155.015 451.169L157.952 448.377L158.531 448.927L156.589 450.77H161.523C162.26 450.77 162.858 450.201 162.858 449.498C162.858 448.801 162.257 448.23 161.523 448.23H161.161V447.434H161.523C162.722 447.434 163.695 448.359 163.695 449.498C163.695 450.637 162.722 451.568 161.523 451.568H156.589L158.531 453.411Z" fill="#1C63EC"/>
<path d="M203.007 442.891C199.017 442.891 195.773 446.135 195.773 450.124C195.773 454.114 199.017 457.358 203.007 457.358C206.997 457.358 210.24 454.114 210.24 450.124C210.24 446.135 206.997 442.891 203.007 442.891ZM203.007 447.033C204.256 447.033 205.276 448.053 205.276 449.302C205.276 450.551 204.256 451.571 203.007 451.571C201.758 451.571 200.738 450.551 200.738 449.302C200.738 448.053 201.758 447.033 203.007 447.033ZM199.047 454.51V454.175C199.047 453.216 199.824 452.424 200.799 452.424H205.215C206.174 452.424 206.966 453.201 206.966 454.175V454.51C205.915 455.454 204.529 456.033 203.007 456.033C201.484 456.033 200.098 455.454 199.048 454.51H199.047Z" fill="#C9CACB"/>
<path d="M154.114 471.864H79.4662C78.6672 471.864 78.0195 472.512 78.0195 473.311C78.0195 474.11 78.6672 474.758 79.4662 474.758H154.114C154.913 474.758 155.561 474.11 155.561 473.311C155.561 472.512 154.913 471.864 154.114 471.864Z" fill="black"/>
<path d="M208.797 76.8604H24.2022C17.8104 76.8604 12.6289 82.0419 12.6289 88.4337V137.266C12.6289 143.658 17.8104 148.839 24.2022 148.839H208.797C215.188 148.839 220.37 143.658 220.37 137.266V88.4337C220.37 82.0419 215.188 76.8604 208.797 76.8604Z" fill="white"/>
<path d="M29.9891 103.479C35.1026 103.479 39.2478 99.334 39.2478 94.2206C39.2478 89.1072 35.1026 84.9619 29.9891 84.9619C24.8757 84.9619 20.7305 89.1072 20.7305 94.2206C20.7305 99.334 24.8757 103.479 29.9891 103.479Z" fill="#00C46C"/>
<path d="M28.8786 95.0775H30.2153C32.5577 95.0775 34.2 94.3773 34.2 92.1876C34.2 89.8961 32.5577 89.3105 30.2153 89.3105H27.2618V93.7408H26.1924V95.0775H27.2618V96.0196H26.1924V97.038H27.2618V98.5402H28.8786V97.038H31.7048V96.0196H28.8786V95.0775ZM28.8786 93.7408V90.66H30.279C31.5266 90.66 32.5323 90.9018 32.5323 92.1876C32.5323 93.4862 31.5266 93.7408 30.279 93.7408H28.8786Z" fill="white"/>
<path d="M50.8212 103.479C55.9346 103.479 60.0798 99.334 60.0798 94.2206C60.0798 89.1072 55.9346 84.9619 50.8212 84.9619C45.7077 84.9619 41.5625 89.1072 41.5625 94.2206C41.5625 99.334 45.7077 103.479 50.8212 103.479Z" fill="#18B2FB"/>
<path d="M50.8047 94.5763L57.1838 92.1671L50.722 90.1689L44.4531 92.1954L50.8047 94.5763Z" fill="white"/>
<path d="M47.0273 96.8368V93.65L50.8117 94.9905L54.5897 93.6436V96.8368H47.0273Z" fill="white"/>
<path d="M54.5897 96.8369C54.5897 96.9493 54.4919 97.0605 54.3018 97.1643C54.1118 97.268 53.8333 97.3623 53.4822 97.4418C53.1311 97.5212 52.7142 97.5842 52.2555 97.6272C51.7967 97.6702 51.3051 97.6923 50.8085 97.6923C50.312 97.6923 49.8203 97.6702 49.3615 97.6272C48.9028 97.5842 48.4859 97.5212 48.1348 97.4418C47.7837 97.3623 47.5052 97.268 47.3152 97.1643C47.1251 97.0605 47.0273 96.9493 47.0273 96.8369H50.8085H54.5897Z" fill="white"/>
<path d="M65.8564 93.6997C65.8564 92.4359 66.544 91.7554 67.4258 91.7554C68.2938 91.7554 68.9882 92.4359 68.9882 93.6997C68.9882 94.9566 68.2938 95.651 67.4258 95.651C66.544 95.651 65.8564 94.9566 65.8564 93.6997ZM69.8007 93.6997C69.8007 92.1651 68.8841 91.0957 67.4258 91.0957C65.9607 91.0957 65.0439 92.1651 65.0439 93.6997C65.0439 95.2344 65.9607 96.3107 67.4258 96.3107C68.8841 96.3107 69.8007 95.2344 69.8007 93.6997ZM73.9202 96.2204V92.4845H73.1979V94.0192H71.3786V92.4845H70.6564V96.2204H71.3786V94.5955H73.1979V96.2204H73.9202ZM78.0041 92.4845H75.4486L75.3932 93.6511C75.3168 95.0746 75.1015 95.6441 74.6571 95.6441H74.5807V96.2204H74.7125C75.6778 96.2204 76.0111 95.3385 76.0875 93.7622L76.1222 93.0609H77.2818V96.2204H78.0041V92.4845ZM81.3433 94.7136C81.3433 95.4566 80.8711 95.7552 80.2809 95.7552C79.8365 95.7552 79.5726 95.5399 79.5726 95.1996C79.5726 94.7205 80.1837 94.5538 81.3433 94.4427V94.7136ZM80.1212 96.3107C80.7322 96.3107 81.1489 96.1093 81.3711 95.7274C81.3919 95.9704 81.4058 96.0746 81.4336 96.2204H82.1281C82.0586 95.8871 82.0238 95.4357 82.0238 94.8733C82.0238 94.7136 82.0378 94.0678 82.0378 93.9775C82.0448 92.8595 81.4961 92.3943 80.5309 92.3943C79.6767 92.3943 79.0171 92.8665 78.9615 93.665H79.6907C79.7185 93.1998 80.0032 92.9498 80.5032 92.9498C80.9615 92.9498 81.3086 93.172 81.3086 93.8317V93.9081C79.8642 94.0539 78.7879 94.3039 78.7879 95.2135C78.7879 95.894 79.3643 96.3107 80.1212 96.3107ZM84.6311 92.0262C85.4227 92.0262 85.7073 91.6304 85.7628 91.186H85.2212C85.1934 91.429 85.0268 91.5888 84.6379 91.5888C84.249 91.5888 84.0964 91.429 84.0686 91.186H83.52C83.5547 91.6304 83.8672 92.0262 84.6311 92.0262ZM83.6727 96.2204L85.499 93.5261V96.2204H86.2074V92.4845H85.499L83.6727 95.1857V92.4845H82.9644V96.2204H83.6727ZM90.5138 96.2204V92.4845H89.7917V94.0192H87.9724V92.4845H87.2503V96.2204H87.9724V94.5955H89.7917V96.2204H90.5138Z" fill="#C9CACB"/>
<path d="M161.762 84.9619H153.391C148.278 84.9619 144.133 89.1072 144.133 94.2206C144.133 99.334 148.278 103.479 153.391 103.479H161.762C166.876 103.479 171.021 99.334 171.021 94.2206C171.021 89.1072 166.876 84.9619 161.762 84.9619Z" fill="#FCB22B"/>
<path d="M155.165 98.2212V95.9297H157.487V94.9297H155.165V92.6591H154.123V94.9297H151.79V95.9297H154.123V98.2212H155.165ZM161.13 90.5342C159.516 90.5342 158.443 91.5445 158.474 93.0549H159.578C159.578 91.8362 160.328 91.3987 161.099 91.3987C161.922 91.3987 162.422 91.8779 162.422 92.6382C162.422 93.9506 160.88 95.3047 158.287 97.2838V98.2212H163.755V97.2421H159.693C161.891 95.6901 163.557 94.1798 163.557 92.5237C163.557 91.2425 162.526 90.5342 161.13 90.5342Z" fill="#2F2F2F"/>
<path d="M203.011 84.9619H182.595C177.481 84.9619 173.336 89.1072 173.336 94.2206C173.336 99.334 177.481 103.479 182.595 103.479H203.011C208.124 103.479 212.269 99.334 212.269 94.2206C212.269 89.1072 208.124 84.9619 203.011 84.9619Z" fill="#F0F1F2"/>
<path fill-rule="evenodd" clip-rule="evenodd" d="M187.243 88.4336C188.772 88.4336 190.21 89.0248 191.299 90.1025C192.406 91.1983 193.015 92.661 193.015 94.2202C193.015 95.7692 192.411 97.2251 191.312 98.3199C190.222 99.408 188.777 100.007 187.242 100.007H187.214C186.338 100.003 185.497 99.8068 184.716 99.4247C184.519 99.3292 184.292 99.3253 184.092 99.417C183.396 99.7358 182.608 99.9333 181.751 100.006C181.648 100.015 181.548 99.9669 181.49 99.8803C181.432 99.7938 181.426 99.6828 181.472 99.5899L182.322 97.8989C182.433 97.6769 182.424 97.4175 182.295 97.2032C181.758 96.3114 181.472 95.2851 181.47 94.2383C181.464 92.6997 182.053 91.2501 183.127 90.1568C184.199 89.0635 185.636 88.4517 187.171 88.4336H187.243ZM186.248 96.849L185.785 97.2888L183.435 95.0555L185.785 92.8223L186.248 93.2621L184.694 94.7361H188.642C189.231 94.7361 189.71 94.2816 189.71 93.719C189.71 93.1613 189.229 92.7044 188.642 92.7044H188.352V92.0681H188.642C189.601 92.0681 190.379 92.8076 190.379 93.719C190.379 94.6305 189.601 95.3749 188.642 95.3749H184.694L186.248 96.849Z" fill="#2F2F2F"/>
<path d="M198.397 98.2212V90.6696H197.616C197.241 91.4821 196.658 91.6175 195.585 91.6487V92.3882H197.303V98.2212H198.397ZM202.129 97.4817C201.098 97.4817 200.577 96.815 200.463 95.9401H199.379C199.463 97.2317 200.358 98.3566 202.108 98.3566C203.577 98.3566 204.889 97.6171 204.889 96.0859C204.889 95.3151 204.535 94.5444 203.514 94.211C204.264 93.8881 204.691 93.2424 204.691 92.482C204.691 91.0654 203.494 90.5342 202.212 90.5342C200.588 90.5342 199.598 91.4716 199.483 92.857H200.567C200.681 91.982 201.202 91.3987 202.16 91.3987C202.921 91.3987 203.556 91.7841 203.556 92.5757C203.556 93.409 202.931 93.784 201.671 93.784H201.452V94.7318H201.712C202.879 94.7318 203.754 95.0652 203.754 96.1068C203.754 96.9817 203.077 97.4817 202.129 97.4817Z" fill="#2F2F2F"/>
<path d="M21.8419 114.669V124.738H23.4251V120.835H25.0778C27.5082 120.835 29.2998 120.28 29.2998 117.766C29.2998 115.127 27.411 114.669 25.0778 114.669H21.8419ZM25.1334 115.974C26.5083 115.974 27.661 116.141 27.661 117.78C27.661 119.335 26.5638 119.502 25.175 119.502H23.4251V115.974H25.1334ZM34.4071 121.724C34.4071 123.21 33.4627 123.807 32.2822 123.807C31.3934 123.807 30.8656 123.377 30.8656 122.696C30.8656 121.738 32.0878 121.405 34.4071 121.182V121.724ZM31.9628 124.918C33.1849 124.918 34.0182 124.516 34.4626 123.752C34.5043 124.238 34.5321 124.446 34.5876 124.738H35.9764C35.8375 124.071 35.7681 123.168 35.7681 122.044C35.7681 121.724 35.7959 120.433 35.7959 120.252C35.8098 118.016 34.7126 117.086 32.7822 117.086C31.074 117.086 29.7546 118.03 29.6435 119.627H31.1017C31.1573 118.697 31.7267 118.197 32.7266 118.197C33.6432 118.197 34.3376 118.641 34.3376 119.96V120.113C31.4489 120.405 29.2963 120.905 29.2963 122.724C29.2963 124.085 30.449 124.918 31.9628 124.918ZM41.7323 120.807C42.399 120.488 42.9128 119.933 42.9128 119.196C42.9128 118.072 41.8296 117.099 40.038 117.099C38.3715 117.099 37.0243 117.947 36.9132 119.599H38.3576C38.3576 118.655 39.2047 118.266 40.0241 118.266C40.8991 118.266 41.4546 118.572 41.4546 119.28C41.4546 120.002 40.8574 120.349 40.0241 120.349H38.8992V121.502H40.1075C41.1074 121.502 41.649 121.821 41.649 122.655C41.649 123.363 41.0379 123.752 39.9825 123.752C38.927 123.752 38.2603 123.307 38.2187 122.418H36.7743C36.8854 124.182 38.4409 124.918 40.0519 124.918C41.8157 124.918 43.0934 124.085 43.0934 122.585C43.0934 121.585 42.524 121.044 41.7323 120.807ZM44.3378 117.266V127.168H45.7821V123.682C46.2404 124.46 47.0043 124.918 48.1153 124.918C49.8513 124.918 51.3373 123.46 51.3373 121.016C51.3373 118.572 49.8513 117.127 48.1153 117.127C47.0043 117.127 46.2404 117.585 45.7821 118.363V117.266H44.3378ZM45.7266 121.016C45.7266 119.169 46.6709 118.335 47.782 118.335C48.9902 118.335 49.7957 119.335 49.7957 121.016C49.7957 122.696 48.9902 123.71 47.782 123.71C46.6709 123.71 45.7266 122.863 45.7266 121.016ZM57.2317 121.724C57.2317 123.21 56.2873 123.807 55.1068 123.807C54.218 123.807 53.6902 123.377 53.6902 122.696C53.6902 121.738 54.9124 121.405 57.2317 121.182V121.724ZM54.7874 124.918C56.0095 124.918 56.8428 124.516 57.2872 123.752C57.3289 124.238 57.3567 124.446 57.4122 124.738H58.801C58.6621 124.071 58.5927 123.168 58.5927 122.044C58.5927 121.724 58.6205 120.433 58.6205 120.252C58.6344 118.016 57.5372 117.086 55.6068 117.086C53.8986 117.086 52.5792 118.03 52.4681 119.627H53.9263C53.9819 118.697 54.5513 118.197 55.5512 118.197C56.4678 118.197 57.1622 118.641 57.1622 119.96V120.113C54.2735 120.405 52.1209 120.905 52.1209 122.724C52.1209 124.085 53.2736 124.918 54.7874 124.918ZM63.6959 117.697C62.6265 117.697 61.6266 118.169 61.1127 119.155C61.3349 117.308 62.2793 116.613 63.8903 116.322L66.3485 115.849V114.6L63.8209 115.044C60.9738 115.558 59.9184 117.28 59.8767 119.988V120.752C59.8767 123.543 61.4877 124.918 63.432 124.918C65.293 124.918 66.904 123.641 66.904 121.238C66.904 118.891 65.418 117.697 63.6959 117.697ZM63.4459 123.71C62.2377 123.71 61.3905 122.793 61.3905 121.252C61.3905 119.641 62.3488 118.905 63.4598 118.905C64.5292 118.905 65.3902 119.696 65.3902 121.266C65.3902 122.835 64.6125 123.71 63.4459 123.71ZM69.3293 121.03C69.3293 119.141 70.3431 118.349 71.4264 118.349C72.5375 118.349 73.5374 119.183 73.5374 121.03C73.5374 122.849 72.5375 123.696 71.4264 123.696C70.3431 123.696 69.3293 122.863 69.3293 121.03ZM71.4264 117.127C69.6626 117.127 67.8016 118.322 67.8016 121.03C67.8016 123.724 69.6626 124.918 71.4264 124.918C73.2041 124.918 75.0651 123.724 75.0651 121.03C75.0651 118.322 73.2041 117.127 71.4264 117.127ZM81.9307 118.419V117.266H75.2228V118.419H77.8615V124.738H79.3059V118.419H81.9307ZM88.6066 124.738V117.266H87.1623V120.627C86.5095 120.78 86.0373 120.863 85.5513 120.863C84.5097 120.863 84.0236 120.502 84.0236 119.46V117.266H82.5792V119.738C82.5792 121.363 83.4264 122.071 84.9957 122.071C85.6763 122.071 86.329 121.988 87.1623 121.78V124.738H88.6066ZM91.8934 124.738L95.546 119.349V124.738H96.9625V117.266H95.546L91.8934 122.668V117.266H90.4768V124.738H91.8934ZM103.686 124.738H105.422L102.353 120.835L105.172 117.266H103.492L101.214 120.294H100.298V117.266H98.8536V124.738H100.298V121.446H101.172L103.686 124.738ZM117.963 117.266H115.81L113.741 122.821L111.588 117.266H109.436V124.738H110.825V118.835L113.158 124.738H114.241L116.574 118.78V124.738H117.963V117.266ZM120.792 121.03C120.792 119.141 121.805 118.349 122.889 118.349C124 118.349 125 119.183 125 121.03C125 122.849 124 123.696 122.889 123.696C121.805 123.696 120.792 122.863 120.792 121.03ZM122.889 117.127C121.125 117.127 119.264 118.322 119.264 121.03C119.264 123.724 121.125 124.918 122.889 124.918C124.666 124.918 126.527 123.724 126.527 121.03C126.527 118.322 124.666 117.127 122.889 117.127ZM131.261 117.697C130.191 117.697 129.191 118.169 128.677 119.155C128.9 117.308 129.844 116.613 131.455 116.322L133.913 115.849V114.6L131.386 115.044C128.539 115.558 127.483 117.28 127.441 119.988V120.752C127.441 123.543 129.052 124.918 130.997 124.918C132.858 124.918 134.469 123.641 134.469 121.238C134.469 118.891 132.983 117.697 131.261 117.697ZM131.011 123.71C129.802 123.71 128.955 122.793 128.955 121.252C128.955 119.641 129.913 118.905 131.025 118.905C132.094 118.905 132.955 119.696 132.955 121.266C132.955 122.835 132.177 123.71 131.011 123.71ZM137.217 124.738L140.869 119.349V124.738H142.286V117.266H140.869L137.217 122.668V117.266H135.8V124.738H137.217ZM150.26 117.266H145.149L145.038 119.599C144.885 122.446 144.455 123.585 143.566 123.585H143.413V124.738H143.677C145.607 124.738 146.274 122.974 146.427 119.821L146.496 118.419H148.815V124.738H150.26V117.266ZM153.578 119.849V117.266H152.133V124.738H155.147C156.925 124.738 158.133 124.127 158.133 122.238C158.133 120.752 157.258 119.849 155.272 119.849H153.578ZM153.578 123.585V121.002H155.091C156.161 121.002 156.688 121.307 156.688 122.238C156.688 123.182 156.161 123.585 155.105 123.585H153.578ZM165.912 124.738V117.266H164.467V120.335H160.829V117.266H159.384V124.738H160.829V121.488H164.467V124.738H165.912ZM176.038 124.738V117.266H174.593V124.738H176.038ZM169.232 119.849V117.266H167.788V124.738H170.441C172.218 124.738 173.427 124.127 173.427 122.238C173.427 120.752 172.552 119.849 170.566 119.849H169.232ZM169.232 123.585V121.002H170.385C171.455 121.002 171.982 121.307 171.982 122.238C171.982 123.182 171.455 123.585 170.399 123.585H169.232ZM183.9 117.266H182.303L180.553 119.71L178.831 117.266H177.123L179.692 120.919L176.956 124.738H178.581L180.484 122.044L182.386 124.738H184.108L181.345 120.835L183.9 117.266ZM28.2165 131.266H21.7725V138.738H23.2168V132.419H26.7721V138.738H28.2165V131.266ZM30.0255 131.266V141.168H31.4699V137.682C31.9282 138.46 32.692 138.918 33.8031 138.918C35.5391 138.918 37.0251 137.46 37.0251 135.016C37.0251 132.572 35.5391 131.127 33.8031 131.127C32.692 131.127 31.9282 131.585 31.4699 132.363V131.266H30.0255ZM31.4143 135.016C31.4143 133.169 32.3587 132.335 33.4697 132.335C34.678 132.335 35.4835 133.335 35.4835 135.016C35.4835 136.696 34.678 137.71 33.4697 137.71C32.3587 137.71 31.4143 136.863 31.4143 135.016ZM39.7391 138.738L43.3916 133.349V138.738H44.8082V131.266H43.3916L39.7391 136.668V131.266H38.3225V138.738H39.7391ZM52.7822 131.266H47.6714L47.5603 133.599C47.4075 136.446 46.977 137.585 46.0882 137.585H45.9354V138.738H46.1993C48.1297 138.738 48.7963 136.974 48.9491 133.821L49.0186 132.419H51.3379V138.738H52.7822V131.266ZM55.6138 135.03C55.6138 133.141 56.6277 132.349 57.7109 132.349C58.822 132.349 59.8219 133.183 59.8219 135.03C59.8219 136.849 58.822 137.696 57.7109 137.696C56.6277 137.696 55.6138 136.863 55.6138 135.03ZM57.7109 131.127C55.9471 131.127 54.0862 132.322 54.0862 135.03C54.0862 137.724 55.9471 138.918 57.7109 138.918C59.4886 138.918 61.3496 137.724 61.3496 135.03C61.3496 132.322 59.4886 131.127 57.7109 131.127ZM63.2285 138.738L65.4506 135.446H66.3255V138.738H67.7699V135.446H68.6726L70.8947 138.738H72.6029L69.8669 134.794L72.3807 131.266H70.7141L68.6726 134.294H67.7699V131.266H66.3255V134.294H65.4089L63.3812 131.266H61.7286L64.2423 134.821L61.4925 138.738H63.2285ZM76.4316 137.682C75.2511 137.682 74.404 136.835 74.2512 135.446H79.9453C80.0981 133.016 78.7509 131.127 76.4455 131.127C74.3206 131.127 72.7652 132.669 72.7652 134.988C72.7652 137.155 74.0846 138.918 76.4872 138.918C78.3759 138.918 79.5148 137.78 79.8481 136.543H78.3898C78.0704 137.252 77.4871 137.682 76.4316 137.682ZM76.4316 132.308C77.6121 132.308 78.4037 133.21 78.4454 134.308H74.279C74.4873 132.877 75.3067 132.308 76.4316 132.308ZM87.7643 138.738V131.266H86.32V134.335H82.6813V131.266H81.237V138.738H82.6813V135.488H86.32V138.738H87.7643ZM91.0574 138.738L94.71 133.349V138.738H96.1265V131.266H94.71L91.0574 136.668V131.266H89.6408V138.738H91.0574ZM101.35 130.349C102.934 130.349 103.503 129.558 103.614 128.669H102.531C102.475 129.155 102.142 129.474 101.364 129.474C100.586 129.474 100.281 129.155 100.225 128.669H99.1286C99.1981 129.558 99.823 130.349 101.35 130.349ZM99.4342 138.738L103.086 133.349V138.738H104.503V131.266H103.086L99.4342 136.668V131.266H98.0176V138.738H99.4342ZM109.358 131.266V138.738H110.802V131.266H109.358ZM109.358 128.669V130.266H110.802V128.669H109.358ZM113.568 135.03C113.568 133.141 114.581 132.349 115.665 132.349C116.776 132.349 117.776 133.183 117.776 135.03C117.776 136.849 116.776 137.696 115.665 137.696C114.581 137.696 113.568 136.863 113.568 135.03ZM115.665 131.127C113.901 131.127 112.04 132.322 112.04 135.03C112.04 137.724 113.901 138.918 115.665 138.918C117.442 138.918 119.303 137.724 119.303 135.03C119.303 132.322 117.442 131.127 115.665 131.127ZM126.217 133.349C125.925 131.905 124.745 131.113 123.231 131.113C121.606 131.113 120.204 131.919 120.204 133.238C120.204 134.655 121.259 135.141 122.384 135.363L123.509 135.585C124.287 135.738 124.939 136.03 124.939 136.71C124.939 137.377 124.231 137.766 123.287 137.766C122.231 137.766 121.704 137.266 121.495 136.418H120.023C120.204 137.821 121.342 138.918 123.245 138.918C124.967 138.918 126.384 138.057 126.384 136.543C126.384 135.071 125.134 134.613 123.731 134.321L122.662 134.113C121.981 133.96 121.62 133.738 121.62 133.183C121.62 132.572 122.384 132.28 123.092 132.28C123.939 132.28 124.578 132.572 124.787 133.349H126.217Z" fill="#2F2F2F"/>
<path d="M208.797 153.468H24.2022C17.8104 153.468 12.6289 158.649 12.6289 165.041V213.873C12.6289 220.265 17.8104 225.446 24.2022 225.446H208.797C215.188 225.446 220.37 220.265 220.37 213.873V165.041C220.37 158.649 215.188 153.468 208.797 153.468Z" fill="white"/>
<path d="M29.9891 180.087C35.1026 180.087 39.2478 175.941 39.2478 170.828C39.2478 165.715 35.1026 161.569 29.9891 161.569C24.8757 161.569 20.7305 165.715 20.7305 170.828C20.7305 175.941 24.8757 180.087 29.9891 180.087Z" fill="#00C46C"/>
<path d="M28.8786 171.686H30.2153C32.5577 171.686 34.2 170.986 34.2 168.796C34.2 166.504 32.5577 165.919 30.2153 165.919H27.2618V170.349H26.1924V171.686H27.2618V172.628H26.1924V173.646H27.2618V175.148H28.8786V173.646H31.7048V172.628H28.8786V171.686ZM28.8786 170.349V167.268H30.279C31.5266 167.268 32.5323 167.51 32.5323 168.796C32.5323 170.094 31.5266 170.349 30.279 170.349H28.8786Z" fill="white"/>
<path d="M45.0244 170.308C45.0244 169.044 45.7118 168.364 46.5937 168.364C47.4617 168.364 48.1561 169.044 48.1561 170.308C48.1561 171.565 47.4617 172.259 46.5937 172.259C45.7118 172.259 45.0244 171.565 45.0244 170.308ZM48.9686 170.308C48.9686 168.773 48.052 167.704 46.5937 167.704C45.1285 167.704 44.2119 168.773 44.2119 170.308C44.2119 171.843 45.1285 172.919 46.5937 172.919C48.052 172.919 48.9686 171.843 48.9686 170.308ZM53.0881 172.829V169.093H52.3659V170.627H50.5466V169.093H49.8244V172.829H50.5466V171.204H52.3659V172.829H53.0881ZM57.172 169.093H54.6166L54.561 170.259C54.4846 171.683 54.2694 172.252 53.825 172.252H53.7486V172.829H53.8805C54.8457 172.829 55.179 171.947 55.2554 170.37L55.2901 169.669H56.4498V172.829H57.172V169.093ZM60.5113 171.322C60.5113 172.065 60.0391 172.363 59.4488 172.363C59.0044 172.363 58.7406 172.148 58.7406 171.808C58.7406 171.329 59.3516 171.162 60.5113 171.051V171.322ZM59.2891 172.919C59.9002 172.919 60.3168 172.718 60.5391 172.336C60.5599 172.579 60.5738 172.683 60.6015 172.829H61.2959C61.2265 172.495 61.1918 172.044 61.1918 171.481C61.1918 171.322 61.2057 170.676 61.2057 170.586C61.2126 169.468 60.664 169.002 59.6988 169.002C58.8447 169.002 58.185 169.475 58.1295 170.273H58.8586C58.8864 169.808 59.1711 169.558 59.6711 169.558C60.1294 169.558 60.4766 169.78 60.4766 170.44V170.516C59.0322 170.662 57.9559 170.912 57.9559 171.822C57.9559 172.502 58.5322 172.919 59.2891 172.919ZM63.7989 168.634C64.5906 168.634 64.8753 168.239 64.9308 167.794H64.3892C64.3614 168.037 64.1947 168.197 63.8059 168.197C63.417 168.197 63.2642 168.037 63.2365 167.794H62.6879C62.7226 168.239 63.0351 168.634 63.7989 168.634ZM62.8407 172.829L64.6669 170.134V172.829H65.3752V169.093H64.6669L62.8407 171.794V169.093H62.1324V172.829H62.8407ZM69.6818 172.829V169.093H68.9596V170.627H67.1403V169.093H66.4181V172.829H67.1403V171.204H68.9596V172.829H69.6818Z" fill="#C9CACB"/>
<path d="M203.011 161.57H185.595C180.481 161.57 176.336 165.716 176.336 170.829C176.336 175.942 180.481 180.088 185.595 180.088H203.011C208.124 180.088 212.269 175.942 212.269 170.829C212.269 165.716 208.124 161.57 203.011 161.57Z" fill="#F0F1F2"/>
<path fill-rule="evenodd" clip-rule="evenodd" d="M190.243 165.042C191.772 165.042 193.21 165.633 194.299 166.71C195.406 167.806 196.015 169.269 196.015 170.828C196.015 172.377 195.411 173.833 194.312 174.928C193.222 176.016 191.777 176.615 190.242 176.615H190.214C189.338 176.611 188.497 176.415 187.716 176.033C187.519 175.937 187.292 175.933 187.092 176.025C186.396 176.344 185.608 176.541 184.751 176.613C184.648 176.622 184.548 176.575 184.49 176.488C184.432 176.402 184.426 176.291 184.472 176.198L185.322 174.507C185.433 174.285 185.424 174.025 185.295 173.811C184.758 172.919 184.472 171.893 184.47 170.846C184.464 169.308 185.053 167.858 186.127 166.765C187.199 165.671 188.636 165.06 190.171 165.042H190.243ZM189.248 173.457L188.785 173.897L186.435 171.663L188.785 169.43L189.248 169.87L187.694 171.344H191.642C192.231 171.344 192.71 170.89 192.71 170.327C192.71 169.769 192.229 169.312 191.642 169.312H191.352V168.676H191.642C192.601 168.676 193.379 169.415 193.379 170.327C193.379 171.238 192.601 171.983 191.642 171.983H187.694L189.248 173.457Z" fill="#2F2F2F"/>
<path d="M202.719 168.725V172.027H200.178L202.719 168.725ZM205.167 172.027H203.813V167.277H202.719L198.98 172.048V173.006H202.719V174.829H203.813V173.006H205.167V172.027Z" fill="#2F2F2F"/>
<path d="M28.8276 198.068C28.5081 199.401 27.5499 200.207 26.05 200.207C24.314 200.207 23.0224 198.776 23.0224 196.29C23.0224 193.777 24.3279 192.416 26.0361 192.416C27.5221 192.416 28.4665 193.235 28.7859 194.554H30.3136C29.9108 192.346 28.2582 191.096 26.1055 191.096C23.2168 191.096 21.3975 193.138 21.3975 196.29C21.3975 199.387 23.0918 201.526 26.0083 201.526C28.2582 201.526 29.9108 200.29 30.3553 198.068H28.8276ZM31.6411 193.874V201.346H35.2242C36.863 201.346 38.0851 200.721 38.0851 199.138C38.0851 198.138 37.5296 197.624 36.7658 197.402C37.4185 197.11 37.7796 196.568 37.7796 195.791C37.7796 194.263 36.5436 193.874 35.0159 193.874H31.6411ZM33.0854 196.971V195.027H34.877C35.7519 195.027 36.3075 195.207 36.3075 195.971C36.3075 196.749 35.7797 196.971 34.9048 196.971H33.0854ZM33.0854 198.068H34.9881C36.0575 198.068 36.5991 198.332 36.5991 199.11C36.5991 199.887 36.0714 200.193 35.0159 200.193H33.0854V198.068ZM42.4907 200.29C41.3102 200.29 40.463 199.443 40.3102 198.054H46.0043C46.1571 195.624 44.8099 193.735 42.5045 193.735C40.3797 193.735 38.8242 195.277 38.8242 197.596C38.8242 199.762 40.1436 201.526 42.5462 201.526C44.435 201.526 45.5738 200.387 45.9071 199.151H44.4489C44.1294 199.86 43.5461 200.29 42.4907 200.29ZM42.4907 194.916C43.6711 194.916 44.4627 195.818 44.5044 196.915H40.338C40.5463 195.485 41.3657 194.916 42.4907 194.916ZM47.2266 193.874V203.776H48.6709V200.29C49.1292 201.068 49.8931 201.526 51.0041 201.526C52.7401 201.526 54.2261 200.068 54.2261 197.624C54.2261 195.179 52.7401 193.735 51.0041 193.735C49.8931 193.735 49.1292 194.193 48.6709 194.971V193.874H47.2266ZM48.6154 197.624C48.6154 195.777 49.5598 194.943 50.6708 194.943C51.879 194.943 52.6846 195.943 52.6846 197.624C52.6846 199.304 51.879 200.318 50.6708 200.318C49.5598 200.318 48.6154 199.471 48.6154 197.624ZM58.7139 193.735C56.5057 193.735 55.103 195.416 55.103 197.624C55.103 199.887 56.4502 201.526 58.6167 201.526C60.2694 201.526 61.7137 200.429 62.0192 198.86H60.561C60.3527 199.749 59.575 200.29 58.6445 200.29C57.6029 200.29 56.6446 199.457 56.6446 197.61C56.6446 195.791 57.6029 194.971 58.6445 194.971C59.5888 194.971 60.3527 195.554 60.5055 196.402H61.9498C61.7276 194.943 60.4221 193.735 58.7139 193.735ZM68.7984 195.027V193.874H62.0905V195.027H64.7292V201.346H66.1736V195.027H68.7984ZM74.0394 198.332C74.0394 199.818 73.095 200.415 71.9146 200.415C71.0257 200.415 70.498 199.985 70.498 199.304C70.498 198.346 71.7201 198.013 74.0394 197.79V198.332ZM71.5951 201.526C72.8173 201.526 73.6506 201.123 74.095 200.36C74.1366 200.846 74.1644 201.054 74.22 201.346H75.6088C75.4699 200.679 75.4004 199.776 75.4004 198.651C75.4004 198.332 75.4282 197.04 75.4282 196.86C75.4421 194.624 74.345 193.693 72.4145 193.693C70.7063 193.693 69.3869 194.638 69.2758 196.235H70.7341C70.7896 195.304 71.359 194.804 72.359 194.804C73.2756 194.804 73.97 195.249 73.97 196.568V196.721C71.0813 197.013 68.9286 197.513 68.9286 199.332C68.9286 200.693 70.0813 201.526 71.5951 201.526ZM82.6767 195.027V193.874H75.9688V195.027H78.6075V201.346H80.0518V195.027H82.6767ZM85.1584 196.457V193.874H83.714V201.346H86.7277C88.5054 201.346 89.7137 200.735 89.7137 198.846C89.7137 197.36 88.8387 196.457 86.8527 196.457H85.1584ZM85.1584 200.193V197.61H86.6722C87.7416 197.61 88.2693 197.915 88.2693 198.846C88.2693 199.79 87.7416 200.193 86.6861 200.193H85.1584ZM100.094 193.874H94.9839L94.8728 196.207C94.7201 199.054 94.2895 200.193 93.4007 200.193H93.2479V201.346H93.5118C95.4422 201.346 96.1089 199.582 96.2616 196.429L96.3311 195.027H98.6504V201.346H100.094V193.874ZM105.051 200.29C103.87 200.29 103.023 199.443 102.87 198.054H108.564C108.717 195.624 107.37 193.735 105.065 193.735C102.94 193.735 101.384 195.277 101.384 197.596C101.384 199.762 102.704 201.526 105.106 201.526C106.995 201.526 108.134 200.387 108.467 199.151H107.009C106.69 199.86 106.106 200.29 105.051 200.29ZM105.051 194.916C106.231 194.916 107.023 195.818 107.065 196.915H102.898C103.106 195.485 103.926 194.916 105.051 194.916ZM116.384 201.346V193.874H114.939V196.943H111.301V193.874H109.856V201.346H111.301V198.096H114.939V201.346H116.384ZM125.537 200.193H124.468V193.874H119.191L119.093 196.263C118.982 199.096 118.621 200.193 117.857 200.193H117.496V203.123H118.857V201.346H124.176V203.123H125.537V200.193ZM123.024 200.193H119.524C120.121 199.582 120.343 198.429 120.44 196.693L120.538 195.027H123.024V200.193ZM128.203 201.346L131.855 195.957V201.346H133.272V193.874H131.855L128.203 199.276V193.874H126.786V201.346H128.203ZM141.69 201.346V193.874H140.246V196.943H136.607V193.874H135.163V201.346H136.607V198.096H140.246V201.346H141.69ZM148.483 195.027V193.874H143.567V201.346H145.011V195.027H148.483ZM159.799 200.193H158.73V193.874H153.452L153.355 196.263C153.244 199.096 152.883 200.193 152.119 200.193H151.758V203.123H153.119V201.346H158.438V203.123H159.799V200.193ZM157.285 200.193H153.785C154.383 199.582 154.605 198.429 154.702 196.693L154.799 195.027H157.285V200.193ZM167.13 193.874H162.02L161.909 196.207C161.756 199.054 161.325 200.193 160.436 200.193H160.284V201.346H160.548C162.478 201.346 163.145 199.582 163.297 196.429L163.367 195.027H165.686V201.346H167.13V193.874ZM169.893 201.346L171.698 198.763H173.184V201.346H174.629V193.874H171.601C169.809 193.874 168.782 194.693 168.782 196.235C168.782 197.36 169.393 198.054 170.268 198.374L168.171 201.346H169.893ZM171.74 197.61C170.865 197.61 170.226 197.277 170.226 196.332C170.226 195.499 170.823 195.027 171.712 195.027H173.184V197.61H171.74ZM26.6055 215.346H28.3415L25.2722 211.443L28.0915 207.874H26.4111L24.1334 210.902H23.2168V207.874H21.7725V215.346H23.2168V212.054H24.0918L26.6055 215.346ZM30.0225 211.638C30.0225 209.749 31.0363 208.957 32.1196 208.957C33.2306 208.957 34.2305 209.791 34.2305 211.638C34.2305 213.457 33.2306 214.304 32.1196 214.304C31.0363 214.304 30.0225 213.471 30.0225 211.638ZM32.1196 207.735C30.3558 207.735 28.4948 208.929 28.4948 211.638C28.4948 214.332 30.3558 215.526 32.1196 215.526C33.8972 215.526 35.7582 214.332 35.7582 211.638C35.7582 208.929 33.8972 207.735 32.1196 207.735ZM45.5884 207.874H43.4358L41.3665 213.429L39.2138 207.874H37.0612V215.346H38.45V209.443L40.7832 215.346H41.8665L44.1996 209.388V215.346H45.5884V207.874ZM53.9028 207.874H47.4588V215.346H48.9031V209.027H52.4584V215.346H53.9028V207.874ZM60.3782 212.332C60.3782 213.818 59.4338 214.415 58.2533 214.415C57.3645 214.415 56.8367 213.985 56.8367 213.304C56.8367 212.346 58.0589 212.013 60.3782 211.79V212.332ZM57.9339 215.526C59.156 215.526 59.9893 215.123 60.4337 214.36C60.4754 214.846 60.5032 215.054 60.5587 215.346H61.9475C61.8086 214.679 61.7392 213.776 61.7392 212.651C61.7392 212.332 61.767 211.04 61.767 210.86C61.7809 208.624 60.6837 207.693 58.7533 207.693C57.0451 207.693 55.7257 208.638 55.6146 210.235H57.0728C57.1284 209.304 57.6978 208.804 58.6977 208.804C59.6143 208.804 60.3087 209.249 60.3087 210.568V210.721C57.42 211.013 55.2674 211.513 55.2674 213.332C55.2674 214.693 56.4201 215.526 57.9339 215.526ZM69.9394 215.346V207.874H68.4951V210.943H64.8564V207.874H63.4121V215.346H64.8564V212.096H68.4951V215.346H69.9394ZM73.2325 215.346L76.885 209.957V215.346H78.3016V207.874H76.885L73.2325 213.276V207.874H71.8159V215.346H73.2325ZM81.6092 215.346L85.2618 209.957V215.346H86.6784V207.874H85.2618L81.6092 213.276V207.874H80.1927V215.346H81.6092ZM98.0601 207.874H91.6161V215.346H93.0604V209.027H96.6158V215.346H98.0601V207.874ZM100.896 211.638C100.896 209.749 101.91 208.957 102.994 208.957C104.105 208.957 105.105 209.791 105.105 211.638C105.105 213.457 104.105 214.304 102.994 214.304C101.91 214.304 100.896 213.471 100.896 211.638ZM102.994 207.735C101.23 207.735 99.3692 208.929 99.3692 211.638C99.3692 214.332 101.23 215.526 102.994 215.526C104.771 215.526 106.632 214.332 106.632 211.638C106.632 208.929 104.771 207.735 102.994 207.735ZM114.968 214.193H113.899V207.874H108.622L108.524 210.263C108.413 213.096 108.052 214.193 107.288 214.193H106.927V217.123H108.288V215.346H113.607V217.123H114.968V214.193ZM112.455 214.193H108.955C109.552 213.582 109.774 212.429 109.871 210.693L109.969 209.027H112.455V214.193ZM127.541 215.346V205.277H125.985V213.596L121.541 205.277H119.333V215.346H120.889V207.013L125.333 215.346H127.541ZM136.221 210.304C136.221 213.624 134.248 214.04 132.235 214.04H131.138V206.582H132.235C134.248 206.582 136.221 207.013 136.221 210.304ZM129.554 205.277V215.346H132.304C135.498 215.346 137.859 214.193 137.859 210.304C137.859 206.43 135.498 205.277 132.304 205.277H129.554ZM137.932 215.346H139.543L140.321 213.138H144.696L145.487 215.346H147.209L143.418 205.277H141.668L137.932 215.346ZM142.487 206.999L144.21 211.804H140.793L142.487 206.999Z" fill="#2F2F2F"/>
<path d="M208.797 230.076H24.2022C17.8104 230.076 12.6289 235.258 12.6289 241.649V290.482C12.6289 296.873 17.8104 302.055 24.2022 302.055H208.797C215.188 302.055 220.37 296.873 220.37 290.482V241.649C220.37 235.258 215.188 230.076 208.797 230.076Z" fill="white"/>
<path d="M29.9891 256.695C35.1026 256.695 39.2478 252.55 39.2478 247.436C39.2478 242.323 35.1026 238.178 29.9891 238.178C24.8757 238.178 20.7305 242.323 20.7305 247.436C20.7305 252.55 24.8757 256.695 29.9891 256.695Z" fill="#00C46C"/>
<path d="M28.8786 248.294H30.2153C32.5577 248.294 34.2 247.593 34.2 245.404C34.2 243.112 32.5577 242.527 30.2153 242.527H27.2618V246.957H26.1924V248.294H27.2618V249.236H26.1924V250.254H27.2618V251.756H28.8786V250.254H31.7048V249.236H28.8786V248.294ZM28.8786 246.957V243.876H30.279C31.5266 243.876 32.5323 244.118 32.5323 245.404C32.5323 246.702 31.5266 246.957 30.279 246.957H28.8786Z" fill="white"/>
<path d="M45.0244 246.916C45.0244 245.652 45.7118 244.972 46.5937 244.972C47.4617 244.972 48.1561 245.652 48.1561 246.916C48.1561 248.173 47.4617 248.867 46.5937 248.867C45.7118 248.867 45.0244 248.173 45.0244 246.916ZM48.9686 246.916C48.9686 245.381 48.052 244.312 46.5937 244.312C45.1285 244.312 44.2119 245.381 44.2119 246.916C44.2119 248.45 45.1285 249.527 46.5937 249.527C48.052 249.527 48.9686 248.45 48.9686 246.916ZM53.0881 249.437V245.701H52.3659V247.235H50.5466V245.701H49.8244V249.437H50.5466V247.812H52.3659V249.437H53.0881ZM57.172 245.701H54.6166L54.561 246.867C54.4846 248.291 54.2694 248.86 53.825 248.86H53.7486V249.437H53.8805C54.8457 249.437 55.179 248.555 55.2554 246.978L55.2901 246.277H56.4498V249.437H57.172V245.701ZM60.5113 247.93C60.5113 248.673 60.0391 248.971 59.4488 248.971C59.0044 248.971 58.7406 248.756 58.7406 248.416C58.7406 247.937 59.3516 247.77 60.5113 247.659V247.93ZM59.2891 249.527C59.9002 249.527 60.3168 249.325 60.5391 248.943C60.5599 249.187 60.5738 249.291 60.6015 249.437H61.2959C61.2265 249.103 61.1918 248.652 61.1918 248.089C61.1918 247.93 61.2057 247.284 61.2057 247.194C61.2126 246.076 60.664 245.61 59.6988 245.61C58.8447 245.61 58.185 246.083 58.1295 246.881H58.8586C58.8864 246.416 59.1711 246.166 59.6711 246.166C60.1294 246.166 60.4766 246.388 60.4766 247.048V247.124C59.0322 247.27 57.9559 247.52 57.9559 248.43C57.9559 249.11 58.5322 249.527 59.2891 249.527ZM63.7989 245.242C64.5906 245.242 64.8753 244.847 64.9308 244.402H64.3892C64.3614 244.645 64.1947 244.805 63.8059 244.805C63.417 244.805 63.2642 244.645 63.2365 244.402H62.6879C62.7226 244.847 63.0351 245.242 63.7989 245.242ZM62.8407 249.437L64.6669 246.742V249.437H65.3752V245.701H64.6669L62.8407 248.402V245.701H62.1324V249.437H62.8407ZM69.6818 249.437V245.701H68.9596V247.235H67.1403V245.701H66.4181V249.437H67.1403V247.812H68.9596V249.437H69.6818Z" fill="#C9CACB"/>
<path d="M203.011 238.178H182.595C177.481 238.178 173.336 242.323 173.336 247.436C173.336 252.55 177.481 256.695 182.595 256.695H203.011C208.124 256.695 212.269 252.55 212.269 247.436C212.269 242.323 208.124 238.178 203.011 238.178Z" fill="#F0F1F2"/>
<path fill-rule="evenodd" clip-rule="evenodd" d="M187.243 241.649C188.772 241.649 190.21 242.241 191.299 243.318C192.406 244.414 193.015 245.877 193.015 247.436C193.015 248.985 192.411 250.441 191.312 251.536C190.222 252.624 188.777 253.223 187.242 253.223H187.214C186.338 253.219 185.497 253.023 184.716 252.641C184.519 252.545 184.292 252.541 184.092 252.633C183.396 252.952 182.608 253.149 181.751 253.221C181.648 253.23 181.548 253.183 181.49 253.096C181.432 253.01 181.426 252.899 181.472 252.806L182.322 251.115C182.433 250.893 182.424 250.633 182.295 250.419C181.758 249.527 181.472 248.501 181.47 247.454C181.464 245.916 182.053 244.466 183.127 243.373C184.199 242.279 185.636 241.668 187.171 241.649H187.243ZM186.248 250.065L185.785 250.505L183.435 248.271L185.785 246.038L186.248 246.478L184.694 247.952H188.642C189.231 247.952 189.71 247.497 189.71 246.935C189.71 246.377 189.229 245.92 188.642 245.92H188.352V245.284H188.642C189.601 245.284 190.379 246.023 190.379 246.935C190.379 247.846 189.601 248.591 188.642 248.591H184.694L186.248 250.065Z" fill="#2F2F2F"/>
<path d="M198.509 251.437V243.885H197.728C197.353 244.697 196.769 244.833 195.697 244.864V245.604H197.415V251.437H198.509ZM202.376 243.75C200.762 243.75 199.689 244.76 199.72 246.27H200.824C200.824 245.052 201.574 244.614 202.345 244.614C203.168 244.614 203.668 245.093 203.668 245.854C203.668 247.166 202.126 248.52 199.533 250.499V251.437H205.001V250.457H200.939C203.137 248.905 204.803 247.395 204.803 245.739C204.803 244.458 203.772 243.75 202.376 243.75Z" fill="#2F2F2F"/>
<path d="M29.8823 277.954V267.885H21.9105V277.954H23.4938V269.232H28.299V277.954H29.8823ZM31.8285 270.482V280.384H33.2729V276.898C33.7312 277.676 34.495 278.134 35.6061 278.134C37.3421 278.134 38.8281 276.676 38.8281 274.232C38.8281 271.787 37.3421 270.343 35.6061 270.343C34.495 270.343 33.7312 270.801 33.2729 271.579V270.482H31.8285ZM33.2173 274.232C33.2173 272.385 34.1617 271.551 35.2728 271.551C36.481 271.551 37.2865 272.551 37.2865 274.232C37.2865 275.912 36.481 276.926 35.2728 276.926C34.1617 276.926 33.2173 276.079 33.2173 274.232ZM41.5421 277.954L45.1947 272.565V277.954H46.6112V270.482H45.1947L41.5421 275.884V270.482H40.1255V277.954H41.5421ZM55.7796 276.801H54.7102V270.482H49.4328L49.3356 272.871C49.2244 275.704 48.8634 276.801 48.0995 276.801H47.7384V279.731H49.0995V277.954H54.4186V279.731H55.7796V276.801ZM53.2659 276.801H49.7661C50.3633 276.19 50.5855 275.037 50.6827 273.301L50.7799 271.635H53.2659V276.801ZM57.2782 280.384C58.9725 280.384 59.3892 279.884 60.0141 278.12L62.6528 270.482H61.1529L59.3892 276.051L57.5837 270.482H55.9866L58.6809 277.94L58.6253 278.106C58.2642 279.162 57.9309 279.231 57.1532 279.231H56.5838V280.384H57.2782ZM72.0199 270.482H69.8672L67.7979 276.037L65.6453 270.482H63.4926V277.954H64.8814V272.051L67.2146 277.954H68.2979L70.6311 271.996V277.954H72.0199V270.482ZM78.4871 274.94C78.4871 276.426 77.5427 277.023 76.3623 277.023C75.4734 277.023 74.9457 276.593 74.9457 275.912C74.9457 274.954 76.1678 274.62 78.4871 274.398V274.94ZM76.0428 278.134C77.265 278.134 78.0983 277.731 78.5427 276.968C78.5843 277.454 78.6121 277.662 78.6677 277.954H80.0565C79.9176 277.287 79.8481 276.384 79.8481 275.259C79.8481 274.94 79.8759 273.648 79.8759 273.468C79.8898 271.232 78.7927 270.301 76.8622 270.301C75.154 270.301 73.8346 271.246 73.7235 272.843H75.1818C75.2373 271.912 75.8067 271.412 76.8067 271.412C77.7233 271.412 78.4177 271.857 78.4177 273.176V273.329C75.529 273.621 73.3763 274.121 73.3763 275.94C73.3763 277.301 74.529 278.134 76.0428 278.134ZM87.1244 271.635V270.482H80.4165V271.635H83.0552V277.954H84.4995V271.635H87.1244ZM89.6061 273.065V270.482H88.1617V277.954H91.1754C92.9531 277.954 94.1614 277.343 94.1614 275.454C94.1614 273.968 93.2864 273.065 91.3004 273.065H89.6061ZM89.6061 276.801V274.218H91.1199C92.1893 274.218 92.717 274.523 92.717 275.454C92.717 276.398 92.1893 276.801 91.1338 276.801H89.6061ZM103.057 274.94C103.057 276.426 102.112 277.023 100.932 277.023C100.043 277.023 99.515 276.593 99.515 275.912C99.515 274.954 100.738 274.62 103.057 274.398V274.94ZM100.613 278.134C101.835 278.134 102.668 277.731 103.112 276.968C103.154 277.454 103.182 277.662 103.237 277.954H104.626C104.487 277.287 104.418 276.384 104.418 275.259C104.418 274.94 104.446 273.648 104.446 273.468C104.459 271.232 103.362 270.301 101.432 270.301C99.7233 270.301 98.4039 271.246 98.2928 272.843H99.7511C99.8066 271.912 100.376 271.412 101.376 271.412C102.293 271.412 102.987 271.857 102.987 273.176V273.329C100.099 273.621 97.9456 274.121 97.9456 275.94C97.9456 277.301 99.0983 278.134 100.613 278.134ZM109.424 269.565C111.007 269.565 111.576 268.774 111.688 267.885H110.604C110.549 268.371 110.215 268.69 109.438 268.69C108.66 268.69 108.354 268.371 108.299 267.885H107.202C107.271 268.774 107.896 269.565 109.424 269.565ZM107.507 277.954L111.16 272.565V277.954H112.576V270.482H111.16L107.507 275.884V270.482H106.091V277.954H107.507ZM121.731 276.801H120.662V270.482H115.384L115.287 272.871C115.176 275.704 114.815 276.801 114.051 276.801H113.69V279.731H115.051V277.954H120.37V279.731H121.731V276.801ZM119.217 276.801H115.718C116.315 276.19 116.537 275.037 116.634 273.301L116.731 271.635H119.217V276.801ZM125.819 276.898C124.638 276.898 123.791 276.051 123.638 274.662H129.332C129.485 272.232 128.138 270.343 125.833 270.343C123.708 270.343 122.152 271.885 122.152 274.204C122.152 276.37 123.472 278.134 125.874 278.134C127.763 278.134 128.902 276.995 129.235 275.759H127.777C127.458 276.468 126.874 276.898 125.819 276.898ZM125.819 271.523C126.999 271.523 127.791 272.426 127.833 273.523H123.666C123.874 272.093 124.694 271.523 125.819 271.523ZM137.152 277.954V270.482H135.707V273.551H132.069V270.482H130.624V277.954H132.069V274.704H135.707V277.954H137.152ZM144.903 271.635V270.482H138.195V271.635H140.833V277.954H142.278V271.635H144.903ZM147.357 277.954L151.009 272.565V277.954H152.426V270.482H151.009L147.357 275.884V270.482H145.94V277.954H147.357ZM159.15 277.954H160.886L157.817 274.051L160.636 270.482H158.955L156.678 273.509H155.761V270.482H154.317V277.954H155.761V274.662H156.636L159.15 277.954ZM162.103 280.384C163.797 280.384 164.214 279.884 164.839 278.12L167.477 270.482H165.977L164.214 276.051L162.408 270.482H160.811L163.505 277.94L163.45 278.106C163.089 279.162 162.755 279.231 161.978 279.231H161.408V280.384H162.103ZM178.641 276.801H177.572V270.482H172.294L172.197 272.871C172.086 275.704 171.725 276.801 170.961 276.801H170.6V279.731H171.961V277.954H177.28V279.731H178.641V276.801ZM176.127 276.801H172.628C173.225 276.19 173.447 275.037 173.544 273.301L173.641 271.635H176.127V276.801ZM185.973 270.482H180.862L180.751 272.815C180.598 275.662 180.167 276.801 179.279 276.801H179.126V277.954H179.39C181.32 277.954 181.987 276.19 182.14 273.037L182.209 271.635H184.528V277.954H185.973V270.482ZM188.735 277.954L190.54 275.37H192.026V277.954H193.471V270.482H190.443C188.651 270.482 187.624 271.301 187.624 272.843C187.624 273.968 188.235 274.662 189.11 274.982L187.013 277.954H188.735ZM190.582 274.218C189.707 274.218 189.068 273.884 189.068 272.94C189.068 272.107 189.665 271.635 190.554 271.635H192.026V274.218H190.582ZM25.202 284.912C24.1326 284.912 23.1327 285.385 22.6188 286.371C22.841 284.524 23.7854 283.829 25.3964 283.537L27.8546 283.065V281.815L25.327 282.26C22.48 282.774 21.4245 284.496 21.3828 287.204V287.968C21.3828 290.759 22.9938 292.134 24.9381 292.134C26.7991 292.134 28.4101 290.856 28.4101 288.454C28.4101 286.107 26.9241 284.912 25.202 284.912ZM24.952 290.926C23.7438 290.926 22.8966 290.009 22.8966 288.468C22.8966 286.857 23.8549 286.121 24.9659 286.121C26.0353 286.121 26.8963 286.912 26.8963 288.482C26.8963 290.051 26.1186 290.926 24.952 290.926ZM29.6721 284.482V294.384H31.1164V290.898C31.5748 291.676 32.3386 292.134 33.4496 292.134C35.1856 292.134 36.6716 290.676 36.6716 288.232C36.6716 285.787 35.1856 284.343 33.4496 284.343C32.3386 284.343 31.5748 284.801 31.1164 285.579V284.482H29.6721ZM31.0609 288.232C31.0609 286.385 32.0053 285.551 33.1163 285.551C34.3246 285.551 35.1301 286.551 35.1301 288.232C35.1301 289.912 34.3246 290.926 33.1163 290.926C32.0053 290.926 31.0609 290.079 31.0609 288.232ZM41.215 290.898C40.0345 290.898 39.1873 290.051 39.0346 288.662H44.7286C44.8814 286.232 43.5343 284.343 41.2289 284.343C39.104 284.343 37.5485 285.885 37.5485 288.204C37.5485 290.37 38.8679 292.134 41.2705 292.134C43.1593 292.134 44.2981 290.995 44.6314 289.759H43.1732C42.8538 290.468 42.2705 290.898 41.215 290.898ZM41.215 285.523C42.3955 285.523 43.1871 286.426 43.2287 287.523H39.0623C39.2707 286.093 40.09 285.523 41.215 285.523ZM52.5477 291.954V284.482H51.1033V287.551H47.4647V284.482H46.0203V291.954H47.4647V288.704H51.1033V291.954H52.5477ZM61.7015 290.801H60.6321V284.482H55.3547L55.2575 286.871C55.1464 289.704 54.7853 290.801 54.0215 290.801H53.6604V293.731H55.0214V291.954H60.3405V293.731H61.7015V290.801ZM59.1878 290.801H55.688C56.2852 290.19 56.5074 289.037 56.6046 287.301L56.7018 285.635H59.1878V290.801ZM67.5471 288.94C67.5471 290.426 66.6027 291.023 65.4222 291.023C64.5334 291.023 64.0056 290.593 64.0056 289.912C64.0056 288.954 65.2278 288.62 67.5471 288.398V288.94ZM65.1028 292.134C66.3249 292.134 67.1582 291.731 67.6026 290.968C67.6443 291.454 67.6721 291.662 67.7276 291.954H69.1164C68.9775 291.287 68.9081 290.384 68.9081 289.259C68.9081 288.94 68.9359 287.648 68.9359 287.468C68.9497 285.232 67.8526 284.301 65.9222 284.301C64.2139 284.301 62.8946 285.246 62.7835 286.843H64.2417C64.2973 285.912 64.8667 285.412 65.8666 285.412C66.7832 285.412 67.4776 285.857 67.4776 287.176V287.329C64.5889 287.621 62.4363 288.121 62.4363 289.94C62.4363 291.301 63.589 292.134 65.1028 292.134ZM73.6276 284.482V291.954H77.2107C78.8495 291.954 80.0717 291.329 80.0717 289.745C80.0717 288.745 79.5161 288.232 78.7523 288.009C79.405 287.718 79.7661 287.176 79.7661 286.398C79.7661 284.871 78.5301 284.482 77.0024 284.482H73.6276ZM75.072 287.579V285.635H76.8635C77.7385 285.635 78.294 285.815 78.294 286.579C78.294 287.357 77.7662 287.579 76.8913 287.579H75.072ZM75.072 288.676H76.9746C78.044 288.676 78.5856 288.94 78.5856 289.718C78.5856 290.495 78.0579 290.801 77.0024 290.801H75.072V288.676ZM82.8106 291.954L86.4632 286.565V291.954H87.8797V284.482H86.4632L82.8106 289.884V284.482H81.394V291.954H82.8106ZM97.0481 290.801H95.9787V284.482H90.7013L90.6041 286.871C90.493 289.704 90.1319 290.801 89.368 290.801H89.007V293.731H90.368V291.954H95.6871V293.731H97.0481V290.801ZM94.5344 290.801H91.0346C91.6318 290.19 91.854 289.037 91.9512 287.301L92.0484 285.635H94.5344V290.801ZM101.136 290.898C99.9553 290.898 99.1081 290.051 98.9553 288.662H104.65C104.803 286.232 103.455 284.343 101.15 284.343C99.0248 284.343 97.4693 285.885 97.4693 288.204C97.4693 290.37 98.7887 292.134 101.192 292.134C103.08 292.134 104.219 290.995 104.553 289.759H103.094C102.775 290.468 102.192 290.898 101.136 290.898ZM101.136 285.523C102.317 285.523 103.108 286.426 103.15 287.523H98.9831C99.1914 286.093 100.011 285.523 101.136 285.523ZM106.968 288.246C106.968 286.357 107.981 285.565 109.065 285.565C110.176 285.565 111.176 286.398 111.176 288.246C111.176 290.065 110.176 290.912 109.065 290.912C107.981 290.912 106.968 290.079 106.968 288.246ZM109.065 284.343C107.301 284.343 105.44 285.537 105.44 288.246C105.44 290.94 107.301 292.134 109.065 292.134C110.842 292.134 112.703 290.94 112.703 288.246C112.703 285.537 110.842 284.343 109.065 284.343ZM118.298 288.023C118.964 287.704 119.478 287.148 119.478 286.412C119.478 285.287 118.395 284.315 116.603 284.315C114.937 284.315 113.59 285.162 113.479 286.815H114.923C114.923 285.871 115.77 285.482 116.589 285.482C117.464 285.482 118.02 285.787 118.02 286.496C118.02 287.218 117.423 287.565 116.589 287.565H115.465V288.718H116.673C117.673 288.718 118.214 289.037 118.214 289.87C118.214 290.579 117.603 290.968 116.548 290.968C115.492 290.968 114.826 290.523 114.784 289.634H113.34C113.451 291.398 115.006 292.134 116.617 292.134C118.381 292.134 119.659 291.301 119.659 289.801C119.659 288.801 119.089 288.259 118.298 288.023ZM120.973 284.482V291.954H124.556C126.194 291.954 127.417 291.329 127.417 289.745C127.417 288.745 126.861 288.232 126.097 288.009C126.75 287.718 127.111 287.176 127.111 286.398C127.111 284.871 125.875 284.482 124.347 284.482H120.973ZM122.417 287.579V285.635H124.208C125.083 285.635 125.639 285.815 125.639 286.579C125.639 287.357 125.111 287.579 124.236 287.579H122.417ZM122.417 288.676H124.32C125.389 288.676 125.931 288.94 125.931 289.718C125.931 290.495 125.403 290.801 124.347 290.801H122.417V288.676ZM129.697 288.246C129.697 286.357 130.711 285.565 131.794 285.565C132.905 285.565 133.905 286.398 133.905 288.246C133.905 290.065 132.905 290.912 131.794 290.912C130.711 290.912 129.697 290.079 129.697 288.246ZM131.794 284.343C130.031 284.343 128.17 285.537 128.17 288.246C128.17 290.94 130.031 292.134 131.794 292.134C133.572 292.134 135.433 290.94 135.433 288.246C135.433 285.537 133.572 284.343 131.794 284.343ZM143.263 291.954V284.482H141.819V287.551H138.18V284.482H136.736V291.954H138.18V288.704H141.819V291.954H143.263ZM149.973 291.954H151.709L148.64 288.051L151.459 284.482H149.778L147.501 287.509H146.584V284.482H145.14V291.954H146.584V288.662H147.459L149.973 291.954ZM153.39 288.246C153.39 286.357 154.404 285.565 155.487 285.565C156.598 285.565 157.598 286.398 157.598 288.246C157.598 290.065 156.598 290.912 155.487 290.912C154.404 290.912 153.39 290.079 153.39 288.246ZM155.487 284.343C153.723 284.343 151.862 285.537 151.862 288.246C151.862 290.94 153.723 292.134 155.487 292.134C157.265 292.134 159.126 290.94 159.126 288.246C159.126 285.537 157.265 284.343 155.487 284.343ZM160.429 284.482V291.954H164.012C165.65 291.954 166.873 291.329 166.873 289.745C166.873 288.745 166.317 288.232 165.553 288.009C166.206 287.718 166.567 287.176 166.567 286.398C166.567 284.871 165.331 284.482 163.803 284.482H160.429ZM161.873 287.579V285.635H163.664C164.539 285.635 165.095 285.815 165.095 286.579C165.095 287.357 164.567 287.579 163.692 287.579H161.873ZM161.873 288.676H163.776C164.845 288.676 165.387 288.94 165.387 289.718C165.387 290.495 164.859 290.801 163.803 290.801H161.873V288.676Z" fill="#2F2F2F"/>
<path d="M208.797 306.685H24.2022C17.8104 306.685 12.6289 311.866 12.6289 318.258V381.09C12.6289 387.482 17.8104 392.663 24.2022 392.663H208.797C215.188 392.663 220.37 387.482 220.37 381.09V318.258C220.37 311.866 215.188 306.685 208.797 306.685Z" fill="white"/>
<path d="M29.9891 333.303C35.1026 333.303 39.2478 329.158 39.2478 324.045C39.2478 318.931 35.1026 314.786 29.9891 314.786C24.8757 314.786 20.7305 318.931 20.7305 324.045C20.7305 329.158 24.8757 333.303 29.9891 333.303Z" fill="#FA4D22"/>
<path d="M33.8628 326.824L31.2207 324.182L33.8989 321.504L32.7459 320.351L30.0678 323.029L27.4498 320.411L26.2488 321.612L28.8669 324.23L26.1768 326.92L27.3297 328.073L30.0198 325.383L32.6619 328.025L33.8628 326.824Z" fill="white"/>
<path d="M50.8212 333.303C55.9346 333.303 60.0798 329.158 60.0798 324.045C60.0798 318.931 55.9346 314.786 50.8212 314.786C45.7077 314.786 41.5625 318.931 41.5625 324.045C41.5625 329.158 45.7077 333.303 50.8212 333.303Z" fill="#00C46C"/>
<path d="M49.7106 324.902H51.0473C53.3898 324.902 55.032 324.202 55.032 322.012C55.032 319.721 53.3898 319.135 51.0473 319.135H48.0938V323.565H47.0244V324.902H48.0938V325.844H47.0244V326.863H48.0938V328.365H49.7106V326.863H52.5368V325.844H49.7106V324.902ZM49.7106 323.565V320.484H51.111C52.3586 320.484 53.3643 320.726 53.3643 322.012C53.3643 323.311 52.3586 323.565 51.111 323.565H49.7106Z" fill="white"/>
<path d="M65.8564 323.524C65.8564 322.26 66.544 321.58 67.4258 321.58C68.2938 321.58 68.9882 322.26 68.9882 323.524C68.9882 324.781 68.2938 325.476 67.4258 325.476C66.544 325.476 65.8564 324.781 65.8564 323.524ZM69.8007 323.524C69.8007 321.99 68.8841 320.92 67.4258 320.92C65.9607 320.92 65.0439 321.99 65.0439 323.524C65.0439 325.059 65.9607 326.135 67.4258 326.135C68.8841 326.135 69.8007 325.059 69.8007 323.524ZM73.9202 326.045V322.309H73.1979V323.844H71.3786V322.309H70.6564V326.045H71.3786V324.42H73.1979V326.045H73.9202ZM78.0041 322.309H75.4486L75.3932 323.476C75.3168 324.899 75.1015 325.469 74.6571 325.469H74.5807V326.045H74.7125C75.6778 326.045 76.0111 325.163 76.0875 323.587L76.1222 322.885H77.2818V326.045H78.0041V322.309ZM81.3433 324.538C81.3433 325.281 80.8711 325.58 80.2809 325.58C79.8365 325.58 79.5726 325.364 79.5726 325.024C79.5726 324.545 80.1837 324.378 81.3433 324.267V324.538ZM80.1212 326.135C80.7322 326.135 81.1489 325.934 81.3711 325.552C81.3919 325.795 81.4058 325.899 81.4336 326.045H82.1281C82.0586 325.712 82.0238 325.26 82.0238 324.698C82.0238 324.538 82.0378 323.892 82.0378 323.802C82.0448 322.684 81.4961 322.219 80.5309 322.219C79.6767 322.219 79.0171 322.691 78.9615 323.49H79.6907C79.7185 323.024 80.0032 322.774 80.5032 322.774C80.9615 322.774 81.3086 322.997 81.3086 323.656V323.733C79.8642 323.878 78.7879 324.128 78.7879 325.038C78.7879 325.719 79.3643 326.135 80.1212 326.135ZM84.6311 321.851C85.4227 321.851 85.7073 321.455 85.7628 321.011H85.2212C85.1934 321.254 85.0268 321.413 84.6379 321.413C84.249 321.413 84.0964 321.254 84.0686 321.011H83.52C83.5547 321.455 83.8672 321.851 84.6311 321.851ZM83.6727 326.045L85.499 323.351V326.045H86.2074V322.309H85.499L83.6727 325.01V322.309H82.9644V326.045H83.6727ZM90.5138 326.045V322.309H89.7917V323.844H87.9724V322.309H87.2503V326.045H87.9724V324.42H89.7917V326.045H90.5138Z" fill="#C9CACB"/>
<path d="M203.011 314.786H179.595C174.481 314.786 170.336 318.931 170.336 324.045C170.336 329.158 174.481 333.303 179.595 333.303H203.011C208.124 333.303 212.269 329.158 212.269 324.045C212.269 318.931 208.124 314.786 203.011 314.786Z" fill="#F0F1F2"/>
<path fill-rule="evenodd" clip-rule="evenodd" d="M184.243 318.258C185.772 318.258 187.21 318.849 188.299 319.927C189.406 321.023 190.015 322.485 190.015 324.044C190.015 325.593 189.411 327.049 188.312 328.144C187.222 329.232 185.777 329.831 184.242 329.831H184.214C183.338 329.827 182.497 329.631 181.716 329.249C181.519 329.153 181.292 329.15 181.092 329.241C180.396 329.56 179.608 329.757 178.751 329.83C178.648 329.839 178.548 329.791 178.49 329.705C178.432 329.618 178.426 329.507 178.472 329.414L179.322 327.723C179.433 327.501 179.424 327.242 179.295 327.027C178.758 326.136 178.472 325.109 178.47 324.063C178.464 322.524 179.053 321.074 180.127 319.981C181.199 318.888 182.636 318.276 184.171 318.258H184.243ZM183.248 326.673L182.785 327.113L180.435 324.88L182.785 322.647L183.248 323.086L181.694 324.56H185.642C186.231 324.56 186.71 324.106 186.71 323.543C186.71 322.986 186.229 322.529 185.642 322.529H185.352V321.892H185.642C186.601 321.892 187.379 322.632 187.379 323.543C187.379 324.455 186.601 325.199 185.642 325.199H181.694L183.248 326.673Z" fill="#2F2F2F"/>
<path d="M196.213 327.305C195.182 327.305 194.661 326.639 194.546 325.764H193.463C193.546 327.055 194.442 328.18 196.192 328.18C197.661 328.18 198.973 327.441 198.973 325.91C198.973 325.139 198.619 324.368 197.598 324.035C198.348 323.712 198.775 323.066 198.775 322.306C198.775 320.889 197.577 320.358 196.296 320.358C194.671 320.358 193.682 321.295 193.567 322.681H194.65C194.765 321.806 195.286 321.222 196.244 321.222C197.004 321.222 197.64 321.608 197.64 322.399C197.64 323.233 197.015 323.608 195.754 323.608H195.536V324.556H195.796C196.963 324.556 197.838 324.889 197.838 325.93C197.838 326.805 197.161 327.305 196.213 327.305ZM202.376 320.358C200.762 320.358 199.689 321.368 199.72 322.879H200.824C200.824 321.66 201.574 321.222 202.345 321.222C203.168 321.222 203.668 321.702 203.668 322.462C203.668 323.774 202.126 325.128 199.533 327.107V328.045H205.001V327.066H200.939C203.137 325.514 204.803 324.004 204.803 322.347C204.803 321.066 203.772 320.358 202.376 320.358Z" fill="#2F2F2F"/>
<path d="M28.8276 351.284C28.5081 352.618 27.5499 353.423 26.05 353.423C24.314 353.423 23.0224 351.993 23.0224 349.507C23.0224 346.993 24.3279 345.632 26.0361 345.632C27.5221 345.632 28.4665 346.451 28.7859 347.771H30.3136C29.9108 345.563 28.2582 344.312 26.1055 344.312C23.2168 344.312 21.3975 346.354 21.3975 349.507C21.3975 352.604 23.0918 354.743 26.0083 354.743C28.2582 354.743 29.9108 353.507 30.3553 351.284H28.8276ZM31.6411 347.09V354.562H35.2242C36.863 354.562 38.0851 353.937 38.0851 352.354C38.0851 351.354 37.5296 350.84 36.7658 350.618C37.4185 350.326 37.7796 349.785 37.7796 349.007C37.7796 347.479 36.5436 347.09 35.0159 347.09H31.6411ZM33.0854 350.187V348.243H34.877C35.7519 348.243 36.3075 348.424 36.3075 349.187C36.3075 349.965 35.7797 350.187 34.9048 350.187H33.0854ZM33.0854 351.284H34.9881C36.0575 351.284 36.5991 351.548 36.5991 352.326C36.5991 353.104 36.0714 353.409 35.0159 353.409H33.0854V351.284ZM42.4907 353.507C41.3102 353.507 40.463 352.659 40.3102 351.271H46.0043C46.1571 348.84 44.8099 346.951 42.5045 346.951C40.3797 346.951 38.8242 348.493 38.8242 350.812C38.8242 352.979 40.1436 354.743 42.5462 354.743C44.435 354.743 45.5738 353.604 45.9071 352.368H44.4489C44.1294 353.076 43.5461 353.507 42.4907 353.507ZM42.4907 348.132C43.6711 348.132 44.4627 349.035 44.5044 350.132H40.338C40.5463 348.701 41.3657 348.132 42.4907 348.132ZM47.2266 347.09V356.992H48.6709V353.507C49.1292 354.284 49.8931 354.743 51.0041 354.743C52.7401 354.743 54.2261 353.284 54.2261 350.84C54.2261 348.396 52.7401 346.951 51.0041 346.951C49.8931 346.951 49.1292 347.41 48.6709 348.187V347.09H47.2266ZM48.6154 350.84C48.6154 348.993 49.5598 348.16 50.6708 348.16C51.879 348.16 52.6846 349.16 52.6846 350.84C52.6846 352.52 51.879 353.534 50.6708 353.534C49.5598 353.534 48.6154 352.687 48.6154 350.84ZM58.7139 346.951C56.5057 346.951 55.103 348.632 55.103 350.84C55.103 353.104 56.4502 354.743 58.6167 354.743C60.2694 354.743 61.7137 353.645 62.0192 352.076H60.561C60.3527 352.965 59.575 353.507 58.6445 353.507C57.6029 353.507 56.6446 352.673 56.6446 350.826C56.6446 349.007 57.6029 348.187 58.6445 348.187C59.5888 348.187 60.3527 348.771 60.5055 349.618H61.9498C61.7276 348.16 60.4221 346.951 58.7139 346.951ZM68.7984 348.243V347.09H62.0905V348.243H64.7292V354.562H66.1736V348.243H68.7984ZM74.0394 351.548C74.0394 353.034 73.095 353.632 71.9146 353.632C71.0257 353.632 70.498 353.201 70.498 352.52C70.498 351.562 71.7201 351.229 74.0394 351.007V351.548ZM71.5951 354.743C72.8173 354.743 73.6506 354.34 74.095 353.576C74.1366 354.062 74.1644 354.27 74.22 354.562H75.6088C75.4699 353.895 75.4004 352.993 75.4004 351.868C75.4004 351.548 75.4282 350.257 75.4282 350.076C75.4421 347.84 74.345 346.91 72.4145 346.91C70.7063 346.91 69.3869 347.854 69.2758 349.451H70.7341C70.7896 348.521 71.359 348.021 72.359 348.021C73.2756 348.021 73.97 348.465 73.97 349.785V349.937C71.0813 350.229 68.9286 350.729 68.9286 352.548C68.9286 353.909 70.0813 354.743 71.5951 354.743ZM82.6767 348.243V347.09H75.9688V348.243H78.6075V354.562H80.0518V348.243H82.6767ZM85.1584 349.673V347.09H83.714V354.562H86.7277C88.5054 354.562 89.7137 353.951 89.7137 352.062C89.7137 350.576 88.8387 349.673 86.8527 349.673H85.1584ZM85.1584 353.409V350.826H86.6722C87.7416 350.826 88.2693 351.132 88.2693 352.062C88.2693 353.007 87.7416 353.409 86.6861 353.409H85.1584ZM94.0118 347.09V354.562H97.5949C99.2337 354.562 100.455 353.937 100.455 352.354C100.455 351.354 99.9003 350.84 99.1364 350.618C99.7892 350.326 100.15 349.785 100.15 349.007C100.15 347.479 98.9142 347.09 97.3866 347.09H94.0118ZM95.4561 350.187V348.243H97.2477C98.1226 348.243 98.6781 348.424 98.6781 349.187C98.6781 349.965 98.1504 350.187 97.2755 350.187H95.4561ZM95.4561 351.284H97.3588C98.4282 351.284 98.9698 351.548 98.9698 352.326C98.9698 353.104 98.442 353.409 97.3866 353.409H95.4561V351.284ZM103.194 354.562L106.847 349.173V354.562H108.264V347.09H106.847L103.194 352.493V347.09H101.778V354.562H103.194ZM114.446 350.632C115.113 350.312 115.626 349.757 115.626 349.021C115.626 347.896 114.543 346.924 112.752 346.924C111.085 346.924 109.738 347.771 109.627 349.423H111.071C111.071 348.479 111.918 348.09 112.738 348.09C113.613 348.09 114.168 348.396 114.168 349.104C114.168 349.826 113.571 350.173 112.738 350.173H111.613V351.326H112.821C113.821 351.326 114.363 351.646 114.363 352.479C114.363 353.187 113.752 353.576 112.696 353.576C111.641 353.576 110.974 353.132 110.932 352.243H109.488C109.599 354.006 111.154 354.743 112.765 354.743C114.529 354.743 115.807 353.909 115.807 352.409C115.807 351.409 115.238 350.868 114.446 350.632ZM117.371 356.992C119.065 356.992 119.482 356.492 120.107 354.729L122.745 347.09H121.246L119.482 352.659L117.676 347.09H116.079L118.773 354.548L118.718 354.715C118.357 355.77 118.024 355.84 117.246 355.84H116.676V356.992H117.371ZM127.911 351.548C127.911 353.034 126.967 353.632 125.786 353.632C124.897 353.632 124.369 353.201 124.369 352.52C124.369 351.562 125.592 351.229 127.911 351.007V351.548ZM125.467 354.743C126.689 354.743 127.522 354.34 127.966 353.576C128.008 354.062 128.036 354.27 128.091 354.562H129.48C129.341 353.895 129.272 352.993 129.272 351.868C129.272 351.548 129.3 350.257 129.3 350.076C129.314 347.84 128.216 346.91 126.286 346.91C124.578 346.91 123.258 347.854 123.147 349.451H124.606C124.661 348.521 125.231 348.021 126.23 348.021C127.147 348.021 127.841 348.465 127.841 349.785V349.937C124.953 350.229 122.8 350.729 122.8 352.548C122.8 353.909 123.953 354.743 125.467 354.743ZM137.028 347.09H131.917L131.806 349.423C131.653 352.27 131.223 353.409 130.334 353.409H130.181V354.562H130.445C132.375 354.562 133.042 352.798 133.195 349.646L133.264 348.243H135.583V354.562H137.028V347.09ZM140.345 349.673V347.09H138.901V354.562H141.915C143.692 354.562 144.901 353.951 144.901 352.062C144.901 350.576 144.026 349.673 142.04 349.673H140.345ZM140.345 353.409V350.826H141.859C142.929 350.826 143.456 351.132 143.456 352.062C143.456 353.007 142.929 353.409 141.873 353.409H140.345ZM152.679 354.562V347.09H151.235V350.16H147.596V347.09H146.152V354.562H147.596V351.312H151.235V354.562H152.679ZM155.514 350.854C155.514 348.965 156.528 348.174 157.611 348.174C158.722 348.174 159.722 349.007 159.722 350.854C159.722 352.673 158.722 353.52 157.611 353.52C156.528 353.52 155.514 352.687 155.514 350.854ZM157.611 346.951C155.848 346.951 153.987 348.146 153.987 350.854C153.987 353.548 155.848 354.743 157.611 354.743C159.389 354.743 161.25 353.548 161.25 350.854C161.25 348.146 159.389 346.951 157.611 346.951ZM165.799 353.507C164.618 353.507 163.771 352.659 163.618 351.271H169.313C169.465 348.84 168.118 346.951 165.813 346.951C163.688 346.951 162.132 348.493 162.132 350.812C162.132 352.979 163.452 354.743 165.854 354.743C167.743 354.743 168.882 353.604 169.215 352.368H167.757C167.438 353.076 166.854 353.507 165.799 353.507ZM165.799 348.132C166.979 348.132 167.771 349.035 167.813 350.132H163.646C163.855 348.701 164.674 348.132 165.799 348.132ZM23.189 368.562L26.8416 363.173V368.562H28.2582V361.09H26.8416L23.189 366.493V361.09H21.7725V368.562H23.189ZM33.1768 360.951C30.9686 360.951 29.5659 362.632 29.5659 364.84C29.5659 367.104 30.9131 368.743 33.0796 368.743C34.7323 368.743 36.1766 367.645 36.4821 366.076H35.0239C34.8156 366.965 34.0379 367.507 33.1074 367.507C32.0658 367.507 31.1075 366.673 31.1075 364.826C31.1075 363.007 32.0658 362.187 33.1074 362.187C34.0517 362.187 34.8156 362.771 34.9683 363.618H36.4127C36.1905 362.16 34.885 360.951 33.1768 360.951ZM40.794 360.951C38.5858 360.951 37.1832 362.632 37.1832 364.84C37.1832 367.104 38.5303 368.743 40.6968 368.743C42.3495 368.743 43.7938 367.645 44.0994 366.076H42.6411C42.4328 366.965 41.6551 367.507 40.7246 367.507C39.683 367.507 38.7247 366.673 38.7247 364.826C38.7247 363.007 39.683 362.187 40.7246 362.187C41.669 362.187 42.4328 362.771 42.5856 363.618H44.0299C43.8077 362.16 42.5023 360.951 40.794 360.951ZM51.3988 361.09H46.288L46.1769 363.423C46.0242 366.27 45.5936 367.409 44.7048 367.409H44.552V368.562H44.8159C46.7463 368.562 47.413 366.798 47.5657 363.646L47.6352 362.243H49.9545V368.562H51.3988V361.09ZM56.3553 367.507C55.1748 367.507 54.3277 366.659 54.1749 365.271H59.869C60.0218 362.84 58.6746 360.951 56.3692 360.951C54.2444 360.951 52.6889 362.493 52.6889 364.812C52.6889 366.979 54.0083 368.743 56.4109 368.743C58.2996 368.743 59.4385 367.604 59.7718 366.368H58.3135C57.9941 367.076 57.4108 367.507 56.3553 367.507ZM56.3553 362.132C57.5358 362.132 58.3274 363.035 58.3691 364.132H54.2027C54.411 362.701 55.2304 362.132 56.3553 362.132ZM68.3024 367.409H67.233V361.09H61.9556L61.8583 363.479C61.7472 366.312 61.3861 367.409 60.6223 367.409H60.2612V370.34H61.6222V368.562H66.9413V370.34H68.3024V367.409ZM65.7886 367.409H62.2889C62.8861 366.798 63.1083 365.646 63.2055 363.91L63.3027 362.243H65.7886V367.409ZM70.2651 364.854C70.2651 362.965 71.279 362.174 72.3622 362.174C73.4733 362.174 74.4732 363.007 74.4732 364.854C74.4732 366.673 73.4733 367.52 72.3622 367.52C71.279 367.52 70.2651 366.687 70.2651 364.854ZM72.3622 360.951C70.5984 360.951 68.7375 362.146 68.7375 364.854C68.7375 367.548 70.5984 368.743 72.3622 368.743C74.1399 368.743 76.0009 367.548 76.0009 364.854C76.0009 362.146 74.1399 360.951 72.3622 360.951ZM77.3039 361.09V368.562H80.887C82.5257 368.562 83.7479 367.937 83.7479 366.354C83.7479 365.354 83.1924 364.84 82.4285 364.618C83.0813 364.326 83.4424 363.785 83.4424 363.007C83.4424 361.479 82.2063 361.09 80.6786 361.09H77.3039ZM78.7482 364.187V362.243H80.5398C81.4147 362.243 81.9702 362.424 81.9702 363.187C81.9702 363.965 81.4425 364.187 80.5675 364.187H78.7482ZM78.7482 365.284H80.6509C81.7202 365.284 82.2619 365.548 82.2619 366.326C82.2619 367.104 81.7341 367.409 80.6786 367.409H78.7482V365.284ZM89.6672 365.548C89.6672 367.034 88.7228 367.632 87.5424 367.632C86.6535 367.632 86.1258 367.201 86.1258 366.52C86.1258 365.562 87.3479 365.229 89.6672 365.007V365.548ZM87.2229 368.743C88.4451 368.743 89.2784 368.34 89.7228 367.576C89.7644 368.062 89.7922 368.27 89.8478 368.562H91.2366C91.0977 367.895 91.0282 366.993 91.0282 365.868C91.0282 365.548 91.056 364.257 91.056 364.076C91.0699 361.84 89.9728 360.91 88.0423 360.91C86.3341 360.91 85.0147 361.854 84.9036 363.451H86.3619C86.4174 362.521 86.9868 362.021 87.9868 362.021C88.9034 362.021 89.5978 362.465 89.5978 363.785V363.937C86.7091 364.229 84.5564 364.729 84.5564 366.548C84.5564 367.909 85.7091 368.743 87.2229 368.743ZM99.2285 368.562V361.09H97.7841V364.16H94.1454V361.09H92.7011V368.562H94.1454V365.312H97.7841V368.562H99.2285ZM102.521 368.562L106.174 363.173V368.562H107.59V361.09H106.174L102.521 366.493V361.09H101.105V368.562H102.521ZM112.564 367.507C111.384 367.507 110.537 366.659 110.384 365.271H116.078C116.231 362.84 114.884 360.951 112.578 360.951C110.453 360.951 108.898 362.493 108.898 364.812C108.898 366.979 110.217 368.743 112.62 368.743C114.509 368.743 115.648 367.604 115.981 366.368H114.523C114.203 367.076 113.62 367.507 112.564 367.507ZM112.564 362.132C113.745 362.132 114.537 363.035 114.578 364.132H110.412C110.62 362.701 111.44 362.132 112.564 362.132ZM126.861 361.09H120.416V368.562H121.861V362.243H125.416V368.562H126.861V361.09ZM129.697 364.854C129.697 362.965 130.711 362.174 131.794 362.174C132.905 362.174 133.905 363.007 133.905 364.854C133.905 366.673 132.905 367.52 131.794 367.52C130.711 367.52 129.697 366.687 129.697 364.854ZM131.794 360.951C130.031 360.951 128.17 362.146 128.17 364.854C128.17 367.548 130.031 368.743 131.794 368.743C133.572 368.743 135.433 367.548 135.433 364.854C135.433 362.146 133.572 360.951 131.794 360.951ZM145.657 362.243V361.09H138.949V362.243H141.588V368.562H143.032V362.243H145.657ZM149.466 367.507C148.285 367.507 147.438 366.659 147.285 365.271H152.979C153.132 362.84 151.785 360.951 149.48 360.951C147.355 360.951 145.799 362.493 145.799 364.812C145.799 366.979 147.119 368.743 149.521 368.743C151.41 368.743 152.549 367.604 152.882 366.368H151.424C151.105 367.076 150.521 367.507 149.466 367.507ZM149.466 362.132C150.646 362.132 151.438 363.035 151.48 364.132H147.313C147.522 362.701 148.341 362.132 149.466 362.132ZM162.798 361.09H160.646L158.576 366.645L156.424 361.09H154.271V368.562H155.66V362.66L157.993 368.562H159.076L161.41 362.604V368.562H162.798V361.09ZM167.752 367.507C166.571 367.507 165.724 366.659 165.571 365.271H171.266C171.418 362.84 170.071 360.951 167.766 360.951C165.641 360.951 164.085 362.493 164.085 364.812C164.085 366.979 165.405 368.743 167.807 368.743C169.696 368.743 170.835 367.604 171.168 366.368H169.71C169.391 367.076 168.807 367.507 167.752 367.507ZM167.752 362.132C168.932 362.132 169.724 363.035 169.766 364.132H165.599C165.808 362.701 166.627 362.132 167.752 362.132ZM26.6888 376.243V375.09H21.7725V382.562H23.2168V376.243H26.6888ZM30.5198 381.507C29.3394 381.507 28.4922 380.659 28.3394 379.271H34.0335C34.1863 376.84 32.8391 374.951 30.5337 374.951C28.4089 374.951 26.8534 376.493 26.8534 378.812C26.8534 380.979 28.1728 382.743 30.5754 382.743C32.4642 382.743 33.603 381.604 33.9363 380.368H32.4781C32.1586 381.076 31.5753 381.507 30.5198 381.507ZM30.5198 376.132C31.7003 376.132 32.4919 377.035 32.5336 378.132H28.3672C28.5755 376.701 29.3949 376.132 30.5198 376.132ZM41.8526 382.562V375.09H40.4082V378.16H36.7696V375.09H35.3252V382.562H36.7696V379.312H40.4082V382.562H41.8526ZM51.0064 381.409H49.937V375.09H44.6596L44.5624 377.479C44.4512 380.312 44.0902 381.409 43.3263 381.409H42.9652V384.34H44.3263V382.562H49.6454V384.34H51.0064V381.409ZM48.4927 381.409H44.9929C45.5901 380.798 45.8123 379.646 45.9095 377.91L46.0067 376.243H48.4927V381.409ZM55.094 381.507C53.9135 381.507 53.0664 380.659 52.9136 379.271H58.6077C58.7604 376.84 57.4133 374.951 55.1079 374.951C52.983 374.951 51.4276 376.493 51.4276 378.812C51.4276 380.979 52.7469 382.743 55.1496 382.743C57.0383 382.743 58.1772 381.604 58.5105 380.368H57.0522C56.7328 381.076 56.1495 381.507 55.094 381.507ZM55.094 376.132C56.2745 376.132 57.0661 377.035 57.1078 378.132H52.9414C53.1497 376.701 53.9691 376.132 55.094 376.132ZM59.8299 375.09V384.992H61.2743V381.507C61.7326 382.284 62.4964 382.743 63.6075 382.743C65.3435 382.743 66.8295 381.284 66.8295 378.84C66.8295 376.396 65.3435 374.951 63.6075 374.951C62.4964 374.951 61.7326 375.41 61.2743 376.187V375.09H59.8299ZM61.2187 378.84C61.2187 376.993 62.1631 376.16 63.2742 376.16C64.4824 376.16 65.2879 377.16 65.2879 378.84C65.2879 380.52 64.4824 381.534 63.2742 381.534C62.1631 381.534 61.2187 380.687 61.2187 378.84ZM74.6543 382.562V375.09H73.2099V378.16H69.5713V375.09H68.1269V382.562H69.5713V379.312H73.2099V382.562H74.6543ZM77.4891 378.854C77.4891 376.965 78.5029 376.174 79.5862 376.174C80.6972 376.174 81.6971 377.007 81.6971 378.854C81.6971 380.673 80.6972 381.52 79.5862 381.52C78.5029 381.52 77.4891 380.687 77.4891 378.854ZM79.5862 374.951C77.8224 374.951 75.9614 376.146 75.9614 378.854C75.9614 381.548 77.8224 382.743 79.5862 382.743C81.3638 382.743 83.2248 381.548 83.2248 378.854C83.2248 376.146 81.3638 374.951 79.5862 374.951ZM87.8609 374.174C89.4441 374.174 90.0135 373.382 90.1247 372.493H89.0414C88.9858 372.979 88.6525 373.299 87.8748 373.299C87.0971 373.299 86.7915 372.979 86.736 372.493H85.6388C85.7083 373.382 86.3332 374.174 87.8609 374.174ZM85.9444 382.562L89.5969 377.173V382.562H91.0135V375.09H89.5969L85.9444 380.493V375.09H84.5278V382.562H85.9444ZM97.3542 382.562L101.006 377.173V382.562H102.423V375.09H101.006L97.3542 380.493V375.09H95.9376V382.562H97.3542ZM107.342 374.951C105.133 374.951 103.731 376.632 103.731 378.84C103.731 381.104 105.078 382.743 107.244 382.743C108.897 382.743 110.341 381.645 110.647 380.076H109.189C108.98 380.965 108.203 381.507 107.272 381.507C106.231 381.507 105.272 380.673 105.272 378.826C105.272 377.007 106.231 376.187 107.272 376.187C108.217 376.187 108.98 376.771 109.133 377.618H110.577C110.355 376.16 109.05 374.951 107.342 374.951ZM117.426 376.243V375.09H110.718V376.243H113.357V382.562H114.801V376.243H117.426ZM119.11 378.854C119.11 376.965 120.124 376.174 121.207 376.174C122.318 376.174 123.318 377.007 123.318 378.854C123.318 380.673 122.318 381.52 121.207 381.52C120.124 381.52 119.11 380.687 119.11 378.854ZM121.207 374.951C119.443 374.951 117.582 376.146 117.582 378.854C117.582 381.548 119.443 382.743 121.207 382.743C122.985 382.743 124.846 381.548 124.846 378.854C124.846 376.146 122.985 374.951 121.207 374.951ZM126.079 375.09V384.992H127.523V381.507C127.982 382.284 128.746 382.743 129.857 382.743C131.593 382.743 133.079 381.284 133.079 378.84C133.079 376.396 131.593 374.951 129.857 374.951C128.746 374.951 127.982 375.41 127.523 376.187V375.09H126.079ZM127.468 378.84C127.468 376.993 128.412 376.16 129.523 376.16C130.732 376.16 131.537 377.16 131.537 378.84C131.537 380.52 130.732 381.534 129.523 381.534C128.412 381.534 127.468 380.687 127.468 378.84ZM135.793 382.562L139.445 377.173V382.562H140.862V375.09H139.445L135.793 380.493V375.09H134.376V382.562H135.793ZM144.169 382.562L147.822 377.173V382.562H149.239V375.09H147.822L144.169 380.493V375.09H142.753V382.562H144.169ZM155.593 382.562L159.245 377.173V382.562H160.662V375.09H159.245L155.593 380.493V375.09H154.176V382.562H155.593ZM165.581 374.951C163.372 374.951 161.97 376.632 161.97 378.84C161.97 381.104 163.317 382.743 165.483 382.743C167.136 382.743 168.58 381.645 168.886 380.076H167.428C167.219 380.965 166.442 381.507 165.511 381.507C164.47 381.507 163.511 380.673 163.511 378.826C163.511 377.007 164.47 376.187 165.511 376.187C166.456 376.187 167.219 376.771 167.372 377.618H168.816C168.594 376.16 167.289 374.951 165.581 374.951ZM174.935 382.562H176.671L173.602 378.659L176.421 375.09H174.741L172.463 378.118H171.547V375.09H170.102V382.562H171.547V379.271H172.422L174.935 382.562ZM177.888 384.992C179.583 384.992 179.999 384.492 180.624 382.729L183.263 375.09H181.763L179.999 380.659L178.194 375.09H176.597L179.291 382.548L179.235 382.715C178.874 383.77 178.541 383.84 177.763 383.84H177.194V384.992H177.888ZM186.995 374.951C184.786 374.951 183.384 376.632 183.384 378.84C183.384 381.104 184.731 382.743 186.897 382.743C188.55 382.743 189.994 381.645 190.3 380.076H188.842C188.633 380.965 187.856 381.507 186.925 381.507C185.884 381.507 184.925 380.673 184.925 378.826C184.925 377.007 185.884 376.187 186.925 376.187C187.87 376.187 188.633 376.771 188.786 377.618H190.231C190.008 376.16 188.703 374.951 186.995 374.951ZM194.612 374.951C192.404 374.951 191.001 376.632 191.001 378.84C191.001 381.104 192.348 382.743 194.515 382.743C196.167 382.743 197.612 381.645 197.917 380.076H196.459C196.251 380.965 195.473 381.507 194.542 381.507C193.501 381.507 192.543 380.673 192.543 378.826C192.543 377.007 193.501 376.187 194.542 376.187C195.487 376.187 196.251 376.771 196.403 377.618H197.848C197.626 376.16 196.32 374.951 194.612 374.951ZM200.648 382.562V380.826H198.912V382.562H200.648ZM203.816 382.562V380.826H202.08V382.562H203.816ZM206.985 382.562V380.826H205.249V382.562H206.985Z" fill="#2F2F2F"/>
<path d="M19.5742 46.1903C19.5742 41.0769 23.7195 36.9316 28.8329 36.9316H204.169C209.282 36.9316 213.428 41.0769 213.428 46.1903V56.0276C213.428 61.1411 209.282 65.2863 204.169 65.2863H28.8329C23.7195 65.2863 19.5742 61.1411 19.5742 56.0276V46.1903Z" fill="#747474" fill-opacity="0.3"/>
<path d="M108.398 38.668H29.4099C24.9357 38.668 21.3086 42.2951 21.3086 46.7693V55.4493C21.3086 59.9236 24.9357 63.5507 29.4099 63.5507H108.398C112.872 63.5507 116.499 59.9236 116.499 55.4493V46.7693C116.499 42.2951 112.872 38.668 108.398 38.668Z" fill="#2F2F2F"/>
<path d="M30.0478 51.0903C30.0478 49.8265 30.7353 49.146 31.6171 49.146C32.4851 49.146 33.1794 49.8265 33.1794 51.0903C33.1794 52.3472 32.4851 53.0416 31.6171 53.0416C30.7353 53.0416 30.0478 52.3472 30.0478 51.0903ZM33.9919 51.0903C33.9919 49.5557 33.0754 48.4863 31.6171 48.4863C30.152 48.4863 29.2354 49.5557 29.2354 51.0903C29.2354 52.625 30.152 53.7013 31.6171 53.7013C33.0754 53.7013 33.9919 52.625 33.9919 51.0903ZM37.7852 50.4515V49.8751H34.4312V50.4515H35.7506V53.611H36.4727V50.4515H37.7852ZM40.8244 53.611H41.6924L40.1579 51.6598L41.5674 49.8751H40.7273L39.5884 51.3889H39.1302V49.8751H38.4079V53.611H39.1302V51.9653H39.5676L40.8244 53.611ZM45.3216 49.8751H42.7661L42.7106 51.0417C42.6342 52.4653 42.419 53.0347 41.9746 53.0347H41.8981V53.611H42.0301C42.9953 53.611 43.3286 52.7291 43.405 51.1528L43.4396 50.4515H44.5994V53.611H45.3216V49.8751ZM47.0707 53.611L48.897 50.9167V53.611H49.6052V49.8751H48.897L47.0707 52.5764V49.8751H46.3624V53.611H47.0707ZM53.0714 53.611H53.9394L52.4048 51.6598L53.8145 49.8751H52.9741L51.8354 51.3889H51.3771V49.8751H50.6549V53.611H51.3771V51.9653H51.8146L53.0714 53.611ZM55.2353 53.611L57.0616 50.9167V53.611H57.7698V49.8751H57.0616L55.2353 52.5764V49.8751H54.527V53.611H55.2353ZM61.1554 53.611L62.9816 50.9167V53.611H63.6898V49.8751H62.9816L61.1554 52.5764V49.8751H60.4471V53.611H61.1554ZM66.2533 49.8057C65.1492 49.8057 64.4478 50.6459 64.4478 51.75C64.4478 52.8819 65.1215 53.7013 66.2048 53.7013C67.0311 53.7013 67.7533 53.1527 67.9061 52.368H67.1768C67.0727 52.8125 66.6839 53.0833 66.2187 53.0833C65.6979 53.0833 65.2187 52.6666 65.2187 51.7431C65.2187 50.8334 65.6979 50.4237 66.2187 50.4237C66.6909 50.4237 67.0727 50.7154 67.1491 51.139H67.8712C67.7601 50.4098 67.1074 49.8057 66.2533 49.8057ZM71.8404 49.8751H68.6184V53.611H69.3405V50.4515H71.1182V53.611H71.8404V49.8751ZM73.3629 51.757C73.3629 50.8126 73.8699 50.4168 74.4116 50.4168C74.9671 50.4168 75.4669 50.8334 75.4669 51.757C75.4669 52.6666 74.9671 53.0902 74.4116 53.0902C73.8699 53.0902 73.3629 52.6736 73.3629 51.757ZM74.4116 49.8057C73.5297 49.8057 72.5992 50.4029 72.5992 51.757C72.5992 53.1041 73.5297 53.7013 74.4116 53.7013C75.3004 53.7013 76.2309 53.1041 76.2309 51.757C76.2309 50.4029 75.3004 49.8057 74.4116 49.8057ZM79.9058 49.8751H77.3505L77.295 51.0417C77.2186 52.4653 77.0033 53.0347 76.5588 53.0347H76.4826V53.611H76.6144C77.5796 53.611 77.9129 52.7291 77.9893 51.1528L78.024 50.4515H79.1837V53.611H79.9058V49.8751ZM84.2104 53.611V49.8751H83.4883V51.4098H81.6689V49.8751H80.9467V53.611H81.6689V51.9861H83.4883V53.611H84.2104ZM85.9612 53.611L87.7873 50.9167V53.611H88.4957V49.8751H87.7873L85.9612 52.5764V49.8751H85.2528V53.611H85.9612ZM92.4827 50.4515V49.8751H89.1287V50.4515H90.4481V53.611H91.1702V50.4515H92.4827ZM94.4911 53.0833C93.9008 53.0833 93.4772 52.6597 93.4009 51.9653H96.2479C96.3243 50.7501 95.6507 49.8057 94.498 49.8057C93.4356 49.8057 92.6579 50.5765 92.6579 51.7361C92.6579 52.8194 93.3176 53.7013 94.5189 53.7013C95.4633 53.7013 96.0326 53.1319 96.1993 52.5139H95.4702C95.3105 52.868 95.0188 53.0833 94.4911 53.0833ZM94.4911 50.3959C95.0813 50.3959 95.4771 50.8473 95.4979 51.3959H93.4147C93.5189 50.6806 93.9286 50.3959 94.4911 50.3959ZM100.04 49.8751H97.484L97.4285 51.0417C97.3521 52.4653 97.1369 53.0347 96.6925 53.0347H96.6161V53.611H96.7479C97.7131 53.611 98.0464 52.7291 98.1228 51.1528L98.1575 50.4515H99.3172V53.611H100.04V49.8751ZM102.622 53.0833C102.032 53.0833 101.608 52.6597 101.532 51.9653H104.379C104.455 50.7501 103.782 49.8057 102.629 49.8057C101.567 49.8057 100.789 50.5765 100.789 51.7361C100.789 52.8194 101.449 53.7013 102.65 53.7013C103.594 53.7013 104.164 53.1319 104.33 52.5139H103.601C103.442 52.868 103.15 53.0833 102.622 53.0833ZM102.622 50.3959C103.212 50.3959 103.608 50.8473 103.629 51.3959H101.546C101.65 50.6806 102.06 50.3959 102.622 50.3959ZM106.796 49.4168C107.587 49.4168 107.872 49.021 107.927 48.5766H107.386C107.358 48.8197 107.191 48.9794 106.803 48.9794C106.414 48.9794 106.261 48.8197 106.233 48.5766H105.685C105.719 49.021 106.032 49.4168 106.796 49.4168ZM105.837 53.611L107.664 50.9167V53.611H108.372V49.8751H107.664L105.837 52.5764V49.8751H105.129V53.611H105.837Z" fill="#F0F1F2"/>
<path d="M145.533 53.1086L146.873 48.8727V53.1086H147.651V48.0742H146.38L145.123 52.185L143.866 48.0742H142.595V53.1086H143.373V48.8727L144.713 53.1086H145.533ZM149.244 51.2545C149.244 50.3101 149.751 49.9143 150.292 49.9143C150.848 49.9143 151.348 50.331 151.348 51.2545C151.348 52.1642 150.848 52.5878 150.292 52.5878C149.751 52.5878 149.244 52.1711 149.244 51.2545ZM150.292 49.3033C149.411 49.3033 148.48 49.9004 148.48 51.2545C148.48 52.6017 149.411 53.1988 150.292 53.1988C151.181 53.1988 152.112 52.6017 152.112 51.2545C152.112 49.9004 151.181 49.3033 150.292 49.3033ZM153.576 53.1086L155.402 50.4143V53.1086H156.11V49.3727H155.402L153.576 52.0739V49.3727H152.867V53.1086H153.576ZM159.267 51.2545C159.267 50.3101 159.773 49.9143 160.315 49.9143C160.871 49.9143 161.371 50.331 161.371 51.2545C161.371 52.1642 160.871 52.5878 160.315 52.5878C159.773 52.5878 159.267 52.1711 159.267 51.2545ZM160.315 49.3033C159.433 49.3033 158.503 49.9004 158.503 51.2545C158.503 52.6017 159.433 53.1988 160.315 53.1988C161.204 53.1988 162.134 52.6017 162.134 51.2545C162.134 49.9004 161.204 49.3033 160.315 49.3033ZM165.671 49.9491V49.3727H162.317V49.9491H163.637V53.1086H164.359V49.9491H165.671ZM168.711 53.1086H169.579L168.044 51.1573L169.454 49.3727H168.614L167.475 50.8865H167.016V49.3727H166.294V53.1086H167.016V51.4628H167.454L168.711 53.1086ZM173.208 49.3727H170.652L170.597 50.5393C170.521 51.9628 170.305 52.5322 169.861 52.5322H169.784V53.1086H169.916C170.882 53.1086 171.215 52.2267 171.291 50.6504L171.326 49.9491H172.486V53.1086H173.208V49.3727ZM174.957 53.1086L176.783 50.4143V53.1086H177.492V49.3727H176.783L174.957 52.0739V49.3727H174.249V53.1086H174.957ZM180.958 53.1086H181.826L180.291 51.1573L181.701 49.3727H180.861L179.722 50.8865H179.263V49.3727H178.541V53.1086H179.263V51.4628H179.701L180.958 53.1086ZM183.122 53.1086L184.948 50.4143V53.1086H185.656V49.3727H184.948L183.122 52.0739V49.3727H182.413V53.1086H183.122Z" fill="#2F2F2F"/>
</g>
<path d="M202.158 4.19336H30.8425C16.1246 4.19336 4.19336 16.1246 4.19336 30.8425V456.193C4.19336 470.911 16.1246 482.842 30.8425 482.842H202.158C216.876 482.842 228.807 470.911 228.807 456.193V30.8425C228.807 16.1246 216.876 4.19336 202.158 4.19336Z" stroke="#1C63EC" stroke-width="7.61404"/>
<path d="M68.957 7.60237H166.206L164.443 7.71706C161.987 7.87688 160.08 9.9234 160.095 12.3851V14.7364C160.095 21.2153 154.843 26.4676 148.364 26.4676H85.2876C78.8167 26.4676 73.5678 21.2279 73.5564 14.757L73.5513 11.8536C73.5043 9.42223 71.4696 7.5035 69.0395 7.59913L68.957 7.60237Z" fill="#1C63EC"/>
</g>
<defs>
<clipPath id="clip0_1485_28084">
<rect width="233" height="487" fill="white"/>
</clipPath>
</defs>
</svg>
