<svg width="339" height="344" viewBox="0 0 339 344" fill="none" xmlns="http://www.w3.org/2000/svg">
<rect width="339" height="169.5" fill="black"/>
<rect x="6.70312" y="6.69971" width="325.601" height="99.4891" rx="8.03953" fill="#FC6020"/>
<path d="M33.6178 70.1657C39.0301 70.1657 42.1126 66.8323 42.1126 61.2049V43.7136H38.0265V61.1691C38.0265 65.3627 36.0193 66.8323 33.6178 66.8323C30.8938 66.8323 29.03 64.9326 29.03 61.3125H25.0872C25.0872 66.9398 28.1697 70.1657 33.6178 70.1657ZM57.9381 61.9218C57.9381 65.757 55.5008 67.2982 52.4541 67.2982C50.1602 67.2982 48.7981 66.1871 48.7981 64.4308C48.7981 61.9576 51.9523 61.0974 57.9381 60.5239V61.9218ZM51.6297 70.1657C54.7839 70.1657 56.9345 69.1262 58.0815 67.1549C58.189 68.4094 58.2607 68.947 58.404 69.6997H61.9883C61.6299 67.9792 61.4507 65.6495 61.4507 62.7462C61.4507 61.9218 61.5224 58.5884 61.5224 58.1225C61.5582 52.3517 58.7266 49.9503 53.7445 49.9503C49.3358 49.9503 45.9307 52.3876 45.644 56.5095H49.4075C49.5508 54.108 51.0204 52.8177 53.6011 52.8177C55.9667 52.8177 57.7589 53.9647 57.7589 57.3698V57.764C50.3035 58.5167 44.7479 59.8071 44.7479 64.5025C44.7479 68.0151 47.7229 70.1657 51.6297 70.1657ZM66.1307 50.4162H62.0088L69.1773 69.6997H72.5824L79.7152 50.4162H75.8441L71.0053 64.7175L66.1307 50.4162ZM92.3136 61.9218C92.3136 65.757 89.8763 67.2982 86.8297 67.2982C84.5357 67.2982 83.1737 66.1871 83.1737 64.4308C83.1737 61.9576 86.3279 61.0974 92.3136 60.5239V61.9218ZM86.0053 70.1657C89.1595 70.1657 91.31 69.1262 92.457 67.1549C92.5645 68.4094 92.6362 68.947 92.7796 69.6997H96.3639C96.0055 67.9792 95.8263 65.6495 95.8263 62.7462C95.8263 61.9218 95.8979 58.5884 95.8979 58.1225C95.9338 52.3517 93.1022 49.9503 88.12 49.9503C83.7114 49.9503 80.3063 52.3876 80.0195 56.5095H83.783C83.9264 54.108 85.396 52.8177 87.9767 52.8177C90.3423 52.8177 92.1344 53.9647 92.1344 57.3698V57.764C84.6791 58.5167 79.1235 59.8071 79.1235 64.5025C79.1235 68.0151 82.0984 70.1657 86.0053 70.1657ZM106.035 50.4162V75.9722H109.763V66.9756C110.946 68.9828 112.917 70.1657 115.785 70.1657C120.265 70.1657 124.1 66.4022 124.1 60.0938C124.1 53.7855 120.265 50.0578 115.785 50.0578C112.917 50.0578 110.946 51.2406 109.763 53.2478V50.4162H106.035ZM109.62 60.0938C109.62 55.3267 112.057 53.1761 114.924 53.1761C118.043 53.1761 120.122 55.7568 120.122 60.0938C120.122 64.4308 118.043 67.0473 114.924 67.0473C112.057 67.0473 109.62 64.8609 109.62 60.0938ZM138.417 61.9218C138.417 65.757 135.979 67.2982 132.933 67.2982C130.639 67.2982 129.277 66.1871 129.277 64.4308C129.277 61.9576 132.431 61.0974 138.417 60.5239V61.9218ZM132.108 70.1657C135.262 70.1657 137.413 69.1262 138.56 67.1549C138.667 68.4094 138.739 68.947 138.883 69.6997H142.467C142.108 67.9792 141.929 65.6495 141.929 62.7462C141.929 61.9218 142.001 58.5884 142.001 58.1225C142.037 52.3517 139.205 49.9503 134.223 49.9503C129.814 49.9503 126.409 52.3876 126.122 56.5095H129.886C130.029 54.108 131.499 52.8177 134.08 52.8177C136.445 52.8177 138.237 53.9647 138.237 57.3698V57.764C130.782 58.5167 125.226 59.8071 125.226 64.5025C125.226 68.0151 128.201 70.1657 132.108 70.1657ZM156.426 59.5562C158.146 58.7318 159.473 57.2981 159.473 55.3984C159.473 52.4951 156.677 49.9861 152.053 49.9861C147.752 49.9861 144.275 52.1725 143.988 56.4378H147.716C147.716 54.0005 149.903 52.9969 152.017 52.9969C154.275 52.9969 155.709 53.7855 155.709 55.6135C155.709 57.4773 154.168 58.3734 152.017 58.3734H149.114V61.3483H152.232C154.813 61.3483 156.211 62.1727 156.211 64.3233C156.211 66.1513 154.634 67.1549 151.91 67.1549C149.186 67.1549 147.465 66.0079 147.358 63.7139H143.63C143.917 68.266 147.931 70.1657 152.089 70.1657C156.641 70.1657 159.939 68.0151 159.939 64.1441C159.939 61.5634 158.469 60.1655 156.426 59.5562ZM162.254 50.4162V75.9722H165.982V66.9756C167.165 68.9828 169.136 70.1657 172.003 70.1657C176.484 70.1657 180.319 66.4022 180.319 60.0938C180.319 53.7855 176.484 50.0578 172.003 50.0578C169.136 50.0578 167.165 51.2406 165.982 53.2478V50.4162H162.254ZM165.838 60.0938C165.838 55.3267 168.276 53.1761 171.143 53.1761C174.261 53.1761 176.34 55.7568 176.34 60.0938C176.34 64.4308 174.261 67.0473 171.143 67.0473C168.276 67.0473 165.838 64.8609 165.838 60.0938ZM194.635 61.9218C194.635 65.757 192.198 67.2982 189.151 67.2982C186.857 67.2982 185.495 66.1871 185.495 64.4308C185.495 61.9576 188.65 61.0974 194.635 60.5239V61.9218ZM188.327 70.1657C191.481 70.1657 193.632 69.1262 194.779 67.1549C194.886 68.4094 194.958 68.947 195.101 69.6997H198.686C198.327 67.9792 198.148 65.6495 198.148 62.7462C198.148 61.9218 198.22 58.5884 198.22 58.1225C198.255 52.3517 195.424 49.9503 190.442 49.9503C186.033 49.9503 182.628 52.3876 182.341 56.5095H186.105C186.248 54.108 187.718 52.8177 190.298 52.8177C192.664 52.8177 194.456 53.9647 194.456 57.3698V57.764C187.001 58.5167 181.445 59.8071 181.445 64.5025C181.445 68.0151 184.42 70.1657 188.327 70.1657ZM210.422 51.5274C207.663 51.5274 205.082 52.746 203.756 55.2909C204.329 50.5238 206.766 48.7316 210.924 47.9789L217.268 46.7603V43.5344L210.745 44.6814C203.397 46.0076 200.673 50.4521 200.566 57.4414V59.4128C200.566 66.6172 204.723 70.1657 209.741 70.1657C214.544 70.1657 218.702 66.8681 218.702 60.6673C218.702 54.6099 214.867 51.5274 210.422 51.5274ZM209.777 67.0473C206.659 67.0473 204.472 64.6817 204.472 60.7031C204.472 56.5454 206.946 54.6457 209.813 54.6457C212.573 54.6457 214.795 56.6887 214.795 60.739C214.795 64.7892 212.788 67.0473 209.777 67.0473ZM224.065 60.1297C224.065 55.255 226.682 53.212 229.478 53.212C232.345 53.212 234.926 55.3626 234.926 60.1297C234.926 64.8251 232.345 67.0115 229.478 67.0115C226.682 67.0115 224.065 64.8609 224.065 60.1297ZM229.478 50.0578C224.926 50.0578 220.123 53.1403 220.123 60.1297C220.123 67.0832 224.926 70.1657 229.478 70.1657C234.066 70.1657 238.868 67.0832 238.868 60.1297C238.868 53.1403 234.066 50.0578 229.478 50.0578ZM255.692 53.3912V50.4162H238.38V53.3912H245.19V69.6997H248.917V53.3912H255.692ZM272.025 69.6997V50.4162H268.297V59.0902C266.613 59.4845 265.394 59.6995 264.14 59.6995C261.451 59.6995 260.197 58.7676 260.197 56.0794V50.4162H256.469V56.7963C256.469 60.9899 258.656 62.8179 262.706 62.8179C264.462 62.8179 266.147 62.6028 268.297 62.0652V69.6997H272.025ZM279.612 69.6997L289.038 55.7927V69.6997H292.694V50.4162H289.038L279.612 64.3591V50.4162H275.956V69.6997H279.612ZM309.152 69.6997H313.633L305.711 59.6279L312.987 50.4162H308.65L302.772 58.23H300.407V50.4162H296.679V69.6997H300.407V61.2049H302.665L309.152 69.6997Z" fill="black"/>
<rect x="6.70312" y="112.888" width="104.179" height="49.9121" rx="8.03953" fill="#FDC73B"/>
<path d="M14.788 135.888H18.0661C19.7507 135.888 21.0825 135.205 21.0825 133.452C21.0825 132.394 20.5817 131.825 19.8418 131.495C20.3768 131.187 20.7524 130.481 20.7524 129.707C20.7524 128.034 19.341 127.636 17.8271 127.636H14.788V135.888ZM16.0856 132.132H18.032C19.2158 132.132 19.7507 132.542 19.7507 133.452C19.7507 134.329 19.2044 134.818 18.1003 134.818H16.0856V132.132ZM16.0856 128.706H17.9865C18.8515 128.706 19.4434 129.081 19.4434 129.867C19.4434 130.766 18.8857 131.13 17.9865 131.13H16.0856V128.706ZM22.6852 132.849C22.6852 131.301 23.5161 130.652 24.404 130.652C25.3146 130.652 26.1341 131.335 26.1341 132.849C26.1341 134.34 25.3146 135.034 24.404 135.034C23.5161 135.034 22.6852 134.352 22.6852 132.849ZM24.404 129.651C22.9584 129.651 21.4331 130.629 21.4331 132.849C21.4331 135.057 22.9584 136.036 24.404 136.036C25.8609 136.036 27.3862 135.057 27.3862 132.849C27.3862 130.629 25.8609 129.651 24.404 129.651ZM31.6868 132.667C32.2331 132.405 32.6543 131.95 32.6543 131.347C32.6543 130.425 31.7664 129.628 30.2981 129.628C28.9322 129.628 27.8281 130.322 27.737 131.677H28.9208C28.9208 130.903 29.6151 130.584 30.2867 130.584C31.0038 130.584 31.4591 130.834 31.4591 131.415C31.4591 132.007 30.9697 132.291 30.2867 132.291H29.3647V133.236H30.355C31.1746 133.236 31.6185 133.498 31.6185 134.181C31.6185 134.761 31.1176 135.08 30.2526 135.08C29.3875 135.08 28.8411 134.716 28.807 133.987H27.6232C27.7143 135.433 28.9891 136.036 30.3095 136.036C31.7551 136.036 32.8023 135.353 32.8023 134.124C32.8023 133.304 32.3356 132.86 31.6868 132.667ZM38.9443 135.888V129.764H37.7605V132.28H34.7783V129.764H33.5945V135.888H34.7783V133.225H37.7605V135.888H38.9443ZM43.9653 133.418C43.9653 134.636 43.1913 135.126 42.2238 135.126C41.4953 135.126 41.0628 134.773 41.0628 134.215C41.0628 133.43 42.0644 133.156 43.9653 132.974V133.418ZM41.962 136.036C42.9637 136.036 43.6466 135.706 44.0109 135.08C44.045 135.478 44.0678 135.649 44.1133 135.888H45.2516C45.1377 135.342 45.0808 134.602 45.0808 133.68C45.0808 133.418 45.1036 132.36 45.1036 132.212C45.115 130.379 44.2157 129.616 42.6336 129.616C41.2335 129.616 40.1522 130.39 40.0611 131.699H41.2563C41.3018 130.937 41.7685 130.527 42.588 130.527C43.3393 130.527 43.9084 130.891 43.9084 131.973V132.098C41.5409 132.337 39.7766 132.747 39.7766 134.238C39.7766 135.353 40.7213 136.036 41.962 136.036ZM50.1967 130.709V129.764H46.1673V135.888H47.3511V130.709H50.1967ZM50.6683 129.764V137.88H51.8521V135.023C52.2277 135.661 52.8538 136.036 53.7644 136.036C55.1872 136.036 56.4051 134.841 56.4051 132.838C56.4051 130.834 55.1872 129.651 53.7644 129.651C52.8538 129.651 52.2277 130.026 51.8521 130.664V129.764H50.6683ZM51.8066 132.838C51.8066 131.324 52.5806 130.641 53.4912 130.641C54.4815 130.641 55.1417 131.46 55.1417 132.838C55.1417 134.215 54.4815 135.046 53.4912 135.046C52.5806 135.046 51.8066 134.352 51.8066 132.838ZM60.9516 133.418C60.9516 134.636 60.1775 135.126 59.21 135.126C58.4815 135.126 58.049 134.773 58.049 134.215C58.049 133.43 59.0507 133.156 60.9516 132.974V133.418ZM58.9482 136.036C59.9499 136.036 60.6328 135.706 60.9971 135.08C61.0312 135.478 61.054 135.649 61.0995 135.888H62.2378C62.124 135.342 62.067 134.602 62.067 133.68C62.067 133.418 62.0898 132.36 62.0898 132.212C62.1012 130.379 61.202 129.616 59.6198 129.616C58.2197 129.616 57.1384 130.39 57.0473 131.699H58.2425C58.288 130.937 58.7547 130.527 59.5743 130.527C60.3255 130.527 60.8946 130.891 60.8946 131.973V132.098C58.5271 132.337 56.7628 132.747 56.7628 134.238C56.7628 135.353 57.7075 136.036 58.9482 136.036ZM63.8479 135.888L65.6691 133.191H66.3862V135.888H67.57V133.191H68.3098L70.131 135.888H71.5311L69.2887 132.656L71.349 129.764H69.9831L68.3098 132.246H67.57V129.764H66.3862V132.246H65.6349L63.9731 129.764H62.6186L64.6788 132.678L62.4251 135.888H63.8479ZM78.0778 134.943H77.2013V129.764H72.8759L72.7963 131.722C72.7052 134.044 72.4092 134.943 71.7832 134.943H71.4873V137.345H72.6027V135.888H76.9623V137.345H78.0778V134.943ZM76.0175 134.943H73.1491C73.6386 134.443 73.8207 133.498 73.9004 132.075L73.98 130.709H76.0175V134.943ZM81.1434 135.023C80.1759 135.023 79.4815 134.329 79.3563 133.191H84.0232C84.1484 131.199 83.0443 129.651 81.1548 129.651C79.4132 129.651 78.1384 130.914 78.1384 132.815C78.1384 134.591 79.2197 136.036 81.1889 136.036C82.7369 136.036 83.6703 135.103 83.9435 134.09H82.7483C82.4865 134.67 82.0085 135.023 81.1434 135.023ZM81.1434 130.618C82.1109 130.618 82.7597 131.358 82.7939 132.257H79.3791C79.5498 131.085 80.2214 130.618 81.1434 130.618ZM90.1471 135.888V129.764H88.9633V132.28H85.9811V129.764H84.7973V135.888H85.9811V133.225H88.9633V135.888H90.1471ZM92.5615 135.888L95.5551 131.472V135.888H96.7161V129.764H95.5551L92.5615 134.192V129.764H91.4005V135.888H92.5615ZM100.508 135.023C99.5409 135.023 98.8465 134.329 98.7213 133.191H103.388C103.513 131.199 102.409 129.651 100.52 129.651C98.7782 129.651 97.5034 130.914 97.5034 132.815C97.5034 134.591 98.5847 136.036 100.554 136.036C102.102 136.036 103.035 135.103 103.308 134.09H102.113C101.852 134.67 101.373 135.023 100.508 135.023ZM100.508 130.618C101.476 130.618 102.125 131.358 102.159 132.257H98.7441C98.9148 131.085 99.5864 130.618 100.508 130.618ZM35.6774 139.488C33.9131 139.488 32.7407 140.592 32.7748 142.242H33.9814C33.9814 140.911 34.8009 140.433 35.6432 140.433C36.5424 140.433 37.0888 140.956 37.0888 141.787C37.0888 143.221 35.4042 144.701 32.5699 146.864V147.888H38.5458V146.818H34.1066C36.5083 145.122 38.3295 143.472 38.3295 141.662C38.3295 140.262 37.2026 139.488 35.6774 139.488ZM42.1883 147.08C40.9476 147.08 40.1963 145.976 40.1963 143.756C40.1963 141.559 40.9476 140.433 42.1883 140.433C43.4517 140.433 44.1802 141.559 44.1802 143.756C44.1802 145.976 43.4517 147.08 42.1883 147.08ZM42.1883 148.036C44.3965 148.036 45.4323 146.34 45.4323 143.756C45.4323 141.184 44.3965 139.488 42.1883 139.488C39.9914 139.488 38.9443 141.184 38.9443 143.756C38.9443 146.34 39.9914 148.036 42.1883 148.036ZM49.2361 147.08C47.9954 147.08 47.2442 145.976 47.2442 143.756C47.2442 141.559 47.9954 140.433 49.2361 140.433C50.4996 140.433 51.2281 141.559 51.2281 143.756C51.2281 145.976 50.4996 147.08 49.2361 147.08ZM49.2361 148.036C51.4443 148.036 52.4801 146.34 52.4801 143.756C52.4801 141.184 51.4443 139.488 49.2361 139.488C47.0393 139.488 45.9921 141.184 45.9921 143.756C45.9921 146.34 47.0393 148.036 49.2361 148.036ZM58.4964 147.08C57.2557 147.08 56.5045 145.976 56.5045 143.756C56.5045 141.559 57.2557 140.433 58.4964 140.433C59.7599 140.433 60.4884 141.559 60.4884 143.756C60.4884 145.976 59.7599 147.08 58.4964 147.08ZM58.4964 148.036C60.7047 148.036 61.7405 146.34 61.7405 143.756C61.7405 141.184 60.7047 139.488 58.4964 139.488C56.2996 139.488 55.2524 141.184 55.2524 143.756C55.2524 146.34 56.2996 148.036 58.4964 148.036ZM65.5443 147.08C64.3036 147.08 63.5523 145.976 63.5523 143.756C63.5523 141.559 64.3036 140.433 65.5443 140.433C66.8077 140.433 67.5362 141.559 67.5362 143.756C67.5362 145.976 66.8077 147.08 65.5443 147.08ZM65.5443 148.036C67.7525 148.036 68.7883 146.34 68.7883 143.756C68.7883 141.184 67.7525 139.488 65.5443 139.488C63.3474 139.488 62.3003 141.184 62.3003 143.756C62.3003 146.34 63.3474 148.036 65.5443 148.036ZM72.5921 147.08C71.3514 147.08 70.6002 145.976 70.6002 143.756C70.6002 141.559 71.3514 140.433 72.5921 140.433C73.8556 140.433 74.5841 141.559 74.5841 143.756C74.5841 145.976 73.8556 147.08 72.5921 147.08ZM72.5921 148.036C74.8003 148.036 75.8362 146.34 75.8362 143.756C75.8362 141.184 74.8003 139.488 72.5921 139.488C70.3953 139.488 69.3481 141.184 69.3481 143.756C69.3481 146.34 70.3953 148.036 72.5921 148.036ZM80.6345 144.712H81.6476C83.6964 144.712 85.1648 144.121 85.1648 142.174C85.1648 140.125 83.6964 139.636 81.6476 139.636H79.3369V143.62H78.3352V144.712H79.3369V145.578H78.3352V146.454H79.3369V147.888H80.6345V146.454H83.207V145.578H80.6345V144.712ZM80.6345 143.62V140.74H81.7045C82.8769 140.74 83.8444 140.968 83.8444 142.174C83.8444 143.381 82.8769 143.62 81.7045 143.62H80.6345Z" fill="black"/>
<rect x="117.578" y="112.888" width="103.844" height="49.9121" rx="8.03953" fill="#79BAE2"/>
<path d="M155.045 142.223L157.241 135.28V142.223H158.516V133.971H156.433L154.373 140.709L152.313 133.971H150.23V142.223H151.505V135.28L153.702 142.223H155.045ZM160.673 139.184C160.673 137.636 161.504 136.987 162.391 136.987C163.302 136.987 164.122 137.67 164.122 139.184C164.122 140.675 163.302 141.369 162.391 141.369C161.504 141.369 160.673 140.687 160.673 139.184ZM162.391 135.986C160.946 135.986 159.421 136.964 159.421 139.184C159.421 141.392 160.946 142.371 162.391 142.371C163.848 142.371 165.374 141.392 165.374 139.184C165.374 136.964 163.848 135.986 162.391 135.986ZM168.772 135.986C166.962 135.986 165.812 137.363 165.812 139.173C165.812 141.028 166.916 142.371 168.692 142.371C170.047 142.371 171.23 141.472 171.481 140.186H170.286C170.115 140.914 169.477 141.358 168.715 141.358C167.861 141.358 167.076 140.675 167.076 139.161C167.076 137.67 167.861 136.999 168.715 136.999C169.489 136.999 170.115 137.477 170.24 138.171H171.424C171.242 136.976 170.172 135.986 168.772 135.986ZM176.154 142.223H177.577L175.062 139.025L177.372 136.099H175.995L174.128 138.581H173.377V136.099H172.193V142.223H173.377V139.525H174.094L176.154 142.223ZM178.085 136.099V142.223H181.022C182.365 142.223 183.367 141.711 183.367 140.413C183.367 139.594 182.911 139.173 182.285 138.991C182.82 138.751 183.116 138.308 183.116 137.67C183.116 136.418 182.103 136.099 180.851 136.099H178.085ZM179.269 138.638V137.044H180.737C181.454 137.044 181.91 137.192 181.91 137.818C181.91 138.456 181.477 138.638 180.76 138.638H179.269ZM179.269 139.537H180.828C181.705 139.537 182.149 139.753 182.149 140.391C182.149 141.028 181.716 141.278 180.851 141.278H179.269V139.537ZM187.933 139.753C187.933 140.971 187.159 141.461 186.192 141.461C185.463 141.461 185.031 141.108 185.031 140.55C185.031 139.765 186.033 139.491 187.933 139.309V139.753ZM185.93 142.371C186.932 142.371 187.615 142.041 187.979 141.415C188.013 141.813 188.036 141.984 188.081 142.223H189.22C189.106 141.677 189.049 140.937 189.049 140.015C189.049 139.753 189.072 138.695 189.072 138.547C189.083 136.714 188.184 135.951 186.602 135.951C185.202 135.951 184.12 136.725 184.029 138.034H185.224C185.27 137.272 185.737 136.862 186.556 136.862C187.307 136.862 187.877 137.226 187.877 138.308V138.433C185.509 138.672 183.745 139.082 183.745 140.573C183.745 141.688 184.689 142.371 185.93 142.371Z" fill="black"/>
<rect x="228.121" y="112.888" width="104.179" height="49.9121" rx="8.03953" fill="white"/>
<path fill-rule="evenodd" clip-rule="evenodd" d="M279.577 126.682C278.997 126.873 278.503 127.277 278.259 127.757C278.164 127.944 274.679 137.422 273.58 140.484L273.505 140.692L273.682 140.765C273.78 140.805 274.376 141.05 275.008 141.311C275.639 141.572 276.165 141.776 276.176 141.765C276.187 141.754 276.431 141.06 276.719 140.223C277.006 139.387 277.255 138.68 277.272 138.653C277.314 138.585 283.106 138.589 283.148 138.656C283.166 138.685 283.414 139.391 283.7 140.225C283.986 141.059 284.23 141.753 284.244 141.766C284.257 141.78 284.413 141.728 284.589 141.651C284.765 141.574 285.342 141.335 285.871 141.121C286.4 140.906 286.849 140.714 286.869 140.694C286.902 140.661 286.795 140.351 286.121 138.522C285.988 138.16 285.071 135.647 284.083 132.937C283.096 130.227 282.227 127.89 282.152 127.742C281.959 127.363 281.582 127.011 281.155 126.812C280.841 126.665 280.712 126.638 280.291 126.625C279.987 126.615 279.712 126.638 279.577 126.682ZM280.264 130.189C280.264 130.199 280.588 131.155 280.983 132.311C282.167 135.77 282.243 135.997 282.243 136.067C282.243 136.119 281.781 136.135 280.209 136.138C278.463 136.141 278.175 136.13 278.175 136.062C278.175 136.018 278.471 135.124 278.832 134.075C279.194 133.026 279.641 131.718 279.828 131.168C280.014 130.619 280.188 130.169 280.215 130.169C280.242 130.169 280.264 130.178 280.264 130.189ZM273.186 146.093L273.008 146.115V147.591V149.066H280.21H287.412L287.397 147.574L287.383 146.081L280.374 146.076C276.519 146.073 273.285 146.081 273.186 146.093Z" fill="#D9251B"/>
<rect width="339" height="169.5" transform="translate(0 174.5)" fill="black"/>
<rect x="6.69922" y="181.2" width="162.8" height="156.101" rx="11.8012" fill="#7369B5"/>
<path d="M15.4147 196.807C15.4147 200.566 18.5164 202.321 21.6494 203.01L24.4692 203.605C27.2889 204.263 29.3567 205.203 29.3567 207.616C29.3567 209.871 27.4456 211.438 24.0619 211.438C20.5529 211.438 18.3911 209.809 17.7958 206.676H14.6627C15.258 211.187 18.6417 214.132 23.9992 214.132C28.5108 214.132 32.6464 211.751 32.6464 207.334C32.6464 202.759 28.4795 201.444 25.0018 200.692L22.37 200.096C20.2396 199.626 18.673 198.624 18.673 196.619C18.673 194.081 21.7434 193.298 23.4979 193.298C25.7537 193.298 28.3855 194.206 29.1374 196.807H32.2391C31.3306 192.452 27.7276 190.603 23.6233 190.603C19.9576 190.603 15.4147 192.452 15.4147 196.807ZM49.6048 206.237C49.9495 200.88 46.9104 196.587 41.7409 196.587C37.1353 196.587 33.5636 199.971 33.5636 205.329C33.5636 210.31 36.5087 214.132 41.8348 214.132C45.9391 214.132 48.6336 211.72 49.3855 208.838H46.4404C45.7198 210.498 44.3413 211.626 41.8348 211.626C39.3597 211.626 36.728 209.871 36.634 206.237H49.6048ZM41.7409 199.031C44.7799 199.031 46.5031 201.412 46.5971 203.793H36.6653C36.916 200.41 39.2344 199.031 41.7409 199.031ZM54.0555 191.01H51.2044V213.725H54.0555V191.01ZM71.7369 206.237C72.0815 200.88 69.0425 196.587 63.8729 196.587C59.2673 196.587 55.6957 199.971 55.6957 205.329C55.6957 210.31 58.6407 214.132 63.9669 214.132C68.0712 214.132 70.7656 211.72 71.5176 208.838H68.5725C67.8519 210.498 66.4734 211.626 63.9669 211.626C61.4918 211.626 58.86 209.871 58.766 206.237H71.7369ZM63.8729 199.031C66.912 199.031 68.6352 201.412 68.7291 203.793H58.7974C59.048 200.41 61.3665 199.031 63.8729 199.031ZM80.4761 196.587C75.4946 196.587 72.3302 200.316 72.3302 205.329C72.3302 210.467 75.3379 214.132 80.1942 214.132C84.1418 214.132 87.1182 211.407 87.7135 208.242H84.7684C84.3611 209.997 82.7006 211.626 80.2881 211.626C77.7817 211.626 75.4319 209.558 75.4319 205.297C75.4319 201.068 77.7817 199.094 80.2881 199.094C82.5126 199.094 84.2358 200.504 84.6431 202.509H87.5255C87.1182 199.626 84.6118 196.587 80.4761 196.587ZM90.0207 196.869H87.3576V199.156H90.0207V209.495C90.0207 213.004 90.7726 213.725 93.9997 213.725H96.0675V211.344H94.6263C92.9971 211.344 92.8718 210.905 92.8718 209.151V199.156H96.0675V196.869H92.8718V192.64H90.0207V196.869ZM112.4 206.237C112.745 200.88 109.706 196.587 104.536 196.587C99.9309 196.587 96.3592 199.971 96.3592 205.329C96.3592 210.31 99.3043 214.132 104.63 214.132C108.735 214.132 111.429 211.72 112.181 208.838H109.236C108.515 210.498 107.137 211.626 104.63 211.626C102.155 211.626 99.5236 209.871 99.4296 206.237H112.4ZM104.536 199.031C107.576 199.031 109.299 201.412 109.393 203.793H99.461C99.7116 200.41 102.03 199.031 104.536 199.031ZM116.851 191.01H114V213.725H116.851V191.01Z" fill="black"/>
<rect x="16.6758" y="300.531" width="87.7643" height="26.5096" rx="6.96233" fill="#FDC73B"/>
<path d="M30.417 308.51C28.3562 308.51 27.0472 309.596 27.0472 311.086C27.0472 311.921 27.4371 312.854 28.4397 313.411C27.1169 313.926 26.727 315.04 26.727 315.946C26.727 317.881 28.3422 318.967 30.417 318.967C32.4779 318.967 34.0931 317.881 34.0931 315.946C34.0931 315.026 33.6893 313.926 32.3943 313.411C33.3969 312.854 33.7868 311.921 33.7868 311.086C33.7868 309.596 32.4779 308.51 30.417 308.51ZM30.417 313.94C31.8513 313.94 32.7564 314.762 32.7564 315.946C32.7564 317.129 31.8513 317.909 30.417 317.909C28.9688 317.909 28.0777 317.129 28.0777 315.946C28.0777 314.762 28.9688 313.94 30.417 313.94ZM32.5057 311.239C32.5057 312.255 31.6842 313.007 30.417 313.007C29.1499 313.007 28.3144 312.255 28.3144 311.239C28.3144 310.236 29.1359 309.568 30.417 309.568C31.6842 309.568 32.5057 310.236 32.5057 311.239ZM37.4807 311.295V318.786H40.9619C42.5632 318.786 43.7747 318.16 43.7747 316.6C43.7747 315.597 43.2038 315.068 42.424 314.845C43.1202 314.553 43.4683 313.996 43.4683 313.202C43.4683 311.685 42.243 311.295 40.7391 311.295H37.4807ZM38.7479 314.442V312.395H40.6138C41.5607 312.395 42.1455 312.562 42.1455 313.342C42.1455 314.191 41.5885 314.442 40.6556 314.442H38.7479ZM38.7479 315.486H40.7252C41.8949 315.486 42.4518 315.751 42.4518 316.586C42.4518 317.366 41.8809 317.686 40.767 317.686H38.7479V315.486ZM49.0743 315.653C49.0743 317.422 47.9464 317.965 46.7628 317.965C45.8577 317.965 45.3147 317.491 45.3147 316.781C45.3147 315.751 46.7768 315.402 49.0743 315.18V315.653ZM46.4843 318.967C47.8211 318.967 48.587 318.535 49.0465 317.756C49.0604 318.201 49.1022 318.508 49.144 318.786H50.425C50.2719 318.076 50.2162 317.227 50.2301 315.959L50.244 314.233C50.2579 312.116 49.3389 311.141 47.2641 311.141C45.816 311.141 44.3678 312.047 44.2564 313.662H45.5653C45.621 312.729 46.2198 312.172 47.278 312.172C48.2249 312.172 48.9769 312.618 48.9769 313.996V314.177C45.9134 314.511 43.9083 315.04 43.9083 316.809C43.9083 318.187 45.078 318.967 46.4843 318.967ZM56.1842 318.786H57.7577L54.6385 314.832L57.4652 311.295H55.9614L53.5803 314.358H52.6473V311.295H51.3662V318.786H52.6473V315.458H53.6081L56.1842 318.786ZM62.6063 315.653C62.6063 317.422 61.4784 317.965 60.2948 317.965C59.3897 317.965 58.8466 317.491 58.8466 316.781C58.8466 315.751 60.3087 315.402 62.6063 315.18V315.653ZM60.0163 318.967C61.3531 318.967 62.1189 318.535 62.5784 317.756C62.5924 318.201 62.6341 318.508 62.6759 318.786H63.957C63.8038 318.076 63.7481 317.227 63.762 315.959L63.776 314.233C63.7899 312.116 62.8708 311.141 60.7961 311.141C59.3479 311.141 57.8997 312.047 57.7883 313.662H59.0973C59.153 312.729 59.7517 312.172 60.81 312.172C61.7569 312.172 62.5088 312.618 62.5088 313.996V314.177C59.4454 314.511 57.4402 315.04 57.4402 316.809C57.4402 318.187 58.6099 318.967 60.0163 318.967ZM71.1364 318.786V311.295H69.8693V314.414H66.1653V311.295H64.8982V318.786H66.1653V315.514H69.8693V318.786H71.1364ZM75.4749 311.169C73.2608 311.169 71.8544 312.826 71.8544 315.054C71.8544 317.338 73.1912 318.967 75.3495 318.967C77.104 318.967 78.4269 317.756 78.6914 316.349H77.3825C77.2015 317.129 76.4635 317.853 75.3913 317.853C74.2773 317.853 73.233 316.934 73.233 315.04C73.233 313.161 74.2773 312.283 75.3913 312.283C76.38 312.283 77.1458 312.91 77.3268 313.801H78.6079C78.4269 312.52 77.3129 311.169 75.4749 311.169ZM84.493 318.786H85.7602V311.295H84.493L80.622 316.948V311.295H79.3548V318.786H80.622L84.493 313.133V318.786ZM91.5564 308.691C91.5007 309.136 91.1526 309.54 90.3311 309.54C89.5095 309.54 89.1753 309.136 89.1196 308.691H88.131C88.2006 309.526 88.7854 310.376 90.3171 310.376C91.9045 310.376 92.4337 309.526 92.5451 308.691H91.5564ZM92.2109 318.786H93.478V311.295H92.2109L88.3398 316.948V311.295H87.0727V318.786H88.3398L92.2109 313.133V318.786Z" fill="black"/>
<circle cx="254.254" cy="259.25" r="78.0504" fill="#487C49"/>
<path d="M257.43 277.692V262.012H273.11V256.046H257.43V240.783H251.117V256.046H235.438V262.012H251.117V277.692H257.43Z" fill="black"/>
</svg>
