<svg width="975" height="167" viewBox="0 0 975 167" fill="none" xmlns="http://www.w3.org/2000/svg">
<path d="M8.44128 5.324L2 41.1654L5.48177 42.2854C10.7044 19.8846 19.4089 10.9242 28.1133 10.9242H38.5586V143.089C38.5586 154.29 36.8177 157.65 27.2429 157.65H25.502V162.13H62.0606V157.65H60.3197C50.7448 157.65 49.0039 154.29 49.0039 143.089V10.9242H59.4493C68.1537 10.9242 76.8581 19.8846 82.0808 42.2854L85.5626 41.1654L79.1213 5.324H8.44128Z" fill="#2F807F"/>
<path d="M101.197 138.609C99.2816 149.362 96.8443 157.65 86.399 157.65V162.13H115.124V157.65H114.253C103.808 157.65 103.286 151.378 105.549 139.281L111.12 109.488H139.67L146.111 143.089C148.2 154.066 147.33 157.65 138.626 157.65H137.755V162.13H169.962V157.65C160.387 157.65 158.646 153.17 156.209 140.401L130.269 3.08391H126.788L101.197 138.609ZM125.395 33.7731L138.626 103.888H112.164L125.395 33.7731Z" fill="#2F807F"/>
<path d="M322.461 83.7271C322.461 136.369 339.87 165.49 360.761 165.49C381.651 165.49 399.06 136.369 399.06 83.7271C399.06 31.085 381.651 1.96387 360.761 1.96387C339.87 1.96387 322.461 31.085 322.461 83.7271ZM334.648 83.7271C334.648 31.085 346.834 7.56408 360.761 7.56408C374.688 7.56408 386.874 31.085 386.874 83.7271C386.874 136.369 374.688 159.89 360.761 159.89C346.834 159.89 334.648 136.369 334.648 83.7271Z" fill="#2F807F"/>
<path d="M567.823 5.324V9.80418H568.694C578.269 9.80418 580.01 13.1643 580.01 24.3647V143.089C580.01 154.29 578.269 157.65 568.694 157.65H567.823V162.13H600.9C625.273 162.13 646.163 148.69 646.163 120.689C646.163 92.6874 625.273 79.2469 600.9 79.2469H590.455V24.3647C590.455 14.2844 592.196 10.9242 601.771 10.9242H612.216C625.273 10.9242 634.848 19.8846 640.07 42.2854L643.552 41.1654L637.111 5.324H567.823ZM598.289 156.53C592.196 156.53 590.455 153.17 590.455 143.089V84.8471H600.9C616.568 84.8471 633.977 92.6874 633.977 120.689C633.977 148.69 616.568 156.53 600.9 156.53H598.289Z" fill="#2F807F"/>
<path d="M675.765 79.2469V24.3647C675.765 13.1643 677.506 9.80418 685.34 9.80418V5.324H655.745V9.80418C663.579 9.80418 665.32 13.1643 665.32 24.3647V143.089C665.32 154.29 663.579 157.65 655.745 157.65V162.13H681.858C699.267 162.13 708.842 146.45 708.842 120.689C708.842 94.9275 699.267 79.2469 681.858 79.2469H675.765ZM681.858 84.8471C690.563 84.8471 697.526 92.6874 697.526 120.689C697.526 148.69 690.563 156.53 681.858 156.53C676.636 156.53 675.765 153.17 675.765 143.089V84.8471H681.858ZM729.733 24.3647C729.733 13.1643 731.474 9.80418 739.307 9.80418V5.324H709.712V9.80418C717.546 9.80418 719.287 13.1643 719.287 24.3647V143.089C719.287 154.29 717.546 157.65 709.712 157.65V162.13H739.307V157.65C731.474 157.65 729.733 154.29 729.733 143.089V24.3647Z" fill="#2F807F"/>
<path d="M760.253 5.324V9.80418H761.993C771.568 9.80418 773.309 15.4044 773.309 24.3647V51.2458C773.309 116.208 768.957 157.65 758.512 157.65C754.856 157.65 755.9 154.066 755.9 148.018C755.9 142.193 753.289 138.609 748.937 138.609C745.455 138.609 741.973 142.417 741.973 149.81C741.973 158.098 746.325 165.49 754.682 165.49C773.135 165.49 777.661 133.009 777.661 50.1258V24.3647C777.661 14.2844 779.402 10.9242 788.977 10.9242H792.459C802.034 10.9242 803.775 14.2844 803.775 24.3647V143.089C803.775 154.29 802.034 157.65 792.459 157.65H791.589V162.13H826.406V157.65H825.536C815.961 157.65 814.22 154.29 814.22 143.089V24.3647C814.22 13.1643 815.961 9.80418 825.536 9.80418H826.406V5.324H760.253Z" fill="#2F807F"/>
<path d="M835.624 28.0919C822.003 42.2888 837.213 57.2306 846.521 62.9269C841.754 63.584 831.812 68.5789 830.178 83.3016C828.543 98.0243 838.578 103.896 843.799 104.991C838.351 111.827 836.534 119.232 836.307 122.08C836.307 147.713 856.058 152.752 866.955 158.887C880.122 163.926 913.404 169.666 941.191 152.314C968.978 134.962 953.677 111.345 942.553 101.705C950.726 101.705 967.616 97.4985 969.796 80.6726C971.975 63.8466 956.175 58.7638 948.002 58.3256C962.985 51.753 964.347 39.9223 964.347 34.0069C964.347 28.0915 960.942 12.3176 925.527 5.08774C890.111 -2.14215 852.65 10.3458 835.624 28.0919Z" stroke="#2F807F" stroke-width="2.5"/>
<path d="M895.647 114.987C885.673 114.449 884.492 91.8899 885.148 80.6775C886.461 70.8107 891.579 51.4806 901.552 53.0952C914.019 55.1134 913.363 78.6593 912.707 84.0412C912.05 89.4231 908.114 115.66 895.647 114.987Z" stroke="#2F807F" stroke-width="2.5"/>
<mask id="path-4-inside-1_750_21131" fill="white">
<path fill-rule="evenodd" clip-rule="evenodd" d="M250.137 29.9675C250.137 37.9194 245.903 45.0962 239.106 50.1884C242.918 54.4412 245.128 59.4996 245.128 64.9277C245.128 65.7015 245.083 66.4678 244.995 67.2253C261.429 37.6184 256.525 13.1574 251.773 5.81445H300.595C311.445 19.3745 322.366 56.156 280.805 84.632C297.496 85.2676 327.873 106.243 315.855 162.178H247.631C253.264 152.432 262.277 127.092 253.264 111.328C253.221 111.32 253.177 111.311 253.132 111.302C251.596 116.972 247.809 122.071 242.461 126.108C244.696 129.37 246.062 133.077 246.313 137.06C247.241 151.774 232.612 164.703 213.639 165.937C194.665 167.171 178.531 156.244 177.603 141.53C177.265 136.183 178.983 131.071 182.217 126.67C174.678 121.269 170.02 113.825 170.02 105.607C170.02 97.7147 174.315 90.5374 181.332 85.1967C173.614 80.1956 168.766 72.9669 168.766 64.9277C168.766 56.2474 174.418 48.5122 183.232 43.5056C180.396 39.4942 178.781 34.8787 178.781 29.9675C178.781 14.5215 194.755 2 214.459 2C234.163 2 250.137 14.5215 250.137 29.9675Z"/>
</mask>
<path d="M239.106 50.1884L237.607 48.1876L235.423 49.8243L237.245 51.857L239.106 50.1884ZM244.995 67.2253L242.512 66.9366L247.181 68.4386L244.995 67.2253ZM251.773 5.81445V3.31445H247.178L249.674 7.17266L251.773 5.81445ZM300.595 5.81445L302.547 4.2526L301.797 3.31445H300.595V5.81445ZM280.805 84.632L279.392 82.5696L273.155 86.8425L280.71 87.1302L280.805 84.632ZM315.855 162.178V164.678H317.875L318.3 162.703L315.855 162.178ZM247.631 162.178L245.466 160.927L243.298 164.678H247.631V162.178ZM253.264 111.328L255.434 110.087L254.863 109.088L253.732 108.872L253.264 111.328ZM253.132 111.302L253.627 108.852L251.331 108.389L250.719 110.648L253.132 111.302ZM242.461 126.108L240.954 124.112L239.048 125.551L240.398 127.521L242.461 126.108ZM246.313 137.06L248.808 136.903L248.808 136.903L246.313 137.06ZM213.639 165.937L213.801 168.432L213.801 168.432L213.639 165.937ZM177.603 141.53L180.098 141.373L177.603 141.53ZM182.217 126.67L184.232 128.151L185.73 126.112L183.673 124.638L182.217 126.67ZM181.332 85.1967L182.847 87.1861L185.676 85.0324L182.692 83.0987L181.332 85.1967ZM183.232 43.5056L184.467 45.6793L186.867 44.316L185.274 42.0623L183.232 43.5056ZM240.605 52.1891C247.894 46.7284 252.637 38.8648 252.637 29.9675H247.637C247.637 36.974 243.912 43.4639 237.607 48.1876L240.605 52.1891ZM247.628 64.9277C247.628 58.7852 245.12 53.1521 240.968 48.5198L237.245 51.857C240.716 55.7303 242.628 60.214 242.628 64.9277H247.628ZM247.479 67.514C247.578 66.6611 247.628 65.7984 247.628 64.9277H242.628C242.628 65.6045 242.589 66.2744 242.512 66.9366L247.479 67.514ZM247.181 68.4386C255.595 53.2796 258.585 39.3648 258.828 28.2254C259.069 17.1804 256.607 8.6829 253.872 4.45625L249.674 7.17266C251.691 10.289 254.057 17.6934 253.829 28.1164C253.604 38.445 250.829 51.5641 242.809 66.012L247.181 68.4386ZM251.773 8.31445H300.595V3.31445H251.773V8.31445ZM298.643 7.37631C303.712 13.7116 308.917 25.6814 307.861 39.4385C306.817 53.0538 299.617 68.7124 279.392 82.5696L282.218 86.6943C303.554 72.0756 311.674 55.1054 312.847 39.821C314.009 24.6783 308.328 11.4774 302.547 4.2526L298.643 7.37631ZM280.71 87.1302C295.476 87.6925 325.186 106.849 313.411 161.653L318.3 162.703C330.56 105.638 299.516 82.8427 280.9 82.1338L280.71 87.1302ZM315.855 159.678H247.631V164.678H315.855V159.678ZM249.795 163.429C252.749 158.319 256.51 149.285 258.395 139.482C260.267 129.742 260.383 118.741 255.434 110.087L251.094 112.569C255.159 119.679 255.274 129.23 253.485 138.538C251.708 147.782 248.146 156.291 245.466 160.927L249.795 163.429ZM253.732 108.872C253.698 108.866 253.663 108.859 253.627 108.852L252.638 113.753C252.691 113.764 252.744 113.774 252.797 113.784L253.732 108.872ZM243.967 128.103C249.658 123.807 253.834 118.271 255.545 111.956L250.719 110.648C249.357 115.674 245.96 120.334 240.954 124.112L243.967 128.103ZM248.808 136.903C248.526 132.435 246.993 128.299 244.523 124.695L240.398 127.521C242.399 130.441 243.597 133.718 243.818 137.218L248.808 136.903ZM213.801 168.432C233.525 167.149 249.858 153.545 248.808 136.903L243.818 137.218C244.625 150.004 231.7 162.257 213.476 163.442L213.801 168.432ZM175.107 141.688C176.158 158.336 194.077 169.715 213.801 168.432L213.476 163.442C195.252 164.628 180.904 154.152 180.098 141.373L175.107 141.688ZM180.203 125.19C176.668 129.999 174.729 135.68 175.107 141.688L180.098 141.373C179.802 136.685 181.298 132.142 184.232 128.151L180.203 125.19ZM167.52 105.607C167.52 114.841 172.759 122.969 180.761 128.703L183.673 124.638C176.598 119.569 172.52 112.81 172.52 105.607H167.52ZM179.818 83.2074C172.351 88.8906 167.52 96.7416 167.52 105.607H172.52C172.52 98.6878 176.28 92.1841 182.847 87.1861L179.818 83.2074ZM166.266 64.9277C166.266 74.0516 171.769 81.9786 179.973 87.2948L182.692 83.0987C175.46 78.4125 171.266 71.8823 171.266 64.9277H166.266ZM181.998 41.3318C172.676 46.6267 166.266 55.0713 166.266 64.9277H171.266C171.266 57.4235 176.16 50.3978 184.467 45.6793L181.998 41.3318ZM176.281 29.9675C176.281 35.4461 178.087 40.5585 181.191 44.9488L185.274 42.0623C182.705 38.4299 181.281 34.3113 181.281 29.9675H176.281ZM214.459 -0.5C193.975 -0.5 176.281 12.6081 176.281 29.9675H181.281C181.281 16.4349 195.534 4.5 214.459 4.5V-0.5ZM252.637 29.9675C252.637 12.6081 234.943 -0.5 214.459 -0.5V4.5C233.384 4.5 247.637 16.4349 247.637 29.9675H252.637Z" fill="#2F807F" mask="url(#path-4-inside-1_750_21131)"/>
<path d="M516.998 7.18898V33.3378C496.78 29.3148 475.927 31.9969 464.554 36.0198C453.181 40.0427 428.539 54.1228 431.698 70.8849C431.842 71.6454 432.014 72.3838 432.213 73.1004C438.11 68.5872 445.087 64.2474 453.182 60.1572C479.719 46.7475 502.466 53.4524 510.048 55.4638C517.63 57.4753 539.745 76.9192 516.998 97.7042C494.252 118.489 468.978 121.842 453.182 120.501C447.518 120.02 439.905 116.695 432.469 111.699C431.46 114.824 432.447 118.869 433.066 120.501C434.962 127.205 446.231 134.581 470.873 136.592C490.586 138.201 509.837 133.687 516.998 131.228V156.036C510.048 158.495 493.114 163.68 480.982 164.752C465.818 166.093 439.913 162.07 421.59 150.672C403.266 139.274 404.53 121.842 408.321 105.75C409.282 101.672 410.932 97.5932 413.294 93.5584C409.107 87.7076 406.425 81.4978 406.425 75.5783C406.425 55.4638 409.781 37.7312 441.809 18.5872C467.812 3.04402 502.044 3.38958 516.998 7.18898Z" stroke="#2F807F" stroke-width="2.5"/>
<path d="M494.681 83.642C495.323 82.9367 496.607 78 479.914 78C464.756 78 460.273 82.6525 449 90.3733C455.419 92.6592 463.01 93.3899 470.926 92.8102C490.187 91.3997 494.039 84.3472 494.681 83.642Z" stroke="#2F807F" stroke-width="2.5"/>
</svg>
