<svg width="27" height="26" viewBox="0 0 27 26" fill="none" xmlns="http://www.w3.org/2000/svg">
<g clip-path="url(#clip0_624_20879)">
<path d="M13.6201 25.1348C13.8886 25.1348 14.1165 25.0452 14.3037 24.8662C14.499 24.6953 14.617 24.4674 14.6577 24.1826C14.8774 22.555 15.1175 21.1878 15.3779 20.0811C15.6464 18.9661 15.9923 18.0547 16.4155 17.3467C16.8468 16.6305 17.4124 16.0609 18.1123 15.6377C18.8203 15.2145 19.7154 14.8849 20.7978 14.6489C21.8883 14.4048 23.2229 14.1932 24.8017 14.0142C25.0865 13.9816 25.3225 13.8677 25.5097 13.6724C25.705 13.4771 25.8027 13.241 25.8027 12.9644C25.8027 12.6877 25.705 12.4517 25.5097 12.2563C25.3225 12.061 25.0906 11.943 24.8139 11.9023C23.227 11.7233 21.8924 11.5158 20.81 11.2798C19.7277 11.0356 18.8365 10.702 18.1367 10.2788C17.4368 9.85563 16.8712 9.29004 16.4399 8.58203C16.0086 7.86588 15.6586 6.95443 15.3901 5.84766C15.1297 4.73275 14.8855 3.36149 14.6577 1.73389C14.6088 1.44906 14.4868 1.22119 14.2915 1.05029C14.1043 0.879395 13.8805 0.793945 13.6201 0.793945C13.3515 0.793945 13.1196 0.879395 12.9243 1.05029C12.7371 1.22119 12.6191 1.44906 12.5703 1.73389C12.3505 3.36149 12.1105 4.73275 11.8501 5.84766C11.5896 6.96256 11.2438 7.87809 10.8125 8.59424C10.3812 9.30225 9.81153 9.86784 9.10352 10.291C8.40365 10.7142 7.51253 11.0479 6.43017 11.292C5.34781 11.528 4.01319 11.7314 2.42627 11.9023C2.14144 11.943 1.90543 12.061 1.71826 12.2563C1.53109 12.4517 1.4375 12.6877 1.4375 12.9644C1.4375 13.241 1.52702 13.4771 1.70605 13.6724C1.89322 13.8677 2.13331 13.9816 2.42627 14.0142C3.74463 14.1932 4.88395 14.3844 5.84423 14.5879C6.81266 14.7832 7.63867 15.0273 8.32226 15.3203C9.00585 15.6133 9.57552 15.9917 10.0312 16.4556C10.487 16.9113 10.8654 17.485 11.1665 18.1768C11.4757 18.8604 11.7361 19.6945 11.9477 20.6792C12.1674 21.6639 12.375 22.8317 12.5703 24.1826C12.6191 24.4674 12.7371 24.6953 12.9243 24.8662C13.1196 25.0452 13.3515 25.1348 13.6201 25.1348Z" fill="#2F807F"/>
</g>
<defs>
<clipPath id="clip0_624_20879">
<rect width="26" height="25" fill="white" transform="translate(0.667969 0.5)"/>
</clipPath>
</defs>
</svg>
