<svg width="1251" height="551" viewBox="0 0 1251 551" fill="none" xmlns="http://www.w3.org/2000/svg">
<g clip-path="url(#clip0_1709_79442)">
<path fill-rule="evenodd" clip-rule="evenodd" d="M420.134 19.5407C424.55 8.99563 432.465 0 445.803 0C462.267 0 474.528 12.869 481.582 30.8105C488.668 48.834 490.802 72.5748 486.75 95.7938C485.12 105.138 482.444 111.729 479.024 116.135C475.56 120.597 471.374 122.758 466.985 123.242C462.667 123.718 458.334 122.555 454.49 120.724C451.43 119.266 448.598 117.347 446.208 115.355C441.687 121.786 436.646 124.443 431.867 124.757C429.113 124.938 426.584 124.331 424.453 123.376C424.71 125.491 424.59 127.443 424.143 129.237C423.356 132.392 421.599 134.884 419.43 136.801C417.618 138.402 415.497 139.623 413.338 140.53C413.49 140.631 413.639 140.736 413.785 140.844C416.026 142.52 417.222 144.915 417.773 147.411C418.273 149.68 418.268 152.144 417.981 154.511C422.338 151.039 426.639 150.079 430.585 150.804C434.097 151.449 437.04 153.384 439.234 155.539C443.44 138.252 450.617 130.918 458.804 129.925C463.06 129.409 467.214 130.693 470.783 132.654C474.345 134.612 477.466 137.32 479.756 139.916C485.481 145.879 489.383 155.066 491.363 165.631C493.354 176.252 493.441 188.455 491.361 200.617C487.211 224.887 474.335 249.425 450.142 260.651C438.335 266.13 429.297 268.462 422.423 268.35C415.43 268.236 410.63 265.579 407.645 261.21C404.752 256.974 403.745 251.388 403.646 245.689C403.585 242.214 403.862 238.599 404.31 235.067C396.272 243.973 387.915 252.577 379.455 257.482C374.382 260.424 369.103 262.142 363.707 261.69C358.273 261.235 353.009 258.603 347.953 253.393C342.933 248.219 340.348 243.061 339.872 237.887C339.397 232.721 341.054 227.839 343.939 223.267C345.477 220.83 347.393 218.439 349.581 216.09C348.214 216.509 346.844 216.846 345.479 217.088C340.201 218.024 334.865 217.556 330.142 214.721C325.422 211.888 321.584 206.854 318.981 199.19C316.362 191.479 316.387 184.819 318.284 179.062C320.172 173.333 323.854 168.677 328.254 164.846C334.887 159.072 343.416 154.972 350.447 151.815C337.874 148.981 330.071 142.377 325.529 134.775C320.294 126.012 319.512 116.129 320.392 109.65L320.431 109.363L320.55 109.099C323.834 101.801 331.118 91.7371 341.345 86.9909C346.51 84.5934 352.435 83.5536 358.904 84.9452C363.677 85.9719 368.656 88.3022 373.783 92.2546C373.184 90.5148 372.573 88.838 371.971 87.2073C371.761 86.6396 371.552 86.0761 371.344 85.5167L371.331 85.4815C370.219 82.4882 369.15 79.6106 368.285 76.8206C366.208 70.1166 365.216 63.6399 367.432 56.2871C370.679 45.5129 374.731 38.4498 379.353 34.3201C384.072 30.1039 389.272 29.0537 394.347 30.0956C399.306 31.1136 404.024 34.0955 408.098 37.6969C410.571 39.8831 412.86 42.3438 414.878 44.8379C415.237 37.1475 416.702 27.7385 420.134 19.5407ZM361.331 210.617C366.03 207.725 370.326 204.267 373.777 200.94L371.195 197.896C367.051 200.979 362.876 204.131 358.985 207.363C354.402 210.153 349.499 212.313 344.78 213.15C340.179 213.966 335.885 213.503 332.201 211.291C328.513 209.078 325.162 204.95 322.768 197.903C320.391 190.903 320.493 185.14 322.083 180.314C323.682 175.462 326.844 171.377 330.88 167.863C337.839 161.805 347.048 157.707 354.51 154.387L354.515 154.384C355.797 153.814 357.028 153.266 358.187 152.736L364.826 149.695L357.564 148.928C342.158 147.302 333.575 140.444 328.963 132.724C324.364 125.025 323.595 116.262 324.318 110.475C327.419 103.734 334.085 94.7701 343.029 90.6192C347.507 88.5408 352.547 87.6692 358.063 88.8557C363.597 90.0463 369.776 93.3451 376.44 99.8914L381.826 105.181L379.766 97.9188C378.506 93.4756 377.077 89.4858 375.723 85.8211C375.503 85.2251 375.285 84.6391 375.071 84.0619C373.959 81.0672 372.935 78.3115 372.106 75.6365C370.147 69.3155 369.368 63.7243 371.262 57.4414C374.411 46.9933 378.18 40.7323 382.018 37.303C385.76 33.9604 389.661 33.217 393.543 34.0139C397.541 34.8347 401.637 37.3242 405.449 40.6938C409.239 44.0441 412.609 48.1415 415.157 51.9478L419.032 57.7357L418.818 50.7738C418.574 42.813 419.709 30.9121 423.824 21.0856C427.928 11.2828 434.755 4 445.803 4C459.82 4 471.046 14.9457 477.859 32.2741C484.64 49.5204 486.754 72.5046 482.81 95.1062C481.242 104.091 478.738 109.98 475.864 113.682C473.033 117.329 469.811 118.906 466.546 119.266C463.21 119.634 459.643 118.748 456.21 117.112C452.789 115.482 449.628 113.168 447.168 110.87L445.38 109.2L444.099 111.284C439.745 118.365 435.224 120.528 431.605 120.766C427.86 121.012 424.552 119.238 422.677 117.497L419.436 119.645C420.728 123.207 420.819 126.032 420.261 128.269C419.704 130.505 418.456 132.323 416.782 133.803C413.365 136.823 408.303 138.3 404.622 138.678L404.964 142.663C408.132 142.445 410.123 143.102 411.39 144.048C412.657 144.996 413.46 146.428 413.867 148.273C414.704 152.07 413.721 157.008 412.444 160.475L415.901 162.392C421.397 155.304 426.252 154.075 429.863 154.738C433.699 155.443 436.889 158.404 438.634 161.059L441.312 165.133L442.267 160.352C446.23 140.509 453.257 134.628 459.286 133.896C462.441 133.513 465.742 134.448 468.856 136.16C471.963 137.867 474.743 140.274 476.782 142.592L476.812 142.626L476.843 142.658C481.844 147.85 485.527 156.208 487.432 166.368C489.329 176.49 489.424 188.215 487.418 199.943C483.398 223.452 471.038 246.545 448.458 257.023C436.879 262.396 428.485 264.448 422.488 264.35C416.611 264.254 413.103 262.108 410.948 258.953C408.702 255.666 407.739 251.009 407.645 245.62C407.552 240.268 408.318 234.451 409.293 229.047L410.557 222.044L405.83 227.363C396.294 238.093 386.83 248.582 377.448 254.022C372.802 256.716 368.348 258.065 364.041 257.704C359.771 257.346 355.363 255.285 350.824 250.607C346.25 245.893 344.225 241.545 343.855 237.521C343.485 233.49 344.746 229.483 347.322 225.402C350.486 220.388 355.479 215.49 361.331 210.617ZM512.253 225.305L546.375 8.78906H551.017L585.604 228.168C587.306 239.143 589.24 246.539 591.407 250.357C593.461 253.524 596.971 255.29 601.935 255.654C605.331 255.334 607.434 253.926 608.243 251.43C609.171 248.567 609.636 242.245 609.636 232.463V42.7875C609.636 35.8685 609.481 31.0968 609.171 28.4724C609.017 25.8479 608.243 23.7007 606.85 22.0305C605.612 20.3605 603.446 19.5254 600.351 19.5254V12.3678H632.848V19.5254C628.515 19.5254 625.884 20.9569 624.956 23.8199C624.027 26.683 623.563 33.0055 623.563 42.7875V232.463C623.563 242.006 623.95 247.971 624.724 250.357C625.652 252.743 628.36 253.935 632.848 253.935H640.972C645.46 253.935 648.091 252.743 648.864 250.357C649.793 247.971 650.257 242.006 650.257 232.463V42.7875C650.257 35.8685 650.102 31.0968 649.793 28.4724C649.638 25.8479 648.864 23.7007 647.472 22.0305C646.234 20.3605 644.067 19.5254 640.972 19.5254V12.3678H673.469V19.5254C669.137 19.5254 666.506 20.9569 665.577 23.8199C664.649 26.683 664.185 33.0055 664.185 42.7875V232.463C664.185 242.006 664.571 247.971 665.345 250.357C666.274 252.743 668.982 253.935 673.469 253.935H681.594C686.082 253.935 688.712 252.743 689.486 250.357C690.414 247.971 690.879 242.006 690.879 232.463V42.7875C690.879 35.8685 690.724 31.0968 690.414 28.4724C690.26 25.8479 689.486 23.7007 688.093 22.0305C686.855 20.3605 684.689 19.5254 681.594 19.5254V12.3678H714.091V19.5254C709.758 19.5254 707.127 20.9569 706.199 23.8199C705.27 26.683 704.806 33.0055 704.806 42.7875V232.463C704.806 239.382 704.884 244.153 705.038 246.778C705.348 249.402 706.122 251.55 707.359 253.22C708.495 254.582 710.197 255.388 712.465 255.64C717.78 255.163 721.613 252.686 723.964 248.209C726.594 243.199 728.683 235.564 730.231 225.305L764.353 8.78906H768.995L803.582 228.168C805.284 239.143 807.218 246.539 809.385 250.357C811.706 253.935 815.884 255.725 821.919 255.725V262.882H778.977V255.725H780.137C785.708 255.725 789.113 254.055 790.351 250.715C791.744 247.374 791.666 241.29 790.119 232.463L781.53 178.781H743.462L736.034 226.379C734.177 235.922 734.022 243.199 735.57 248.209C737.117 253.22 741.141 255.725 747.64 255.725H748.801V262.882H714.091H710.5H603.941H600.351H560.999V255.725H562.159C567.73 255.725 571.135 254.055 572.373 250.715C573.765 247.374 573.688 241.29 572.14 232.463L563.552 178.781H525.484L518.056 226.379C516.199 235.922 516.044 243.199 517.591 248.209C519.139 253.22 523.162 255.725 529.662 255.725H530.823V262.882H492.522V255.725C498.867 255.725 503.355 253.22 505.985 248.209C508.616 243.199 510.705 235.564 512.253 225.305ZM544.518 57.8184L526.876 169.834H562.159L544.518 57.8184ZM744.855 169.834L762.496 57.8184L780.137 169.834H744.855ZM0 293.117H92.3851L100.974 350.377L96.3311 352.167C89.8317 318.765 77.4518 302.064 59.1914 302.064H45.264C39.0741 302.064 34.9732 303.615 32.9615 306.716C31.1045 309.579 30.176 315.186 30.176 323.537V411.217H44.1034C61.4353 411.217 75.8269 416.943 87.2783 428.395C98.7298 439.847 104.455 456.19 104.455 477.424C104.455 498.658 98.7298 515.001 87.2783 526.453C75.8269 537.906 61.4353 543.632 44.1034 543.632H0V536.474H1.16062C7.35057 536.474 11.374 534.923 13.231 531.822C15.2428 528.72 16.2486 522.517 16.2486 513.212V323.537C16.2486 314.232 15.2428 308.029 13.231 304.927C11.374 301.825 7.35057 300.275 1.16062 300.275H0V293.117ZM40.6216 534.685H44.1034C49.6744 534.685 54.9358 533.73 59.8878 531.822C64.8398 529.913 69.4822 526.931 73.8152 522.875C78.3029 518.819 81.7848 512.973 84.2607 505.339C86.8915 497.465 88.2068 488.16 88.2068 477.424C88.2068 466.688 86.8915 457.502 84.2607 449.867C81.7848 441.994 78.3029 436.03 73.8152 431.974C69.4822 427.918 64.8398 424.935 59.8878 423.027C54.9358 421.118 49.6744 420.164 44.1034 420.164H30.176V513.212C30.176 521.324 30.8724 526.931 32.2651 530.032C33.8126 533.134 36.5981 534.685 40.6216 534.685ZM437.386 289.538L403.264 506.054C401.716 516.313 399.627 523.948 396.996 528.959C394.366 533.969 389.878 536.474 383.533 536.474V543.632H421.833V536.474H420.673C414.173 536.474 410.15 533.969 408.602 528.959C407.055 523.948 407.21 516.671 409.067 507.128L416.495 459.53H454.563L463.151 513.212C464.699 522.039 464.776 528.123 463.383 531.464C462.145 534.804 458.741 536.474 453.17 536.474H452.009V543.632H494.843H494.952H538.947C556.279 543.632 570.67 537.906 582.122 526.453C593.573 515.001 599.299 498.658 599.299 477.424C599.299 456.19 593.573 439.847 582.122 428.395C570.67 416.943 556.279 411.217 538.947 411.217H525.019V323.537C525.019 315.186 525.948 309.579 527.805 306.716C529.817 303.615 533.918 302.064 540.107 302.064H554.035C572.295 302.064 584.675 318.765 591.175 352.167L595.817 350.377L587.228 293.117H494.843V300.275H496.004C502.194 300.275 506.217 301.825 508.074 304.927C510.086 308.029 511.092 314.232 511.092 323.537V513.212C511.092 522.517 510.086 528.72 508.074 531.822C506.217 534.923 502.194 536.474 496.004 536.474H494.952C488.917 536.474 484.739 534.685 482.418 531.106C480.251 527.288 478.317 519.892 476.615 508.917L442.028 289.538H437.386ZM417.887 450.583L435.529 338.567L453.17 450.583H417.887ZM535.465 534.685H538.947C544.518 534.685 549.779 533.73 554.731 531.822C559.683 529.913 564.326 526.931 568.659 522.875C573.146 518.819 576.628 512.973 579.104 505.339C581.735 497.465 583.05 488.16 583.05 477.424C583.05 466.688 581.735 457.502 579.104 449.867C576.628 441.994 573.146 436.03 568.659 431.974C564.326 427.918 559.683 424.935 554.731 423.027C549.779 421.118 544.518 420.164 538.947 420.164H525.019V513.212C525.019 521.324 525.716 526.931 527.109 530.032C528.656 533.134 531.442 534.685 535.465 534.685ZM606.154 418.374C606.154 458.934 611.028 490.904 620.778 514.286C630.527 537.428 642.674 549 657.221 549C671.767 549 683.915 537.428 693.664 514.286C703.413 490.904 708.288 458.934 708.288 418.374C708.288 377.815 703.413 345.964 693.664 322.821C683.915 299.439 671.767 287.749 657.221 287.749C642.674 287.749 630.527 299.439 620.778 322.821C611.028 345.964 606.154 377.815 606.154 418.374ZM622.402 418.374C622.402 378.53 625.652 348.349 632.152 327.831C638.806 307.074 647.162 296.696 657.221 296.696C667.28 296.696 675.559 307.074 682.058 327.831C688.712 348.349 692.039 378.53 692.039 418.374C692.039 458.218 688.712 488.518 682.058 509.275C675.559 529.794 667.28 540.053 657.221 540.053C647.162 540.053 638.806 529.794 632.152 509.275C625.652 488.518 622.402 458.218 622.402 418.374ZM939.884 514.286C930.135 490.904 925.261 458.934 925.261 418.374C925.261 377.815 930.135 345.964 939.884 322.821C949.634 299.439 961.781 287.749 976.328 287.749C990.874 287.749 1003.02 299.439 1012.77 322.821C1022.52 345.964 1027.39 377.815 1027.39 418.374C1027.39 458.934 1022.52 490.904 1012.77 514.286C1003.02 537.428 990.874 549 976.328 549C961.781 549 949.634 537.428 939.884 514.286ZM951.258 327.831C944.759 348.349 941.509 378.53 941.509 418.374C941.509 458.218 944.759 488.518 951.258 509.275C957.913 529.794 966.269 540.053 976.328 540.053C986.386 540.053 994.666 529.794 1001.16 509.275C1007.82 488.518 1011.15 458.218 1011.15 418.374C1011.15 378.53 1007.82 348.349 1001.16 327.831C994.666 307.074 986.386 296.696 976.328 296.696C966.269 296.696 957.913 307.074 951.258 327.831ZM1034.25 536.474H1033.09V543.632H1083C1100.33 543.632 1113.95 537.428 1123.85 525.022C1133.75 512.615 1138.71 495.914 1138.71 474.919C1138.71 465.137 1137.31 456.19 1134.53 448.078C1131.74 439.728 1128.65 433.405 1125.24 429.111C1121.99 424.816 1118.12 421.118 1113.64 418.016C1109.3 414.676 1106.29 412.648 1104.58 411.932C1102.88 410.978 1101.49 410.382 1100.41 410.143V408.354L1103.89 407.28C1106.21 406.564 1108.99 405.013 1112.24 402.628C1115.65 400.003 1118.97 396.782 1122.22 392.965C1125.47 389.147 1128.26 383.66 1130.58 376.503C1132.9 369.345 1134.06 361.233 1134.06 352.167C1134.06 335.227 1129.58 321.151 1120.6 309.937C1111.62 298.724 1099.09 293.117 1083 293.117H1033.09V300.275H1034.25C1040.44 300.275 1044.46 301.825 1046.32 304.927C1048.33 308.029 1049.34 314.232 1049.34 323.537V513.212C1049.34 522.517 1048.33 528.72 1046.32 531.822C1044.46 534.923 1040.44 536.474 1034.25 536.474ZM1063.27 414.795H1083C1094.29 414.795 1103.65 420.164 1111.08 430.9C1118.67 441.636 1122.46 456.309 1122.46 474.919C1122.46 494.96 1118.82 509.991 1111.55 520.011C1104.27 529.794 1094.76 534.685 1083 534.685H1073.71C1069.69 534.685 1066.9 533.134 1065.35 530.032C1063.96 526.931 1063.27 521.324 1063.27 513.212V414.795ZM1073.71 302.064H1083C1093.36 302.064 1101.95 306.597 1108.76 315.663C1115.57 324.729 1118.97 337.494 1118.97 353.956C1118.97 370.18 1115.42 382.944 1108.3 392.249C1101.33 401.315 1092.9 405.848 1083 405.848H1063.27V323.537C1063.27 315.425 1063.96 309.818 1065.35 306.716C1066.9 303.615 1069.69 302.064 1073.71 302.064ZM1158.33 506.054L1192.45 289.538H1197.09L1231.68 508.917C1233.38 519.892 1235.31 527.288 1237.48 531.106C1239.8 534.685 1243.98 536.474 1250.02 536.474V543.632H1207.07V536.474H1208.23C1213.8 536.474 1217.21 534.804 1218.45 531.464C1219.84 528.123 1219.76 522.039 1218.21 513.212L1209.63 459.53H1171.56L1164.13 507.128C1162.27 516.671 1162.12 523.948 1163.67 528.959C1165.21 533.969 1169.24 536.474 1175.74 536.474H1176.9V543.632H1138.6V536.474C1144.94 536.474 1149.43 533.969 1152.06 528.959C1154.69 523.948 1156.78 516.313 1158.33 506.054ZM1190.59 338.567L1172.95 450.583H1208.23L1190.59 338.567ZM816.286 515.248C816.286 515.096 816.281 514.946 816.272 514.796C816.281 514.461 816.286 514.119 816.286 513.772C816.286 511.364 815.134 509.19 813.348 508.112C813.231 507.878 813.027 507.407 812.784 506.56C812.192 504.502 811.71 501.348 811.489 497.183C811.053 488.924 811.705 477.857 813.67 466.3C813.688 466.193 813.704 466.086 813.717 465.978C813.731 465.867 813.743 465.755 813.752 465.643C813.859 465.619 813.964 465.592 814.067 465.563C815.438 465.174 816.578 464.323 817.465 463.448C818.353 464.323 819.493 465.174 820.864 465.563C820.916 465.578 820.969 465.592 821.023 465.606C821.06 465.757 821.092 465.886 821.115 465.977L821.124 466.016C821.17 466.195 821.24 466.475 821.337 466.799C823.091 478.2 823.714 489.057 823.284 497.183C823.063 501.354 822.581 504.485 821.983 506.516C821.739 507.342 821.536 507.799 821.419 508.024C819.344 509.182 818.096 511.782 818.367 514.508C818.343 514.751 818.331 514.998 818.331 515.248V517.463C818.331 519.155 818.663 520.533 818.995 521.523C819.039 521.963 819.122 522.397 819.242 522.818C822.388 533.791 832.115 540.368 841.924 544.09C852.107 547.954 864.235 549.478 875.035 548.871C880.454 548.566 885.677 547.718 890.257 546.276C894.758 544.86 899.031 542.75 902.203 539.625C905.522 536.357 907.881 531.657 907.371 525.784C907.109 522.769 906.12 519.87 904.589 517.091C917.456 507.3 923.925 491.793 923.887 474.355C923.846 456.19 916.795 436.368 903.553 418.527C916.79 400.55 923.846 380.727 923.887 362.554C923.925 345.095 917.444 329.601 904.587 319.695C906.116 316.943 907.107 314.067 907.371 311.068C907.886 305.198 905.5 300.52 902.183 297.287C899.011 294.194 894.741 292.106 890.245 290.704C885.67 289.277 880.451 288.435 875.035 288.131C864.241 287.524 852.121 289.023 841.944 292.835C832.155 296.502 822.408 302.994 819.248 313.885C819.112 314.355 819.023 314.841 818.983 315.334C818.639 316.445 818.331 317.847 818.331 319.262V321.846C818.331 322.032 818.338 322.217 818.351 322.4C818.153 325.053 819.387 327.566 821.418 328.7C821.535 328.926 821.738 329.383 821.982 330.211C822.58 332.247 823.063 335.39 823.284 339.586C823.711 347.698 823.1 358.546 821.374 370.039C821.29 370.287 821.224 370.51 821.176 370.676C821.164 370.717 821.152 370.759 821.14 370.802C821.129 370.841 821.118 370.881 821.107 370.921C821.076 371.034 821.044 371.153 821.011 371.277C820.907 371.301 820.804 371.329 820.703 371.358C819.379 371.748 818.284 372.572 817.427 373.429C816.542 372.559 815.418 371.729 814.067 371.346C813.958 371.315 813.847 371.287 813.734 371.262C813.719 371.111 813.698 370.961 813.673 370.812C811.705 359.059 811.053 347.894 811.49 339.586C811.71 335.396 812.193 332.23 812.785 330.166C813.028 329.319 813.232 328.847 813.349 328.612C815.134 327.534 816.286 325.36 816.286 322.953C816.286 322.707 816.283 322.459 816.277 322.209C816.283 322.089 816.286 321.968 816.286 321.846V319.211V319.21C816.286 318.854 816.286 318.121 816.22 317.337C816.155 316.583 815.991 315.222 815.401 313.832C815.358 313.733 815.314 313.635 815.268 313.539C812.079 302.849 802.483 296.459 792.861 292.838C782.724 289.023 770.63 287.524 759.856 288.131C754.449 288.435 749.237 289.277 744.667 290.704C740.176 292.107 735.91 294.195 732.741 297.289C729.426 300.523 727.043 305.201 727.559 311.07C727.823 314.067 728.814 316.942 730.342 319.693C717.481 329.589 710.926 345.065 710.887 362.521C710.846 380.703 717.831 400.539 731.065 418.527C717.825 436.379 710.846 456.214 710.887 474.388C710.926 491.823 717.469 507.312 730.34 517.093C728.81 519.872 727.821 522.769 727.558 525.783C727.047 531.654 729.403 536.354 732.72 539.623C735.89 542.748 740.159 544.859 744.655 546.276C749.23 547.718 754.446 548.566 759.856 548.871C770.636 549.478 782.737 547.954 792.881 544.087C802.519 540.413 812.091 533.942 815.271 523.179C815.3 523.118 815.329 523.055 815.357 522.992C815.372 522.959 815.386 522.926 815.401 522.892C816.314 520.745 816.295 518.585 816.287 517.662C816.286 517.587 816.286 517.521 816.286 517.463V515.248ZM808.364 465.052C805.148 483.969 805.248 501.967 808.049 509.82C808.801 511.927 809.747 513.303 810.875 513.772C810.875 514.277 810.863 514.768 810.841 515.248C810.807 516.011 810.748 516.746 810.674 517.463C810.587 518.304 810.48 519.121 810.367 519.932L810.351 520.046C810.317 520.293 810.282 520.539 810.247 520.784C809.764 522.529 809.029 524.167 808.075 525.699C792.586 550.58 719.528 547.449 735.052 520.247C735.956 518.662 737.162 516.996 738.696 515.248C736.94 514.291 735.287 513.237 733.738 512.094C708.986 493.818 710.621 452.587 738.383 418.547C710.613 384.149 708.985 343.21 733.761 324.672C735.303 323.518 736.949 322.45 738.696 321.476C737.152 319.737 735.941 318.079 735.035 316.502C719.59 289.639 792.51 286.508 808.049 311.041C809.015 312.567 809.76 314.2 810.247 315.94C810.282 316.182 810.316 316.428 810.35 316.678L810.365 316.793C810.473 317.593 810.576 318.426 810.66 319.262C810.749 320.132 810.817 321.005 810.851 321.846C810.867 322.222 810.875 322.592 810.875 322.953C809.695 323.442 808.715 324.924 807.948 327.199C805.246 335.213 805.187 353.067 808.364 372.042C808.364 372.142 808.388 372.38 808.472 372.821C808.698 374 809.362 376.636 811.189 382.007C810.984 377.665 812.119 376.476 813.982 378.338C814.401 378.756 814.856 379.328 815.341 380.054C815.625 380.479 815.92 380.957 816.224 381.487C816.258 381.547 816.293 381.609 816.328 381.671C816.418 381.829 816.507 381.992 816.598 382.159C816.881 382.681 817.17 383.245 817.465 383.852C817.762 383.241 818.051 382.673 818.332 382.15L818.373 382.074L818.409 382.007C818.484 381.869 818.558 381.733 818.632 381.601C818.911 381.101 819.181 380.646 819.441 380.237C819.975 379.398 820.469 378.75 820.916 378.295C822.686 376.495 823.742 377.699 823.742 382.007C824.924 378.032 825.561 375.556 825.946 374.059L825.947 374.057C826.087 373.511 826.194 373.096 826.281 372.785C826.4 372.367 826.483 372.139 826.566 372.042C829.509 353.004 829.577 335.094 826.77 327.119C825.985 324.89 824.976 323.437 823.742 322.953C823.773 322.731 823.804 322.505 823.836 322.277C823.853 322.146 823.871 322.013 823.889 321.88L823.893 321.846C824.004 321.005 824.108 320.132 824.191 319.262C824.272 318.407 824.332 317.555 824.357 316.739C824.2 317.499 824.124 318.354 824.044 319.255L824.043 319.262C823.968 320.097 823.89 320.971 823.742 321.846V319.262C823.742 318.533 824.048 317.444 824.358 316.706V316.675L824.359 316.672C824.366 316.424 824.369 316.18 824.369 315.94C824.886 314.157 825.672 312.487 826.69 310.929C842.628 286.517 915.316 289.68 899.895 316.502C898.989 318.079 897.778 319.737 896.234 321.476C897.982 322.451 899.627 323.519 901.169 324.674C925.91 343.212 924.003 384.15 896.234 418.547C923.995 452.586 925.908 493.816 901.191 512.092C899.643 513.237 897.991 514.291 896.234 515.248C897.769 516.996 898.974 518.662 899.878 520.247C915.378 547.408 842.548 550.571 826.661 525.811C825.658 524.247 824.882 522.572 824.369 520.784C824.369 520.541 824.365 520.297 824.358 520.053V520.049L824.357 520.018C824.047 519.289 823.742 518.556 823.742 517.463V515.248C823.877 516.045 823.954 516.773 824.023 517.463L824.041 517.639C824.122 518.456 824.198 519.22 824.356 519.984C824.33 519.156 824.265 518.322 824.178 517.463C824.105 516.746 824.017 516.011 823.923 515.248L823.918 515.207L823.86 514.739L823.857 514.711C823.819 514.403 823.78 514.09 823.742 513.772C824.922 513.309 825.897 511.959 826.667 509.895C829.578 502.081 829.545 484.028 826.566 465.052C826.491 464.875 826.416 464.614 826.315 464.218C826.297 464.15 826.279 464.078 826.26 464.002L826.22 463.84L826.165 463.613L826.129 463.466L826.124 463.448V463.447C825.764 461.976 825.128 459.375 823.742 454.718C823.946 459.277 822.823 460.404 820.978 458.606C820.481 458.122 819.932 457.426 819.343 456.528C819.234 456.363 819.124 456.19 819.012 456.01C818.902 455.834 818.791 455.651 818.679 455.461C818.599 455.326 818.519 455.187 818.438 455.046L818.402 454.983L818.366 454.921L818.332 454.86C818.05 454.36 817.76 453.82 817.465 453.241C817.17 453.82 816.881 454.36 816.598 454.86L816.545 454.953L816.493 455.046C816.449 455.122 816.406 455.196 816.363 455.27C816.326 455.334 816.289 455.398 816.251 455.461C815.979 455.921 815.714 456.343 815.457 456.725C814.917 457.528 814.412 458.158 813.953 458.606C812.107 460.404 810.985 459.277 811.189 454.718C809.347 460.132 808.688 462.767 808.467 464.078C808.387 464.554 808.364 464.855 808.364 465.052ZM810.75 517.463C810.816 516.773 810.875 516.045 810.875 515.248V517.463C810.875 518.57 810.875 519.308 810.561 520.046C810.561 519.349 810.631 518.652 810.705 517.916C810.72 517.767 810.735 517.616 810.75 517.463ZM810.705 318.977C810.631 318.155 810.561 317.375 810.561 316.678C810.875 317.416 810.875 318.524 810.875 319.262V321.846C810.875 320.971 810.805 320.097 810.73 319.262L810.705 318.977ZM248.735 304.815C256.937 303.038 263.28 303.461 268.047 305.666C273.256 308.074 276.245 312.45 277.726 317.523C279.194 322.547 279.218 328.339 278.511 333.907C277.901 338.706 276.735 343.438 275.386 347.537C286.225 351.081 293.323 355.923 297.425 361.674C301.809 367.821 302.58 374.736 301.203 381.542C298.695 393.935 289.017 406.318 280.302 414.597C288.151 419.052 300.363 429.765 301.873 446.548C302.733 456.108 299.131 463.753 294.366 469.36C290.76 473.602 286.456 476.722 282.798 478.705C287.449 482.18 290.482 485.725 292.173 489.289C294.215 493.592 294.225 497.769 292.974 501.549C290.88 507.881 285.308 512.989 280.234 516.218C282.024 517.915 283.34 519.556 284.174 521.158C285.339 523.398 285.589 525.638 284.767 527.728C283.977 529.733 282.324 531.276 280.36 532.475C278.38 533.685 275.901 534.658 273.154 535.451C262.232 538.603 245.591 539.296 233.695 539.002L231.453 538.946L231.764 536.725L235.376 510.941C227.404 521.994 214.293 532.603 200.041 540.092C182.04 549.551 161.429 554.441 146.306 548.232C131.666 542.222 120.198 532.876 115.468 516.632C110.787 500.552 112.828 478.083 124.136 446.061C134.407 416.977 154.343 399.798 175.329 390.271C193.214 382.152 211.883 379.574 226.086 379.867C220.765 374.811 218.868 368.568 218.352 363.315C218.136 361.124 218.159 359.095 218.267 357.382C217.507 358.072 216.675 358.825 215.806 359.608C212.624 362.475 208.937 365.761 206.513 367.912L206.512 367.913C199.342 374.268 192.177 374.75 186.193 372.543C182.448 371.162 179.242 368.762 176.791 366.279C176.128 370.538 174.437 375.375 171.093 379.515C166.176 385.602 157.903 389.909 144.911 388.928C138.37 388.434 133.307 386.475 129.484 383.509C125.666 380.547 123.206 376.676 121.711 372.549C118.892 364.764 119.449 355.924 120.856 349.831C117.93 345.479 117.135 340.19 117.258 335.457C117.39 330.417 118.569 325.742 119.641 322.918C124.854 309.016 133.301 302.583 141.951 300.447C149.624 298.552 157.197 300.101 162.391 302.331C171.511 289.071 180.726 284.902 188.931 285.955C195.955 286.856 201.602 291.529 205.182 296.123C210.649 288.601 215.734 283.991 220.481 281.719C225.834 279.158 230.674 279.62 234.763 282.04C238.724 284.385 241.821 288.465 244.156 292.884C246.169 296.696 247.691 300.905 248.735 304.815ZM222.207 285.328C217.908 287.385 212.764 292.048 206.836 300.718L205.126 303.219L203.499 300.663C200.482 295.927 195.012 290.768 188.422 289.922C182.069 289.107 173.776 292.22 164.771 305.961L163.792 307.455L162.198 306.651C157.666 304.366 150.268 302.513 142.91 304.33C135.695 306.112 128.193 311.499 123.385 324.326L123.382 324.334C122.451 326.786 121.376 331.019 121.257 335.561C121.138 340.123 121.987 344.732 124.612 348.212L125.192 348.981L124.953 349.913C123.51 355.539 122.874 364.011 125.472 371.187C126.759 374.74 128.821 377.933 131.936 380.349C135.046 382.762 139.327 384.495 145.212 384.94C157.071 385.835 163.996 381.935 167.981 377.001C172.057 371.955 173.279 365.549 173.125 361.212L172.878 354.271L176.778 360.018C178.879 363.113 182.787 367.024 187.577 368.79C192.19 370.491 197.802 370.289 203.859 364.92C206.279 362.773 209.957 359.494 213.129 356.636C214.716 355.206 216.172 353.886 217.279 352.866C217.833 352.355 218.295 351.925 218.639 351.597C218.812 351.433 218.95 351.299 219.053 351.197C219.142 351.107 219.184 351.063 219.195 351.051C219.198 351.047 219.199 351.047 219.198 351.048C219.264 350.97 219.428 350.786 219.684 350.623C219.912 350.477 220.595 350.114 221.452 350.415C222.283 350.707 222.591 351.386 222.677 351.61C222.779 351.877 222.804 352.108 222.812 352.207C222.842 352.542 222.793 352.926 222.769 353.117L222.767 353.136C222.733 353.404 222.699 353.644 222.662 353.906L222.661 353.907C222.607 354.292 222.545 354.723 222.469 355.36C222.243 357.253 222.039 359.935 222.333 362.924C222.916 368.863 225.437 375.923 233.71 380.494L232.553 384.235C218.49 382.896 197.198 384.736 176.983 393.913C156.821 403.066 137.759 419.496 127.908 447.393C116.695 479.144 114.978 500.64 119.309 515.514C123.592 530.223 133.906 538.818 147.825 544.532C161.261 550.047 180.482 545.851 198.18 536.551C215.827 527.278 231.171 513.338 236.928 500.43L240.735 501.522L236.038 535.046C247.59 535.198 262.38 534.397 272.045 531.608C274.605 530.869 276.713 530.016 278.275 529.062C279.853 528.097 280.7 527.139 281.045 526.262C281.357 525.47 281.376 524.448 280.625 523.004C279.844 521.503 278.274 519.652 275.57 517.45L273.252 515.56L275.883 514.139C281.145 511.298 287.215 506.226 289.177 500.294C290.127 497.421 290.13 494.314 288.559 491.004C286.963 487.64 283.67 483.921 277.745 480.057L274.544 477.97L278.084 476.529C281.668 475.071 287.052 471.789 291.318 466.769C295.554 461.785 298.633 455.167 297.889 446.906C296.377 430.098 282.69 419.872 276.019 416.898L273.191 415.638L275.503 413.578C284.504 405.559 294.828 392.879 297.282 380.748C298.49 374.78 297.776 369.055 294.168 363.997C290.523 358.886 283.734 354.191 272.251 350.746L270.227 350.139L270.944 348.151C272.489 343.871 273.875 338.658 274.543 333.403C275.213 328.127 275.142 322.942 273.887 318.645C272.646 314.397 270.287 311.108 266.368 309.296C262.379 307.451 256.441 306.981 247.757 309.15L245.786 309.643L245.325 307.664C244.353 303.493 242.777 298.838 240.619 294.753C238.444 290.636 235.78 287.29 232.726 285.483C229.801 283.751 226.374 283.334 222.207 285.328ZM194.461 429.793C187.723 434.936 182.017 442.421 178.846 447.75L178.817 447.798L178.785 447.845C175.105 453.299 170.47 461.882 168.291 470.309C166.082 478.854 166.573 486.432 171.902 490.921C175.285 493.771 178.758 494.6 182.234 494.145C185.795 493.679 189.504 491.841 193.161 489.076C200.482 483.54 207.034 474.716 210.975 467.991L211 467.948L211.028 467.907C214.792 462.162 219.44 453.105 221.241 444.612C222.141 440.367 222.294 436.424 221.405 433.158C220.538 429.969 218.667 427.364 215.299 425.647C208.518 422.188 201.243 424.617 194.461 429.793ZM192.034 426.613C199.257 421.101 208.265 417.569 217.116 422.083C221.565 424.352 224.124 427.916 225.265 432.107C226.384 436.22 226.124 440.864 225.154 445.442C223.218 454.572 218.315 464.075 214.401 470.057C210.322 477.006 203.465 486.3 195.573 492.267C191.616 495.259 187.259 497.521 182.753 498.111C178.16 498.712 173.564 497.552 169.325 493.981C162.128 487.918 162.118 478.203 164.418 469.308C166.742 460.321 171.607 451.342 175.438 445.655C178.785 440.044 184.79 432.142 192.034 426.613ZM331.382 417.321H344.236C361.842 417.321 376.332 411.857 387.706 400.929C399.235 389.757 405 373.364 405 351.75C405 330.379 399.313 314.471 387.939 304.029C376.566 293.343 361.998 288 344.236 288H301V295.286H302.169C308.401 295.286 312.452 296.864 314.321 300.021C316.347 303.179 317.36 309.493 317.36 318.964V512.036C317.36 521.507 316.347 527.821 314.321 530.979C312.452 534.136 308.401 535.714 302.169 535.714H301V543H347.742V535.714H346.573C340.341 535.714 336.212 534.136 334.187 530.979C332.317 527.821 331.382 521.507 331.382 512.036V417.321ZM341.899 297.107H344.236C350.001 297.107 355.298 297.957 360.128 299.657C365.114 301.357 369.788 304.15 374.151 308.036C378.669 311.921 382.175 317.629 384.667 325.157C387.316 332.443 388.64 341.307 388.64 351.75C388.64 371.664 384.356 386.114 375.787 395.1C367.217 403.843 356.7 408.214 344.236 408.214H331.382V318.964C331.382 310.707 332.083 305 333.485 301.843C335.043 298.686 337.848 297.107 341.899 297.107Z" fill="#2F807F" style="fill:#2F807F;fill:color(display-p3 0.1843 0.5020 0.4980);fill-opacity:1;"/>
</g>
<defs>
<clipPath id="clip0_1709_79442">
<rect width="1251" height="551" fill="white" style="fill:white;fill:white;fill-opacity:1;"/>
</clipPath>
</defs>
</svg>
