<svg width="54" height="54" viewBox="0 0 54 54" fill="none" xmlns="http://www.w3.org/2000/svg">
<rect width="54" height="54" fill="#EBEBEB" style="fill:#EBEBEB;fill:color(display-p3 0.9216 0.9216 0.9216);fill-opacity:1;"/>
<path fill-rule="evenodd" clip-rule="evenodd" d="M29.8629 8.11911C29.3447 8.31802 29.158 8.45358 28.0984 9.40008C26.6283 10.7132 25.8339 10.995 23.8676 10.9007C23.2223 10.8698 22.2351 10.7416 21.6739 10.6159C20.1653 10.2778 19.133 10.4548 18.1671 11.2172C17.6804 11.6014 17.2997 12.4978 17.3896 13.0483C17.4991 13.7189 17.8754 14.074 19.121 14.6817C19.7394 14.9834 20.3226 15.32 20.4169 15.4297C20.9815 16.0866 20.8431 16.7211 19.7104 18.6664C17.7934 21.959 17.6296 22.7141 18.1084 26.0538C18.3642 27.8387 18.2727 29.4851 17.872 30.304C17.6367 30.785 17.3224 31.1387 16.2259 32.1572C15.0789 33.2224 14.645 33.8339 14.483 34.6135C14.4204 34.9143 14.3285 36.3008 14.2787 37.6944C14.1786 40.4994 14.071 41.0909 13.5488 41.7063C13.0673 42.2737 12.644 42.3458 11.0895 42.125C10.3447 42.0192 9.56711 41.9678 9.26795 42.0045C8.01776 42.1576 6.99888 43.3281 7 44.6097C7.00133 46.0551 8.32855 47.3934 10.1423 47.7781C10.9228 47.9437 11.6298 47.8644 13.1279 47.4429C14.1498 47.1555 14.5016 47.1053 15.501 47.1044C16.5569 47.1033 16.8356 47.1475 18.2835 47.5457C20.6235 48.189 21.861 48.1528 22.798 47.4133C23.6297 46.7569 23.9929 45.1596 23.5076 44.2929C23.1204 43.6014 22.7564 43.5047 20.5337 43.5028C18.7107 43.5012 18.5577 43.4861 18.289 43.2805C17.4973 42.6744 17.6482 42.1439 19.0251 40.6938C20.4916 39.1492 20.6756 38.5605 20.2554 36.7563C19.7695 34.6702 19.9127 33.9883 21.3641 31.4765C22.6687 29.2186 22.9658 28.4149 23.0273 26.9783C23.0649 26.0972 23.0199 25.5397 22.8079 24.2611C22.4588 22.1551 22.4555 20.9606 22.7961 19.9617C23.1375 18.9605 23.5993 18.4794 24.2189 18.4794C24.7417 18.4794 25.14 18.7394 25.4491 19.2823C25.6266 19.5941 25.6472 19.7782 25.6079 20.6965C25.4814 23.6513 25.5142 23.7881 26.5505 24.6307C27.3585 25.2877 27.5791 25.7251 27.521 26.5549C27.4849 27.0723 27.3966 27.2903 26.9036 28.0776C26.2287 29.1557 26.044 29.8344 26.2131 30.6152C26.4928 31.9065 27.2873 32.5739 28.5449 32.5739C29.6488 32.5739 30.5684 32.0607 31.0991 31.1486C31.268 30.8583 31.6081 29.9272 31.855 29.0795C32.1018 28.2319 32.4143 27.3293 32.5495 27.0736C32.9997 26.2224 34.0477 25.9038 34.7226 26.4129C35.169 26.7496 35.3461 27.2555 35.3459 28.1925C35.3457 28.9987 35.3196 29.0945 34.7695 30.304C33.7961 32.4446 33.7763 32.9574 34.5875 35.0395C35.0661 36.2681 35.1274 36.8704 34.8175 37.3035C34.4917 37.7592 34.1261 37.877 32.8027 37.9529C31.4603 38.03 31.1135 38.1499 30.6748 38.6894C30.2622 39.1967 30.0604 39.8706 30.1098 40.5763C30.1912 41.7409 31.017 42.6357 32.3294 42.981C33.4436 43.2742 34.0887 43.1181 36.7235 41.9176C38.6113 41.0573 39.1226 40.9148 40.3251 40.9136C42.6631 40.9114 43.5713 40.5837 44.0908 39.5546C44.7065 38.3351 44.2747 36.8863 43.1005 36.2325C42.7417 36.0327 42.5689 36.0102 41.672 36.0471C39.3362 36.1431 39.3314 36.1427 38.901 35.7853C38.6854 35.6064 38.3562 35.2026 38.1695 34.8879C37.6649 34.038 37.7336 33.4578 38.5423 31.7418C39.3123 30.108 39.4236 29.5125 39.2749 27.8229C39.2161 27.1552 39.1393 25.9076 39.1042 25.0505C39.0504 23.7325 39.0691 23.3824 39.226 22.7806C39.4899 21.7675 40.1956 21.0661 42.0139 20.0097C44.3301 18.6641 45.0135 17.816 44.9998 16.3045C44.9897 15.1904 44.4174 14.2041 43.5927 13.8797C43.1494 13.7053 42.2791 13.7741 41.3519 14.0571C39.5967 14.5925 39.4206 14.6315 38.7131 14.6427C37.891 14.6557 37.5614 14.5354 36.4433 13.8143C35.8117 13.4069 35.5668 13.3094 35.0865 13.2734C33.773 13.1751 32.8228 13.9637 32.8228 15.1523C32.8228 15.9016 33.1349 16.406 34.1441 17.2872C34.6368 17.7175 35.1403 18.2545 35.2629 18.4803C36.0225 19.8806 35.3395 21.6343 33.7375 22.3974C33.1548 22.675 33.003 22.7005 31.9281 22.7014C30.5733 22.7027 30.1119 22.5437 29.4436 21.8458C28.1325 20.4764 27.8015 17.5718 28.7366 15.6412C29.0762 14.94 29.7178 14.2546 31.1294 13.0849C32.568 11.8929 32.8995 11.5389 33.1113 10.9686C33.4531 10.0482 32.8931 8.74951 31.9503 8.27632C31.3666 7.98334 30.405 7.91092 29.8629 8.11911Z" fill="#27272B" style="fill:#27272B;fill:color(display-p3 0.1529 0.1529 0.1686);fill-opacity:1;"/>
</svg>
