<svg width="54" height="54" viewBox="0 0 54 54" fill="none" xmlns="http://www.w3.org/2000/svg">
<rect width="54" height="54" fill="#EBEBEB"/>
<path d="M37.1818 20C37.1818 18.2353 38.3916 17 40.0909 17C41.7902 17 43 18.2353 43 20L43 40L40.0909 43L20.697 43C18.9976 43 17.7879 41.7647 17.7879 40C17.7879 38.2353 19.0111 37 20.7104 37L37.1818 37L37.1818 20Z" fill="#27272B"/>
<path d="M36.2121 14C36.2121 15.7647 35.0024 17 33.303 17L16.8182 17L16.8182 34C16.8182 35.7647 15.6084 37 13.9091 37C12.2098 37 11 35.7647 11 34L11 14L13.9091 11L33.303 11C35.0024 11 36.2121 12.2353 36.2121 14Z" fill="#27272B"/>
</svg>
