<svg width="54" height="54" viewBox="0 0 54 54" fill="none" xmlns="http://www.w3.org/2000/svg">
<rect width="54" height="54" fill="#EBEBEB"/>
<path d="M26.0976 15.5608C26.0976 15.6188 26.1117 15.6654 26.1206 15.7271C26.2448 16.1201 26.5874 16.371 26.9997 16.371C27.4127 16.371 27.7623 16.0994 27.8793 15.7253C27.9065 15.6384 27.9211 15.546 27.9211 15.4502C27.9211 15.4502 27.9058 14.9272 27.9211 14.5927C28.0458 11.8804 29.198 9.94174 30.8019 8.2642C32.7249 6.25289 35.4355 5 38.439 5C44.2717 5 49 9.72503 49 15.5536C49 18.8533 47.4846 21.7993 45.1114 23.7345C43.4729 25.0707 41.4506 25.925 39.2106 26.0813H38.5597C38.4852 26.0813 38.4128 26.0902 38.3434 26.1069C37.9653 26.1978 37.678 26.5217 37.6421 26.9181C37.6129 26.9183 37.5837 26.9184 37.5545 26.9184C37.5837 26.9184 37.6129 26.9186 37.642 26.9188C37.6395 26.9462 37.6383 26.9741 37.6383 27.0021C37.6383 27.4303 37.9307 27.7902 38.3268 27.8933C38.4012 27.9127 38.4793 27.923 38.5597 27.923C38.5597 27.923 38.9773 27.9133 39.2446 27.923C42.0474 28.0239 44.0711 29.2024 45.7923 30.8711C47.7706 32.7892 49 35.4743 49 38.4464C49 44.275 44.2717 49 38.439 49C35.0693 49 32.0682 47.423 30.1345 44.9672C28.9071 43.4084 28.0299 41.7416 27.9211 39.4073C27.9056 39.0745 27.9211 38.5541 27.9211 38.5541C27.9211 38.4582 27.9065 38.3657 27.8793 38.2788C27.7623 37.9051 27.4134 37.6339 27.001 37.6333C27.0001 37.5776 26.9997 37.5218 26.9997 37.4659C26.9997 37.5218 26.9993 37.5776 26.9984 37.6333C26.5867 37.6339 26.2383 37.9042 26.1207 38.277C26.0931 38.3644 26.0782 38.4575 26.0782 38.5541C26.0782 38.5541 26.094 39.0786 26.0782 39.4141C25.9687 41.7444 25.0925 43.4078 23.8676 44.9644C21.934 47.4218 18.932 49 15.561 49C9.72833 49 5 44.275 5 38.4464C5 35.4757 6.22824 32.7917 8.20494 30.8738C9.92641 29.2036 11.9512 28.0239 14.7554 27.923C15.0224 27.9133 15.4396 27.923 15.4396 27.923C15.5201 27.923 15.5982 27.9127 15.6726 27.8933C16.0687 27.7902 16.3611 27.4303 16.3611 27.0021C16.3611 26.9741 16.3598 26.9462 16.3574 26.9188C16.3865 26.9186 16.4157 26.9184 16.4449 26.9184C16.4157 26.9184 16.3865 26.9183 16.3573 26.9181C16.3214 26.5217 16.0341 26.1978 15.656 26.1069C15.5866 26.0902 15.5142 26.0813 15.4396 26.0813C15.4396 26.0813 15.0585 26.0894 14.8146 26.0813C12.3252 25.999 10.5246 25.0697 8.88559 23.7321C6.51409 21.7968 5 18.8519 5 15.5536C5 9.72503 9.72833 5 15.561 5C18.5657 5 21.2774 6.25393 23.2005 8.2667C24.8016 9.94239 25.8561 12.144 26.0782 14.5859C26.1042 14.8709 26.0948 15.2698 26.0976 15.5608Z" fill="#343434"/>
</svg>
