<svg width="207" height="168" viewBox="0 0 207 168" fill="none" xmlns="http://www.w3.org/2000/svg">
<path d="M146.561 25.4545C138.342 13.9539 119.189 24.9863 116.361 33.593L98.4745 32.24C100.325 23.9136 110.193 17.4376 118.519 14.9685C127.563 12.2869 134.555 12.195 139.489 14.9698C143.898 17.4489 145.04 20.2131 146.561 25.4545Z" fill="#43A100"/>
<path fill-rule="evenodd" clip-rule="evenodd" d="M138.256 63.5661C137.393 63.5661 136.692 62.8733 136.637 62.0117C135.517 44.6332 121.067 30.8843 103.406 30.8843C85.7444 30.8843 71.2941 44.6337 70.175 62.0126C70.1195 62.8737 69.4196 63.5661 68.5567 63.5661V63.5661C67.6938 63.5661 66.9939 62.8737 66.9384 62.0126C65.8192 44.6338 51.369 30.8846 33.7074 30.8846C15.3159 30.8846 0.406678 45.7938 0.406678 64.1853C0.406678 81.4665 13.5701 95.6732 30.417 97.3256C31.3045 97.4126 32.0046 98.1433 32.0046 99.035V99.035C32.0046 99.9267 31.3045 100.657 30.417 100.744C13.5698 102.397 0.40625 116.603 0.40625 133.885C0.40625 152.276 15.3155 167.185 33.707 167.185C52.0985 167.185 67.0078 152.276 67.0078 133.885V133.885C67.0078 133.376 67.4152 132.956 67.9242 132.956H69.19C69.6991 132.956 70.1067 133.376 70.1067 133.885V133.885C70.1067 152.276 85.016 167.186 103.407 167.186C121.799 167.186 136.708 152.276 136.708 133.885V133.885C136.708 133.376 137.116 132.956 137.625 132.956L138.889 132.956C139.398 132.956 139.805 133.376 139.805 133.885V133.885C139.805 152.276 154.715 167.185 173.106 167.185C191.498 167.185 206.407 152.276 206.407 133.885C206.407 117.292 194.271 103.534 178.392 101.001C177.416 100.845 176.669 100.023 176.669 99.035V99.035C176.669 98.0471 177.416 97.2244 178.392 97.0688C194.272 94.5364 206.407 80.778 206.407 64.1852C206.407 45.7937 191.498 30.8845 173.106 30.8845C155.445 30.8845 140.995 44.6333 139.876 62.0117C139.82 62.8733 139.12 63.5661 138.256 63.5661V63.5661Z" fill="#FEA826"/>
</svg>
