<svg width="141" height="115" viewBox="0 0 141 115" fill="none" xmlns="http://www.w3.org/2000/svg">
<g clip-path="url(#clip0_1342_155252)">
<path d="M99.8281 17.3378C94.2303 9.50496 81.1855 17.0189 79.2594 22.8808L67.0772 21.9593C68.3376 16.2883 75.0585 11.8776 80.7292 10.196C86.8889 8.36959 91.651 8.307 95.0114 10.1969C98.0143 11.8853 98.7921 13.768 99.8281 17.3378Z" fill="#43A100"/>
<path d="M94.5232 11.0652L94.5231 11.0652C91.5224 9.3776 87.0945 9.34769 81.0124 11.1511L94.5232 11.0652ZM94.5232 11.0652C95.9043 11.8418 96.7146 12.6252 97.3107 13.5867C97.397 13.7259 97.4794 13.8698 97.5589 14.0192C94.5906 12.4502 90.9709 12.8158 87.8061 14.0452C85.591 14.9057 83.5035 16.2133 81.8366 17.6959C80.4236 18.9526 79.2583 20.384 78.6019 21.832L68.3816 21.0589M94.5232 11.0652L68.3816 21.0589M68.3816 21.0589C69.1643 18.9585 70.7842 17.0168 72.8687 15.3619C75.3074 13.4258 78.289 11.9587 81.0123 11.1511L68.3816 21.0589Z" stroke="#095423" stroke-opacity="0.2" stroke-width="1.99237"/>
<path fill-rule="evenodd" clip-rule="evenodd" d="M94.1713 43.2941C93.5835 43.2941 93.106 42.8223 93.0686 42.2355C92.3058 30.3993 82.4641 21.0352 70.4356 21.0352C58.4066 21.0352 48.5647 30.3996 47.8025 42.2361C47.7647 42.8226 47.288 43.2941 46.7003 43.2941C46.1126 43.2941 45.6359 42.8226 45.5981 42.2361C44.8359 30.3997 34.9941 21.0354 22.9651 21.0354C10.439 21.0354 0.284563 31.1898 0.284563 43.7159C0.284563 55.4858 9.24993 65.1617 20.7241 66.2871C21.3285 66.3464 21.8053 66.8441 21.8053 67.4514C21.8053 68.0587 21.3285 68.5561 20.7241 68.6154C9.24973 69.7412 0.284271 79.4166 0.284271 91.1871C0.284271 103.713 10.4387 113.867 22.9648 113.867C35.4909 113.867 45.6454 103.713 45.6454 91.1871C45.6454 90.8404 45.9229 90.5544 46.2695 90.5544H47.1317C47.4784 90.5544 47.756 90.8404 47.756 91.1871C47.756 103.713 57.9105 113.868 70.4362 113.868C82.9627 113.868 93.1169 103.713 93.1169 91.1871C93.1169 90.8404 93.3948 90.5544 93.7415 90.5544H94.6024C94.9491 90.5544 95.2263 90.8404 95.2263 91.1871C95.2263 103.713 105.381 113.867 117.907 113.867C130.433 113.867 140.588 103.713 140.588 91.1871C140.588 79.8859 132.322 70.5156 121.507 68.7904C120.842 68.6841 120.334 68.1243 120.334 67.4514C120.334 66.7785 120.842 66.2182 121.507 66.1122C132.323 64.3875 140.588 55.0169 140.588 43.7158C140.588 31.1897 130.433 21.0353 117.907 21.0353C105.878 21.0353 96.0368 30.3994 95.2746 42.2355C95.2365 42.8223 94.7597 43.2941 94.1713 43.2941Z" fill="#FEA826"/>
<path d="M48.7966 42.3001L48.7966 42.3002C48.727 43.3809 47.8428 44.2903 46.7003 44.2903C45.5578 44.2903 44.6737 43.3809 44.604 42.3002L44.604 42.3001C43.8753 30.9846 34.4654 22.0315 22.9651 22.0315C10.9891 22.0315 1.28075 31.7399 1.28075 43.7159C1.28075 54.9682 9.85218 64.2198 20.8212 65.2957L48.7966 42.3001ZM48.7966 42.3001C49.5253 30.9845 58.9353 22.0313 70.4356 22.0313C81.9354 22.0313 91.3452 30.9841 92.0745 42.2995C92.1438 43.3814 93.0294 44.2903 94.1713 44.2903C95.3146 44.2903 96.1985 43.3806 96.2687 42.3001L96.2687 42.2995C96.9973 30.9842 106.407 22.0315 117.907 22.0315C129.883 22.0315 139.592 31.7399 139.592 43.7158C139.592 54.5196 131.69 63.4796 121.35 65.1285C120.234 65.3064 119.337 66.257 119.337 67.4514C119.337 68.6463 120.235 69.5958 121.35 69.7741L121.35 69.7741M48.7966 42.3001L121.35 69.7741M121.35 69.7741C131.689 71.4234 139.592 80.3832 139.592 91.1871C139.592 103.163 129.883 112.871 117.907 112.871C105.931 112.871 96.2224 103.163 96.2224 91.1871C96.2224 90.3086 95.5175 89.5582 94.6024 89.5582H93.7415C92.8279 89.5582 92.1208 90.3072 92.1208 91.1871C92.1208 103.163 82.4125 112.872 70.4362 112.872C58.4607 112.872 48.7522 103.163 48.7522 91.1871C48.7522 90.3077 48.0459 89.5582 47.1317 89.5582H46.2695C45.3551 89.5582 44.6492 90.308 44.6492 91.1871C44.6492 103.163 34.9408 112.871 22.9648 112.871C10.9889 112.871 1.28046 103.163 1.28046 91.1871C1.28046 79.9342 9.85198 70.6831 20.8213 69.6068L121.35 69.7741Z" stroke="#EF6527" stroke-opacity="0.2" stroke-width="1.99237"/>
</g>
<defs>
<clipPath id="clip0_1342_155252">
<rect width="140.984" height="114.422" fill="white" transform="translate(0.00802612)"/>
</clipPath>
</defs>
</svg>
