<svg width="694" height="745" viewBox="0 0 694 745" fill="none" xmlns="http://www.w3.org/2000/svg">
<rect width="694" height="744.604" fill="#2C2C2C"/>
<rect x="417.848" y="14.4585" width="261.214" height="475.388" rx="9.63889" fill="#FE4E46"/>
<path d="M461.503 34.0972H463.97L468.925 27.3499H467.286L462.852 33.3839V27.3499H461.503V34.0972ZM471.329 27.3499C469.305 27.3499 467.956 28.6994 467.956 30.7236C467.956 32.7477 469.305 34.0972 471.329 34.0972C473.353 34.0972 474.703 32.7477 474.703 30.7236C474.703 28.6994 473.353 27.3499 471.329 27.3499ZM471.329 32.7477C469.98 32.7477 469.305 31.9766 469.305 30.7236C469.305 29.4705 469.98 28.6994 471.329 28.6994C472.679 28.6994 473.353 29.4705 473.353 30.7236C473.353 31.9766 472.679 32.7477 471.329 32.7477ZM480.408 27.3499H478.769L473.834 34.0972H478.046L479.02 32.7766H476.437L480.408 27.3499ZM486.188 27.3499V30.7236C486.188 32.0248 485.474 32.7477 484.164 32.7477C482.853 32.7477 482.139 32.0248 482.139 30.7236V27.3499H480.79V30.7236C480.79 32.7284 482.149 34.0972 484.164 34.0972C486.178 34.0972 487.537 32.7284 487.537 30.7236V27.3499H486.188ZM494.602 27.3499L493.32 29.0753V27.3499H490.65L488.144 30.7236H489.349L486.862 34.0972H488.5L490.987 30.7236H489.782L491.97 27.7837V30.7236H493.329L490.843 34.0972H492.481L494.968 30.7236H493.734L495.922 27.7837V34.0972H497.272V27.3499H494.602ZM505.654 28.6512L506.627 27.3307H502.434L502.424 27.3499H502.405L500.42 30.0585L499.446 31.379H499.456L497.47 34.0972H501.673L502.646 32.7766H500.073L501.094 31.379H503.639L504.613 30.0585H502.058L503.09 28.6512H505.654Z" fill="#2C2C2C"/>
<rect x="427.488" y="39.9526" width="113.257" height="30.8444" rx="15.4222" fill="#E1E1E1"/>
<circle cx="443.22" cy="55.6846" r="13.7354" fill="#2C2C2C"/>
<path d="M596.98 28.6608L597.954 27.3403H593.761L593.751 27.3499H593.732L591.746 30.0585L590.773 31.379H590.782L588.797 34.0972H590.435L592.421 31.379H594.966L595.939 30.0585H593.385L594.416 28.6608H596.98ZM602.092 28.6512L603.065 27.3307H598.872L598.863 27.3499H598.843L596.858 30.0585L595.884 31.379H595.894L593.908 34.0972H598.111L599.084 32.7766H596.511L597.532 31.379H600.077L601.051 30.0585H598.496L599.528 28.6512H602.092ZM607.203 28.6512L608.176 27.3307H603.983L603.974 27.3499H603.954L601.969 30.0585L600.995 31.379H601.005L599.019 34.0972H603.222L604.195 32.7766H601.622L602.644 31.379H605.188L606.162 30.0585H603.607L604.639 28.6512H607.203ZM609.725 27.3499H608.375V34.0972H609.725C611.749 34.0972 613.099 32.7477 613.099 30.7236C613.099 28.6994 611.749 27.3499 609.725 27.3499ZM609.725 32.7477V28.6994C611.074 28.6994 611.749 29.4705 611.749 30.7236C611.749 31.9766 611.074 32.7477 609.725 32.7477ZM616.538 30.7236H615.892C616.422 30.4344 616.75 29.8464 616.75 29.1331C616.75 28.1211 616.075 27.3596 615.121 27.3499H613.675V34.0972H619.025L616.538 30.7236ZM615.111 28.5066C615.4 28.5066 615.593 28.7958 615.593 29.1331C615.593 29.4705 615.4 29.7597 615.111 29.7597H615.024V28.5066H615.111ZM615.024 32.9405V30.9163H615.044L616.538 32.9405H615.024ZM622.858 27.3499L620.352 30.7236H621.509L619.022 34.0972H620.661L622.164 32.0634H624.179V34.0972H625.528V27.3499H622.858ZM624.179 27.7837V30.7139H622L624.179 27.7837ZM629.479 34.0972V32.7477C628.129 32.7477 627.454 31.9766 627.454 30.7236C627.454 29.4705 628.129 28.6994 629.479 28.6994V27.3499C627.454 27.3499 626.105 28.6994 626.105 30.7236C626.105 32.7477 627.454 34.0972 629.479 34.0972ZM633.591 30.7236H632.752L635.239 27.3499H633.601L631.403 30.3284V27.3499H630.054V34.0972H631.403V30.7236H631.952L634.439 34.0972H636.078L633.591 30.7236Z" fill="#2C2C2C"/>
<rect x="556.168" y="39.9526" width="113.257" height="30.8444" rx="15.4222" fill="#E1E1E1"/>
<circle cx="571.899" cy="55.6846" r="13.7354" fill="#2C2C2C"/>
<path d="M470.078 91.2552C470.078 90.2431 469.403 89.4817 468.449 89.472H467.003V96.2192H468.352V93.0384H468.449C469.403 93.0288 470.078 92.2673 470.078 91.2552ZM468.439 91.8817H468.352V90.6287H468.439C468.728 90.6287 468.921 90.9178 468.921 91.2552C468.921 91.5926 468.728 91.8817 468.439 91.8817ZM477.839 89.472L475.911 92.1131H473.183L475.111 89.472H473.473L468.537 96.2192H470.176L472.21 93.4336H474.938L472.904 96.2192H474.542L479.478 89.472H477.839ZM480.328 89.472L477.822 92.8456H478.978L476.491 96.2192H478.13L479.634 94.1854H481.648V96.2192H482.998V89.472H480.328ZM481.648 89.9058V92.836H479.47L481.648 89.9058ZM485.213 92.6528V91.8817C484.924 91.8817 484.731 91.5926 484.731 91.2552C484.731 90.9178 484.924 90.6287 485.213 90.6287V90.8215H486.659V89.472H485.213C484.249 89.472 483.574 90.2431 483.574 91.2552C483.574 92.2673 484.249 93.0384 485.213 93.0384V93.8095C485.502 93.8095 485.695 94.0987 485.695 94.436C485.695 94.7734 485.502 95.0626 485.213 95.0626V94.8698H483.767V96.2192H485.213C486.177 96.2192 486.852 95.4481 486.852 94.436C486.852 93.424 486.177 92.6528 485.213 92.6528ZM494.841 90.7733L495.814 89.4527H491.621L491.612 89.472H491.593L489.607 92.1805L488.633 93.5011H488.643L486.657 96.2192H490.86L491.834 94.8987H489.26L490.282 93.5011H492.826L493.8 92.1805H491.246L492.277 90.7733H494.841ZM501.315 96.2192L498.828 92.8456H498.23C498.761 92.5565 499.088 91.9685 499.088 91.2552C499.088 90.2431 498.414 89.4817 497.459 89.472H496.014V96.2192H497.363V93.077L499.676 96.2192H501.315ZM497.45 90.6287C497.739 90.6287 497.932 90.9178 497.932 91.2552C497.932 91.5926 497.739 91.8817 497.45 91.8817H497.363V90.6287H497.45Z" fill="#2C2C2C"/>
<rect x="427.488" y="102.075" width="113.257" height="30.8444" rx="15.4222" fill="#E1E1E1"/>
<circle cx="443.22" cy="117.807" r="13.7354" fill="#2C2C2C"/>
<path d="M588.48 90.7829L589.454 89.4624H585.261L585.251 89.472H585.232L583.246 92.1805L582.273 93.5011H582.282L580.297 96.2192H581.935L583.921 93.5011H586.466L587.439 92.1805H584.885L585.916 90.7829H588.48ZM594.954 96.2192L592.468 92.8456H591.87C592.4 92.5565 592.728 91.9685 592.728 91.2552C592.728 90.2431 592.053 89.4817 591.099 89.472H589.653V96.2192H591.002V93.077L593.316 96.2192H594.954ZM591.089 90.6287C591.378 90.6287 591.571 90.9178 591.571 91.2552C591.571 91.5926 591.378 91.8817 591.089 91.8817H591.002V90.6287H591.089ZM603.136 90.7733L604.11 89.4527H599.917L599.907 89.472H599.888L597.902 92.1805L596.929 93.5011H596.938L594.953 96.2192H599.155L600.129 94.8987H597.555L598.577 93.5011H601.122L602.095 92.1805H599.541L600.572 90.7733H603.136ZM604.496 92.8456C604.496 91.5926 605.171 90.8215 606.52 90.8215C607.822 90.8215 608.544 91.5444 608.544 92.8456H609.894C609.894 90.8215 608.544 89.472 606.52 89.472C604.496 89.472 603.147 90.8215 603.147 92.8456C603.147 94.8698 604.496 96.2192 606.52 96.2192V94.8698C605.171 94.8698 604.496 94.0987 604.496 92.8456ZM606.491 93.9252L609.865 96.412V94.7734L606.491 92.2866V93.9252ZM615.872 89.472V92.8456C615.872 94.1469 615.159 94.8698 613.848 94.8698C612.537 94.8698 611.824 94.1469 611.824 92.8456V89.472H610.475V92.8456C610.475 94.8505 611.834 96.2192 613.848 96.2192C615.863 96.2192 617.222 94.8505 617.222 92.8456V89.472H615.872ZM624.636 90.7733L625.609 89.4527H621.416L621.407 89.472H621.387L619.402 92.1805L618.428 93.5011H618.438L616.452 96.2192H620.655L621.628 94.8987H619.055L620.076 93.5011H622.621L623.595 92.1805H621.04L622.072 90.7733H624.636ZM633.323 89.472L628.985 95.3999V89.472H626.518L621.563 96.2192H623.202L627.636 90.1853V96.2192H630.026L634.961 89.472H633.323ZM637.367 96.2192V94.8698C636.017 94.8698 635.342 94.0987 635.342 92.8456C635.342 91.5926 636.017 90.8215 637.367 90.8215V89.472C635.342 89.472 633.993 90.8215 633.993 92.8456C633.993 94.8698 635.342 96.2192 637.367 96.2192ZM643.098 89.472L640.91 92.4119V89.472H639.561V92.8456H640.043L637.556 96.2192H639.195L641.681 92.8456H642.231L644.737 89.472H643.098Z" fill="#2C2C2C"/>
<rect x="556.168" y="102.075" width="113.257" height="30.8444" rx="15.4222" fill="#E1E1E1"/>
<circle cx="571.899" cy="117.807" r="13.7354" fill="#2C2C2C"/>
<path d="M467.684 151.595C465.659 151.595 464.31 152.944 464.31 154.968C464.31 156.992 465.659 158.342 467.684 158.342C469.708 158.342 471.057 156.992 471.057 154.968C471.057 152.944 469.708 151.595 467.684 151.595ZM467.684 156.992C466.334 156.992 465.659 156.221 465.659 154.968C465.659 153.715 466.334 152.944 467.684 152.944C469.033 152.944 469.708 153.715 469.708 154.968C469.708 156.221 469.033 156.992 467.684 156.992ZM474.819 158.342V156.992C473.469 156.992 472.794 156.221 472.794 154.968C472.794 153.715 473.469 152.944 474.819 152.944V151.595C472.794 151.595 471.445 152.944 471.445 154.968C471.445 156.992 472.794 158.342 474.819 158.342ZM483.134 151.585H478.035L477.061 152.905H478.989L475.008 158.342H476.647L480.627 152.905H482.16L483.134 151.585ZM483.984 151.595L481.478 154.968H482.634L480.147 158.342H481.786L483.29 156.308H485.304V158.342H486.654V151.595H483.984ZM485.304 152.028V154.959H483.126L485.304 152.028ZM487.423 158.342H489.891L494.845 151.595H493.207L488.773 157.629V151.595H487.423V158.342ZM498.977 152.896L499.951 151.575H495.758L495.748 151.595H495.729L493.743 154.303L492.77 155.624H492.779L490.794 158.342H494.996L495.97 157.021H493.396L494.418 155.624H496.962L497.936 154.303H495.382L496.413 152.896H498.977ZM501.398 154.775V154.004C501.109 154.004 500.916 153.715 500.916 153.378C500.916 153.04 501.109 152.751 501.398 152.751V152.944H502.844V151.595H501.398C500.434 151.595 499.759 152.366 499.759 153.378C499.759 154.39 500.434 155.161 501.398 155.161V155.932C501.687 155.932 501.88 156.221 501.88 156.559C501.88 156.896 501.687 157.185 501.398 157.185V156.992H499.952V158.342H501.398C502.362 158.342 503.036 157.571 503.036 156.559C503.036 155.547 502.362 154.775 501.398 154.775Z" fill="#2C2C2C"/>
<rect x="427.488" y="164.197" width="113.257" height="30.8444" rx="15.4222" fill="#E1E1E1"/>
<circle cx="443.22" cy="179.929" r="13.7354" fill="#2C2C2C"/>
<path d="M597.128 154.775V154.004C596.839 154.004 596.646 153.715 596.646 153.378C596.646 153.04 596.839 152.751 597.128 152.751V152.944H598.574V151.595H597.128C596.164 151.595 595.49 152.366 595.49 153.378C595.49 154.39 596.164 155.161 597.128 155.161V155.932C597.417 155.932 597.61 156.221 597.61 156.559C597.61 156.896 597.417 157.185 597.128 157.185V156.992H595.682V158.342H597.128C598.092 158.342 598.767 157.571 598.767 156.559C598.767 155.547 598.092 154.775 597.128 154.775ZM607.084 151.585H601.985L601.012 152.905H602.939L598.959 158.342H600.597L604.578 152.905H606.111L607.084 151.585ZM607.934 151.595L605.428 154.968H606.585L604.098 158.342H605.737L607.24 156.308H609.255V158.342H610.604V151.595H607.934ZM609.255 152.028V154.959H607.076L609.255 152.028ZM614.545 154.101V155.421H616.55C616.396 156.433 615.692 156.992 614.555 156.992C613.205 156.992 612.531 156.221 612.531 154.968C612.531 153.715 613.205 152.944 614.555 152.944V151.595C612.531 151.595 611.181 152.944 611.181 154.968C611.181 156.992 612.531 158.342 614.555 158.342C616.569 158.342 617.919 157.002 617.928 154.997V154.101H614.545ZM625.243 152.896L626.217 151.575H622.024L622.014 151.595H621.995L620.009 154.303L619.036 155.624H619.045L617.06 158.342H621.262L622.236 157.021H619.662L620.684 155.624H623.229L624.202 154.303H621.648L622.679 152.896H625.243ZM627.664 154.775V154.004C627.375 154.004 627.182 153.715 627.182 153.378C627.182 153.04 627.375 152.751 627.664 152.751V152.944H629.11V151.595H627.664C626.7 151.595 626.025 152.366 626.025 153.378C626.025 154.39 626.7 155.161 627.664 155.161V155.932C627.953 155.932 628.146 156.221 628.146 156.559C628.146 156.896 627.953 157.185 627.664 157.185V156.992H626.218V158.342H627.664C628.628 158.342 629.303 157.571 629.303 156.559C629.303 155.547 628.628 154.775 627.664 154.775Z" fill="#2C2C2C"/>
<rect x="556.168" y="164.197" width="113.257" height="30.8444" rx="15.4222" fill="#E1E1E1"/>
<circle cx="571.899" cy="179.929" r="13.7354" fill="#2C2C2C"/>
<path d="M481.659 217.09C481.659 215.837 482.334 215.066 483.684 215.066C484.985 215.066 485.708 215.789 485.708 217.09H487.057C487.057 215.066 485.708 213.717 483.684 213.717C481.659 213.717 480.31 215.066 480.31 217.09C480.31 219.114 481.659 220.464 483.684 220.464V219.114C482.334 219.114 481.659 218.343 481.659 217.09ZM483.655 218.17L487.028 220.657V219.018L483.655 216.531V218.17Z" fill="#2C2C2C"/>
<rect x="427.488" y="226.319" width="113.257" height="30.8444" rx="15.4222" fill="#E1E1E1"/>
<circle cx="443.22" cy="242.051" r="13.7354" fill="#2C2C2C"/>
<path d="M601.854 216.223V217.543H603.859C603.704 218.555 603.001 219.114 601.863 219.114C600.514 219.114 599.839 218.343 599.839 217.09C599.839 215.837 600.514 215.066 601.863 215.066V213.717C599.839 213.717 598.49 215.066 598.49 217.09C598.49 219.114 599.839 220.464 601.863 220.464C603.878 220.464 605.227 219.124 605.237 217.119V216.223H601.854ZM608.308 213.717L605.802 217.09H606.959L604.472 220.464H606.11L607.614 218.43H609.629V220.464H610.978V213.717H608.308ZM609.629 214.15V217.081H607.45L609.629 214.15ZM611.174 220.464H612.812L617.748 213.717H616.109L611.174 220.464ZM625.456 213.717L621.118 219.645V213.717H618.651L613.697 220.464H615.335L619.769 214.43V220.464H622.159L627.095 213.717H625.456Z" fill="#2C2C2C"/>
<rect x="556.168" y="226.319" width="113.257" height="30.8444" rx="15.4222" fill="#E1E1E1"/>
<circle cx="571.899" cy="242.051" r="13.7354" fill="#2C2C2C"/>
<path d="M458.578 277.622C458.578 276.61 457.903 275.848 456.949 275.839H455.503V282.586H456.852V279.405H456.949C457.903 279.395 458.578 278.634 458.578 277.622ZM456.939 278.248H456.852V276.995H456.939C457.228 276.995 457.421 277.285 457.421 277.622C457.421 277.959 457.228 278.248 456.939 278.248ZM457.037 282.586H458.676L463.611 275.839H461.973L457.037 282.586ZM469.324 275.829H464.225L463.251 277.15H465.179L461.198 282.586H462.837L466.817 277.15H468.35L469.324 275.829ZM471.636 282.586V281.236C470.286 281.236 469.612 280.465 469.612 279.212C469.612 277.959 470.286 277.188 471.636 277.188V275.839C469.612 275.839 468.262 277.188 468.262 279.212C468.262 281.236 469.612 282.586 471.636 282.586ZM481.127 275.839L479.199 278.48H476.471L478.399 275.839H476.76L471.825 282.586H473.464L475.498 279.8H478.225L476.192 282.586H477.83L482.765 275.839H481.127ZM487.004 279.02V278.248C486.715 278.248 486.522 277.959 486.522 277.622C486.522 277.285 486.715 276.995 487.004 276.995V277.188H488.45V275.839H487.004C486.04 275.839 485.366 276.61 485.366 277.622C485.366 278.634 486.04 279.405 487.004 279.405V280.176C487.293 280.176 487.486 280.465 487.486 280.803C487.486 281.14 487.293 281.429 487.004 281.429V281.236H485.558V282.586H487.004C487.968 282.586 488.643 281.815 488.643 280.803C488.643 279.791 487.968 279.02 487.004 279.02ZM497.75 275.839L495.822 278.48H493.094L495.022 275.839H493.384L488.449 282.586H490.087L492.121 279.8H494.849L492.815 282.586H494.454L499.389 275.839H497.75ZM495.339 282.586H496.977L501.913 275.839H500.274L495.339 282.586ZM506.045 277.15L507.018 275.829H502.826L502.816 275.839H502.797L500.811 278.547L499.837 279.868H499.847L497.862 282.586H499.5L501.486 279.868H504.03L505.004 278.547H502.45L503.481 277.15H506.045ZM512.736 275.829H507.637L506.664 277.15H508.591L504.611 282.586H506.249L510.23 277.15H511.763L512.736 275.829Z" fill="#2C2C2C"/>
<rect x="427.488" y="288.441" width="113.257" height="30.8444" rx="15.4222" fill="#E1E1E1"/>
<circle cx="443.22" cy="304.173" r="13.7354" fill="#2C2C2C"/>
<path d="M587.092 275.839H585.454L582.967 279.212H584.172L581.984 282.152V279.212H580.625L583.112 275.839H581.473L578.986 279.212H580.22L578.032 282.152V275.839H576.682V282.586H579.352L580.634 280.861V282.586H583.304L585.81 279.212H584.606L587.092 275.839ZM584.298 282.586H585.937L590.872 275.839H589.233L584.298 282.586ZM598.58 275.839L594.243 281.767V275.839H591.775L586.821 282.586H588.459L592.893 276.552V282.586H595.284L600.219 275.839H598.58ZM601.762 275.839H600.413V282.586H601.762C603.786 282.586 605.136 281.236 605.136 279.212C605.136 277.188 603.786 275.839 601.762 275.839ZM601.762 281.236V277.188C603.111 277.188 603.786 277.959 603.786 279.212C603.786 280.465 603.111 281.236 601.762 281.236ZM608.893 275.839C606.869 275.839 605.519 277.188 605.519 279.212C605.519 281.236 606.869 282.586 608.893 282.586C610.917 282.586 612.266 281.236 612.266 279.212C612.266 277.188 610.917 275.839 608.893 275.839ZM608.893 281.236C607.543 281.236 606.869 280.465 606.869 279.212C606.869 277.959 607.543 277.188 608.893 277.188C610.242 277.188 610.917 277.959 610.917 279.212C610.917 280.465 610.242 281.236 608.893 281.236ZM623.257 275.839H621.618L619.132 279.212H620.337L618.148 282.152V279.212H616.789L619.276 275.839H617.638L615.151 279.212H616.385L614.197 282.152V275.839H612.847V282.586H615.517L616.799 280.861V282.586H619.469L621.975 279.212H620.77L623.257 275.839ZM627.499 279.02V278.248C627.21 278.248 627.017 277.959 627.017 277.622C627.017 277.285 627.21 276.995 627.499 276.995V277.188H628.945V275.839H627.499C626.535 275.839 625.861 276.61 625.861 277.622C625.861 278.634 626.535 279.405 627.499 279.405V280.176C627.788 280.176 627.981 280.465 627.981 280.803C627.981 281.14 627.788 281.429 627.499 281.429V281.236H626.053V282.586H627.499C628.463 282.586 629.138 281.815 629.138 280.803C629.138 279.791 628.463 279.02 627.499 279.02ZM628.944 282.586H630.582L635.517 275.839H633.879L628.944 282.586ZM635.711 275.839V277.188H639.075L635.711 279.665V282.586H639.085V281.236H635.798L639.085 278.817V275.839H635.711ZM647.463 277.14L648.436 275.819H644.243L644.233 275.839H644.214L642.229 278.547L641.255 279.868H641.265L639.279 282.586H643.482L644.455 281.265H641.882L642.903 279.868H645.448L646.422 278.547H643.867L644.899 277.14H647.463Z" fill="#2C2C2C"/>
<rect x="556.168" y="288.441" width="113.257" height="30.8444" rx="15.4222" fill="#E1E1E1"/>
<circle cx="571.899" cy="304.173" r="13.7354" fill="#2C2C2C"/>
<path d="M468.301 339.272L469.274 337.952H465.081L465.072 337.961H465.052L463.067 340.67L462.093 341.99H462.103L460.117 344.708H461.756L463.741 341.99H466.286L467.26 340.67H464.705L465.737 339.272H468.301ZM473.412 339.263L474.385 337.942H470.192L470.183 337.961H470.164L468.178 340.67L467.204 341.99H467.214L465.228 344.708H469.431L470.405 343.388H467.831L468.853 341.99H471.397L472.371 340.67H469.817L470.848 339.263H473.412ZM478.523 339.263L479.497 337.942H475.304L475.294 337.961H475.275L473.289 340.67L472.316 341.99H472.325L470.34 344.708H474.542L475.516 343.388H472.942L473.964 341.99H476.509L477.482 340.67H474.928L475.959 339.263H478.523ZM481.045 337.961H479.696V344.708H481.045C483.069 344.708 484.419 343.359 484.419 341.335C484.419 339.311 483.069 337.961 481.045 337.961ZM481.045 343.359V339.311C482.395 339.311 483.069 340.082 483.069 341.335C483.069 342.588 482.395 343.359 481.045 343.359ZM487.858 341.335H487.212C487.742 341.046 488.07 340.458 488.07 339.744C488.07 338.732 487.395 337.971 486.441 337.961H484.995V344.708H490.345L487.858 341.335ZM486.432 339.118C486.721 339.118 486.913 339.407 486.913 339.744C486.913 340.082 486.721 340.371 486.432 340.371H486.345V339.118H486.432ZM486.345 343.552V341.528H486.364L487.858 343.552H486.345ZM494.179 337.961L491.672 341.335H492.829L490.342 344.708H491.981L493.485 342.675H495.499V344.708H496.849V337.961H494.179ZM495.499 338.395V341.325H493.321L495.499 338.395ZM500.799 344.708V343.359C499.45 343.359 498.775 342.588 498.775 341.335C498.775 340.082 499.45 339.311 500.799 339.311V337.961C498.775 337.961 497.425 339.311 497.425 341.335C497.425 343.359 498.775 344.708 500.799 344.708ZM504.911 341.335H504.073L506.56 337.961H504.921L502.723 340.94V337.961H501.374V344.708H502.723V341.335H503.273L505.76 344.708H507.398L504.911 341.335Z" fill="#2C2C2C"/>
<rect x="427.488" y="350.564" width="113.257" height="30.8444" rx="15.4222" fill="#E1E1E1"/>
<circle cx="443.22" cy="366.296" r="13.7354" fill="#2C2C2C"/>
<path d="M590.182 344.708H592.65L597.604 337.961H595.966L591.532 343.995V337.961H590.182V344.708ZM600.009 337.961C597.985 337.961 596.635 339.311 596.635 341.335C596.635 343.359 597.985 344.708 600.009 344.708C602.033 344.708 603.382 343.359 603.382 341.335C603.382 339.311 602.033 337.961 600.009 337.961ZM600.009 343.359C598.659 343.359 597.985 342.588 597.985 341.335C597.985 340.082 598.659 339.311 600.009 339.311C601.358 339.311 602.033 340.082 602.033 341.335C602.033 342.588 601.358 343.359 600.009 343.359ZM609.088 337.961H607.449L602.514 344.708H606.726L607.7 343.388H605.116L609.088 337.961ZM614.867 337.961V341.335C614.867 342.636 614.154 343.359 612.843 343.359C611.532 343.359 610.819 342.636 610.819 341.335V337.961H609.47V341.335C609.47 343.34 610.829 344.708 612.843 344.708C614.858 344.708 616.217 343.34 616.217 341.335V337.961H614.867ZM623.281 337.961L621.999 339.687V337.961H619.329L616.823 341.335H618.028L615.541 344.708H617.18L619.667 341.335H618.462L620.65 338.395V341.335H622.009L619.522 344.708H621.161L623.648 341.335H622.414L624.602 338.395V344.708H625.951V337.961H623.281ZM634.333 339.263L635.307 337.942H631.114L631.104 337.961H631.085L629.099 340.67L628.126 341.99H628.135L626.15 344.708H630.352L631.326 343.388H628.752L629.774 341.99H632.319L633.292 340.67H630.738L631.769 339.263H634.333Z" fill="#2C2C2C"/>
<rect x="556.168" y="350.564" width="113.257" height="30.8444" rx="15.4222" fill="#E1E1E1"/>
<circle cx="571.899" cy="366.296" r="13.7354" fill="#2C2C2C"/>
<rect x="427.488" y="400.687" width="57.5924" height="24.0972" rx="3.85556" fill="#BDFC2A"/>
<path d="M435.652 413.87C437.773 413.87 439.469 412.173 439.469 410.053C439.469 407.932 437.773 406.236 435.652 406.236C433.532 406.236 431.835 407.932 431.835 410.053C431.835 412.173 433.532 413.87 435.652 413.87Z" fill="#2C2C2C"/>
<rect x="488.938" y="400.687" width="57.5924" height="24.0972" rx="3.85556" fill="#BDFC2A"/>
<path d="M497.102 413.87C499.222 413.87 500.919 412.173 500.919 410.053C500.919 407.932 499.222 406.236 497.102 406.236C494.981 406.236 493.285 407.932 493.285 410.053C493.285 412.173 494.981 413.87 497.102 413.87Z" fill="#2C2C2C"/>
<rect x="550.383" y="400.687" width="57.5924" height="24.0972" rx="3.85556" fill="#BDFC2A"/>
<path d="M558.547 413.87C560.667 413.87 562.364 412.173 562.364 410.053C562.364 407.932 560.667 406.236 558.547 406.236C556.426 406.236 554.73 407.932 554.73 410.053C554.73 412.173 556.426 413.87 558.547 413.87Z" fill="#2C2C2C"/>
<rect x="611.832" y="400.687" width="57.5924" height="24.0972" rx="3.85556" fill="#BDFC2A"/>
<path d="M619.996 413.87C622.117 413.87 623.813 412.173 623.813 410.053C623.813 407.932 622.117 406.236 619.996 406.236C617.876 406.236 616.179 407.932 616.179 410.053C616.179 412.173 617.876 413.87 619.996 413.87Z" fill="#2C2C2C"/>
<rect x="427.488" y="428.639" width="57.5924" height="23.6153" rx="3.85556" fill="#BDFC2A"/>
<path d="M435.652 441.822C437.773 441.822 439.469 440.126 439.469 438.005C439.469 435.885 437.773 434.188 435.652 434.188C433.532 434.188 431.835 435.885 431.835 438.005C431.835 440.126 433.532 441.822 435.652 441.822Z" fill="#2C2C2C"/>
<rect x="488.938" y="428.639" width="57.5924" height="23.6153" rx="3.85556" fill="#BDFC2A"/>
<path d="M497.102 441.822C499.222 441.822 500.919 440.126 500.919 438.005C500.919 435.885 499.222 434.188 497.102 434.188C494.981 434.188 493.285 435.885 493.285 438.005C493.285 440.126 494.981 441.822 497.102 441.822Z" fill="#2C2C2C"/>
<rect x="550.383" y="428.639" width="57.5924" height="23.6153" rx="3.85556" fill="#BDFC2A"/>
<path d="M558.547 441.822C560.667 441.822 562.364 440.126 562.364 438.005C562.364 435.885 560.667 434.188 558.547 434.188C556.426 434.188 554.73 435.885 554.73 438.005C554.73 440.126 556.426 441.822 558.547 441.822Z" fill="#2C2C2C"/>
<rect x="611.832" y="428.639" width="57.5924" height="23.6153" rx="3.85556" fill="#BDFC2A"/>
<path d="M619.996 441.822C622.117 441.822 623.813 440.126 623.813 438.005C623.813 435.885 622.117 434.188 619.996 434.188C617.876 434.188 616.179 435.885 616.179 438.005C616.179 440.126 617.876 441.822 619.996 441.822Z" fill="#2C2C2C"/>
<rect x="427.488" y="456.11" width="57.5924" height="24.0972" rx="3.85556" fill="#BDFC2A"/>
<path d="M435.652 469.294C437.773 469.294 439.469 467.597 439.469 465.477C439.469 463.356 437.773 461.66 435.652 461.66C433.532 461.66 431.835 463.356 431.835 465.477C431.835 467.597 433.532 469.294 435.652 469.294Z" fill="#2C2C2C"/>
<rect x="488.938" y="456.11" width="57.5924" height="24.0972" rx="3.85556" fill="#BDFC2A"/>
<path d="M497.102 469.294C499.222 469.294 500.919 467.597 500.919 465.477C500.919 463.356 499.222 461.66 497.102 461.66C494.981 461.66 493.285 463.356 493.285 465.477C493.285 467.597 494.981 469.294 497.102 469.294Z" fill="#2C2C2C"/>
<rect x="550.383" y="456.11" width="57.5924" height="24.0972" rx="3.85556" fill="#BDFC2A"/>
<path d="M558.547 469.294C560.667 469.294 562.364 467.597 562.364 465.477C562.364 463.356 560.667 461.66 558.547 461.66C556.426 461.66 554.73 463.356 554.73 465.477C554.73 467.597 556.426 469.294 558.547 469.294Z" fill="#2C2C2C"/>
<rect x="611.832" y="456.11" width="57.5924" height="24.0972" rx="3.85556" fill="#BDFC2A"/>
<path d="M619.996 469.294C622.117 469.294 623.813 467.597 623.813 465.477C623.813 463.356 622.117 461.66 619.996 461.66C617.876 461.66 616.179 463.356 616.179 465.477C616.179 467.597 617.876 469.294 619.996 469.294Z" fill="#2C2C2C"/>
<rect x="14.4609" y="14.4585" width="389.893" height="349.41" rx="9.63889" fill="#7E2FE1"/>
<path d="M58.116 34.0972H60.5836L65.538 27.3499H63.8994L59.4655 33.3839V27.3499H58.116V34.0972ZM67.9424 27.3499C65.9183 27.3499 64.5688 28.6994 64.5688 30.7236C64.5688 32.7477 65.9183 34.0972 67.9424 34.0972C69.9666 34.0972 71.316 32.7477 71.316 30.7236C71.316 28.6994 69.9666 27.3499 67.9424 27.3499ZM67.9424 32.7477C66.593 32.7477 65.9183 31.9766 65.9183 30.7236C65.9183 29.4705 66.593 28.6994 67.9424 28.6994C69.2919 28.6994 69.9666 29.4705 69.9666 30.7236C69.9666 31.9766 69.2919 32.7477 67.9424 32.7477ZM77.0211 27.3499H75.3825L70.4474 34.0972H74.6596L75.6331 32.7766H73.0499L77.0211 27.3499ZM82.801 27.3499V30.7236C82.801 32.0248 82.0877 32.7477 80.7768 32.7477C79.4659 32.7477 78.7527 32.0248 78.7527 30.7236V27.3499H77.4032V30.7236C77.4032 32.7284 78.7623 34.0972 80.7768 34.0972C82.7914 34.0972 84.1504 32.7284 84.1504 30.7236V27.3499H82.801ZM91.215 27.3499L89.933 29.0753V27.3499H87.263L84.7569 30.7236H85.9618L83.475 34.0972H85.1136L87.6004 30.7236H86.3955L88.5836 27.7837V30.7236H89.9427L87.4558 34.0972H89.0944L91.5813 30.7236H90.3475L92.5355 27.7837V34.0972H93.885V27.3499H91.215ZM102.267 28.6512L103.24 27.3307H99.0474L99.0378 27.3499H99.0185L97.0329 30.0585L96.0594 31.379H96.069L94.0834 34.0972H98.2859L99.2595 32.7766H96.6859L97.7076 31.379H100.252L101.226 30.0585H98.6715L99.7029 28.6512H102.267Z" fill="#2C2C2C"/>
<rect x="24.1016" y="39.9526" width="113.257" height="30.8444" rx="15.4222" fill="#E1E1E1"/>
<circle cx="39.8331" cy="55.6846" r="13.7354" fill="#2C2C2C"/>
<path d="M208.706 27.3499H207.067L204.58 30.7236H205.785L203.597 33.6634V30.7236H202.238L204.725 27.3499H203.086L200.599 30.7236H201.833L199.645 33.6634V27.3499H198.296V34.0972H200.966L202.248 32.3718V34.0972H204.918L207.424 30.7236H206.219L208.706 27.3499ZM214.095 28.6512L215.068 27.3307H210.875L210.866 27.3499H210.846L208.861 30.0585L207.887 31.379H207.897L205.911 34.0972H210.114L211.087 32.7766H208.514L209.535 31.379H212.08L213.054 30.0585H210.499L211.531 28.6512H214.095ZM220.786 27.3403H215.687L214.713 28.6608H216.641L212.66 34.0972H214.299L218.28 28.6608H219.812L220.786 27.3403Z" fill="#2C2C2C"/>
<rect x="152.781" y="39.9526" width="113.257" height="30.8444" rx="15.4222" fill="#E1E1E1"/>
<circle cx="168.513" cy="55.6846" r="13.7354" fill="#2C2C2C"/>
<path d="M295.338 30.7236H294.692C295.222 30.4344 295.55 29.8464 295.55 29.1331C295.55 28.1211 294.875 27.3596 293.921 27.3499H292.475V34.0972H297.825L295.338 30.7236ZM293.912 28.5066C294.201 28.5066 294.394 28.7958 294.394 29.1331C294.394 29.4705 294.201 29.7597 293.912 29.7597H293.825V28.5066H293.912ZM293.825 32.9405V30.9163H293.844L295.338 32.9405H293.825ZM301.659 27.3499L299.153 30.7236H300.309L297.822 34.0972H299.461L300.965 32.0634H302.979V34.0972H304.329V27.3499H301.659ZM302.979 27.7837V30.7139H300.801L302.979 27.7837ZM306.544 30.5308V29.7597C306.255 29.7597 306.062 29.4705 306.062 29.1331C306.062 28.7958 306.255 28.5066 306.544 28.5066V28.6994H307.99V27.3499H306.544C305.58 27.3499 304.905 28.1211 304.905 29.1331C304.905 30.1452 305.58 30.9163 306.544 30.9163V31.6874C306.833 31.6874 307.026 31.9766 307.026 32.314C307.026 32.6513 306.833 32.9405 306.544 32.9405V32.7477H305.098V34.0972H306.544C307.508 34.0972 308.183 33.3261 308.183 32.314C308.183 31.3019 307.508 30.5308 306.544 30.5308ZM316.172 28.6512L317.145 27.3307H312.952L312.943 27.3499H312.923L310.938 30.0585L309.964 31.379H309.974L307.988 34.0972H312.191L313.164 32.7766H310.591L311.613 31.379H314.157L315.131 30.0585H312.576L313.608 28.6512H316.172ZM327.74 28.6608L328.714 27.3403H324.521L324.511 27.3499H324.492L322.506 30.0585L321.533 31.379H321.543L319.557 34.0972H321.196L323.181 31.379H325.726L326.699 30.0585H324.145L325.176 28.6608H327.74ZM334.214 34.0972L331.728 30.7236H331.13C331.66 30.4344 331.988 29.8464 331.988 29.1331C331.988 28.1211 331.313 27.3596 330.359 27.3499H328.913V34.0972H330.262V30.9549L332.576 34.0972H334.214ZM330.349 28.5066C330.638 28.5066 330.831 28.7958 330.831 29.1331C330.831 29.4705 330.638 29.7597 330.349 29.7597H330.262V28.5066H330.349ZM342.396 28.6512L343.37 27.3307H339.177L339.167 27.3499H339.148L337.162 30.0585L336.189 31.379H336.199L334.213 34.0972H338.415L339.389 32.7766H336.815L337.837 31.379H340.382L341.355 30.0585H338.801L339.832 28.6512H342.396ZM343.756 30.7236C343.756 29.4705 344.431 28.6994 345.78 28.6994C347.082 28.6994 347.805 29.4223 347.805 30.7236H349.154C349.154 28.6994 347.805 27.3499 345.78 27.3499C343.756 27.3499 342.407 28.6994 342.407 30.7236C342.407 32.7477 343.756 34.0972 345.78 34.0972V32.7477C344.431 32.7477 343.756 31.9766 343.756 30.7236ZM345.751 31.8031L349.125 34.2899V32.6513L345.751 30.1645V31.8031ZM355.132 27.3499V30.7236C355.132 32.0248 354.419 32.7477 353.108 32.7477C351.797 32.7477 351.084 32.0248 351.084 30.7236V27.3499H349.735V30.7236C349.735 32.7284 351.094 34.0972 353.108 34.0972C355.123 34.0972 356.482 32.7284 356.482 30.7236V27.3499H355.132ZM363.896 28.6512L364.869 27.3307H360.676L360.667 27.3499H360.647L358.662 30.0585L357.688 31.379H357.698L355.712 34.0972H359.915L360.888 32.7766H358.315L359.336 31.379H361.881L362.855 30.0585H360.3L361.332 28.6512H363.896ZM372.583 27.3499L368.245 33.2779V27.3499H365.778L360.823 34.0972H362.462L366.896 28.0632V34.0972H369.286L374.221 27.3499H372.583ZM376.627 34.0972V32.7477C375.277 32.7477 374.603 31.9766 374.603 30.7236C374.603 29.4705 375.277 28.6994 376.627 28.6994V27.3499C374.603 27.3499 373.253 28.6994 373.253 30.7236C373.253 32.7477 374.603 34.0972 376.627 34.0972ZM382.358 27.3499L380.17 30.2898V27.3499H378.821V30.7236H379.303L376.816 34.0972H378.455L380.942 30.7236H381.491L383.997 27.3499H382.358Z" fill="#2C2C2C"/>
<rect x="281.461" y="39.9526" width="113.257" height="30.8444" rx="15.4222" fill="#E1E1E1"/>
<circle cx="297.192" cy="55.6846" r="13.7354" fill="#2C2C2C"/>
<path d="M64.2969 89.472C62.2727 89.472 60.9232 90.8215 60.9232 92.8456C60.9232 94.8698 62.2727 96.2192 64.2969 96.2192C66.321 96.2192 67.6705 94.8698 67.6705 92.8456C67.6705 90.8215 66.321 89.472 64.2969 89.472ZM64.2969 94.8698C62.9474 94.8698 62.2727 94.0987 62.2727 92.8456C62.2727 91.5926 62.9474 90.8215 64.2969 90.8215C65.6463 90.8215 66.321 91.5926 66.321 92.8456C66.321 94.0987 65.6463 94.8698 64.2969 94.8698ZM71.4319 96.2192V94.8698C70.0825 94.8698 69.4077 94.0987 69.4077 92.8456C69.4077 91.5926 70.0825 90.8215 71.4319 90.8215V89.472C69.4077 89.472 68.0583 90.8215 68.0583 92.8456C68.0583 94.8698 69.4077 96.2192 71.4319 96.2192ZM79.7469 89.4624H74.6479L73.6744 90.7829H75.6021L71.6213 96.2192H73.2599L77.2408 90.7829H78.7733L79.7469 89.4624ZM80.597 89.472L78.0909 92.8456H79.2476L76.7608 96.2192H78.3994L79.903 94.1854H81.9176V96.2192H83.267V89.472H80.597ZM81.9176 89.9058V92.836H79.7392L81.9176 89.9058ZM84.0366 96.2192H86.5042L91.4586 89.472H89.82L85.3861 95.506V89.472H84.0366V96.2192ZM95.5903 90.7733L96.5638 89.4527H92.3709L92.3612 89.472H92.342L90.3563 92.1805L89.3828 93.5011H89.3925L87.4068 96.2192H91.6094L92.5829 94.8987H90.0093L91.0311 93.5011H93.5757L94.5493 92.1805H91.995L93.0263 90.7733H95.5903ZM98.0111 92.6528V91.8817C97.722 91.8817 97.5292 91.5926 97.5292 91.2552C97.5292 90.9178 97.722 90.6287 98.0111 90.6287V90.8215H99.457V89.472H98.0111C97.0472 89.472 96.3725 90.2431 96.3725 91.2552C96.3725 92.2673 97.0472 93.0384 98.0111 93.0384V93.8095C98.3003 93.8095 98.4931 94.0987 98.4931 94.436C98.4931 94.7734 98.3003 95.0626 98.0111 95.0626V94.8698H96.5653V96.2192H98.0111C98.975 96.2192 99.6497 95.4481 99.6497 94.436C99.6497 93.424 98.975 92.6528 98.0111 92.6528Z" fill="#2C2C2C"/>
<rect x="24.1016" y="102.075" width="113.257" height="30.8444" rx="15.4222" fill="#E1E1E1"/>
<circle cx="39.8331" cy="117.807" r="13.7354" fill="#2C2C2C"/>
<path d="M180.742 92.6528V91.8817C180.452 91.8817 180.26 91.5926 180.26 91.2552C180.26 90.9178 180.452 90.6287 180.742 90.6287V90.8215H182.187V89.472H180.742C179.778 89.472 179.103 90.2431 179.103 91.2552C179.103 92.2673 179.778 93.0384 180.742 93.0384V93.8095C181.031 93.8095 181.223 94.0987 181.223 94.436C181.223 94.7734 181.031 95.0626 180.742 95.0626V94.8698H179.296V96.2192H180.742C181.705 96.2192 182.38 95.4481 182.38 94.436C182.38 93.424 181.705 92.6528 180.742 92.6528ZM190.369 90.7733L191.343 89.4527H187.15L187.14 89.472H187.121L185.135 92.1805L184.162 93.5011H184.171L182.186 96.2192H186.388L187.362 94.8987H184.788L185.81 93.5011H188.355L189.328 92.1805H186.774L187.805 90.7733H190.369ZM199.057 89.472L194.719 95.3999V89.472H192.252L187.297 96.2192H188.936L193.37 90.1853V96.2192H195.76L200.695 89.472H199.057ZM202.137 92.6528V91.8817C201.848 91.8817 201.655 91.5926 201.655 91.2552C201.655 90.9178 201.848 90.6287 202.137 90.6287V90.8215H203.583V89.472H202.137C201.173 89.472 200.499 90.2431 200.499 91.2552C200.499 92.2673 201.173 93.0384 202.137 93.0384V93.8095C202.426 93.8095 202.619 94.0987 202.619 94.436C202.619 94.7734 202.426 95.0626 202.137 95.0626V94.8698H200.691V96.2192H202.137C203.101 96.2192 203.776 95.4481 203.776 94.436C203.776 93.424 203.101 92.6528 202.137 92.6528ZM203.582 96.2192H205.22L210.155 89.472H208.517L203.582 96.2192ZM215.868 89.4624H210.769L209.795 90.7829H211.723L207.742 96.2192H209.381L213.362 90.7829H214.894L215.868 89.4624ZM211.526 96.2192H213.165L218.1 89.472H216.461L211.526 96.2192ZM218.294 96.2192H220.761L225.716 89.472H224.077L219.643 95.506V89.472H218.294V96.2192ZM221.664 96.2192H223.303L228.238 89.472H226.599L221.664 96.2192ZM233.95 89.4624H228.851L227.878 90.7829H229.805L225.824 96.2192H227.463L231.444 90.7829H232.976L233.95 89.4624ZM237.655 89.472L235.467 92.4119V89.472H234.117V92.8456H234.599L232.112 96.2192H233.751L236.238 92.8456H236.787L239.293 89.472H237.655Z" fill="#2C2C2C"/>
<rect x="152.781" y="102.075" width="113.257" height="30.8444" rx="15.4222" fill="#E1E1E1"/>
<circle cx="168.513" cy="117.807" r="13.7354" fill="#2C2C2C"/>
<path d="M335.632 92.8456C335.632 91.5926 336.307 90.8215 337.656 90.8215C338.957 90.8215 339.68 91.5444 339.68 92.8456H341.03C341.03 90.8215 339.68 89.472 337.656 89.472C335.632 89.472 334.283 90.8215 334.283 92.8456C334.283 94.8698 335.632 96.2192 337.656 96.2192V94.8698C336.307 94.8698 335.632 94.0987 335.632 92.8456ZM337.627 93.9252L341.001 96.412V94.7734L337.627 92.2866V93.9252Z" fill="#2C2C2C"/>
<rect x="281.461" y="102.075" width="113.257" height="30.8444" rx="15.4222" fill="#E1E1E1"/>
<circle cx="297.192" cy="117.807" r="13.7354" fill="#2C2C2C"/>
<path d="M69.7872 154.101V155.421H71.7921C71.6379 156.433 70.9342 156.992 69.7969 156.992C68.4474 156.992 67.7727 156.221 67.7727 154.968C67.7727 153.715 68.4474 152.944 69.7969 152.944V151.595C67.7727 151.595 66.4232 152.944 66.4232 154.968C66.4232 156.992 67.7727 158.342 69.7969 158.342C71.8114 158.342 73.1608 157.002 73.1705 154.997V154.101H69.7872ZM76.2417 151.595L73.7355 154.968H74.8922L72.4054 158.342H74.044L75.5477 156.308H77.5622V158.342H78.9116V151.595H76.2417ZM77.5622 152.028V154.959H75.3838L77.5622 152.028ZM79.1074 158.342H80.746L85.6811 151.595H84.0425L79.1074 158.342ZM93.3895 151.595L89.052 157.522V151.595H86.5845L81.6301 158.342H83.2687L87.7026 152.308V158.342H90.093L95.0282 151.595H93.3895Z" fill="#2C2C2C"/>
<rect x="24.1016" y="164.197" width="113.257" height="30.8444" rx="15.4222" fill="#E1E1E1"/>
<circle cx="39.8331" cy="179.929" r="13.7354" fill="#2C2C2C"/>
<path d="M183.871 153.378C183.871 152.366 183.196 151.604 182.242 151.595H180.796V158.342H182.145V155.161H182.242C183.196 155.151 183.871 154.39 183.871 153.378ZM182.232 154.004H182.145V152.751H182.232C182.521 152.751 182.714 153.04 182.714 153.378C182.714 153.715 182.521 154.004 182.232 154.004ZM182.33 158.342H183.969L188.904 151.595H187.266L182.33 158.342ZM194.617 151.585H189.518L188.544 152.905H190.472L186.491 158.342H188.13L192.11 152.905H193.643L194.617 151.585ZM196.929 158.342V156.992C195.579 156.992 194.905 156.221 194.905 154.968C194.905 153.715 195.579 152.944 196.929 152.944V151.595C194.905 151.595 193.555 152.944 193.555 154.968C193.555 156.992 194.905 158.342 196.929 158.342ZM206.42 151.595L204.492 154.236H201.764L203.692 151.595H202.053L197.118 158.342H198.757L200.791 155.556H203.518L201.485 158.342H203.123L208.058 151.595H206.42ZM212.297 154.775V154.004C212.008 154.004 211.815 153.715 211.815 153.378C211.815 153.04 212.008 152.751 212.297 152.751V152.944H213.743V151.595H212.297C211.333 151.595 210.659 152.366 210.659 153.378C210.659 154.39 211.333 155.161 212.297 155.161V155.932C212.586 155.932 212.779 156.221 212.779 156.559C212.779 156.896 212.586 157.185 212.297 157.185V156.992H210.851V158.342H212.297C213.261 158.342 213.936 157.571 213.936 156.559C213.936 155.547 213.261 154.775 212.297 154.775ZM223.043 151.595L221.115 154.236H218.387L220.315 151.595H218.677L213.742 158.342H215.38L217.414 155.556H220.142L218.108 158.342H219.747L224.682 151.595H223.043ZM220.632 158.342H222.27L227.206 151.595H225.567L220.632 158.342ZM231.338 152.905L232.311 151.585H228.119L228.109 151.595H228.09L226.104 154.303L225.13 155.624H225.14L223.154 158.342H224.793L226.779 155.624H229.323L230.297 154.303H227.743L228.774 152.905H231.338ZM238.029 151.585H232.93L231.957 152.905H233.884L229.904 158.342H231.542L235.523 152.905H237.056L238.029 151.585Z" fill="#2C2C2C"/>
<rect x="152.781" y="164.197" width="113.257" height="30.8444" rx="15.4222" fill="#E1E1E1"/>
<circle cx="168.513" cy="179.929" r="13.7354" fill="#2C2C2C"/>
<path d="M312.385 151.595H310.747L308.26 154.968H309.465L307.277 157.908V154.968H305.918L308.405 151.595H306.766L304.279 154.968H305.513L303.325 157.908V151.595H301.975V158.342H304.645L305.927 156.616V158.342H308.597L311.103 154.968H309.899L312.385 151.595ZM309.591 158.342H311.229L316.165 151.595H314.526L309.591 158.342ZM323.873 151.595L319.535 157.522V151.595H317.068L312.114 158.342H313.752L318.186 152.308V158.342H320.576L325.512 151.595H323.873ZM327.055 151.595H325.706V158.342H327.055C329.079 158.342 330.429 156.992 330.429 154.968C330.429 152.944 329.079 151.595 327.055 151.595ZM327.055 156.992V152.944C328.404 152.944 329.079 153.715 329.079 154.968C329.079 156.221 328.404 156.992 327.055 156.992ZM334.186 151.595C332.162 151.595 330.812 152.944 330.812 154.968C330.812 156.992 332.162 158.342 334.186 158.342C336.21 158.342 337.559 156.992 337.559 154.968C337.559 152.944 336.21 151.595 334.186 151.595ZM334.186 156.992C332.836 156.992 332.162 156.221 332.162 154.968C332.162 153.715 332.836 152.944 334.186 152.944C335.535 152.944 336.21 153.715 336.21 154.968C336.21 156.221 335.535 156.992 334.186 156.992ZM348.55 151.595H346.911L344.425 154.968H345.629L343.441 157.908V154.968H342.082L344.569 151.595H342.931L340.444 154.968H341.678L339.49 157.908V151.595H338.14V158.342H340.81L342.092 156.616V158.342H344.762L347.268 154.968H346.063L348.55 151.595ZM352.792 154.775V154.004C352.503 154.004 352.31 153.715 352.31 153.378C352.31 153.04 352.503 152.751 352.792 152.751V152.944H354.238V151.595H352.792C351.828 151.595 351.154 152.366 351.154 153.378C351.154 154.39 351.828 155.161 352.792 155.161V155.932C353.081 155.932 353.274 156.221 353.274 156.559C353.274 156.896 353.081 157.185 352.792 157.185V156.992H351.346V158.342H352.792C353.756 158.342 354.431 157.571 354.431 156.559C354.431 155.547 353.756 154.775 352.792 154.775ZM354.237 158.342H355.875L360.81 151.595H359.172L354.237 158.342ZM361.004 151.595V152.944H364.368L361.004 155.421V158.342H364.378V156.992H361.091L364.378 154.573V151.595H361.004ZM372.755 152.896L373.729 151.575H369.536L369.526 151.595H369.507L367.522 154.303L366.548 155.624H366.558L364.572 158.342H368.775L369.748 157.021H367.175L368.196 155.624H370.741L371.714 154.303H369.16L370.192 152.896H372.755Z" fill="#2C2C2C"/>
<rect x="281.461" y="164.197" width="113.257" height="30.8444" rx="15.4222" fill="#E1E1E1"/>
<circle cx="297.192" cy="179.929" r="13.7354" fill="#2C2C2C"/>
<path d="M64.9139 215.028L65.8874 213.707H61.6945L61.6849 213.717H61.6656L59.68 216.425L58.7064 217.746H58.7161L56.7305 220.464H58.3691L60.3547 217.746H62.8994L63.8729 216.425H61.3186L62.3499 215.028H64.9139ZM70.0251 215.018L70.9987 213.697H66.8057L66.7961 213.717H66.7768L64.7912 216.425L63.8177 217.746H63.8273L61.8417 220.464H66.0443L67.0178 219.143H64.4442L65.4659 217.746H68.0106L68.9841 216.425H66.4298L67.4612 215.018H70.0251ZM75.1364 215.018L76.1099 213.697H71.917L71.9074 213.717H71.8881L69.9025 216.425L68.9289 217.746H68.9386L66.953 220.464H71.1555L72.129 219.143H69.5555L70.5772 217.746H73.1219L74.0954 216.425H71.5411L72.5724 215.018H75.1364ZM77.6585 213.717H76.3091V220.464H77.6585C79.6827 220.464 81.0321 219.114 81.0321 217.09C81.0321 215.066 79.6827 213.717 77.6585 213.717ZM77.6585 219.114V215.066C79.008 215.066 79.6827 215.837 79.6827 217.09C79.6827 218.343 79.008 219.114 77.6585 219.114ZM84.4713 217.09H83.8255C84.3557 216.801 84.6834 216.213 84.6834 215.5C84.6834 214.488 84.0087 213.726 83.0544 213.717H81.6086V220.464H86.9582L84.4713 217.09ZM83.0448 214.873C83.334 214.873 83.5267 215.162 83.5267 215.5C83.5267 215.837 83.334 216.126 83.0448 216.126H82.958V214.873H83.0448ZM82.958 219.307V217.283H82.9773L84.4713 219.307H82.958ZM90.7918 213.717L88.2857 217.09H89.4424L86.9555 220.464H88.5942L90.0978 218.43H92.1123V220.464H93.4618V213.717H90.7918ZM92.1123 214.15V217.081H89.934L92.1123 214.15ZM97.4122 220.464V219.114C96.0628 219.114 95.3881 218.343 95.3881 217.09C95.3881 215.837 96.0628 215.066 97.4122 215.066V213.717C95.3881 213.717 94.0386 215.066 94.0386 217.09C94.0386 219.114 95.3881 220.464 97.4122 220.464ZM101.525 217.09H100.686L103.173 213.717H101.534L99.3366 216.695V213.717H97.9872V220.464H99.3366V217.09H99.886L102.373 220.464H104.011L101.525 217.09Z" fill="#2C2C2C"/>
<rect x="24.1016" y="226.319" width="113.257" height="30.8444" rx="15.4222" fill="#E1E1E1"/>
<circle cx="39.8331" cy="242.051" r="13.7354" fill="#2C2C2C"/>
<path d="M186.796 220.464H189.263L194.218 213.717H192.579L188.145 219.751V213.717H186.796V220.464ZM196.622 213.717C194.598 213.717 193.248 215.066 193.248 217.09C193.248 219.114 194.598 220.464 196.622 220.464C198.646 220.464 199.996 219.114 199.996 217.09C199.996 215.066 198.646 213.717 196.622 213.717ZM196.622 219.114C195.273 219.114 194.598 218.343 194.598 217.09C194.598 215.837 195.273 215.066 196.622 215.066C197.972 215.066 198.646 215.837 198.646 217.09C198.646 218.343 197.972 219.114 196.622 219.114ZM205.701 213.717H204.062L199.127 220.464H203.339L204.313 219.143H201.73L205.701 213.717ZM211.481 213.717V217.09C211.481 218.392 210.767 219.114 209.457 219.114C208.146 219.114 207.432 218.392 207.432 217.09V213.717H206.083V217.09C206.083 219.095 207.442 220.464 209.457 220.464C211.471 220.464 212.83 219.095 212.83 217.09V213.717H211.481ZM219.895 213.717L218.613 215.442V213.717H215.943L213.437 217.09H214.641L212.155 220.464H213.793L216.28 217.09H215.075L217.263 214.15V217.09H218.622L216.136 220.464H217.774L220.261 217.09H219.027L221.215 214.15V220.464H222.565V213.717H219.895ZM230.946 215.018L231.92 213.697H227.727L227.717 213.717H227.698L225.713 216.425L224.739 217.746H224.749L222.763 220.464H226.966L227.939 219.143H225.366L226.387 217.746H228.932L229.905 216.425H227.351L228.383 215.018H230.946Z" fill="#2C2C2C"/>
<rect x="152.781" y="226.319" width="113.257" height="30.8444" rx="15.4222" fill="#E1E1E1"/>
<circle cx="168.513" cy="242.051" r="13.7354" fill="#2C2C2C"/>
<path d="M315.475 220.464H317.943L322.897 213.717H321.259L316.825 219.751V213.717H315.475V220.464ZM325.302 213.717C323.278 213.717 321.928 215.066 321.928 217.09C321.928 219.114 323.278 220.464 325.302 220.464C327.326 220.464 328.675 219.114 328.675 217.09C328.675 215.066 327.326 213.717 325.302 213.717ZM325.302 219.114C323.952 219.114 323.278 218.343 323.278 217.09C323.278 215.837 323.952 215.066 325.302 215.066C326.651 215.066 327.326 215.837 327.326 217.09C327.326 218.343 326.651 219.114 325.302 219.114ZM334.38 213.717H332.742L327.807 220.464H332.019L332.992 219.143H330.409L334.38 213.717ZM340.16 213.717V217.09C340.16 218.392 339.447 219.114 338.136 219.114C336.825 219.114 336.112 218.392 336.112 217.09V213.717H334.763V217.09C334.763 219.095 336.122 220.464 338.136 220.464C340.151 220.464 341.51 219.095 341.51 217.09V213.717H340.16ZM348.574 213.717L347.292 215.442V213.717H344.622L342.116 217.09H343.321L340.834 220.464H342.473L344.96 217.09H343.755L345.943 214.15V217.09H347.302L344.815 220.464H346.454L348.941 217.09H347.707L349.895 214.15V220.464H351.244V213.717H348.574ZM359.626 215.018L360.6 213.697H356.407L356.397 213.717H356.378L354.392 216.425L353.419 217.746H353.428L351.443 220.464H355.645L356.619 219.143H354.045L355.067 217.746H357.612L358.585 216.425H356.031L357.062 215.018H359.626Z" fill="#2C2C2C"/>
<rect x="281.461" y="226.319" width="113.257" height="30.8444" rx="15.4222" fill="#E1E1E1"/>
<circle cx="297.192" cy="242.051" r="13.7354" fill="#2C2C2C"/>
<rect x="24.1016" y="274.708" width="89.7622" height="24.0972" rx="3.85556" fill="#BDFC2A"/>
<path d="M32.2656 287.892C34.3862 287.892 36.0826 286.195 36.0826 284.075C36.0826 281.954 34.3862 280.258 32.2656 280.258C30.1451 280.258 28.4486 281.954 28.4486 284.075C28.4486 286.195 30.1451 287.892 32.2656 287.892Z" fill="#2C2C2C"/>
<rect x="117.719" y="274.708" width="89.7622" height="24.0972" rx="3.85556" fill="#BDFC2A"/>
<path d="M125.883 287.892C128.003 287.892 129.7 286.195 129.7 284.075C129.7 281.954 128.003 280.258 125.883 280.258C123.762 280.258 122.066 281.954 122.066 284.075C122.066 286.195 123.762 287.892 125.883 287.892Z" fill="#2C2C2C"/>
<rect x="211.336" y="274.708" width="89.7622" height="24.0972" rx="3.85556" fill="#BDFC2A"/>
<path d="M219.5 287.892C221.621 287.892 223.317 286.195 223.317 284.075C223.317 281.954 221.621 280.258 219.5 280.258C217.379 280.258 215.683 281.954 215.683 284.075C215.683 286.195 217.379 287.892 219.5 287.892Z" fill="#2C2C2C"/>
<rect x="304.953" y="274.708" width="89.7622" height="24.0972" rx="3.85556" fill="#BDFC2A"/>
<path d="M313.117 287.892C315.238 287.892 316.934 286.195 316.934 284.075C316.934 281.954 315.238 280.258 313.117 280.258C310.997 280.258 309.3 281.954 309.3 284.075C309.3 286.195 310.997 287.892 313.117 287.892Z" fill="#2C2C2C"/>
<rect x="24.1016" y="302.661" width="89.7622" height="23.6153" rx="3.85556" fill="#BDFC2A"/>
<path d="M32.2656 315.844C34.3862 315.844 36.0826 314.148 36.0826 312.027C36.0826 309.907 34.3862 308.21 32.2656 308.21C30.1451 308.21 28.4486 309.907 28.4486 312.027C28.4486 314.148 30.1451 315.844 32.2656 315.844Z" fill="#2C2C2C"/>
<rect x="117.719" y="302.661" width="89.7622" height="23.6153" rx="3.85556" fill="#BDFC2A"/>
<path d="M125.883 315.844C128.003 315.844 129.7 314.148 129.7 312.027C129.7 309.907 128.003 308.21 125.883 308.21C123.762 308.21 122.066 309.907 122.066 312.027C122.066 314.148 123.762 315.844 125.883 315.844Z" fill="#2C2C2C"/>
<rect x="211.336" y="302.661" width="89.7622" height="23.6153" rx="3.85556" fill="#BDFC2A"/>
<path d="M219.5 315.844C221.621 315.844 223.317 314.148 223.317 312.027C223.317 309.907 221.621 308.21 219.5 308.21C217.379 308.21 215.683 309.907 215.683 312.027C215.683 314.148 217.379 315.844 219.5 315.844Z" fill="#2C2C2C"/>
<rect x="304.953" y="302.661" width="89.7622" height="23.6153" rx="3.85556" fill="#BDFC2A"/>
<path d="M313.117 315.844C315.238 315.844 316.934 314.148 316.934 312.027C316.934 309.907 315.238 308.21 313.117 308.21C310.997 308.21 309.3 309.907 309.3 312.027C309.3 314.148 310.997 315.844 313.117 315.844Z" fill="#2C2C2C"/>
<rect x="24.1016" y="330.132" width="89.7622" height="24.0972" rx="3.85556" fill="#BDFC2A"/>
<path d="M32.2656 343.316C34.3862 343.316 36.0826 341.619 36.0826 339.499C36.0826 337.378 34.3862 335.682 32.2656 335.682C30.1451 335.682 28.4486 337.378 28.4486 339.499C28.4486 341.619 30.1451 343.316 32.2656 343.316Z" fill="#2C2C2C"/>
<rect x="117.719" y="330.132" width="89.7622" height="24.0972" rx="3.85556" fill="#BDFC2A"/>
<path d="M125.883 343.316C128.003 343.316 129.7 341.619 129.7 339.499C129.7 337.378 128.003 335.682 125.883 335.682C123.762 335.682 122.066 337.378 122.066 339.499C122.066 341.619 123.762 343.316 125.883 343.316Z" fill="#2C2C2C"/>
<rect x="211.336" y="330.132" width="89.7622" height="24.0972" rx="3.85556" fill="#BDFC2A"/>
<path d="M219.5 343.316C221.621 343.316 223.317 341.619 223.317 339.499C223.317 337.378 221.621 335.682 219.5 335.682C217.379 335.682 215.683 337.378 215.683 339.499C215.683 341.619 217.379 343.316 219.5 343.316Z" fill="#2C2C2C"/>
<rect x="304.953" y="330.132" width="89.7622" height="24.0972" rx="3.85556" fill="#BDFC2A"/>
<path d="M313.117 343.316C315.238 343.316 316.934 341.619 316.934 339.499C316.934 337.378 315.238 335.682 313.117 335.682C310.997 335.682 309.3 337.378 309.3 339.499C309.3 341.619 310.997 343.316 313.117 343.316Z" fill="#2C2C2C"/>
<rect x="14.4609" y="378.809" width="389.893" height="351.889" rx="9.63889" fill="#47B39A"/>
<path d="M58.116 398.447H60.5836L65.538 391.7H63.8994L59.4655 397.734V391.7H58.116V398.447ZM67.9424 391.7C65.9183 391.7 64.5688 393.049 64.5688 395.074C64.5688 397.098 65.9183 398.447 67.9424 398.447C69.9666 398.447 71.316 397.098 71.316 395.074C71.316 393.049 69.9666 391.7 67.9424 391.7ZM67.9424 397.098C66.593 397.098 65.9183 396.327 65.9183 395.074C65.9183 393.821 66.593 393.049 67.9424 393.049C69.2919 393.049 69.9666 393.821 69.9666 395.074C69.9666 396.327 69.2919 397.098 67.9424 397.098ZM77.0211 391.7H75.3825L70.4474 398.447H74.6596L75.6331 397.127H73.0499L77.0211 391.7ZM82.801 391.7V395.074C82.801 396.375 82.0877 397.098 80.7768 397.098C79.4659 397.098 78.7527 396.375 78.7527 395.074V391.7H77.4032V395.074C77.4032 397.079 78.7623 398.447 80.7768 398.447C82.7914 398.447 84.1504 397.079 84.1504 395.074V391.7H82.801ZM91.215 391.7L89.933 393.425V391.7H87.263L84.7569 395.074H85.9618L83.475 398.447H85.1136L87.6004 395.074H86.3955L88.5836 392.134V395.074H89.9427L87.4558 398.447H89.0944L91.5813 395.074H90.3475L92.5355 392.134V398.447H93.885V391.7H91.215ZM102.267 393.001L103.24 391.681H99.0474L99.0378 391.7H99.0185L97.0329 394.409L96.0594 395.729H96.069L94.0834 398.447H98.2859L99.2595 397.127H96.6859L97.7076 395.729H100.252L101.226 394.409H98.6715L99.7029 393.001H102.267Z" fill="#2C2C2C"/>
<rect x="24.1016" y="404.303" width="113.257" height="30.8444" rx="15.4222" fill="#E1E1E1"/>
<circle cx="39.8331" cy="420.035" r="13.7354" fill="#2C2C2C"/>
<path d="M188.706 391.7H187.067L184.58 395.074H185.785L183.597 398.014V395.074H182.238L184.725 391.7H183.086L180.599 395.074H181.833L179.645 398.014V391.7H178.296V398.447H180.966L182.248 396.722V398.447H184.918L187.424 395.074H186.219L188.706 391.7ZM189.842 391.7L187.335 395.074H188.492L186.005 398.447H187.644L189.148 396.413H191.162V398.447H192.512V391.7H189.842ZM191.162 392.134V395.064H188.984L191.162 392.134ZM193.281 398.447H195.749L200.703 391.7H199.065L194.631 397.734V391.7H193.281V398.447ZM204.835 393.001L205.808 391.681H201.615L201.606 391.7H201.587L199.601 394.409L198.627 395.729H198.637L196.651 398.447H200.854L201.827 397.127H199.254L200.276 395.729H202.82L203.794 394.409H201.24L202.271 393.001H204.835ZM207.256 394.881V394.11C206.967 394.11 206.774 393.821 206.774 393.483C206.774 393.146 206.967 392.857 207.256 392.857V393.049H208.702V391.7H207.256C206.292 391.7 205.617 392.471 205.617 393.483C205.617 394.495 206.292 395.266 207.256 395.266V396.038C207.545 396.038 207.738 396.327 207.738 396.664C207.738 397.001 207.545 397.291 207.256 397.291V397.098H205.81V398.447H207.256C208.22 398.447 208.894 397.676 208.894 396.664C208.894 395.652 208.22 394.881 207.256 394.881ZM218.002 391.7L216.074 394.341H213.346L215.274 391.7H213.635L208.7 398.447H210.339L212.372 395.662H215.1L213.066 398.447H214.705L219.64 391.7H218.002ZM220.49 391.7L217.984 395.074H219.141L216.654 398.447H218.293L219.796 396.413H221.811V398.447H223.16V391.7H220.49ZM221.811 392.134V395.064H219.632L221.811 392.134ZM227.005 393.483C227.005 392.471 226.33 391.71 225.376 391.7H223.93V398.447H225.279V395.266H225.376C226.33 395.257 227.005 394.495 227.005 393.483ZM225.366 394.11H225.279V392.857H225.366C225.655 392.857 225.848 393.146 225.848 393.483C225.848 393.821 225.655 394.11 225.366 394.11ZM233.648 393.001L234.621 391.681H230.429L230.419 391.7H230.4L228.414 394.409L227.44 395.729H227.45L225.465 398.447H229.667L230.641 397.127H228.067L229.089 395.729H231.633L232.607 394.409H230.053L231.084 393.001H233.648ZM240.122 398.447L237.635 395.074H237.038C237.568 394.784 237.895 394.197 237.895 393.483C237.895 392.471 237.221 391.71 236.266 391.7H234.821V398.447H236.17V395.305L238.483 398.447H240.122ZM236.257 392.857C236.546 392.857 236.739 393.146 236.739 393.483C236.739 393.821 236.546 394.11 236.257 394.11H236.17V392.857H236.257Z" fill="#2C2C2C"/>
<rect x="152.781" y="404.303" width="113.257" height="30.8444" rx="15.4222" fill="#E1E1E1"/>
<circle cx="168.513" cy="420.035" r="13.7354" fill="#2C2C2C"/>
<path d="M325.656 391.7C323.632 391.7 322.283 393.049 322.283 395.074C322.283 397.098 323.632 398.447 325.656 398.447C327.68 398.447 329.03 397.098 329.03 395.074C329.03 393.049 327.68 391.7 325.656 391.7ZM325.656 397.098C324.307 397.098 323.632 396.327 323.632 395.074C323.632 393.821 324.307 393.049 325.656 393.049C327.006 393.049 327.68 393.821 327.68 395.074C327.68 396.327 327.006 397.098 325.656 397.098ZM334.912 398.447L332.425 395.074H331.827C332.358 394.784 332.685 394.197 332.685 393.483C332.685 392.471 332.011 391.71 331.056 391.7H329.61V398.447H330.96V395.305L333.273 398.447H334.912ZM331.047 392.857C331.336 392.857 331.529 393.146 331.529 393.483C331.529 393.821 331.336 394.11 331.047 394.11H330.96V392.857H331.047ZM336.457 391.7H335.108V398.447H336.457C338.481 398.447 339.831 397.098 339.831 395.074C339.831 393.049 338.481 391.7 336.457 391.7ZM336.457 397.098V393.049C337.807 393.049 338.481 393.821 338.481 395.074C338.481 396.327 337.807 397.098 336.457 397.098ZM347.141 393.001L348.115 391.681H343.922L343.912 391.7H343.893L341.907 394.409L340.934 395.729H340.944L338.958 398.447H343.16L344.134 397.127H341.56L342.582 395.729H345.127L346.1 394.409H343.546L344.577 393.001H347.141ZM353.615 398.447L351.129 395.074H350.531C351.061 394.784 351.389 394.197 351.389 393.483C351.389 392.471 350.714 391.71 349.76 391.7H348.314V398.447H349.663V395.305L351.977 398.447H353.615ZM349.75 392.857C350.039 392.857 350.232 393.146 350.232 393.483C350.232 393.821 350.039 394.11 349.75 394.11H349.663V392.857H349.75Z" fill="#2C2C2C"/>
<rect x="281.461" y="404.303" width="113.257" height="30.8444" rx="15.4222" fill="#E1E1E1"/>
<circle cx="297.192" cy="420.035" r="13.7354" fill="#2C2C2C"/>
<path d="M56.1908 455.605C56.1908 454.593 55.5161 453.832 54.5619 453.822H53.116V460.569H54.4655V457.389H54.5619C55.5161 457.379 56.1908 456.617 56.1908 455.605ZM54.5522 456.232H54.4655V454.979H54.5522C54.8414 454.979 55.0342 455.268 55.0342 455.605C55.0342 455.943 54.8414 456.232 54.5522 456.232ZM54.6507 460.569H56.2893L61.2244 453.822H59.5858L54.6507 460.569ZM68.9328 453.822L64.5953 459.75V453.822H62.1278L57.1734 460.569H58.812L63.2459 454.535V460.569H65.6363L70.5715 453.822H68.9328ZM72.967 456.328V457.649H74.9719C74.8177 458.661 74.114 459.22 72.9767 459.22C71.6272 459.22 70.9525 458.449 70.9525 457.196C70.9525 455.943 71.6272 455.172 72.9767 455.172V453.822C70.9525 453.822 69.603 455.172 69.603 457.196C69.603 459.22 70.9525 460.569 72.9767 460.569C74.9912 460.569 76.3406 459.23 76.3503 457.225V456.328H72.967ZM82.4154 455.605C82.4154 454.593 81.7407 453.832 80.7864 453.822H79.3406V460.569H80.69V457.389H80.7864C81.7407 457.379 82.4154 456.617 82.4154 455.605ZM80.7768 456.232H80.69V454.979H80.7768C81.0659 454.979 81.2587 455.268 81.2587 455.605C81.2587 455.943 81.0659 456.232 80.7768 456.232ZM86.1736 453.822C84.1495 453.822 82.8 455.172 82.8 457.196C82.8 459.22 84.1495 460.569 86.1736 460.569C88.1978 460.569 89.5473 459.22 89.5473 457.196C89.5473 455.172 88.1978 453.822 86.1736 453.822ZM86.1736 459.22C84.8242 459.22 84.1495 458.449 84.1495 457.196C84.1495 455.943 84.8242 455.172 86.1736 455.172C87.5231 455.172 88.1978 455.943 88.1978 457.196C88.1978 458.449 87.5231 459.22 86.1736 459.22ZM100.438 453.822L96.1006 459.75V453.822H93.633L88.6786 460.569H90.3172L94.7511 454.535V460.569H97.1416L102.077 453.822H100.438ZM104.472 456.328V457.649H106.477C106.323 458.661 105.619 459.22 104.482 459.22C103.132 459.22 102.458 458.449 102.458 457.196C102.458 455.943 103.132 455.172 104.482 455.172V453.822C102.458 453.822 101.108 455.172 101.108 457.196C101.108 459.22 102.458 460.569 104.482 460.569C106.496 460.569 107.846 459.23 107.856 457.225V456.328H104.472Z" fill="#2C2C2C"/>
<rect x="24.1016" y="466.425" width="113.257" height="30.8444" rx="15.4222" fill="#E1E1E1"/>
<circle cx="39.8331" cy="482.157" r="13.7354" fill="#2C2C2C"/>
<path d="M182.145 453.822H180.796V460.569H182.145C184.169 460.569 185.519 459.22 185.519 457.196C185.519 455.172 184.169 453.822 182.145 453.822ZM182.145 459.22V455.172C183.495 455.172 184.169 455.943 184.169 457.196C184.169 458.449 183.495 459.22 182.145 459.22ZM192.829 455.123L193.803 453.803H189.61L189.6 453.822H189.581L187.595 456.531L186.622 457.851H186.632L184.646 460.569H188.849L189.822 459.249H187.248L188.27 457.851H190.815L191.788 456.531H189.234L190.265 455.123H192.829ZM196.331 453.822H194.692L189.757 460.569H193.969L194.943 459.249H192.36L196.331 453.822ZM198.62 453.822L196.114 457.196H197.271L194.784 460.569H196.422L197.926 458.536H199.941V460.569H201.29V453.822H198.62ZM199.941 454.256V457.186H197.762L199.941 454.256ZM207.216 453.822L205.028 456.762V453.822H203.679V457.196H204.161L201.674 460.569H203.313L205.8 457.196H206.349L208.855 453.822H207.216ZM219.391 453.812H214.293L213.319 455.133H215.247L211.266 460.569H212.905L216.885 455.133H218.418L219.391 453.812ZM215.05 460.569H216.689L221.624 453.822H219.985L215.05 460.569ZM226.376 453.822L225.094 455.547V453.822H222.424L219.918 457.196H221.123L218.636 460.569H220.275L222.762 457.196H221.557L223.745 454.256V457.196H225.104L222.617 460.569H224.256L226.743 457.196H225.509L227.697 454.256V460.569H229.046V453.822H226.376ZM237.428 455.123L238.402 453.803H234.209L234.199 453.822H234.18L232.194 456.531L231.221 457.851H231.23L229.245 460.569H233.447L234.421 459.249H231.847L232.869 457.851H235.414L236.387 456.531H233.833L234.864 455.123H237.428Z" fill="#2C2C2C"/>
<rect x="152.781" y="466.425" width="113.257" height="30.8444" rx="15.4222" fill="#E1E1E1"/>
<circle cx="168.513" cy="482.157" r="13.7354" fill="#2C2C2C"/>
<path d="M302.33 453.822L301.048 455.547V453.822H298.378L295.872 457.196H297.077L294.59 460.569H296.228L298.715 457.196H297.51L299.698 454.256V457.196H301.058L298.571 460.569H300.209L302.696 457.196H301.462L303.65 454.256V460.569H305V453.822H302.33ZM309.035 453.822L306.528 457.196H307.685L305.198 460.569H306.837L308.341 458.536H310.355V460.569H311.705V453.822H309.035ZM310.355 454.256V457.186H308.177L310.355 454.256ZM318.932 453.822L316.744 456.762V453.822H315.395V457.196H314.595L312.089 460.569H313.727L315.915 457.629V460.569H317.265V457.196H318.065L320.571 453.822H318.932ZM324.714 453.822H323.365V460.569H324.714C326.739 460.569 328.088 459.22 328.088 457.196C328.088 455.172 326.739 453.822 324.714 453.822ZM324.714 459.22V455.172C326.064 455.172 326.739 455.943 326.739 457.196C326.739 458.449 326.064 459.22 324.714 459.22ZM335.399 455.123L336.372 453.803H332.179L332.17 453.822H332.15L330.165 456.531L329.191 457.851H329.201L327.215 460.569H331.418L332.391 459.249H329.818L330.839 457.851H333.384L334.358 456.531H331.803L332.835 455.123H335.399ZM338.9 453.822H337.262L332.326 460.569H336.539L337.512 459.249H334.929L338.9 453.822ZM341.189 453.822L338.683 457.196H339.84L337.353 460.569H338.992L340.495 458.536H342.51V460.569H343.859V453.822H341.189ZM342.51 454.256V457.186H340.331L342.51 454.256ZM349.786 453.822L347.598 456.762V453.822H346.248V457.196H346.73L344.243 460.569H345.882L348.369 457.196H348.918L351.424 453.822H349.786ZM361.961 453.812H356.862L355.888 455.133H357.816L353.835 460.569H355.474L359.455 455.133H360.987L361.961 453.812ZM357.619 460.569H359.258L364.193 453.822H362.554L357.619 460.569ZM368.946 453.822L367.664 455.547V453.822H364.994L362.487 457.196H363.692L361.205 460.569H362.844L365.331 457.196H364.126L366.314 454.256V457.196H367.673L365.186 460.569H366.825L369.312 457.196H368.078L370.266 454.256V460.569H371.615V453.822H368.946ZM379.997 455.123L380.971 453.803H376.778L376.768 453.822H376.749L374.763 456.531L373.79 457.851H373.8L371.814 460.569H376.016L376.99 459.249H374.416L375.438 457.851H377.983L378.956 456.531H376.402L377.433 455.123H379.997Z" fill="#2C2C2C"/>
<rect x="281.461" y="466.425" width="113.257" height="30.8444" rx="15.4222" fill="#E1E1E1"/>
<circle cx="297.192" cy="482.157" r="13.7354" fill="#2C2C2C"/>
<path d="M37.9788 519.318H37.333C37.8631 519.029 38.1908 518.441 38.1908 517.728C38.1908 516.716 37.5161 515.954 36.5619 515.945H35.116V522.692H40.4656L37.9788 519.318ZM36.5522 517.101C36.8414 517.101 37.0342 517.391 37.0342 517.728C37.0342 518.065 36.8414 518.354 36.5522 518.354H36.4655V517.101H36.5522ZM36.4655 521.535V519.511H36.4847L37.9788 521.535H36.4655ZM44.2993 515.945L41.7931 519.318H42.9498L40.463 522.692H42.1016L43.6053 520.658H45.6198V522.692H46.9692V515.945H44.2993ZM45.6198 516.378V519.309H43.4414L45.6198 516.378ZM49.1847 519.126V518.354C48.8955 518.354 48.7027 518.065 48.7027 517.728C48.7027 517.391 48.8955 517.101 49.1847 517.101V517.294H50.6305V515.945H49.1847C48.2208 515.945 47.546 516.716 47.546 517.728C47.546 518.74 48.2208 519.511 49.1847 519.511V520.282C49.4738 520.282 49.6666 520.571 49.6666 520.909C49.6666 521.246 49.4738 521.535 49.1847 521.535V521.342H47.7388V522.692H49.1847C50.1485 522.692 50.8233 521.921 50.8233 520.909C50.8233 519.897 50.1485 519.126 49.1847 519.126ZM58.8124 517.246L59.7859 515.925H55.593L55.5834 515.945H55.5641L53.5785 518.653L52.605 519.974H52.6146L50.629 522.692H54.8315L55.8051 521.371H53.2315L54.2532 519.974H56.7979L57.7714 518.653H55.2171L56.2485 517.246H58.8124ZM70.381 517.256L71.3545 515.935H67.1616L67.1519 515.945H67.1326L65.147 518.653L64.1735 519.974H64.1831L62.1975 522.692H63.8361L65.8218 519.974H68.3664L69.34 518.653H66.7856L67.817 517.256H70.381ZM76.8551 522.692L74.3682 519.318H73.7706C74.3007 519.029 74.6285 518.441 74.6285 517.728C74.6285 516.716 73.9537 515.954 72.9995 515.945H71.5537V522.692H72.9031V519.55L75.2164 522.692H76.8551ZM72.9899 517.101C73.279 517.101 73.4718 517.391 73.4718 517.728C73.4718 518.065 73.279 518.354 72.9899 518.354H72.9031V517.101H72.9899ZM85.037 517.246L86.0105 515.925H81.8176L81.8079 515.945H81.7887L79.803 518.653L78.8295 519.974H78.8392L76.8535 522.692H81.0561L82.0296 521.371H79.456L80.4778 519.974H83.0224L83.996 518.653H81.4417L82.473 517.246H85.037ZM86.3968 519.318C86.3968 518.065 87.0715 517.294 88.421 517.294C89.7222 517.294 90.4451 518.017 90.4451 519.318H91.7946C91.7946 517.294 90.4451 515.945 88.421 515.945C86.3968 515.945 85.0474 517.294 85.0474 519.318C85.0474 521.342 86.3968 522.692 88.421 522.692V521.342C87.0715 521.342 86.3968 520.571 86.3968 519.318ZM88.392 520.398L91.7657 522.885V521.246L88.392 518.759V520.398ZM97.7729 515.945V519.318C97.7729 520.62 97.0597 521.342 95.7488 521.342C94.4379 521.342 93.7246 520.62 93.7246 519.318V515.945H92.3752V519.318C92.3752 521.323 93.7343 522.692 95.7488 522.692C97.7633 522.692 99.1224 521.323 99.1224 519.318V515.945H97.7729ZM106.536 517.246L107.51 515.925H103.317L103.307 515.945H103.288L101.302 518.653L100.329 519.974H100.338L98.3528 522.692H102.555L103.529 521.371H100.955L101.977 519.974H104.522L105.495 518.653H102.941L103.972 517.246H106.536ZM115.223 515.945L110.886 521.873V515.945H108.418L103.464 522.692H105.103L109.537 516.658V522.692H111.927L116.862 515.945H115.223ZM119.267 522.692V521.342C117.918 521.342 117.243 520.571 117.243 519.318C117.243 518.065 117.918 517.294 119.267 517.294V515.945C117.243 515.945 115.894 517.294 115.894 519.318C115.894 521.342 117.243 522.692 119.267 522.692ZM124.999 515.945L122.811 518.885V515.945H121.462V519.318H121.944L119.457 522.692H121.095L123.582 519.318H124.132L126.638 515.945H124.999Z" fill="#2C2C2C"/>
<rect x="24.1016" y="528.547" width="113.257" height="30.8444" rx="15.4222" fill="#E1E1E1"/>
<circle cx="39.8331" cy="544.279" r="13.7354" fill="#2C2C2C"/>
<path d="M192.977 515.945C190.952 515.945 189.603 517.294 189.603 519.318C189.603 521.342 190.952 522.692 192.977 522.692C195.001 522.692 196.35 521.342 196.35 519.318C196.35 517.294 195.001 515.945 192.977 515.945ZM192.977 521.342C191.627 521.342 190.952 520.571 190.952 519.318C190.952 518.065 191.627 517.294 192.977 517.294C194.326 517.294 195.001 518.065 195.001 519.318C195.001 520.571 194.326 521.342 192.977 521.342ZM200.112 522.692V521.342C198.762 521.342 198.087 520.571 198.087 519.318C198.087 518.065 198.762 517.294 200.112 517.294V515.945C198.087 515.945 196.738 517.294 196.738 519.318C196.738 521.342 198.087 522.692 200.112 522.692ZM208.427 515.935H203.328L202.354 517.256H204.282L200.301 522.692H201.94L205.92 517.256H207.453L208.427 515.935ZM209.277 515.945L206.771 519.318H207.927L205.44 522.692H207.079L208.583 520.658H210.597V522.692H211.947V515.945H209.277ZM210.597 516.378V519.309H208.419L210.597 516.378ZM212.716 522.692H215.184L220.138 515.945H218.5L214.066 521.979V515.945H212.716V522.692ZM224.27 517.246L225.243 515.925H221.051L221.041 515.945H221.022L219.036 518.653L218.063 519.974H218.072L216.087 522.692H220.289L221.263 521.371H218.689L219.711 519.974H222.255L223.229 518.653H220.675L221.706 517.246H224.27ZM226.691 519.126V518.354C226.402 518.354 226.209 518.065 226.209 517.728C226.209 517.391 226.402 517.101 226.691 517.101V517.294H228.137V515.945H226.691C225.727 515.945 225.052 516.716 225.052 517.728C225.052 518.74 225.727 519.511 226.691 519.511V520.282C226.98 520.282 227.173 520.571 227.173 520.909C227.173 521.246 226.98 521.535 226.691 521.535V521.342H225.245V522.692H226.691C227.655 522.692 228.329 521.921 228.329 520.909C228.329 519.897 227.655 519.126 226.691 519.126Z" fill="#2C2C2C"/>
<rect x="152.781" y="528.547" width="113.257" height="30.8444" rx="15.4222" fill="#E1E1E1"/>
<circle cx="168.513" cy="544.279" r="13.7354" fill="#2C2C2C"/>
<path d="M309.421 519.126V518.354C309.132 518.354 308.939 518.065 308.939 517.728C308.939 517.391 309.132 517.101 309.421 517.101V517.294H310.867V515.945H309.421C308.457 515.945 307.783 516.716 307.783 517.728C307.783 518.74 308.457 519.511 309.421 519.511V520.282C309.71 520.282 309.903 520.571 309.903 520.909C309.903 521.246 309.71 521.535 309.421 521.535V521.342H307.975V522.692H309.421C310.385 522.692 311.06 521.921 311.06 520.909C311.06 519.897 310.385 519.126 309.421 519.126ZM319.049 517.246L320.023 515.925H315.83L315.82 515.945H315.801L313.815 518.653L312.842 519.974H312.851L310.866 522.692H315.068L316.042 521.371H313.468L314.49 519.974H317.034L318.008 518.653H315.454L316.485 517.246H319.049ZM327.736 515.945L323.399 521.873V515.945H320.931L315.977 522.692H317.615L322.049 516.658V522.692H324.44L329.375 515.945H327.736ZM330.817 519.126V518.354C330.528 518.354 330.335 518.065 330.335 517.728C330.335 517.391 330.528 517.101 330.817 517.101V517.294H332.263V515.945H330.817C329.853 515.945 329.178 516.716 329.178 517.728C329.178 518.74 329.853 519.511 330.817 519.511V520.282C331.106 520.282 331.299 520.571 331.299 520.909C331.299 521.246 331.106 521.535 330.817 521.535V521.342H329.371V522.692H330.817C331.781 522.692 332.456 521.921 332.456 520.909C332.456 519.897 331.781 519.126 330.817 519.126ZM332.261 522.692H333.9L338.835 515.945H337.196L332.261 522.692ZM344.547 515.935H339.448L338.475 517.256H340.403L336.422 522.692H338.06L342.041 517.256H343.574L344.547 515.935ZM340.206 522.692H341.844L346.78 515.945H345.141L340.206 522.692ZM346.973 522.692H349.441L354.395 515.945H352.757L348.323 521.979V515.945H346.973V522.692ZM350.344 522.692H351.982L356.917 515.945H355.279L350.344 522.692ZM362.63 515.935H357.531L356.557 517.256H358.485L354.504 522.692H356.143L360.124 517.256H361.656L362.63 515.935ZM366.334 515.945L364.146 518.885V515.945H362.797V519.318H363.279L360.792 522.692H362.431L364.917 519.318H365.467L367.973 515.945H366.334Z" fill="#2C2C2C"/>
<rect x="281.461" y="528.547" width="113.257" height="30.8444" rx="15.4222" fill="#E1E1E1"/>
<circle cx="297.192" cy="544.279" r="13.7354" fill="#2C2C2C"/>
<path d="M78.2727 581.44C78.2727 580.187 78.9474 579.416 80.2969 579.416C81.5981 579.416 82.321 580.139 82.321 581.44H83.6705C83.6705 579.416 82.321 578.067 80.2969 578.067C78.2727 578.067 76.9232 579.416 76.9232 581.44C76.9232 583.465 78.2727 584.814 80.2969 584.814V583.465C78.9474 583.465 78.2727 582.693 78.2727 581.44ZM80.2679 582.52L83.6416 585.007V583.368L80.2679 580.881V582.52Z" fill="#2C2C2C"/>
<rect x="24.1016" y="590.669" width="113.257" height="30.8444" rx="15.4222" fill="#E1E1E1"/>
<circle cx="39.8331" cy="606.401" r="13.7354" fill="#2C2C2C"/>
<path d="M198.467 580.573V581.893H200.472C200.318 582.905 199.614 583.465 198.477 583.465C197.127 583.465 196.452 582.693 196.452 581.44C196.452 580.187 197.127 579.416 198.477 579.416V578.067C196.452 578.067 195.103 579.416 195.103 581.44C195.103 583.465 196.452 584.814 198.477 584.814C200.491 584.814 201.841 583.474 201.85 581.469V580.573H198.467ZM204.921 578.067L202.415 581.44H203.572L201.085 584.814H202.724L204.227 582.78H206.242V584.814H207.591V578.067H204.921ZM206.242 578.5V581.431H204.063L206.242 578.5ZM207.787 584.814H209.426L214.361 578.067H212.722L207.787 584.814ZM222.069 578.067L217.732 583.995V578.067H215.264L210.31 584.814H211.948L216.382 578.78V584.814H218.773L223.708 578.067H222.069Z" fill="#2C2C2C"/>
<rect x="152.781" y="590.669" width="113.257" height="30.8444" rx="15.4222" fill="#E1E1E1"/>
<circle cx="168.513" cy="606.401" r="13.7354" fill="#2C2C2C"/>
<path d="M327.147 580.573V581.893H329.151C328.997 582.905 328.294 583.465 327.156 583.465C325.807 583.465 325.132 582.693 325.132 581.44C325.132 580.187 325.807 579.416 327.156 579.416V578.067C325.132 578.067 323.783 579.416 323.783 581.44C323.783 583.465 325.132 584.814 327.156 584.814C329.171 584.814 330.52 583.474 330.53 581.469V580.573H327.147ZM333.601 578.067L331.095 581.44H332.252L329.765 584.814H331.403L332.907 582.78H334.922V584.814H336.271V578.067H333.601ZM334.922 578.5V581.431H332.743L334.922 578.5ZM336.467 584.814H338.105L343.041 578.067H341.402L336.467 584.814ZM350.749 578.067L346.411 583.995V578.067H343.944L338.989 584.814H340.628L345.062 578.78V584.814H347.452L352.388 578.067H350.749Z" fill="#2C2C2C"/>
<rect x="281.461" y="590.669" width="113.257" height="30.8444" rx="15.4222" fill="#E1E1E1"/>
<circle cx="297.192" cy="606.401" r="13.7354" fill="#2C2C2C"/>
<rect x="24.1016" y="639.059" width="89.7621" height="24.763" rx="5.78333" fill="#BDFC2A"/>
<path d="M32.2656 652.242C34.3862 652.242 36.0826 650.545 36.0826 648.425C36.0826 646.304 34.3862 644.608 32.2656 644.608C30.1451 644.608 28.4486 646.304 28.4486 648.425C28.4486 650.545 30.1451 652.242 32.2656 652.242Z" fill="#2C2C2C"/>
<rect x="117.719" y="639.059" width="89.7621" height="24.763" rx="5.78333" fill="#BDFC2A"/>
<path d="M125.883 652.242C128.003 652.242 129.7 650.545 129.7 648.425C129.7 646.304 128.003 644.608 125.883 644.608C123.762 644.608 122.066 646.304 122.066 648.425C122.066 650.545 123.762 652.242 125.883 652.242Z" fill="#2C2C2C"/>
<rect x="211.336" y="639.059" width="89.7621" height="24.763" rx="5.78333" fill="#BDFC2A"/>
<path d="M219.5 652.242C221.621 652.242 223.317 650.545 223.317 648.425C223.317 646.304 221.621 644.608 219.5 644.608C217.379 644.608 215.683 646.304 215.683 648.425C215.683 650.545 217.379 652.242 219.5 652.242Z" fill="#2C2C2C"/>
<rect x="304.953" y="639.059" width="89.7621" height="24.763" rx="5.78333" fill="#BDFC2A"/>
<path d="M313.117 652.242C315.238 652.242 316.934 650.545 316.934 648.425C316.934 646.304 315.238 644.608 313.117 644.608C310.997 644.608 309.3 646.304 309.3 648.425C309.3 650.545 310.997 652.242 313.117 652.242Z" fill="#2C2C2C"/>
<rect x="24.1016" y="667.677" width="89.7621" height="24.763" rx="5.78333" fill="#BDFC2A"/>
<path d="M32.2656 680.86C34.3862 680.86 36.0826 679.164 36.0826 677.043C36.0826 674.923 34.3862 673.226 32.2656 673.226C30.1451 673.226 28.4486 674.923 28.4486 677.043C28.4486 679.164 30.1451 680.86 32.2656 680.86Z" fill="#2C2C2C"/>
<rect x="117.719" y="667.677" width="89.7621" height="24.763" rx="5.78333" fill="#BDFC2A"/>
<path d="M125.883 680.86C128.003 680.86 129.7 679.164 129.7 677.043C129.7 674.923 128.003 673.226 125.883 673.226C123.762 673.226 122.066 674.923 122.066 677.043C122.066 679.164 123.762 680.86 125.883 680.86Z" fill="#2C2C2C"/>
<rect x="211.336" y="667.677" width="89.7621" height="24.763" rx="5.78333" fill="#BDFC2A"/>
<path d="M219.5 680.86C221.621 680.86 223.317 679.164 223.317 677.043C223.317 674.923 221.621 673.226 219.5 673.226C217.379 673.226 215.683 674.923 215.683 677.043C215.683 679.164 217.379 680.86 219.5 680.86Z" fill="#2C2C2C"/>
<rect x="304.953" y="667.677" width="89.7621" height="24.763" rx="5.78333" fill="#BDFC2A"/>
<path d="M313.117 680.86C315.238 680.86 316.934 679.164 316.934 677.043C316.934 674.923 315.238 673.226 313.117 673.226C310.997 673.226 309.3 674.923 309.3 677.043C309.3 679.164 310.997 680.86 313.117 680.86Z" fill="#2C2C2C"/>
<rect x="24.1016" y="696.295" width="89.7621" height="24.763" rx="5.78333" fill="#BDFC2A"/>
<path d="M32.2656 709.479C34.3862 709.479 36.0826 707.782 36.0826 705.662C36.0826 703.541 34.3862 701.845 32.2656 701.845C30.1451 701.845 28.4486 703.541 28.4486 705.662C28.4486 707.782 30.1451 709.479 32.2656 709.479Z" fill="#2C2C2C"/>
<rect x="117.719" y="696.295" width="89.7621" height="24.763" rx="5.78333" fill="#BDFC2A"/>
<path d="M125.883 709.479C128.003 709.479 129.7 707.782 129.7 705.662C129.7 703.541 128.003 701.845 125.883 701.845C123.762 701.845 122.066 703.541 122.066 705.662C122.066 707.782 123.762 709.479 125.883 709.479Z" fill="#2C2C2C"/>
<rect x="211.336" y="696.295" width="89.7621" height="24.763" rx="5.78333" fill="#BDFC2A"/>
<path d="M219.5 709.479C221.621 709.479 223.317 707.782 223.317 705.662C223.317 703.541 221.621 701.845 219.5 701.845C217.379 701.845 215.683 703.541 215.683 705.662C215.683 707.782 217.379 709.479 219.5 709.479Z" fill="#2C2C2C"/>
<rect x="304.953" y="696.295" width="89.7621" height="24.763" rx="5.78333" fill="#BDFC2A"/>
<path d="M313.117 709.479C315.238 709.479 316.934 707.782 316.934 705.662C316.934 703.541 315.238 701.845 313.117 701.845C310.997 701.845 309.3 703.541 309.3 705.662C309.3 707.782 310.997 709.479 313.117 709.479Z" fill="#2C2C2C"/>
<rect x="417.848" y="499.776" width="261.214" height="228.442" rx="9.63889" fill="#383838"/>
<path d="M492.821 509.415L450.141 566.868H469.84L427.488 624.322H455.394L481.002 589.686H515.31V624.322H538.291V509.415H492.821ZM515.31 516.802V566.704H478.211L515.31 516.802Z" fill="#E1E1E1"/>
<path d="M602.778 601.341V509.415H549.428V532.396H579.796V601.341H548.115V624.322H631.833V601.341H602.778Z" fill="#E1E1E1"/>
</svg>
