<svg width="322" height="288" viewBox="0 0 322 288" fill="none" xmlns="http://www.w3.org/2000/svg">
<path d="M137.823 7.44847L81.877 13.2346C74.1177 14.0371 68.4782 20.9777 69.2807 28.737L70.0085 35.7742C70.6932 42.3952 65.881 48.3177 59.26 49.0024L40.2595 50.9675C32.5003 51.77 26.8607 58.7107 27.6632 66.4699L29.0097 79.4887C29.6341 85.5267 25.2456 90.9277 19.2076 91.5522C12.0314 92.2944 6.81552 98.7136 7.55771 105.89L9.26808 122.427C10.0706 130.187 17.0112 135.826 24.7705 135.024L58.1972 131.566C64.8182 130.882 70.7407 135.694 71.4255 142.315L73.5725 163.075L74.3731 170.816L76.5747 192.103C77.3471 199.571 84.027 204.999 91.4947 204.226C97.8242 203.572 103.486 208.172 104.141 214.502L105.36 226.289C106.162 234.048 113.103 239.688 120.862 238.885L140.918 236.811C148.677 236.009 154.317 229.068 153.514 221.309L152.259 209.169C151.624 203.034 156.084 197.546 162.219 196.912C169.492 196.16 174.779 189.653 174.026 182.38L171.788 160.741L170.988 153L168.841 132.24C168.156 125.619 172.968 119.696 179.589 119.012L218.646 114.972C226.405 114.17 232.044 107.229 231.242 99.4699L229.532 82.9325C228.789 75.7562 222.37 70.5404 215.194 71.2826C209.156 71.907 203.755 67.5185 203.131 61.4805L201.784 48.4617C200.982 40.7024 194.041 35.0629 186.282 35.8654L167.281 37.8305C160.66 38.5152 154.738 33.703 154.053 27.082L153.325 20.0448C152.523 12.2855 145.582 6.64598 137.823 7.44847Z" fill="white" stroke="black" stroke-width="2.07199"/>
<path d="M104.315 45.3837L101.008 45.7257L99.8651 34.6773L86.5999 36.0492L87.7426 47.0977L84.4351 47.4397L81.8368 22.3169L85.1443 21.9748L86.2579 32.7417L99.523 31.3698L98.4094 20.6029L101.717 20.2608L104.315 45.3837Z" fill="#121212"/>
<path d="M107.459 19.667L120.724 18.2951L121.066 21.6025L107.801 22.9745L107.459 19.667ZM106.407 41.8244L109.715 41.4823L108.921 33.8118L118.879 32.7819L118.537 29.4744L108.579 30.5043L107.801 22.9745L104.493 23.3166L106.407 41.8244ZM109.715 41.4823L122.98 40.1104L123.322 43.4179L110.057 44.7898L109.715 41.4823Z" fill="#121212"/>
<path d="M123.167 18.0424L126.474 17.7003L127.606 28.6432L124.298 28.9853L123.167 18.0424ZM140.836 27.2749L137.528 27.617L136.397 16.6741L139.704 16.332L140.836 27.2749ZM130.913 28.3011L131.255 31.6086L127.948 31.9507L127.606 28.6432L130.913 28.3011ZM137.528 27.617L137.87 30.9245L134.563 31.2665L134.221 27.959L137.528 27.617ZM135.687 42.139L132.38 42.4811L131.255 31.6086L134.563 31.2665L135.687 42.139Z" fill="#121212"/>
<path d="M54.2417 58.9552L54.5837 62.2627L41.3186 63.6346L40.9765 60.3271L54.2417 58.9552ZM41.3186 63.6346L42.0901 71.0941L38.7826 71.4361L38.0111 63.9767L41.3186 63.6346ZM57.8912 61.9206L58.2333 65.2281L54.9258 65.5702L54.5837 62.2627L57.8912 61.9206ZM55.3552 69.7221L55.6973 73.0296L42.4321 74.4016L42.0901 71.0941L55.3552 69.7221ZM59.0048 72.6875L59.8054 80.4285L56.4979 80.7706L55.6973 73.0296L59.0048 72.6875ZM42.8907 78.835L43.2327 82.1425L39.9253 82.4846L39.5832 79.1771L42.8907 78.835ZM56.4979 80.7706L56.84 84.078L43.5748 85.45L43.2327 82.1425L56.4979 80.7706Z" fill="#121212"/>
<path d="M64.3025 67.801L65.8891 83.1422L62.5816 83.4842L59.9833 58.3614L63.2908 58.0193L63.9604 64.4935L67.3031 64.1478L67.6452 67.4553L64.3025 67.801ZM83.2061 55.9596L85.8044 81.0824L82.4969 81.4245L80.9103 66.0834L77.5676 66.4291L77.2256 63.1216L80.5682 62.7759L79.8986 56.3017L83.2061 55.9596ZM68.5476 76.1815L67.6452 67.4553L70.9526 67.1132L71.8551 75.8394L68.5476 76.1815ZM75.1626 75.4973L74.2601 66.7712L77.5676 66.4291L78.4701 75.1552L75.1626 75.4973ZM75.1626 75.4973L75.5047 78.8048L72.1972 79.1469L71.8551 75.8394L75.1626 75.4973Z" fill="#121212"/>
<path d="M91.5365 80.4896L88.229 80.8317L85.6307 55.7088L88.9382 55.3668L91.5365 80.4896Z" fill="#121212"/>
<path d="M96.9465 76.5872L93.639 76.9293L91.3828 55.1139L94.6903 54.7718L96.9465 76.5872ZM97.2886 79.8947L96.9465 76.5872L110.212 75.2153L110.554 78.5228L97.2886 79.8947Z" fill="#121212"/>
<path d="M113.706 52.8052L126.971 51.4333L127.313 54.7407L114.048 56.1127L113.706 52.8052ZM112.655 74.9626L115.962 74.6206L115.169 66.95L125.126 65.9201L124.784 62.6126L114.827 63.6425L114.048 56.1127L110.74 56.4547L112.655 74.9626ZM115.962 74.6206L129.227 73.2486L129.569 76.5561L116.304 77.928L115.962 74.6206Z" fill="#121212"/>
<path d="M139.712 59.4684L141.471 59.2865L141.107 55.7679L144.626 55.404L144.444 53.6447L149.792 53.0915L149.974 54.8508L153.493 54.4869L153.857 58.0055L155.616 57.8236L156.169 63.1719L154.41 63.3538L154.774 66.8724L151.255 67.2363L151.437 68.9956L146.089 69.5488L145.907 67.7895L142.388 68.1534L142.025 64.6348L140.265 64.8167L139.712 59.4684ZM152.573 63.4727L154.332 63.2907L153.794 58.0832L152.035 58.2651L151.853 56.5058L150.093 56.6878L149.911 54.9285L144.704 55.4671L144.886 57.2264L143.126 57.4083L143.308 59.1676L141.549 59.3496L142.088 64.5571L143.847 64.3752L144.029 66.1345L145.788 65.9525L145.97 67.7118L151.178 67.1732L150.996 65.4139L152.755 65.232L152.573 63.4727ZM158.586 70.0344L156.827 70.2164L156.638 68.3867L158.467 68.1974L158.649 69.9567L160.408 69.7748L160.598 71.6045L158.768 71.7937L158.586 70.0344ZM137.467 72.1475L139.226 71.9655L139.045 70.2062L140.874 70.017L141.063 71.8467L139.304 72.0286L139.486 73.7879L137.656 73.9772L137.467 72.1475ZM135.284 51.0358L137.113 50.8466L137.295 52.6059L139.055 52.4239L139.244 54.2536L137.414 54.4429L137.232 52.6836L135.473 52.8655L135.284 51.0358ZM154.818 50.7936L156.577 50.6117L156.395 48.8524L158.225 48.6632L158.414 50.4928L156.655 50.6748L156.837 52.4341L155.007 52.6233L154.818 50.7936ZM134.841 63.5996L134.651 61.77L138.205 61.4024L138.394 63.2321L134.841 63.5996ZM145.661 48.22L147.491 48.0308L147.858 51.5846L146.029 51.7738L145.661 48.22ZM157.487 59.4082L161.041 59.0407L161.23 60.8703L157.676 61.2379L157.487 59.4082ZM150.22 74.4203L148.391 74.6095L148.023 71.0558L149.853 70.8665L150.22 74.4203Z" fill="#121212"/>
<path d="M181.81 53.372L187.088 52.8261L187.269 54.5854L189.029 54.4035L189.393 57.9221L187.633 58.104L187.815 59.8634L184.297 60.2273L184.479 61.9866L186.238 61.8046L186.602 65.3232L184.843 65.5052L185.025 67.2645L179.747 67.8103L179.565 66.051L177.805 66.233L177.441 62.7144L175.682 62.8963L175.864 64.6556L174.105 64.8376L174.287 66.5969L169.009 67.1428L168.827 65.3835L167.068 65.5654L166.704 62.0468L168.463 61.8648L168.281 60.1055L170.04 59.9236L169.858 58.1643L168.099 58.3462L167.917 56.5869L166.158 56.7689L165.794 53.2503L167.553 53.0683L167.371 51.309L172.649 50.7632L172.831 52.5225L174.59 52.3405L174.227 48.8219L175.986 48.64L175.804 46.8806L181.082 46.3348L181.264 48.0941L183.023 47.9121L183.387 51.4307L181.628 51.6127L181.81 53.372ZM174.954 55.8591L175.318 59.3777L178.837 59.0138L178.473 55.4952L174.954 55.8591Z" fill="#121212"/>
<path d="M27.3644 102.063L18.9901 102.929L18.648 99.6214L38.7393 97.5434L39.0813 100.851L30.6719 101.721L32.9281 123.536L29.6206 123.878L27.3644 102.063Z" fill="#121212"/>
<path d="M58.0832 98.8857L48.1607 99.9119L47.8186 96.6044L57.7411 95.5782L58.0832 98.8857ZM45.1953 103.561L48.5028 103.219L48.1607 99.9119L44.8532 100.254L45.1953 103.561ZM61.7679 101.847L58.4252 102.193L58.0832 98.8857L61.4259 98.54L61.7679 101.847ZM41.8526 103.907L45.1953 103.561L46.4253 115.454L43.0826 115.8L41.8526 103.907ZM65.0754 101.505L61.7679 101.847L62.9979 113.74L66.3054 113.398L65.0754 101.505ZM46.4253 115.454L49.7328 115.112L50.0749 118.42L46.7674 118.762L46.4253 115.454ZM62.9979 113.74L59.6553 114.086L59.9973 117.394L63.34 117.048L62.9979 113.74ZM50.0749 118.42L59.9973 117.394L60.3394 120.701L50.4169 121.727L50.0749 118.42Z" fill="#121212"/>
<path d="M71.135 104.079L72.7216 119.42L69.4141 119.763L66.8158 94.6397L70.1233 94.2976L70.7929 100.772L74.1356 100.426L74.4776 103.734L71.135 104.079ZM90.0386 92.2379L92.6369 117.361L89.3294 117.703L87.7428 102.362L84.4001 102.707L84.058 99.3999L87.4007 99.0542L86.7311 92.5799L90.0386 92.2379ZM75.3801 112.46L74.4776 103.734L77.7851 103.392L78.6876 112.118L75.3801 112.46ZM81.9951 111.776L81.0926 103.049L84.4001 102.707L85.3026 111.434L81.9951 111.776ZM81.9951 111.776L82.3372 115.083L79.0297 115.425L78.6876 112.118L81.9951 111.776Z" fill="#121212"/>
<path d="M109.378 93.5806L99.4554 94.6068L99.1133 91.2993L109.036 90.2731L109.378 93.5806ZM96.49 98.2564L99.7975 97.9143L99.4554 94.6068L96.1479 94.9489L96.49 98.2564ZM113.063 96.5424L109.72 96.8881L109.378 93.5806L112.721 93.2349L113.063 96.5424ZM93.1473 98.6021L96.49 98.2564L97.72 110.149L94.3773 110.495L93.1473 98.6021ZM116.37 96.2003L113.063 96.5424L114.293 108.435L117.6 108.093L116.37 96.2003ZM97.72 110.149L101.027 109.807L101.37 113.115L98.0621 113.457L97.72 110.149ZM114.293 108.435L110.95 108.781L111.292 112.088L114.635 111.743L114.293 108.435ZM101.37 113.115L111.292 112.088L111.634 115.396L101.712 116.422L101.37 113.115Z" fill="#121212"/>
<path d="M139.5 101.525L140.624 112.398L137.317 112.74L136.534 105.175L133.227 105.517L132.885 102.209L122.927 103.239L124.051 114.112L120.709 114.457L118.11 89.3346L134.718 87.6169L135.06 90.9244L121.795 92.2964L122.585 99.9317L135.85 98.5598L136.192 101.867L139.5 101.525ZM139.158 98.2177L135.85 98.5598L135.06 90.9244L138.368 90.5824L139.158 98.2177Z" fill="#121212"/>
<path d="M161.848 99.2138L162.973 110.086L159.665 110.428L158.883 102.863L155.575 103.205L155.233 99.898L145.276 100.928L146.4 111.8L143.057 112.146L140.459 87.0232L157.067 85.3056L157.409 88.613L144.144 89.985L144.934 97.6203L158.199 96.2484L158.541 99.5559L161.848 99.2138ZM161.506 95.9063L158.199 96.2484L157.409 88.613L160.717 88.271L161.506 95.9063Z" fill="#121212"/>
<path d="M179.722 86.3053L169.8 87.3315L169.458 84.024L179.38 82.9978L179.722 86.3053ZM166.835 90.9811L170.142 90.639L169.8 87.3315L166.493 87.6736L166.835 90.9811ZM183.407 89.2671L180.065 89.6128L179.722 86.3053L183.065 85.9596L183.407 89.2671ZM163.492 91.3268L166.835 90.9811L168.065 102.874L164.722 103.22L163.492 91.3268ZM186.715 88.925L183.407 89.2671L184.637 101.16L187.945 100.818L186.715 88.925ZM168.065 102.874L171.372 102.532L171.714 105.839L168.407 106.181L168.065 102.874ZM184.637 101.16L181.295 101.506L181.637 104.813L184.979 104.467L184.637 101.16ZM171.714 105.839L181.637 104.813L181.979 108.121L172.056 109.147L171.714 105.839Z" fill="#121212"/>
<path d="M188.455 82.0593L191.763 81.7172L193.349 97.0583L196.657 96.7163L196.999 100.024L193.691 100.366L194.361 106.84L191.053 107.182L188.455 82.0593ZM209.922 95.3443L208.335 80.0032L211.643 79.6611L214.241 104.784L210.934 105.126L210.264 98.6518L206.956 98.9939L206.614 95.6864L209.922 95.3443ZM202.062 83.9948L202.404 87.3023L199.097 87.6444L198.755 84.3369L202.062 83.9948ZM199.999 96.3705L196.657 96.7163L195.754 87.9901L199.097 87.6444L199.999 96.3705ZM205.712 86.9602L206.614 95.6864L203.307 96.0285L202.404 87.3023L205.712 86.9602Z" fill="#121212"/>
<path d="M82.0229 142.997L83.7822 142.815L83.9642 144.574L85.7235 144.392L85.5415 142.633L87.3008 142.451L87.4828 144.21L98.0386 143.118L97.8567 141.359L96.0973 141.541L95.9154 139.782L97.6747 139.6L97.8567 141.359L99.616 141.177L99.7979 142.936L101.557 142.754L101.739 144.514L99.9799 144.696L100.162 146.455L98.4025 146.637L98.2206 144.878L82.3868 146.515L82.0229 142.997ZM96.6432 146.819L98.4025 146.637L98.5845 148.396L96.8252 148.578L96.6432 146.819Z" fill="#121212"/>
<path d="M112.379 155.86L109.072 156.202L106.473 131.079L109.781 130.737L112.379 155.86Z" fill="#121212"/>
<path d="M128.798 128.77L129.14 132.078L115.875 133.45L115.533 130.142L128.798 128.77ZM115.875 133.45L116.647 140.909L113.339 141.251L112.568 133.792L115.875 133.45ZM132.448 131.736L132.79 135.043L129.482 135.385L129.14 132.078L132.448 131.736ZM129.912 139.537L130.254 142.845L116.989 144.217L116.647 140.909L129.912 139.537ZM133.561 142.503L134.362 150.244L131.054 150.586L130.254 142.845L133.561 142.503ZM117.447 148.65L117.789 151.958L114.482 152.3L114.14 148.992L117.447 148.65ZM131.054 150.586L131.396 153.893L118.131 155.265L117.789 151.958L131.054 150.586Z" fill="#121212"/>
<path d="M139.599 137.042L141.358 136.86L141.54 138.619L143.299 138.437L143.117 136.678L144.877 136.496L145.059 138.255L155.615 137.164L155.433 135.404L153.673 135.586L153.491 133.827L155.251 133.645L155.433 135.404L157.192 135.222L157.374 136.982L159.133 136.8L159.315 138.559L157.556 138.741L157.738 140.5L155.978 140.682L155.797 138.923L139.963 140.56L139.599 137.042ZM154.219 140.864L155.978 140.682L156.16 142.441L154.401 142.623L154.219 140.864Z" fill="#121212"/>
<path d="M96.2404 173.319L98.1546 191.827L94.8471 192.169L92.2488 167.046L95.5563 166.704L95.8984 170.011L99.2058 169.669L99.5479 172.977L96.2404 173.319ZM111.385 190.459L111.042 187.151L107.735 187.493L107.393 184.186L110.7 183.844L108.786 165.336L112.094 164.994L114.692 190.116L111.385 190.459ZM102.855 172.635L103.197 175.942L99.89 176.284L99.5479 172.977L102.855 172.635ZM106.505 175.6L107.393 184.186L104.085 184.528L103.197 175.942L106.505 175.6Z" fill="#121212"/>
<path d="M120.435 189.523L117.127 189.865L114.529 164.742L117.836 164.4L120.435 189.523Z" fill="#121212"/>
<path d="M123.93 167.112L123.588 163.805L136.818 162.436L137.16 165.744L123.93 167.112ZM125.845 185.62L122.537 185.962L120.623 167.454L123.93 167.112L125.845 185.62ZM140.468 165.402L140.81 168.709L137.502 169.051L137.16 165.744L140.468 165.402ZM138.732 180.944L142.04 180.602L142.382 183.91L139.074 184.252L138.732 180.944ZM139.074 184.252L139.417 187.559L126.187 188.928L125.845 185.62L139.074 184.252Z" fill="#121212"/>
<path d="M145.868 161.501L159.133 160.129L159.475 163.436L146.21 164.808L145.868 161.501ZM144.817 183.658L148.124 183.316L147.331 175.645L157.289 174.615L156.947 171.308L146.989 172.338L146.21 164.808L142.903 165.15L144.817 183.658ZM148.124 183.316L161.39 181.944L161.732 185.251L148.467 186.623L148.124 183.316Z" fill="#121212"/>
<path d="M139.447 210.281L141.171 210.102L142.088 218.969L140.364 219.147L140.728 222.666L138.969 222.848L139.151 224.607L137.391 224.789L137.573 226.549L134.055 226.912L134.233 228.637L125.366 229.554L125.188 227.83L121.669 228.193L121.487 226.434L119.728 226.616L119.546 224.857L117.787 225.039L117.423 221.52L115.699 221.698L114.782 212.832L116.506 212.653L116.142 209.135L117.901 208.953L117.719 207.193L119.479 207.011L119.297 205.252L122.815 204.888L122.637 203.164L131.504 202.247L131.682 203.971L135.201 203.607L135.383 205.367L137.142 205.185L137.324 206.944L139.083 206.762L139.447 210.281ZM135.009 219.63L136.768 219.448L136.411 216L129.444 216.721L129.983 221.928L135.191 221.39L135.009 219.63ZM120.459 215.801L127.426 215.08L126.887 209.873L121.679 210.411L121.861 212.17L120.102 212.352L120.459 215.801ZM136.222 214.17L135.865 210.722L134.106 210.904L133.924 209.145L128.717 209.683L129.255 214.891L136.222 214.17ZM128.153 222.117L127.615 216.91L120.648 217.63L121.005 221.079L122.764 220.897L122.946 222.656L128.153 222.117ZM137.695 210.533L138.598 219.259L140.287 219.084L139.384 210.358L137.695 210.533ZM123.25 208.4L126.698 208.043L126.341 204.595L124.652 204.769L124.834 206.529L123.075 206.711L123.25 208.4ZM130.529 227.206L132.218 227.031L132.036 225.272L133.795 225.09L133.62 223.401L130.172 223.758L130.529 227.206ZM128.527 207.854L131.976 207.497L131.801 205.808L130.042 205.99L129.86 204.231L128.171 204.405L128.527 207.854ZM127.01 227.57L128.699 227.395L128.343 223.947L124.894 224.304L125.069 225.993L126.828 225.811L127.01 227.57ZM116.583 212.716L116.94 216.165L118.629 215.99L118.272 212.542L116.583 212.716ZM118.818 217.82L117.129 217.994L117.486 221.442L119.175 221.268L118.818 217.82ZM135.625 224.901L137.314 224.726L137.139 223.037L135.45 223.212L135.625 224.901ZM119.85 210.6L118.161 210.775L118.336 212.464L120.024 212.289L119.85 210.6ZM119.427 223.02L121.116 222.845L120.941 221.156L119.253 221.331L119.427 223.02ZM123.065 224.493L121.376 224.668L121.55 226.357L123.239 226.182L123.065 224.493ZM119.556 207.075L119.731 208.763L121.42 208.589L121.245 206.9L119.556 207.075ZM136.846 219.511L137.02 221.2L138.709 221.026L138.535 219.337L136.846 219.511ZM135.929 210.644L137.617 210.47L137.443 208.781L135.754 208.956L135.929 210.644ZM133.805 207.308L135.494 207.133L135.32 205.444L133.631 205.619L133.805 207.308Z" fill="#121212"/>
<g clip-path="url(#clip0_716_21127)">
<path fill-rule="evenodd" clip-rule="evenodd" d="M181.101 151.729C182.367 146.674 187.491 143.603 192.545 144.869L285.728 168.206C290.782 169.472 293.853 174.596 292.587 179.65L288.78 194.85C287.515 199.905 290.586 205.028 295.64 206.294L296.008 206.386C301.062 207.652 304.133 212.776 302.867 217.83L296.773 242.166C295.507 247.22 290.383 250.292 285.329 249.026L251.061 240.443C246.007 239.178 240.883 242.249 239.617 247.303L236.501 259.745C235.235 264.799 230.112 267.87 225.057 266.605L196.146 259.364C191.091 258.098 188.02 252.974 189.286 247.92L192.402 235.478C193.668 230.424 190.597 225.3 185.542 224.034L153.043 215.895C147.988 214.629 144.917 209.505 146.183 204.451L152.278 180.115C153.544 175.061 158.667 171.99 163.722 173.256L165.85 173.789C170.905 175.055 176.028 171.983 177.294 166.929L181.101 151.729Z" fill="white"/>
<path d="M165.85 173.789L166.102 172.785L165.85 173.789ZM192.402 235.478L191.398 235.227L192.402 235.478ZM185.542 224.034L185.291 225.038L185.542 224.034ZM251.061 240.443L250.81 241.447L251.061 240.443ZM285.329 249.026L285.58 248.022L285.329 249.026ZM192.545 144.869L192.796 143.865L192.545 144.869ZM285.728 168.206L285.476 169.21L285.728 168.206ZM292.587 179.65L291.583 179.399L292.587 179.65ZM285.979 167.202L192.796 143.865L192.294 145.873L285.476 169.21L285.979 167.202ZM289.784 195.102L293.591 179.901L291.583 179.399L287.776 194.599L289.784 195.102ZM296.259 205.382L295.892 205.29L295.389 207.298L295.756 207.39L296.259 205.382ZM297.777 242.417L303.871 218.082L301.863 217.579L295.769 241.914L297.777 242.417ZM250.81 241.447L285.077 250.03L285.58 248.022L251.313 239.439L250.81 241.447ZM238.613 247.052L235.497 259.493L237.505 259.996L240.621 247.555L238.613 247.052ZM225.309 265.601L196.397 258.36L195.894 260.368L224.806 267.609L225.309 265.601ZM190.29 248.171L193.406 235.73L191.398 235.227L188.282 247.668L190.29 248.171ZM152.791 216.899L185.291 225.038L185.794 223.03L153.294 214.891L152.791 216.899ZM151.274 179.864L145.179 204.2L147.187 204.703L153.282 180.367L151.274 179.864ZM166.102 172.785L163.973 172.252L163.47 174.26L165.599 174.793L166.102 172.785ZM180.097 151.477L176.29 166.677L178.298 167.18L182.105 151.98L180.097 151.477ZM165.599 174.793C171.208 176.197 176.893 172.789 178.298 167.18L176.29 166.677C175.163 171.177 170.602 173.912 166.102 172.785L165.599 174.793ZM153.282 180.367C154.409 175.867 158.97 173.133 163.47 174.26L163.973 172.252C158.364 170.847 152.679 174.255 151.274 179.864L153.282 180.367ZM153.294 214.891C148.794 213.764 146.06 209.202 147.187 204.703L145.179 204.2C143.774 209.809 147.182 215.494 152.791 216.899L153.294 214.891ZM193.406 235.73C194.811 230.121 191.402 224.435 185.794 223.03L185.291 225.038C189.791 226.165 192.525 230.727 191.398 235.227L193.406 235.73ZM196.397 258.36C191.897 257.233 189.163 252.671 190.29 248.171L188.282 247.668C186.877 253.277 190.285 258.963 195.894 260.368L196.397 258.36ZM235.497 259.493C234.37 263.993 229.809 266.728 225.309 265.601L224.806 267.609C230.415 269.013 236.1 265.605 237.505 259.996L235.497 259.493ZM251.313 239.439C245.704 238.035 240.018 241.443 238.613 247.052L240.621 247.555C241.748 243.055 246.31 240.32 250.81 241.447L251.313 239.439ZM295.769 241.914C294.642 246.414 290.08 249.149 285.58 248.022L285.077 250.03C290.686 251.434 296.372 248.026 297.777 242.417L295.769 241.914ZM295.756 207.39C300.256 208.517 302.99 213.079 301.863 217.579L303.871 218.082C305.276 212.473 301.868 206.787 296.259 205.382L295.756 207.39ZM287.776 194.599C286.372 200.208 289.78 205.894 295.389 207.298L295.892 205.29C291.392 204.163 288.657 199.602 289.784 195.102L287.776 194.599ZM192.796 143.865C187.188 142.46 181.502 145.868 180.097 151.477L182.105 151.98C183.232 147.48 187.794 144.746 192.294 145.873L192.796 143.865ZM285.476 169.21C289.976 170.337 292.71 174.899 291.583 179.399L293.591 179.901C294.996 174.293 291.588 168.607 285.979 167.202L285.476 169.21Z" fill="black"/>
<path d="M219.414 241.084L223.969 242.224L223.589 243.743L225.108 244.123L224.347 247.16L222.829 246.78L222.448 248.298L219.412 247.537L219.031 249.056L220.55 249.436L219.789 252.473L218.271 252.093L217.89 253.611L213.335 252.47L213.716 250.952L212.197 250.571L212.958 247.535L211.439 247.154L211.059 248.673L209.541 248.293L209.16 249.811L204.605 248.67L204.986 247.152L203.467 246.771L204.228 243.735L205.746 244.115L206.126 242.597L207.645 242.977L208.025 241.459L206.507 241.078L206.887 239.56L205.369 239.18L206.129 236.143L207.648 236.523L208.028 235.005L212.583 236.146L212.203 237.664L213.721 238.044L214.482 235.007L216 235.388L216.38 233.869L220.935 235.01L220.555 236.529L222.073 236.909L221.313 239.946L219.795 239.565L219.414 241.084ZM212.961 241.081L212.2 244.118L215.237 244.878L215.997 241.841L212.961 241.081Z" fill="#121212"/>
<path d="M195.644 156.955L198.765 166.916L198.938 166.959L206.385 159.645L210.246 160.612L200.6 169.931L204.758 182.708L200.876 181.736L197.704 171.888L197.531 171.844L190.092 179.035L186.209 178.063L196.017 168.783L191.784 155.988L195.644 156.955ZM225.622 167.65L213.986 164.736L214.71 161.842L226.346 164.757L225.622 167.65ZM213.986 164.736L213.253 167.661L210.329 166.928L211.061 164.004L213.986 164.736ZM224.499 184.544L221.574 183.812L223.432 176.393L214.69 174.203L215.414 171.31L224.157 173.499L225.622 167.65L228.546 168.383L224.499 184.544ZM209.938 180.897L207.014 180.165L207.738 177.271L210.663 178.004L209.938 180.897ZM221.574 183.812L220.842 186.736L209.206 183.822L209.938 180.897L221.574 183.812ZM232.404 166.161L235.704 166.988L231.642 183.207L231.847 183.258L247.146 169.853L250.23 170.626L244.699 192.711L241.367 191.877L245.423 175.679L245.218 175.628L229.947 189.016L226.873 188.247L232.404 166.161ZM244.841 163.316L247.494 163.981C247.189 165.196 246.51 166.076 245.457 166.622C244.412 167.163 243.16 167.251 241.701 166.885C240.249 166.521 239.189 165.855 238.523 164.886C237.858 163.909 237.678 162.814 237.982 161.599L240.624 162.26C240.489 162.8 240.528 163.317 240.74 163.814C240.953 164.303 241.445 164.643 242.214 164.836C242.969 165.025 243.559 164.955 243.986 164.627C244.419 164.3 244.704 163.863 244.841 163.316ZM183.85 188.02L178.319 210.105L174.997 209.274L179.815 190.035L169.42 187.432L164.601 206.67L161.28 205.838L166.811 183.753L183.85 188.02ZM189.411 192.463L187.369 200.614L199.053 203.54L198.323 206.454L186.64 203.527L184.598 211.678L181.685 210.949L187.227 188.821L201.824 192.476L201.094 195.39L189.411 192.463ZM201.966 204.27L199.053 203.54L201.094 195.39L204.008 196.119L201.966 204.27ZM207.84 194.028L211.14 194.855L207.078 211.074L207.283 211.125L222.582 197.72L225.666 198.493L220.135 220.578L216.803 219.744L220.859 203.546L220.654 203.495L205.382 216.884L202.309 216.114L207.84 194.028ZM228.718 211.958L226.91 219.179L238.593 222.105L237.864 225.018L223.267 221.363L228.809 199.235L243.406 202.89L242.676 205.804L230.992 202.878L229.448 209.045L241.131 211.971L240.402 214.884L228.718 211.958ZM244.045 212.701L241.131 211.971L242.676 205.804L245.589 206.533L244.045 212.701ZM241.507 222.835L238.593 222.105L240.402 214.884L243.315 215.614L241.507 222.835ZM243.891 226.528L249.422 204.442L263.268 207.91L262.55 210.779L252.036 208.145L250.35 214.875L260.142 217.327L259.427 220.185L249.635 217.732L247.941 224.494L258.585 227.16L257.867 230.028L243.891 226.528ZM265.153 211.431L265.871 208.562L282.964 212.843L282.245 215.711L275.354 213.986L270.542 233.203L267.22 232.371L272.033 213.154L265.153 211.431ZM289.788 214.552L285.567 230.216L282.58 229.467L286.24 213.664L289.788 214.552ZM282.437 236.399C281.84 236.25 281.382 235.914 281.063 235.391C280.745 234.86 280.664 234.297 280.821 233.703C280.961 233.111 281.296 232.66 281.824 232.349C282.355 232.032 282.918 231.947 283.515 232.097C284.097 232.243 284.547 232.581 284.865 233.111C285.185 233.634 285.275 234.192 285.134 234.783C285.028 235.176 284.833 235.513 284.549 235.794C284.273 236.069 283.95 236.263 283.578 236.376C283.206 236.489 282.825 236.497 282.437 236.399Z" fill="black"/>
<path d="M278.358 182.753L279.846 183.125L277.55 192.296L276.062 191.924L275.681 193.442L274.163 193.062L273.79 194.55L264.619 192.253L264.992 190.765L263.474 190.385L264.234 187.348L262.716 186.968L263.857 182.413L257.783 180.892L258.163 179.373L256.675 179L257.071 177.421L258.559 177.794L258.939 176.276L269.568 178.938L269.933 177.48L268.414 177.1L269.183 174.033L273.798 175.189L273.426 176.677L276.462 177.437L276.082 178.955L277.601 179.336L277.22 180.854L278.739 181.234L278.358 182.753ZM271.141 192.241L274.117 192.986L274.498 191.468L276.016 191.848L278.282 182.798L276.764 182.418L277.144 180.9L275.626 180.519L276.006 179.001L272.97 178.24L273.35 176.722L270.374 175.977L270.009 177.434L271.527 177.815L271.147 179.333L272.665 179.713L272.285 181.232L273.803 181.612L273.423 183.13L274.941 183.511L274.546 185.09L273.028 184.709L271.141 192.241ZM271.844 182.735L272.209 181.277L258.604 177.87L258.239 179.328L271.844 182.735ZM264.31 187.302L270.323 188.808L270.688 187.351L264.675 185.845L264.31 187.302ZM265.436 182.808L265.071 184.266L271.083 185.772L271.448 184.314L265.436 182.808ZM265.433 189.262L265.068 190.72L269.562 191.845L269.927 190.387L265.433 189.262Z" fill="black"/>
</g>
<defs>
<clipPath id="clip0_716_21127">
<rect width="157.705" height="140.51" fill="white" transform="translate(168.312 113) rotate(14.0604)"/>
</clipPath>
</defs>
</svg>
