<svg width="1913" height="832" viewBox="0 0 1913 832" fill="none" xmlns="http://www.w3.org/2000/svg">
<g clip-path="url(#clip0)">
<rect width="1913" height="832" fill="#202020"/>
<path d="M1454.63 450.45C1456.27 441.813 1465.87 439.017 1471.9 445.417L1570.37 549.954C1576.4 556.354 1574.34 567.15 1566.67 569.387L1441.28 605.922C1433.6 608.159 1426.07 600.158 1427.72 591.521L1454.63 450.45Z" fill="#FF6242"/>
<path d="M138.778 335.993C130.98 338.486 123.675 331.664 125.63 323.714L157.552 193.863C159.506 185.913 169.254 182.797 175.097 188.255L270.545 277.396C276.389 282.853 273.946 292.791 266.147 295.283L138.778 335.993Z" fill="#9897DE"/>
<path d="M245.6 453.241C247.742 437.793 262.001 427.006 277.449 429.147L525.899 463.588C541.347 465.73 552.134 479.989 549.993 495.437L535.27 601.644C533.129 617.092 518.87 627.879 503.422 625.738L254.971 591.297C239.523 589.156 228.736 574.897 230.877 559.449L245.6 453.241Z" fill="#F8F5E8"/>
<mask id="mask0" mask-type="alpha" maskUnits="userSpaceOnUse" x="230" y="428" width="321" height="199">
<path d="M245.6 453.241C247.742 437.793 262.001 427.006 277.449 429.147L525.899 463.588C541.347 465.73 552.134 479.989 549.993 495.437L535.27 601.644C533.129 617.092 518.87 627.879 503.422 625.738L254.971 591.297C239.523 589.156 228.736 574.897 230.877 559.449L245.6 453.241Z" fill="#C4C4C4"/>
</mask>
<g mask="url(#mask0)">
<path fill-rule="evenodd" clip-rule="evenodd" d="M388.785 515.403C394.32 522.719 392.875 533.137 385.559 538.672L309.109 596.508C302.51 601.5 301.208 610.895 306.199 617.494V617.494C311.191 624.093 320.587 625.395 327.186 620.403L426.356 545.38C426.756 545.139 427.146 544.875 427.526 544.588L430.226 542.545C430.606 542.258 430.966 541.954 431.307 541.635V541.635C436.571 537.652 437.61 530.156 433.628 524.892L422.784 510.558C422.771 510.541 422.748 510.538 422.732 510.551V510.551C422.715 510.563 422.692 510.56 422.68 510.543L353.823 419.525C349.395 413.672 341.061 412.517 335.208 416.944L332.508 418.987C326.655 423.415 325.5 431.749 329.928 437.602L388.785 515.403Z" fill="#EF6527"/>
<path fill-rule="evenodd" clip-rule="evenodd" d="M248.559 517.903C254.778 513.198 256.006 504.343 251.301 498.124L191.442 418.998C186.737 412.779 187.965 403.924 194.183 399.22L195.559 398.179C201.777 393.475 210.633 394.702 215.337 400.921L283.692 491.277C283.705 491.294 283.728 491.297 283.745 491.284V491.284C283.761 491.272 283.784 491.275 283.797 491.292L301.829 515.128C301.842 515.144 301.838 515.168 301.822 515.18V515.18C301.805 515.192 301.802 515.216 301.814 515.232V515.232C301.827 515.248 301.824 515.271 301.807 515.284L277.971 533.316C277.954 533.329 277.931 533.325 277.919 533.309V533.309C277.907 533.293 277.883 533.29 277.867 533.302L187.511 601.657C181.292 606.362 172.437 605.134 167.733 598.915L166.692 597.54C161.988 591.321 163.215 582.466 169.434 577.762L248.559 517.903Z" fill="#EF6527"/>
<path fill-rule="evenodd" clip-rule="evenodd" d="M438.119 525.799C441.993 530.92 440.982 538.212 435.861 542.087L352.762 604.952C347.641 608.826 346.63 616.119 350.504 621.24L354.551 626.59C358.425 631.711 365.718 632.722 370.839 628.848L473.959 550.837C474.383 550.577 474.799 550.295 475.204 549.988C475.609 549.682 475.994 549.359 476.359 549.021L477.894 547.86C483.015 543.986 484.026 536.693 480.151 531.572L469.112 516.979C469.1 516.963 469.076 516.959 469.06 516.972V516.972C469.043 516.984 469.019 516.981 469.007 516.965L401.172 427.297C396.181 420.698 386.785 419.396 380.186 424.388C373.587 429.379 372.285 438.775 377.277 445.374L438.119 525.799Z" fill="#EF6527"/>
<path fill-rule="evenodd" clip-rule="evenodd" d="M484.836 532.443C488.71 537.564 487.699 544.857 482.578 548.731L399.479 611.597C394.357 615.471 393.346 622.764 397.221 627.885L401.268 633.234C405.142 638.356 412.435 639.367 417.556 635.492L520.676 557.481C521.1 557.222 521.516 556.939 521.921 556.633C522.326 556.326 522.711 556.003 523.076 555.665L524.61 554.504C529.732 550.63 530.743 543.338 526.868 538.216L515.829 523.624C515.816 523.607 515.793 523.604 515.776 523.616V523.616C515.76 523.629 515.736 523.626 515.724 523.609L447.889 433.941C442.897 427.343 433.501 426.04 426.903 431.032C420.304 436.024 419.002 445.42 423.994 452.018L484.836 532.443Z" fill="#EF6527"/>
<path d="M213.542 604.649C208.55 598.05 209.852 588.654 216.451 583.663L318.156 506.722C324.754 501.73 334.15 503.032 339.142 509.631V509.631C344.134 516.229 342.832 525.625 336.233 530.617L234.528 607.558C227.929 612.55 218.533 611.248 213.542 604.649V604.649Z" fill="#EF6527"/>
<path d="M241.201 405.122C234.602 410.113 233.3 419.509 238.292 426.108L315.232 527.813C320.224 534.412 329.62 535.714 336.219 530.722V530.722C342.817 525.73 344.12 516.334 339.128 509.736L262.187 408.031C257.195 401.432 247.799 400.13 241.201 405.122V405.122Z" fill="#EF6527"/>
<path fill-rule="evenodd" clip-rule="evenodd" d="M469.934 458.219C464.942 451.62 466.245 442.224 472.843 437.232C479.442 432.24 488.838 433.543 493.83 440.141L569.819 540.588C570.156 540.953 570.479 541.338 570.785 541.742C573.304 545.072 574.22 549.113 573.662 552.941C573.136 556.739 571.161 560.337 567.861 562.833C567.458 563.138 567.044 563.42 566.622 563.678L466.171 639.67C459.572 644.662 450.177 643.359 445.185 636.761C440.193 630.162 441.495 620.766 448.094 615.774L525.207 557.437C532.157 552.179 533.529 542.282 528.271 535.332L469.934 458.219Z" fill="#EF6527"/>
<path d="M259.871 611.071C254.879 604.472 256.181 595.076 262.78 590.084L364.485 513.144C371.083 508.152 380.479 509.454 385.471 516.053V516.053C390.463 522.651 389.161 532.047 382.562 537.039L280.857 613.98C274.258 618.972 264.863 617.669 259.871 611.071V611.071Z" fill="#EF6527"/>
<path d="M287.53 411.543C280.931 416.535 279.629 425.931 284.621 432.53L361.561 534.235C366.553 540.833 375.949 542.136 382.548 537.144V537.144C389.146 532.152 390.449 522.756 385.457 516.158L308.516 414.453C303.524 407.854 294.128 406.552 287.53 411.543V411.543Z" fill="#EF6527"/>
<path d="M120.884 591.805C115.892 585.206 117.195 575.81 123.793 570.818L225.499 493.877C232.097 488.886 241.493 490.188 246.485 496.787V496.787C251.477 503.385 250.174 512.781 243.576 517.773L141.871 594.714C135.272 599.706 125.876 598.403 120.884 591.805V591.805Z" fill="#EF6527"/>
<path d="M148.543 392.277C141.945 397.269 140.642 406.665 145.634 413.264L222.575 514.969C227.567 521.567 236.963 522.87 243.562 517.878V517.878C250.16 512.886 251.463 503.49 246.471 496.892L169.53 395.186C164.538 388.588 155.142 387.285 148.543 392.277V392.277Z" fill="#EF6527"/>
<path d="M491.514 643.182C486.522 636.583 487.825 627.187 494.423 622.195L596.128 545.254C602.727 540.263 612.123 541.565 617.115 548.164V548.164C622.107 554.762 620.804 564.158 614.206 569.15L512.501 646.091C505.902 651.083 496.506 649.78 491.514 643.182V643.182Z" fill="#EF6527"/>
<path d="M519.173 443.654C512.575 448.646 511.272 458.042 516.264 464.641L593.205 566.346C598.197 572.944 607.593 574.247 614.191 569.255V569.255C620.79 564.263 622.092 554.867 617.101 548.268L540.16 446.563C535.168 439.965 525.772 438.662 519.173 443.654V443.654Z" fill="#EF6527"/>
</g>
<path d="M316.882 495.793L317.762 489.441L283.109 484.637L275.518 539.397L310.171 544.201L311.062 537.775L283.777 533.993L286.449 514.718L302.28 516.912L301.835 520.125L309.349 521.166L310.209 514.96L304.519 514.172L304.964 510.959L287.31 508.512L289.597 492.011L316.882 495.793Z" fill="#272727"/>
<path d="M407.263 548.987C407.628 546.717 408.212 544.503 409.016 542.344C409.827 540.136 410.637 537.928 411.448 535.719C412.308 533.518 412.895 531.279 413.211 529.002C413.569 526.781 413.578 524.538 413.236 522.271C412.895 520.003 412.55 517.761 412.202 515.544C411.86 513.277 411.834 511.104 412.122 509.025C412.417 506.896 413.057 505.371 414.042 504.448C415.077 503.532 416.757 503.058 419.081 503.028C421.406 502.997 424.671 503.273 428.878 503.856C432.788 504.398 436.292 505.312 439.393 506.6C442.5 507.838 444.863 509.527 446.483 511.669C448.159 513.768 448.784 516.352 448.359 519.421C448.133 521.054 447.502 522.329 446.467 523.245C445.439 524.111 444.183 524.442 442.698 524.236C441.56 524.078 440.717 523.608 440.17 522.826C439.679 522.001 439.339 520.995 439.15 519.809C438.969 518.573 438.741 517.305 438.467 516.006C438.249 514.664 437.848 513.373 437.264 512.132C436.686 510.841 435.753 509.753 434.463 508.868C433.23 507.94 431.475 507.318 429.198 507.003C426.724 506.66 424.628 507.227 422.91 508.704C421.199 510.132 420.172 512.083 419.829 514.558C419.479 517.082 419.547 519.135 420.034 520.716C420.578 522.254 421.367 523.473 422.402 524.374C423.494 525.231 424.712 525.904 426.056 526.394C427.457 526.84 428.84 527.233 430.205 527.574C431.627 527.872 432.886 528.248 433.983 528.703C435.137 529.115 436.012 529.716 436.608 530.505C437.262 531.251 437.489 532.342 437.29 533.777C437.077 535.312 436.446 536.41 435.396 537.072C434.395 537.74 433.35 537.999 432.262 537.848C430.876 537.656 429.52 537.064 428.195 536.073C426.919 535.089 425.72 533.914 424.598 532.548C423.525 531.188 422.555 529.818 421.688 528.436C420.876 527.012 420.217 525.761 419.711 524.682C419.262 523.56 419.036 522.822 419.035 522.469L418.738 522.428L416.638 537.574C416.254 540.346 415.95 542.902 415.726 545.242C415.503 547.582 415.593 549.663 415.996 551.484C416.406 553.256 417.313 554.719 418.717 555.872C420.177 556.983 422.367 557.74 425.287 558.145C427.118 558.399 428.58 558.223 429.672 557.618C430.821 556.97 431.768 556.143 432.513 555.136C433.265 554.08 433.992 553.02 434.694 551.957C435.446 550.901 436.293 550.06 437.238 549.435C438.238 548.766 439.555 548.545 441.188 548.771C442.92 549.012 444.259 549.727 445.203 550.917C446.204 552.065 446.605 553.356 446.406 554.792C446.118 556.871 445.037 558.486 443.162 559.639C441.294 560.742 438.831 561.41 435.772 561.642C432.707 561.923 429.244 561.796 425.384 561.261C421.425 560.712 418.197 560.164 415.701 559.616C413.204 559.068 411.283 558.373 409.937 557.531C408.641 556.695 407.785 555.593 407.369 554.223C407.003 552.861 406.968 551.116 407.263 548.987Z" fill="#272727"/>
<path d="M395.573 515.416C395.633 512.917 394.749 510.832 392.921 509.164C391.094 507.477 388.617 506.417 385.489 505.984C382.22 505.531 379.49 505.913 377.297 507.132C375.121 508.353 373.871 510.133 373.547 512.471C373.411 513.455 373.495 514.398 373.8 515.3C374.107 516.185 374.529 516.951 375.066 517.599C375.624 518.231 376.335 518.85 377.201 519.453C378.084 520.059 378.903 520.549 379.657 520.922C380.411 521.296 381.263 521.674 382.213 522.056L387.296 524.158C397.293 528.142 401.767 533.921 400.717 541.497C400.069 546.173 397.758 549.731 393.783 552.172C389.826 554.615 384.746 555.407 378.542 554.547C372.514 553.711 367.903 551.638 364.708 548.329C361.515 545.002 360.126 540.869 360.543 535.928L368.715 537.061C368.553 539.905 369.476 542.227 371.483 544.028C373.511 545.814 376.176 546.936 379.48 547.394C382.977 547.879 385.953 547.476 388.406 546.186C390.88 544.881 392.298 542.919 392.661 540.3C392.791 539.368 392.733 538.491 392.489 537.669C392.244 536.847 391.87 536.123 391.366 535.498C390.879 534.875 390.201 534.271 389.333 533.685C388.485 533.083 387.618 532.56 386.73 532.114C385.845 531.651 384.793 531.165 383.574 530.656L377.436 528.031C368.419 524.202 364.395 518.798 365.362 511.82C365.784 508.779 366.994 506.188 368.992 504.046C371.008 501.907 373.554 500.406 376.629 499.542C379.707 498.661 383.047 498.47 386.65 498.97C392.098 499.725 396.376 501.742 399.486 505.022C402.596 508.301 403.91 512.129 403.429 516.505L395.573 515.416Z" fill="#272727"/>
<path d="M505.258 516.163L497.772 570.16L490.286 569.122L468.334 525.717L467.833 525.647L462.343 565.249L454.197 564.12L461.683 510.123L469.222 511.168L491.193 554.629L491.694 554.699L497.191 515.045L505.258 516.163Z" fill="#272727"/>
<path d="M324.473 520.511C320.319 517.02 322.768 512.766 324.511 511.076C324.304 511.304 324.461 511.179 326.753 508.847C329.045 506.514 328.005 502.543 327.199 500.848C326.711 498.793 326.528 494.296 329.702 492.748C333.669 490.814 337.153 491.573 339.845 495.258C341.998 498.207 345.384 498.051 346.807 497.604C349.068 496.169 353.998 494.405 355.637 498.828C357.687 504.357 355.008 509.341 353.933 511.124C352.857 512.907 350.476 512.963 346.605 512.206C343.509 511.6 343.25 507.037 343.055 504.758C342.486 502.735 340.106 499.27 335.862 500.89C330.557 502.915 330.864 509.858 331.229 512.007C331.593 514.155 336.22 519.808 341.478 516.133C345.685 513.192 348.253 514.256 349.68 515.117C351.191 515.768 354.181 517.143 354.595 521.484C355.112 526.911 353.282 525.882 352.215 529.491C351.384 532.302 353.793 535.23 353.751 537.93C353.708 540.629 352.582 543.702 348.204 546.877C342.819 550.783 334.126 548.459 331.472 548.091C328.851 547.728 324.105 545.469 321.985 543.243C320.298 541.472 319.143 538.653 318.496 533.76C317.668 527.502 321.51 525.952 322.529 525.376C323.565 524.789 328.627 524.399 330.601 526.495C332.574 528.59 332.183 531.407 331.064 535.502C329.944 539.598 330.813 541.212 332.125 543.379C333.293 545.307 341.53 547.222 343.791 544.057C346.044 540.903 343.94 539.119 341.382 536.952L341.356 536.929C338.787 534.751 339.733 531.515 340.907 529.414C342.082 527.313 343.362 526.442 342.425 522.447C341.675 519.252 337.808 518.716 335.369 519.978C332.491 521.622 328.627 524.002 324.473 520.511Z" fill="#272727"/>
<path d="M402.857 334.963L364.574 185.933L598.373 129.876L638.934 277.995L402.857 334.963Z" fill="#F8F5E8"/>
<path d="M329.331 194.781C327.401 186.545 332.513 178.303 340.749 176.373L387.67 165.375C395.906 163.445 404.148 168.557 406.078 176.793C408.009 185.029 402.897 193.271 394.661 195.201L347.74 206.199C339.503 208.129 331.262 203.017 329.331 194.781Z" fill="#FFCC11"/>
<path d="M336.325 224.61C334.395 216.374 339.507 208.132 347.743 206.202L394.664 195.204C402.9 193.274 411.142 198.386 413.072 206.622C415.003 214.858 409.891 223.1 401.655 225.03L354.734 236.028C346.498 237.958 338.256 232.846 336.325 224.61Z" fill="#FFCC11"/>
<path d="M343.313 254.433C341.382 246.197 346.494 237.955 354.73 236.025L401.651 225.027C409.888 223.097 418.129 228.208 420.06 236.445C421.99 244.681 416.878 252.922 408.642 254.853L361.721 265.85C353.485 267.781 345.243 262.669 343.313 254.433Z" fill="#FFCC11"/>
<path d="M350.325 284.352C348.383 276.066 353.526 267.774 361.812 265.831L408.552 254.877C416.838 252.934 425.13 258.077 427.072 266.364C429.014 274.65 423.871 282.942 415.585 284.884L368.846 295.839C360.559 297.781 352.267 292.638 350.325 284.352Z" fill="#FFCC11"/>
<path d="M357.317 314.178C355.398 305.992 360.479 297.801 368.665 295.882L415.768 284.842C423.954 282.924 432.145 288.004 434.064 296.19C435.982 304.376 430.902 312.567 422.716 314.486L375.613 325.526C367.427 327.445 359.235 322.364 357.317 314.178Z" fill="#FFCC11"/>
<path d="M364.286 343.912C362.356 335.676 367.468 327.435 375.704 325.504L422.625 314.507C430.861 312.576 439.103 317.688 441.033 325.924C442.964 334.16 437.852 342.402 429.616 344.332L382.695 355.33C374.458 357.26 366.217 352.149 364.286 343.912Z" fill="#FFCC11"/>
<path d="M406.078 176.796C404.148 168.56 409.26 160.318 417.496 158.387L464.235 147.432C472.471 145.502 480.713 150.614 482.643 158.85C484.574 167.086 479.462 175.328 471.226 177.258L424.487 188.213C416.25 190.144 408.009 185.032 406.078 176.796Z" fill="#FFCC11"/>
<path d="M413.07 206.618C411.139 198.382 416.251 190.141 424.487 188.21L471.226 177.255C479.462 175.325 487.704 180.437 489.635 188.673C491.565 196.909 486.453 205.151 478.217 207.081L431.478 218.036C423.242 219.966 415 214.855 413.07 206.618Z" fill="#FFCC11"/>
<path d="M420.06 236.447C418.129 228.211 423.241 219.969 431.477 218.039L478.217 207.084C486.453 205.153 494.694 210.265 496.625 218.501C498.555 226.738 493.443 234.979 485.207 236.91L438.468 247.865C430.232 249.795 421.99 244.683 420.06 236.447Z" fill="#FFCC11"/>
<path d="M427.074 266.361C425.132 258.074 430.275 249.782 438.561 247.84L485.119 236.928C493.405 234.986 501.697 240.129 503.639 248.415C505.582 256.701 500.439 264.993 492.152 266.936L445.595 277.848C437.308 279.79 429.016 274.647 427.074 266.361Z" fill="#FFCC11"/>
<path d="M434.062 296.191C432.143 288.005 437.224 279.813 445.41 277.895L492.331 266.897C500.517 264.978 508.708 270.059 510.627 278.245C512.546 286.431 507.465 294.622 499.279 296.541L452.358 307.539C444.172 309.457 435.981 304.377 434.062 296.191Z" fill="#FFCC11"/>
<path d="M441.032 325.925C439.102 317.688 444.214 309.447 452.45 307.516L499.189 296.561C507.425 294.631 515.667 299.743 517.597 307.979C519.528 316.215 514.416 324.457 506.18 326.387L459.441 337.342C451.205 339.273 442.963 334.161 441.032 325.925Z" fill="#FFCC11"/>
<path d="M482.644 158.849C480.713 150.613 485.825 142.371 494.061 140.441L540.982 129.443C549.219 127.513 557.46 132.624 559.391 140.861C561.321 149.097 556.209 157.338 547.973 159.269L501.052 170.266C492.816 172.197 484.574 167.085 482.644 158.849Z" fill="#FFCC11"/>
<path d="M489.635 188.675C487.705 180.439 492.816 172.197 501.053 170.267L547.974 159.269C556.21 157.339 564.451 162.451 566.382 170.687C568.312 178.923 563.201 187.165 554.964 189.095L508.043 200.093C499.807 202.023 491.565 196.911 489.635 188.675Z" fill="#FFCC11"/>
<path d="M496.624 218.5C494.694 210.264 499.806 202.022 508.042 200.092L554.963 189.094C563.199 187.164 571.441 192.276 573.371 200.512C575.302 208.748 570.19 216.99 561.954 218.92L515.033 229.918C506.796 231.848 498.555 226.736 496.624 218.5Z" fill="#FFCC11"/>
<path d="M503.637 248.417C501.695 240.131 506.838 231.839 515.124 229.897L561.863 218.942C570.15 217 578.441 222.143 580.384 230.429C582.326 238.715 577.183 247.007 568.897 248.95L522.157 259.905C513.871 261.847 505.579 256.704 503.637 248.417Z" fill="#FFCC11"/>
<path d="M510.629 278.244C508.711 270.058 513.791 261.866 521.977 259.948L569.08 248.908C577.266 246.989 585.458 252.07 587.376 260.256C589.295 268.441 584.214 276.633 576.028 278.552L528.925 289.592C520.739 291.51 512.548 286.43 510.629 278.244Z" fill="#FFCC11"/>
<path d="M517.598 307.978C515.667 299.742 520.779 291.501 529.015 289.57L575.937 278.572C584.173 276.642 592.414 281.754 594.345 289.99C596.275 298.226 591.163 306.468 582.927 308.398L536.006 319.396C527.77 321.326 519.528 316.214 517.598 307.978Z" fill="#FFCC11"/>
<path d="M559.39 140.859C557.459 132.623 562.571 124.381 570.807 122.451L617.547 111.496C625.783 109.566 634.024 114.677 635.955 122.914C637.885 131.15 632.774 139.391 624.537 141.322L577.798 152.277C569.562 154.207 561.32 149.095 559.39 140.859Z" fill="#FFCC11"/>
<path d="M566.382 170.687C564.452 162.451 569.563 154.209 577.8 152.279L624.539 141.324C632.775 139.394 641.017 144.505 642.947 152.742C644.878 160.978 639.766 169.219 631.53 171.15L584.79 182.105C576.554 184.035 568.313 178.923 566.382 170.687Z" fill="#FFCC11"/>
<path d="M573.371 200.51C571.441 192.274 576.553 184.032 584.789 182.102L631.528 171.147C639.764 169.216 648.006 174.328 649.936 182.564C651.867 190.801 646.755 199.042 638.519 200.973L591.78 211.928C583.543 213.858 575.302 208.746 573.371 200.51Z" fill="#FFCC11"/>
<path d="M580.384 230.428C578.442 222.142 583.585 213.85 591.871 211.908L638.428 200.995C646.715 199.053 655.007 204.196 656.949 212.482C658.891 220.769 653.748 229.061 645.462 231.003L598.904 241.915C590.618 243.858 582.326 238.715 580.384 230.428Z" fill="#FFCC11"/>
<path d="M587.375 260.256C585.457 252.07 590.537 243.879 598.723 241.96L645.644 230.962C653.83 229.044 662.022 234.124 663.94 242.31C665.859 250.496 660.778 258.688 652.593 260.606L605.671 271.604C597.485 273.523 589.294 268.442 587.375 260.256Z" fill="#FFCC11"/>
<path d="M594.345 289.991C592.415 281.754 597.526 273.513 605.763 271.582L652.502 260.627C660.738 258.697 668.98 263.809 670.91 272.045C672.84 280.281 667.729 288.523 659.492 290.453L612.753 301.408C604.517 303.339 596.275 298.227 594.345 289.991Z" fill="#FFCC11"/>
<path d="M433.087 231.324L431.859 226.085L403.276 232.784L413.863 277.952L442.446 271.253L441.204 265.953L418.699 271.228L414.972 255.329L428.03 252.268L428.651 254.918L434.849 253.466L433.649 248.346L428.956 249.447L428.335 246.797L413.772 250.21L410.582 236.599L433.087 231.324Z" fill="#272727"/>
<path d="M519.913 245.693C519.513 243.805 519.302 241.895 519.28 239.962C519.248 237.988 519.216 236.015 519.184 234.041C519.193 232.057 518.977 230.127 518.537 228.249C518.147 226.402 517.476 224.642 516.525 222.97C515.573 221.298 514.626 219.647 513.684 218.016C512.732 216.344 512.055 214.65 511.653 212.935C511.242 211.18 511.283 209.792 511.776 208.772C512.31 207.742 513.482 206.865 515.293 206.139C517.103 205.413 519.744 204.643 523.213 203.83C526.438 203.074 529.458 202.732 532.274 202.805C535.081 202.836 537.442 203.445 539.356 204.633C541.302 205.771 542.572 207.605 543.165 210.137C543.481 211.484 543.372 212.672 542.838 213.702C542.295 214.691 541.411 215.329 540.186 215.616C539.247 215.836 538.446 215.722 537.781 215.275C537.148 214.777 536.578 214.092 536.072 213.22C535.557 212.307 534.996 211.384 534.389 210.449C533.814 209.464 533.11 208.574 532.278 207.778C531.436 206.942 530.376 206.372 529.099 206.068C527.854 205.714 526.292 205.757 524.414 206.197C522.373 206.676 520.903 207.753 520.004 209.428C519.095 211.062 518.88 212.9 519.358 214.941C519.846 217.024 520.52 218.61 521.378 219.701C522.268 220.741 523.254 221.458 524.336 221.85C525.45 222.192 526.607 222.352 527.807 222.329C529.039 222.255 530.241 222.146 531.412 222.001C532.615 221.805 533.715 221.719 534.711 221.744C535.739 221.719 536.605 221.925 537.311 222.362C538.047 222.75 538.555 223.535 538.832 224.719C539.129 225.985 538.966 227.035 538.343 227.87C537.762 228.696 537.022 229.214 536.124 229.424C534.981 229.692 533.741 229.638 532.404 229.262C531.108 228.877 529.814 228.319 528.523 227.588C527.273 226.847 526.1 226.067 525.003 225.247C523.938 224.377 523.045 223.596 522.323 222.904C521.632 222.161 521.232 221.652 521.125 221.375L520.88 221.433L523.808 233.926C524.344 236.212 524.877 238.305 525.409 240.205C525.94 242.105 526.639 243.707 527.504 245.012C528.36 246.275 529.512 247.147 530.959 247.626C532.438 248.055 534.381 247.987 536.79 247.422C538.3 247.068 539.392 246.49 540.064 245.686C540.769 244.832 541.26 243.898 541.54 242.885C541.809 241.831 542.059 240.782 542.288 239.738C542.557 238.684 542.967 237.77 543.518 236.994C544.099 236.169 545.064 235.598 546.411 235.283C547.84 234.948 549.103 235.104 550.202 235.751C551.333 236.347 552.037 237.237 552.314 238.421C552.716 240.136 552.357 241.728 551.237 243.196C550.108 244.624 548.38 245.89 546.056 246.995C543.74 248.141 540.991 249.087 537.807 249.833C534.541 250.598 531.848 251.143 529.728 251.468C527.608 251.793 525.894 251.828 524.586 251.575C523.318 251.312 522.315 250.707 521.577 249.761C520.879 248.804 520.324 247.448 519.913 245.693Z" fill="#272727"/>
<path d="M500.626 222.933C499.918 220.958 498.596 219.593 496.661 218.838C494.722 218.069 492.462 217.987 489.882 218.591C487.186 219.223 485.163 220.348 483.814 221.964C482.479 223.577 482.038 225.347 482.49 227.276C482.68 228.088 483.031 228.801 483.542 229.415C484.049 230.015 484.611 230.487 485.227 230.832C485.855 231.16 486.598 231.429 487.458 231.64C488.333 231.848 489.122 231.984 489.825 232.049C490.528 232.114 491.31 232.152 492.169 232.165L496.783 232.277C505.814 232.378 511.061 235.553 512.526 241.801C513.43 245.658 512.694 249.142 510.319 252.253C507.958 255.36 504.219 257.514 499.102 258.713C494.13 259.878 489.894 259.648 486.393 258.021C482.889 256.38 480.554 253.562 479.388 249.568L486.129 247.988C486.861 250.264 488.285 251.804 490.4 252.608C492.527 253.395 494.952 253.468 497.678 252.83C500.562 252.154 502.77 250.94 504.302 249.189C505.845 247.42 506.363 245.456 505.857 243.296C505.677 242.527 505.367 241.858 504.928 241.288C504.488 240.718 503.977 240.264 503.393 239.927C502.824 239.586 502.111 239.318 501.254 239.121C500.409 238.906 499.571 238.758 498.742 238.677C497.909 238.582 496.938 238.519 495.83 238.488L490.232 238.286C482.016 238.009 477.234 234.993 475.885 229.237C475.297 226.729 475.462 224.334 476.38 222.054C477.313 219.771 478.853 217.827 481 216.222C483.144 214.603 485.702 213.446 488.673 212.749C493.167 211.696 497.126 211.984 500.551 213.613C503.976 215.242 506.161 217.843 507.105 221.414L500.626 222.933Z" fill="#272727"/>
<path d="M586.734 190.408L597.174 234.947L590.998 236.395L560.707 209.035L560.294 209.132L567.95 241.797L561.231 243.372L550.792 198.833L557.011 197.375L587.334 224.773L587.747 224.676L580.081 191.968L586.734 190.408Z" fill="#272727"/>
<path d="M446.49 248.386C442.184 246.907 442.817 242.837 443.671 240.987C443.578 241.229 443.663 241.083 444.754 238.565C445.844 236.047 443.831 233.251 442.689 232.168C441.686 230.706 440.185 227.24 442.203 225.07C444.726 222.358 447.683 221.9 450.903 223.974C453.478 225.632 456.082 224.488 457.062 223.708C458.399 221.902 461.727 219.033 464.346 222.001C467.619 225.712 467.027 230.423 466.723 232.143C466.419 233.864 464.571 234.627 461.312 235.203C458.705 235.663 457.125 232.169 456.284 230.442C455.227 229.03 452.318 227.036 449.484 229.585C445.941 232.772 448.278 238.116 449.212 239.688C450.146 241.261 455.476 244.29 458.483 239.825C460.889 236.253 463.222 236.311 464.598 236.553C465.978 236.607 468.734 236.781 470.369 240.056C472.412 244.149 470.669 243.895 470.922 247.043C471.12 249.495 473.891 251.061 474.672 253.187C475.453 255.314 475.499 258.06 473.03 261.868C469.993 266.551 462.485 267.356 460.295 267.869C458.134 268.376 453.736 268.04 451.403 266.937C449.548 266.059 447.793 264.201 445.809 260.565C443.272 255.915 445.813 253.541 446.436 252.782C447.07 252.011 450.916 250.177 453.094 251.222C455.271 252.267 455.816 254.59 456.176 258.135C456.535 261.68 457.703 262.682 459.384 263.982C460.881 265.14 467.909 264.152 468.724 260.992C469.536 257.842 467.349 257.081 464.693 256.155L464.665 256.146C461.996 255.216 461.76 252.396 462.045 250.397C462.331 248.397 463.07 247.328 461.131 244.484C459.579 242.208 456.389 242.955 454.86 244.681C453.103 246.836 450.796 249.866 446.49 248.386Z" fill="#272727"/>
<mask id="mask1" mask-type="alpha" maskUnits="userSpaceOnUse" x="1336" y="279" width="351" height="224">
<rect x="1365.94" y="278.263" width="327.237" height="169.695" rx="6.6444" transform="rotate(10.2348 1365.94 278.263)" fill="#C4C4C4"/>
</mask>
<g mask="url(#mask1)">
<path d="M1688.77 823.059L1593.54 818.258C1541.83 934.061 1504.85 874.059 1444.99 887.042C1385.13 900.026 1398.7 842.571 1398.15 800.407C1397.61 758.242 1364.22 775.227 1342.28 818.925C1320.35 862.623 1301.94 857.428 1305.57 817.074C1309.21 776.72 1277.03 759.096 1252.91 740.279C1228.79 721.461 1171.44 774.365 1208.21 812.166C1229.36 833.905 1270.7 884.656 1205.45 866.965C1140.2 849.274 1157.9 847.499 1168.84 810.181C1179.79 772.863 1140.9 779.436 1179.49 736.577C1214.78 697.376 1195.09 712.828 1224.76 695.655C1254.42 678.483 1343.05 697.886 1282.07 659.075C1221.09 620.264 1247.35 617.854 1248.79 589.124C1250.24 560.395 1241.32 525.808 1193.95 449.813C1146.57 373.818 1093.42 454.879 1079.44 425.371C1065.46 395.864 1196.92 390.757 1074.89 304.064C952.846 217.371 1134.61 166.797 1177.63 149.23C1220.65 131.662 1223.64 114.746 1211.95 92.8196C1200.25 70.8934 1184.6 32.2376 1267.45 7.61191C1350.29 -17.0137 1347.58 36.7213 1358.31 77.7993C1369.04 118.877 1351.26 143.581 1353.27 177.821C1355.28 212.061 1367.05 168.915 1386.79 168.843C1406.53 168.772 1403.18 235.276 1442.65 182.327C1482.12 129.379 1458.01 163.364 1523.11 152.245C1588.21 141.126 1540.26 97.6381 1590.74 111.918C1641.23 126.198 1674.21 127.861 1723.83 127.695C1773.44 127.53 1770.64 140.723 1767.13 210.419C1763.61 280.115 1839.24 271.662 1865.62 245.79C1891.99 219.917 1891.7 267.905 1911.46 299.304C1931.21 330.703 1958.55 275.009 2015.49 320.017C2072.42 365.025 1974.61 369.161 1905.04 426.459C1835.48 483.758 1883.46 516.046 1862.2 599.248C1840.93 682.451 1770.61 712.509 1740.41 740.322C1710.2 768.135 1737.71 825.527 1688.77 823.059Z" fill="#F8F5E8"/>
<path d="M1322.11 506.284C1378.32 560.329 1302.58 605.378 1257.69 621.147C1213.31 618.909 1213.94 648.093 1227.75 654.499C1241.56 660.905 1277.49 657.908 1275.63 694.781C1273.77 731.653 1311.32 720.323 1313.29 681.352C1315.25 642.381 1344.9 698.273 1362.3 722.893C1379.7 747.513 1390.84 711.409 1398.76 685.661C1406.67 659.913 1420.78 702.099 1441.48 679.1C1462.18 656.1 1449.05 719.753 1461.57 727.898C1474.09 736.042 1484.66 681.277 1521.24 707.164C1557.82 733.051 1551.64 706.593 1568.04 685.48C1584.43 664.368 1632.69 691.144 1639.19 669.533C1645.7 647.922 1648.4 594.262 1668.98 621.446C1689.56 648.63 1723.26 576.398 1731.17 526.907C1739.08 477.417 1740.08 475.363 1750.25 470.466C1760.42 465.57 1781.58 427.566 1808.8 424.431C1836.01 421.295 1841.43 379.493 1802.62 332.155C1763.82 284.818 1798.33 309.999 1843.71 334.227C1889.09 358.454 1823.14 295.021 1789.82 264.189C1756.49 233.357 1747.34 247.922 1710.61 266.807C1673.88 285.693 1654.75 235.741 1618.68 217.693C1582.61 199.645 1572.63 206.656 1539.89 229.95C1507.15 253.243 1518.74 220.168 1492.51 227.561C1466.28 234.954 1453 253.819 1456.01 194.165C1459.01 134.512 1339.57 160.044 1328.82 158.601C1318.07 157.157 1253.77 162.33 1273.37 184.957C1292.98 207.584 1289.02 196.565 1270.7 238.016C1252.37 279.468 1237.32 184.341 1212.54 204.73C1187.76 225.119 1194.61 238.388 1167.99 313.082C1141.38 387.776 1173.64 374.075 1247.82 411.475C1322 448.875 1251.86 438.727 1322.11 506.284Z" fill="#9897DE"/>
<path d="M1622.24 637.113L1568.58 634.408C1539.43 699.758 1518.6 665.9 1484.87 673.229C1451.14 680.558 1458.78 648.136 1458.48 624.342C1458.18 600.548 1439.36 610.134 1426.99 634.794C1414.63 659.454 1404.26 656.523 1406.31 633.751C1408.36 610.979 1390.22 601.035 1376.63 590.417C1363.04 579.8 1330.72 609.655 1351.45 630.985C1363.36 643.252 1386.65 671.889 1349.89 661.909C1313.12 651.928 1323.09 650.926 1329.26 629.867C1335.43 608.807 1313.52 612.518 1335.26 588.332C1355.15 566.209 1344.05 574.929 1360.77 565.237C1377.49 555.546 1427.43 566.491 1393.07 544.593C1358.71 522.694 1373.5 521.333 1374.32 505.12C1375.14 488.908 1370.11 469.391 1343.42 426.509C1316.73 383.626 1286.77 429.371 1278.89 412.721C1271.02 396.07 1345.1 393.183 1276.33 344.267C1207.57 295.35 1309.99 266.804 1334.24 256.889C1358.48 246.974 1360.17 237.428 1353.58 225.055C1346.99 212.683 1338.17 190.87 1384.86 176.97C1431.54 163.07 1430.01 193.393 1436.06 216.574C1442.1 239.754 1432.08 253.695 1433.21 273.016C1434.34 292.338 1440.98 267.99 1452.1 267.949C1463.23 267.908 1461.33 305.436 1483.58 275.556C1505.82 245.675 1492.23 264.854 1528.92 258.577C1565.6 252.3 1538.59 227.761 1567.03 235.817C1595.48 243.873 1614.07 244.811 1642.03 244.715C1669.98 244.62 1668.41 252.065 1666.42 291.395C1664.44 330.725 1707.06 325.952 1721.92 311.351C1736.78 296.75 1736.62 323.83 1747.75 341.547C1758.88 359.265 1774.29 327.836 1806.37 353.232C1838.45 378.627 1783.33 380.965 1744.13 413.302C1704.93 445.638 1731.97 463.857 1719.98 510.809C1708 557.761 1668.37 574.726 1651.35 590.422C1634.32 606.118 1649.82 638.504 1622.24 637.113Z" fill="#F8F5E8"/>
<path d="M1340.24 283.692C1326.69 278.157 1312.76 291.352 1307.48 298.642C1296.43 314.685 1296.28 355.86 1320.09 353.23C1343.9 350.599 1355.15 375.11 1395.08 389.254C1435 403.398 1415.72 417.75 1407.41 411.265C1399.09 404.78 1400.7 410.927 1388.15 431.365C1375.6 451.802 1377.06 473.585 1403.15 495.651C1429.24 517.717 1424.27 502.142 1460.41 521.523C1496.55 540.904 1458.15 566.423 1445.04 585.236C1431.93 604.049 1487.21 611.944 1483.28 582.056C1479.34 552.168 1507.03 574.314 1526.78 537.959C1546.54 501.603 1550.86 549.069 1570.06 555.464C1589.26 561.86 1578.54 605.239 1604.35 624.235C1629.96 643.085 1600.11 575.176 1659.39 554.541C1689.2 544.163 1720.55 509.418 1718.92 452.83C1717.29 396.241 1742.49 404.216 1740.28 378.246C1738.07 352.275 1674.15 357.034 1653.8 310.036C1633.44 263.039 1631.03 241.208 1585.44 250.403C1539.86 259.597 1553.58 266.674 1511.78 283.402C1469.97 300.13 1485.93 313.704 1466.85 317.531C1447.78 321.358 1447.32 298.669 1431.1 284.123C1414.87 269.577 1432.86 261.865 1422.66 254.646C1412.47 247.428 1412.2 240.072 1418.49 223.15C1424.78 206.228 1410.31 188.579 1393.37 207.199C1376.44 225.819 1386.15 242.59 1375.01 254.159C1363.86 265.729 1367.79 270.396 1367.69 285.076C1367.59 299.756 1357.17 290.611 1340.24 283.692Z" fill="#9897DE"/>
<path d="M1485.33 333.761C1472.48 324.17 1463.24 327.004 1460.22 329.62C1447.58 326.108 1436.62 308.309 1428.2 290.956C1419.79 273.603 1415.05 278.474 1401.65 264.703C1388.24 250.931 1391.47 269.619 1378.71 281.113C1365.95 292.607 1370.25 296.339 1362.77 311.291C1355.29 326.244 1353.8 304.771 1336.18 292.066C1318.55 279.361 1325.95 304.325 1317.94 317.016C1309.93 329.708 1335.48 344.091 1356.38 348.978C1377.29 353.865 1389.33 362.777 1396.04 375.891C1402.75 389.006 1415.38 386.448 1439.05 380.934C1462.72 375.42 1449.53 395.516 1453.64 403.069C1457.74 410.623 1445.52 411.603 1434.09 415.818C1422.66 420.033 1436.48 425.521 1430.04 438.93C1423.59 452.34 1425.81 414.762 1416.86 427.087C1407.9 439.411 1420.04 459.187 1446.74 450.951C1473.43 442.715 1474.53 465.448 1501.25 456.574C1527.97 447.701 1515.46 467.192 1531.5 479.499C1547.54 491.807 1515.9 496.599 1493.64 518.474C1471.39 540.349 1503.85 538.472 1538.59 510.519C1573.32 482.566 1567.72 511.03 1618.96 511.697C1670.2 512.364 1645.88 486.224 1650.32 455.466C1654.75 424.708 1671.41 424.909 1649.95 405.621C1628.49 386.333 1634.4 389.825 1625.87 374.702C1617.34 359.58 1638.03 330.599 1608.69 346.687C1579.36 362.776 1584.27 348.011 1572.89 344.882C1561.52 341.754 1563.87 320.474 1565.55 306.186C1567.23 291.897 1541.44 288.68 1540.43 302.364C1539.42 316.047 1516.63 323.202 1510.41 332.15C1504.19 341.098 1501.39 345.749 1485.33 333.761Z" fill="#F8F5E8"/>
<path d="M1399.68 341.235C1378.72 336.325 1369.11 328.884 1366.92 325.778C1345.5 319.817 1352.44 332.217 1358.58 339.162C1364.85 339.478 1381.78 341.488 1399.39 346.999C1421.4 353.888 1410.99 370.379 1426.12 367.931C1441.26 365.484 1459.19 383.725 1463.37 395.814C1467.55 407.904 1404.41 443.889 1460.99 442.89C1517.58 441.89 1540.7 452.045 1552.69 461.318C1564.68 470.591 1558.94 483.144 1591.29 494.085C1623.64 505.027 1577.09 446.175 1603.81 442.064C1630.53 437.953 1640.04 420.453 1615.45 407.656C1590.86 394.858 1638.66 359.062 1601.99 376.798C1565.32 394.534 1571.09 349.877 1559.04 335.464C1546.99 321.051 1550.14 283.967 1518.9 333.44C1487.65 382.912 1491.54 343.94 1470.83 342.896C1450.12 341.851 1446.66 321.771 1428.63 318.294C1410.6 314.816 1425.88 347.371 1399.68 341.235Z" fill="#9897DE"/>
<path d="M1513.11 352.985C1494.38 374.518 1477.24 360.542 1471.02 350.863C1466.5 345.303 1460.87 343.007 1442.69 342.091C1424.52 341.175 1425.72 361.67 1453.76 376.174C1481.8 390.678 1478.83 386.059 1468.26 405.64C1457.68 425.222 1461.21 450.304 1512.46 435.646C1563.7 420.989 1549.39 451.238 1571.07 471.487C1592.74 491.737 1591.71 442.516 1580.14 424.691C1568.57 406.867 1614.8 415.583 1581.83 391.252C1548.85 366.92 1566.36 387.279 1554.61 347.734C1542.86 308.189 1536.52 326.068 1513.11 352.985Z" fill="#F8F5E8"/>
<path d="M1498.95 411.9C1469.8 416.818 1475.9 406.16 1482.59 400.217C1495.06 393.818 1475.63 392.52 1455.36 363.394C1439.15 340.093 1457.9 351.173 1469.3 359.626C1476.16 367.104 1496.03 378.538 1520.52 364.444C1545.01 350.349 1543.62 364.757 1539.87 373.723C1535.26 374.342 1529.24 381.746 1542.06 406.408C1554.88 431.071 1541.41 425.538 1533.08 419.688C1533.84 415.043 1528.09 406.982 1498.95 411.9Z" fill="#9897DE"/>
<path d="M1439.47 357.55L1440.59 351.163L1405.75 345.065L1396.11 400.125L1430.95 406.223L1432.08 399.762L1404.65 394.961L1408.04 375.58L1423.96 378.366L1423.39 381.596L1430.95 382.918L1432.04 376.678L1426.32 375.677L1426.88 372.447L1409.13 369.34L1412.04 352.749L1439.47 357.55Z" fill="#272727"/>
<path d="M1528.88 414.545C1529.33 412.264 1530 410.048 1530.89 407.895C1531.79 405.693 1532.69 403.491 1533.59 401.289C1534.54 399.095 1535.21 396.854 1535.61 394.564C1536.05 392.333 1536.14 390.067 1535.88 387.764C1535.62 385.461 1535.35 383.182 1535.07 380.929C1534.81 378.626 1534.86 376.43 1535.23 374.339C1535.6 372.199 1536.3 370.681 1537.33 369.784C1538.41 368.895 1540.13 368.477 1542.48 368.529C1544.83 368.582 1548.12 368.978 1552.34 369.718C1556.28 370.406 1559.78 371.456 1562.87 372.868C1565.97 374.23 1568.29 376.023 1569.85 378.245C1571.47 380.426 1572.01 383.059 1571.47 386.145C1571.18 387.787 1570.5 389.052 1569.42 389.941C1568.35 390.779 1567.07 391.068 1565.58 390.807C1564.43 390.607 1563.6 390.101 1563.07 389.291C1562.61 388.44 1562.3 387.412 1562.15 386.207C1562.01 384.951 1561.83 383.662 1561.6 382.34C1561.43 380.976 1561.07 379.656 1560.52 378.381C1559.98 377.056 1559.08 375.923 1557.81 374.983C1556.6 374.001 1554.84 373.31 1552.56 372.909C1550.07 372.474 1547.93 372.972 1546.14 374.403C1544.36 375.784 1543.25 377.718 1542.82 380.207C1542.37 382.745 1542.37 384.822 1542.8 386.436C1543.3 388.01 1544.05 389.271 1545.06 390.218C1546.14 391.123 1547.34 391.847 1548.68 392.39C1550.08 392.891 1551.47 393.338 1552.83 393.732C1554.26 394.084 1555.52 394.509 1556.61 395.008C1557.76 395.466 1558.62 396.104 1559.2 396.923C1559.83 397.7 1560.02 398.811 1559.77 400.254C1559.5 401.797 1558.82 402.884 1557.74 403.515C1556.7 404.154 1555.64 404.378 1554.54 404.187C1553.15 403.943 1551.8 403.296 1550.5 402.248C1549.24 401.207 1548.07 399.977 1546.99 398.556C1545.96 397.144 1545.02 395.724 1544.2 394.297C1543.43 392.829 1542.81 391.541 1542.33 390.432C1541.92 389.283 1541.72 388.529 1541.73 388.172L1541.43 388.12L1538.77 403.349C1538.28 406.136 1537.88 408.708 1537.57 411.064C1537.26 413.421 1537.28 415.527 1537.62 417.382C1537.97 419.187 1538.83 420.697 1540.21 421.913C1541.65 423.087 1543.83 423.932 1546.77 424.445C1548.61 424.768 1550.09 424.643 1551.22 424.07C1552.4 423.457 1553.39 422.655 1554.18 421.664C1554.97 420.624 1555.75 419.58 1556.49 418.531C1557.29 417.491 1558.18 416.671 1559.16 416.073C1560.19 415.433 1561.53 415.257 1563.17 415.545C1564.91 415.849 1566.24 416.62 1567.15 417.857C1568.12 419.053 1568.48 420.372 1568.23 421.815C1567.86 423.906 1566.71 425.499 1564.78 426.597C1562.85 427.644 1560.34 428.231 1557.24 428.355C1554.13 428.529 1550.64 428.277 1546.75 427.598C1542.77 426.901 1539.53 426.231 1537.03 425.588C1534.53 424.945 1532.61 424.173 1531.28 423.274C1530 422.383 1529.17 421.238 1528.8 419.84C1528.48 418.45 1528.51 416.685 1528.88 414.545Z" fill="#272727"/>
<path d="M1518.28 380.204C1518.43 377.68 1517.61 375.542 1515.82 373.791C1514.04 372.021 1511.57 370.861 1508.43 370.311C1505.14 369.735 1502.37 370.024 1500.11 371.177C1497.87 372.333 1496.54 374.086 1496.13 376.437C1495.96 377.426 1496.01 378.382 1496.28 379.305C1496.56 380.21 1496.96 380.999 1497.48 381.673C1498.02 382.332 1498.72 382.982 1499.57 383.623C1500.44 384.268 1501.25 384.792 1502 385.196C1502.75 385.6 1503.59 386.013 1504.54 386.433L1509.6 388.74C1519.56 393.124 1523.87 399.124 1522.54 406.742C1521.72 411.443 1519.25 414.955 1515.15 417.279C1511.06 419.605 1505.9 420.223 1499.67 419.131C1493.6 418.071 1489.02 415.811 1485.91 412.352C1482.8 408.876 1481.55 404.649 1482.15 399.672L1490.36 401.11C1490.1 403.978 1490.95 406.358 1492.91 408.25C1494.89 410.127 1497.55 411.357 1500.87 411.938C1504.39 412.553 1507.41 412.253 1509.93 411.038C1512.48 409.808 1513.98 407.876 1514.44 405.243C1514.61 404.306 1514.58 403.418 1514.36 402.578C1514.15 401.739 1513.79 400.994 1513.31 400.344C1512.84 399.697 1512.17 399.062 1511.32 398.439C1510.48 397.801 1509.62 397.241 1508.74 396.759C1507.87 396.259 1506.82 395.73 1505.61 395.172L1499.5 392.299C1490.53 388.106 1486.65 382.501 1487.88 375.485C1488.42 372.428 1489.73 369.853 1491.83 367.761C1493.94 365.672 1496.57 364.246 1499.71 363.484C1502.85 362.704 1506.23 362.631 1509.85 363.265C1515.33 364.224 1519.58 366.416 1522.61 369.841C1525.63 373.267 1526.82 377.182 1526.18 381.586L1518.28 380.204Z" fill="#272727"/>
<path d="M1629.08 384.896L1619.58 439.188L1612.05 437.871L1591.43 393.224L1590.93 393.136L1583.96 432.954L1575.77 431.52L1585.27 377.228L1592.85 378.555L1613.49 423.259L1614 423.347L1620.97 383.476L1629.08 384.896Z" fill="#272727"/>
<path d="M1446.25 382.799C1442.18 379.122 1444.81 374.912 1446.63 373.266C1446.41 373.49 1446.58 373.369 1448.98 371.094C1451.38 368.82 1450.47 364.769 1449.71 363.028C1449.29 360.934 1449.27 356.384 1452.53 354.934C1456.61 353.122 1460.1 354.014 1462.69 357.834C1464.76 360.891 1468.19 360.854 1469.64 360.454C1471.98 359.085 1477.02 357.48 1478.52 362.008C1480.39 367.668 1477.51 372.608 1476.36 374.371C1475.21 376.134 1472.8 376.106 1468.92 375.201C1465.81 374.478 1465.71 369.859 1465.6 367.548C1465.09 365.483 1462.81 361.897 1458.47 363.381C1453.03 365.237 1453.09 372.264 1453.39 374.448C1453.68 376.632 1458.15 382.511 1463.59 378.985C1467.95 376.165 1470.51 377.332 1471.92 378.253C1473.42 378.965 1476.39 380.462 1476.66 384.864C1476.98 390.366 1475.17 389.26 1473.96 392.868C1473.02 395.679 1475.35 398.725 1475.21 401.45C1475.07 404.176 1473.82 407.241 1469.29 410.293C1463.7 414.046 1455 411.386 1452.34 410.918C1449.7 410.457 1444.99 408.004 1442.92 405.679C1441.28 403.829 1440.22 400.939 1439.74 395.972C1439.13 389.619 1443.06 388.19 1444.11 387.645C1445.18 387.089 1450.31 386.877 1452.23 389.065C1454.15 391.253 1453.65 394.085 1452.37 398.183C1451.1 402.282 1451.92 403.943 1453.16 406.18C1454.28 408.171 1462.53 410.401 1464.93 407.285C1467.32 404.179 1465.26 402.3 1462.75 400.018L1462.72 399.995C1460.21 397.702 1461.28 394.465 1462.54 392.385C1463.8 390.304 1465.13 389.47 1464.32 385.4C1463.68 382.144 1459.79 381.463 1457.28 382.652C1454.32 384.209 1450.33 386.475 1446.25 382.799Z" fill="#272727"/>
</g>
<rect x="625.664" y="357.64" width="590.186" height="172.972" rx="86.4862" transform="rotate(-5.78065 625.664 357.64)" fill="#F8F5E8"/>
<path d="M761.31 385.61L759.941 372.087L686.259 379.546L698.061 496.125L771.743 488.666L770.358 474.988L712.343 480.861L708.189 439.825L741.85 436.417L742.542 443.257L758.52 441.639L757.182 428.427L745.083 429.652L744.39 422.812L706.851 426.613L703.295 391.483L761.31 385.61Z" fill="#FFCC11"/>
<path d="M973.956 449.899C973.571 445.043 973.665 440.192 974.237 435.345C974.799 430.393 975.361 425.441 975.923 420.49C976.591 415.527 976.679 410.623 976.189 405.778C975.814 401.027 974.708 396.404 972.87 391.908C971.033 387.412 969.201 382.968 967.374 378.578C965.536 374.081 964.394 369.621 963.946 365.197C963.487 360.668 964.041 357.207 965.606 354.814C967.277 352.41 970.496 350.594 975.263 349.367C980.03 348.139 986.887 347.073 995.834 346.167C1004.15 345.325 1011.82 345.453 1018.84 346.551C1025.85 347.544 1031.56 349.839 1035.97 353.437C1040.47 356.919 1043.05 361.925 1043.71 368.456C1044.06 371.932 1043.4 374.871 1041.73 377.275C1040.05 379.574 1037.63 380.883 1034.47 381.202C1032.05 381.447 1030.08 380.902 1028.56 379.566C1027.14 378.114 1025.94 376.214 1024.96 373.866C1023.96 371.412 1022.86 368.917 1021.65 366.379C1020.53 363.726 1019.06 361.268 1017.23 359.005C1015.4 356.637 1012.93 354.865 1009.83 353.688C1006.83 352.396 1002.91 351.995 998.069 352.485C992.806 353.018 988.777 355.235 985.982 359.136C983.176 362.932 982.04 367.463 982.573 372.729C983.117 378.101 984.285 382.293 986.079 385.303C987.967 388.198 990.201 390.313 992.782 391.648C995.458 392.867 998.301 393.643 1001.31 393.977C1004.42 394.194 1007.46 394.312 1010.44 394.33C1013.51 394.231 1016.29 394.376 1018.78 394.762C1021.36 395.033 1023.46 395.832 1025.08 397.157C1026.8 398.367 1027.81 400.499 1028.12 403.553C1028.45 406.819 1027.7 409.395 1025.87 411.283C1024.15 413.16 1022.13 414.216 1019.81 414.45C1016.87 414.749 1013.78 414.21 1010.56 412.833C1007.44 411.446 1004.39 409.627 1001.39 407.376C998.505 405.115 995.823 402.779 993.346 400.37C990.964 397.844 988.982 395.597 987.4 393.629C985.913 391.545 985.08 390.14 984.9 389.413L984.268 389.477L987.531 421.709C988.128 427.607 988.783 433.021 989.494 437.951C990.206 442.88 991.433 447.119 993.174 450.667C994.905 454.109 997.503 456.666 1000.97 458.337C1004.53 459.892 1009.41 460.355 1015.62 459.727C1019.52 459.333 1022.44 458.239 1024.38 456.446C1026.42 454.537 1027.96 452.36 1028.99 449.914C1030 447.364 1030.97 444.819 1031.88 442.279C1032.9 439.728 1034.22 437.572 1035.85 435.811C1037.58 433.934 1040.18 432.82 1043.65 432.468C1047.33 432.095 1050.45 432.898 1052.98 434.875C1055.62 436.737 1057.09 439.195 1057.4 442.249C1057.85 446.673 1056.43 450.541 1053.15 453.853C1049.86 457.059 1045.13 459.666 1038.95 461.675C1032.78 463.789 1025.6 465.262 1017.39 466.093C1008.96 466.945 1002.05 467.433 996.639 467.555C991.228 467.677 986.927 467.208 983.736 466.147C980.65 465.076 978.337 463.236 976.796 460.625C975.361 458.003 974.415 454.428 973.956 449.899Z" fill="#4AB15E"/>
<path d="M933.099 386.629C931.97 381.455 929.105 377.608 924.502 375.09C919.896 372.534 914.263 371.593 907.602 372.268C900.642 372.972 895.209 375.128 891.302 378.734C887.433 382.337 885.75 386.625 886.253 391.598C886.465 393.692 887.111 395.591 888.191 397.295C889.267 398.961 890.52 400.326 891.951 401.39C893.415 402.413 895.19 403.329 897.276 404.138C899.399 404.943 901.331 405.54 903.071 405.931C904.812 406.321 906.757 406.672 908.905 406.983L920.426 408.764C943.015 411.954 955.126 421.607 956.757 437.723C957.764 447.669 954.786 456.149 947.821 463.163C940.895 470.172 930.827 474.346 917.618 475.683C904.783 476.983 894.246 475.027 886.006 469.817C877.763 464.57 872.833 456.759 871.215 446.383L888.616 444.622C889.708 450.555 892.772 454.872 897.809 457.573C902.879 460.233 908.932 461.207 915.967 460.495C923.413 459.741 929.34 457.422 933.748 453.538C938.19 449.613 940.128 444.865 939.564 439.294C939.364 437.312 938.806 435.536 937.891 433.967C936.976 432.397 935.843 431.096 934.49 430.061C933.176 429.024 931.477 428.119 929.396 427.347C927.348 426.535 925.298 425.892 923.247 425.42C921.191 424.91 918.781 424.437 916.015 423.999L902.056 421.672C881.567 418.307 870.57 409.202 869.067 394.358C868.413 387.889 869.607 381.95 872.651 376.543C875.732 371.131 880.224 366.767 886.125 363.449C892.023 360.095 898.808 358.029 906.479 357.253C918.079 356.078 927.903 358.087 935.952 363.278C944 368.47 948.625 375.689 949.826 384.935L933.099 386.629Z" fill="#FF6242"/>
<path d="M1158.03 333.316L1169.65 448.129L1153.74 449.74L1086.89 371.44L1085.83 371.548L1094.35 455.752L1077.04 457.504L1065.42 342.691L1081.44 341.069L1148.36 419.475L1149.42 419.367L1140.88 335.052L1158.03 333.316Z" fill="#272727"/>
<path d="M789.26 432.62C778.954 427.522 781.868 417.549 784.613 413.2C784.3 413.775 784.561 413.438 788.115 407.495C791.669 401.552 787.538 393.906 785.029 390.826C782.994 386.844 780.366 377.689 786.13 372.918C793.334 366.954 800.891 366.771 808.282 373.002C814.194 377.986 821.092 375.97 823.802 374.338C827.739 370.256 837.013 364.161 842.606 372.435C849.597 382.777 846.574 394.365 845.252 398.57C843.929 402.775 839.05 404.083 830.697 404.464C824.015 404.768 821.196 395.517 819.653 390.926C817.467 387.051 810.829 381.118 802.896 386.574C792.981 393.394 797.091 407.517 798.918 411.752C800.746 415.987 813.11 425.295 822.101 415.105C829.294 406.952 835.12 407.854 838.49 408.909C841.929 409.491 848.777 410.822 851.804 419.542C855.588 430.441 851.302 429.241 850.91 437.196C850.605 443.391 857.037 448.207 858.3 453.779C859.563 459.35 858.782 466.232 851.353 474.954C842.216 485.68 823.142 485.254 817.489 485.826C811.909 486.391 801 484.122 795.516 480.606C791.154 477.81 787.362 472.592 783.58 462.855C778.741 450.402 785.88 445.291 787.69 443.596C789.532 441.871 799.765 438.535 804.88 441.856C809.994 445.176 810.6 451.163 810.344 460.146C810.088 469.128 812.686 472.011 816.475 475.809C819.848 479.19 837.777 479.003 840.85 471.364C843.912 463.751 838.683 461.137 832.329 457.959L832.264 457.927C825.88 454.734 826.207 447.606 827.575 442.699C828.943 437.791 831.144 435.358 827.214 427.614C824.069 421.419 815.832 422.253 811.44 426.071C806.334 430.891 799.566 437.718 789.26 432.62Z" fill="#9897DE"/>
<circle cx="1247.44" cy="247.493" r="27.9279" transform="rotate(-19.6755 1247.44 247.493)" fill="#FFCC11"/>
<circle cx="1300.03" cy="228.688" r="27.9279" transform="rotate(-19.6755 1300.03 228.688)" fill="#FFCC11"/>
<circle cx="1228.63" cy="194.899" r="27.9279" transform="rotate(-19.6755 1228.63 194.899)" fill="#FFCC11"/>
<circle cx="1281.22" cy="176.092" r="27.9279" transform="rotate(-19.6755 1281.22 176.092)" fill="#FFCC11"/>
<circle cx="635.564" cy="312.655" r="22.6975" transform="rotate(17.5154 635.564 312.655)" fill="#4AB15E"/>
<circle cx="678.855" cy="326.317" r="22.6975" transform="rotate(17.5154 678.855 326.317)" fill="#4AB15E"/>
<circle cx="649.226" cy="269.364" r="22.6975" transform="rotate(17.5154 649.226 269.364)" fill="#4AB15E"/>
<circle cx="692.517" cy="283.027" r="22.6975" transform="rotate(17.5154 692.517 283.027)" fill="#4AB15E"/>
<circle cx="664.079" cy="297.912" r="22.6975" transform="rotate(17.5154 664.079 297.912)" fill="#4AB15E"/>
<circle cx="1543.58" cy="129.619" r="41.7937" transform="rotate(-11.2995 1543.58 129.619)" fill="#FF6242"/>
<circle cx="1625.55" cy="113.241" r="41.7937" transform="rotate(-11.2995 1625.55 113.241)" fill="#FF6242"/>
<circle cx="1527.2" cy="47.6528" r="41.7937" transform="rotate(-11.2995 1527.2 47.6528)" fill="#FF6242"/>
<circle cx="1609.17" cy="31.2749" r="41.7937" transform="rotate(-11.2995 1609.17 31.2749)" fill="#FF6242"/>
<circle cx="1576.5" cy="80.529" r="41.7937" transform="rotate(-11.2995 1576.5 80.529)" fill="#FF6242"/>
<path fill-rule="evenodd" clip-rule="evenodd" d="M1245.34 688.733C1289.89 688.733 1326 652.624 1326 608.081C1326 563.537 1289.89 527.428 1245.34 527.428C1200.8 527.428 1164.69 563.537 1164.69 608.081C1164.69 652.624 1200.8 688.733 1245.34 688.733ZM1249.01 598.383C1247.89 595.349 1243.6 595.349 1242.48 598.383C1241.9 599.956 1240.28 600.892 1238.63 600.607C1235.44 600.059 1233.3 603.775 1235.37 606.26C1236.44 607.549 1236.44 609.42 1235.37 610.709C1233.3 613.194 1235.44 616.91 1238.63 616.361C1240.28 616.077 1241.9 617.013 1242.48 618.586C1243.6 621.619 1247.89 621.619 1249.01 618.586C1249.59 617.013 1251.21 616.077 1252.86 616.361C1256.05 616.91 1258.2 613.194 1256.13 610.709C1255.05 609.42 1255.05 607.549 1256.13 606.26C1258.2 603.775 1256.05 600.059 1252.86 600.607C1251.21 600.892 1249.59 599.956 1249.01 598.383Z" fill="#4AB15E"/>
<circle cx="551.035" cy="446.154" r="68.2252" fill="#9897DE"/>
<path fill-rule="evenodd" clip-rule="evenodd" d="M494.943 423.131C496.976 418.184 499.645 413.564 502.847 409.375L551.096 446.153L494.943 423.131ZM491.008 437.666L551.096 446.153L490.932 454.082C490.593 451.487 490.418 448.841 490.418 446.154C490.418 443.273 490.619 440.439 491.008 437.666ZM494.723 468.634L551.096 446.153L502.947 483.063C499.583 478.687 496.803 473.839 494.723 468.634ZM514.029 494.168L551.096 446.153L527.945 502.218C522.933 500.152 518.259 497.433 514.029 494.168ZM542.423 506.163L551.096 446.153L559.079 506.241C556.447 506.59 553.762 506.77 551.034 506.77C548.111 506.77 545.236 506.564 542.423 506.163ZM573.918 502.303L551.096 446.153L587.905 494.272C583.652 497.535 578.954 500.248 573.918 502.303ZM599.174 482.995L551.096 446.153L607.238 468.901C605.182 473.977 602.457 478.712 599.174 482.995ZM611.105 454.325L551.096 446.153L611.085 437.837C611.458 440.556 611.651 443.332 611.651 446.154C611.651 448.925 611.465 451.653 611.105 454.325ZM607.395 423.797L551.096 446.153L599.228 409.383C602.571 413.758 605.332 418.601 607.395 423.797ZM587.992 398.104L551.096 446.153L573.582 389.87C578.78 391.954 583.622 394.737 587.992 398.104ZM559.089 386.068L551.096 446.153L543.046 386.059C545.66 385.715 548.327 385.538 551.034 385.538C553.765 385.538 556.454 385.718 559.089 386.068ZM528.016 390.061C522.979 392.13 518.282 394.858 514.032 398.138L551.096 446.153L528.016 390.061Z" fill="#FF6242"/>
<circle cx="1483.23" cy="746.225" r="68.2252" fill="#FECE30"/>
<path fill-rule="evenodd" clip-rule="evenodd" d="M1427.13 723.203C1429.17 718.255 1431.83 713.636 1435.04 709.446L1483.29 746.225L1427.13 723.203ZM1423.2 737.737L1483.29 746.225L1423.12 754.153C1422.78 751.559 1422.61 748.912 1422.61 746.225C1422.61 743.344 1422.81 740.511 1423.2 737.737ZM1426.91 768.706L1483.29 746.225L1435.14 783.135C1431.77 778.758 1428.99 773.91 1426.91 768.706ZM1446.22 794.239L1483.29 746.225L1460.14 802.289C1455.12 800.223 1450.45 797.504 1446.22 794.239ZM1474.61 806.235L1483.29 746.225L1491.27 806.313C1488.64 806.662 1485.95 806.842 1483.22 806.842C1480.3 806.842 1477.43 806.635 1474.61 806.235ZM1506.11 802.374L1483.29 746.225L1520.1 794.343C1515.84 797.607 1511.14 800.319 1506.11 802.374ZM1531.36 783.067L1483.29 746.225L1539.43 768.972C1537.37 774.049 1534.65 778.783 1531.36 783.067ZM1543.3 754.397L1483.29 746.225L1543.28 737.908C1543.65 740.627 1543.84 743.404 1543.84 746.225C1543.84 748.996 1543.66 751.724 1543.3 754.397ZM1539.59 723.869L1483.29 746.225L1531.42 709.454C1534.76 713.829 1537.52 718.672 1539.59 723.869ZM1520.18 698.175L1483.29 746.225L1505.77 689.941C1510.97 692.025 1515.81 694.809 1520.18 698.175ZM1491.28 686.139L1483.29 746.225L1475.24 686.131C1477.85 685.786 1480.52 685.609 1483.22 685.609C1485.96 685.609 1488.64 685.789 1491.28 686.139ZM1460.21 690.132C1455.17 692.201 1450.47 694.93 1446.22 698.209L1483.29 746.225L1460.21 690.132Z" fill="#FF6242"/>
<circle cx="1007.04" cy="234.396" r="80.3677" transform="rotate(12.3201 1007.04 234.396)" fill="#FF6242"/>
<path d="M1006.03 182.663L975.32 175.956L953.276 276.887L1038.19 295.432L1059.29 198.827C1055.54 193.174 1049.99 189.545 1043.5 188.128C1029.66 185.105 1021.29 193.7 1018.45 206.677C1016.57 215.328 1017.6 227.186 1018.23 236.084L1017.76 236.134C1016.41 217.41 1011.18 200.557 1006.03 182.663ZM968.638 275.71L989.737 179.105L1020.25 286.982L968.638 275.71ZM1022.08 214.268C1023.82 206.337 1029.14 199.947 1037.93 201.867C1048.75 204.229 1050.81 216.915 1048.79 226.143L1035.63 286.413C1030.3 268.632 1018.24 231.858 1022.08 214.268Z" fill="#FECE30"/>
<circle cx="855.149" cy="616.55" r="80.3677" transform="rotate(19.9934 855.149 616.55)" fill="#FECE30"/>
<path d="M808.276 603.689C800.213 633.526 818.9 659.919 849.414 668.165C861.916 671.543 876.938 671.997 886.213 669.168L907.314 591.083C900.741 579.644 887.302 572.263 874.935 568.921C843.614 560.457 816.012 575.063 808.276 603.689ZM831.392 592.342C834.914 579.306 855.513 577.806 871.51 582.128C882.801 585.18 902.831 595.928 898.872 610.578C894.768 625.764 871.426 624.071 860 620.984C840.509 615.717 828.341 603.632 831.392 592.342ZM820.97 605.822C823.04 598.161 827.152 591.485 833.222 586.636C830.029 589.378 827.693 593.218 826.64 597.115C822.645 611.899 837.204 627.947 860.459 634.231C872.02 637.355 882.73 637.221 891.296 634.344L885.703 655.041C876.294 657.834 864.338 657.776 853.315 654.798C828.312 648.041 815.014 627.863 820.97 605.822Z" fill="#F8F5E8"/>
</g>
<defs>
<clipPath id="clip0">
<rect width="1913" height="832" fill="white"/>
</clipPath>
</defs>
</svg>
