<svg width="1006" height="592" viewBox="0 0 1006 592" fill="none" xmlns="http://www.w3.org/2000/svg">
<g clip-path="url(#clip0)">
<rect width="1006" height="592" fill="#202020"/>
<path d="M-225.399 357.877C-222.981 340.437 -206.884 328.259 -189.444 330.677L91.0354 369.558C108.475 371.975 120.653 388.072 118.235 405.512L101.615 525.411C99.1972 542.851 83.0998 555.029 65.6602 552.611L-214.819 513.731C-232.259 511.313 -244.437 495.216 -242.019 477.776L-225.399 357.877Z" fill="#F8F5E8"/>
<mask id="mask0" mask-type="alpha" maskUnits="userSpaceOnUse" x="-243" y="330" width="362" height="223">
<path d="M-225.399 357.877C-222.981 340.437 -206.884 328.259 -189.444 330.677L91.0354 369.558C108.475 371.975 120.653 388.072 118.235 405.512L101.615 525.411C99.1972 542.851 83.0998 555.029 65.6602 552.611L-214.819 513.731C-232.259 511.313 -244.437 495.216 -242.019 477.776L-225.399 357.877Z" fill="#C4C4C4"/>
</mask>
<g mask="url(#mask0)">
<path fill-rule="evenodd" clip-rule="evenodd" d="M-63.7544 428.052C-57.5061 436.311 -59.1364 448.072 -67.3958 454.321L-153.703 519.613C-161.152 525.248 -162.622 535.855 -156.987 543.304V543.304C-151.351 550.754 -140.744 552.224 -133.295 546.589L-21.3425 461.896C-20.8906 461.623 -20.4485 461.325 -20.0184 460.999L-16.9704 458.693C-16.5402 458.368 -16.1325 458.024 -15.7475 457.663V457.663C-9.8065 453.169 -8.63381 444.709 -13.1283 438.768L-25.3728 422.582C-25.3867 422.564 -25.4129 422.56 -25.4313 422.574V422.574C-25.4498 422.588 -25.476 422.585 -25.4899 422.566L-103.223 319.814C-108.222 313.206 -117.63 311.902 -124.238 316.901L-127.286 319.207C-133.893 324.205 -135.198 333.614 -130.199 340.222L-63.7544 428.052Z" fill="#EF6527"/>
<path fill-rule="evenodd" clip-rule="evenodd" d="M-8.05931 439.788C-3.68545 445.57 -4.82669 453.802 -10.6083 458.176L-104.421 529.146C-110.202 533.52 -111.343 541.752 -106.97 547.534L-102.401 553.573C-98.0272 559.355 -89.7946 560.496 -84.0129 556.122L32.3979 468.056C32.8783 467.763 33.3486 467.443 33.807 467.096C34.2654 466.749 34.7011 466.384 35.1139 466.001L36.8425 464.694C42.6241 460.32 43.7653 452.087 39.3915 446.306L26.9288 429.832C26.9148 429.813 26.8884 429.809 26.8699 429.823V429.823C26.8513 429.837 26.8249 429.834 26.8109 429.815L-49.7686 328.588C-55.404 321.139 -66.0112 319.668 -73.4604 325.304C-80.9097 330.939 -82.3801 341.546 -76.7446 348.996L-8.05931 439.788Z" fill="#EF6527"/>
<path fill-rule="evenodd" clip-rule="evenodd" d="M44.679 447.289C49.0528 453.071 47.9116 461.303 42.13 465.677L-51.6823 536.647C-57.4639 541.021 -58.6052 549.254 -54.2313 555.035L-49.6628 561.074C-45.2889 566.856 -37.0563 567.997 -31.2747 563.623L85.1362 475.557C85.6166 475.264 86.0869 474.944 86.5453 474.597C87.0037 474.251 87.4394 473.885 87.8522 473.503L89.5808 472.195C95.3624 467.821 96.5036 459.588 92.1298 453.807L79.6671 437.333C79.653 437.314 79.6267 437.311 79.6081 437.325V437.325C79.5896 437.339 79.5632 437.335 79.5492 437.316L2.9697 336.089C-2.66571 328.64 -13.2729 327.169 -20.7222 332.805C-28.1714 338.44 -29.6418 349.048 -24.0064 356.497L44.679 447.289Z" fill="#EF6527"/>
<path fill-rule="evenodd" clip-rule="evenodd" d="M3.19926 541.363C-4.24998 546.998 -5.72037 557.606 -0.0849512 565.055C5.55047 572.504 16.1577 573.975 23.6069 568.339L137.004 482.553C137.482 482.261 137.951 481.942 138.407 481.597C142.159 478.758 144.394 474.659 144.969 470.337C145.57 466.042 144.53 461.519 141.708 457.787C141.363 457.332 141 456.899 140.62 456.488L54.8318 343.088C49.1964 335.639 38.5892 334.169 31.1399 339.804C23.6907 345.44 22.2203 356.047 27.8557 363.496L93.713 450.55C99.649 458.397 98.1002 469.57 90.2537 475.506L3.19926 541.363Z" fill="#EF6527"/>
<path d="M52.2195 572.304C46.584 564.855 48.0544 554.248 55.5037 548.612L170.32 461.752C177.769 456.117 188.377 457.587 194.012 465.037V465.037C199.647 472.486 198.177 483.093 190.728 488.728L75.9113 575.588C68.4621 581.224 57.8549 579.753 52.2195 572.304V572.304Z" fill="#EF6527"/>
<path d="M83.4431 347.054C75.9939 352.69 74.5235 363.297 80.1589 370.746L167.019 485.562C172.654 493.012 183.261 494.482 190.711 488.847V488.847C198.16 483.211 199.63 472.604 193.995 465.155L107.135 350.338C101.5 342.889 90.8923 341.419 83.4431 347.054V347.054Z" fill="#EF6527"/>
</g>
<path d="M-42.8971 465.966C-42.485 463.403 -41.8252 460.904 -40.918 458.467C-40.003 455.974 -39.088 453.481 -38.173 450.988C-37.2021 448.502 -36.5385 445.975 -36.1822 443.404C-35.7778 440.897 -35.7683 438.364 -36.1538 435.805C-36.5392 433.246 -36.9286 430.714 -37.3218 428.211C-37.7073 425.652 -37.7373 423.199 -37.412 420.852C-37.0789 418.449 -36.3562 416.727 -35.2437 415.685C-34.0754 414.651 -32.1792 414.116 -29.555 414.081C-26.9309 414.047 -23.2444 414.358 -18.4955 415.016C-14.0819 415.628 -10.1252 416.661 -6.62548 418.114C-3.11797 419.512 -0.449883 421.419 1.37878 423.837C3.27105 426.206 3.97706 429.123 3.49682 432.588C3.2412 434.432 2.52924 435.871 1.36094 436.905C0.200393 437.883 -1.21791 438.256 -2.89396 438.024C-4.17894 437.846 -5.13035 437.315 -5.74819 436.432C-6.30243 435.501 -6.68601 434.366 -6.89893 433.026C-7.10411 431.631 -7.36129 430.2 -7.67045 428.733C-7.91601 427.219 -8.36872 425.76 -9.02858 424.359C-9.68071 422.902 -10.7347 421.674 -12.1906 420.674C-13.5828 419.627 -15.5639 418.925 -18.1339 418.569C-20.9273 418.182 -23.2937 418.822 -25.2332 420.49C-27.1648 422.101 -28.3243 424.304 -28.7116 427.098C-29.1067 429.948 -29.0293 432.265 -28.4795 434.05C-27.8661 435.786 -26.975 437.163 -25.8062 438.179C-24.5738 439.147 -23.1987 439.908 -21.6809 440.46C-20.0994 440.964 -18.5381 441.408 -16.9971 441.792C-15.3924 442.129 -13.9708 442.554 -12.7323 443.067C-11.4302 443.532 -10.4422 444.21 -9.76853 445.101C-9.03121 445.944 -8.77486 447.175 -8.9995 448.796C-9.23962 450.528 -9.95238 451.767 -11.1378 452.514C-12.2674 453.269 -13.4467 453.561 -14.6758 453.391C-16.2402 453.174 -17.7704 452.506 -19.2667 451.387C-20.7071 450.276 -22.0606 448.95 -23.3273 447.407C-24.5381 445.873 -25.6333 444.326 -26.6129 442.766C-27.5288 441.158 -28.2725 439.745 -28.8439 438.527C-29.3517 437.261 -29.6064 436.428 -29.608 436.029L-29.9432 435.983L-32.3135 453.081C-32.7472 456.211 -33.0903 459.096 -33.3426 461.738C-33.5949 464.38 -33.4935 466.729 -33.0383 468.785C-32.5754 470.786 -31.5516 472.437 -29.9668 473.739C-28.3184 474.992 -25.8461 475.847 -22.5499 476.304C-20.4828 476.591 -18.8324 476.393 -17.5989 475.709C-16.3017 474.978 -15.2327 474.044 -14.3919 472.908C-13.5433 471.715 -12.7226 470.519 -11.9299 469.319C-11.0813 468.127 -10.1241 467.178 -9.05812 466.471C-7.92856 465.716 -6.44194 465.467 -4.59828 465.722C-2.64288 465.993 -1.13197 466.801 -0.0655269 468.145C1.06452 469.44 1.51724 470.898 1.2926 472.519C0.967273 474.866 -0.253595 476.69 -2.37 477.991C-4.47868 479.237 -7.25943 479.99 -10.7122 480.252C-14.1728 480.57 -18.0819 480.426 -22.4397 479.822C-26.9091 479.203 -30.553 478.584 -33.3713 477.965C-36.1896 477.347 -38.3585 476.562 -39.878 475.611C-41.3417 474.668 -42.308 473.423 -42.777 471.877C-43.1902 470.339 -43.2302 468.369 -42.8971 465.966Z" fill="#272727"/>
<path d="M67.7315 428.91L59.2814 489.868L50.8296 488.697L26.0474 439.696L25.4819 439.617L19.2846 484.324L10.0889 483.049L18.5391 422.091L27.0503 423.271L51.8541 472.336L52.4195 472.414L58.6251 427.648L67.7315 428.91Z" fill="#272727"/>
<path d="M-47.8678 224.351L-91.0859 56.1088L172.853 -7.1748L218.644 160.038L-47.8678 224.351Z" fill="#F8F5E8"/>
<path d="M-44.2298 45.7928C-46.4091 36.4949 -40.6383 27.1907 -31.3404 25.0114L21.4243 12.6442C30.7222 10.4649 40.0264 16.2357 42.2057 25.5336C44.385 34.8316 38.6142 44.1357 29.3162 46.315L-23.4484 58.6823C-32.7464 60.8616 -42.0505 55.0908 -44.2298 45.7928Z" fill="#FFCC11"/>
<path d="M-36.3392 79.4604C-38.5185 70.1625 -32.7477 60.8583 -23.4497 58.679L29.3149 46.3118C38.6129 44.1325 47.917 49.9033 50.0963 59.2013C52.2756 68.4992 46.5048 77.8033 37.2069 79.9826L-15.5578 92.3499C-24.8558 94.5292 -34.1599 88.7584 -36.3392 79.4604Z" fill="#FFCC11"/>
<path d="M-28.4466 113.134C-30.6259 103.836 -24.8551 94.532 -15.5572 92.3527L37.2075 79.9855C46.5054 77.8062 55.8096 83.577 57.9889 92.875C60.1682 102.173 54.3974 111.477 45.0994 113.656L-7.66523 126.024C-16.9632 128.203 -26.2673 122.432 -28.4466 113.134Z" fill="#FFCC11"/>
<path d="M-20.528 146.904C-22.7206 137.55 -16.9146 128.189 -7.55998 125.996L44.9994 113.677C54.354 111.484 63.7149 117.29 65.9075 126.645C68.1001 136 62.2941 145.361 52.9394 147.553L0.380082 159.872C-8.97456 162.065 -18.3354 156.259 -20.528 146.904Z" fill="#FFCC11"/>
<path d="M-12.6406 180.58C-14.8066 171.338 -9.07099 162.091 0.170262 159.925L53.1402 147.51C62.3815 145.344 71.6289 151.079 73.7949 160.32C75.9609 169.562 70.2253 178.809 60.984 180.975L8.01407 193.39C-1.22717 195.556 -10.4746 189.821 -12.6406 180.58Z" fill="#FFCC11"/>
<path d="M-4.77083 214.147C-6.95013 204.849 -1.17932 195.545 8.11862 193.366L60.8833 180.998C70.1812 178.819 79.4854 184.59 81.6647 193.888C83.844 203.186 78.0732 212.49 68.7752 214.669L16.0106 227.036C6.71261 229.216 -2.59153 223.445 -4.77083 214.147Z" fill="#FFCC11"/>
<path d="M42.2057 25.5322C40.0264 16.2343 45.7972 6.93011 55.0952 4.75081L108.065 -7.66455C117.363 -9.84385 126.667 -4.07304 128.847 5.2249C131.026 14.5228 125.255 23.827 115.957 26.0063L62.9871 38.4216C53.6892 40.6009 44.385 34.8301 42.2057 25.5322Z" fill="#FFCC11"/>
<path d="M50.0964 59.2037C47.9171 49.9058 53.6879 40.6016 62.9858 38.4223L115.956 26.007C125.254 23.8277 134.558 29.5985 136.737 38.8964C138.916 48.1944 133.146 57.4985 123.848 59.6778L70.8777 72.0932C61.5798 74.2725 52.2757 68.5016 50.0964 59.2037Z" fill="#FFCC11"/>
<path d="M57.987 92.8736C55.8077 83.5757 61.5785 74.2715 70.8764 72.0922L123.846 59.6769C133.144 57.4976 142.448 63.2684 144.628 72.5663C146.807 81.8643 141.036 91.1684 131.738 93.3477L78.7684 105.763C69.4704 107.942 60.1663 102.172 57.987 92.8736Z" fill="#FFCC11"/>
<path d="M65.9036 126.648C63.711 117.293 69.517 107.932 78.8717 105.74L131.636 93.3725C140.991 91.1799 150.352 96.9859 152.544 106.341C154.737 115.695 148.931 125.056 139.576 127.249L86.8117 139.616C77.4571 141.808 68.0962 136.002 65.9036 126.648Z" fill="#FFCC11"/>
<path d="M73.7989 160.319C71.6329 151.078 77.3685 141.831 86.6097 139.665L139.785 127.201C149.026 125.035 158.274 130.771 160.44 140.012C162.606 149.253 156.87 158.501 147.629 160.667L94.4535 173.13C85.2123 175.296 75.9649 169.56 73.7989 160.319Z" fill="#FFCC11"/>
<path d="M81.6647 193.887C79.4854 184.589 85.2562 175.285 94.5542 173.105L147.524 160.69C156.822 158.511 166.126 164.282 168.306 173.58C170.485 182.877 164.714 192.182 155.416 194.361L102.446 206.776C93.1482 208.956 83.844 203.185 81.6647 193.887Z" fill="#FFCC11"/>
<path d="M128.844 5.22348C126.665 -4.07447 132.436 -13.3786 141.734 -15.5579L194.499 -27.9251C203.796 -30.1044 213.101 -24.3336 215.28 -15.0357C217.459 -5.73774 211.688 3.5664 202.39 5.7457L149.626 18.1129C140.328 20.2922 131.024 14.5214 128.844 5.22348Z" fill="#FFCC11"/>
<path d="M136.739 38.8973C134.56 29.5994 140.33 20.2952 149.628 18.1159L202.393 5.74869C211.691 3.56939 220.995 9.3402 223.174 18.6381C225.354 27.9361 219.583 37.2402 210.285 39.4195L157.52 51.7868C148.222 53.9661 138.918 48.1953 136.739 38.8973Z" fill="#FFCC11"/>
<path d="M144.628 72.5647C142.448 63.2667 148.219 53.9626 157.517 51.7833L210.282 39.416C219.58 37.2367 228.884 43.0076 231.063 52.3055C233.242 61.6034 227.472 70.9076 218.174 73.0869L165.409 85.4541C156.111 87.6334 146.807 81.8626 144.628 72.5647Z" fill="#FFCC11"/>
<path d="M152.546 106.339C150.354 96.9847 156.16 87.6238 165.514 85.4312L218.074 73.1121C227.428 70.9195 236.789 76.7255 238.982 86.0802C241.174 95.4348 235.368 104.796 226.014 106.988L173.454 119.307C164.1 121.5 154.739 115.694 152.546 106.339Z" fill="#FFCC11"/>
<path d="M160.438 140.012C158.272 130.771 164.007 121.524 173.248 119.358L226.218 106.942C235.46 104.776 244.707 110.512 246.873 119.753C249.039 128.994 243.303 138.242 234.062 140.408L181.092 152.823C171.851 154.989 162.604 149.254 160.438 140.012Z" fill="#FFCC11"/>
<path d="M168.305 173.58C166.126 164.282 171.897 154.978 181.195 152.799L233.959 140.431C243.257 138.252 252.562 144.023 254.741 153.321C256.92 162.619 251.149 171.923 241.851 174.102L189.087 186.469C179.789 188.649 170.485 182.878 168.305 173.58Z" fill="#FFCC11"/>
<path d="M84.2758 123.572C83.825 121.441 83.5869 119.284 83.5616 117.102C83.5255 114.874 83.4894 112.646 83.4532 110.417C83.4632 108.178 83.2197 105.999 82.7228 103.879C82.2827 101.794 81.5255 99.8076 80.4511 97.92C79.3767 96.0324 78.3077 94.1679 77.2441 92.3264C76.1697 90.4388 75.4056 88.5271 74.9519 86.5913C74.4874 84.6094 74.5334 83.0427 75.0899 81.8912C75.6925 80.7288 77.0159 79.7379 79.0601 78.9185C81.1043 78.099 84.0849 77.2302 88.002 76.3121C91.6425 75.4588 95.0523 75.0729 98.2313 75.1544C101.4 75.1897 104.064 75.8779 106.226 77.219C108.423 78.5031 109.856 80.5739 110.526 83.4316C110.883 84.9526 110.76 86.2942 110.157 87.4566C109.544 88.5728 108.546 89.2929 107.163 89.617C106.103 89.8654 105.198 89.7372 104.448 89.2323C103.733 88.6706 103.09 87.8974 102.519 86.913C101.937 85.8824 101.303 84.8396 100.619 83.7845C99.9691 82.6726 99.1745 81.6676 98.2348 80.7695C97.2843 79.8253 96.0883 79.1818 94.6467 78.839C93.2404 78.4392 91.4774 78.4878 89.3576 78.9846C87.0534 79.5247 85.3938 80.7403 84.3786 82.6314C83.3526 84.4764 83.1097 86.5512 83.6499 88.8558C84.2008 91.2064 84.9609 92.9975 85.9302 94.229C86.9347 95.4036 88.0479 96.2124 89.2699 96.6553C90.5271 97.0413 91.8333 97.2214 93.1884 97.1955C94.5788 97.1128 95.9354 96.9893 97.2581 96.8251C98.6161 96.6041 99.8575 96.5076 100.982 96.5357C102.142 96.507 103.12 96.7396 103.917 97.2337C104.748 97.6708 105.321 98.5577 105.634 99.8944C105.969 101.323 105.785 102.509 105.083 103.452C104.426 104.383 103.591 104.968 102.577 105.206C101.286 105.508 99.8867 105.447 98.3775 105.023C96.9143 104.588 95.454 103.958 93.9966 103.133C92.5853 102.296 91.2607 101.416 90.0229 100.49C88.8203 99.5079 87.8115 98.626 86.9964 97.8446C86.2165 97.0063 85.7657 96.4312 85.644 96.1194L85.3675 96.1842L88.6732 110.288C89.2782 112.869 89.8806 115.232 90.4806 117.377C91.0805 119.521 91.869 121.33 92.8462 122.803C93.8126 124.229 95.1127 125.213 96.7465 125.754C98.4156 126.238 100.61 126.161 103.328 125.524C105.034 125.125 106.266 124.471 107.025 123.564C107.82 122.599 108.375 121.545 108.691 120.402C108.995 119.212 109.277 118.028 109.535 116.849C109.84 115.659 110.303 114.627 110.924 113.752C111.581 112.82 112.669 112.176 114.19 111.819C115.803 111.441 117.23 111.618 118.47 112.348C119.746 113.021 120.541 114.026 120.854 115.363C121.308 117.299 120.903 119.095 119.638 120.753C118.363 122.365 116.413 123.794 113.789 125.042C111.175 126.335 108.071 127.403 104.477 128.245C100.79 129.109 97.7501 129.725 95.3566 130.091C92.9632 130.458 91.0281 130.498 89.5512 130.212C88.1205 129.915 86.9882 129.233 86.1543 128.164C85.3665 127.084 84.7403 125.554 84.2758 123.572Z" fill="#272727"/>
<path d="M62.504 97.8781C61.7051 95.6481 60.2132 94.1071 58.0282 93.2551C55.8393 92.3868 53.2885 92.294 50.3756 92.9768C47.3318 93.6902 45.0483 94.9592 43.5252 96.7839C42.0184 98.6047 41.5202 100.604 42.0304 102.78C42.2452 103.697 42.6411 104.502 43.218 105.196C43.791 105.873 44.4253 106.406 45.1208 106.796C45.8289 107.165 46.6684 107.469 47.6393 107.708C48.6265 107.943 49.5172 108.096 50.3111 108.169C51.1051 108.242 51.9871 108.286 52.9572 108.3L58.1658 108.426C68.3608 108.54 74.2851 112.124 75.9385 119.179C76.959 123.533 76.1285 127.465 73.4471 130.977C70.7822 134.486 66.5613 136.917 60.7846 138.271C55.1716 139.586 50.3889 139.326 46.4367 137.49C42.4807 135.637 39.8448 132.456 38.529 127.947L46.1386 126.164C46.9651 128.732 48.5724 130.471 50.9604 131.379C53.361 132.267 56.0995 132.35 59.1761 131.629C62.4326 130.866 64.9255 129.496 66.6547 127.519C68.3964 125.522 68.9815 123.305 68.4099 120.866C68.2066 119.998 67.8569 119.243 67.3608 118.599C66.8647 117.956 66.2872 117.444 65.6282 117.063C64.9856 116.678 64.1808 116.375 63.2137 116.153C62.2592 115.91 61.3137 115.743 60.3773 115.652C59.4371 115.544 58.3415 115.473 57.0903 115.438L50.7702 115.21C41.4954 114.898 36.0965 111.492 34.5735 104.994C33.9099 102.163 34.0964 99.4601 35.1331 96.8861C36.1862 94.3083 37.9247 92.1137 40.3487 90.3023C42.7688 88.4746 45.6562 87.1676 49.011 86.3813C54.084 85.1923 58.5538 85.5173 62.4203 87.3565C66.2868 89.1956 68.7531 92.1313 69.819 96.1636L62.504 97.8781Z" fill="#272727"/>
<path d="M159.713 61.1601L171.498 111.441L164.526 113.075L130.33 82.1884L129.864 82.2977L138.507 119.174L130.922 120.951L119.137 70.6705L126.157 69.0251L160.39 99.955L160.856 99.8457L152.201 62.9207L159.713 61.1601Z" fill="#272727"/>
<path d="M1.38803 126.612C-3.47341 124.942 -2.75876 120.348 -1.79376 118.259C-1.89954 118.532 -1.8033 118.368 -0.5721 115.525C0.659103 112.682 -1.61332 109.526 -2.90344 108.303C-4.03525 106.652 -5.72933 102.74 -3.45118 100.29C-0.603478 97.2281 2.73444 96.7118 6.36948 99.0524C9.2775 100.925 12.2172 99.6328 13.3235 98.7527C14.8324 96.7141 18.5892 93.4745 21.5458 96.8255C25.2415 101.014 24.5723 106.333 24.2294 108.275C23.8865 110.218 21.8002 111.079 18.121 111.729C15.1777 112.249 13.3936 108.304 12.4447 106.355C11.2519 104.761 7.96724 102.509 4.76786 105.387C0.768647 108.985 3.40661 115.018 4.46117 116.793C5.51573 118.568 11.5324 121.988 14.9273 116.947C17.6433 112.914 20.2767 112.98 21.831 113.254C23.3884 113.315 26.4996 113.511 28.3452 117.208C30.6521 121.828 28.6838 121.542 28.9702 125.096C29.1932 127.864 32.3214 129.632 33.2034 132.032C34.0853 134.433 34.1372 137.533 31.3495 141.832C27.9211 147.119 19.4449 148.027 16.9732 148.607C14.5331 149.179 9.56829 148.799 6.93501 147.554C4.84039 146.564 2.85857 144.465 0.619435 140.361C-2.24455 135.111 0.623357 132.432 1.3273 131.575C2.04339 130.704 6.38502 128.634 8.84332 129.813C11.3016 130.993 11.9164 133.616 12.3223 137.618C12.7281 141.62 14.0461 142.75 15.9447 144.218C17.6344 145.525 25.5683 144.411 26.4881 140.843C27.4048 137.287 24.9366 136.427 21.9373 135.382L21.9065 135.372C18.8933 134.322 18.6261 131.139 18.9485 128.882C19.2709 126.624 20.1056 125.418 17.916 122.206C16.1644 119.637 12.5628 120.481 10.8375 122.429C8.8536 124.862 6.24947 128.282 1.38803 126.612Z" fill="#272727"/>
<mask id="mask1" mask-type="alpha" maskUnits="userSpaceOnUse" x="1006" y="161" width="396" height="253">
<rect x="1039.37" y="160.341" width="369.423" height="191.571" rx="7.50097" transform="rotate(10.2348 1039.37 160.341)" fill="#C4C4C4"/>
</mask>
<g mask="url(#mask1)">
</g>
<rect x="203.662" y="249.951" width="666.271" height="195.271" rx="97.6357" transform="rotate(-5.78065 203.662 249.951)" fill="#F8F5E8"/>
<path d="M356.797 281.527L355.251 266.261L272.07 274.682L285.394 406.289L368.574 397.869L367.011 382.427L301.517 389.057L296.827 342.731L334.828 338.884L335.61 346.605L353.647 344.779L352.137 329.863L338.478 331.246L337.696 323.525L295.317 327.815L291.303 288.158L356.797 281.527Z" fill="#FFCC11"/>
<path d="M596.854 354.104C596.419 348.622 596.525 343.145 597.171 337.674C597.806 332.083 598.441 326.493 599.075 320.903C599.828 315.301 599.928 309.765 599.374 304.295C598.952 298.932 597.703 293.712 595.628 288.637C593.554 283.561 591.486 278.545 589.423 273.588C587.349 268.512 586.059 263.477 585.553 258.483C585.036 253.37 585.66 249.462 587.428 246.761C589.314 244.047 592.948 241.997 598.329 240.612C603.711 239.226 611.452 238.022 621.553 236.999C630.94 236.049 639.598 236.194 647.526 237.433C655.442 238.554 661.887 241.145 666.86 245.206C671.939 249.137 674.853 254.788 675.599 262.161C675.996 266.085 675.252 269.404 673.366 272.118C671.467 274.712 668.736 276.19 665.171 276.551C662.438 276.828 660.215 276.212 658.502 274.703C656.895 273.064 655.538 270.919 654.429 268.268C653.308 265.499 652.063 262.682 650.692 259.817C649.429 256.822 647.767 254.047 645.708 251.492C643.637 248.819 640.853 246.818 637.358 245.49C633.969 244.031 629.541 243.578 624.075 244.132C618.134 244.733 613.585 247.236 610.43 251.64C607.262 255.925 605.98 261.04 606.582 266.986C607.195 273.05 608.515 277.782 610.539 281.181C612.671 284.449 615.194 286.836 618.107 288.343C621.128 289.719 624.337 290.596 627.737 290.972C631.243 291.218 634.678 291.351 638.041 291.371C641.511 291.26 644.649 291.422 647.454 291.859C650.366 292.165 652.738 293.066 654.57 294.563C656.509 295.928 657.653 298.335 658.002 301.783C658.375 305.47 657.529 308.378 655.464 310.509C653.518 312.629 651.238 313.82 648.623 314.085C645.296 314.422 641.813 313.813 638.175 312.26C634.655 310.694 631.206 308.64 627.828 306.099C624.568 303.546 621.54 300.91 618.744 298.189C616.054 295.338 613.817 292.802 612.031 290.58C610.352 288.227 609.412 286.641 609.208 285.82L608.496 285.892L612.179 322.279C612.853 328.938 613.592 335.05 614.396 340.615C615.199 346.18 616.584 350.965 618.55 354.97C620.504 358.857 623.437 361.744 627.349 363.63C631.369 365.385 636.883 365.908 643.894 365.199C648.291 364.753 651.587 363.519 653.783 361.495C656.086 359.339 657.818 356.882 658.979 354.121C660.128 351.242 661.218 348.369 662.248 345.501C663.397 342.622 664.891 340.188 666.731 338.2C668.677 336.081 671.611 334.823 675.532 334.426C679.691 334.005 683.204 334.911 686.071 337.143C689.045 339.245 690.706 342.02 691.055 345.468C691.561 350.462 689.962 354.829 686.259 358.567C682.544 362.187 677.2 365.13 670.227 367.398C663.266 369.785 655.151 371.447 645.882 372.385C636.376 373.348 628.569 373.898 622.461 374.036C616.352 374.173 611.497 373.644 607.894 372.447C604.411 371.238 601.8 369.16 600.061 366.212C598.441 363.253 597.372 359.217 596.854 354.104Z" fill="#4AB15E"/>
<path d="M550.73 282.677C549.456 276.836 546.221 272.493 541.025 269.65C535.825 266.765 529.465 265.703 521.946 266.465C514.089 267.26 507.955 269.693 503.545 273.765C499.176 277.832 497.277 282.672 497.845 288.287C498.084 290.65 498.813 292.794 500.032 294.718C501.247 296.599 502.662 298.14 504.277 299.341C505.931 300.496 507.934 301.53 510.289 302.443C512.685 303.352 514.866 304.026 516.831 304.467C518.796 304.908 520.991 305.304 523.417 305.656L536.423 307.665C561.925 311.267 575.596 322.165 577.438 340.358C578.575 351.587 575.212 361.16 567.35 369.077C559.531 376.991 548.165 381.702 533.253 383.212C518.763 384.679 506.868 382.471 497.566 376.59C488.26 370.666 482.695 361.848 480.869 350.134L500.512 348.146C501.745 354.844 505.204 359.718 510.89 362.767C516.614 365.77 523.447 366.869 531.389 366.065C539.796 365.214 546.487 362.597 551.463 358.212C556.477 353.781 558.666 348.421 558.029 342.131C557.802 339.894 557.173 337.889 556.14 336.118C555.107 334.346 553.827 332.876 552.301 331.709C550.816 330.537 548.899 329.516 546.549 328.645C544.237 327.728 541.923 327.002 539.607 326.469C537.287 325.894 534.566 325.359 531.443 324.865L515.686 322.238C492.554 318.439 480.14 308.16 478.444 291.402C477.704 284.099 479.053 277.395 482.489 271.291C485.968 265.181 491.038 260.254 497.701 256.509C504.359 252.722 512.018 250.39 520.678 249.514C533.774 248.188 544.865 250.455 553.951 256.316C563.037 262.177 568.257 270.326 569.613 280.765L550.73 282.677Z" fill="#FF6242"/>
<path d="M804.657 222.492L817.779 352.106L799.817 353.924L724.354 265.531L723.153 265.652L732.776 360.711L713.233 362.689L700.111 233.076L718.2 231.244L793.738 319.758L794.94 319.636L785.304 224.451L804.657 222.492Z" fill="#272727"/>
<path d="M388.349 334.597C376.714 328.841 380.004 317.583 383.103 312.674C382.749 313.322 383.044 312.942 387.056 306.233C391.068 299.524 386.405 290.892 383.572 287.414C381.275 282.92 378.308 272.584 384.815 267.198C392.949 260.466 401.48 260.259 409.823 267.293C416.498 272.92 424.284 270.643 427.343 268.802C431.789 264.194 442.258 257.312 448.572 266.653C456.464 278.328 453.052 291.411 451.559 296.158C450.066 300.905 444.558 302.382 435.128 302.811C427.584 303.154 424.402 292.71 422.661 287.528C420.193 283.154 412.698 276.456 403.743 282.615C392.549 290.314 397.19 306.258 399.252 311.039C401.315 315.82 415.273 326.327 425.424 314.823C433.544 305.62 440.121 306.639 443.925 307.829C447.807 308.487 455.538 309.989 458.956 319.833C463.227 332.137 458.389 330.783 457.947 339.763C457.603 346.757 464.863 352.194 466.289 358.483C467.715 364.773 466.834 372.542 458.447 382.388C448.132 394.497 426.599 394.016 420.217 394.662C413.917 395.3 401.603 392.739 395.412 388.769C390.487 385.612 386.207 379.722 381.936 368.73C376.474 354.671 384.534 348.902 386.577 346.988C388.655 345.041 400.208 341.275 405.982 345.023C411.756 348.772 412.44 355.531 412.151 365.671C411.862 375.811 414.795 379.066 419.073 383.354C422.88 387.17 443.121 386.96 446.59 378.336C450.047 369.742 444.144 366.79 436.97 363.203L436.896 363.166C429.69 359.562 430.059 351.515 431.604 345.975C433.148 340.435 435.633 337.688 431.195 328.946C427.645 321.952 418.346 322.893 413.388 327.203C407.624 332.645 399.983 340.352 388.349 334.597Z" fill="#9897DE"/>
<circle cx="905.592" cy="125.604" r="31.5283" transform="rotate(-19.6755 905.592 125.604)" fill="#FFCC11"/>
<circle cx="964.967" cy="104.375" r="31.5283" transform="rotate(-19.6755 964.967 104.375)" fill="#FFCC11"/>
<circle cx="884.361" cy="66.229" r="31.5283" transform="rotate(-19.6755 884.361 66.229)" fill="#FFCC11"/>
<circle cx="943.736" cy="44.9984" r="31.5283" transform="rotate(-19.6755 943.736 44.9984)" fill="#FFCC11"/>
<circle cx="214.839" cy="199.166" r="25.6236" transform="rotate(17.5154 214.839 199.166)" fill="#4AB15E"/>
<circle cx="263.712" cy="214.59" r="25.6236" transform="rotate(17.5154 263.712 214.59)" fill="#4AB15E"/>
<circle cx="230.263" cy="150.295" r="25.6236" transform="rotate(17.5154 230.263 150.295)" fill="#4AB15E"/>
<circle cx="279.134" cy="165.719" r="25.6236" transform="rotate(17.5154 279.134 165.719)" fill="#4AB15E"/>
<circle cx="247.031" cy="182.524" r="25.6236" transform="rotate(17.5154 247.031 182.524)" fill="#4AB15E"/>
<path fill-rule="evenodd" clip-rule="evenodd" d="M903.23 623.728C953.516 623.728 994.28 582.963 994.28 532.677C994.28 482.392 953.516 441.627 903.23 441.627C852.944 441.627 812.18 482.392 812.18 532.677C812.18 582.963 852.944 623.728 903.23 623.728ZM907.37 521.729C906.108 518.305 901.264 518.305 900.002 521.729C899.347 523.506 897.518 524.562 895.652 524.241C892.055 523.622 889.633 527.816 891.968 530.622C893.179 532.077 893.179 534.189 891.968 535.645C889.633 538.45 892.055 542.645 895.652 542.026C897.518 541.705 899.347 542.761 900.002 544.537C901.264 547.962 906.108 547.962 907.37 544.537C908.025 542.761 909.854 541.705 911.72 542.026C915.317 542.645 917.739 538.45 915.404 535.645C914.193 534.189 914.193 532.077 915.404 530.622C917.739 527.816 915.317 523.622 911.72 524.241C909.854 524.562 908.025 523.506 907.37 521.729Z" fill="#4AB15E"/>
<circle cx="119.411" cy="349.876" r="77.0205" fill="#9897DE"/>
<path fill-rule="evenodd" clip-rule="evenodd" d="M56.0892 323.885C58.3843 318.299 61.397 313.084 65.0125 308.354L119.482 349.875L56.0892 323.885ZM51.6462 340.293L119.482 349.875L51.5605 358.826C51.1779 355.897 50.9805 352.91 50.9805 349.876C50.9805 346.624 51.2074 343.424 51.6462 340.293ZM55.841 375.255L119.482 349.875L65.125 391.544C61.3272 386.604 58.1887 381.13 55.841 375.255ZM77.6363 404.08L119.482 349.875L93.3468 413.168C87.6889 410.835 82.4123 407.766 77.6363 404.08ZM109.691 417.622L119.482 349.875L128.494 417.709C125.523 418.103 122.491 418.307 119.411 418.307C116.111 418.307 112.866 418.073 109.691 417.622ZM145.246 413.262L119.482 349.875L161.036 404.196C156.235 407.88 150.931 410.943 145.246 413.262ZM173.758 391.466L119.482 349.875L182.861 375.555C180.54 381.285 177.464 386.63 173.758 391.466ZM187.226 359.1L119.482 349.875L187.203 340.486C187.625 343.556 187.842 346.691 187.842 349.876C187.842 353.004 187.632 356.083 187.226 359.1ZM183.038 324.638L119.482 349.875L173.819 308.365C177.592 313.304 180.709 318.772 183.038 324.638ZM161.135 295.632L119.482 349.875L144.867 286.336C150.735 288.689 156.201 291.832 161.135 295.632ZM128.505 282.044L119.482 349.875L110.395 282.034C113.345 281.645 116.355 281.445 119.411 281.445C122.495 281.445 125.53 281.649 128.505 282.044ZM93.4273 286.551C87.7403 288.887 82.4374 291.967 77.6397 295.669L119.482 349.875L93.4273 286.551Z" fill="#FF6242"/>
<circle cx="634.202" cy="110.819" r="90.7284" transform="rotate(12.3201 634.202 110.819)" fill="#FF6242"/>
<path d="M633.062 52.4165L598.395 44.8452L573.51 158.787L669.371 179.724L693.19 70.665C688.957 64.2832 682.69 60.1858 675.366 58.5863C659.742 55.1739 650.291 64.8769 647.091 79.5266C644.958 89.2931 646.127 102.68 646.832 112.725L646.308 112.781C644.786 91.643 638.881 72.6172 633.062 52.4165ZM590.852 157.459L614.671 48.3998L649.117 170.184L590.852 157.459ZM651.188 88.0955C653.143 79.1429 659.152 71.9284 669.08 74.0967C681.286 76.7626 683.615 91.0848 681.34 101.502L666.48 169.542C660.462 149.469 646.85 107.954 651.188 88.0955Z" fill="#FECE30"/>
<circle cx="462.733" cy="542.239" r="90.7285" transform="rotate(19.9934 462.733 542.239)" fill="#FECE30"/>
<path d="M409.816 527.72C400.714 561.403 421.81 591.199 456.258 600.507C470.371 604.321 487.33 604.834 497.8 601.64L521.621 513.488C514.201 500.575 499.029 492.243 485.068 488.47C449.71 478.915 418.549 495.403 409.816 527.72ZM435.912 514.91C439.889 500.193 463.143 498.5 481.202 503.38C493.949 506.824 516.561 518.959 512.092 535.496C507.459 552.641 481.108 550.73 468.209 547.244C446.204 541.298 432.468 527.655 435.912 514.91ZM424.146 530.128C426.483 521.479 431.126 513.942 437.978 508.468C434.374 511.564 431.737 515.898 430.548 520.298C426.038 536.988 442.473 555.105 468.727 562.199C481.777 565.726 493.868 565.574 503.539 562.327L497.225 585.692C486.603 588.846 473.105 588.78 460.661 585.417C432.435 577.79 417.422 555.01 424.146 530.128Z" fill="#F8F5E8"/>
</g>
<defs>
<clipPath id="clip0">
<rect width="1006" height="592" fill="white"/>
</clipPath>
</defs>
</svg>
