<svg width="1232" height="203" viewBox="0 0 1232 203" fill="none" xmlns="http://www.w3.org/2000/svg">
<path d="M36 95.8235V85.1765H82.9009V95.8235H36ZM82.9009 85.1765V74.5294H92.1122V85.1765H82.9009ZM92.1122 74.5294V21.2941H101.323V31.9412H110.535V63.8823H101.323V74.5294H92.1122ZM82.9009 21.2941V10.6471H92.1122V21.2941H82.9009ZM0 181V170.353H18.4224V10.6471H0V0H82.9009V10.6471H36.8449V170.353H55.2673V181H0Z" fill="black"/>
<path d="M166.665 181V170.353H231.144V181H166.665ZM157.454 170.353V159.706H166.665V170.353H157.454ZM231.144 170.353V159.706H240.355V170.353H231.144ZM148.243 159.706V149.059H157.454V159.706H148.243ZM240.355 159.706V149.059H249.566V159.706H240.355ZM139.032 149.059V138.412H148.243V149.059H139.032ZM249.566 149.059V138.412H258.778V149.059H249.566ZM129.821 138.412V127.765H120.609V53.2353H129.821V42.5882H139.032V138.412H129.821ZM258.778 138.412V42.5882H267.989V53.2353H277.2V127.765H267.989V138.412H258.778ZM139.032 42.5882V31.9412H148.243V42.5882H139.032ZM249.566 42.5882V31.9412H258.778V42.5882H249.566ZM148.243 31.9412V21.2941H157.454V31.9412H148.243ZM240.355 31.9412V21.2941H249.566V31.9412H240.355ZM157.454 21.2941V10.6471H166.665V21.2941H157.454ZM231.144 21.2941V10.6471H240.355V21.2941H231.144ZM166.665 10.6471V0H231.144V10.6471H166.665Z" fill="black"/>
<path d="M443.865 170.353V159.706H453.077V170.353H443.865ZM370.176 85.1765V74.5294H379.387V85.1765H370.176ZM379.387 74.5294V21.2941H388.598V31.9412H397.809V63.8823H388.598V74.5294H379.387ZM370.176 21.2941V10.6471H379.387V21.2941H370.176ZM287.275 181V170.353H305.697V10.6471H287.275V0H370.176V10.6471H324.12V85.1765H370.176V95.8235H360.964V106.471H370.176V117.118H379.387V127.765H388.598V138.412H397.809V149.059H407.021V159.706H416.232V170.353H443.865V181H397.809V170.353H388.598V159.706H379.387V149.059H370.176V138.412H360.964V127.765H351.753V117.118H342.542V106.471H333.331V95.8235H324.12V170.353H342.542V181H287.275Z" fill="black"/>
<path d="M488.74 181V170.353H507.163V10.6471H461.107V21.2941H451.896V0H580.853V21.2941H571.641V10.6471H525.585V170.353H544.008V181H488.74Z" fill="black"/>
<path d="M602.183 181V170.353H620.606V10.6471H602.183V0H703.507V21.2941H694.295V10.6471H639.028V85.1765H675.873V74.5294H685.084V106.471H675.873V95.8235H639.028V170.353H657.451V181H602.183Z" fill="black"/>
<path d="M759.637 181V170.353H824.116V181H759.637ZM750.426 170.353V159.706H759.637V170.353H750.426ZM824.116 170.353V159.706H833.327V170.353H824.116ZM741.215 159.706V149.059H750.426V159.706H741.215ZM833.327 159.706V149.059H842.538V159.706H833.327ZM732.004 149.059V138.412H741.215V149.059H732.004ZM842.538 149.059V138.412H851.75V149.059H842.538ZM722.793 138.412V127.765H713.581V53.2353H722.793V42.5882H732.004V138.412H722.793ZM851.75 138.412V42.5882H860.961V53.2353H870.172V127.765H860.961V138.412H851.75ZM732.004 42.5882V31.9412H741.215V42.5882H732.004ZM842.538 42.5882V31.9412H851.75V42.5882H842.538ZM741.215 31.9412V21.2941H750.426V31.9412H741.215ZM833.327 31.9412V21.2941H842.538V31.9412H833.327ZM750.426 21.2941V10.6471H759.637V21.2941H750.426ZM824.116 21.2941V10.6471H833.327V21.2941H824.116ZM759.637 10.6471V0H824.116V10.6471H759.637Z" fill="black"/>
<path d="M990.781 159.706V149.059H999.992V159.706H990.781ZM880.247 181V170.353H898.669V10.6471H880.247V0H935.514V10.6471H917.092V170.353H981.57V159.706H990.781V181H880.247Z" fill="black"/>
<path d="M1010.07 181V170.353H1028.49V10.6471H1010.07V0H1065.33V10.6471H1046.91V170.353H1065.33V181H1010.07Z" fill="black"/>
<path d="M1121.47 181V170.353H1185.94V181H1121.47ZM1112.25 170.353V159.706H1121.47V170.353H1112.25ZM1185.94 170.353V159.706H1195.16V170.353H1185.94ZM1103.04 159.706V149.059H1112.25V159.706H1103.04ZM1195.16 159.706V149.059H1204.37V159.706H1195.16ZM1093.83 149.059V138.412H1103.04V149.059H1093.83ZM1204.37 149.059V138.412H1213.58V149.059H1204.37ZM1084.62 138.412V127.765H1075.41V53.2353H1084.62V42.5882H1093.83V138.412H1084.62ZM1213.58 138.412V42.5882H1222.79V53.2353H1232V127.765H1222.79V138.412H1213.58ZM1093.83 42.5882V31.9412H1103.04V42.5882H1093.83ZM1204.37 42.5882V31.9412H1213.58V42.5882H1204.37ZM1103.04 31.9412V21.2941H1112.25V31.9412H1103.04ZM1195.16 31.9412V21.2941H1204.37V31.9412H1195.16ZM1112.25 21.2941V10.6471H1121.47V21.2941H1112.25ZM1185.94 21.2941V10.6471H1195.16V21.2941H1185.94ZM1121.47 10.6471V0H1185.94V10.6471H1121.47Z" fill="black"/>
<rect y="192" width="1218" height="11" fill="black"/>
</svg>
