<svg width="363" height="363" viewBox="0 0 363 363" fill="none" xmlns="http://www.w3.org/2000/svg">
<rect width="362.296" height="362.296" fill="#EEEEEE"/>
<path d="M14.0391 232.967C15.0056 306.91 67.2013 345.574 159.027 345.574C259.552 345.574 302.565 301.594 302.565 235.866C302.565 159.023 241.187 143.557 207.84 143.557C189.958 143.557 180.775 145.007 172.559 146.457L283.233 82.6624V16.4513H28.5379V82.6624H188.991L82.6666 143.557L112.631 195.27C126.646 188.02 138.427 182.704 161.927 182.704C188.394 182.704 214.122 205.301 214.122 233.45C214.122 261.598 189.593 283.712 158.06 283.712C129.965 283.712 101.515 266.797 99.5819 232.967H14.0391Z" fill="#1B191C"/>
<path d="M322.132 322.187L322.132 342.246L326.748 342.246L326.748 335.139L344.217 335.139L344.217 329.26L326.748 329.26L326.748 322.187L322.132 322.187ZM339.003 301.306C335.748 301.306 334.586 303.232 334.088 305.523C333.523 302.767 331.398 300.741 328.243 300.741C324.689 300.741 322.132 303.165 322.132 308.147L322.132 320.369L344.217 320.369L344.217 314.457L336.213 314.457L336.213 310.439C336.213 308.546 337.209 307.184 339.335 307.184L340.232 307.184C342.058 307.184 343.32 307.051 344.217 306.785L344.217 300.874C342.955 301.106 342.025 301.306 340.232 301.306L339.003 301.306ZM332.029 309.708L332.029 314.457L326.615 314.457L326.615 309.675C326.615 307.715 327.479 306.852 329.206 306.852C331.099 306.852 332.029 307.682 332.029 309.708ZM344.217 281.271L344.217 275.392L322.132 282.931L322.132 291.931L344.217 299.47L344.217 293.625L340.065 292.197L340.065 282.699L344.217 281.271ZM335.649 290.702L326.184 287.448L335.648 284.193L335.649 290.702ZM344.748 263.478C344.748 255.375 341.892 252.353 335.117 251.821L335.117 257.899C338.339 258.131 339.999 259.559 339.999 263.511C339.999 267.497 337.674 269.091 333.191 269.091C328.641 269.091 326.35 267.364 326.35 263.345C326.35 259.493 328.077 258.231 331.065 257.965L331.065 251.954C324.722 252.419 321.567 255.541 321.567 263.445C321.567 271.98 327.279 275.202 333.191 275.202C339.268 275.202 344.748 272.013 344.748 263.478ZM331.497 236.226L322.132 227.791L322.132 235.363L331.896 243.4L322.132 243.4L322.132 249.245L344.217 249.245L344.217 243.4L339.434 243.4L335.815 240.112L344.217 234.765L344.217 227.758L343.918 227.758L331.497 236.226ZM337.043 227.79C340.995 227.557 344.781 225.033 344.781 217.76C344.781 210.587 341.859 207.863 337.508 207.863C333.523 207.863 331.232 210.055 330.767 214.904L330.335 219.122C330.136 220.816 329.305 221.48 328.176 221.48C326.715 221.48 325.818 220.151 325.818 217.893C325.818 215.402 326.981 214.074 328.741 213.841L328.741 208.063C324.822 208.362 321.567 211.085 321.567 217.893C321.567 224.269 324.423 227.391 328.575 227.391C332.327 227.391 334.586 225.1 335.051 221.114L335.582 216.299C335.815 214.638 336.545 213.775 338.006 213.775C339.534 213.775 340.53 214.838 340.53 217.661C340.53 220.749 338.87 221.945 337.043 222.111L337.043 227.79Z" fill="#1B191C"/>
<path d="M59.5522 32.0805V27.4642L42.0503 27.4642L42.0503 49.5492H47.8953L47.8953 40.9477H58.3566V36.6635H47.8953V32.0805H59.5522ZM81.2858 44.3352C81.2858 41.0805 79.3596 39.9182 77.0681 39.42C79.8245 38.8554 81.8504 36.73 81.8504 33.575C81.8504 30.0215 79.426 27.4642 74.4445 27.4642L62.223 27.4642V49.5492H68.1345V41.5455H72.1529C74.0459 41.5455 75.4076 42.5418 75.4076 44.6673V45.5639C75.4076 47.3905 75.5404 48.6525 75.8061 49.5492H81.7175C81.4851 48.2872 81.2858 47.3573 81.2858 45.5639V44.3352ZM72.8836 37.361H68.1345V31.9477H72.9168C74.8762 31.9477 75.7397 32.8111 75.7397 34.5381C75.7397 36.4311 74.9094 37.361 72.8836 37.361ZM90.9327 44.9329V40.4495L101.759 40.4495V36.1654L90.9327 36.1654V32.0805L102.756 32.0805V27.4642L85.0876 27.4642V49.5492L102.855 49.5492V44.9329L90.9327 44.9329ZM111.884 44.9329V40.4495H122.71V36.1654H111.884V32.0805H123.707V27.4642L106.039 27.4642V49.5492H123.806V44.9329H111.884Z" fill="#EEEEEE"/>
</svg>
