<svg width="1200" height="1200" viewBox="0 0 1200 1200" fill="none" xmlns="http://www.w3.org/2000/svg">
<rect width="1200" height="1200" fill="#F8D231"/>
<rect x="126" y="54" width="410" height="128" rx="21" fill="#EEEEEE"/>
<path d="M207.499 78.85V110.53H164.929V78.85H155.799V152H164.929V117.9H207.499V152H216.519V78.85H207.499ZM263.615 153.87C289.025 153.87 300.135 137.37 300.135 115.37C300.135 93.7 289.025 76.87 263.615 76.87C238.205 76.87 227.205 93.59 227.205 115.37C227.205 137.48 238.205 153.87 263.615 153.87ZM236.775 115.37C236.775 94.8 244.915 84.46 263.615 84.46C282.315 84.46 290.565 94.8 290.565 115.37C290.565 135.94 282.315 146.28 263.615 146.28C244.915 146.28 236.775 135.94 236.775 115.37ZM393.551 78.85L378.151 146.17L360.331 78.85H346.031L328.211 146.17L312.811 78.85H303.571L320.291 152H335.691L353.181 85.78L370.561 152H385.961L402.681 78.85H393.551ZM475.43 85.01L470.15 90.29L495.78 115.7H435.28V122.85H495.67L470.15 148.15L475.43 153.54L509.64 119.22L475.43 85.01Z" fill="black"/>
<rect x="307" y="247" width="831" height="127" rx="21" fill="#EEEEEE"/>
<path d="M395.669 271.85H334.069V279.22H360.469V345.11H369.489V279.22H395.669V271.85ZM454.721 271.85V303.53H412.151V271.85H403.021V345H412.151V310.9H454.721V345H463.741V271.85H454.721ZM486.598 337.63V311.01H528.288V303.75H486.598V279.22H531.588V271.85H477.468V345H531.918V337.63H486.598ZM611.263 307.16C618.633 305.84 625.013 300.56 625.013 290C625.013 279.88 619.623 271.85 604.003 271.85H568.033V345H603.783C618.963 345 626.223 337.3 626.223 325.31C626.223 313.76 619.293 308.15 611.263 307.16ZM602.133 279.22C612.363 279.22 615.443 283.07 615.443 291.32C615.443 299.35 611.263 303.64 600.923 303.64H577.163V279.22H602.133ZM602.903 337.63H577.163V310.57H601.143C612.143 310.57 616.653 315.63 616.653 324.32C616.653 332.13 613.133 337.63 602.903 337.63ZM647.206 337.63V311.01H688.896V303.75H647.206V279.22H692.196V271.85H638.076V345H692.526V337.63H647.206ZM758.638 345H767.878L740.158 271.85H726.628L698.908 345H708.038L715.188 326.3H751.488L758.638 345ZM717.938 318.93L733.338 278.45L748.738 318.93H717.938ZM821.41 271.85H759.81V279.22H786.21V345.11H795.23V279.22H821.41V271.85ZM837.891 337.63V271.85H828.761V345H876.171V337.63H837.891ZM893.432 337.63V311.01H935.122V303.75H893.432V279.22H938.422V271.85H884.302V345H938.752V337.63H893.432ZM945.71 319.92C945.71 334.33 953.85 346.65 977.61 346.65C997.96 346.65 1006.54 338.62 1006.54 324.65C1006.54 312.88 999.61 307.16 986.63 305.07L968.37 302.32C960.12 301 957.37 296.49 957.37 290.77C957.37 282.63 962.87 277.02 975.85 277.02C989.6 277.02 995.76 283.73 996.75 293.63H1005.55C1004.56 279.55 995.1 269.87 975.96 269.87C957.04 269.87 948.13 279.22 948.13 290.99C948.13 301.99 953.96 308.26 966.72 310.13L983.99 312.77C993.23 314.31 997.3 318.16 997.3 325.86C997.3 334.33 992.68 339.5 977.61 339.5C960.67 339.5 954.84 331.25 954.62 319.92H945.71ZM1079.75 278.01L1074.47 283.29L1100.1 308.7H1039.6V315.85H1099.99L1074.47 341.15L1079.75 346.54L1113.96 312.22L1079.75 278.01Z" fill="black"/>
<rect x="45" y="439" width="650.36" height="128" rx="21" fill="#EEEEEE"/>
<path d="M99.2094 537.266L104.489 531.986L78.8594 506.576L139.359 506.576L139.359 499.426L78.9694 499.426L104.489 474.126L99.2094 468.736L64.9994 503.056L99.2094 537.266Z" fill="black"/>
<path d="M192.056 538.87C215.486 538.87 225.936 526.44 227.146 507.85H217.796C216.806 522.7 208.446 531.28 191.836 531.28C173.576 531.28 165.106 520.83 165.106 500.37C165.106 479.91 173.796 469.46 192.056 469.46C207.896 469.46 216.036 476.83 217.576 491.13H226.816C225.056 472.98 214.826 461.87 192.276 461.87C167.086 461.87 155.536 478.37 155.536 500.37C155.536 522.59 166.866 538.87 192.056 538.87ZM288.807 463.85V495.53H246.237V463.85H237.107V537H246.237V502.9H288.807V537H297.827V463.85H288.807ZM364.114 537H373.354L345.634 463.85H332.104L304.384 537H313.514L320.664 518.3H356.964L364.114 537ZM323.414 510.93L338.814 470.45L354.214 510.93H323.414ZM434.837 463.85V530.84C433.407 527.54 431.647 523.91 430.217 521.38L396.997 463.85H381.597V537H390.727V470.01C391.937 472.87 393.477 476.06 395.347 479.58L428.567 537H443.857V463.85H434.837ZM489.927 538.87C506.647 538.87 514.897 529.74 518.087 519.07V536.89H526.337V500.92H484.427V507.74H517.427C515.337 521.38 508.297 531.28 491.247 531.28C472.327 531.28 464.077 520.72 464.077 500.37C464.077 479.69 472.657 469.46 491.247 469.46C507.417 469.46 515.117 475.95 516.987 490.03H526.447C524.357 471.77 513.357 461.87 491.577 461.87C466.277 461.87 454.507 478.26 454.507 500.37C454.507 522.59 465.727 538.87 489.927 538.87ZM548.43 529.63V503.01H590.12V495.75H548.43V471.22H593.42V463.85H539.3V537H593.75V529.63H548.43ZM635.621 463.85H605.261V537H635.621C659.601 537 669.721 520.39 669.721 500.26C669.721 480.35 659.601 463.85 635.621 463.85ZM633.971 529.63H614.391V471.22H633.971C653.551 471.22 660.151 481.67 660.151 500.26C660.151 518.85 653.441 529.63 633.971 529.63Z" fill="black"/>
<rect x="550" y="632" width="514" height="127" rx="21" fill="#EEEEEE"/>
<path d="M659.077 656.85H643.347L619.257 721.75L595.057 656.85H579.107V730H588.237V663.67L612.987 730H625.307L649.947 663.67V730H659.077V656.85ZM672.673 703.82C672.673 721.75 681.913 731.76 702.373 731.76C722.723 731.76 732.073 721.64 732.073 703.82V656.85H722.943V702.72C722.943 719.44 716.013 724.17 702.373 724.17C688.733 724.17 681.693 719.44 681.693 702.72V656.85H672.673V703.82ZM743.322 704.92C743.322 719.33 751.462 731.65 775.222 731.65C795.572 731.65 804.152 723.62 804.152 709.65C804.152 697.88 797.222 692.16 784.242 690.07L765.982 687.32C757.732 686 754.982 681.49 754.982 675.77C754.982 667.63 760.482 662.02 773.462 662.02C787.212 662.02 793.372 668.73 794.362 678.63H803.162C802.172 664.55 792.712 654.87 773.572 654.87C754.652 654.87 745.742 664.22 745.742 675.99C745.742 686.99 751.572 693.26 764.332 695.13L781.602 697.77C790.842 699.31 794.912 703.16 794.912 710.86C794.912 719.33 790.292 724.5 775.222 724.5C758.282 724.5 752.452 716.25 752.232 704.92H743.322ZM852.047 664.22V656.85H812.007V664.22H827.517V722.63H812.007V730H852.047V722.63H836.537V664.22H852.047ZM894.691 731.87C918.121 731.87 928.571 719.44 929.781 700.85H920.431C919.441 715.7 911.081 724.28 894.471 724.28C876.211 724.28 867.741 713.83 867.741 693.37C867.741 672.91 876.431 662.46 894.691 662.46C910.531 662.46 918.671 669.83 920.211 684.13H929.451C927.691 665.98 917.461 654.87 894.911 654.87C869.721 654.87 858.171 671.37 858.171 693.37C858.171 715.59 869.501 731.87 894.691 731.87ZM1002.62 663.01L997.343 668.29L1022.97 693.7H962.473V700.85H1022.86L997.343 726.15L1002.62 731.54L1036.83 697.22L1002.62 663.01Z" fill="black"/>
<rect x="248" y="824" width="352.36" height="127" rx="21" fill="#EEEEEE"/>
<path d="M302.209 921.766L307.489 916.486L281.859 891.076L342.359 891.076L342.359 883.926L281.969 883.926L307.489 858.626L302.209 853.236L267.999 887.556L302.209 921.766Z" fill="black"/>
<path d="M416.557 922H425.797L398.077 848.85H384.547L356.827 922H365.957L373.107 903.3H409.407L416.557 922ZM375.857 895.93L391.257 855.45L406.657 895.93H375.857ZM487.28 848.85V915.84C485.85 912.54 484.09 908.91 482.66 906.38L449.44 848.85H434.04V922H443.17V855.01C444.38 857.87 445.92 861.06 447.79 864.58L481.01 922H496.3V848.85H487.28ZM540.351 848.85H509.991V922H540.351C564.331 922 574.451 905.39 574.451 885.26C574.451 865.35 564.331 848.85 540.351 848.85ZM538.701 914.63H519.121V856.22H538.701C558.281 856.22 564.881 866.67 564.881 885.26C564.881 903.85 558.171 914.63 538.701 914.63Z" fill="black"/>
<rect x="45" y="1016" width="488.36" height="127" rx="21" fill="#EEEEEE"/>
<path d="M99.2094 1113.77L104.489 1108.49L78.8594 1083.08L139.359 1083.08L139.359 1075.93L78.9694 1075.93L104.489 1050.63L99.2094 1045.24L64.9994 1079.56L99.2094 1113.77Z" fill="black"/>
<path d="M236.99 1040.85H221.26L197.17 1105.75L172.97 1040.85H157.02V1114H166.15V1047.67L190.9 1114H203.22L227.86 1047.67V1114H236.99V1040.85ZM250.586 1087.82C250.586 1105.75 259.826 1115.76 280.286 1115.76C300.636 1115.76 309.986 1105.64 309.986 1087.82V1040.85H300.856V1086.72C300.856 1103.44 293.926 1108.17 280.286 1108.17C266.646 1108.17 259.606 1103.44 259.606 1086.72V1040.85H250.586V1087.82ZM321.235 1088.92C321.235 1103.33 329.375 1115.65 353.135 1115.65C373.485 1115.65 382.065 1107.62 382.065 1093.65C382.065 1081.88 375.135 1076.16 362.155 1074.07L343.895 1071.32C335.645 1070 332.895 1065.49 332.895 1059.77C332.895 1051.63 338.395 1046.02 351.375 1046.02C365.125 1046.02 371.285 1052.73 372.275 1062.63H381.075C380.085 1048.55 370.625 1038.87 351.485 1038.87C332.565 1038.87 323.655 1048.22 323.655 1059.99C323.655 1070.99 329.485 1077.26 342.245 1079.13L359.515 1081.77C368.755 1083.31 372.825 1087.16 372.825 1094.86C372.825 1103.33 368.205 1108.5 353.135 1108.5C336.195 1108.5 330.365 1100.25 330.145 1088.92H321.235ZM429.96 1048.22V1040.85H389.92V1048.22H405.43V1106.63H389.92V1114H429.96V1106.63H414.45V1048.22H429.96ZM472.604 1115.87C496.034 1115.87 506.484 1103.44 507.694 1084.85H498.344C497.354 1099.7 488.994 1108.28 472.384 1108.28C454.124 1108.28 445.654 1097.83 445.654 1077.37C445.654 1056.91 454.344 1046.46 472.604 1046.46C488.444 1046.46 496.584 1053.83 498.124 1068.13H507.364C505.604 1049.98 495.374 1038.87 472.824 1038.87C447.634 1038.87 436.084 1055.37 436.084 1077.37C436.084 1099.59 447.414 1115.87 472.604 1115.87Z" fill="black"/>
<rect x="564" y="1017" width="591.36" height="126" rx="21" fill="#EEEEEE"/>
<path d="M643.563 1041.85V1073.53H600.993V1041.85H591.863V1115H600.993V1080.9H643.563V1115H652.583V1041.85H643.563ZM705.596 1049.22V1041.85H665.556V1049.22H681.066V1107.63H665.556V1115H705.596V1107.63H690.086V1049.22H705.596ZM713.538 1089.92C713.538 1104.33 721.678 1116.65 745.438 1116.65C765.788 1116.65 774.368 1108.62 774.368 1094.65C774.368 1082.88 767.438 1077.16 754.458 1075.07L736.198 1072.32C727.948 1071 725.198 1066.49 725.198 1060.77C725.198 1052.63 730.698 1047.02 743.678 1047.02C757.428 1047.02 763.588 1053.73 764.578 1063.63H773.378C772.388 1049.55 762.928 1039.87 743.788 1039.87C724.868 1039.87 715.958 1049.22 715.958 1060.99C715.958 1071.99 721.788 1078.26 734.548 1080.13L751.818 1082.77C761.058 1084.31 765.128 1088.16 765.128 1095.86C765.128 1104.33 760.508 1109.5 745.438 1109.5C728.498 1109.5 722.668 1101.25 722.448 1089.92H713.538ZM838.472 1041.85H776.872V1049.22H803.272V1115.11H812.292V1049.22H838.472V1041.85ZM875.11 1116.87C900.52 1116.87 911.63 1100.37 911.63 1078.37C911.63 1056.7 900.52 1039.87 875.11 1039.87C849.7 1039.87 838.7 1056.59 838.7 1078.37C838.7 1100.48 849.7 1116.87 875.11 1116.87ZM848.27 1078.37C848.27 1057.8 856.41 1047.46 875.11 1047.46C893.81 1047.46 902.06 1057.8 902.06 1078.37C902.06 1098.94 893.81 1109.28 875.11 1109.28C856.41 1109.28 848.27 1098.94 848.27 1078.37ZM976.435 1095.64C976.435 1084.86 971.485 1081.56 964.555 1079.58C972.695 1077.71 978.745 1070.89 978.745 1061.1C978.745 1049.33 971.375 1041.85 956.305 1041.85H922.205V1115H931.335V1082.22H951.905C962.025 1082.22 967.635 1086.51 967.635 1096.96V1103.67C967.635 1108.95 968.185 1112.58 968.955 1115H977.865C977.205 1112.25 976.435 1108.73 976.435 1103.34V1095.64ZM955.205 1075.4H931.335V1049.22H955.315C964.885 1049.22 969.175 1053.4 969.175 1061.87C969.175 1070.23 965.435 1075.4 955.205 1075.4ZM1037.34 1041.85L1020.62 1072.1C1018.97 1075.29 1017.21 1078.37 1015.56 1081.45C1013.8 1078.37 1012.15 1075.29 1010.5 1072.1L993.893 1041.85H983.443L1010.94 1089.37V1115H1020.07V1089.37L1047.57 1041.85H1037.34Z" fill="black"/>
<path d="M1101.15 1045.73L1095.87 1051.01L1121.5 1076.42H1061V1083.57H1121.39L1095.87 1108.87L1101.15 1114.26L1135.36 1079.94L1101.15 1045.73Z" fill="black"/>
</svg>
