<svg width="363" height="363" viewBox="0 0 363 363" fill="none" xmlns="http://www.w3.org/2000/svg">
<rect width="362.228" height="362.228" fill="#CFD3D6"/>
<path d="M18.4121 70.3324C18.4121 45.8574 18.4121 33.6199 26.0155 26.0165C33.6189 18.4131 45.8564 18.4131 70.3315 18.4131H291.894C316.369 18.4131 328.607 18.4131 336.21 26.0165C343.814 33.6199 343.814 45.8574 343.814 70.3324V291.895C343.814 316.37 343.814 328.608 336.21 336.211C328.607 343.815 316.369 343.815 291.894 343.815H70.3315C45.8564 343.815 33.6189 343.815 26.0155 336.211C18.4121 328.608 18.4121 316.37 18.4121 291.895V70.3324Z" fill="#EEEEEE"/>
<rect x="160.889" y="35.9209" width="121.346" height="34.4117" rx="10.2631" fill="#CFD3D6"/>
<path d="M63.1432 40.142V49.7048H50.2931V40.142H47.5372V62.2228H50.2931V51.9295H63.1432V62.2228H65.8659V40.142H63.1432ZM77.9388 62.754C83.5171 62.754 86.273 58.8692 86.273 53.8885C86.273 48.9743 83.5171 45.0894 77.9388 45.0894C72.3273 45.0894 69.5713 48.9411 69.5713 53.8885C69.5713 58.9024 72.3273 62.754 77.9388 62.754ZM72.2608 53.9217C72.2608 49.2399 74.1867 47.2477 77.9388 47.2477C81.6908 47.2477 83.5835 49.2399 83.5835 53.9217C83.5835 58.5703 81.6908 60.5958 77.9388 60.5958C74.1867 60.5958 72.2608 58.5703 72.2608 53.9217ZM112.546 45.6207L108.23 60.2305L102.984 45.6207H100.228L94.9814 60.2305L90.698 45.6207H87.9089L92.9891 62.2228H96.7744L101.523 48.7751L106.304 62.2228H110.089L115.136 45.6207H112.546ZM131.392 62.2228H135.31V60.0645H130.031V47.7125H135.509V45.6207H130.031V41.935H128.603L127.607 45.3882L124.22 46.2183V47.7125H127.374V58.3379C127.374 60.9942 128.204 62.2228 131.392 62.2228ZM145.677 62.754C151.255 62.754 154.011 58.8692 154.011 53.8885C154.011 48.9743 151.255 45.0894 145.677 45.0894C140.065 45.0894 137.309 48.9411 137.309 53.8885C137.309 58.9024 140.065 62.754 145.677 62.754ZM139.999 53.9217C139.999 49.2399 141.925 47.2477 145.677 47.2477C149.429 47.2477 151.321 49.2399 151.321 53.9217C151.321 58.5703 149.429 60.5958 145.677 60.5958C141.925 60.5958 139.999 58.5703 139.999 53.9217ZM174.852 60.7286C171.532 60.7286 169.34 59.0684 169.141 54.5194H182.489C182.556 54.1209 182.556 53.7889 182.556 53.3572C182.556 48.5094 179.733 45.0894 174.753 45.0894C169.241 45.0894 166.518 48.9411 166.518 53.8885C166.518 58.9024 169.042 62.754 174.753 62.754C180.265 62.754 182.19 59.6328 182.522 57.1093H180.099C179.6 59.2012 178.106 60.7286 174.852 60.7286ZM174.786 47.1149C177.874 47.1149 179.833 48.7087 179.966 52.5271H169.208C169.573 48.609 171.631 47.1149 174.786 47.1149ZM183.494 62.2228H186.516L191.663 55.4491L196.809 62.2228H199.997L193.29 53.7889L199.665 45.6207H196.61L191.729 52.1619L186.848 45.6207H183.66L190.102 53.8553L183.494 62.2228ZM208.559 62.2228H212.477V60.0645H207.197V47.7125H212.676V45.6207H207.197V41.935H205.77L204.773 45.3882L201.387 46.2183V47.7125H204.541V58.3379C204.541 60.9942 205.371 62.2228 208.559 62.2228ZM224.785 45.3882C221.63 45.3882 219.704 47.2477 218.708 50.0036V45.6207H216.052V62.2228H218.708V56.1132C218.708 51.4314 219.771 47.8453 224.685 48.0114H225.382V45.3882H224.785ZM232.803 62.6544C236.655 62.6544 238.415 60.3301 239.046 58.3379C239.046 59.5664 239.145 60.795 239.278 62.2228H241.702C241.536 60.5958 241.503 59.3008 241.503 58.1055V50.1364C241.503 47.1481 239.444 45.0562 234.895 45.0562C230.313 45.0562 227.823 47.3141 227.723 50.8337H230.346C230.512 48.6755 231.741 47.1481 234.995 47.1481C238.216 47.1481 239.079 48.443 239.079 50.1364C239.079 51.3982 238.348 51.8631 236.589 52.1619L232.372 52.8592C228.786 53.4569 227.325 55.1503 227.325 57.8398C227.325 60.9942 229.616 62.6544 232.803 62.6544ZM233.335 60.5626C231.375 60.5626 230.014 59.6328 230.014 57.7402C230.014 55.9472 231.077 55.0839 233.335 54.619L236.09 54.0545C237.352 53.7889 238.249 53.5233 239.079 52.9256V54.3534C239.079 57.5078 237.253 60.5626 233.335 60.5626ZM244.892 53.9217C244.892 59.002 247.747 62.754 253.193 62.754C258.24 62.754 260.929 59.6993 261.129 55.8808H258.605C258.273 58.7031 256.546 60.5958 253.193 60.5958C249.706 60.5958 247.581 58.7363 247.581 53.9217C247.581 49.1403 249.773 47.2477 253.292 47.2477C256.38 47.2477 258.041 48.9743 258.439 51.697H260.929C260.664 47.8453 258.173 45.0894 253.193 45.0894C247.814 45.0894 244.892 48.8415 244.892 53.9217ZM269.747 62.2228H273.665V60.0645H268.385V47.7125H273.864V45.6207H268.385V41.935H266.957L265.961 45.3882L262.574 46.2183V47.7125H265.729V58.3379C265.729 60.9942 266.559 62.2228 269.747 62.2228ZM60.0884 78.6207L54.4769 92.8985L48.8986 78.6207H46.1094L52.6506 95.2228H56.1703L62.7115 78.6207H60.0884ZM72.4264 95.754C78.0047 95.754 80.7606 91.8692 80.7606 86.8885C80.7606 81.9743 78.0047 78.0894 72.4264 78.0894C66.8148 78.0894 64.0589 81.9411 64.0589 86.8885C64.0589 91.9024 66.8148 95.754 72.4264 95.754ZM66.7484 86.9217C66.7484 82.2399 68.6743 80.2477 72.4264 80.2477C76.1784 80.2477 78.0711 82.2399 78.0711 86.9217C78.0711 91.5703 76.1784 93.5958 72.4264 93.5958C68.6743 93.5958 66.7484 91.5703 66.7484 86.9217ZM83.8821 75.8979H87.3021V73.142H83.8821V75.8979ZM84.2473 95.2228H86.9037V78.6207H84.2473V95.2228ZM90.7131 86.9217C90.7131 92.002 93.5686 95.754 99.0141 95.754C104.061 95.754 106.751 92.6993 106.95 88.8808H104.426C104.094 91.7031 102.368 93.5958 99.0141 93.5958C95.5277 93.5958 93.4026 91.7363 93.4026 86.9217C93.4026 82.1403 95.5941 80.2477 99.1137 80.2477C102.202 80.2477 103.862 81.9743 104.26 84.697H106.751C106.485 80.8453 103.995 78.0894 99.0141 78.0894C93.635 78.0894 90.7131 81.8415 90.7131 86.9217ZM117.887 93.7286C114.566 93.7286 112.375 92.0684 112.176 87.5194H125.524C125.59 87.1209 125.59 86.7889 125.59 86.3572C125.59 81.5094 122.768 78.0894 117.787 78.0894C112.275 78.0894 109.553 81.9411 109.553 86.8885C109.553 91.9024 112.076 95.754 117.787 95.754C123.299 95.754 125.225 92.6328 125.557 90.1093H123.133C122.635 92.2012 121.141 93.7286 117.887 93.7286ZM117.82 80.1149C120.908 80.1149 122.867 81.7087 123 85.5271H112.242C112.607 81.609 114.666 80.1149 117.82 80.1149ZM138.367 95.2228H141.023V80.7125H145.871V78.6207H140.824V74.0053H146.8V71.9798H142.584C139.396 71.9798 138.367 73.1088 138.367 75.3334V78.521L135.577 79.2183V80.7125H138.367V95.2228ZM157.929 78.3882C154.775 78.3882 152.849 80.2477 151.853 83.0036V78.6207H149.197V95.2228H151.853V89.1132C151.853 84.4314 152.915 80.8453 157.83 81.0114H158.527V78.3882H157.929ZM168.44 95.754C174.018 95.754 176.774 91.8692 176.774 86.8885C176.774 81.9743 174.018 78.0894 168.44 78.0894C162.828 78.0894 160.072 81.9411 160.072 86.8885C160.072 91.9024 162.828 95.754 168.44 95.754ZM162.762 86.9217C162.762 82.2399 164.688 80.2477 168.44 80.2477C172.192 80.2477 174.084 82.2399 174.084 86.9217C174.084 91.5703 172.192 93.5958 168.44 93.5958C164.688 93.5958 162.762 91.5703 162.762 86.9217ZM200.615 78.0894C197.294 78.0894 195.369 79.8492 194.406 82.7712C193.941 79.6832 192.181 78.0894 188.96 78.0894C185.773 78.0894 183.88 79.8492 182.917 82.7048V78.6207H180.261V95.2228H182.917V88.8808C182.917 83.1696 184.577 80.3141 188.13 80.3141C190.554 80.3141 191.949 81.4762 191.949 84.8299V95.2228H194.539V88.8808C194.539 83.1696 196.166 80.3141 199.785 80.3141C202.209 80.3141 203.57 81.4762 203.57 84.8299V95.2228H206.226V84.531C206.226 80.2809 204.4 78.0894 200.615 78.0894ZM223.18 95.6544C227.031 95.6544 228.791 93.3301 229.422 91.3379C229.422 92.5664 229.522 93.795 229.655 95.2228H232.079C231.912 93.5958 231.879 92.3008 231.879 91.1055V83.1364C231.879 80.1481 229.821 78.0562 225.272 78.0562C220.689 78.0562 218.199 80.3141 218.1 83.8337H220.723C220.889 81.6755 222.117 80.1481 225.371 80.1481C228.592 80.1481 229.455 81.443 229.455 83.1364C229.455 84.3982 228.725 84.8631 226.965 85.1619L222.748 85.8592C219.162 86.4569 217.701 88.1503 217.701 90.8398C217.701 93.9942 219.992 95.6544 223.18 95.6544ZM223.711 93.5626C221.752 93.5626 220.391 92.6328 220.391 90.7402C220.391 88.9472 221.453 88.0839 223.711 87.619L226.467 87.0545C227.729 86.7889 228.625 86.5233 229.455 85.9256V87.3534C229.455 90.5078 227.629 93.5626 223.711 93.5626ZM245.292 78.0894C242.005 78.0894 239.946 79.9488 238.917 82.9704V78.6207H236.26V95.2228H238.917V88.8808C238.917 83.1696 240.876 80.3141 244.561 80.3141C246.985 80.3141 248.546 81.3766 248.546 84.9295V95.2228H251.202V84.6306C251.202 80.3473 249.443 78.0894 245.292 78.0894ZM267.652 78.6207L262.505 91.4043L262.007 92.9981L261.443 91.4043L256.362 78.6207H253.573L260.148 95.2228H261.077L259.251 99.7053H254.636V101.864H257.79C260.779 101.864 261.443 100.635 262.472 97.9787L270.275 78.6207H267.652ZM60.0884 111.621L54.4769 125.898L48.8986 111.621H46.1094L52.6506 128.223H56.1703L62.7115 111.621H60.0884ZM65.1723 108.898H68.5923V106.142H65.1723V108.898ZM65.5375 128.223H68.1938V111.621H65.5375V128.223ZM85.17 104.98V114.775C84.0411 112.418 81.9492 111.089 78.8944 111.089C73.6814 111.089 71.2907 114.808 71.2907 119.922C71.2907 125.002 73.6814 128.754 78.8944 128.754C81.9492 128.754 84.0411 127.393 85.17 125.035V128.223H87.8264V104.98H85.17ZM79.4257 126.596C75.6404 126.596 73.9802 124.371 73.9802 119.922C73.9802 115.439 75.6404 113.248 79.4257 113.248C82.9453 113.248 85.17 115.24 85.17 119.922C85.17 124.604 82.9453 126.596 79.4257 126.596ZM99.5661 126.729C96.2457 126.729 94.0542 125.068 93.855 120.519H107.203C107.27 120.121 107.27 119.789 107.27 119.357C107.27 114.509 104.447 111.089 99.4665 111.089C93.9546 111.089 91.2319 114.941 91.2319 119.889C91.2319 124.902 93.7554 128.754 99.4665 128.754C104.978 128.754 106.904 125.633 107.236 123.109H104.812C104.314 125.201 102.82 126.729 99.5661 126.729ZM99.4997 113.115C102.588 113.115 104.547 114.709 104.68 118.527H93.9214C94.2867 114.609 96.3453 113.115 99.4997 113.115ZM118.342 128.754C123.92 128.754 126.676 124.869 126.676 119.889C126.676 114.974 123.92 111.089 118.342 111.089C112.73 111.089 109.974 114.941 109.974 119.889C109.974 124.902 112.73 128.754 118.342 128.754ZM112.664 119.922C112.664 115.24 114.589 113.248 118.342 113.248C122.094 113.248 123.986 115.24 123.986 119.922C123.986 124.57 122.094 126.596 118.342 126.596C114.589 126.596 112.664 124.57 112.664 119.922ZM145.677 128.754C151.255 128.754 154.011 124.869 154.011 119.889C154.011 114.974 151.255 111.089 145.677 111.089C140.065 111.089 137.309 114.941 137.309 119.889C137.309 124.902 140.065 128.754 145.677 128.754ZM139.999 119.922C139.999 115.24 141.925 113.248 145.677 113.248C149.429 113.248 151.321 115.24 151.321 119.922C151.321 124.57 149.429 126.596 145.677 126.596C141.925 126.596 139.999 124.57 139.999 119.922ZM166.23 111.388C163.076 111.388 161.15 113.248 160.154 116.004V111.621H157.498V128.223H160.154V122.113C160.154 117.431 161.217 113.845 166.131 114.011H166.828V111.388H166.23ZM198.086 111.089C194.765 111.089 192.839 112.849 191.876 115.771C191.412 112.683 189.652 111.089 186.431 111.089C183.243 111.089 181.351 112.849 180.388 115.705V111.621H177.731V128.223H180.388V121.881C180.388 116.17 182.048 113.314 185.601 113.314C188.025 113.314 189.419 114.476 189.419 117.83V128.223H192.009V121.881C192.009 116.17 193.636 113.314 197.256 113.314C199.679 113.314 201.041 114.476 201.041 117.83V128.223H203.697V117.531C203.697 113.281 201.871 111.089 198.086 111.089ZM215.295 128.754C220.874 128.754 223.63 124.869 223.63 119.889C223.63 114.974 220.874 111.089 215.295 111.089C209.684 111.089 206.928 114.941 206.928 119.889C206.928 124.902 209.684 128.754 215.295 128.754ZM209.617 119.922C209.617 115.24 211.543 113.248 215.295 113.248C219.047 113.248 220.94 115.24 220.94 119.922C220.94 124.57 219.047 126.596 215.295 126.596C211.543 126.596 209.617 124.57 209.617 119.922ZM238.918 111.621L233.306 125.898L227.728 111.621H224.939L231.48 128.223H235L241.541 111.621H238.918ZM244.002 108.898H247.422V106.142H244.002V108.898ZM244.367 128.223H247.023V111.621H244.367V128.223ZM259.167 126.729C255.847 126.729 253.655 125.068 253.456 120.519H266.804C266.87 120.121 266.87 119.789 266.87 119.357C266.87 114.509 264.048 111.089 259.067 111.089C253.555 111.089 250.833 114.941 250.833 119.889C250.833 124.902 253.356 128.754 259.067 128.754C264.579 128.754 266.505 125.633 266.837 123.109H264.413C263.915 125.201 262.421 126.729 259.167 126.729ZM259.101 113.115C262.189 113.115 264.148 114.709 264.28 118.527H253.522C253.887 114.609 255.946 113.115 259.101 113.115Z" fill="#1B191C"/>
<path d="M54.2112 283.894V288.675H47.7862V283.894H46.4082V294.934H47.7862V289.787H54.2112V294.934H55.5726V283.894H54.2112ZM61.5924 294.187C59.9322 294.187 58.8365 293.357 58.7369 291.082H65.4109C65.4441 290.883 65.4441 290.717 65.4441 290.501C65.4441 288.077 64.0329 286.367 61.5426 286.367C58.7867 286.367 57.4253 288.293 57.4253 290.767C57.4253 293.274 58.6871 295.2 61.5426 295.2C64.2986 295.2 65.2615 293.639 65.4275 292.377H64.2156C63.9665 293.423 63.2194 294.187 61.5924 294.187ZM61.5592 287.38C63.1032 287.38 64.0827 288.177 64.1492 290.086H58.7701C58.9527 288.127 59.982 287.38 61.5592 287.38ZM67.2435 294.934H68.5717V283.312H67.2435V294.934ZM75.4057 286.367C73.8783 286.367 72.8323 287.048 72.2679 288.227V286.633H70.9397V298.254H72.2679V293.357C72.8323 294.536 73.8783 295.2 75.4057 295.2C78.0122 295.2 79.2075 293.34 79.2075 290.783C79.2075 288.243 78.0122 286.367 75.4057 286.367ZM75.14 294.12C73.3802 294.12 72.2679 293.124 72.2679 290.783C72.2679 288.443 73.3802 287.446 75.14 287.446C77.0327 287.446 77.8628 288.559 77.8628 290.783C77.8628 293.025 77.0327 294.12 75.14 294.12ZM90.0118 295.216C92.5353 295.216 93.7804 293.838 94.2619 292.228V294.917H95.5071V289.488H89.1816V290.518H94.1623C93.8468 292.576 92.7843 294.071 90.211 294.071C87.3554 294.071 86.1103 292.477 86.1103 289.405C86.1103 286.284 87.4052 284.74 90.211 284.74C92.6515 284.74 93.8136 285.72 94.0959 287.845H95.5237C95.2082 285.089 93.548 283.595 90.2608 283.595C86.4423 283.595 84.6659 286.068 84.6659 289.405C84.6659 292.759 86.3593 295.216 90.0118 295.216ZM103.895 286.633V289.804C103.895 292.56 102.916 294.104 101.189 294.104C99.9108 294.104 99.0973 293.622 99.0973 291.78V286.633H97.7691V291.929C97.7691 294.104 98.7154 295.2 100.807 295.2C102.418 295.2 103.397 294.303 103.895 292.825V294.934H105.223V286.633H103.895ZM107.302 285.272H109.012V283.894H107.302V285.272ZM107.485 294.934H108.813V286.633H107.485V294.934ZM117.301 283.312V288.21C116.736 287.031 115.69 286.367 114.163 286.367C111.557 286.367 110.361 288.227 110.361 290.783C110.361 293.324 111.557 295.2 114.163 295.2C115.69 295.2 116.736 294.519 117.301 293.34V294.934H118.629V283.312H117.301ZM114.429 294.12C112.536 294.12 111.706 293.008 111.706 290.783C111.706 288.542 112.536 287.446 114.429 287.446C116.188 287.446 117.301 288.443 117.301 290.783C117.301 293.124 116.188 294.12 114.429 294.12ZM124.499 294.187C122.839 294.187 121.743 293.357 121.643 291.082H128.317C128.351 290.883 128.351 290.717 128.351 290.501C128.351 288.077 126.939 286.367 124.449 286.367C121.693 286.367 120.332 288.293 120.332 290.767C120.332 293.274 121.594 295.2 124.449 295.2C127.205 295.2 128.168 293.639 128.334 292.377H127.122C126.873 293.423 126.126 294.187 124.499 294.187ZM124.466 287.38C126.01 287.38 126.989 288.177 127.056 290.086H121.677C121.859 288.127 122.888 287.38 124.466 287.38ZM129.65 292.161C129.684 293.905 130.779 295.2 133.485 295.2C135.694 295.2 136.872 294.369 136.872 292.676C136.872 291.315 136.175 290.501 134.266 290.219L132.506 289.97C131.46 289.821 131.161 289.322 131.161 288.741C131.161 287.928 131.742 287.363 133.153 287.363C134.681 287.363 135.312 288.144 135.395 289.007H136.706C136.607 287.446 135.361 286.351 133.187 286.351C131.095 286.351 129.866 287.297 129.866 288.841C129.866 290.119 130.68 290.883 132.124 291.082L134.05 291.365C135.096 291.514 135.561 291.946 135.561 292.742C135.561 293.672 134.98 294.187 133.519 294.187C131.609 294.187 130.979 293.29 130.879 292.161H129.65Z" fill="#1B191C"/>
</svg>
