<svg width="738" height="363" viewBox="0 0 738 363" fill="none" xmlns="http://www.w3.org/2000/svg">
<g clip-path="url(#clip0)">
<rect width="737.304" height="362.296" fill="#F8D231"/>
<rect width="259.739" height="99.091" transform="translate(12.7129 35.772) rotate(-13.0511)" fill="#EEEEEE"/>
<path d="M105.465 41.1408L105.589 83.9475L85.4056 45.7908L76.7705 47.7924L75.4332 90.9379L56.7107 52.4424L51.1311 53.7358L71.4667 95.5669L80.766 93.4113L82.0581 50.9763L101.822 88.5303L111.121 86.3747L110.979 39.8628L105.465 41.1408ZM143.408 80.0104C154.567 77.4237 158.278 68.3741 155.969 58.4106C153.69 48.58 146.375 42.0864 135.216 44.6732C123.991 47.2754 120.264 56.2585 122.558 66.1555C124.883 76.1855 132.182 82.6126 143.408 80.0104ZM127.953 64.9748C125.782 55.6091 128.711 50.7306 136.217 48.9907C143.723 47.2508 148.433 50.3586 150.604 59.7243C152.759 69.0235 149.913 73.953 142.407 75.6929C134.901 77.4328 130.109 74.274 127.953 64.9748ZM179.318 35.08C173.008 36.5428 170.017 41.1555 169.303 47.1306L167.27 38.3627L161.956 39.5945L169.655 72.8062L174.969 71.5744L172.136 59.3525C169.965 49.9868 170.427 42.3204 180.335 40.3737L181.73 40.0503L180.514 34.8029L179.318 35.08ZM197.993 66.2373L203.307 65.0055L192.529 18.5092L187.215 19.741L197.993 66.2373ZM231.023 9.58582L235.566 29.1807C232.214 24.9882 227.413 23.3013 221.302 24.7178C210.874 27.1352 207.816 35.6832 210.187 45.9124C212.543 56.0752 219.065 62.4724 229.494 60.055C235.605 58.6385 239.158 54.9451 240.323 49.7055L241.801 56.0821L247.115 54.8503L236.337 8.35402L231.023 9.58582ZM229.556 55.4911C221.984 57.2464 217.631 53.566 215.567 44.6652C213.489 35.6981 215.794 30.5443 223.366 28.789C230.407 27.1568 235.781 30.1106 237.952 39.4763C240.123 48.842 236.597 53.859 229.556 55.4911Z" fill="#1B191C"/>
<rect width="246.226" height="99.091" transform="translate(159.471 73.7303) rotate(4.00863)" fill="#1B191C"/>
<path d="M225.345 104.586L210.18 138.588C209.362 140.513 208.539 142.506 207.857 144.44C207.451 142.429 206.913 140.341 206.303 138.316L196.097 102.536L190.18 102.122L203.402 148.502L211.564 149.074L231.059 104.986L225.345 104.586ZM248.188 152.734C259.615 153.535 265.818 145.973 266.533 135.77C267.238 125.703 262.151 117.35 250.724 116.549C239.229 115.743 233.03 123.238 232.32 133.373C231.6 143.643 236.693 151.929 248.188 152.734ZM237.825 133.827C238.497 124.236 242.728 120.431 250.414 120.97C258.1 121.509 261.691 125.862 261.019 135.452C260.352 144.974 256.184 148.852 248.498 148.313C240.812 147.775 237.157 143.349 237.825 133.827ZM277.42 113.909L284.426 114.4L284.821 108.754L277.816 108.263L277.42 113.909ZM275.394 153.547L280.836 153.929L283.219 119.92L277.777 119.538L275.394 153.547ZM292.746 137.675C292.016 148.082 297.327 156.178 308.482 156.96C318.821 157.684 324.769 151.813 325.725 144.019L320.556 143.657C319.47 149.391 315.662 153.02 308.792 152.539C301.65 152.038 297.564 147.924 298.255 138.061C298.941 128.267 303.702 124.704 310.912 125.21C317.238 125.653 320.391 129.428 320.816 135.063L325.918 135.42C325.926 127.492 321.221 121.489 311.018 120.774C299.999 120.002 293.475 127.269 292.746 137.675ZM350.348 155.724C343.546 155.247 339.295 151.532 339.54 142.185L366.884 144.101C367.077 143.294 367.124 142.614 367.186 141.73C367.882 131.799 362.592 124.388 352.389 123.673C341.098 122.882 334.968 130.381 334.258 140.516C333.538 150.787 338.154 159.039 349.853 159.859C361.144 160.65 365.537 154.533 366.58 149.411L361.614 149.063C360.294 153.277 357.014 156.191 350.348 155.724ZM352.166 127.827C358.492 128.271 362.276 131.817 362 139.658L339.962 138.113C341.273 130.14 345.705 127.375 352.166 127.827Z" fill="white"/>
<rect width="186.171" height="99.091" transform="translate(393.73 25.2821) rotate(12.2643)" fill="#CFD3D6"/>
<path d="M440.432 62.221L422.042 58.2234L412.411 102.531L430.8 106.529C445.325 109.686 453.642 100.958 456.292 88.765C458.914 76.7053 454.957 65.3785 440.432 62.221ZM430.771 101.848L418.911 99.2694L426.602 63.8897L438.462 66.4678C450.322 69.046 452.944 76.2447 450.496 87.5049C448.048 98.7651 442.564 104.411 430.771 101.848ZM470.497 116.065C478.225 117.745 482.771 113.849 484.906 110.127C484.37 112.592 484.034 115.101 483.677 118.024L488.541 119.081C488.918 115.744 489.416 113.131 489.937 110.732L493.414 94.7412C494.717 88.7446 491.499 83.6491 482.371 81.6648C473.176 79.666 467.194 83.1104 465.459 90.1296L470.722 91.2738C471.997 87.0154 475.128 84.4864 481.658 85.9058C488.121 87.3107 489.288 90.2858 488.55 93.6839C487.999 96.2158 486.331 96.8299 482.669 96.6619L473.903 96.2217C466.447 95.8567 462.776 98.6175 461.603 104.014C460.227 110.344 464.1 114.675 470.497 116.065ZM472.475 112.1C468.544 111.245 466.218 108.786 467.043 104.988C467.825 101.39 470.334 100.121 475.068 100.173L480.844 100.242C483.492 100.26 485.407 100.118 487.333 99.2807L486.71 102.146C485.334 108.475 480.337 113.809 472.475 112.1ZM531.111 93.4464L515.208 116.853L513.513 119.834L513.075 116.39L508.458 88.5218L502.861 87.3052L508.811 123.487L510.677 123.893L505.057 132.091L495.796 130.078L494.854 134.409L501.184 135.785C507.18 137.088 509.049 134.913 512.273 130.031L536.375 94.5906L531.111 93.4464Z" fill="#1B191C"/>
<rect width="232.714" height="99.091" transform="translate(476.703 151.47) rotate(-18.1922)" fill="#EEEEEE"/>
<path d="M531.834 208.633L565.259 197.649L563.811 193.244L538.095 201.695L548.668 184.727C553.856 176.491 555.71 171.432 553.858 165.796C551.793 159.513 545.861 155.003 534.979 158.579C522.023 162.837 520.192 172.769 523.233 182.679L528.804 180.848C526.038 171.996 527.962 165.838 536.512 163.028C542.925 160.92 546.796 163.308 548.244 167.713C549.478 171.47 548.906 174.314 545.866 179.26L530.387 204.228L531.834 208.633ZM593.342 189.64C606.75 185.233 609.517 173.558 605.259 160.603C601.066 147.842 591.849 139.89 578.44 144.296C564.967 148.724 562.308 160.507 566.523 173.333C570.802 186.353 579.868 194.068 593.342 189.64ZM572.158 171.481C568.178 159.368 570.387 151.895 579.909 148.766C589.367 145.658 595.643 150.342 599.624 162.455C603.604 174.568 601.33 182.062 591.873 185.17C582.351 188.299 576.139 183.594 572.158 171.481ZM622.152 178.952L655.577 167.967L654.129 163.562L628.413 172.013L638.986 155.046C644.174 146.81 646.028 141.75 644.176 136.115C642.111 129.831 636.179 125.321 625.297 128.898C612.342 133.155 610.51 143.088 613.551 152.997L619.122 151.167C616.356 142.315 618.28 136.156 626.83 133.346C633.243 131.239 637.114 133.627 638.562 138.032C639.797 141.789 639.224 144.632 636.184 149.579L620.705 174.547L622.152 178.952ZM665.091 164.84L689.642 156.772L688.194 152.368L678.996 155.39L668.054 122.095C666.926 118.662 664.668 117.251 660.198 118.72L651 121.743L652.447 126.148L662.423 122.869L673.684 157.136L663.644 160.436L665.091 164.84Z" fill="#1B191C"/>
<rect width="363.334" height="99.091" transform="translate(17.7969 243.632) rotate(-5.955)" fill="#CFD3D6"/>
<path d="M73.7071 264.117L54.9897 266.069L59.6939 311.167L78.4113 309.215C93.1953 307.673 98.3663 296.782 97.0717 284.371C95.7913 272.096 88.4911 262.575 73.7071 264.117ZM76.9201 304.777L64.8487 306.036L61.0924 270.026L73.1638 268.767C85.2352 267.507 89.9762 273.526 91.1717 284.987C92.3672 296.448 88.9236 303.525 76.9201 304.777ZM105.23 266.519L112.215 265.79L111.628 260.161L104.643 260.89L105.23 266.519ZM110.093 305.91L115.518 305.344L111.981 271.436L106.556 272.002L110.093 305.91ZM124.346 292.975C125.224 300.081 130.252 304.904 141.306 303.751C150.326 302.81 154.787 298.917 154.065 292C153.485 286.439 150.29 283.413 142.371 283.074L135.076 282.806C130.74 282.642 129.307 280.734 129.06 278.361C128.713 275.038 130.846 272.484 136.611 271.883C142.85 271.232 145.759 274.151 146.466 277.642L151.824 277.083C150.752 270.751 145.199 266.806 136.315 267.732C127.77 268.624 123.155 273.013 123.813 279.32C124.357 284.541 128.006 287.314 133.991 287.513L141.978 287.845C146.314 288.01 148.397 289.575 148.736 292.83C149.132 296.628 146.978 298.978 141.01 299.6C133.211 300.414 130.252 297.02 129.364 292.451L124.346 292.975ZM161.98 283.359C163.062 293.735 169.694 300.79 180.816 299.63C191.124 298.555 195.966 291.743 195.56 283.901L190.406 284.439C190.329 290.274 187.206 294.507 180.356 295.222C173.235 295.965 168.499 292.62 167.473 282.786C166.455 273.021 170.527 268.688 177.716 267.938C184.023 267.28 187.781 270.453 189.175 275.929L194.262 275.399C192.898 267.589 187.225 262.49 177.053 263.551C166.066 264.697 160.898 272.983 161.98 283.359ZM222.336 295.299C233.729 294.11 238.53 285.589 237.469 275.416C236.422 265.379 229.966 258.032 218.573 259.22C207.112 260.416 202.303 268.87 203.357 278.975C204.426 289.215 210.875 296.494 222.336 295.299ZM208.858 278.469C207.86 268.907 211.369 264.428 219.032 263.629C226.696 262.829 230.986 266.495 231.983 276.057C232.973 285.551 229.539 290.091 221.876 290.891C214.213 291.69 209.848 287.964 208.858 278.469ZM270.611 254.889L271.963 267.842C273.137 279.1 269.794 285.824 262.741 286.56C257.519 287.104 253.991 285.484 253.205 277.957L251.012 256.934L245.587 257.499L247.844 279.133C248.77 288.017 253.103 292.09 261.648 291.198C268.226 290.512 271.845 286.433 273.25 280.185L274.148 288.797L279.574 288.232L276.037 254.323L270.611 254.889ZM306.512 250.047C299.799 250.748 295.99 254.984 294.531 261.375L293.605 252.491L288.179 253.057L291.716 286.965L297.142 286.399L295.791 273.446C294.574 261.782 297.967 255.532 305.494 254.747C310.445 254.23 313.859 256.068 314.616 263.324L316.809 284.348L322.234 283.782L319.977 262.148C319.065 253.4 314.99 249.163 306.512 250.047ZM344.751 281.433L352.753 280.598L352.294 276.19L341.511 277.315L338.879 252.087L350.069 250.92L349.623 246.647L338.434 247.815L337.648 240.287L334.732 240.591L333.433 247.856L326.693 250.273L327.011 253.325L333.454 252.653L335.718 274.354C336.283 279.78 338.241 282.112 344.751 281.433Z" fill="#1B191C"/>
<rect width="248.195" height="99.3636" transform="translate(403.568 235.174) rotate(8.4365)" fill="#1B191C"/>
<path d="M427.806 291.769L427.196 295.883L460.919 300.885L461.529 296.771L427.806 291.769ZM469.068 302.3C467.96 311.166 472.807 318.916 484.61 320.666C497.965 322.647 503.847 315.523 504.957 308.037C506.237 299.404 500.45 294.272 493.84 293.291C491.75 292.981 490.216 293.098 489.164 293.218L506.67 281.615L507.35 277.028L475.246 272.267L474.565 276.853L500.06 280.634L480.108 293.391L482.276 297.366C485.089 296.06 487.512 295.524 490.952 296.034C497.292 296.974 499.959 301.299 499.109 307.032C498.059 314.114 493.327 317.203 485.436 316.032C477.612 314.872 474.238 309.271 474.936 303.171L469.068 302.3ZM514.31 309.011C513.202 317.876 518.05 325.626 529.853 327.377C543.207 329.357 549.089 322.234 550.199 314.747C551.48 306.114 545.693 300.982 539.083 300.002C536.992 299.691 535.458 299.809 534.406 299.928L551.912 288.325L552.593 283.739L520.488 278.977L519.808 283.563L545.303 287.345L525.351 300.102L527.518 304.076C530.332 302.77 532.755 302.234 536.195 302.744C542.535 303.684 545.202 308.009 544.351 313.742C543.301 320.824 538.569 323.913 530.678 322.743C522.854 321.582 519.48 315.981 520.178 309.881L514.31 309.011ZM556.675 330.183L562.273 331.013L608.396 298.426C610.167 297.172 610.732 296.153 610.882 295.141C611.162 293.253 610.001 292.253 607.977 291.953L565.823 285.701L563.162 303.642L581.845 306.413L583.906 292.519L604.477 295.57L556.795 329.374L556.675 330.183ZM568.146 300.245L569.607 290.398L579.657 291.889L578.196 301.736L568.146 300.245ZM585.34 334.435L604.023 337.206L606.674 319.332L587.991 316.561L585.34 334.435ZM590.324 331.038L591.795 321.123L601.777 322.604L600.306 332.518L590.324 331.038Z" fill="white"/>
</g>
<defs>
<clipPath id="clip0">
<rect width="737.304" height="362.296" fill="white"/>
</clipPath>
</defs>
</svg>
