<svg width="1200" height="1200" viewBox="0 0 1200 1200" fill="none" xmlns="http://www.w3.org/2000/svg">
<rect width="1200" height="1200" fill="#1B191C"/>
<circle cx="600.002" cy="494.379" r="444.379" fill="#CFD3D6"/>
<path opacity="0.9" d="M629.608 386.113C549.394 386.113 498.193 414.273 464.059 451.821L476.859 254.698H803.69V196.671H414.565L396.645 511.555H462.353C501.606 462.914 550.247 437.314 615.954 437.314C702.996 437.314 753.343 487.661 753.343 578.969C753.343 664.303 706.409 719.771 599.741 719.771C493.926 719.771 452.112 671.13 446.992 603.716H374.458C379.578 706.97 448.699 778.651 599.741 778.651C764.436 778.651 827.584 689.904 827.584 578.115C827.584 456.941 749.93 386.113 629.608 386.113Z" fill="white"/>
<path opacity="0.9" d="M102.8 1041H112.04L84.32 967.85H70.79L43.07 1041H52.2L59.35 1022.3H95.65L102.8 1041ZM62.1 1014.93L77.5 974.45L92.9 1014.93H62.1ZM164.706 964V996.45C160.966 988.64 154.036 984.24 143.916 984.24C126.646 984.24 118.726 996.56 118.726 1013.5C118.726 1030.33 126.646 1042.76 143.916 1042.76C154.036 1042.76 160.966 1038.25 164.706 1030.44V1041H173.506V964H164.706ZM145.676 1035.61C133.136 1035.61 127.636 1028.24 127.636 1013.5C127.636 998.65 133.136 991.39 145.676 991.39C157.336 991.39 164.706 997.99 164.706 1013.5C164.706 1029.01 157.336 1035.61 145.676 1035.61ZM228.675 986L210.085 1033.3L191.605 986H182.365L204.035 1041H215.695L237.365 986H228.675ZM260.542 1042.43C273.302 1042.43 279.132 1034.73 281.222 1028.13C281.222 1032.2 281.552 1036.27 281.992 1041H290.022C289.472 1035.61 289.362 1031.32 289.362 1027.36V1000.96C289.362 991.06 282.542 984.13 267.472 984.13C252.292 984.13 244.042 991.61 243.712 1003.27H252.402C252.952 996.12 257.022 991.06 267.802 991.06C278.472 991.06 281.332 995.35 281.332 1000.96C281.332 1005.14 278.912 1006.68 273.082 1007.67L259.112 1009.98C247.232 1011.96 242.392 1017.57 242.392 1026.48C242.392 1036.93 249.982 1042.43 260.542 1042.43ZM262.302 1035.5C255.812 1035.5 251.302 1032.42 251.302 1026.15C251.302 1020.21 254.822 1017.35 262.302 1015.81L271.432 1013.94C275.612 1013.06 278.582 1012.18 281.332 1010.2V1014.93C281.332 1025.38 275.282 1035.5 262.302 1035.5ZM333.796 984.24C322.906 984.24 316.086 990.4 312.676 1000.41V986H303.876V1041H312.676V1019.99C312.676 1001.07 319.166 991.61 331.376 991.61C339.406 991.61 344.576 995.13 344.576 1006.9V1041H353.376V1005.91C353.376 991.72 347.546 984.24 333.796 984.24ZM385.185 1041H398.165V1033.85H380.675V992.93H398.825V986H380.675V973.79H375.945L372.645 985.23L361.425 987.98V992.93H371.875V1028.13C371.875 1036.93 374.625 1041 385.185 1041ZM425.757 1042.43C438.517 1042.43 444.347 1034.73 446.437 1028.13C446.437 1032.2 446.767 1036.27 447.207 1041H455.237C454.687 1035.61 454.577 1031.32 454.577 1027.36V1000.96C454.577 991.06 447.757 984.13 432.687 984.13C417.507 984.13 409.257 991.61 408.927 1003.27H417.617C418.167 996.12 422.237 991.06 433.017 991.06C443.687 991.06 446.547 995.35 446.547 1000.96C446.547 1005.14 444.127 1006.68 438.297 1007.67L424.327 1009.98C412.447 1011.96 407.607 1017.57 407.607 1026.48C407.607 1036.93 415.197 1042.43 425.757 1042.43ZM427.517 1035.5C421.027 1035.5 416.517 1032.42 416.517 1026.15C416.517 1020.21 420.037 1017.35 427.517 1015.81L436.647 1013.94C440.827 1013.06 443.797 1012.18 446.547 1010.2V1014.93C446.547 1025.38 440.497 1035.5 427.517 1035.5ZM512.425 986V995.46C508.685 988.42 501.975 984.46 491.965 984.46C474.695 984.46 466.555 995.24 466.555 1012.07C466.555 1029.01 474.695 1039.79 491.965 1039.79C501.865 1039.79 508.685 1036.27 512.425 1029.12V1041C512.425 1052.77 507.035 1057.28 494.055 1057.28C481.845 1057.28 477.225 1051.78 476.565 1044.52H467.875C468.865 1057.06 477.665 1064.21 494.055 1064.21C514.075 1064.21 521.225 1055.74 521.225 1041.11V986H512.425ZM494.055 1032.86C481.515 1032.86 475.575 1026.92 475.575 1012.07C475.575 997.22 481.515 991.39 494.055 991.39C505.715 991.39 512.425 997.22 512.425 1012.07C512.425 1027.03 505.715 1032.86 494.055 1032.86ZM560.122 1036.05C549.122 1036.05 541.862 1030.55 541.202 1015.48H585.422C585.642 1014.16 585.642 1013.06 585.642 1011.63C585.642 995.57 576.292 984.24 559.792 984.24C541.532 984.24 532.512 997 532.512 1013.39C532.512 1030 540.872 1042.76 559.792 1042.76C578.052 1042.76 584.432 1032.42 585.532 1024.06H577.502C575.852 1030.99 570.902 1036.05 560.122 1036.05ZM559.902 990.95C570.132 990.95 576.622 996.23 577.062 1008.88H541.422C542.632 995.9 549.452 990.95 559.902 990.95ZM594.254 1022.63C594.474 1034.18 601.734 1042.76 619.664 1042.76C634.294 1042.76 642.104 1037.26 642.104 1026.04C642.104 1017.02 637.484 1011.63 624.834 1009.76L613.174 1008.11C606.244 1007.12 604.264 1003.82 604.264 999.97C604.264 994.58 608.114 990.84 617.464 990.84C627.584 990.84 631.764 996.01 632.314 1001.73H641.004C640.344 991.39 632.094 984.13 617.684 984.13C603.824 984.13 595.684 990.4 595.684 1000.63C595.684 1009.1 601.074 1014.16 610.644 1015.48L623.404 1017.35C630.334 1018.34 633.414 1021.2 633.414 1026.48C633.414 1032.64 629.564 1036.05 619.884 1036.05C607.234 1036.05 603.054 1030.11 602.394 1022.63H594.254ZM72 1152.76C90.48 1152.76 99.61 1139.89 99.61 1123.39C99.61 1107.11 90.48 1094.24 72 1094.24C53.41 1094.24 44.28 1107 44.28 1123.39C44.28 1140 53.41 1152.76 72 1152.76ZM53.19 1123.5C53.19 1107.99 59.57 1101.39 72 1101.39C84.43 1101.39 90.7 1107.99 90.7 1123.5C90.7 1138.9 84.43 1145.61 72 1145.61C59.57 1145.61 53.19 1138.9 53.19 1123.5ZM114.599 1151H123.399V1102.93H139.459V1096H122.739V1080.71H142.539V1074H128.569C118.009 1074 114.599 1077.74 114.599 1085.11V1095.67L105.359 1097.98V1102.93H114.599V1151ZM214.782 1096V1117.01C214.782 1135.27 208.292 1145.5 196.852 1145.5C188.382 1145.5 182.992 1142.31 182.992 1130.1V1096H174.192V1131.09C174.192 1145.5 180.462 1152.76 194.322 1152.76C204.992 1152.76 211.482 1146.82 214.782 1137.03V1151H223.582V1096H214.782ZM235.035 1132.63C235.255 1144.18 242.515 1152.76 260.445 1152.76C275.075 1152.76 282.885 1147.26 282.885 1136.04C282.885 1127.02 278.265 1121.63 265.615 1119.76L253.955 1118.11C247.025 1117.12 245.045 1113.82 245.045 1109.97C245.045 1104.58 248.895 1100.84 258.245 1100.84C268.365 1100.84 272.545 1106.01 273.095 1111.73H281.785C281.125 1101.39 272.875 1094.13 258.465 1094.13C244.605 1094.13 236.465 1100.4 236.465 1110.63C236.465 1119.1 241.855 1124.16 251.425 1125.48L264.185 1127.35C271.115 1128.34 274.195 1131.2 274.195 1136.48C274.195 1142.64 270.345 1146.05 260.665 1146.05C248.015 1146.05 243.835 1140.11 243.175 1132.63H235.035ZM293.75 1086.98H305.08V1077.85H293.75V1086.98ZM294.96 1151H303.76V1096H294.96V1151ZM348.727 1094.24C337.837 1094.24 331.017 1100.4 327.607 1110.41V1096H318.807V1151H327.607V1129.99C327.607 1111.07 334.097 1101.61 346.307 1101.61C354.337 1101.61 359.507 1105.13 359.507 1116.9V1151H368.307V1115.91C368.307 1101.72 362.477 1094.24 348.727 1094.24ZM426.273 1096V1105.46C422.533 1098.42 415.823 1094.46 405.813 1094.46C388.543 1094.46 380.403 1105.24 380.403 1122.07C380.403 1139.01 388.543 1149.79 405.813 1149.79C415.713 1149.79 422.533 1146.27 426.273 1139.12V1151C426.273 1162.77 420.883 1167.28 407.903 1167.28C395.693 1167.28 391.073 1161.78 390.413 1154.52H381.723C382.713 1167.06 391.513 1174.21 407.903 1174.21C427.923 1174.21 435.073 1165.74 435.073 1151.11V1096H426.273ZM407.903 1142.86C395.363 1142.86 389.423 1136.92 389.423 1122.07C389.423 1107.22 395.363 1101.39 407.903 1101.39C419.563 1101.39 426.273 1107.22 426.273 1122.07C426.273 1137.03 419.563 1142.86 407.903 1142.86ZM484.223 1143.63V1077.85H475.093V1151H522.503V1143.63H484.223ZM588.239 1151H597.479L569.759 1077.85H556.229L528.509 1151H537.639L544.789 1132.3H581.089L588.239 1151ZM547.539 1124.93L562.939 1084.45L578.339 1124.93H547.539ZM616.352 1143.63V1077.85H607.222V1151H654.632V1143.63H616.352ZM720.368 1151H729.608L701.888 1077.85H688.358L660.638 1151H669.768L676.918 1132.3H713.218L720.368 1151ZM679.668 1124.93L695.068 1084.45L710.468 1124.93H679.668ZM748.481 1143.63V1077.85H739.351V1151H786.761V1143.63H748.481ZM791.544 1151H802.984V1141.32H791.544V1151ZM868.933 1151H878.173L850.453 1077.85H836.923L809.203 1151H818.333L825.483 1132.3H861.783L868.933 1151ZM828.233 1124.93L843.633 1084.45L859.033 1124.93H828.233ZM925.805 1085.22V1077.85H885.765V1085.22H901.275V1143.63H885.765V1151H925.805V1143.63H910.295V1085.22H925.805Z" fill="white"/>
</svg>
