<svg width="1200" height="1200" viewBox="0 0 1200 1200" fill="none" xmlns="http://www.w3.org/2000/svg">
<g clip-path="url(#clip0)">
<rect width="1200" height="1200" fill="#323033"/>
<rect width="403" height="128" transform="translate(316.525 254) rotate(8.77458)" fill="#EEEEEE"/>
<path d="M339.186 347.177L343.247 320.869L384.449 327.228L385.557 320.053L344.355 313.694L348.097 289.451L392.56 296.314L393.684 289.03L340.198 280.774L329.039 353.068L382.852 361.374L383.976 354.091L339.186 347.177ZM396.782 363.525L405.479 364.867L417.225 288.768L408.528 287.426L396.782 363.525ZM445.571 366.047C434.7 364.369 428.364 357.826 430.011 342.831L473.713 349.577C474.132 348.306 474.3 347.219 474.518 345.806C476.968 329.933 469.456 317.31 453.149 314.793C435.102 312.007 424.241 323.242 421.741 339.44C419.207 355.856 425.523 369.742 444.222 372.628C462.268 375.413 470.151 366.168 472.513 358.073L464.577 356.848C461.889 363.446 456.225 367.691 445.571 366.047ZM452.234 321.441C462.344 323.002 467.953 329.21 466.458 341.779L431.235 336.342C434.411 323.699 441.906 319.847 452.234 321.441ZM483.088 349.02C480.52 365.653 487.973 379.381 505.802 382.133C522.326 384.684 532.676 376.041 535.258 363.64L526.996 362.365C524.482 371.437 517.873 376.762 506.893 375.067C495.478 373.305 489.46 366.143 491.893 350.38C494.31 334.725 502.441 329.636 513.965 331.415C524.075 332.975 528.638 339.467 528.567 348.583L536.72 349.842C537.797 337.097 531.036 326.815 514.729 324.298C497.118 321.58 485.655 332.387 483.088 349.02ZM560.269 388.759L573.097 390.739L574.188 383.673L556.902 381.005L563.145 340.564L581.082 343.333L582.139 336.484L564.202 333.715L566.064 321.648L561.39 320.926L556.383 331.729L544.875 332.735L544.12 337.627L554.448 339.222L549.078 374.01C547.736 382.707 549.833 387.148 560.269 388.759ZM621.901 341.842C611.574 340.248 604.329 345.363 599.674 353.882L601.889 339.532L593.192 338.19L584.802 392.546L593.499 393.889L596.587 373.885C598.953 358.557 604.244 347.353 620.25 350.38L622.532 350.732L623.858 342.144L621.901 341.842ZM647.537 404.01C665.801 406.829 676.787 395.503 679.304 379.196C681.788 363.106 674.728 348.994 656.464 346.175C638.092 343.339 627.122 354.557 624.622 370.756C622.088 387.171 629.165 401.175 647.537 404.01ZM633.411 372.223C635.777 356.895 643.089 351.345 655.373 353.242C667.658 355.138 672.848 362.617 670.482 377.945C668.132 393.165 660.912 398.84 648.628 396.944C636.343 395.048 631.061 387.443 633.411 372.223Z" fill="#1B191C"/>
<rect width="239" height="130" transform="translate(36.0859 202) rotate(3.12453)" fill="#EEEEEE"/>
<path d="M95.7803 228.142L62.2802 226.313L58.2931 299.354L67.5193 299.858L69.1741 269.543L93.0087 270.844C109.155 271.725 116.059 262.298 116.694 250.655C117.336 238.902 111.487 228.999 95.7803 228.142ZM91.5431 263.383L69.5758 262.184L71.1047 234.175L93.4016 235.393C103.946 235.968 107.612 241.456 107.139 250.133C106.683 258.481 102.417 263.977 91.5431 263.383ZM149.216 306.08C167.669 307.087 177.487 294.734 178.386 278.259C179.274 262.003 170.859 248.654 152.406 247.647C133.844 246.634 124.032 258.877 123.138 275.243C122.233 291.828 130.654 305.067 149.216 306.08ZM132.029 275.838C132.875 260.351 139.605 254.109 152.016 254.786C164.428 255.464 170.329 262.396 169.483 277.883C168.644 293.26 162.018 299.618 149.606 298.941C137.195 298.263 131.19 291.215 132.029 275.838ZM221.371 251.412C211.266 250.86 204.101 254.986 199.941 262.58L200.516 252.036L191.729 251.556L187.532 328.442L196.319 328.921L198.088 296.52C201.397 304.522 208.077 309.293 218.182 309.845C235.426 310.786 244.006 298.916 244.929 282.001C245.846 265.196 238.616 252.353 221.371 251.412ZM216.814 302.609C205.171 301.974 198.172 294.982 199.017 279.495C199.863 264.008 207.582 257.819 219.224 258.455C231.746 259.139 236.836 266.797 236.032 281.515C235.223 296.343 229.335 303.293 216.814 302.609Z" fill="#1B191C"/>
<rect width="411" height="130" transform="translate(571 491.566) rotate(-5.10423)" fill="#EEEEEE"/>
<path d="M657.925 506.742L596.569 512.222L597.225 519.563L623.52 517.214L629.382 582.843L638.367 582.04L632.505 516.412L658.581 514.083L657.925 506.742ZM685.172 572.78C674.216 573.758 666.495 568.926 664.497 553.974L708.542 550.04C708.643 548.706 708.545 547.61 708.418 546.186C706.989 530.19 696.668 519.736 680.234 521.204C662.046 522.829 654.197 536.341 655.655 552.666C657.133 569.21 666.595 581.176 685.44 579.492C703.628 577.868 709.063 567.001 709.414 558.576L701.416 559.291C700.389 566.34 695.909 571.82 685.172 572.78ZM680.94 527.878C691.13 526.968 698.064 531.649 699.627 544.21L664.129 547.381C664.179 534.345 670.532 528.808 680.94 527.878ZM717.509 547.251C719.006 564.015 729.534 575.554 747.503 573.949C764.157 572.461 772.131 561.589 771.663 548.93L763.336 549.674C763.072 559.085 757.933 565.839 746.867 566.827C735.363 567.855 727.803 562.345 726.383 546.459C724.974 530.681 731.648 523.79 743.261 522.753C753.451 521.843 759.438 527.051 761.555 535.918L769.772 535.184C767.761 522.553 758.731 514.193 742.297 515.661C724.547 517.246 716.011 530.488 717.509 547.251ZM809.183 509.686C798.336 510.655 792.091 517.398 789.585 527.671L786.346 491.406L777.581 492.189L784.431 568.883L793.196 568.1L791.327 547.174C789.644 528.329 795.266 518.329 807.428 517.242C815.426 516.528 820.889 519.574 821.936 531.297L824.97 565.262L833.735 564.479L830.613 529.528C829.351 515.395 822.878 508.463 809.183 509.686ZM873.059 503.981C862.212 504.95 855.968 511.692 853.462 521.966L852.18 507.613L843.414 508.396L848.308 563.178L857.073 562.395L855.204 541.468C853.52 522.623 859.143 512.623 871.305 511.537C879.303 510.822 884.765 513.869 885.812 525.592L888.846 559.557L897.611 558.774L894.49 523.823C893.227 509.689 886.755 502.757 873.059 503.981ZM936.035 557.109C954.442 555.465 962.39 541.833 960.922 525.399C959.474 509.183 949.235 497.177 930.828 498.821C912.312 500.475 904.354 513.996 905.812 530.321C907.29 546.865 917.519 558.763 936.035 557.109ZM914.696 529.638C913.316 514.19 919.084 507.048 931.465 505.942C943.845 504.837 950.678 510.853 952.058 526.301C953.428 541.64 947.779 548.881 935.399 549.987C923.018 551.093 916.066 544.977 914.696 529.638Z" fill="#1B191C"/>
<rect width="399" height="130" transform="translate(686 370.992) rotate(-37.1563)" fill="#EEEEEE"/>
<path d="M749.334 411.981C758.038 423.465 771.967 428.368 790.903 414.017C807.122 401.726 809.11 390.144 800.672 379.01C793.563 369.629 784.585 369.256 772.978 375.43L756.764 384.267C749.392 388.198 744.476 386.265 741.021 381.706C736.104 375.218 737.1 367.425 747.444 359.585C758.403 351.281 767.365 352.908 774.134 360.2L781.147 354.885C771.854 344.261 758.468 342.26 743.214 353.821C728.135 365.248 726.681 378.081 733.79 387.462C740.434 396.229 748.867 397.705 760.166 391.488L775.525 383.161C783.819 378.808 789.388 379.418 794.039 385.555C799.155 392.305 798.595 399.216 786.585 408.318C773.084 418.55 763.454 415.496 756.436 406.599L749.334 411.981ZM836.757 378.991C846.927 371.284 846.923 361.626 844.602 355.103C847.06 358.347 849.782 361.391 852.989 364.895L859.389 360.045C855.695 356.082 853.016 352.729 850.625 349.573L834.679 328.532C828.7 320.642 819.078 319.238 807.068 328.34C794.97 337.509 792.912 348.453 799.692 357.946L806.618 352.697C802.737 346.666 802.925 340.175 811.517 333.664C820.02 327.22 824.891 328.911 828.279 333.382C830.804 336.714 829.805 339.403 825.757 343.713L816.018 353.992C807.746 362.745 807.277 370.14 812.658 377.241C818.97 385.57 828.341 385.369 836.757 378.991ZM833.974 372.404C828.802 376.324 823.347 376.594 819.56 371.596C815.973 366.862 817.051 362.457 822.082 356.712L828.229 349.707C831.029 346.481 832.864 343.986 833.86 340.747L836.717 344.516C843.029 352.845 844.319 364.565 833.974 372.404ZM889.889 265.713C881.122 272.357 879.559 280.857 882.863 290.499C875.457 283.276 867.621 282.589 859.117 289.033C850.701 295.411 849.225 303.845 852.396 313.311L844.224 302.528L837.211 307.843L870.43 351.678L877.444 346.362L864.754 329.618C853.327 314.539 851.996 303.677 861.377 296.568C867.777 291.718 873.784 291.996 880.495 300.851L901.29 328.291L908.128 323.109L895.438 306.364C884.011 291.285 882.593 280.49 892.149 273.248C898.549 268.398 904.468 268.742 911.179 277.597L931.974 305.037L938.988 299.722L917.594 271.493C909.09 260.271 899.883 258.139 889.889 265.713ZM939.862 227.842C931.796 233.954 928.931 241.647 930.667 250.13L911.067 224.268L904.054 229.583L950.561 290.951L957.575 285.636L951.197 277.22C958.895 281.185 967.142 280.594 975.207 274.482C988.971 264.051 987.776 249.361 977.611 235.947C967.379 222.446 953.626 217.411 939.862 227.842ZM969.486 269.846C960.193 276.889 950.333 276.08 940.965 263.719C931.597 251.357 933.485 241.646 942.778 234.603C952.772 227.029 961.54 229.494 970.509 241.329C979.412 253.076 979.48 262.272 969.486 269.846ZM1017.66 241.895C1027.83 234.188 1027.83 224.53 1025.5 218.008C1027.96 221.251 1030.68 224.296 1033.89 227.8L1040.29 222.95C1036.6 218.986 1033.92 215.633 1031.53 212.477L1015.58 191.437C1009.6 183.547 999.981 182.143 987.971 191.245C975.872 200.413 973.815 211.358 980.595 220.85L987.52 215.601C983.64 209.571 983.828 203.08 992.419 196.569C1000.92 190.124 1005.79 191.816 1009.18 196.287C1011.71 199.618 1010.71 202.307 1006.66 206.618L996.921 216.896C988.649 225.65 988.18 233.044 993.561 240.146C999.873 248.474 1009.24 248.273 1017.66 241.895ZM1014.88 235.309C1009.7 239.229 1004.25 239.498 1000.46 234.501C996.875 229.767 997.953 225.361 1002.98 219.616L1009.13 212.611C1011.93 209.385 1013.77 206.89 1014.76 203.651L1017.62 207.421C1023.93 215.749 1025.22 227.469 1014.88 235.309Z" fill="#1B191C"/>
<rect width="372" height="130" transform="translate(198 480.418) rotate(-14.7031)" fill="#EEEEEE"/>
<path d="M281.156 518.728C287.949 515.581 292.78 508.854 290.1 498.64C287.532 488.851 280.28 482.452 265.171 486.417L230.379 495.546L248.946 566.301L283.525 557.227C298.208 553.374 303.276 544.084 300.233 532.487C297.301 521.315 289.174 517.647 281.156 518.728ZM265.233 494.02C275.128 491.424 279.085 494.366 281.179 502.346C283.217 510.113 280.262 515.323 270.261 517.948L247.279 523.978L241.081 500.358L265.233 494.02ZM280.803 550.322L255.906 556.855L249.038 530.681L272.233 524.595C282.872 521.803 288.519 525.552 290.725 533.958C292.707 541.512 290.698 547.725 280.803 550.322ZM340.117 537.26C329.477 540.052 321.059 536.575 316.595 522.166L359.367 510.942C359.245 509.609 358.966 508.545 358.603 507.162C354.527 491.628 342.607 483.042 326.647 487.23C308.985 491.865 303.499 506.496 307.659 522.35C311.875 538.416 323.2 548.636 341.5 543.834C359.163 539.199 362.709 527.579 361.651 519.213L353.884 521.251C354.047 528.373 350.544 534.524 340.117 537.26ZM328.457 493.693C338.352 491.096 345.97 494.556 349.606 506.68L315.133 515.726C313.009 502.864 318.349 496.345 328.457 493.693ZM391.49 470.215C381.701 472.784 376.115 478.799 374.479 487.302L366.243 455.915L357.731 458.148L377.275 532.627L385.787 530.394L383.106 520.179C388.706 526.784 396.554 529.388 406.343 526.819C423.047 522.436 427.553 508.403 423.281 492.124C418.982 475.739 408.194 465.832 391.49 470.215ZM402.825 520.35C391.547 523.309 382.743 518.796 378.807 503.794C374.87 488.792 380.324 480.537 391.602 477.578C403.731 474.395 410.894 480.022 414.663 494.385C418.404 508.643 414.955 517.167 402.825 520.35ZM466.715 510.977C484.59 506.287 490.154 491.521 485.967 475.561C481.834 459.814 469.737 449.683 451.862 454.374C433.881 459.092 428.288 473.751 432.448 489.605C436.664 505.671 448.734 515.696 466.715 510.977ZM441.095 487.45C437.158 472.447 441.654 464.444 453.677 461.289C465.7 458.135 473.44 462.927 477.376 477.929C481.285 492.825 476.923 500.907 464.9 504.061C452.877 507.216 445.003 502.345 441.095 487.45ZM518.668 436.843C508.88 439.412 503.321 445.533 501.686 454.037L499.006 443.822L490.494 446.056L510.037 520.535L518.549 518.301L510.313 486.914C515.913 493.519 523.733 496.016 533.521 493.447C550.226 489.064 554.759 475.137 550.46 458.752C546.188 442.473 535.373 432.46 518.668 436.843ZM530.004 486.978C518.726 489.937 509.922 485.424 505.986 470.422C502.049 455.42 507.503 447.165 518.781 444.206C530.91 441.023 538.101 446.756 541.842 461.013C545.611 475.377 542.134 483.795 530.004 486.978Z" fill="#1B191C"/>
<rect width="299" height="130" transform="translate(1139.27 229) rotate(72.9246)" fill="#EEEEEE"/>
<path d="M1090 329.612C1100.3 326.447 1102.01 320.746 1101.86 313.54C1106.04 320.772 1114.34 324.553 1123.7 321.678C1134.95 318.222 1139.93 308.981 1135.51 294.575L1125.49 261.978L1055.57 283.457L1058.25 292.185L1089.59 282.559L1095.63 302.223C1098.6 311.897 1096.14 318.519 1086.15 321.587L1079.74 323.558C1074.69 325.108 1071.38 326.7 1069.3 328.146L1071.91 336.664C1074.35 335.225 1077.49 333.456 1082.64 331.873L1090 329.612ZM1103.11 303.375L1096.1 280.557L1121.13 272.87L1128.17 295.793C1130.98 304.941 1128.25 310.269 1120.15 312.756C1112.16 315.211 1106.12 313.154 1103.11 303.375ZM1081.69 374.499C1087.12 392.165 1102.1 397.113 1117.88 392.268C1133.44 387.488 1143.06 374.981 1137.63 357.316C1132.18 339.545 1117.3 334.565 1101.63 339.377C1085.75 344.254 1076.23 356.729 1081.69 374.499ZM1104.14 347.927C1118.97 343.373 1127.15 347.533 1130.8 359.415C1134.45 371.297 1129.98 379.229 1115.15 383.783C1100.43 388.305 1092.18 384.282 1088.53 372.4C1084.88 360.518 1089.42 352.449 1104.14 347.927ZM1120.48 401.124C1104.39 406.066 1095.29 418.759 1100.59 436.004C1105.5 451.986 1117.79 457.532 1130.07 454.449L1127.62 446.457C1118.36 448.151 1110.68 444.524 1107.42 433.904C1104.03 422.863 1107.85 414.325 1123.1 409.641C1138.24 404.99 1146.36 410.089 1149.79 421.235C1152.79 431.014 1148.94 437.951 1140.7 441.862L1143.13 449.748C1155.07 445.16 1161.37 434.593 1156.53 418.82C1151.29 401.786 1136.57 396.182 1120.48 401.124ZM1125.22 510.194L1128.48 520.814L1151.12 486.244L1180.17 502.521L1180.38 502.457L1177.18 492.047L1147.2 475.364C1145.1 474.166 1142.66 472.96 1140.18 471.997L1189.39 456.881L1186.81 448.468L1113.2 471.078L1115.78 479.49L1130.82 474.871L1144.45 482.536L1125.22 510.194Z" fill="#1B191C"/>
<rect width="232" height="130" transform="translate(997 1091.15) rotate(-77.1037)" fill="#EEEEEE"/>
<path d="M1071.87 1081.91C1085.92 1085.12 1099.74 1079.94 1105.05 1056.78C1109.59 1036.94 1103.68 1026.79 1090.06 1023.67C1078.58 1021.04 1071.46 1026.52 1066.53 1038.71L1059.77 1055.89C1056.64 1063.64 1051.63 1065.31 1046.06 1064.04C1038.12 1062.22 1033.88 1055.61 1036.78 1042.95C1039.85 1029.55 1047.76 1025.04 1057.64 1026.29L1059.6 1017.71C1045.65 1015.53 1034.11 1022.59 1029.83 1041.25C1025.61 1059.69 1032.74 1070.46 1044.21 1073.09C1054.93 1075.55 1062.35 1071.26 1067.02 1059.24L1073.44 1043C1077.01 1034.33 1081.67 1031.23 1089.18 1032.94C1097.43 1034.84 1101.44 1040.49 1098.08 1055.18C1094.3 1071.69 1084.95 1075.54 1073.86 1073.22L1071.87 1081.91ZM1121.93 975.627L1124.41 964.798L1087.53 983.436L1070.5 954.823L1070.29 954.774L1067.86 965.389L1085.49 994.818C1086.71 996.902 1088.22 999.166 1089.89 1001.24L1039.71 989.752L1037.74 998.33L1112.8 1015.52L1114.77 1006.94L1099.43 1003.43L1091.45 989.976L1121.93 975.627ZM1131.14 941.845C1133.98 929.406 1127.78 922.005 1121.81 918.495C1125.78 919.403 1129.82 919.99 1134.53 920.616L1136.32 912.789C1130.95 912.122 1126.74 911.272 1122.88 910.388L1097.14 904.496C1087.49 902.286 1079.22 907.388 1075.85 922.078C1072.47 936.875 1077.92 946.586 1089.21 949.51L1091.15 941.039C1084.3 938.907 1080.28 933.811 1082.68 923.303C1085.06 912.902 1089.88 911.071 1095.35 912.323C1099.43 913.256 1100.39 915.959 1100.05 921.863L1099.19 935.996C1098.46 948.018 1102.85 953.988 1111.54 955.977C1121.72 958.309 1128.78 952.138 1131.14 941.845ZM1124.77 938.582C1123.33 944.909 1119.32 948.617 1113.2 947.218C1107.41 945.892 1105.41 941.823 1105.58 934.188L1105.8 924.871C1105.87 920.6 1105.68 917.508 1104.36 914.386L1108.97 915.441C1119.16 917.774 1127.67 925.93 1124.77 938.582Z" fill="#1B191C"/>
<rect width="365" height="130" transform="translate(-6 73.0234) rotate(-12.182)" fill="#EEEEEE"/>
<path d="M34.1066 136.919C37.1474 151.005 47.7038 161.33 70.9288 156.316C90.8205 152.022 97.5129 142.362 94.5649 128.707C92.0813 117.202 84.1003 113.073 70.9715 113.769L52.5424 114.934C44.1996 115.385 40.5599 111.556 39.3528 105.965C37.6352 98.0085 41.8275 91.3643 54.5152 88.6252C67.9556 85.7237 75.3928 90.9828 78.4496 100.451L87.0514 98.594C83.1126 85.0399 71.823 77.5741 53.114 81.613C34.62 85.6055 27.8836 96.6251 30.3673 108.13C32.6885 118.882 39.7103 123.781 52.5776 122.916L70.0158 121.853C79.3727 121.408 84.1635 124.313 85.7883 131.839C87.5757 140.118 84.1507 146.147 69.42 149.327C52.8614 152.902 45.4218 146.068 42.8159 135.039L34.1066 136.919ZM175.451 75.7966L171.687 126.124L144.485 82.4817L135.56 84.4083L128.785 135.386L104.701 91.0701L95.6694 93.0199L123.726 143.23L135.984 140.584L141.959 93.7177L166.843 133.922L179.101 131.276L183.838 73.9861L175.451 75.7966ZM191.399 63.126L202.474 60.7352L200.548 51.8108L189.473 54.2016L191.399 63.126ZM206.092 125.449L214.693 123.592L203.087 69.8306L194.486 71.6876L206.092 125.449ZM246.671 58.6212C236.026 60.9192 230.66 68.3797 229.439 78.8838L226.398 64.7983L217.796 66.6553L229.402 120.417L238.004 118.56L233.571 98.0229C229.578 79.529 233.926 68.9125 245.861 66.3359C253.71 64.6415 259.506 66.9912 261.99 78.4962L269.186 111.828L277.788 109.971L270.383 75.6715C267.389 61.8011 260.111 55.7197 246.671 58.6212ZM322.842 43.9781L324.838 53.225C319.697 47.1328 312.302 44.6779 302.518 46.7902C285.637 50.4344 279.955 62.6894 283.506 79.1404C287.081 95.699 297.312 104.519 314.193 100.874C323.87 98.7852 329.794 93.9053 331.941 86.1271L334.448 97.7396C336.932 109.245 332.615 114.79 319.927 117.529C307.992 120.106 302.315 115.705 300.138 108.747L291.644 110.581C295.258 122.63 305.368 127.762 321.389 124.303C340.959 120.079 346.16 110.291 343.073 95.9901L331.444 42.1211L322.842 43.9781ZM314.774 93.6593C302.516 96.3054 295.457 91.7526 292.323 77.237C289.189 62.7214 293.765 55.7693 306.023 53.1231C317.42 50.6626 325.21 54.9454 328.343 69.461C331.5 84.0841 326.171 91.1988 314.774 93.6593Z" fill="#1B191C"/>
<rect width="387" height="130" transform="translate(253.637 149.32) rotate(-14.609)" fill="#EEEEEE"/>
<path d="M341.874 149.935L282.265 165.472L284.124 172.604L309.671 165.945L326.29 229.705L335.018 227.43L318.399 163.67L343.733 157.067L341.874 149.935ZM376.073 158.982C365.961 161.618 361.341 169.188 360.451 178.855L356.788 164.804L348.273 167.024L362.145 220.246L370.661 218.026L365.556 198.44C361.644 183.432 362.053 171.048 377.946 167.474L380.181 166.892L377.989 158.482L376.073 158.982ZM416.206 207.632C428.553 204.414 432.253 195.493 432.61 188.579C433.637 192.517 434.983 196.372 436.602 200.839L444.372 198.813C442.48 193.736 441.292 189.613 440.293 185.781L433.634 160.234C431.137 150.654 422.79 145.668 408.207 149.469C393.518 153.298 387.421 162.617 390.043 173.983L398.452 171.792C397.181 164.734 399.843 158.811 410.274 156.092C420.599 153.401 424.449 156.831 425.864 162.26C426.918 166.304 424.965 168.405 419.573 170.833L406.637 176.592C395.641 181.505 392.372 188.154 394.62 196.776C397.255 206.888 405.987 210.296 416.206 207.632ZM416.161 200.483C409.881 202.12 404.74 200.277 403.158 194.209C401.66 188.461 404.345 184.806 411.195 181.429L419.558 177.317C423.381 175.411 426.033 173.81 428.194 171.201L429.387 175.778C432.023 185.89 428.721 197.209 416.161 200.483ZM472.415 132.848C461.877 135.594 456.831 143.275 456.056 153.822L452.421 139.878L443.906 142.097L457.778 195.319L466.294 193.099L460.994 172.769C456.222 154.46 460.116 143.669 471.932 140.59C479.702 138.564 485.593 140.667 488.561 152.056L497.162 185.054L505.678 182.834L496.827 148.878C493.248 135.147 485.72 129.38 472.415 132.848ZM509.095 153.524C513.34 169.81 525.629 179.452 543.086 174.902C559.265 170.685 565.335 158.645 562.783 146.238L554.693 148.346C555.987 157.671 552.033 165.181 541.282 167.984C530.106 170.897 521.74 166.712 517.717 151.277C513.722 135.949 519.165 128.051 530.448 125.11C540.348 122.53 547.113 126.678 550.665 135.073L558.648 132.992C554.578 120.867 544.292 114.113 528.326 118.274C511.082 122.769 504.85 137.239 509.095 153.524ZM601.894 152.64C591.25 155.414 582.837 151.923 578.398 137.507L621.188 126.354C621.068 125.021 620.79 123.956 620.43 122.573C616.379 107.032 604.474 98.4265 588.507 102.588C570.838 107.194 565.327 121.816 569.461 137.676C573.651 153.749 584.959 163.988 603.267 159.216C620.937 154.611 624.503 142.996 623.458 134.629L615.688 136.654C615.839 143.776 612.326 149.921 601.894 152.64ZM590.306 109.053C600.205 106.473 607.817 109.946 611.434 122.076L576.946 131.065C574.843 118.199 580.194 111.689 590.306 109.053Z" fill="#1B191C"/>
<rect width="320" height="130" transform="translate(-16 609.246) rotate(-58.6381)" fill="#EEEEEE"/>
<path d="M70.4626 579.134C73.1711 572.154 71.9829 563.958 62.9657 558.463C54.3243 553.196 44.6623 553.619 36.533 566.957L17.8127 597.672L80.2753 635.742L98.8811 605.215C106.781 592.253 103.985 582.046 93.7466 575.806C83.8841 569.795 75.4871 572.793 70.4626 579.134ZM41.853 572.389C47.1771 563.654 52.0676 563.028 59.1123 567.321C65.9691 571.5 67.4568 577.302 62.0755 586.132L49.7098 606.42L28.8576 593.711L41.853 572.389ZM92.1299 602.131L78.7337 624.11L55.6273 610.027L68.1075 589.551C73.8323 580.158 80.5002 578.94 87.9206 583.463C94.5895 587.527 97.454 593.395 92.1299 602.131ZM117.738 574.276L122.318 566.762L56.5681 526.688L51.9882 534.202L117.738 574.276ZM104.186 490.832L122.126 501.766C137.719 511.269 143.076 522.135 137.122 531.904C132.714 539.136 127.185 542.079 116.759 535.724L87.6412 517.977L83.0613 525.491L113.025 543.754C125.329 551.253 134.792 549.678 142.005 537.843C147.558 528.732 145.864 520.098 139.221 512.185L151.15 519.456L155.73 511.942L108.766 483.317L104.186 490.832ZM172.406 475.07C166.682 484.463 158.207 487.8 144.995 480.52L168.009 442.761C166.996 441.886 166.057 441.313 164.836 440.569C151.122 432.211 136.582 434.298 127.994 448.387C118.491 463.98 124.692 478.323 138.688 486.853C152.871 495.497 168.118 494.999 177.964 478.844C187.468 463.252 181.959 452.422 175.393 447.132L171.213 453.989C176.272 459.005 178.017 465.865 172.406 475.07ZM133.781 451.786C139.105 443.05 146.991 440.256 158.022 446.464L139.474 476.897C129.02 469.109 128.343 460.709 133.781 451.786ZM178.711 438.94C188.688 444.764 199.793 443.03 209.124 427.719C216.738 415.227 216.106 405.695 206.526 399.856C198.823 395.162 191.817 396.302 183.636 406.13L176.159 415.228C171.707 420.63 167.859 420.603 164.571 418.6C159.968 415.795 158.779 410.561 163.645 402.577C168.912 393.935 175.502 393.057 180.672 395.564L185.195 388.143C176.022 383.326 165.529 386.592 158.03 398.897C150.816 410.732 151.934 420.946 160.669 426.27C167.902 430.678 175.028 428.709 181.135 421.224L189.373 411.301C193.825 405.899 197.87 404.758 202.379 407.505C207.639 410.711 208.547 415.774 203.509 424.039C196.925 434.841 189.678 435.319 182.947 431.99L178.711 438.94Z" fill="#1B191C"/>
<rect width="401" height="130" transform="translate(730 709.352) rotate(-32.144)" fill="#EEEEEE"/>
<path d="M834.118 759.512C848.275 750.617 850.403 738.497 847.427 727.765L856.908 742.853L863.894 738.464L844.756 708.008L809.27 730.306L812.899 736.08L840.84 718.523C846.328 731.184 845.634 743.312 831.198 752.384C815.178 762.45 802.574 757.898 791.747 740.667C780.744 723.157 782.566 709.931 798.306 700.04C811.998 691.436 821.97 692.835 831.045 703.762L839.055 698.728C827.57 684.379 812.989 681.85 794.548 693.438C773.126 706.898 771.88 727.038 783.644 745.759C795.466 764.573 813.628 772.388 834.118 759.512ZM899.016 718.603C914.663 708.771 915.546 693.016 906.767 679.045C898.106 665.26 883.528 659.221 867.88 669.053C852.14 678.944 851.198 694.606 859.919 708.483C868.756 722.547 883.275 728.494 899.016 718.603ZM867.521 703.836C859.269 690.703 861.16 681.721 871.684 675.107C882.209 668.494 891.03 670.746 899.282 683.879C907.475 696.918 905.736 705.935 895.212 712.549C884.687 719.162 875.715 716.875 867.521 703.836ZM919.204 682.143C925.536 691.805 936.248 695.207 951.43 685.668C963.817 677.884 967.503 669.072 961.534 659.571C956.735 651.934 949.955 649.828 938.249 654.975L927.499 659.782C921.104 662.631 917.672 660.89 915.624 657.63C912.756 653.067 914.026 647.851 921.943 642.877C930.511 637.492 936.801 639.646 940.31 644.197L947.668 639.573C941.608 631.169 930.76 629.411 918.559 637.078C906.824 644.453 903.267 654.092 908.71 662.754C913.217 669.926 920.472 671.342 929.278 667.368L941.077 662.163C947.471 659.314 951.601 660.097 954.41 664.567C957.687 669.783 956.242 674.719 948.046 679.869C937.335 686.6 930.635 683.794 926.097 677.812L919.204 682.143ZM974.658 601.957C966.09 607.341 962.622 614.847 963.61 623.45L957.992 614.509L950.541 619.191L991.508 684.387L998.959 679.705L981.695 652.23C989.017 656.853 997.225 656.891 1005.79 651.507C1020.42 642.318 1020.57 627.673 1011.55 613.33C1002.6 599.079 989.281 592.768 974.658 601.957ZM1000.5 646.389C990.627 652.593 980.875 650.926 972.623 637.793C964.371 624.661 967.1 615.151 976.972 608.947C987.59 602.275 996.168 605.59 1004.01 618.07C1011.91 630.644 1011.12 639.717 1000.5 646.389ZM1054.98 612.675C1045.67 618.528 1036.59 617.733 1028.02 605.325L1065.46 581.797C1064.94 580.563 1064.36 579.631 1063.6 578.421C1055.05 564.822 1041.11 560.204 1027.13 568.982C1011.67 578.698 1010.83 594.301 1019.55 608.178C1028.38 622.242 1042.25 628.599 1058.27 618.532C1073.73 608.817 1073.63 596.667 1070.12 589.004L1063.32 593.276C1065.61 600.022 1064.11 606.94 1054.98 612.675ZM1030.8 574.605C1039.46 569.163 1047.76 570.18 1054.87 580.657L1024.69 599.619C1018.81 587.985 1021.95 580.165 1030.8 574.605ZM1089.32 596.945L1096.77 592.263L1055.8 527.066L1048.35 531.748L1089.32 596.945Z" fill="#1B191C"/>
<rect width="326" height="130" transform="translate(453.512 907.238) rotate(1.08338)" fill="#EEEEEE"/>
<path d="M510.909 931.176L480.554 930.602L479.171 1003.74L509.526 1004.31C533.501 1004.77 543.934 988.351 544.314 968.225C544.691 948.318 534.884 931.63 510.909 931.176ZM508.015 996.913L488.439 996.543L489.543 938.144L509.12 938.514C528.696 938.884 535.097 949.457 534.746 968.044C534.394 986.63 527.482 997.282 508.015 996.913ZM556.192 941.164L567.52 941.379L567.693 932.25L556.365 932.036L556.192 941.164ZM556.192 1005.2L564.99 1005.36L566.03 950.372L557.231 950.206L556.192 1005.2ZM576.855 987.213C576.857 998.765 583.953 1007.48 601.88 1007.82C616.507 1008.1 624.42 1002.75 624.632 991.527C624.803 982.509 620.285 977.033 607.673 974.924L596.046 973.054C589.136 971.933 587.219 968.596 587.292 964.747C587.394 959.358 591.314 955.691 600.662 955.868C610.78 956.059 614.862 961.307 615.304 967.037L623.992 967.201C623.528 956.85 615.416 949.436 601.009 949.163C587.151 948.901 578.894 955.016 578.701 965.244C578.541 973.713 583.834 978.874 593.377 980.375L606.1 982.485C613.01 983.606 616.035 986.524 615.935 991.803C615.819 997.962 611.905 1001.3 602.227 1001.12C589.579 1000.88 585.512 994.858 584.994 987.367L576.855 987.213ZM634.299 979.168C633.981 995.995 643.204 1008.6 661.241 1008.94C677.958 1009.26 687.058 999.309 687.957 986.674L679.598 986.516C678.322 995.843 672.484 1002 661.376 1001.79C649.828 1001.58 642.906 995.284 643.208 979.336C643.507 963.499 650.884 957.368 662.542 957.588C672.77 957.782 678.161 963.605 679.311 972.648L687.559 972.804C686.92 960.03 678.845 950.745 662.348 950.433C644.531 950.096 634.617 962.341 634.299 979.168ZM723.862 1010.13C742.339 1010.48 751.71 997.781 752.022 981.284C752.33 965.007 743.445 951.967 724.968 951.617C706.382 951.266 697.012 963.851 696.702 980.238C696.388 996.845 705.275 1009.78 723.862 1010.13ZM705.609 980.517C705.902 965.009 712.405 958.531 724.833 958.766C737.261 959.001 743.405 965.719 743.112 981.226C742.821 996.623 736.425 1003.21 723.997 1002.98C711.569 1002.74 705.317 995.914 705.609 980.517Z" fill="#1B191C"/>
<rect width="264" height="130" transform="translate(151.42 601) rotate(10.3788)" fill="#EEEEEE"/>
<path d="M157.909 699.787L178.684 703.592C189.071 705.495 193.05 702.086 194.636 693.43L205.495 634.136L196.623 632.511L184.772 697.215L159.237 692.538L157.909 699.787ZM222.365 713.046C234.916 715.345 242.038 708.821 245.283 702.706C244.549 706.709 244.141 710.772 243.721 715.504L251.62 716.951C252.05 711.55 252.715 707.31 253.428 703.415L258.184 677.447C259.968 667.709 254.508 659.663 239.684 656.949C224.753 654.214 215.29 660.085 212.865 671.495L221.413 673.06C223.242 666.127 228.157 661.883 238.761 663.825C249.256 665.747 251.296 670.482 250.286 676C249.533 680.112 246.875 681.191 240.962 681.114L226.804 680.87C214.762 680.677 208.99 685.323 207.385 694.087C205.503 704.366 211.978 711.144 222.365 713.046ZM225.344 706.547C218.961 705.377 215.079 701.535 216.209 695.368C217.279 689.525 221.257 687.346 228.892 687.179L238.209 686.984C242.479 686.872 245.559 686.541 248.621 685.089L247.769 689.742C245.886 700.021 238.112 708.885 225.344 706.547ZM274.164 714.258L318.226 680.056L319.435 673.456L272.368 664.836L271.159 671.436L307.947 678.174L263.668 712.336L262.459 718.936L310.068 727.655L311.276 721.055L274.164 714.258ZM332.596 724.96L376.659 690.758L377.867 684.158L330.8 675.538L329.591 682.138L366.38 688.876L322.101 723.038L320.892 729.638L368.5 738.357L369.709 731.757L332.596 724.96Z" fill="#1B191C"/>
<rect width="387" height="130" transform="translate(81.0156 648.039) rotate(57.0243)" fill="#EEEEEE"/>
<path d="M108.235 731.977L74.7076 680.301L68.5249 684.312L82.894 706.459L27.6188 742.322L32.5282 749.889L87.8034 714.026L102.053 735.989L108.235 731.977ZM110.426 767.285C104.738 758.519 96.0979 756.519 86.6426 758.72L98.8235 750.817L94.0338 743.435L47.8942 773.37L52.6839 780.753L69.6633 769.737C82.6746 761.295 94.5567 757.782 102.956 771.738L104.214 773.676L111.504 768.946L110.426 767.285ZM76.8992 820.703C83.8442 831.407 93.4769 832.107 100.151 830.268C96.7369 832.483 93.5022 834.975 89.7737 837.919L94.1443 844.655C98.3666 841.26 101.906 838.833 105.228 836.678L127.375 822.309C135.68 816.92 137.781 807.427 129.579 794.785C121.317 782.05 110.551 779.201 100.59 785.27L105.32 792.56C111.618 789.13 118.078 789.79 123.945 798.833C129.753 807.785 127.71 812.519 123.004 815.572C119.497 817.847 116.888 816.655 112.885 812.303L103.343 801.841C95.2161 792.953 87.8755 791.946 80.4009 796.796C71.6344 802.483 71.1515 811.844 76.8992 820.703ZM83.6707 818.407C80.1383 812.963 80.2674 807.503 85.5273 804.091C90.5104 800.857 94.8255 802.254 100.189 807.691L106.727 814.332C109.74 817.36 112.095 819.372 115.253 820.601L111.285 823.176C102.518 828.864 90.7355 829.296 83.6707 818.407ZM165.586 850.484C159.659 841.348 150.779 838.98 140.525 841.567L152.614 833.724L147.824 826.342L101.685 856.278L106.474 863.66L124.1 852.224C139.972 841.927 151.44 842.222 158.086 852.465C162.457 859.201 162.318 865.454 152.444 871.861L123.837 890.421L128.627 897.803L158.064 878.704C169.968 870.981 173.07 862.019 165.586 850.484ZM157.52 891.811C143.401 900.971 138.123 915.673 147.942 930.806C157.042 944.833 170.381 946.799 181.353 940.468L176.802 933.455C168.36 937.621 159.987 936.235 153.94 926.915C147.653 917.225 148.989 907.967 162.37 899.286C175.658 890.664 184.869 893.342 191.216 903.123C196.784 911.705 194.979 919.433 188.13 925.449L192.621 932.37C202.846 924.687 206.015 912.797 197.034 898.955C187.335 884.006 171.639 882.651 157.52 891.811ZM187.6 979.604C181.613 970.376 182.276 961.292 194.559 952.536L218.627 989.632C219.854 989.099 220.777 988.5 221.976 987.721C235.449 978.98 239.865 964.97 230.884 951.128C220.946 935.81 205.332 935.188 191.582 944.109C177.648 953.149 171.494 967.107 181.792 982.979C191.73 998.298 203.877 998.022 211.489 994.395L207.118 987.658C200.407 990.046 193.468 988.647 187.6 979.604ZM225.315 954.872C230.883 963.454 229.986 971.773 219.613 979.027L200.215 949.128C211.763 943.079 219.627 946.106 225.315 954.872Z" fill="#1B191C"/>
<rect width="343" height="130" transform="translate(402 648.32) rotate(-7.93)" fill="#EEEEEE"/>
<path d="M511.574 656.127L495.994 658.297L481.089 725.9L448.166 664.959L432.369 667.16L442.461 739.61L451.503 738.351L442.352 672.655L476.017 734.936L488.219 733.237L503.472 664.141L512.623 729.837L521.666 728.578L511.574 656.127ZM568.476 666.526L571.375 687.335C573.894 705.421 568.878 716.448 557.547 718.026C549.158 719.195 543.379 716.779 541.695 704.686L536.99 670.912L528.275 672.126L533.116 706.88C535.104 721.153 542.315 727.478 556.043 725.566C566.611 724.094 572.219 717.315 574.137 707.164L576.064 721L584.78 719.786L577.192 665.312L568.476 666.526ZM593.59 700.012C595.401 711.421 603.776 718.917 621.534 716.443C636.024 714.425 643.001 707.9 641.453 696.787C640.209 687.854 634.889 683.153 622.102 683.046L610.326 683.02C603.326 682.996 600.909 680 600.378 676.187C599.634 670.849 602.932 666.613 612.192 665.323C622.215 663.927 627.069 668.471 628.403 674.061L637.01 672.862C634.929 662.712 625.757 656.659 611.484 658.647C597.757 660.559 590.56 667.892 591.971 678.025C593.14 686.414 599.176 690.682 608.837 690.669L621.733 690.76C628.733 690.785 632.178 693.193 632.907 698.422C633.757 704.523 630.414 708.432 620.826 709.767C608.297 711.512 603.338 706.206 601.652 698.889L593.59 700.012ZM645.445 646.698L656.666 645.135L655.407 636.092L644.185 637.655L645.445 646.698ZM655.476 709.939L664.191 708.724L656.604 654.25L647.888 655.464L655.476 709.939ZM672.897 679.746C675.219 696.415 686.303 707.421 704.171 704.933C720.731 702.626 728.159 691.373 727.068 678.753L718.788 679.907C718.988 689.319 714.188 696.318 703.184 697.851C691.745 699.444 683.922 694.315 681.722 678.517C679.536 662.829 685.862 655.617 697.41 654.008C707.542 652.597 713.779 657.503 716.331 666.255L724.502 665.117C721.87 652.6 712.439 644.696 696.097 646.972C678.447 649.431 670.575 663.077 672.897 679.746Z" fill="#1B191C"/>
<rect width="534" height="130" transform="translate(229 793.918) rotate(-7.52343)" fill="#EEEEEE"/>
<path d="M299.786 815.053L298.821 807.747L259.126 812.989L260.091 820.296L275.467 818.265L283.115 876.172L267.738 878.203L268.703 885.51L308.399 880.267L307.434 872.96L292.057 874.991L284.41 817.084L299.786 815.053ZM343.985 818.314C333.189 819.74 327.234 826.74 325.164 837.11L323.277 822.824L314.553 823.977L321.754 878.503L330.479 877.351L327.728 856.522C325.25 837.765 330.446 827.536 342.551 825.938C350.512 824.886 356.098 827.699 357.639 839.368L362.104 873.174L370.828 872.022L366.234 837.234C364.376 823.166 357.617 816.514 343.985 818.314ZM417.899 788.137L422.147 820.308C417.417 813.054 409.971 809.6 399.938 810.925C382.816 813.186 376.578 826.437 378.796 843.231C380.999 859.916 390.479 871.202 407.6 868.941C417.633 867.616 423.913 862.237 426.598 854.005L427.98 864.474L436.705 863.322L426.623 786.985L417.899 788.137ZM408.409 861.622C395.977 863.264 389.559 856.678 387.629 842.064C385.685 827.342 390.187 819.425 402.619 817.783C414.178 816.256 422.349 821.834 424.38 837.211C426.411 852.587 419.968 860.095 408.409 861.622ZM483.949 801.605L486.7 822.434C489.091 840.537 483.996 851.528 472.655 853.026C464.257 854.135 458.496 851.678 456.898 839.574L452.433 805.767L443.709 806.919L448.303 841.707C450.19 855.993 457.356 862.37 471.097 860.555C481.675 859.158 487.331 852.419 489.321 842.282L491.15 856.131L499.875 854.979L492.673 800.453L483.949 801.605ZM508.824 835.268C510.555 846.689 518.876 854.245 536.651 851.897C551.155 849.982 558.178 843.507 556.709 832.383C555.528 823.441 550.242 818.702 537.456 818.504L525.68 818.395C518.681 818.321 516.286 815.309 515.781 811.492C515.076 806.148 518.403 801.937 527.672 800.712C537.705 799.387 542.526 803.965 543.82 809.564L552.436 808.426C550.427 798.262 541.298 792.145 527.012 794.031C513.271 795.846 506.022 803.128 507.362 813.27C508.471 821.667 514.477 825.978 524.137 826.033L537.032 826.216C544.032 826.29 547.46 828.723 548.151 833.957C548.958 840.064 545.588 843.949 535.991 845.216C523.45 846.873 518.528 841.531 516.894 834.202L508.824 835.268ZM587.242 843.441L600.111 841.741L599.174 834.653L581.835 836.943L576.477 796.375L594.471 793.998L593.564 787.128L575.57 789.505L573.971 777.4L569.282 778.019L567.508 789.793L556.745 793.988L557.393 798.895L567.753 797.527L572.362 832.424C573.514 841.148 576.773 844.823 587.242 843.441ZM633.231 781.113C622.871 782.481 617.353 789.423 615.277 798.907L613.375 784.512L604.651 785.664L611.852 840.19L620.577 839.038L617.927 818.972C615.896 803.596 617.83 791.357 634.042 789.771L636.332 789.469L635.194 780.853L633.231 781.113ZM642.207 771.606L653.44 770.122L652.244 761.071L641.012 762.554L642.207 771.606ZM651.789 834.916L660.513 833.764L653.312 779.237L644.588 780.389L651.789 834.916ZM691.231 831.149C703.881 829.479 708.653 821.082 709.861 814.265C710.393 818.3 711.254 822.291 712.309 826.923L720.27 825.872C719.019 820.6 718.348 816.362 717.83 812.436L714.373 786.263C713.077 776.448 705.408 770.471 690.468 772.444C675.419 774.431 668.219 782.927 669.419 794.53L678.034 793.392C677.643 786.232 681.015 780.682 691.702 779.271C702.281 777.874 705.678 781.753 706.412 787.314C706.96 791.458 704.762 793.302 699.112 795.047L685.565 799.166C674.046 802.684 669.982 808.88 671.149 817.713C672.517 828.073 680.762 832.532 691.231 831.149ZM692.068 824.049C685.634 824.898 680.76 822.435 679.939 816.219C679.161 810.33 682.276 807.034 689.49 804.528L698.297 801.479C702.326 800.059 705.155 798.798 707.622 796.475L708.241 801.164C709.61 811.524 704.937 822.349 692.068 824.049ZM733.789 824.086L742.513 822.934L732.432 746.597L723.707 747.749L733.789 824.086Z" fill="#1B191C"/>
<rect width="594" height="130" transform="translate(748 1027.39) rotate(-48.8663)" fill="#EEEEEE"/>
<path d="M875.43 1027.42L881.508 1020.46L808.178 993.221L799.278 1003.41L836.138 1072.41L842.144 1065.53L832.763 1047.85L856.642 1020.51L875.43 1027.42ZM829.021 1040.93L808.663 1002.7L849.282 1017.73L829.021 1040.93ZM888.771 1012.15L894.56 1005.52L836.566 954.866L830.777 961.494L888.771 1012.15ZM916.609 980.274L925.147 970.497L919.762 965.794L908.257 978.967L877.437 952.049L889.376 938.379L884.156 933.82L872.217 947.49L863.021 939.458L859.909 943.021L866.355 953.032L861.045 963.292L864.774 966.548L871.648 958.677L898.16 981.832C904.788 987.621 909.662 988.227 916.609 980.274ZM943.938 941.457C936.702 949.742 927.784 951.592 915.999 942.176L945.088 908.871C944.238 907.837 943.41 907.113 942.333 906.172C930.237 895.608 915.553 895.197 904.699 907.624C892.687 921.377 896.364 936.565 908.709 947.346C921.219 958.273 936.329 960.37 948.775 946.12C960.786 932.367 957.196 920.76 951.623 914.432L946.34 920.48C950.474 926.281 951.029 933.338 943.938 941.457ZM909.825 911.956C916.554 904.251 924.8 902.836 934.618 910.826L911.173 937.669C902.193 928.219 902.951 919.826 909.825 911.956ZM948.9 858.521C942.026 866.391 942.469 875.249 947.174 883.74L936.238 874.189L930.449 880.817L971.874 916.997L977.663 910.369L962.419 897.054C950.737 886.852 944.105 876.386 955.228 864.486L956.748 862.746L950.202 857.029L948.9 858.521ZM976.223 825.732C969.06 833.934 969.213 843.123 974.509 852.276L963.656 842.796L957.867 849.424L999.292 885.604L1005.08 878.976L989.256 865.156C975.006 852.71 972.15 841.599 980.182 832.402C985.465 826.354 991.517 824.776 1000.38 832.519L1026.06 854.95L1031.85 848.322L1005.42 825.239C994.737 815.905 985.268 815.375 976.223 825.732ZM1053.06 826.22C1061.45 816.61 1059.49 807.154 1055.89 801.238C1058.95 803.915 1062.24 806.344 1066.09 809.124L1071.37 803.076C1066.95 799.945 1063.65 797.205 1060.66 794.6L1040.78 777.234C1033.32 770.722 1023.62 771.3 1013.7 782.65C1003.72 794.083 1003.93 805.217 1012.49 813.136L1018.21 806.591C1013.18 801.473 1012.05 795.079 1019.14 786.96C1026.16 778.924 1031.27 779.592 1035.5 783.282C1038.65 786.032 1038.21 788.867 1035.12 793.91L1027.67 805.951C1021.35 816.201 1022.39 823.537 1029.1 829.398C1036.97 836.272 1046.11 834.174 1053.06 826.22ZM1048.99 820.336C1044.72 825.224 1039.44 826.595 1034.72 822.47C1030.24 818.563 1030.4 814.03 1034.16 807.384L1038.76 799.277C1040.85 795.55 1042.14 792.734 1042.46 789.36L1046.02 792.472C1053.89 799.346 1057.53 810.56 1048.99 820.336ZM1091.71 779.784L1100.25 770.008L1094.87 765.305L1083.36 778.478L1052.54 751.56L1064.48 737.89L1059.26 733.331L1047.32 747.001L1038.13 738.969L1035.01 742.532L1041.46 752.543L1036.15 762.802L1039.88 766.058L1046.75 758.188L1073.27 781.343C1079.89 787.132 1084.77 787.738 1091.71 779.784ZM1059.03 719.885L1066.48 711.352L1059.61 705.346L1052.15 713.879L1059.03 719.885ZM1108.04 761.087L1113.83 754.46L1072.41 718.28L1066.62 724.908L1108.04 761.087ZM1109.37 675.962L1132.76 721.079L1084.98 703.883L1078.9 710.842L1134.58 730.7L1142.25 721.918L1115.08 669.417L1109.37 675.962ZM1173.88 678.184C1166.64 686.469 1157.72 688.319 1145.94 678.903L1175.03 645.597C1174.18 644.563 1173.35 643.84 1172.27 642.899C1160.18 632.334 1145.49 631.923 1134.64 644.351C1122.63 658.104 1126.3 673.291 1138.65 684.073C1151.16 694.999 1166.27 697.096 1178.72 682.846C1190.73 669.093 1187.14 657.486 1181.56 651.158L1176.28 657.206C1180.42 663.008 1180.97 670.065 1173.88 678.184ZM1139.77 648.682C1146.5 640.977 1154.74 639.562 1164.56 647.552L1141.11 674.395C1132.13 664.945 1132.89 656.553 1139.77 648.682Z" fill="#1B191C"/>
<rect width="460" height="130" transform="translate(-1.07617 1077.15) rotate(-13.2655)" fill="#EEEEEE"/>
<path d="M82.2826 1158.05C105.087 1152.67 112.406 1138.18 109.318 1119.81L100.218 1121.95C102.662 1136.63 96.4936 1146.9 80.3268 1150.71C62.5541 1154.9 51.9122 1146.68 47.2174 1126.76C42.5225 1106.85 48.5828 1094.68 66.3556 1090.49C81.7729 1086.86 91.3869 1092.16 96.1671 1105.73L105.161 1103.61C99.2827 1086.35 86.7764 1077.88 64.8281 1083.05C40.3102 1088.83 32.8545 1107.54 37.9027 1128.96C43.0014 1150.58 57.7647 1163.83 82.2826 1158.05ZM152.719 1141.33C170.706 1137.09 176.639 1122.47 172.853 1106.41C169.117 1090.56 157.277 1080.13 139.29 1084.37C121.196 1088.64 115.238 1103.15 118.999 1119.11C122.81 1135.27 134.625 1145.6 152.719 1141.33ZM127.696 1117.17C124.137 1102.07 128.833 1094.18 140.931 1091.33C153.029 1088.48 160.647 1093.47 164.206 1108.56C167.739 1123.55 163.176 1131.52 151.078 1134.37C138.98 1137.22 131.23 1132.16 127.696 1117.17ZM217.083 1067.84L221.904 1088.29C226.094 1106.06 222.125 1117.51 210.99 1120.13C202.746 1122.08 196.768 1120.21 193.966 1108.33L186.141 1075.14L177.576 1077.16L185.628 1111.31C188.934 1125.33 196.703 1130.96 210.193 1127.78C220.579 1125.33 225.532 1118.06 226.498 1107.78L229.703 1121.37L238.269 1119.35L225.648 1065.82L217.083 1067.84ZM268.948 1053.81C258.348 1056.3 253.124 1063.87 252.102 1074.39L248.795 1060.37L240.23 1062.38L252.85 1115.92L261.416 1113.9L256.595 1093.45C252.253 1075.03 256.399 1064.34 268.283 1061.53C276.099 1059.69 281.939 1061.93 284.64 1073.39L292.464 1106.58L301.03 1104.56L292.978 1070.4C289.722 1056.59 282.331 1050.65 268.948 1053.81ZM331.99 1097.26L344.623 1094.28L342.983 1087.32L325.959 1091.34L316.57 1051.51L334.236 1047.34L332.645 1040.6L314.98 1044.76L312.178 1032.88L307.574 1033.96L306.987 1045.86L296.698 1051.11L297.833 1055.92L308.005 1053.53L316.082 1087.79C318.101 1096.35 321.712 1099.68 331.99 1097.26ZM371.512 1030.64C361.341 1033.04 356.545 1040.5 355.428 1050.14L352.096 1036.01L343.531 1038.03L356.151 1091.56L364.716 1089.54L360.072 1069.84C356.513 1054.75 357.213 1042.38 373.185 1039.18L375.433 1038.65L373.439 1030.19L371.512 1030.64ZM424.571 1018.93L417.694 1064.06L417.3 1069.58L414.268 1064.87L388.169 1027.51L379.176 1029.63L412.995 1078.16L415.993 1077.46L413.512 1093.3L398.63 1096.81L400.271 1103.77L410.442 1101.37C420.078 1099.1 421.285 1094.63 422.585 1085.28L433.03 1016.93L424.571 1018.93Z" fill="#1B191C"/>
<rect width="630" height="130" transform="translate(481.676 1035.81) rotate(6.9751)" fill="#EEEEEE"/>
<path d="M544.799 1102.13C552.274 1101.71 559.248 1097.25 560.531 1086.77C561.76 1076.72 557.385 1068.1 541.88 1066.2L506.177 1061.83L497.293 1134.44L532.779 1138.78C547.847 1140.62 555.988 1133.86 557.444 1121.96C558.847 1110.5 552.649 1104.09 544.799 1102.13ZM539.129 1073.29C549.284 1074.53 551.873 1078.73 550.871 1086.91C549.896 1094.89 545.226 1098.64 534.963 1097.38L511.379 1094.49L514.344 1070.26L539.129 1073.29ZM532.8 1131.36L507.251 1128.23L510.537 1101.37L534.34 1104.29C545.258 1105.62 549.12 1111.19 548.065 1119.82C547.117 1127.57 542.955 1132.6 532.8 1131.36ZM592.038 1147.8C610.381 1150.05 621.007 1138.38 623.01 1122C624.988 1105.85 617.488 1091.96 599.145 1089.72C580.692 1087.46 570.08 1099.02 568.09 1115.29C566.073 1131.77 573.586 1145.55 592.038 1147.8ZM576.921 1116.48C578.804 1101.08 585.938 1095.31 598.276 1096.81C610.614 1098.32 616.037 1105.64 614.153 1121.03C612.283 1136.32 605.244 1142.22 592.906 1140.71C580.568 1139.2 575.051 1131.76 576.921 1116.48ZM630.705 1132.25C629.521 1143.75 635.685 1153.14 653.483 1155.32C668.004 1157.1 676.424 1152.59 677.787 1141.45C678.882 1132.5 674.951 1126.59 662.622 1123.19L651.248 1120.14C644.49 1118.32 642.925 1114.8 643.393 1110.98C644.047 1105.63 648.323 1102.38 657.604 1103.52C667.649 1104.75 671.17 1110.39 671.022 1116.13L679.647 1117.19C680.248 1106.84 672.94 1098.64 658.637 1096.89C644.88 1095.2 636.039 1100.44 634.796 1110.59C633.768 1119 638.503 1124.68 647.842 1127.15L660.281 1130.55C667.039 1132.38 669.749 1135.59 669.108 1140.83C668.36 1146.95 664.124 1149.86 654.516 1148.69C641.959 1147.15 638.532 1140.75 638.785 1133.24L630.705 1132.25ZM687.324 1139.18C686.14 1150.67 692.304 1160.07 710.101 1162.25C724.623 1164.03 733.043 1159.51 734.406 1148.38C735.501 1139.42 731.57 1133.51 719.241 1130.12L707.867 1127.07C701.109 1125.24 699.544 1121.73 700.012 1117.91C700.666 1112.56 704.942 1109.31 714.223 1110.45C724.268 1111.67 727.789 1117.31 727.64 1123.06L736.266 1124.11C736.867 1113.77 729.559 1105.56 715.256 1103.81C701.499 1102.13 692.657 1107.36 691.415 1117.52C690.387 1125.93 695.122 1131.6 704.461 1134.08L716.899 1137.48C723.658 1139.31 726.368 1142.52 725.727 1147.76C724.979 1153.87 720.743 1156.79 711.135 1155.61C698.578 1154.08 695.151 1147.68 695.404 1140.17L687.324 1139.18ZM760.885 1168.13C773.55 1169.68 780.272 1162.74 783.148 1156.45C782.654 1160.49 782.487 1164.57 782.35 1169.31L790.32 1170.29C790.429 1164.87 790.841 1160.6 791.322 1156.67L794.528 1130.47C795.73 1120.64 789.802 1112.93 774.843 1111.1C759.776 1109.26 750.678 1115.68 748.935 1127.22L757.561 1128.27C758.975 1121.24 763.629 1116.71 774.329 1118.02C784.92 1119.32 787.238 1123.92 786.557 1129.49C786.049 1133.64 783.46 1134.87 777.553 1135.15L763.406 1135.75C751.374 1136.27 745.888 1141.25 744.806 1150.09C743.537 1160.47 750.403 1166.85 760.885 1168.13ZM763.473 1161.46C757.031 1160.68 752.929 1157.07 753.69 1150.85C754.412 1144.95 758.253 1142.54 765.864 1141.92L775.154 1141.17C779.41 1140.81 782.465 1140.29 785.435 1138.66L784.86 1143.36C783.591 1153.73 776.357 1163.04 763.473 1161.46ZM890.206 1108.81L882.071 1175.31C881.052 1171.86 879.746 1168.04 878.633 1165.36L852.646 1104.22L837.36 1102.35L828.476 1174.96L837.539 1176.07L845.674 1109.57C846.528 1112.56 847.669 1115.91 849.098 1119.63L875.099 1180.66L890.276 1182.52L899.159 1109.91L890.206 1108.81ZM929.725 1189.12C948.069 1191.36 958.694 1179.7 960.698 1163.32C962.675 1147.16 955.175 1133.28 936.832 1131.03C918.38 1128.77 907.768 1140.33 905.777 1156.6C903.76 1173.09 911.273 1186.86 929.725 1189.12ZM914.608 1157.79C916.491 1142.4 923.626 1136.62 935.964 1138.13C948.302 1139.64 953.724 1146.95 951.84 1162.35C949.97 1177.63 942.932 1183.53 930.594 1182.02C918.256 1180.51 912.738 1173.08 914.608 1157.79ZM1014.3 1142.28L990.1 1186.97L977.501 1137.78L968.329 1136.66L983.16 1193.88L994.733 1195.3L1022.92 1143.34L1014.3 1142.28ZM1039.07 1202.16C1051.74 1203.71 1058.46 1196.78 1061.34 1190.48C1060.84 1194.52 1060.68 1198.6 1060.54 1203.35L1068.51 1204.32C1068.62 1198.91 1069.03 1194.64 1069.51 1190.71L1072.72 1164.5C1073.92 1154.67 1067.99 1146.97 1053.03 1145.14C1037.97 1143.29 1028.87 1149.72 1027.12 1161.25L1035.75 1162.31C1037.16 1155.27 1041.82 1150.75 1052.52 1152.06C1063.11 1153.35 1065.43 1157.96 1064.75 1163.53C1064.24 1167.67 1061.65 1168.91 1055.74 1169.18L1041.6 1169.78C1029.56 1170.3 1024.08 1175.28 1023 1184.13C1021.73 1194.5 1028.59 1200.88 1039.07 1202.16ZM1041.66 1195.5C1035.22 1194.71 1031.12 1191.11 1031.88 1184.88C1032.6 1178.99 1036.44 1176.57 1044.05 1175.95L1053.34 1175.21C1057.6 1174.84 1060.65 1174.33 1063.62 1172.7L1063.05 1177.39C1061.78 1187.76 1054.55 1197.08 1041.66 1195.5Z" fill="#1B191C"/>
<rect width="297" height="130" transform="translate(569 188.406) rotate(-16.7118)" fill="#EEEEEE"/>
<path d="M634.023 192.743L601.89 202.391L622.925 272.451L631.775 269.794L623.045 240.716L645.907 233.852C661.394 229.203 664.689 217.991 661.336 206.824C657.951 195.551 649.089 188.22 634.023 192.743ZM641.996 227.331L620.925 233.658L612.859 206.792L634.246 200.371C644.36 197.335 649.671 201.253 652.17 209.576C654.574 217.583 652.426 224.2 641.996 227.331ZM709.041 189.17L715.083 209.293C720.334 226.782 717.059 238.446 706.103 241.736C697.99 244.171 691.911 242.666 688.4 230.972L678.594 198.312L670.166 200.842L680.256 234.45C684.4 248.252 692.493 253.402 705.767 249.416C715.986 246.348 720.494 238.793 720.84 228.467L724.857 241.847L733.285 239.317L717.47 186.64L709.041 189.17ZM759.968 172.042C749.538 175.174 744.778 183.035 744.39 193.603L740.247 179.801L731.818 182.332L747.634 235.009L756.062 232.478L750.021 212.356C744.58 194.235 748.076 183.308 759.77 179.797C767.461 177.488 773.425 179.373 776.809 190.646L786.615 223.305L795.043 220.775L784.953 187.167C780.872 173.576 773.138 168.089 759.968 172.042ZM848.248 204.801L858.889 201.606L824.462 178.75L840.924 149.804L840.86 149.593L830.43 152.725L813.558 182.598C812.347 184.685 811.125 187.119 810.146 189.595L795.343 140.289L786.914 142.82L809.056 216.568L817.484 214.037L812.961 198.971L820.713 185.389L848.248 204.801Z" fill="#1B191C"/>
<rect width="456" height="130" transform="translate(757.771 -38) rotate(14.1462)" fill="#EEEEEE"/>
<path d="M828.966 3.50963L821.223 34.229L779.944 23.825L787.687 -6.89431L778.833 -9.12565L760.956 61.8061L769.809 64.0375L778.143 30.9715L819.422 41.3755L811.088 74.4414L819.834 76.6459L837.712 5.71409L828.966 3.50963ZM849.606 18.1274L860.593 20.8964L862.824 12.0433L851.838 9.27427L849.606 18.1274ZM835.133 80.5018L843.666 82.6524L857.108 29.3203L848.575 27.1696L835.133 80.5018ZM901.13 38.6004C891.317 36.1271 883.495 38.8067 877.959 45.4658L880.54 35.2261L872.007 33.0754L853.189 107.74L861.722 109.891L869.652 78.4251C871.37 86.9123 877.015 92.8726 886.828 95.3458C903.574 99.5666 914.265 89.5558 918.405 73.1295C922.518 56.8098 917.876 42.8212 901.13 38.6004ZM886.869 87.9825C875.562 85.1329 870.029 76.9318 873.819 61.8921C877.61 46.8525 886.369 42.2538 897.676 45.1035C909.836 48.1682 913.368 56.6589 909.765 70.9519C906.136 85.3516 899.028 91.0473 886.869 87.9825ZM927.976 72.1384L926.336 78.6449L969.001 89.3984L970.641 82.8919L927.976 72.1384ZM1017.39 67.9025C1006.83 65.241 998.711 69.5474 992.958 78.4205L1001.86 43.1146L993.324 40.9639L974.505 115.629L983.038 117.78L988.173 97.4067C992.797 79.0605 1001.4 71.4735 1013.24 74.4576C1021.03 76.4201 1025.18 81.0968 1022.3 92.5099L1013.97 125.576L1022.5 127.727L1031.08 93.7006C1034.55 79.9409 1030.72 71.2629 1017.39 67.9025ZM1059.33 138.823C1077.25 143.339 1089.25 133.091 1093.28 117.091C1097.26 101.305 1091.55 86.5937 1073.63 82.0773C1055.6 77.534 1043.63 87.6757 1039.63 103.569C1035.57 119.675 1041.3 134.279 1059.33 138.823ZM1048.24 105.853C1052.03 90.8132 1059.83 85.9726 1071.88 89.0105C1083.94 92.0483 1088.4 99.9805 1084.61 115.02C1080.85 129.953 1073.13 134.927 1061.08 131.89C1049.02 128.852 1044.48 120.786 1048.24 105.853ZM1140.6 98.9572C1130.79 96.4839 1122.97 99.1635 1117.43 105.823L1120.01 95.5829L1111.48 93.4322L1092.66 168.097L1101.2 170.248L1109.13 138.782C1110.84 147.269 1116.49 153.229 1126.3 155.703C1143.05 159.923 1153.74 149.913 1157.88 133.486C1161.99 117.167 1157.35 103.178 1140.6 98.9572ZM1126.34 148.339C1115.04 145.49 1109.5 137.289 1113.29 122.249C1117.08 107.209 1125.84 102.611 1137.15 105.46C1149.31 108.525 1152.84 117.016 1149.24 131.309C1145.61 145.708 1138.5 151.404 1126.34 148.339Z" fill="#1B191C"/>
</g>
<defs>
<clipPath id="clip0">
<rect width="1200" height="1200" fill="white"/>
</clipPath>
</defs>
</svg>
