<svg width="362" height="362" viewBox="0 0 362 362" fill="none" xmlns="http://www.w3.org/2000/svg">
<rect width="362" height="362" fill="#FF6242"/>
<path d="M9.35156 352.648H149.19V310.257H109.502V192.057C109.502 165.756 94.6192 146.882 56.1712 146.882H13.6925V189.273H55.241V310.257H9.35156V352.648Z" fill="#202020"/>
<path d="M289.705 352.648H352.648L283.194 264.153L349.548 199.174V197.937H286.605L243.816 245.897C238.545 252.395 232.653 259.821 227.382 267.557V136.052H174.051V352.648H227.382V318.612L249.397 297.262L289.705 352.648Z" fill="#202020"/>
<path opacity="0.9" d="M278.075 18.0343C278.102 19.4913 279.018 20.5737 281.28 20.5737C283.126 20.5737 284.111 19.8799 284.111 18.4645C284.111 17.3266 283.528 16.6466 281.932 16.4107L280.462 16.2026C279.587 16.0777 279.338 15.6614 279.338 15.1757C279.338 14.4957 279.823 14.0239 281.003 14.0239C282.279 14.0239 282.807 14.6761 282.876 15.3977H283.972C283.889 14.0933 282.848 13.1774 281.03 13.1774C279.282 13.1774 278.255 13.9684 278.255 15.2589C278.255 16.3275 278.935 16.9658 280.142 17.1323L281.752 17.3682C282.626 17.4931 283.015 17.8539 283.015 18.52C283.015 19.2971 282.529 19.7272 281.308 19.7272C279.712 19.7272 279.185 18.9779 279.102 18.0343H278.075ZM290.616 13.4134V16.0638C290.616 18.3673 289.797 19.6579 288.354 19.6579C287.286 19.6579 286.606 19.2554 286.606 17.7151V13.4134L285.496 13.4134V17.84C285.496 19.6579 286.286 20.5737 288.035 20.5737C289.381 20.5737 290.2 19.8244 290.616 18.5893V20.3517H291.726V13.4134L290.616 13.4134ZM297.389 13.1913C296.112 13.1913 295.238 13.7464 294.766 14.7316V10.638L293.656 10.638V20.3517H294.766V19.0195C295.238 20.0048 296.112 20.5737 297.389 20.5737C299.568 20.5737 300.567 19.0056 300.567 16.8825C300.567 14.7455 299.568 13.1913 297.389 13.1913ZM297.167 19.6717C295.696 19.6717 294.766 18.8391 294.766 16.8825C294.766 14.9259 295.696 14.0933 297.167 14.0933C298.749 14.0933 299.443 15.0092 299.443 16.8825C299.443 18.742 298.749 19.6717 297.167 19.6717ZM301.736 18.0343C301.763 19.4913 302.679 20.5737 304.941 20.5737C306.787 20.5737 307.772 19.8799 307.772 18.4645C307.772 17.3266 307.189 16.6466 305.593 16.4107L304.122 16.2026C303.248 16.0777 302.998 15.6614 302.998 15.1757C302.998 14.4957 303.484 14.0239 304.664 14.0239C305.94 14.0239 306.467 14.6761 306.537 15.3977H307.633C307.55 14.0933 306.509 13.1774 304.691 13.1774C302.943 13.1774 301.916 13.9684 301.916 15.2589C301.916 16.3275 302.596 16.9658 303.803 17.1323L305.413 17.3682C306.287 17.4931 306.676 17.8539 306.676 18.52C306.676 19.2971 306.19 19.7272 304.969 19.7272C303.373 19.7272 302.846 18.9779 302.762 18.0343H301.736ZM308.962 16.8825C308.962 19.0056 310.155 20.5737 312.431 20.5737C314.54 20.5737 315.664 19.2971 315.747 17.7012H314.693C314.554 18.8808 313.832 19.6717 312.431 19.6717C310.974 19.6717 310.086 18.8946 310.086 16.8825C310.086 14.8843 311.002 14.0933 312.472 14.0933C313.763 14.0933 314.457 14.8149 314.623 15.9528H315.664C315.553 14.3431 314.512 13.1913 312.431 13.1913C310.183 13.1913 308.962 14.7594 308.962 16.8825ZM320.777 13.3162C319.459 13.3162 318.654 14.0933 318.238 15.2451V13.4134H317.128V20.3517H318.238V17.7984C318.238 15.8418 318.682 14.3431 320.736 14.4125H321.027V13.3162H320.777ZM322.057 12.2755H323.486V11.1237H322.057V12.2755ZM322.21 20.3517H323.32V13.4134H322.21V20.3517ZM328.991 13.1913C327.714 13.1913 326.84 13.7464 326.368 14.7316V10.638H325.258V20.3517H326.368V19.0195C326.84 20.0048 327.714 20.5737 328.991 20.5737C331.169 20.5737 332.169 19.0056 332.169 16.8825C332.169 14.7455 331.169 13.1913 328.991 13.1913ZM328.769 19.6717C327.298 19.6717 326.368 18.8391 326.368 16.8825C326.368 14.9259 327.298 14.0933 328.769 14.0933C330.351 14.0933 331.045 15.0092 331.045 16.8825C331.045 18.742 330.351 19.6717 328.769 19.6717ZM336.851 19.7272C335.463 19.7272 334.547 19.0334 334.464 17.1323H340.043C340.07 16.9658 340.07 16.827 340.07 16.6466C340.07 14.6206 338.891 13.1913 336.809 13.1913C334.506 13.1913 333.368 14.801 333.368 16.8686C333.368 18.964 334.422 20.5737 336.809 20.5737C339.113 20.5737 339.918 19.2693 340.056 18.2147H339.043C338.835 19.0889 338.211 19.7272 336.851 19.7272ZM336.823 14.0378C338.114 14.0378 338.932 14.7039 338.988 16.2997H334.492C334.644 14.6623 335.505 14.0378 336.823 14.0378ZM345.143 13.3162C343.825 13.3162 343.02 14.0933 342.603 15.2451V13.4134H341.493V20.3517H342.603V17.7984C342.603 15.8418 343.047 14.3431 345.101 14.4125H345.393V13.3162H345.143ZM346.022 18.0343C346.049 19.4913 346.965 20.5737 349.227 20.5737C351.073 20.5737 352.058 19.8799 352.058 18.4645C352.058 17.3266 351.475 16.6466 349.879 16.4107L348.408 16.2026C347.534 16.0777 347.284 15.6614 347.284 15.1757C347.284 14.4957 347.77 14.0239 348.95 14.0239C350.226 14.0239 350.754 14.6761 350.823 15.3977H351.919C351.836 14.0933 350.795 13.1774 348.977 13.1774C347.229 13.1774 346.202 13.9684 346.202 15.2589C346.202 16.3275 346.882 16.9658 348.089 17.1323L349.699 17.3682C350.573 17.4931 350.962 17.8539 350.962 18.52C350.962 19.2971 350.476 19.7272 349.255 19.7272C347.659 19.7272 347.132 18.9779 347.048 18.0343H346.022ZM271.09 26.2755H272.519V25.1237L271.09 25.1237V26.2755ZM271.243 34.3517H272.353V27.4134H271.243V34.3517ZM278.026 27.1913C276.652 27.1913 275.791 27.9684 275.361 29.2312V27.4134H274.251V34.3517H275.361V31.7012C275.361 29.3145 276.18 28.1211 277.72 28.1211C278.733 28.1211 279.385 28.5651 279.385 30.0499V34.3517H280.496V29.925C280.496 28.1349 279.76 27.1913 278.026 27.1913ZM290.467 26.0534V25.1237H285.415V26.0534H287.372V33.4219H285.415V34.3517L290.467 34.3517V33.4219L288.51 33.4219V26.0534L290.467 26.0534ZM295.941 27.1913C294.567 27.1913 293.706 27.9684 293.276 29.2312V27.4134H292.166V34.3517H293.276V31.7012C293.276 29.3145 294.095 28.1211 295.635 28.1211C296.648 28.1211 297.3 28.5651 297.3 30.0499V34.3517H298.411V29.925C298.411 28.1349 297.675 27.1913 295.941 27.1913ZM299.757 32.0343C299.785 33.4913 300.701 34.5737 302.963 34.5737C304.808 34.5737 305.793 33.8799 305.793 32.4645C305.793 31.3266 305.211 30.6466 303.615 30.4107L302.144 30.2026C301.27 30.0777 301.02 29.6614 301.02 29.1757C301.02 28.4957 301.505 28.0239 302.685 28.0239C303.962 28.0239 304.489 28.6761 304.558 29.3977H305.655C305.571 28.0933 304.531 27.1774 302.713 27.1774C300.964 27.1774 299.937 27.9684 299.937 29.2589C299.937 30.3275 300.617 30.9658 301.825 31.1323L303.434 31.3682C304.309 31.4931 304.697 31.8539 304.697 32.52C304.697 33.2971 304.211 33.7272 302.99 33.7272C301.394 33.7272 300.867 32.9779 300.784 32.0343H299.757ZM309.429 34.3517L311.067 34.3517V33.4497L308.86 33.4497V28.2876L311.15 28.2876V27.4134L308.86 27.4134V25.873H308.264L307.847 27.3162L306.432 27.6631V28.2876H307.75V32.7281C307.75 33.8382 308.097 34.3517 309.429 34.3517ZM314.548 34.5321C316.157 34.5321 316.893 33.5607 317.156 32.7281C317.156 33.2416 317.198 33.755 317.254 34.3517H318.267C318.197 33.6717 318.183 33.1305 318.183 32.631V29.3006C318.183 28.0517 317.323 27.1774 315.422 27.1774C313.507 27.1774 312.466 28.1211 312.424 29.592H313.521C313.59 28.69 314.104 28.0517 315.463 28.0517C316.809 28.0517 317.17 28.5929 317.17 29.3006C317.17 29.8279 316.865 30.0222 316.13 30.1471L314.367 30.4385C312.869 30.6882 312.258 31.396 312.258 32.52C312.258 33.8382 313.215 34.5321 314.548 34.5321ZM314.77 33.6579C313.951 33.6579 313.382 33.2693 313.382 32.4783C313.382 31.729 313.826 31.3682 314.77 31.1739L315.921 30.938C316.449 30.827 316.823 30.716 317.17 30.4662V31.0629C317.17 32.3812 316.407 33.6579 314.77 33.6579ZM325.481 27.4134V28.6067C325.009 27.7186 324.163 27.2191 322.9 27.2191C320.721 27.2191 319.694 28.579 319.694 30.7021C319.694 32.8391 320.721 34.199 322.9 34.199C324.149 34.199 325.009 33.755 325.481 32.853V34.3517C325.481 35.8365 324.801 36.4054 323.164 36.4054C321.623 36.4054 321.04 35.7116 320.957 34.7957H319.861C319.986 36.3777 321.096 37.2797 323.164 37.2797C325.689 37.2797 326.591 36.2112 326.591 34.3656V27.4134H325.481ZM323.164 33.3248C321.582 33.3248 320.832 32.5755 320.832 30.7021C320.832 28.8288 321.582 28.0933 323.164 28.0933C324.635 28.0933 325.481 28.8288 325.481 30.7021C325.481 32.5893 324.635 33.3248 323.164 33.3248ZM332.106 27.3162C330.788 27.3162 329.983 28.0933 329.567 29.2451V27.4134H328.457V34.3517H329.567V31.7984C329.567 29.8418 330.011 28.3431 332.065 28.4125H332.356V27.3162H332.106ZM335.457 34.5321C337.067 34.5321 337.803 33.5607 338.066 32.7281C338.066 33.2416 338.108 33.755 338.163 34.3517H339.176C339.107 33.6717 339.093 33.1305 339.093 32.631V29.3006C339.093 28.0517 338.233 27.1774 336.332 27.1774C334.417 27.1774 333.376 28.1211 333.334 29.592H334.431C334.5 28.69 335.013 28.0517 336.373 28.0517C337.719 28.0517 338.08 28.5929 338.08 29.3006C338.08 29.8279 337.775 30.0222 337.039 30.1471L335.277 30.4385C333.778 30.6882 333.168 31.396 333.168 32.52C333.168 33.8382 334.125 34.5321 335.457 34.5321ZM335.679 33.6579C334.861 33.6579 334.292 33.2693 334.292 32.4783C334.292 31.729 334.736 31.3682 335.679 31.1739L336.831 30.938C337.359 30.827 337.733 30.716 338.08 30.4662V31.0629C338.08 32.3812 337.317 33.6579 335.679 33.6579ZM349.431 27.1913C348.043 27.1913 347.238 27.9268 346.836 29.1479C346.641 27.8574 345.906 27.1913 344.56 27.1913C343.228 27.1913 342.437 27.9268 342.034 29.1202V27.4134H340.924V34.3517H342.034V31.7012C342.034 29.3145 342.728 28.1211 344.213 28.1211C345.226 28.1211 345.809 28.6067 345.809 30.0083V34.3517H346.891V31.7012C346.891 29.3145 347.571 28.1211 349.084 28.1211C350.097 28.1211 350.666 28.6067 350.666 30.0083V34.3517H351.776V29.8834C351.776 28.1072 351.012 27.1913 349.431 27.1913Z" fill="#312C1E"/>
</svg>
