<svg width="363" height="363" viewBox="0 0 363 363" fill="none" xmlns="http://www.w3.org/2000/svg">
<g clip-path="url(#clip0)">
<rect width="362.296" height="362.296" fill="#F2F2F2"/>
<path d="M193.397 38.3391C200.471 38.3391 203.626 34.5863 203.991 28.9738H201.169C200.87 33.4572 198.346 36.0476 193.331 36.0476C187.818 36.0476 185.261 32.8926 185.261 26.7155C185.261 20.5383 187.884 17.3833 193.397 17.3833C198.18 17.3833 200.637 19.6084 201.102 23.9258H203.892C203.36 18.4461 200.272 15.0918 193.464 15.0918C185.859 15.0918 182.371 20.0734 182.371 26.7155C182.371 33.424 185.792 38.3391 193.397 38.3391ZM212.145 38.2063C215.998 38.2063 217.758 35.8815 218.389 33.8889C218.389 35.1177 218.488 36.3465 218.621 37.7745H221.046C220.88 36.1472 220.846 34.852 220.846 33.6564V25.6859C220.846 22.697 218.787 20.6047 214.237 20.6047C209.654 20.6047 207.164 22.863 207.064 26.3834H209.688C209.854 24.2247 211.082 22.697 214.337 22.697C217.558 22.697 218.422 23.9922 218.422 25.6859C218.422 26.9479 217.691 27.4129 215.931 27.7118L211.713 28.4092C208.127 29.007 206.665 30.7007 206.665 33.3908C206.665 36.5457 208.957 38.2063 212.145 38.2063ZM212.677 36.114C210.717 36.114 209.356 35.1841 209.356 33.2911C209.356 31.4978 210.418 30.6343 212.677 30.1693L215.433 29.6048C216.695 29.3391 217.592 29.0734 218.422 28.4756V29.9037C218.422 33.0587 216.595 36.114 212.677 36.114ZM224.163 32.2284C224.23 35.7155 226.422 38.3059 231.835 38.3059C236.252 38.3059 238.61 36.6454 238.61 33.2579C238.61 30.5347 237.215 28.9073 233.396 28.3428L229.875 27.8446C227.783 27.5457 227.185 26.5494 227.185 25.387C227.185 23.7597 228.348 22.6306 231.171 22.6306C234.226 22.6306 235.488 24.1915 235.654 25.9184H238.278C238.078 22.7966 235.588 20.6047 231.237 20.6047C227.053 20.6047 224.595 22.4977 224.595 25.5863C224.595 28.1435 226.222 29.6712 229.112 30.0697L232.964 30.6343C235.056 30.9332 235.986 31.7967 235.986 33.3908C235.986 35.2505 234.824 36.2801 231.901 36.2801C228.082 36.2801 226.82 34.4867 226.621 32.2284H224.163ZM241.385 32.2284C241.451 35.7155 243.643 38.3059 249.056 38.3059C253.473 38.3059 255.831 36.6454 255.831 33.2579C255.831 30.5347 254.436 28.9073 250.617 28.3428L247.097 27.8446C245.005 27.5457 244.407 26.5494 244.407 25.387C244.407 23.7597 245.569 22.6306 248.392 22.6306C251.447 22.6306 252.709 24.1915 252.875 25.9184H255.499C255.3 22.7966 252.809 20.6047 248.458 20.6047C244.274 20.6047 241.816 22.4977 241.816 25.5863C241.816 28.1435 243.444 29.6712 246.333 30.0697L250.185 30.6343C252.278 30.9332 253.208 31.7967 253.208 33.3908C253.208 35.2505 252.045 36.2801 249.123 36.2801C245.303 36.2801 244.041 34.4867 243.842 32.2284H241.385ZM259.111 18.4461H262.532V15.6896H259.111V18.4461ZM259.477 37.7745H262.133V21.1693H259.477V37.7745ZM274.313 38.3059C279.892 38.3059 282.648 34.4203 282.648 29.4387C282.648 24.5236 279.892 20.6379 274.313 20.6379C268.7 20.6379 265.943 24.4904 265.943 29.4387C265.943 34.4535 268.7 38.3059 274.313 38.3059ZM268.634 29.4719C268.634 24.7893 270.56 22.7966 274.313 22.7966C278.065 22.7966 279.958 24.7893 279.958 29.4719C279.958 34.1214 278.065 36.1472 274.313 36.1472C270.56 36.1472 268.634 34.1214 268.634 29.4719ZM295.165 20.6379C292.11 20.6379 290.017 21.9996 288.888 24.3575V21.1693H286.231V44.4166H288.888V34.6195C290.017 36.9775 292.11 38.3059 295.165 38.3059C300.379 38.3059 302.77 34.5863 302.77 29.4719C302.77 24.3907 300.379 20.6379 295.165 20.6379ZM294.634 36.1472C291.113 36.1472 288.888 34.1546 288.888 29.4719C288.888 24.7893 291.113 22.7966 294.634 22.7966C298.42 22.7966 300.08 25.0217 300.08 29.4719C300.08 33.9553 298.42 36.1472 294.634 36.1472ZM313.976 36.2801C310.655 36.2801 308.463 34.6195 308.264 30.0697H321.615C321.681 29.6712 321.681 29.3391 321.681 28.9073C321.681 24.0586 318.858 20.6379 313.877 20.6379C308.364 20.6379 305.64 24.4904 305.64 29.4387C305.64 34.4535 308.164 38.3059 313.877 38.3059C319.389 38.3059 321.316 35.1841 321.648 32.6601H319.223C318.725 34.7524 317.231 36.2801 313.976 36.2801ZM313.91 22.6638C316.998 22.6638 318.958 24.2579 319.091 28.0771H308.33C308.696 24.1583 310.755 22.6638 313.91 22.6638ZM324.721 18.4461H328.142V15.6896H324.721V18.4461ZM325.087 37.7745H327.743V21.1693H325.087V37.7745ZM337.041 38.2063C340.894 38.2063 342.654 35.8815 343.285 33.8889C343.285 35.1177 343.384 36.3465 343.517 37.7745H345.941C345.775 36.1472 345.742 34.852 345.742 33.6564V25.6859C345.742 22.697 343.683 20.6047 339.133 20.6047C334.55 20.6047 332.06 22.863 331.96 26.3834H334.584C334.75 24.2247 335.978 22.697 339.233 22.697C342.454 22.697 343.318 23.9922 343.318 25.6859C343.318 26.9479 342.587 27.4129 340.827 27.7118L336.609 28.4092C333.023 29.007 331.561 30.7007 331.561 33.3908C331.561 36.5457 333.853 38.2063 337.041 38.2063ZM337.572 36.114C335.613 36.114 334.251 35.1841 334.251 33.2911C334.251 31.4978 335.314 30.6343 337.572 30.1693L340.329 29.6048C341.591 29.3391 342.488 29.0734 343.318 28.4756V29.9037C343.318 33.0587 341.491 36.114 337.572 36.114Z" fill="#1B191C"/>
<path d="M33.1251 256.314V276.54C32.6934 275.543 32.162 274.447 31.7303 273.683L21.7007 256.314H17.0513V278.399H19.8077V258.174C20.1731 259.038 20.638 260.001 21.2026 261.063L31.2321 278.399H35.8484V256.314H33.1251ZM47.8794 276.905C44.5583 276.905 42.3665 275.244 42.1672 270.694H55.5178C55.5842 270.296 55.5842 269.964 55.5842 269.532C55.5842 264.683 52.7613 261.263 47.7798 261.263C42.2668 261.263 39.5436 265.115 39.5436 270.063C39.5436 275.078 42.0676 278.931 47.7798 278.931C53.2927 278.931 55.2189 275.809 55.551 273.285H53.1266C52.6285 275.377 51.134 276.905 47.8794 276.905ZM47.813 263.289C50.9015 263.289 52.861 264.883 52.9938 268.702H42.2336C42.5989 264.783 44.658 263.289 47.813 263.289ZM81.7808 261.794L77.4634 276.407L72.2162 261.794H69.4597L64.2124 276.407L59.9283 261.794H57.1386L62.2198 278.399H66.0058L70.7549 264.949L75.5372 278.399H79.3232L84.3712 261.794H81.7808ZM104.25 261.263C100.962 261.263 98.9028 263.122 97.8733 266.145V261.794H95.2165V278.399H97.8733V272.056C97.8733 266.344 99.8327 263.488 103.519 263.488C105.943 263.488 107.504 264.551 107.504 268.104V278.399H110.161V267.805C110.161 263.521 108.401 261.263 104.25 261.263ZM121.727 276.905C118.406 276.905 116.214 275.244 116.015 270.694H129.366C129.432 270.296 129.432 269.964 129.432 269.532C129.432 264.683 126.609 261.263 121.628 261.263C116.115 261.263 113.391 265.115 113.391 270.063C113.391 275.078 115.915 278.931 121.628 278.931C127.141 278.931 129.067 275.809 129.399 273.285H126.974C126.476 275.377 124.982 276.905 121.727 276.905ZM121.661 263.289C124.749 263.289 126.709 264.883 126.842 268.702H116.081C116.447 264.783 118.506 263.289 121.661 263.289ZM145.02 261.794V268.137C145.02 273.65 143.06 276.739 139.606 276.739C137.049 276.739 135.422 275.776 135.422 272.089V261.794H132.765V272.388C132.765 276.739 134.658 278.931 138.843 278.931C142.064 278.931 144.023 277.137 145.02 274.182V278.399H147.677V261.794H145.02ZM160.934 261.562C157.779 261.562 155.853 263.421 154.856 266.178V261.794H152.2V278.399H154.856V272.289C154.856 267.606 155.919 264.019 160.834 264.185H161.532V261.562H160.934ZM168.954 278.831C172.806 278.831 174.567 276.506 175.198 274.514C175.198 275.742 175.297 276.971 175.43 278.399H177.854C177.688 276.772 177.655 275.477 177.655 274.281V266.311C177.655 263.322 175.596 261.229 171.046 261.229C166.463 261.229 163.972 263.488 163.873 267.008H166.496C166.663 264.849 167.891 263.322 171.146 263.322C174.367 263.322 175.231 264.617 175.231 266.311C175.231 267.573 174.5 268.038 172.74 268.337L168.522 269.034C164.936 269.632 163.474 271.325 163.474 274.016C163.474 277.171 165.766 278.831 168.954 278.831ZM169.485 276.739C167.526 276.739 166.164 275.809 166.164 273.916C166.164 272.123 167.227 271.259 169.485 270.794L172.242 270.23C173.504 269.964 174.401 269.698 175.231 269.1V270.528C175.231 273.683 173.404 276.739 169.485 276.739ZM181.971 278.399H184.628V255.152H181.971V278.399ZM26.2506 294.263C22.9627 294.263 20.9037 296.122 19.8742 299.145V294.794H17.2173V311.399H19.8742V305.056C19.8742 299.344 21.8336 296.488 25.5199 296.488C27.9443 296.488 29.5052 297.551 29.5052 301.104V311.399H32.162V300.805C32.162 296.521 30.4019 294.263 26.2506 294.263ZM43.7281 309.905C40.407 309.905 38.2152 308.244 38.0159 303.694H51.3665C51.4329 303.296 51.4329 302.964 51.4329 302.532C51.4329 297.683 48.61 294.263 43.6285 294.263C38.1155 294.263 35.3923 298.115 35.3923 303.063C35.3923 308.078 37.9163 311.931 43.6285 311.931C49.1414 311.931 51.0676 308.809 51.3997 306.285H48.9753C48.4772 308.377 46.9827 309.905 43.7281 309.905ZM43.6617 296.289C46.7502 296.289 48.7097 297.883 48.8425 301.702H38.0823C38.4476 297.783 40.5067 296.289 43.6617 296.289ZM60.1545 311.399H64.0734V309.241H58.7929V296.886H64.2726V294.794H58.7929V291.108H57.3649L56.3685 294.562L52.9811 295.392V296.886H56.1361V307.514C56.1361 310.171 56.9663 311.399 60.1545 311.399ZM90.8617 294.794L86.5444 309.407L81.2971 294.794H78.5407L73.2934 309.407L69.0093 294.794H66.2196L71.3008 311.399H75.0868L79.8359 297.949L84.6182 311.399H88.4042L93.4522 294.794H90.8617ZM103.469 311.931C109.048 311.931 111.805 308.045 111.805 303.063C111.805 298.148 109.048 294.263 103.469 294.263C97.8562 294.263 95.0997 298.115 95.0997 303.063C95.0997 308.078 97.8562 311.931 103.469 311.931ZM97.7898 303.097C97.7898 298.414 99.716 296.421 103.469 296.421C107.222 296.421 109.115 298.414 109.115 303.097C109.115 307.746 107.222 309.772 103.469 309.772C99.716 309.772 97.7898 307.746 97.7898 303.097ZM124.026 294.562C120.871 294.562 118.945 296.421 117.949 299.178V294.794H115.292V311.399H117.949V305.289C117.949 300.606 119.011 297.019 123.927 297.185H124.624V294.562H124.026ZM140.23 311.399H143.584L135.614 301.801L142.887 294.86V294.794H139.599L132.126 301.968C131.595 302.466 131.031 303.063 130.532 303.694V288.152H127.876V311.399H130.532V306.65L133.953 303.396L140.23 311.399ZM22.1989 344.831C26.0513 344.831 27.8115 342.506 28.4425 340.514C28.4425 341.742 28.5421 342.971 28.6749 344.399H31.0993C30.9332 342.772 30.9 341.477 30.9 340.281V332.311C30.9 329.322 28.841 327.229 24.2912 327.229C19.7081 327.229 17.2173 329.488 17.1177 333.008H19.7413C19.9074 330.849 21.1362 329.322 24.3908 329.322C27.6122 329.322 28.4757 330.617 28.4757 332.311C28.4757 333.573 27.745 334.038 25.9849 334.337L21.7672 335.034C18.1804 335.632 16.7192 337.325 16.7192 340.016C16.7192 343.171 19.0107 344.831 22.1989 344.831ZM22.7303 342.739C20.7708 342.739 19.4092 341.809 19.4092 339.916C19.4092 338.123 20.472 337.259 22.7303 336.794L25.4867 336.23C26.7487 335.964 27.6454 335.698 28.4757 335.1V336.528C28.4757 339.683 26.6491 342.739 22.7303 342.739ZM44.0163 327.562C40.8614 327.562 38.9351 329.421 37.9388 332.178V327.794H35.282V344.399H37.9388V338.289C37.9388 333.606 39.0016 330.019 43.9167 330.185H44.6141V327.562H44.0163ZM46.1597 336.097C46.1597 341.178 49.0158 344.931 54.4623 344.931C59.5103 344.931 62.2004 341.875 62.3996 338.056H59.8756C59.5435 340.879 57.8166 342.772 54.4623 342.772C50.9752 342.772 48.8498 340.912 48.8498 336.097C48.8498 331.314 51.0416 329.421 54.562 329.421C57.6505 329.421 59.3111 331.148 59.7096 333.872H62.2004C61.9347 330.019 59.4439 327.263 54.4623 327.263C49.0822 327.263 46.1597 331.015 46.1597 336.097ZM74.7365 327.263C71.4487 327.263 69.3896 329.122 68.3601 332.145V321.152H65.7033V344.399H68.3601V338.056C68.3601 332.344 70.3195 329.488 74.0059 329.488C76.4303 329.488 77.9911 330.551 77.9911 334.104V344.399H80.648V333.805C80.648 329.521 78.8878 327.263 74.7365 327.263ZM84.6999 325.071H88.1206V322.314H84.6999V325.071ZM85.0652 344.399H87.7221V327.794H85.0652V344.399ZM97.5811 344.399H101.5V342.241H96.2195V329.886H101.699V327.794H96.2195V324.108H94.7915L93.7952 327.562L90.4077 328.392V329.886H93.5627V340.514C93.5627 343.171 94.3929 344.399 97.5811 344.399ZM111.835 342.905C108.514 342.905 106.323 341.244 106.123 336.694H119.474C119.54 336.296 119.54 335.964 119.54 335.532C119.54 330.683 116.717 327.263 111.736 327.263C106.223 327.263 103.5 331.115 103.5 336.063C103.5 341.078 106.024 344.931 111.736 344.931C117.249 344.931 119.175 341.809 119.507 339.285H117.083C116.585 341.377 115.09 342.905 111.835 342.905ZM111.769 329.289C114.858 329.289 116.817 330.883 116.95 334.702H106.19C106.555 330.783 108.614 329.289 111.769 329.289ZM122.245 336.097C122.245 341.178 125.101 344.931 130.548 344.931C135.596 344.931 138.286 341.875 138.485 338.056H135.961C135.629 340.879 133.902 342.772 130.548 342.772C127.061 342.772 124.935 340.912 124.935 336.097C124.935 331.314 127.127 329.421 130.648 329.421C133.736 329.421 135.397 331.148 135.795 333.872H138.286C138.02 330.019 135.53 327.263 130.548 327.263C125.168 327.263 122.245 331.015 122.245 336.097ZM147.105 344.399H151.024V342.241H145.743V329.886H151.223V327.794H145.743V324.108H144.315L143.319 327.562L139.931 328.392V329.886H143.086V340.514C143.086 343.171 143.917 344.399 147.105 344.399ZM166.587 327.794V334.137C166.587 339.65 164.628 342.739 161.174 342.739C158.616 342.739 156.989 341.776 156.989 338.089V327.794H154.332V338.388C154.332 342.739 156.225 344.931 160.41 344.931C163.631 344.931 165.591 343.137 166.587 340.182V344.399H169.244V327.794H166.587ZM182.501 327.562C179.346 327.562 177.42 329.421 176.424 332.178V327.794H173.767V344.399H176.424V338.289C176.424 333.606 177.487 330.019 182.402 330.185H183.099V327.562H182.501ZM192.98 342.905C189.659 342.905 187.468 341.244 187.268 336.694H200.619C200.685 336.296 200.685 335.964 200.685 335.532C200.685 330.683 197.862 327.263 192.881 327.263C187.368 327.263 184.645 331.115 184.645 336.063C184.645 341.078 187.169 344.931 192.881 344.931C198.394 344.931 200.32 341.809 200.652 339.285H198.228C197.73 341.377 196.235 342.905 192.98 342.905ZM192.914 329.289C196.003 329.289 197.962 330.883 198.095 334.702H187.335C187.7 330.783 189.759 329.289 192.914 329.289Z" fill="#1B191C"/>
<path d="M208.389 -165.636V-141.394L151.758 -85.1029V84.5356L178.129 112.942H313.031V86.6452M134.933 -245.757V100.204L164.48 129.788H313.031H317.956L328.625 120.337V86.6452M347.502 86.6452V126.501L326.984 147.045H313.031H149.707L115.236 112.942V17.2064L34.3943 -64.5589H-6.64213M-6.64213 -33.332H29.4699L95.1281 29.5328V129.788L130.009 163.48H313.031M313.031 181.148H115.236L77.4825 143.347V80.482L31.5217 35.696H-6.23175M295.386 86.6452V94.452M295.386 102.259V94.452M295.386 94.452H190.054" stroke="#1B191C" stroke-width="2.11339"/>
<circle cx="244.851" cy="94.4988" r="4.5287" fill="#1B191C"/>
<circle cx="249.984" cy="223.718" r="4.5287" fill="#1B191C"/>
<circle cx="67.6283" cy="223.718" r="4.5287" fill="#1B191C"/>
<circle cx="189.904" cy="94.4988" r="4.5287" fill="#1B191C"/>
<circle cx="14.7943" cy="163.335" r="4.5287" fill="#1B191C"/>
<circle cx="14.7943" cy="134.351" r="4.5287" fill="#1B191C"/>
<circle cx="14.7943" cy="99.0275" r="4.5287" fill="#1B191C"/>
<circle cx="29.2846" cy="85.1394" r="4.5287" fill="#1B191C"/>
<circle cx="29.2846" cy="68.5342" r="4.5287" fill="#1B191C"/>
<circle cx="29.2846" cy="48.6079" r="4.5287" fill="#1B191C"/>
<circle cx="14.4916" cy="7.15256e-05" r="4.5287" fill="#1B191C"/>
<circle cx="264.777" cy="94.4988" r="4.5287" fill="#1B191C"/>
<circle cx="166.054" cy="181.148" r="4.5287" fill="#1B191C"/>
<circle cx="166.054" cy="163.335" r="4.5287" fill="#1B191C"/>
<rect x="306.744" y="134.049" width="9.05739" height="12.3784" rx="4.5287" transform="rotate(-90 306.744 134.049)" fill="#1B191C"/>
<rect x="332.857" y="93.1401" width="9.05739" height="12.3784" rx="4.5287" transform="rotate(180 332.857 93.1401)" fill="#1B191C"/>
<rect x="317.611" y="93.1401" width="9.05739" height="12.3784" rx="4.5287" transform="rotate(180 317.611 93.1401)" fill="#1B191C"/>
<rect x="19.3223" y="124.992" width="9.05739" height="12.3784" rx="4.5287" transform="rotate(180 19.3223 124.992)" fill="#1B191C"/>
<rect x="19.3223" y="56.4578" width="9.05739" height="12.3784" rx="4.5287" transform="rotate(180 19.3223 56.4578)" fill="#1B191C"/>
<rect x="99.6309" y="71.5533" width="9.05739" height="12.3784" rx="4.5287" transform="rotate(180 99.6309 71.5533)" fill="#1B191C"/>
<rect x="119.557" y="71.5533" width="9.05739" height="9.05739" rx="4.5287" transform="rotate(180 119.557 71.5533)" fill="#1B191C"/>
<rect x="139.484" y="71.5533" width="9.05739" height="12.3784" rx="4.5287" transform="rotate(180 139.484 71.5533)" fill="#1B191C"/>
<rect x="156.391" y="71.5533" width="9.05739" height="12.3784" rx="4.5287" transform="rotate(180 156.391 71.5533)" fill="#1B191C"/>
<rect x="33.8145" y="109.594" width="9.05739" height="12.3784" rx="4.5287" transform="rotate(180 33.8145 109.594)" fill="#1B191C"/>
<rect x="299.498" y="105.971" width="8.45356" height="25.0588" transform="rotate(180 299.498 105.971)" fill="#1B191C"/>
<rect x="304.025" y="255.419" width="8.45357" height="8.45357" transform="rotate(180 304.025 255.419)" fill="#1B191C"/>
<rect x="353.238" y="204.999" width="8.45357" height="8.45357" transform="rotate(180 353.238 204.999)" fill="#1B191C"/>
<rect x="19.0195" y="39.5505" width="8.45357" height="8.45357" transform="rotate(180 19.0195 39.5505)" fill="#1B191C"/>
<rect x="352.031" y="93.1401" width="9.05739" height="12.3784" rx="4.5287" transform="rotate(180 352.031 93.1401)" fill="#1B191C"/>
<rect x="306.744" y="151.862" width="9.05739" height="12.3784" rx="4.5287" transform="rotate(-90 306.744 151.862)" fill="#1B191C"/>
<rect x="306.744" y="167.864" width="9.05739" height="12.3784" rx="4.5287" transform="rotate(-90 306.744 167.864)" fill="#1B191C"/>
<rect x="306.744" y="185.677" width="9.05739" height="12.3784" rx="4.5287" transform="rotate(-90 306.744 185.677)" fill="#1B191C"/>
<rect x="269.307" y="228.246" width="9.05739" height="12.3784" rx="4.5287" transform="rotate(-90 269.307 228.246)" fill="#1B191C"/>
<rect x="262.814" y="343.426" width="9.05739" height="12.3784" rx="4.5287" transform="rotate(180 262.814 343.426)" fill="#1B191C"/>
<rect x="262.814" y="283.194" width="9.05739" height="12.3784" rx="4.5287" transform="rotate(180 262.814 283.194)" fill="#1B191C"/>
<rect x="325.764" y="332.708" width="9.05739" height="12.3784" rx="4.5287" transform="rotate(180 325.764 332.708)" fill="#1B191C"/>
<path d="M472.444 223.859L410.461 223.859L320.929 314.62L320.929 484.269M299.886 474.695L299.886 251.049M299.886 251.049L270.424 251.049L258.181 262.538L258.181 337.69M299.886 251.049L356.512 251.049L401.278 207.009L482.392 207.009L492.723 216.2L492.723 292.791M398.217 191.308L387.121 200.882L348.86 200.882M348.86 200.882L337.764 191.308L337.764 163.736M348.86 200.882L348.86 223.859L249.381 223.859M337.764 136.163L337.764 163.736M337.764 163.736L398.217 163.736" stroke="#1B191C" stroke-width="2.11339"/>
<path d="M14.793 -57.6655V-7.89464V6.04119V20.3088M14.793 162.322V147.888M14.793 147.888V133.454V119.519M14.793 147.888V119.519M14.793 147.888H29.0816H57.3266L67.6278 158.008V221.755M14.793 119.519V105.583V48.1805M14.793 119.519V48.1805M14.793 48.1805V35.5719V20.3088M14.793 48.1805V20.3088M29.0816 -7.89464V-25.4803M29.0816 48.1805V68.4206M29.0816 87.6653V105.583" stroke="#1B191C" stroke-width="2.11339"/>
</g>
<defs>
<clipPath id="clip0">
<rect width="362.296" height="362.296" fill="white"/>
</clipPath>
</defs>
</svg>
