<svg width="363" height="363" viewBox="0 0 363 363" fill="none" xmlns="http://www.w3.org/2000/svg">
<rect width="362.296" height="362.296" fill="#F8D231"/>
<path d="M312.321 175.57C311.909 175.157 311.24 175.157 310.827 175.57L304.102 182.295C303.69 182.707 303.69 183.377 304.102 183.789C304.515 184.202 305.184 184.202 305.597 183.789L311.574 177.812L317.552 183.789C317.964 184.202 318.634 184.202 319.046 183.789C319.459 183.377 319.459 182.707 319.046 182.295L312.321 175.57ZM312.631 257.532L312.631 176.317L310.518 176.317L310.518 257.532L312.631 257.532Z" fill="#1B191C"/>
<path d="M37.2879 145.672L37.2879 146.729L37.2879 146.729L37.2879 145.672ZM31.7101 144.925C31.2974 145.338 31.2974 146.007 31.7101 146.42L38.4348 153.144C38.8474 153.557 39.5165 153.557 39.9292 153.144C40.3418 152.732 40.3419 152.063 39.9292 151.65L33.9517 145.672L39.9293 139.695C40.342 139.282 40.342 138.613 39.9293 138.2C39.5166 137.788 38.8476 137.788 38.4349 138.2L31.7101 144.925ZM203.793 144.616L37.2879 144.616L37.2879 146.729L203.793 146.729L203.793 144.616ZM37.2879 144.616L32.4573 144.616L32.4573 146.729L37.2879 146.729L37.2879 144.616Z" fill="#1B191C"/>
<circle cx="244.248" cy="215.868" r="40.6073" stroke="#1B191C" stroke-width="2.11339"/>
<path d="M234.569 157.03H237.359L228.99 134.945H224.905L216.536 157.03H219.293L221.451 151.384H232.411L234.569 157.03ZM222.282 149.159L226.931 136.938L231.58 149.159H222.282ZM250.43 134.945H240.301V157.03H243.09V147.864H250.297C255.179 147.864 257.105 144.908 257.105 141.388C257.105 137.835 255.179 134.945 250.43 134.945ZM249.732 145.639H243.09V137.17H249.832C253.02 137.17 254.216 138.765 254.216 141.388C254.216 143.912 253.02 145.639 249.732 145.639ZM271.004 137.17V134.945H258.916V137.17H263.598V154.805H258.916V157.03H271.004V154.805H266.322V137.17H271.004Z" fill="#1B191C"/>
<path d="M11.7061 27.1835C11.7061 31.5341 14.1636 35.2536 21.3371 35.2536C27.481 35.2536 30.0714 32.8293 30.0714 28.6116C30.0714 25.058 27.9792 23.3311 24.0603 22.7001L18.5474 21.8698C16.0566 21.4713 15.2264 20.1097 15.2264 18.3827C15.2264 15.9252 16.8869 14.2314 20.8057 14.2314C24.957 14.2314 26.8168 16.2573 27.1157 19.2462H29.7725C29.4736 14.9953 26.6175 12.0728 20.8389 12.0728C15.1267 12.0728 12.4367 14.8956 12.4367 18.4492C12.4367 21.7702 14.1968 23.6632 18.0492 24.2278L23.2633 25.0248C26.053 25.4898 27.2818 26.6521 27.2818 28.9769C27.2818 31.5341 25.8869 33.095 21.3371 33.095C16.2227 33.095 14.4625 30.6042 14.3961 27.1835H11.7061ZM41.5412 33.261C38.2202 33.261 36.0283 31.6005 35.829 27.0507H49.1796C49.246 26.6521 49.246 26.32 49.246 25.8883C49.246 21.0396 46.4232 17.6189 41.4416 17.6189C35.9287 17.6189 33.2054 21.4713 33.2054 26.4197C33.2054 31.4344 35.7294 35.2869 41.4416 35.2869C46.9545 35.2869 48.8807 32.1651 49.2128 29.6411H46.7885C46.2903 31.7333 44.7958 33.261 41.5412 33.261ZM41.4748 19.6447C44.5634 19.6447 46.5228 21.2388 46.6556 25.058H35.8955C36.2608 21.1392 38.3198 19.6447 41.4748 19.6447ZM57.7954 35.1872C61.6478 35.1872 63.408 32.8625 64.039 30.8699C64.039 32.0987 64.1386 33.3274 64.2714 34.7555H66.6958C66.5297 33.1282 66.4965 31.833 66.4965 30.6374V22.6669C66.4965 19.678 64.4375 17.5857 59.8877 17.5857C55.3046 17.5857 52.8138 19.844 52.7142 23.3643H55.3378C55.5039 21.2056 56.7327 19.678 59.9873 19.678C63.2087 19.678 64.0722 20.9732 64.0722 22.6669C64.0722 23.9289 63.3415 24.3938 61.5814 24.6927L57.3637 25.3901C53.7769 25.9879 52.3157 27.6817 52.3157 30.3717C52.3157 33.5267 54.6072 35.1872 57.7954 35.1872ZM58.3268 33.095C56.3674 33.095 55.0057 32.1651 55.0057 30.2721C55.0057 28.4787 56.0685 27.6152 58.3268 27.1503L61.0832 26.5857C62.3452 26.32 63.2419 26.0544 64.0722 25.4566V26.8846C64.0722 30.0396 62.2456 33.095 58.3268 33.095ZM91.2365 17.6189C87.9155 17.6189 85.9893 19.3791 85.0262 22.3016C84.5612 19.213 82.8011 17.6189 79.5796 17.6189C76.3914 17.6189 74.4984 19.3791 73.5353 22.2352V18.1503H70.8785V34.7555H73.5353V28.4123C73.5353 22.7001 75.1959 19.844 78.7494 19.844C81.1737 19.844 82.5686 21.0064 82.5686 24.3606V34.7555H85.159V28.4123C85.159 22.7001 86.7863 19.844 90.4062 19.844C92.8306 19.844 94.1922 21.0064 94.1922 24.3606V34.7555H96.8491V24.0617C96.8491 19.8108 95.0225 17.6189 91.2365 17.6189ZM101.331 34.7555H103.988V11.5082H101.331V34.7555ZM116.005 33.261C112.684 33.261 110.492 31.6005 110.293 27.0507H123.644C123.71 26.6521 123.71 26.32 123.71 25.8883C123.71 21.0396 120.887 17.6189 115.906 17.6189C110.393 17.6189 107.669 21.4713 107.669 26.4197C107.669 31.4344 110.193 35.2869 115.906 35.2869C121.419 35.2869 123.345 32.1651 123.677 29.6411H121.253C120.754 31.7333 119.26 33.261 116.005 33.261ZM115.939 19.6447C119.027 19.6447 120.987 21.2388 121.12 25.058H110.359C110.725 21.1392 112.784 19.6447 115.939 19.6447ZM126.31 29.2093C126.377 32.6964 128.568 35.2869 133.982 35.2869C138.399 35.2869 140.757 33.6263 140.757 30.2389C140.757 27.5156 139.362 25.8883 135.543 25.3237L132.022 24.8256C129.93 24.5267 129.332 23.5304 129.332 22.368C129.332 20.7407 130.495 19.6115 133.318 19.6115C136.373 19.6115 137.635 21.1724 137.801 22.8994H140.425C140.225 19.7776 137.734 17.5857 133.384 17.5857C129.199 17.5857 126.742 19.4787 126.742 22.5673C126.742 25.1245 128.369 26.6521 131.258 27.0507L135.111 27.6152C137.203 27.9141 138.133 28.7776 138.133 30.3717C138.133 32.2315 136.971 33.261 134.048 33.261C130.229 33.261 128.967 31.4677 128.768 29.2093H126.31ZM143.532 29.2093C143.598 32.6964 145.79 35.2869 151.203 35.2869C155.62 35.2869 157.978 33.6263 157.978 30.2389C157.978 27.5156 156.583 25.8883 152.764 25.3237L149.244 24.8256C147.151 24.5267 146.554 23.5304 146.554 22.368C146.554 20.7407 147.716 19.6115 150.539 19.6115C153.594 19.6115 154.856 21.1724 155.022 22.8994H157.646C157.447 19.7776 154.956 17.5857 150.605 17.5857C146.421 17.5857 143.963 19.4787 143.963 22.5673C143.963 25.1245 145.591 26.6521 148.48 27.0507L152.332 27.6152C154.425 27.9141 155.354 28.7776 155.354 30.3717C155.354 32.2315 154.192 33.261 151.27 33.261C147.45 33.261 146.188 31.4677 145.989 29.2093H143.532Z" fill="#1B191C"/>
<path d="M24.3134 330.395V328.17H12.2248V330.395H16.9075V348.03H12.2248V350.255H24.3134V348.03H19.6308V330.395H24.3134ZM37.4139 333.118C34.1261 333.118 32.067 334.978 31.0375 338V333.649H28.3807V350.255H31.0375V343.911C31.0375 338.199 32.9969 335.343 36.6833 335.343C39.1077 335.343 40.6685 336.406 40.6685 339.959V350.255H43.3254V339.661C43.3254 335.376 41.5652 333.118 37.4139 333.118ZM52.9289 350.255H56.8477V348.096H51.5673V335.742H57.047V333.649H51.5673V329.963H50.1392L49.1429 333.417L45.7554 334.247V335.742H48.9104V346.369C48.9104 349.026 49.7407 350.255 52.9289 350.255ZM67.1832 348.76C63.8621 348.76 61.6703 347.1 61.471 342.55H74.8216C74.888 342.151 74.888 341.819 74.888 341.387C74.888 336.539 72.0651 333.118 67.0836 333.118C61.5706 333.118 58.8474 336.97 58.8474 341.919C58.8474 346.934 61.3714 350.786 67.0836 350.786C72.5965 350.786 74.5227 347.664 74.8548 345.14H72.4304C71.9323 347.232 70.4378 348.76 67.1832 348.76ZM67.1168 335.144C70.2053 335.144 72.1648 336.738 72.2976 340.557H61.5374C61.9027 336.638 63.9618 335.144 67.1168 335.144ZM91.7338 333.649V336.506C90.6046 334.38 88.5788 333.184 85.5566 333.184C80.3426 333.184 77.885 336.439 77.885 341.52C77.885 346.635 80.3426 349.889 85.5566 349.889C88.5455 349.889 90.6046 348.827 91.7338 346.668V350.255C91.7338 353.808 90.1064 355.17 86.1876 355.17C82.5012 355.17 81.1064 353.509 80.9071 351.317H78.2835C78.5824 355.103 81.2392 357.262 86.1876 357.262C92.2319 357.262 94.3906 354.705 94.3906 350.288V333.649H91.7338ZM86.1876 347.797C82.4016 347.797 80.6083 346.004 80.6083 341.52C80.6083 337.037 82.4016 335.277 86.1876 335.277C89.7079 335.277 91.7338 337.037 91.7338 341.52C91.7338 346.037 89.7079 347.797 86.1876 347.797ZM107.59 333.417C104.435 333.417 102.509 335.277 101.512 338.033V333.649H98.8556V350.255H101.512V344.144C101.512 339.461 102.575 335.875 107.49 336.041H108.188V333.417H107.59ZM115.61 350.686C119.462 350.686 121.223 348.362 121.854 346.369C121.854 347.598 121.953 348.827 122.086 350.255H124.51C124.344 348.627 124.311 347.332 124.311 346.137V338.166C124.311 335.177 122.252 333.085 117.702 333.085C113.119 333.085 110.628 335.343 110.529 338.863H113.152C113.318 336.705 114.547 335.177 117.802 335.177C121.023 335.177 121.887 336.472 121.887 338.166C121.887 339.428 121.156 339.893 119.396 340.192L115.178 340.889C111.592 341.487 110.13 343.181 110.13 345.871C110.13 349.026 112.422 350.686 115.61 350.686ZM116.141 348.594C114.182 348.594 112.82 347.664 112.82 345.771C112.82 343.978 113.883 343.114 116.141 342.649L118.898 342.085C120.16 341.819 121.056 341.554 121.887 340.956V342.384C121.887 345.539 120.06 348.594 116.141 348.594ZM133.847 350.255H137.766V348.096H132.485V335.742H137.965V333.649H132.485V329.963H131.057L130.061 333.417L126.673 334.247V335.742H129.828V346.369C129.828 349.026 130.659 350.255 133.847 350.255ZM140.976 330.926H144.397V328.17H140.976V330.926ZM141.342 350.255H143.998V333.649H141.342V350.255ZM156.178 350.786C161.757 350.786 164.513 346.9 164.513 341.919C164.513 337.004 161.757 333.118 156.178 333.118C150.565 333.118 147.809 336.97 147.809 341.919C147.809 346.934 150.565 350.786 156.178 350.786ZM150.499 341.952C150.499 337.269 152.425 335.277 156.178 335.277C159.93 335.277 161.823 337.269 161.823 341.952C161.823 346.601 159.93 348.627 156.178 348.627C152.425 348.627 150.499 346.601 150.499 341.952ZM177.034 333.118C173.746 333.118 171.687 334.978 170.658 338V333.649H168.001V350.255H170.658V343.911C170.658 338.199 172.617 335.343 176.303 335.343C178.728 335.343 180.289 336.406 180.289 339.959V350.255H182.945V339.661C182.945 335.376 181.185 333.118 177.034 333.118Z" fill="#1B191C"/>
<rect x="260.1" y="293.309" width="32.0028" height="32.0028" rx="16.0014" stroke="#1B191C" stroke-width="2.11339"/>
<rect x="215.717" y="293.309" width="32.0028" height="32.0028" rx="16.0014" stroke="#1B191C" stroke-width="2.11339"/>
<rect x="304.481" y="293.309" width="32.0028" height="32.0028" rx="16.0014" stroke="#1B191C" stroke-width="2.11339"/>
<path d="M161.525 12.0765H350.221V350.219H205.001V269.366H339.237" stroke="#1B191C" stroke-width="2.11339"/>
<path d="M293.762 28.6818L329.086 64.0056M329.086 28.6818L293.762 64.0056" stroke="#1B191C" stroke-width="2.11339"/>
<path d="M293.762 74.8744L329.086 110.198M329.086 74.8744L293.762 110.198" stroke="#1B191C" stroke-width="2.11339"/>
<path d="M293.762 121.067L329.086 156.391M329.086 121.067L293.762 156.391" stroke="#1B191C" stroke-width="2.11339"/>
<path d="M12.0781 96.3102H11.0214V98.389L12.7009 97.1639L12.0781 96.3102ZM75.6386 49.9456H76.6953V47.8669L75.0158 49.0919L75.6386 49.9456ZM75.6386 96.3102H74.5819V98.4403L76.2779 97.1515L75.6386 96.3102ZM138.416 48.6079H139.473V46.4778L137.777 47.7666L138.416 48.6079ZM138.416 94.9725H137.36V97.013L139.026 95.8355L138.416 94.9725ZM202.14 49.9456H203.196V47.9051L201.53 49.0826L202.14 49.9456ZM202.14 96.3102H201.083V98.4494L202.782 97.1494L202.14 96.3102ZM264.477 48.6079H265.534V46.4687L263.835 47.7687L264.477 48.6079ZM263.73 97.0574C264.143 97.47 264.812 97.47 265.225 97.0574L271.949 90.3326C272.362 89.9199 272.362 89.2509 271.949 88.8382C271.537 88.4255 270.868 88.4255 270.455 88.8382L264.477 94.8158L258.5 88.8382C258.087 88.4255 257.418 88.4255 257.006 88.8382C256.593 89.2509 256.593 89.9199 257.006 90.3326L263.73 97.0574ZM11.0214 49.9456V96.3102H13.1348V49.9456H11.0214ZM12.7009 97.1639L76.2613 50.7993L75.0158 49.0919L11.4554 95.4565L12.7009 97.1639ZM74.5819 49.9456V96.3102H76.6953V49.9456H74.5819ZM76.2779 97.1515L139.056 49.4493L137.777 47.7666L74.9993 95.4688L76.2779 97.1515ZM137.36 48.6079V94.9725H139.473V48.6079H137.36ZM139.026 95.8355L202.749 50.8086L201.53 49.0826L137.807 94.1095L139.026 95.8355ZM201.083 49.9456V96.3102H203.196V49.9456H201.083ZM202.782 97.1494L265.12 49.4471L263.835 47.7687L201.497 95.471L202.782 97.1494ZM263.421 48.6079V96.3102H265.534V48.6079H263.421Z" fill="#1B191C"/>
<line x1="9.96289" y1="120.01" x2="72.4589" y2="120.01" stroke="#1B191C" stroke-width="2.11339"/>
<line x1="91.1777" y1="120.01" x2="153.674" y2="120.01" stroke="#1B191C" stroke-width="2.11339"/>
<line x1="172.393" y1="120.01" x2="234.889" y2="120.01" stroke="#1B191C" stroke-width="2.11339"/>
<line x1="190.055" y1="312.178" x2="190.055" y2="288.103" stroke="#1B191C" stroke-width="2.11339"/>
<line x1="190.055" y1="280.892" x2="190.055" y2="256.816" stroke="#1B191C" stroke-width="2.11339"/>
<line x1="190.055" y1="249.605" x2="190.055" y2="225.529" stroke="#1B191C" stroke-width="2.11339"/>
<path d="M67.0234 162.731L39.8161 198.961L12.0753 162.731" stroke="#1B191C" stroke-width="2.11339"/>
<path d="M67.0234 198.961L39.8161 235.19L12.0753 198.961" stroke="#1B191C" stroke-width="2.11339"/>
<path d="M67.0234 235.19L39.8161 271.42L12.0753 235.19" stroke="#1B191C" stroke-width="2.11339"/>
<path d="M67.0234 270.816L39.8161 307.046L12.0753 270.816" stroke="#1B191C" stroke-width="2.11339"/>
<rect x="87.1036" y="177.374" width="102.952" height="35.0219" stroke="#1B191C" stroke-width="2.11339"/>
<rect x="110.049" y="288.176" width="22.9454" height="22.9454" rx="11.4727" transform="rotate(90 110.049 288.176)" stroke="#1B191C" stroke-width="2.11339"/>
<rect x="110.049" y="257.381" width="22.9454" height="22.9454" rx="11.4727" transform="rotate(90 110.049 257.381)" stroke="#1B191C" stroke-width="2.11339"/>
<rect x="110.049" y="226.586" width="22.9454" height="22.9454" rx="11.4727" transform="rotate(90 110.049 226.586)" stroke="#1B191C" stroke-width="2.11339"/>
<rect x="140.844" y="288.176" width="22.9454" height="22.9454" rx="11.4727" transform="rotate(90 140.844 288.176)" stroke="#1B191C" stroke-width="2.11339"/>
<rect x="140.844" y="257.381" width="22.9454" height="22.9454" rx="11.4727" transform="rotate(90 140.844 257.381)" stroke="#1B191C" stroke-width="2.11339"/>
<rect x="140.844" y="226.586" width="22.9454" height="22.9454" rx="11.4727" transform="rotate(90 140.844 226.586)" stroke="#1B191C" stroke-width="2.11339"/>
<rect x="171.336" y="288.176" width="22.9454" height="22.9454" rx="11.4727" transform="rotate(90 171.336 288.176)" stroke="#1B191C" stroke-width="2.11339"/>
<rect x="171.336" y="257.381" width="22.9454" height="22.9454" rx="11.4727" transform="rotate(90 171.336 257.381)" stroke="#1B191C" stroke-width="2.11339"/>
<rect x="171.336" y="226.586" width="22.9454" height="22.9454" rx="11.4727" transform="rotate(90 171.336 226.586)" stroke="#1B191C" stroke-width="2.11339"/>
</svg>
