<svg width="364" height="363" viewBox="0 0 364 363" fill="none" xmlns="http://www.w3.org/2000/svg">
<g clip-path="url(#clip0)">
<rect width="363" height="363" transform="translate(0.294922)" fill="#F6BADD"/>
<path fill-rule="evenodd" clip-rule="evenodd" d="M-66.7111 79.5037C-57.7047 57.5837 -45.8825 37.1181 -31.6946 18.5572L182.063 181.499L-66.7111 79.5037ZM-84.1457 143.895L182.063 181.499L-84.4815 216.625C-85.9831 205.129 -86.7578 193.405 -86.7578 181.5C-86.7578 168.737 -85.8675 156.183 -84.1457 143.895ZM-67.6836 281.096L182.063 181.499L-31.2511 345.021C-46.1546 325.633 -58.4709 304.153 -67.6836 281.096ZM17.8462 394.217L182.063 181.499L79.4987 429.883C57.2954 420.728 36.5884 408.683 17.8462 394.217ZM143.639 447.363L182.063 181.499L217.43 447.709C205.771 449.255 193.876 450.053 181.795 450.053C168.842 450.053 156.103 449.136 143.639 447.363ZM283.172 430.26L182.063 181.499L345.142 394.68C326.299 409.139 305.485 421.157 283.172 430.26ZM395.07 344.723L182.063 181.499L430.798 282.279C421.686 304.77 409.616 325.745 395.07 344.723ZM447.928 217.704L182.063 181.499L447.841 144.652C449.494 156.698 450.348 168.999 450.348 181.5C450.348 193.778 449.524 205.863 447.928 217.704ZM431.492 82.452L182.063 181.499L395.31 18.5907C410.121 37.9726 422.352 59.4305 431.492 82.452ZM345.531 -31.3808L182.063 181.499L281.685 -67.8612C304.715 -58.6272 326.169 -46.2952 345.531 -31.3808ZM217.475 -84.7033L182.063 181.499L146.401 -84.7412C157.983 -86.266 169.797 -87.0528 181.795 -87.0528C193.892 -87.0528 205.802 -86.253 217.475 -84.7033ZM79.8133 -67.0121C57.4955 -57.8438 36.6853 -45.7567 17.8577 -31.2257L182.063 181.499L79.8133 -67.0121Z" fill="#F8882E"/>
<g filter="url(#filter0_b)">
<rect x="27.1836" y="26.889" width="94.1111" height="23.5278" rx="11.7639" fill="white" fill-opacity="0.25"/>
</g>
<path d="M48.1591 41.8371C48.3406 41.8371 48.5826 41.827 48.9456 41.7968V40.2944C48.8347 40.3044 48.6935 40.3246 48.5322 40.3246C48.1793 40.3246 48.0482 40.1834 47.9575 39.7095L47.8062 39.0541C47.6751 38.3483 47.2718 38.1365 45.9912 38.1164V38.076C47.2113 38.0559 47.544 37.9046 47.7054 37.2794L47.9373 36.4627C48.0079 36.2005 48.149 36.0896 48.4314 36.0896C48.623 36.0896 48.6835 36.0896 48.8347 36.1098V34.6981C48.6028 34.6679 48.3507 34.6578 48.0684 34.6578C47.181 34.6578 46.7273 34.9401 46.566 35.6157L46.2937 36.6442C46.1525 37.2391 45.8904 37.4912 45.4165 37.4912H44.9022C44.751 37.4912 44.6804 37.5013 44.6199 37.5416L44.5997 37.5214C44.63 37.4609 44.6501 37.3399 44.6501 37.1988V34.7183H43.0872V41.7766H44.6501V39.0138C44.6501 38.8726 44.63 38.7516 44.5997 38.6911L44.6199 38.6709C44.6804 38.7113 44.751 38.7214 44.9022 38.7214H45.4165C45.9307 38.7214 46.1929 38.9634 46.3038 39.5482L46.5559 40.7784C46.697 41.4943 47.2214 41.8371 48.1591 41.8371ZM50.5711 41.7766H52.2853L52.9508 40.3044H55.4817L56.1371 41.7766H57.8513L54.3725 34.5872H54.0498L50.5711 41.7766ZM53.3037 39.1953L53.2936 39.1852C53.3843 39.0844 53.4751 38.923 53.5759 38.7113L53.9793 37.7534C54.1204 37.4105 54.1809 37.1887 54.191 37.0274H54.2313C54.2414 37.1887 54.312 37.4105 54.4532 37.7534L54.8565 38.7113C54.9473 38.923 55.038 39.0844 55.1288 39.1852L55.1187 39.1953C55.0078 39.1549 54.8767 39.1449 54.6649 39.1449H53.7574C53.5457 39.1449 53.4146 39.1549 53.3037 39.1953ZM62.6451 34.7183H60.0335V41.7766H61.5964V39.3566C61.5964 39.2154 61.5763 39.1045 61.546 39.0541L61.5662 39.0339C61.6267 39.0743 61.6973 39.0844 61.8485 39.0844H62.7258C64.2483 39.0844 65.1458 38.2878 65.1458 36.8963C65.1458 35.5149 64.2282 34.7183 62.6451 34.7183ZM61.5662 36.0089C61.6267 36.0493 61.6973 36.0594 61.8485 36.0594H62.6955C63.2501 36.0594 63.603 36.382 63.603 36.8963C63.603 37.4105 63.2501 37.7433 62.6955 37.7433H61.8485C61.6973 37.7433 61.6267 37.7534 61.5662 37.7937L61.546 37.7735C61.5763 37.7231 61.5964 37.6021 61.5964 37.4609V36.3316C61.5964 36.1904 61.5763 36.0795 61.546 36.0291L61.5662 36.0089ZM72.074 34.7183H66.7198V36.14H68.3734C68.5146 36.14 68.5852 36.1199 68.6356 36.0896L68.6558 36.1098C68.6356 36.1602 68.6154 36.2711 68.6154 36.4123V41.7766H70.1784V36.4123C70.1784 36.2711 70.1683 36.1602 70.1481 36.1098L70.1683 36.0896C70.2187 36.1199 70.2893 36.14 70.4304 36.14H72.074V34.7183ZM77.2939 34.567C75.126 34.567 73.5731 36.1098 73.5731 38.2474C73.5731 40.3851 75.126 41.9279 77.2939 41.9279C79.4517 41.9279 81.0045 40.3851 81.0045 38.2474C81.0045 36.1098 79.4517 34.567 77.2939 34.567ZM77.2939 36.0795C78.5442 36.0795 79.4013 36.9669 79.4013 38.2474C79.4013 39.528 78.5442 40.4154 77.2939 40.4154C76.0335 40.4154 75.1764 39.528 75.1764 38.2474C75.1764 36.9669 76.0335 36.0795 77.2939 36.0795ZM86.9947 41.7766H88.5576V34.7183H86.9947V37.4811C86.4502 37.6525 85.9662 37.7332 85.5023 37.7332C84.7763 37.7332 84.3528 37.2996 84.3528 36.5434V34.7183H82.7899V36.7652C82.7899 38.2878 83.6672 39.2154 85.1293 39.2154C85.7746 39.2154 86.4905 39.0944 87.0552 38.8625L87.0753 38.8827C87.0249 39.0541 86.9947 39.2255 86.9947 39.5079V41.7766ZM96.4181 41.8371C96.5996 41.8371 96.8416 41.827 97.2046 41.7968V40.2944C97.0937 40.3044 96.9525 40.3246 96.7912 40.3246C96.4383 40.3246 96.3072 40.1834 96.2164 39.7095L96.0652 39.0541C95.9341 38.3483 95.5308 38.1365 94.2502 38.1164V38.076C95.4703 38.0559 95.803 37.9046 95.9644 37.2794L96.1963 36.4627C96.2669 36.2005 96.408 36.0896 96.6904 36.0896C96.8819 36.0896 96.9424 36.0896 97.0937 36.1098V34.6981C96.8618 34.6679 96.6097 34.6578 96.3274 34.6578C95.44 34.6578 94.9863 34.9401 94.8249 35.6157L94.5527 36.6442C94.4115 37.2391 94.1494 37.4912 93.6754 37.4912H93.1612C93.0099 37.4912 92.9394 37.5013 92.8789 37.5416L92.8587 37.5214C92.8889 37.4609 92.9091 37.3399 92.9091 37.1988V34.7183H91.3462V41.7766H92.9091V39.0138C92.9091 38.8726 92.8889 38.7516 92.8587 38.6911L92.8789 38.6709C92.9394 38.7113 93.0099 38.7214 93.1612 38.7214H93.6754C94.1897 38.7214 94.4519 38.9634 94.5628 39.5482L94.8149 40.7784C94.956 41.4943 95.4804 41.8371 96.4181 41.8371ZM105.051 34.6174L101.371 38.3987C101.109 38.6609 101.028 38.7919 100.907 39.0239L100.867 39.0138C100.948 38.7819 100.988 38.4088 100.988 37.7836V34.7183H99.4452V41.8774H99.7779L103.458 38.0962C103.72 37.834 103.811 37.7029 103.922 37.471L103.962 37.4811C103.892 37.713 103.852 38.0861 103.852 38.7113V41.7766H105.394V34.6174H105.051Z" fill="white"/>
<path d="M294.057 336.062H303.638V329.181H302.113V334.411C302.113 334.538 302.133 334.656 302.163 334.706L302.143 334.725C302.094 334.696 302.025 334.676 301.867 334.676H299.851C299.703 334.676 299.634 334.696 299.585 334.725L299.566 334.706C299.585 334.656 299.605 334.538 299.605 334.411V329.181H298.08V334.411C298.08 334.538 298.1 334.656 298.129 334.706L298.11 334.725C298.06 334.696 297.992 334.676 297.844 334.676H295.827C295.67 334.676 295.601 334.696 295.552 334.725L295.532 334.706C295.562 334.656 295.581 334.538 295.581 334.411V329.181H294.057V336.062Z" fill="white"/>
<path d="M304.341 336.062H306.013L306.663 334.627H309.132L309.771 336.062H311.443L308.05 329.053H307.735L304.341 336.062ZM307.007 333.546L306.997 333.536C307.086 333.437 307.174 333.28 307.272 333.074L307.666 332.14C307.804 331.806 307.863 331.589 307.873 331.432H307.912C307.922 331.589 307.991 331.806 308.128 332.14L308.522 333.074C308.61 333.28 308.699 333.437 308.787 333.536L308.778 333.546C308.669 333.506 308.541 333.496 308.335 333.496H307.45C307.243 333.496 307.115 333.506 307.007 333.546Z" fill="white"/>
<path d="M318.324 329.181H312.717V333.998C312.717 334.46 312.549 334.676 312.225 334.676C312.018 334.676 311.821 334.666 311.654 334.647V336.062C311.989 336.092 312.235 336.111 312.441 336.111C313.671 336.111 314.241 335.502 314.241 334.135V330.832C314.241 330.705 314.222 330.587 314.192 330.537L314.212 330.518C314.271 330.557 314.34 330.567 314.478 330.567H316.553C316.701 330.567 316.77 330.557 316.829 330.518L316.848 330.537C316.819 330.587 316.799 330.705 316.799 330.832V336.062H318.324V329.181Z" fill="white"/>
<path d="M319.02 336.062H320.692L321.342 334.627H323.811L324.45 336.062H326.123L322.729 329.053H322.414L319.02 336.062ZM321.686 333.546L321.676 333.536C321.765 333.437 321.853 333.28 321.952 333.074L322.345 332.14C322.483 331.806 322.542 331.589 322.552 331.432H322.591C322.601 331.589 322.67 331.806 322.807 332.14L323.201 333.074C323.289 333.28 323.378 333.437 323.466 333.536L323.457 333.546C323.348 333.506 323.221 333.496 323.014 333.496H322.129C321.922 333.496 321.794 333.506 321.686 333.546Z" fill="white"/>
<path d="M326.825 336.062H336.407V329.181H334.882V334.411C334.882 334.538 334.902 334.656 334.931 334.706L334.911 334.725C334.862 334.696 334.793 334.676 334.636 334.676H332.619C332.472 334.676 332.403 334.696 332.354 334.725L332.334 334.706C332.354 334.656 332.373 334.538 332.373 334.411V329.181H330.849V334.411C330.849 334.538 330.868 334.656 330.898 334.706L330.878 334.725C330.829 334.696 330.76 334.676 330.612 334.676H328.596C328.438 334.676 328.37 334.696 328.32 334.725L328.301 334.706C328.33 334.656 328.35 334.538 328.35 334.411V329.181H326.825V336.062Z" fill="white"/>
<path d="M285.495 333.146L281.007 328.548C280.789 328.325 280.436 328.325 280.219 328.548L275.729 333.155C275.069 333.832 275.07 334.928 275.731 335.603C276.393 336.28 277.465 336.28 278.126 335.603L280.617 333.056L283.099 335.595C283.761 336.272 284.833 336.272 285.495 335.595C286.155 334.919 286.155 333.822 285.495 333.146Z" fill="white"/>
<path d="M45.3355 222.978H28.9602V241.8H33.128V227.495C33.128 227.146 33.0742 226.823 32.9935 226.688L33.0473 226.635C33.1818 226.715 33.37 226.769 33.8002 226.769H40.4955C40.9258 226.769 41.114 226.715 41.2484 226.635L41.3022 226.688C41.2215 226.823 41.1678 227.146 41.1678 227.495V241.8H45.3355V222.978ZM54.2414 228.974C50.2081 228.974 47.2503 231.609 47.2503 235.589C47.2503 239.568 50.2081 242.203 54.2414 242.203C58.2479 242.203 61.2057 239.568 61.2057 235.589C61.2057 231.609 58.2479 228.974 54.2414 228.974ZM54.2414 232.685C55.8817 232.685 57.1454 233.814 57.1454 235.589C57.1454 237.363 55.8817 238.493 54.2414 238.493C52.6012 238.493 51.3374 237.363 51.3374 235.589C51.3374 233.814 52.6012 232.685 54.2414 232.685ZM69.9261 229.377V233.599C69.0656 233.922 68.2321 234.137 67.5061 234.137C66.3767 234.137 65.5701 233.68 65.5701 232.201V229.377H61.5098V232.389C61.5098 236.342 63.3652 237.794 66.2961 237.794C67.7481 237.794 68.8505 237.417 70.1143 236.745L70.1681 236.799C70.0067 237.121 69.9261 237.498 69.9261 238.089V241.8H73.9863V229.377H69.9261ZM82.0672 229.001C78.2221 229.001 75.4795 231.475 75.4795 235.562C75.4795 239.73 78.2759 242.203 82.5781 242.203C84.4335 242.203 85.993 241.746 87.4988 240.859L86.1543 237.767C85.2939 238.331 83.9763 238.869 82.5512 238.869C80.8572 238.869 79.8086 238.089 79.459 236.664L79.3515 236.368L79.4052 236.288C79.8086 236.584 80.1581 236.61 80.8572 236.61H88.2248V235.535C88.2248 231.34 85.8855 229.001 82.0672 229.001ZM81.9059 232.012C83.2772 232.012 84.1915 232.792 84.2721 234.325L84.2183 234.379C84.057 234.19 83.6537 234.164 83.1966 234.164H80.4808C79.9968 234.164 79.5128 234.217 79.3515 234.406L79.2977 234.325C79.4859 232.873 80.4808 232.012 81.9059 232.012ZM96.9437 242.042H97.9386L100.197 237.498C100.493 236.933 100.762 236.503 100.843 235.777H100.95C101.004 236.557 101.165 236.96 101.434 237.632L103.047 241.8H107.403L101.837 229.135H100.816L98.0731 234.459C97.7773 234.997 97.5622 235.427 97.4815 235.965H97.3739C97.2933 235.427 97.0782 234.997 96.7824 234.459L94.0397 229.135H93.0179L87.4519 241.8H91.8079L93.4482 237.632C93.6902 236.96 93.8784 236.557 93.9322 235.777H94.0397C94.1204 236.503 94.3893 236.933 94.6582 237.498L96.9437 242.042ZM119.733 229.377H115.377L113.146 234.916C112.769 235.831 112.635 236.53 112.581 237.283L112.473 237.31C112.393 236.019 112.231 235.347 111.774 234.244L109.704 229.377H105.348L110.645 240.832L107.741 247.178H111.801L119.733 229.377ZM139.612 229.377H135.256L133.024 234.916C132.648 235.831 132.514 236.53 132.46 237.283L132.352 237.31C132.272 236.019 132.11 235.347 131.653 234.244L129.583 229.377H125.227L130.524 240.832L127.62 247.178H131.68L139.612 229.377ZM147.655 229.377V233.599C146.794 233.922 145.961 234.137 145.235 234.137C144.106 234.137 143.299 233.68 143.299 232.201V229.377H139.239V232.389C139.239 236.342 141.094 237.794 144.025 237.794C145.477 237.794 146.579 237.417 147.843 236.745L147.897 236.799C147.736 237.121 147.655 237.498 147.655 238.089V241.8H151.715V229.377H147.655ZM153.907 241.961H154.983L160.899 237.014C161.678 236.368 162.055 236.073 162.377 235.562L162.485 235.589C162.216 236.422 162.243 236.879 162.243 238.278V241.8H166.276V229.216H165.228L159.312 234.164C158.532 234.809 158.129 235.105 157.833 235.616L157.726 235.589C157.995 234.755 157.968 234.298 157.968 232.9V229.377H153.907V241.961ZM167.284 229.377V232.9H170.618C170.941 232.9 171.156 232.9 171.371 232.792L171.398 232.819C171.29 233.034 171.264 233.276 171.264 233.518V241.8H175.324V233.518C175.324 233.276 175.297 233.034 175.189 232.819L175.216 232.792C175.431 232.9 175.646 232.9 175.969 232.9H179.303V229.377H167.284ZM185.767 229.001C181.922 229.001 179.179 231.475 179.179 235.562C179.179 239.73 181.976 242.203 186.278 242.203C188.133 242.203 189.693 241.746 191.199 240.859L189.854 237.767C188.994 238.331 187.676 238.869 186.251 238.869C184.557 238.869 183.508 238.089 183.159 236.664L183.051 236.368L183.105 236.288C183.508 236.584 183.858 236.61 184.557 236.61H191.925V235.535C191.925 231.34 189.585 229.001 185.767 229.001ZM185.606 232.012C186.977 232.012 187.891 232.792 187.972 234.325L187.918 234.379C187.757 234.19 187.353 234.164 186.896 234.164H184.181C183.697 234.164 183.213 234.217 183.051 234.406L182.997 234.325C183.186 232.873 184.181 232.012 185.606 232.012ZM205.5 229.377H194.046V236.61C194.046 237.955 193.588 238.278 192.674 238.278H191.679V241.8H193.266C196.304 241.8 198.106 240.375 198.106 236.96V233.518C198.106 233.276 198.079 233.034 197.971 232.819L197.998 232.792C198.213 232.9 198.402 232.9 198.751 232.9H200.795C201.144 232.9 201.332 232.9 201.548 232.792L201.574 232.819C201.467 233.034 201.44 233.276 201.44 233.518V241.8H205.5V229.377ZM219.491 229.377H211.989C208.924 229.377 207.283 230.91 207.283 233.518C207.283 234.916 207.875 236.557 209.73 237.148C210.134 237.283 210.456 237.256 211.102 237.175V237.256C210.402 237.471 210.026 237.767 209.327 238.573L206.611 241.639V241.8H211.424L214.597 237.578H214.812C215.135 237.578 215.35 237.578 215.565 237.471L215.592 237.498C215.484 237.713 215.458 237.955 215.458 238.197V241.8H219.491V229.377ZM215.592 235.105L215.565 235.132C215.35 235.051 215.135 235.024 214.812 235.024H213.36C212.043 235.024 211.586 234.432 211.586 233.626C211.586 232.712 212.123 232.228 213.36 232.228H214.812C215.135 232.228 215.35 232.228 215.565 232.12L215.592 232.147C215.484 232.362 215.458 232.604 215.458 232.846V234.406C215.458 234.674 215.484 234.89 215.592 235.105ZM37.1075 260.377V263.792C37.1075 264.034 37.1344 264.276 37.242 264.491L37.2151 264.518C37 264.411 36.7849 264.411 36.4622 264.411H33.2624C32.9398 264.411 32.7247 264.411 32.5095 264.518L32.4827 264.491C32.5902 264.276 32.6171 264.034 32.6171 263.792V260.377H28.5569V272.8H32.6171V268.552C32.6171 268.31 32.5902 268.068 32.4827 267.852L32.5095 267.826C32.7247 267.933 32.9398 267.933 33.2624 267.933H36.4622C36.7849 267.933 37 267.933 37.2151 267.826L37.242 267.852C37.1344 268.068 37.1075 268.31 37.1075 268.552V272.8H41.1678V260.377H37.1075ZM49.2691 260.001C45.424 260.001 42.6813 262.475 42.6813 266.562C42.6813 270.73 45.4778 273.203 49.78 273.203C51.6353 273.203 53.1949 272.746 54.7007 271.859L53.3562 268.767C52.4958 269.331 51.1782 269.869 49.7531 269.869C48.0591 269.869 47.0104 269.089 46.6609 267.664L46.5533 267.368L46.6071 267.288C47.0104 267.584 47.36 267.61 48.0591 267.61H55.4266V266.535C55.4266 262.34 53.0873 260.001 49.2691 260.001ZM49.1078 263.012C50.4791 263.012 51.3933 263.792 51.474 265.325L51.4202 265.379C51.2589 265.19 50.8555 265.164 50.3984 265.164H47.6827C47.1987 265.164 46.7147 265.217 46.5533 265.406L46.4995 265.325C46.6878 263.873 47.6827 263.012 49.1078 263.012ZM69.5757 273.203C71.2428 273.203 72.6679 272.827 74.0661 271.993L72.4259 268.74C71.5654 269.278 70.7857 269.493 69.7639 269.493C67.9892 269.493 66.7523 268.283 66.7523 266.589C66.7523 264.868 67.9892 263.685 69.7639 263.685C70.7857 263.685 71.5654 263.9 72.4259 264.438L74.0661 261.184C72.6679 260.35 71.2428 259.974 69.5757 259.974C65.4886 259.974 62.6652 262.69 62.6652 266.589C62.6652 270.488 65.4886 273.203 69.5757 273.203ZM87.8853 260.377H75.2206V272.8H79.2809V264.518C79.2809 264.276 79.254 264.034 79.1464 263.819L79.1733 263.792C79.3884 263.9 79.6035 263.9 79.9262 263.9H83.1798C83.5024 263.9 83.7175 263.9 83.9326 263.792L83.9595 263.819C83.852 264.034 83.8251 264.276 83.8251 264.518V272.8H87.8853V260.377ZM98.486 259.974C96.1198 259.974 94.7216 261.345 93.9149 263.201L93.8074 263.174C94.0225 262.34 94.1032 261.372 94.1032 260.377H90.0967V278.178H94.0763V272.424C94.0763 271.644 93.9956 270.972 93.8343 270.004L93.9418 269.977C94.7485 272.155 96.4425 273.203 98.5129 273.203C101.901 273.203 104.213 270.649 104.213 266.616C104.213 262.528 101.82 259.974 98.486 259.974ZM97.0072 263.604C98.8087 263.604 100.046 264.733 100.046 266.589C100.046 268.444 98.8356 269.573 97.0072 269.573C95.1787 269.573 93.9687 268.417 93.9687 266.589C93.9687 264.76 95.1787 263.604 97.0072 263.604ZM111.302 259.974C109.85 259.974 108.048 260.135 106.435 260.431L106.999 263.658C108.801 263.335 109.688 263.254 110.791 263.254C112.377 263.254 113.372 263.873 113.372 264.868C113.372 265.836 113.426 266.374 113.587 266.858L113.48 266.911C112.592 265.379 111.14 264.599 109.231 264.599C106.515 264.599 104.741 266.266 104.741 268.847C104.741 271.482 106.515 273.203 109.177 273.203C111.167 273.203 112.673 272.208 113.533 270.246L113.668 270.326C113.372 271.079 113.238 271.859 113.238 272.8H117.298V264.922C117.298 261.399 115.577 259.974 111.302 259.974ZM110.818 266.992C111.839 266.992 112.565 267.664 112.565 268.578C112.565 269.493 111.839 270.165 110.818 270.165C109.796 270.165 109.097 269.52 109.097 268.578C109.097 267.664 109.796 266.992 110.818 266.992ZM129.433 266.616C129.002 266.454 128.303 266.347 127.147 266.347V266.239C128.384 266.212 128.976 266.051 129.433 265.836C130.401 265.379 130.858 264.68 130.858 263.362C130.858 261.211 129.352 260.377 126.986 260.377H119.376V272.8H126.878C129.083 272.8 131.18 271.94 131.18 269.331C131.18 267.745 130.32 266.938 129.433 266.616ZM123.302 263.201L123.329 263.174C123.544 263.281 123.759 263.281 124.082 263.281H125.588C126.314 263.281 126.771 263.604 126.771 264.222C126.771 264.868 126.314 265.217 125.588 265.217H124.082C123.759 265.217 123.544 265.217 123.329 265.325L123.302 265.298C123.41 265.083 123.436 264.841 123.436 264.599V263.9C123.436 263.658 123.41 263.416 123.302 263.201ZM125.776 269.896H124.082C123.759 269.896 123.544 269.896 123.329 270.004L123.302 269.977C123.41 269.762 123.436 269.52 123.436 269.278V268.31C123.436 268.094 123.41 267.852 123.302 267.637L123.329 267.61C123.544 267.718 123.759 267.718 124.082 267.718H125.776C126.529 267.718 127.12 267.987 127.12 268.794C127.12 269.573 126.556 269.896 125.776 269.896ZM145.261 260.377H133.806V267.61C133.806 268.955 133.349 269.278 132.435 269.278H131.44V272.8H133.026C136.065 272.8 137.866 271.375 137.866 267.96V264.518C137.866 264.276 137.839 264.034 137.732 263.819L137.759 263.792C137.974 263.9 138.162 263.9 138.512 263.9H140.555C140.905 263.9 141.093 263.9 141.308 263.792L141.335 263.819C141.227 264.034 141.201 264.276 141.201 264.518V272.8H145.261V260.377ZM159.251 260.377H151.749C148.684 260.377 147.044 261.91 147.044 264.518C147.044 265.916 147.635 267.557 149.491 268.148C149.894 268.283 150.217 268.256 150.862 268.175V268.256C150.163 268.471 149.786 268.767 149.087 269.573L146.372 272.639V272.8H151.185L154.358 268.578H154.573C154.895 268.578 155.11 268.578 155.326 268.471L155.352 268.498C155.245 268.713 155.218 268.955 155.218 269.197V272.8H159.251V260.377ZM155.352 266.105L155.326 266.132C155.11 266.051 154.895 266.024 154.573 266.024H153.121C151.803 266.024 151.346 265.432 151.346 264.626C151.346 263.712 151.884 263.228 153.121 263.228H154.573C154.895 263.228 155.11 263.228 155.326 263.12L155.352 263.147C155.245 263.362 155.218 263.604 155.218 263.846V265.406C155.218 265.674 155.245 265.89 155.352 266.105ZM174.498 259.974C171.056 259.974 168.421 261.883 167.695 264.895H166.135C165.813 264.895 165.598 264.895 165.382 265.002L165.356 264.975C165.463 264.76 165.49 264.518 165.49 264.276V260.377H161.484V272.8H165.49V268.901C165.49 268.659 165.463 268.417 165.356 268.202L165.382 268.175C165.598 268.283 165.813 268.283 166.135 268.283H167.695C168.421 271.294 171.056 273.203 174.498 273.203C178.504 273.203 181.462 270.568 181.462 266.589C181.462 262.609 178.504 259.974 174.498 259.974ZM174.498 269.493C172.858 269.493 171.594 268.363 171.594 266.589C171.594 264.814 172.858 263.685 174.498 263.685C176.111 263.685 177.402 264.814 177.402 266.589C177.402 268.363 176.111 269.493 174.498 269.493ZM181.425 260.377V263.9H184.759C185.082 263.9 185.297 263.9 185.512 263.792L185.539 263.819C185.431 264.034 185.404 264.276 185.404 264.518V272.8H189.465V264.518C189.465 264.276 189.438 264.034 189.33 263.819L189.357 263.792C189.572 263.9 189.787 263.9 190.11 263.9H193.444V260.377H181.425ZM200.23 273.203C201.898 273.203 203.323 272.827 204.721 271.993L203.081 268.74C202.22 269.278 201.44 269.493 200.419 269.493C198.644 269.493 197.407 268.283 197.407 266.589C197.407 264.868 198.644 263.685 200.419 263.685C201.44 263.685 202.22 263.9 203.081 264.438L204.721 261.184C203.323 260.35 201.898 259.974 200.23 259.974C196.143 259.974 193.32 262.69 193.32 266.589C193.32 270.488 196.143 273.203 200.23 273.203ZM217.653 260.377H210.151C207.085 260.377 205.445 261.91 205.445 264.518C205.445 265.916 206.037 267.557 207.892 268.148C208.295 268.283 208.618 268.256 209.263 268.175V268.256C208.564 268.471 208.188 268.767 207.489 269.573L204.773 272.639V272.8H209.586L212.759 268.578H212.974C213.297 268.578 213.512 268.578 213.727 268.471L213.754 268.498C213.646 268.713 213.619 268.955 213.619 269.197V272.8H217.653V260.377ZM213.754 266.105L213.727 266.132C213.512 266.051 213.297 266.024 212.974 266.024H211.522C210.205 266.024 209.747 265.432 209.747 264.626C209.747 263.712 210.285 263.228 211.522 263.228H212.974C213.297 263.228 213.512 263.228 213.727 263.12L213.754 263.147C213.646 263.362 213.619 263.604 213.619 263.846V265.406C213.619 265.674 213.646 265.89 213.754 266.105ZM34.7682 304.203C36.4353 304.203 37.8604 303.827 39.2587 302.993L37.6184 299.74C36.758 300.278 35.9782 300.493 34.9564 300.493C33.1818 300.493 31.9449 299.283 31.9449 297.589C31.9449 295.868 33.1818 294.685 34.9564 294.685C35.9782 294.685 36.758 294.9 37.6184 295.438L39.2587 292.184C37.8604 291.35 36.4353 290.974 34.7682 290.974C30.6811 290.974 27.8578 293.69 27.8578 297.589C27.8578 301.488 30.6811 304.203 34.7682 304.203ZM45.7284 291.377V294.9H49.0626C49.3853 294.9 49.6004 294.9 49.8155 294.792L49.8424 294.819C49.7348 295.034 49.7079 295.276 49.7079 295.518V303.8H53.7682V295.518C53.7682 295.276 53.7413 295.034 53.6337 294.819L53.6606 294.792C53.8757 294.9 54.0908 294.9 54.4135 294.9H57.7477V291.377H45.7284ZM67.1059 290.974C64.7397 290.974 63.3414 292.345 62.5348 294.201L62.4272 294.174C62.6423 293.34 62.723 292.372 62.723 291.377H58.7165V309.178H62.6961V303.424C62.6961 302.644 62.6154 301.972 62.4541 301.004L62.5617 300.977C63.3683 303.155 65.0623 304.203 67.1328 304.203C70.5208 304.203 72.8332 301.649 72.8332 297.616C72.8332 293.528 70.4401 290.974 67.1059 290.974ZM65.627 294.604C67.4285 294.604 68.6654 295.733 68.6654 297.589C68.6654 299.444 67.4554 300.573 65.627 300.573C63.7985 300.573 62.5885 299.417 62.5885 297.589C62.5885 295.76 63.7985 294.604 65.627 294.604ZM86.5549 291.377H82.1989L79.9672 296.916C79.5907 297.831 79.4563 298.53 79.4025 299.283L79.2949 299.31C79.2143 298.019 79.0529 297.347 78.5958 296.244L76.5254 291.377H72.1694L77.4665 302.832L74.5625 309.178H78.6227L86.5549 291.377ZM85.003 307.564H88.6598V304.66C88.6598 304.418 88.6061 304.176 88.5254 303.961L88.5523 303.934C88.7405 304.042 88.9556 304.042 89.3052 304.042H96.619C96.9416 304.042 97.1567 304.042 97.3718 303.934L97.3987 303.961C97.2912 304.176 97.2643 304.418 97.2643 304.66V307.564H100.894V300.762H99.6574C99.3347 300.762 99.1196 300.762 98.9045 300.869L98.8776 300.842C98.9852 300.627 99.0121 300.385 99.0121 300.143V291.377H88.4985V293.824C88.4985 296.164 88.149 298.503 87.1541 300.143C87.0196 300.412 86.9658 300.627 86.9658 300.842L86.939 300.869C86.7238 300.762 86.5894 300.762 86.2667 300.762H85.003V307.564ZM90.811 300.869L90.7841 300.842C91.5101 299.605 92.0478 297.562 92.0478 295.922V295.276C92.0478 295.034 92.021 294.792 91.9134 294.577L91.9403 294.55C92.1554 294.658 92.3705 294.658 92.6932 294.658H94.5216C94.8443 294.658 95.0594 294.658 95.2745 294.55L95.3014 294.577C95.1938 294.792 95.167 295.034 95.167 295.276V300.143C95.167 300.385 95.1938 300.627 95.3014 300.842L95.2745 300.869C95.0594 300.762 94.8443 300.762 94.5216 300.762H91.5638C91.2412 300.762 91.0261 300.762 90.811 300.869ZM110.714 291.377V294.792C110.714 295.034 110.741 295.276 110.848 295.491L110.821 295.518C110.606 295.411 110.391 295.411 110.068 295.411H106.869C106.546 295.411 106.331 295.411 106.116 295.518L106.089 295.491C106.196 295.276 106.223 295.034 106.223 294.792V291.377H102.163V303.8H106.223V299.552C106.223 299.31 106.196 299.068 106.089 298.852L106.116 298.826C106.331 298.933 106.546 298.933 106.869 298.933H110.068C110.391 298.933 110.606 298.933 110.821 298.826L110.848 298.852C110.741 299.068 110.714 299.31 110.714 299.552V303.8H114.774V291.377H110.714ZM123.682 294.765H121.692C121.37 294.765 121.154 294.765 120.939 294.873L120.912 294.846C121.02 294.631 121.047 294.389 121.047 294.147V291.377H116.987V303.8H123.682C126.586 303.8 128.603 302.375 128.603 299.283C128.603 296.164 126.586 294.765 123.682 294.765ZM129.49 291.377V303.8H133.55V291.377H129.49ZM122.956 300.681H121.692C121.37 300.681 121.154 300.681 120.939 300.788L120.912 300.762C121.02 300.546 121.047 300.304 121.047 300.062V298.476C121.047 298.234 121.02 297.992 120.912 297.777L120.939 297.75C121.154 297.858 121.37 297.858 121.692 297.858H122.956C123.87 297.858 124.435 298.368 124.435 299.283C124.435 300.197 123.87 300.681 122.956 300.681ZM143.896 304.042H144.891L147.15 299.498C147.446 298.933 147.715 298.503 147.795 297.777H147.903C147.957 298.557 148.118 298.96 148.387 299.632L150 303.8H154.356L148.79 291.135H147.768L145.026 296.459C144.73 296.997 144.515 297.427 144.434 297.965H144.327C144.246 297.427 144.031 296.997 143.735 296.459L140.992 291.135H139.971L134.405 303.8H138.761L140.401 299.632C140.643 298.96 140.831 298.557 140.885 297.777H140.992C141.073 298.503 141.342 298.933 141.611 299.498L143.896 304.042ZM174.437 291.377H161.772V303.8H165.833V295.518C165.833 295.276 165.806 295.034 165.698 294.819L165.725 294.792C165.94 294.9 166.155 294.9 166.478 294.9H169.732C170.054 294.9 170.269 294.9 170.484 294.792L170.511 294.819C170.404 295.034 170.377 295.276 170.377 295.518V303.8H174.437V291.377ZM182.94 290.974C178.907 290.974 175.949 293.609 175.949 297.589C175.949 301.568 178.907 304.203 182.94 304.203C186.947 304.203 189.905 301.568 189.905 297.589C189.905 293.609 186.947 290.974 182.94 290.974ZM182.94 294.685C184.581 294.685 185.844 295.814 185.844 297.589C185.844 299.363 184.581 300.493 182.94 300.493C181.3 300.493 180.036 299.363 180.036 297.589C180.036 295.814 181.3 294.685 182.94 294.685ZM201.502 297.616C201.072 297.454 200.373 297.347 199.217 297.347V297.239C200.454 297.212 201.045 297.051 201.502 296.836C202.47 296.379 202.927 295.68 202.927 294.362C202.927 292.211 201.422 291.377 199.055 291.377H191.446V303.8H198.948C201.153 303.8 203.25 302.94 203.25 300.331C203.25 298.745 202.39 297.938 201.502 297.616ZM195.372 294.201L195.398 294.174C195.614 294.281 195.829 294.281 196.151 294.281H197.657C198.383 294.281 198.84 294.604 198.84 295.222C198.84 295.868 198.383 296.217 197.657 296.217H196.151C195.829 296.217 195.614 296.217 195.398 296.325L195.372 296.298C195.479 296.083 195.506 295.841 195.506 295.599V294.9C195.506 294.658 195.479 294.416 195.372 294.201ZM197.845 300.896H196.151C195.829 300.896 195.614 300.896 195.398 301.004L195.372 300.977C195.479 300.762 195.506 300.52 195.506 300.278V299.31C195.506 299.094 195.479 298.852 195.372 298.637L195.398 298.61C195.614 298.718 195.829 298.718 196.151 298.718H197.845C198.598 298.718 199.19 298.987 199.19 299.794C199.19 300.573 198.625 300.896 197.845 300.896ZM210.635 291.001C206.79 291.001 204.047 293.475 204.047 297.562C204.047 301.73 206.844 304.203 211.146 304.203C213.001 304.203 214.561 303.746 216.067 302.859L214.722 299.767C213.862 300.331 212.544 300.869 211.119 300.869C209.425 300.869 208.376 300.089 208.027 298.664L207.919 298.368L207.973 298.288C208.376 298.584 208.726 298.61 209.425 298.61H216.793V297.535C216.793 293.34 214.453 291.001 210.635 291.001ZM210.474 294.012C211.845 294.012 212.759 294.792 212.84 296.325L212.786 296.379C212.625 296.19 212.221 296.164 211.764 296.164H209.049C208.565 296.164 208.081 296.217 207.919 296.406L207.865 296.325C208.054 294.873 209.049 294.012 210.474 294.012ZM216.393 307.564H220.05V304.66C220.05 304.418 219.996 304.176 219.915 303.961L219.942 303.934C220.131 304.042 220.346 304.042 220.695 304.042H228.009C228.332 304.042 228.547 304.042 228.762 303.934L228.789 303.961C228.681 304.176 228.654 304.418 228.654 304.66V307.564H232.284V300.762H231.047C230.725 300.762 230.51 300.762 230.295 300.869L230.268 300.842C230.375 300.627 230.402 300.385 230.402 300.143V291.377H219.889V293.824C219.889 296.164 219.539 298.503 218.544 300.143C218.41 300.412 218.356 300.627 218.356 300.842L218.329 300.869C218.114 300.762 217.979 300.762 217.657 300.762H216.393V307.564ZM222.201 300.869L222.174 300.842C222.9 299.605 223.438 297.562 223.438 295.922V295.276C223.438 295.034 223.411 294.792 223.303 294.577L223.33 294.55C223.545 294.658 223.761 294.658 224.083 294.658H225.912C226.234 294.658 226.449 294.658 226.665 294.55L226.691 294.577C226.584 294.792 226.557 295.034 226.557 295.276V300.143C226.557 300.385 226.584 300.627 226.691 300.842L226.665 300.869C226.449 300.762 226.234 300.762 225.912 300.762H222.954C222.631 300.762 222.416 300.762 222.201 300.869ZM239.048 291.001C235.203 291.001 232.46 293.475 232.46 297.562C232.46 301.73 235.257 304.203 239.559 304.203C241.414 304.203 242.974 303.746 244.479 302.859L243.135 299.767C242.275 300.331 240.957 300.869 239.532 300.869C237.838 300.869 236.789 300.089 236.44 298.664L236.332 298.368L236.386 298.288C236.789 298.584 237.139 298.61 237.838 298.61H245.205V297.535C245.205 293.34 242.866 291.001 239.048 291.001ZM238.887 294.012C240.258 294.012 241.172 294.792 241.253 296.325L241.199 296.379C241.038 296.19 240.634 296.164 240.177 296.164H237.461C236.977 296.164 236.493 296.217 236.332 296.406L236.278 296.325C236.467 294.873 237.461 294.012 238.887 294.012ZM255.142 291.377V294.792C255.142 295.034 255.169 295.276 255.276 295.491L255.249 295.518C255.034 295.411 254.819 295.411 254.496 295.411H251.297C250.974 295.411 250.759 295.411 250.544 295.518L250.517 295.491C250.624 295.276 250.651 295.034 250.651 294.792V291.377H246.591V303.8H250.651V299.552C250.651 299.31 250.624 299.068 250.517 298.852L250.544 298.826C250.759 298.933 250.974 298.933 251.297 298.933H254.496C254.819 298.933 255.034 298.933 255.249 298.826L255.276 298.852C255.169 299.068 255.142 299.31 255.142 299.552V303.8H259.202V291.377H255.142ZM261.415 303.961H262.49L268.406 299.014C269.186 298.368 269.562 298.073 269.885 297.562L269.992 297.589C269.723 298.422 269.75 298.879 269.75 300.278V303.8H273.784V291.216H272.735L266.819 296.164C266.04 296.809 265.636 297.105 265.34 297.616L265.233 297.589C265.502 296.755 265.475 296.298 265.475 294.9V291.377H261.415V303.961ZM281.917 291.001C278.072 291.001 275.329 293.475 275.329 297.562C275.329 301.73 278.125 304.203 282.428 304.203C284.283 304.203 285.843 303.746 287.348 302.859L286.004 299.767C285.143 300.331 283.826 300.869 282.401 300.869C280.707 300.869 279.658 300.089 279.309 298.664L279.201 298.368L279.255 298.288C279.658 298.584 280.008 298.61 280.707 298.61H288.074V297.535C288.074 293.34 285.735 291.001 281.917 291.001ZM281.755 294.012C283.127 294.012 284.041 294.792 284.122 296.325L284.068 296.379C283.907 296.19 283.503 296.164 283.046 296.164H280.33C279.846 296.164 279.362 296.217 279.201 296.406L279.147 296.325C279.335 294.873 280.33 294.012 281.755 294.012ZM296.793 304.042H297.788L300.047 299.498C300.343 298.933 300.611 298.503 300.692 297.777H300.8C300.853 298.557 301.015 298.96 301.284 299.632L302.897 303.8H307.253L301.687 291.135H300.665L297.923 296.459C297.627 296.997 297.412 297.427 297.331 297.965H297.223C297.143 297.427 296.928 296.997 296.632 296.459L293.889 291.135H292.867L287.301 303.8H291.657L293.298 299.632C293.54 298.96 293.728 298.557 293.782 297.777H293.889C293.97 298.503 294.239 298.933 294.508 299.498L296.793 304.042ZM312.099 284.574C310.19 284.574 308.496 285.139 306.775 286.053L308.362 289.011C309.518 288.339 310.459 287.989 311.212 287.989C311.938 287.989 312.207 288.312 312.207 288.662C312.207 288.93 312.019 289.388 311.212 290.167L310.244 291.135C309.249 292.103 308.9 292.883 308.9 293.905C308.9 296.325 310.836 297.212 313.014 297.965L314.358 295.169C313.471 294.685 313.014 294.281 313.014 293.717C313.014 293.286 313.282 292.937 313.632 292.56L315.138 291.001C315.864 290.302 316.617 289.388 316.617 287.936C316.617 285.892 315.057 284.574 312.099 284.574ZM309.76 303.8H314.25V299.041H309.76V303.8Z" fill="white"/>
</g>
<defs>
<filter id="filter0_b" x="8.69748" y="8.40293" width="131.083" height="60.5" filterUnits="userSpaceOnUse" color-interpolation-filters="sRGB">
<feFlood flood-opacity="0" result="BackgroundImageFix"/>
<feGaussianBlur in="BackgroundImage" stdDeviation="9.24305"/>
<feComposite in2="SourceAlpha" operator="in" result="effect1_backgroundBlur"/>
<feBlend mode="normal" in="SourceGraphic" in2="effect1_backgroundBlur" result="shape"/>
</filter>
<clipPath id="clip0">
<rect width="363" height="363" fill="white" transform="translate(0.294922)"/>
</clipPath>
</defs>
</svg>
