<svg width="2290" height="592" viewBox="0 0 2290 592" fill="none" xmlns="http://www.w3.org/2000/svg">
<g clip-path="url(#clip0)">
<rect width="2290" height="592" fill="white"/>
<g clip-path="url(#clip1)">
<rect width="2290" height="1236" transform="translate(0 -45)" fill="#1A1B22"/>
<g filter="url(#filter0_bf)">
<path fill-rule="evenodd" clip-rule="evenodd" d="M579.733 1725.17C312.567 1605.96 251.509 1415.32 165.995 1228.58C97.2254 1078.4 127.034 948.733 231.271 858.653C231.271 858.653 644.927 284.683 980.726 510.932C1316.53 737.182 1359.01 870.613 1359.01 870.613C1754.89 1333.3 1952.71 1381.6 2040.09 1572.44C2142.42 1795.9 2026.49 1973.95 1771.86 2043.74L1208.44 1771.23L579.733 1725.17Z" fill="url(#paint0_linear)"/>
<path fill-rule="evenodd" clip-rule="evenodd" d="M579.733 1725.17C312.567 1605.96 251.509 1415.32 165.995 1228.58C97.2254 1078.4 127.034 948.733 231.271 858.653C231.271 858.653 644.927 284.683 980.726 510.932C1316.53 737.182 1359.01 870.613 1359.01 870.613C1754.89 1333.3 1952.71 1381.6 2040.09 1572.44C2142.42 1795.9 2026.49 1973.95 1771.86 2043.74L1208.44 1771.23L579.733 1725.17Z" fill="url(#paint1_radial)"/>
<path d="M798.097 729.28C542.757 710.379 343.711 761.484 231.271 858.653C231.271 858.653 644.927 284.683 980.726 510.932C1316.53 737.182 1359.01 870.613 1359.01 870.613C1184.05 794.788 989.357 743.437 798.097 729.28Z" fill="url(#paint2_linear)"/>
<path d="M798.097 729.28C542.757 710.379 343.711 761.484 231.271 858.653C231.271 858.653 644.927 284.683 980.726 510.932C1316.53 737.182 1359.01 870.613 1359.01 870.613C1184.05 794.788 989.357 743.437 798.097 729.28Z" fill="url(#paint3_radial)"/>
<path d="M579.733 1725.17C759.181 1805.24 995.24 1964.74 1192.94 1979.37C1332.78 1989.72 1670.77 2071.44 1771.86 2043.74L1208.44 1771.23L579.733 1725.17Z" fill="url(#paint4_linear)"/>
<path d="M579.733 1725.17C759.181 1805.24 995.24 1964.74 1192.94 1979.37C1332.78 1989.72 1670.77 2071.44 1771.86 2043.74L1208.44 1771.23L579.733 1725.17Z" fill="url(#paint5_radial)"/>
</g>
<g style="mix-blend-mode:screen" filter="url(#filter1_bf)">
<path d="M1341.13 1075C1210.05 114.658 -2149.45 1196.57 536.502 -22.1784C866.804 -400.629 1654.18 -631.494 2596.79 -286.257C3539.41 58.9811 4035.78 645.647 3705.48 1024.1C3339.32 711.621 2283.74 1420.24 1341.13 1075Z" fill="url(#paint6_linear)"/>
<path d="M1341.13 1075C1210.05 114.658 -2149.45 1196.57 536.502 -22.1784C866.804 -400.629 1654.18 -631.494 2596.79 -286.257C3539.41 58.9811 4035.78 645.647 3705.48 1024.1C3339.32 711.621 2283.74 1420.24 1341.13 1075Z" fill="url(#paint7_radial)"/>
</g>
</g>
<path d="M108.752 175.895V164.645H112.3C114.814 164.645 116.689 164.187 117.925 163.271C119.161 162.354 120.13 160.863 120.833 158.796L121.632 156.655L97.8537 109.545H112.172L127.577 141.761L140.457 109.545H154.583L132.019 162.152C131.273 163.793 130.549 165.22 129.846 166.435C129.164 167.628 128.29 168.853 127.225 170.11C126.16 171.367 125.02 172.39 123.805 173.178C122.591 173.967 121.121 174.616 119.395 175.128C117.669 175.639 115.762 175.895 113.674 175.895H108.752ZM156.058 175L155.994 164.197H157.624C159.967 164.197 161.661 162.983 162.705 160.554C163.771 158.104 164.421 153.8 164.655 147.642L165.454 125.909H202.784V175H189.808V136.616H177.695L176.928 151.605C176.523 159.744 174.946 165.678 172.198 169.407C169.449 173.136 165.433 175 160.149 175H156.058ZM217.106 193.313C213.633 193.313 210.778 192.855 208.541 191.939L211.609 181.744C213.292 182.276 214.73 182.553 215.924 182.575C217.117 182.596 218.203 182.276 219.184 181.616C220.185 180.977 220.995 179.933 221.613 178.484L222.412 176.406L204.801 125.909H219.12L229.283 161.96H229.794L240.054 125.909L254.468 125.973L235.387 180.305C232.362 188.977 226.268 193.313 217.106 193.313ZM299.752 125.909V175H286.84V160.17C284.283 160.661 281.96 160.906 279.872 160.906C272.585 160.906 266.971 159.414 263.029 156.431C259.109 153.427 257.149 148.814 257.149 142.592V125.845H269.997V142.592C269.997 145.426 270.732 147.408 272.202 148.537C273.672 149.645 276.229 150.199 279.872 150.199C282.237 150.199 284.56 149.933 286.84 149.4V125.909H299.752ZM307.443 125.909H320.45V164.197H334.289V125.909H347.297V164.197H361.136V125.909H374.144V175H307.443V125.909ZM394.826 157.038L412.5 125.909H425.924V175H412.948V143.775L395.338 175H381.818V125.909H394.826V157.038ZM429.116 136.616V125.909H473.605V136.616H457.784V175H444.808V136.616H429.116ZM499.593 175.959C492.05 175.959 486.105 173.7 481.759 169.183C477.412 164.645 475.239 158.477 475.239 150.678C475.239 145.671 476.208 141.25 478.147 137.415C480.108 133.558 482.888 130.575 486.489 128.466C490.111 126.335 494.298 125.27 499.049 125.27C502.331 125.27 505.356 125.803 508.126 126.868C510.917 127.912 513.357 129.446 515.445 131.47C517.533 133.473 519.163 136.083 520.335 139.3C521.528 142.496 522.125 146.129 522.125 150.199V153.938H488.694V153.97C488.694 157.614 489.696 160.501 491.698 162.631C493.701 164.741 496.407 165.795 499.816 165.795C502.118 165.795 504.088 165.316 505.729 164.357C507.391 163.377 508.563 161.96 509.245 160.107L521.837 160.938C520.857 165.54 518.407 169.194 514.486 171.9C510.566 174.606 505.601 175.959 499.593 175.959ZM488.694 145.501H509.309C509.287 142.56 508.339 140.153 506.464 138.278C504.61 136.381 502.213 135.433 499.273 135.433C496.311 135.433 493.84 136.403 491.858 138.342C489.898 140.259 488.843 142.646 488.694 145.501ZM554.485 193.313C551.012 193.313 548.157 192.855 545.92 191.939L548.988 181.744C550.671 182.276 552.109 182.553 553.303 182.575C554.496 182.596 555.582 182.276 556.563 181.616C557.564 180.977 558.374 179.933 558.992 178.484L559.791 176.406L542.18 125.909H556.499L566.662 161.96H567.173L577.433 125.909L591.847 125.973L572.766 180.305C569.741 188.977 563.647 193.313 554.485 193.313ZM593.377 136.616V125.909H637.866V136.616H622.046V175H609.07V136.616H593.377ZM643.24 193.409V125.909H656.663V134.155H657.27C657.781 133.047 658.389 132.013 659.092 131.055C659.816 130.096 660.722 129.158 661.808 128.242C662.916 127.326 664.269 126.602 665.867 126.069C667.487 125.536 669.277 125.27 671.237 125.27C673.964 125.27 676.51 125.803 678.875 126.868C681.262 127.933 683.371 129.489 685.203 131.534C687.036 133.58 688.474 136.232 689.518 139.492C690.583 142.752 691.116 146.428 691.116 150.518C691.116 154.524 690.605 158.146 689.582 161.385C688.559 164.602 687.142 167.255 685.331 169.343C683.541 171.431 681.443 173.029 679.035 174.137C676.627 175.245 674.017 175.799 671.205 175.799C669.308 175.799 667.561 175.543 665.963 175.032C664.387 174.542 663.044 173.86 661.936 172.987C660.828 172.113 659.902 171.197 659.156 170.238C658.41 169.279 657.781 168.246 657.27 167.138H656.855V193.409H643.24ZM659.284 139.972C657.473 142.528 656.567 146.023 656.567 150.455C656.567 154.886 657.473 158.413 659.284 161.033C661.116 163.654 663.652 164.964 666.89 164.964C670.15 164.964 672.686 163.643 674.497 161.001C676.308 158.359 677.213 154.844 677.213 150.455C677.213 146.087 676.318 142.603 674.529 140.004C672.739 137.404 670.193 136.104 666.89 136.104C663.63 136.104 661.095 137.393 659.284 139.972ZM719.685 175.959C712.142 175.959 706.198 173.7 701.851 169.183C697.504 164.645 695.331 158.477 695.331 150.678C695.331 145.671 696.301 141.25 698.24 137.415C700.2 133.558 702.98 130.575 706.581 128.466C710.203 126.335 714.39 125.27 719.142 125.27C722.423 125.27 725.448 125.803 728.218 126.868C731.009 127.912 733.449 129.446 735.537 131.47C737.625 133.473 739.255 136.083 740.427 139.3C741.62 142.496 742.217 146.129 742.217 150.199V153.938H708.786V153.97C708.786 157.614 709.788 160.501 711.791 162.631C713.794 164.741 716.499 165.795 719.909 165.795C722.21 165.795 724.181 165.316 725.821 164.357C727.483 163.377 728.655 161.96 729.337 160.107L741.929 160.938C740.949 165.54 738.499 169.194 734.578 171.9C730.658 174.606 725.693 175.959 719.685 175.959ZM708.786 145.501H729.401C729.379 142.56 728.431 140.153 726.556 138.278C724.703 136.381 722.306 135.433 719.365 135.433C716.404 135.433 713.932 136.403 711.95 138.342C709.99 140.259 708.936 142.646 708.786 145.501ZM761.23 125.909V145.021H778.009V125.909H790.921V175H778.009V155.728H761.23V175H748.222V125.909H761.23ZM811.611 125.909V145.021H828.39V125.909H841.302V175H828.39V155.728H811.611V175H798.603V125.909H811.611ZM861.993 157.038L879.667 125.909H893.09V175H880.114V143.775L862.504 175H848.985V125.909H861.993V157.038ZM914.133 157.038L931.807 125.909H945.23V175H932.254V143.775L914.644 175H901.125V125.909H914.133V157.038ZM929.473 108.778H938.966C938.944 112.678 937.506 115.81 934.651 118.175C931.796 120.518 927.961 121.69 923.145 121.69C918.33 121.69 914.495 120.518 911.64 118.175C908.785 115.81 907.357 112.678 907.357 108.778H916.785C916.764 110.398 917.275 111.761 918.319 112.869C919.363 113.956 920.972 114.499 923.145 114.499C925.276 114.499 926.863 113.956 927.907 112.869C928.951 111.783 929.473 110.419 929.473 108.778ZM130.453 244.947L143.749 210.909H159.984V260H147.136V228.775L134.96 260H125.915L114.441 229.862V260H101.433V210.909H117.541L130.453 244.947ZM202.664 257.795C198.999 259.904 194.716 260.959 189.816 260.959C184.915 260.959 180.632 259.904 176.968 257.795C173.303 255.685 170.501 252.724 168.562 248.91C166.623 245.075 165.654 240.653 165.654 235.646C165.654 227.997 167.827 221.861 172.174 217.237C176.542 212.592 182.422 210.27 189.816 210.27C197.209 210.27 203.079 212.592 207.426 217.237C211.794 221.861 213.978 227.997 213.978 235.646C213.978 240.653 213.008 245.075 211.069 248.91C209.13 252.724 206.328 255.685 202.664 257.795ZM189.88 250.412C193.161 250.412 195.686 249.048 197.454 246.321C199.244 243.572 200.139 239.982 200.139 235.55C200.139 231.119 199.244 227.528 197.454 224.78C195.686 222.031 193.161 220.657 189.88 220.657C186.556 220.657 183.988 222.031 182.177 224.78C180.387 227.507 179.493 231.097 179.493 235.55C179.493 239.982 180.387 243.572 182.177 246.321C183.988 249.048 186.556 250.412 189.88 250.412ZM248.97 244.947L262.266 210.909H278.502V260H265.654V228.775L253.477 260H244.432L232.958 229.862V260H219.951V210.909H236.059L248.97 244.947ZM308.525 260.959C300.982 260.959 295.038 258.7 290.691 254.183C286.344 249.645 284.171 243.477 284.171 235.678C284.171 230.671 285.141 226.25 287.079 222.415C289.04 218.558 291.82 215.575 295.421 213.466C299.043 211.335 303.23 210.27 307.981 210.27C311.263 210.27 314.288 210.803 317.058 211.868C319.849 212.912 322.289 214.446 324.377 216.47C326.465 218.473 328.095 221.083 329.267 224.3C330.46 227.496 331.057 231.129 331.057 235.199V238.938H297.626V238.97C297.626 242.614 298.628 245.501 300.631 247.631C302.633 249.741 305.339 250.795 308.748 250.795C311.05 250.795 313.021 250.316 314.661 249.357C316.323 248.377 317.495 246.96 318.177 245.107L330.769 245.938C329.789 250.54 327.339 254.194 323.418 256.9C319.498 259.606 314.533 260.959 308.525 260.959ZM297.626 230.501H318.241C318.219 227.56 317.271 225.153 315.396 223.278C313.543 221.381 311.146 220.433 308.205 220.433C305.244 220.433 302.772 221.403 300.79 223.342C298.83 225.259 297.775 227.646 297.626 230.501ZM350.069 210.909V230.021H366.849V210.909H379.761V260H366.849V240.728H350.069V260H337.062V210.909H350.069ZM382.601 221.616V210.909H427.09V221.616H411.27V260H398.294V221.616H382.601ZM450.414 260V210.909H493.336V260H480.329V221.616H463.262V260H450.414ZM501.323 278.409V210.909H514.746V219.155H515.353C515.865 218.047 516.472 217.013 517.175 216.055C517.9 215.096 518.805 214.158 519.892 213.242C521 212.326 522.353 211.602 523.951 211.069C525.57 210.536 527.36 210.27 529.32 210.27C532.047 210.27 534.594 210.803 536.959 211.868C539.345 212.933 541.454 214.489 543.287 216.534C545.119 218.58 546.557 221.232 547.601 224.492C548.667 227.752 549.199 231.428 549.199 235.518C549.199 239.524 548.688 243.146 547.665 246.385C546.643 249.602 545.226 252.255 543.415 254.343C541.625 256.431 539.526 258.029 537.118 259.137C534.711 260.245 532.101 260.799 529.288 260.799C527.392 260.799 525.645 260.543 524.047 260.032C522.47 259.542 521.128 258.86 520.02 257.987C518.912 257.113 517.985 256.197 517.239 255.238C516.493 254.279 515.865 253.246 515.353 252.138H514.938V278.409H501.323ZM517.367 224.972C515.556 227.528 514.65 231.023 514.65 235.455C514.65 239.886 515.556 243.413 517.367 246.033C519.199 248.654 521.735 249.964 524.973 249.964C528.233 249.964 530.769 248.643 532.58 246.001C534.391 243.359 535.297 239.844 535.297 235.455C535.297 231.087 534.402 227.603 532.612 225.004C530.822 222.404 528.276 221.104 524.973 221.104C521.714 221.104 519.178 222.393 517.367 224.972ZM590.424 257.795C586.76 259.904 582.477 260.959 577.576 260.959C572.676 260.959 568.393 259.904 564.728 257.795C561.064 255.685 558.262 252.724 556.323 248.91C554.384 245.075 553.415 240.653 553.415 235.646C553.415 227.997 555.588 221.861 559.934 217.237C564.302 212.592 570.183 210.27 577.576 210.27C584.97 210.27 590.84 212.592 595.187 217.237C599.554 221.861 601.738 227.997 601.738 235.646C601.738 240.653 600.769 245.075 598.83 248.91C596.891 252.724 594.089 255.685 590.424 257.795ZM577.64 250.412C580.922 250.412 583.446 249.048 585.215 246.321C587.005 243.572 587.9 239.982 587.9 235.55C587.9 231.119 587.005 227.528 585.215 224.78C583.446 222.031 580.922 220.657 577.64 220.657C574.316 220.657 571.749 222.031 569.938 224.78C568.148 227.507 567.253 231.097 567.253 235.55C567.253 239.982 568.148 243.572 569.938 246.321C571.749 249.048 574.316 250.412 577.64 250.412ZM648.525 192.884L652.679 201.768C650.719 203.388 648.429 204.432 645.808 204.901C643.187 205.369 639.096 205.646 633.535 205.732C627.889 205.795 623.766 207.148 621.167 209.79C618.567 212.433 616.98 216.79 616.405 222.862H616.884C619.952 216.577 625.332 213.434 633.024 213.434C639.352 213.434 644.423 215.49 648.237 219.602C652.051 223.693 653.958 229.297 653.958 236.413C653.958 243.935 651.806 249.911 647.502 254.343C643.198 258.754 637.349 260.959 629.956 260.959C622.434 260.959 616.543 258.594 612.282 253.864C608.02 249.134 605.89 242.369 605.89 233.569V229.542C605.89 217.823 608.169 209.087 612.729 203.335C617.289 197.56 624.075 194.631 633.088 194.545H637.051C639.331 194.545 640.982 194.535 642.005 194.513C643.027 194.471 644.178 194.322 645.456 194.066C646.756 193.81 647.779 193.416 648.525 192.884ZM630.02 250.412C633.13 250.412 635.591 249.208 637.402 246.8C639.214 244.371 640.119 241.058 640.119 236.861C640.119 232.706 639.214 229.489 637.402 227.209C635.613 224.908 633.13 223.757 629.956 223.757C626.781 223.757 624.288 224.908 622.477 227.209C620.666 229.489 619.75 232.706 619.728 236.861C619.728 241.058 620.645 244.371 622.477 246.8C624.309 249.208 626.824 250.412 630.02 250.412ZM668.52 278.313C665.047 278.313 662.192 277.855 659.955 276.939L663.023 266.744C664.706 267.276 666.144 267.553 667.338 267.575C668.531 267.596 669.617 267.276 670.598 266.616C671.599 265.977 672.409 264.933 673.027 263.484L673.826 261.406L656.215 210.909H670.534L680.697 246.96H681.208L691.468 210.909L705.882 210.973L686.801 265.305C683.776 273.977 677.682 278.313 668.52 278.313ZM706.773 260L723.936 234.464L706.869 210.909H722.401L735.154 230.117H737.263V210.909H750.878V230.117H752.923L765.676 210.909H781.208L764.173 234.464L781.304 260H765.42L752.796 240.824H750.878V260H737.263V240.824H735.345L722.657 260H706.773ZM782.267 274.382V249.197H786.039C786.87 248.665 787.605 247.823 788.244 246.673C788.883 245.522 789.395 244.318 789.778 243.061C790.162 241.783 790.502 240.131 790.801 238.107C791.12 236.062 791.355 234.293 791.504 232.802C791.653 231.31 791.823 229.361 792.015 226.953L793.294 210.909H830.943V249.197H838.549V274.382H825.573V260H795.563V274.382H782.267ZM799.59 249.197H818.095V221.392H804.863L804.352 226.953C803.947 232.599 803.393 237.18 802.69 240.696C802.008 244.19 800.975 247.024 799.59 249.197ZM865.976 260.959C858.433 260.959 852.488 258.7 848.142 254.183C843.795 249.645 841.622 243.477 841.622 235.678C841.622 230.671 842.591 226.25 844.53 222.415C846.491 218.558 849.271 215.575 852.872 213.466C856.494 211.335 860.681 210.27 865.432 210.27C868.714 210.27 871.739 210.803 874.509 211.868C877.3 212.912 879.74 214.446 881.828 216.47C883.916 218.473 885.546 221.083 886.718 224.3C887.911 227.496 888.508 231.129 888.508 235.199V238.938H855.077V238.97C855.077 242.614 856.079 245.501 858.081 247.631C860.084 249.741 862.79 250.795 866.199 250.795C868.5 250.795 870.471 250.316 872.112 249.357C873.774 248.377 874.946 246.96 875.628 245.107L888.22 245.938C887.24 250.54 884.79 254.194 880.869 256.9C876.949 259.606 871.984 260.959 865.976 260.959ZM855.077 230.501H875.692C875.67 227.56 874.722 225.153 872.847 223.278C870.993 221.381 868.596 220.433 865.656 220.433C862.694 220.433 860.223 221.403 858.241 223.342C856.281 225.259 855.226 227.646 855.077 230.501ZM907.52 210.909V230.021H924.299V210.909H937.211V260H924.299V240.728H907.52V260H894.513V210.909H907.52ZM957.902 242.038L975.576 210.909H988.999V260H976.023V228.775L958.413 260H944.894V210.909H957.902V242.038ZM1025.8 260V242.294H1017.07L1007.64 260H994.605L1005.18 240.217C1002.24 238.938 999.974 237.159 998.376 234.879C996.778 232.599 995.99 229.979 996.011 227.017C995.968 222.18 997.811 218.292 1001.54 215.352C1005.27 212.39 1010.29 210.909 1016.59 210.909H1038.49V260H1025.8ZM1025.8 233.089V221.584H1016.59C1014.19 221.584 1012.3 222.148 1010.94 223.278C1009.59 224.386 1008.94 225.76 1008.99 227.401C1008.94 229.062 1009.57 230.426 1010.87 231.491C1012.19 232.557 1014.06 233.089 1016.47 233.089H1025.8Z" fill="#F8F8F8"/>
</g>
<defs>
<filter id="filter0_bf" x="-8.8145" y="320.392" width="2223.72" height="1866.78" filterUnits="userSpaceOnUse" color-interpolation-filters="sRGB">
<feFlood flood-opacity="0" result="BackgroundImageFix"/>
<feGaussianBlur in="BackgroundImage" stdDeviation="68.8657"/>
<feComposite in2="SourceAlpha" operator="in" result="effect1_backgroundBlur"/>
<feBlend mode="normal" in="SourceGraphic" in2="effect1_backgroundBlur" result="shape"/>
<feGaussianBlur stdDeviation="68.8657" result="effect2_foregroundBlur"/>
</filter>
<filter id="filter1_bf" x="-751.556" y="-705.465" width="4809.28" height="2127.8" filterUnits="userSpaceOnUse" color-interpolation-filters="sRGB">
<feFlood flood-opacity="0" result="BackgroundImageFix"/>
<feGaussianBlur in="BackgroundImage" stdDeviation="68.8657"/>
<feComposite in2="SourceAlpha" operator="in" result="effect1_backgroundBlur"/>
<feBlend mode="normal" in="SourceGraphic" in2="effect1_backgroundBlur" result="shape"/>
<feGaussianBlur stdDeviation="125" result="effect2_foregroundBlur"/>
</filter>
<linearGradient id="paint0_linear" x1="1947.87" y1="1360.48" x2="524.793" y2="2012.13" gradientUnits="userSpaceOnUse">
<stop stop-color="white"/>
<stop offset="1" stop-color="white" stop-opacity="0"/>
</linearGradient>
<radialGradient id="paint1_radial" cx="0" cy="0" r="1" gradientUnits="userSpaceOnUse" gradientTransform="translate(1056.93 1294.53) rotate(-175.767) scale(964.319 587.846)">
<stop offset="0.0619708" stop-color="#CD9EC8"/>
<stop offset="1" stop-color="#4F10B7"/>
</radialGradient>
<linearGradient id="paint2_linear" x1="1947.87" y1="1360.48" x2="524.793" y2="2012.13" gradientUnits="userSpaceOnUse">
<stop stop-color="white"/>
<stop offset="1" stop-color="white" stop-opacity="0"/>
</linearGradient>
<radialGradient id="paint3_radial" cx="0" cy="0" r="1" gradientUnits="userSpaceOnUse" gradientTransform="translate(1056.93 1294.53) rotate(-175.767) scale(964.319 587.846)">
<stop offset="0.0619708" stop-color="#CD9EC8"/>
<stop offset="1" stop-color="#4F10B7"/>
</radialGradient>
<linearGradient id="paint4_linear" x1="1947.87" y1="1360.48" x2="524.793" y2="2012.13" gradientUnits="userSpaceOnUse">
<stop stop-color="white"/>
<stop offset="1" stop-color="white" stop-opacity="0"/>
</linearGradient>
<radialGradient id="paint5_radial" cx="0" cy="0" r="1" gradientUnits="userSpaceOnUse" gradientTransform="translate(1056.93 1294.53) rotate(-175.767) scale(964.319 587.846)">
<stop offset="0.0619708" stop-color="#CD9EC8"/>
<stop offset="1" stop-color="#4F10B7"/>
</radialGradient>
<linearGradient id="paint6_linear" x1="3705.48" y1="1024.1" x2="1148.53" y2="-1207.54" gradientUnits="userSpaceOnUse">
<stop stop-color="white"/>
<stop offset="0.0001" stop-opacity="0.864583"/>
<stop offset="1" stop-color="white" stop-opacity="0"/>
</linearGradient>
<radialGradient id="paint7_radial" cx="0" cy="0" r="1" gradientUnits="userSpaceOnUse" gradientTransform="translate(1998.73 398.989) rotate(-159.884) scale(1961.97 916.56)">
<stop offset="0.192708" stop-color="#7540E7" stop-opacity="0.813008"/>
<stop offset="0.192808" stop-color="#793EE1" stop-opacity="0.804811"/>
<stop offset="0.201042" stop-color="#7C3DDC" stop-opacity="0.79691"/>
<stop offset="0.378125" stop-color="#8E35BE" stop-opacity="0.751922"/>
<stop offset="0.53125" stop-color="#FF0707" stop-opacity="0.48"/>
<stop offset="0.591667" stop-color="#BB2F51" stop-opacity="0.645244"/>
<stop offset="1" stop-color="#2A85EF"/>
</radialGradient>
<clipPath id="clip0">
<rect width="2290" height="592" fill="white"/>
</clipPath>
<clipPath id="clip1">
<rect width="2290" height="1236" fill="white" transform="translate(0 -45)"/>
</clipPath>
</defs>
</svg>
